<?xml version="1.0" encoding="UTF-8"?>
<svg id="_レイヤー_2" data-name="レイヤー 2" xmlns="http://www.w3.org/2000/svg" xmlns:xlink="http://www.w3.org/1999/xlink" viewBox="0 0 193.98 73.28">
  <defs>
    <style>
      .cls-1 {
        fill: none;
        stroke: #000;
        stroke-linejoin: round;
        stroke-width: 8px;
      }

      .cls-2 {
        fill: #fff;
      }

      .cls-3 {
        fill: url(#_名称未設定グラデーション_356);
      }

      .cls-4 {
        fill: url(#_名称未設定グラデーション_356-2);
      }

      .cls-5 {
        fill: url(#_名称未設定グラデーション_356-3);
      }
    </style>
    <linearGradient id="_名称未設定グラデーション_356" data-name="名称未設定グラデーション 356" x1="36.41" y1="52.67" x2="36.41" y2="14.95" gradientUnits="userSpaceOnUse">
      <stop offset="0" stop-color="#ffa415"/>
      <stop offset=".2" stop-color="#c3856d"/>
      <stop offset=".35" stop-color="#ffa415"/>
      <stop offset=".49" stop-color="#feffe7"/>
      <stop offset=".57" stop-color="#ffa415"/>
      <stop offset="1" stop-color="#feffaa"/>
    </linearGradient>
    <linearGradient id="_名称未設定グラデーション_356-2" data-name="名称未設定グラデーション 356" x1="97.22" y1="52.67" x2="97.22" y2="14.95" xlink:href="#_名称未設定グラデーション_356"/>
    <linearGradient id="_名称未設定グラデーション_356-3" data-name="名称未設定グラデーション 356" x1="157.46" y1="52.67" x2="157.46" y2="14.95" xlink:href="#_名称未設定グラデーション_356"/>
  </defs>
  <g id="_急募1" data-name="急募1">
    <g>
      <g>
        <path class="cls-2" d="M7.12,26.2h9.02v-7.79c-2.89.12-5.7.06-8.44-.18,6.48-1.99,12.3-5.14,17.46-9.43l6.45,5.86c.23.27.31.64.23,1.11-.23.47-.59.64-1.05.53l-1.52-.29c-1.8.63-3.67,1.09-5.62,1.41v8.2l2.58-3.34c.23-.27.55-.45.94-.53.47,0,.82.12,1.05.35l2.23,2.58c.23-.43.55-.78.94-1.05.31-.2.66-.51,1.05-.94,1.33-2.15,1.88-4.55,1.64-7.21,1.17.86,2.23,1.93,3.16,3.22h5.04v-10.43l9.96,2.05c.55.12.86.39.94.82.16.55.08.98-.23,1.29l-1.99,1.76v4.51h3.52l2.23-3.22,6.91,7.21c.31.35.35.76.12,1.23-.16.43-.51.61-1.05.53l-1.64-.23-2.93,1.11,4.22,4.86c.39.31.43.64.12,1-.08.43-.35.64-.82.64h-4.8l4.8,3.81c.23.27.35.63.35,1.05-.16.39-.43.63-.82.7l-1.76-.18c-2.66,1.45-5.16,2.6-7.5,3.46,3.2,6.02,7.85,10.49,13.95,13.42-3.28,1.6-6.17,3.54-8.67,5.8-5.86-7.81-9.38-16.62-10.55-26.43-1.41,1.8-3.01,3.4-4.8,4.8,5.08,3.44,7.97,8.26,8.67,14.47.16,2.07,0,4.08-.47,6.04-.47,1.91-1.37,3.53-2.7,4.86-1.8,1.68-3.87,2.56-6.21,2.64-1.17,0-2.03-.53-2.58-1.58-1.33-2.77-3.44-4.67-6.33-5.68,2.19.08,4.53.23,7.03.47.31.08.74.06,1.29-.06.7-.27,1.25-.74,1.64-1.41.39-1.21.7-2.54.94-3.98-6.17,3.16-12.66,5-19.45,5.51v4.75c0,.62-.31,1-.94,1.11l-5.16.59c-.39,0-.72-.13-1-.38-.27-.25-.41-.56-.41-.91v-16.76c-2.73,3.28-5.78,6.02-9.14,8.2,4.61-8.4,7.5-17.38,8.67-26.95h-6.91l-1.64-2.99ZM23.64,29.19v1.29c2.81.12,5.23,1.15,7.27,3.11,1.02,1.17,1.52,2.52,1.52,4.04.08.66-.08,1.35-.47,2.05-.55.86-1.37,1.39-2.46,1.58-1.02.16-1.95-.14-2.81-.88-.55-.47-.78-1.09-.7-1.88.08-.59.04-1.17-.12-1.76-.39-1.48-1.13-2.75-2.23-3.81v25.43c7.03-2.77,13.32-6.72,18.87-11.84l-.23-.64c-5.47,3.01-11.25,5.1-17.34,6.27,5.7-3.09,10.62-6.97,14.77-11.66l-.35-.41c-3.98,3.01-8.44,5.08-13.36,6.21,5.39-3.87,9.84-8.69,13.36-14.47h-3.87l-.12-.53c-1.02.35-2.01.31-2.99-.12-.98-.43-1.74-1.09-2.29-1.99h-6.45ZM53.06,21.81h-14.41c.31,1.25.47,2.52.47,3.81-.08,1.05-.39,2.13-.94,3.22h15.23l1.29-2.29-3.16,1.11,1.52-5.86ZM48.72,31.83c.39,2.07,1.05,4.2,1.99,6.39,1.72-1.76,2.85-3.89,3.4-6.39h-5.39Z"/>
        <path class="cls-2" d="M70.16,17.53c1.37-1.88,3.14-2.54,5.33-1.99,3.36.78,5.9,2.58,7.62,5.39.74,1.29.9,2.7.47,4.22-3.05,5.9-4.45,12.09-4.22,18.57.23,2.46,1.11,4.63,2.64,6.5.35.47.8.64,1.35.53.66-.23,1.17-.68,1.52-1.35,1.88-5.62,4.55-10.82,8.03-15.59-2.11,6.52-2.29,13.09-.53,19.69l1.05,2.87c.35,1.13.23,2.23-.35,3.28-.7,1.02-1.6,1.6-2.7,1.76-3.87.59-7.44-.2-10.72-2.34s-5.45-5.14-6.5-8.96c-1.6-5.78-2.05-11.66-1.35-17.64l1-12.07c0-.78-.25-1.44-.76-1.99-.51-.55-1.13-.84-1.88-.88ZM101.81,25.91c1.17-1.68,2.74-2.83,4.72-3.46,1.97-.62,3.94-.55,5.89.23,3.59,1.84,6.45,4.47,8.58,7.91,2.13,3.44,3.21,7.21,3.25,11.31.12,1.56-.29,2.98-1.23,4.25-.94,1.27-2.17,2.1-3.69,2.49-2.11.63-3.87.1-5.27-1.58-1.17-1.64-1.64-3.46-1.41-5.45.39-4.77-.76-9.22-3.46-13.36-.9-1.05-2.01-1.81-3.34-2.26-1.33-.45-2.68-.48-4.04-.09Z"/>
        <path class="cls-2" d="M127.94,26.38l2.81.7c1.68.23,3.34-.08,4.98-.94,10.08-4.69,20.41-8.57,31-11.66.59-.12,1.09-.04,1.52.23,2.85,1.88,5.14,4.26,6.86,7.15.31.55.29,1.05-.06,1.52-.35.55-.8.78-1.35.7-4.92-.23-9.55.88-13.89,3.34-2.5,1.76-4.45,3.98-5.86,6.68s-2.09,5.59-2.05,8.67c-.2,2.11.16,4.13,1.05,6.06s2.23,3.47,3.98,4.6c3.12,1.13,6.25,1.23,9.38.29,1.05-.12,2.07.12,3.05.7,1.25,1.02,2.19,2.17,2.81,3.46.51,1.05.53,2.13.06,3.22-.43,1.05-1.21,1.8-2.34,2.23-4.18,1.33-8.44,1.58-12.77.76-3.63-.7-6.62-2.5-8.96-5.39s-3.5-6.17-3.46-9.84c.04-4.8,1.03-9.32,2.99-13.54,1.95-4.22,4.75-7.87,8.38-10.96-5.31,1.56-9.96,4.32-13.95,8.26-1.45,1.84-3.34,2.79-5.68,2.87-2.27-.39-4.2-1.44-5.8-3.13-1.6-1.7-2.5-3.7-2.7-6.01ZM167.02,11.2c2.85-.31,5.66-.12,8.44.59,1.02.27,1.9.8,2.67,1.58.76.78,1.26,1.68,1.49,2.7.2.66.18,1.32-.06,1.96s-.64,1.14-1.23,1.49c-.98.51-1.97.61-2.99.29-1.02-.31-1.8-.94-2.34-1.88l-1.23-2.58c-.98-2.07-2.56-3.46-4.75-4.16ZM173.58,8.33c1.95-1.09,4.08-1.51,6.39-1.26,2.3.25,4.3,1.14,5.98,2.67.62.7.97,1.53,1.03,2.49.06.96-.17,1.85-.67,2.67-.7.9-1.68,1.31-2.93,1.23-1.21-.12-2.09-.68-2.64-1.7l-1.7-3.16c-1.29-1.95-3.11-2.93-5.45-2.93Z"/>
      </g>
      <g>
        <path class="cls-2" d="M41.1,73.28c-3.77,0-7.05-2-8.79-5.36-.03-.06-.07-.13-.1-.2-.42-.88-.94-1.45-1.72-1.84-.62,3.23-3.12,5.77-6.5,6.4-.17.03-.33.06-.5.08l-5.16.59c-.26.03-.53.04-.79.04-2.15,0-4.2-.8-5.76-2.25-1.71-1.58-2.65-3.73-2.65-6.04v-1.89c-.7.22-1.42.33-2.14.33-1.72,0-3.43-.63-4.76-1.87-2.35-2.18-2.92-5.69-1.38-8.5,2.9-5.29,5.07-10.89,6.47-16.73-1.98-.41-3.72-1.67-4.71-3.48l-1.64-2.99c-1.19-2.17-1.15-4.8.11-6.93.18-.3.37-.58.58-.84-.5-.84-.83-1.8-.93-2.82-.36-3.33,1.7-6.45,4.9-7.43,5.56-1.71,10.62-4.44,15.04-8.12,1.3-1.08,2.89-1.62,4.48-1.62,1.69,0,3.38.61,4.71,1.82l5.4,4.91v-.26c0-2.1.95-4.1,2.58-5.43,1.26-1.03,2.83-1.57,4.42-1.57.47,0,.94.05,1.41.14l9.96,2.05c3.17.68,5.5,2.87,6.28,5.8.67.35,1.28.81,1.82,1.36l6.91,7.21c.06.07.12.13.18.2,2.15,2.42,2.63,5.72,1.3,8.69-.24.57-.54,1.09-.9,1.57.2.58.32,1.18.38,1.8.12,1.46-.18,2.9-.86,4.18-.02.05-.05.1-.07.16.19.72.28,1.48.28,2.26,0,.89-.17,1.78-.5,2.61-.94,2.33-2.85,4.08-5.21,4.78,1.64,1.47,3.51,2.7,5.62,3.71,2.42,1.16,3.96,3.6,3.97,6.29s-1.52,5.13-3.93,6.31c-2.67,1.31-5.04,2.89-7.04,4.7-1.29,1.17-2.97,1.81-4.7,1.81-.22,0-.44-.01-.67-.03-.79-.08-1.56-.29-2.27-.61-.58.83-1.23,1.61-1.96,2.34-.06.06-.11.11-.17.17-3.02,2.82-6.74,4.38-10.75,4.52-.08,0-.16,0-.23,0Z"/>
        <path class="cls-2" d="M87.93,68.61c-4.31,0-8.39-1.24-12.11-3.68-4.73-3.1-7.9-7.46-9.42-12.96-1.82-6.58-2.35-13.38-1.57-20.19l.74-8.96c-.72-.62-1.31-1.39-1.73-2.28-1.1-2.32-.85-5.06.66-7.13,2.38-3.26,5.77-5.05,9.57-5.05,1,0,2.03.13,3.06.38,5.14,1.21,9.27,4.16,11.95,8.55.03.05.06.11.09.16,1.69,2.94,2.08,6.26,1.14,9.61-.03.1-.06.2-.09.3.85-.35,1.76-.53,2.68-.53.67,0,1.35.1,2.02.3-.32-1.78.06-3.66,1.15-5.21,2.04-2.92,4.92-5.04,8.34-6.12,1.56-.49,3.15-.74,4.74-.74,1.98,0,3.95.39,5.86,1.15.2.08.4.17.59.27,4.73,2.42,8.55,5.94,11.35,10.46,2.77,4.47,4.21,9.42,4.3,14.72.18,3.14-.72,6.13-2.6,8.68-1.86,2.52-4.44,4.28-7.46,5.08-1.17.34-2.35.51-3.5.51-3.46,0-6.66-1.54-9-4.34-.11-.14-.22-.28-.33-.42-2.15-3.01-3.07-6.53-2.68-10.18.22-2.95-.43-5.67-1.99-8.29,0,0,0,0-.01,0-.61.17-1.23.25-1.85.25-.69,0-1.38-.1-2.04-.3.19,1.1.13,2.25-.23,3.37-1.67,5.17-1.84,10.22-.5,15.44l.94,2.55c.04.11.08.23.11.34.91,2.94.59,6.05-.92,8.75-.11.2-.23.4-.36.59-1.8,2.6-4.45,4.27-7.46,4.7-1.11.17-2.29.26-3.44.26Z"/>
        <path class="cls-2" d="M162.05,71.58c-2.06,0-4.16-.2-6.23-.59-5.3-1.03-9.7-3.67-13.1-7.86-3.39-4.18-5.08-9-5.02-14.33.02-2.18.2-4.32.55-6.42-.52.07-1.05.11-1.58.13-.08,0-.15,0-.23,0-.4,0-.8-.03-1.19-.1-3.78-.65-7.05-2.41-9.71-5.23-2.67-2.83-4.25-6.36-4.58-10.22-.19-2.25.72-4.46,2.44-5.92,1.28-1.09,2.89-1.67,4.54-1.67.57,0,1.14.07,1.7.21l2.26.57c.15-.02.35-.09.58-.21.1-.05.2-.1.3-.15,8.94-4.16,18.2-7.75,27.56-10.69.82-2.61,3.11-4.55,5.92-4.86.58-.06,1.17-.11,1.76-.14.56-.75,1.29-1.4,2.15-1.88,2.64-1.48,5.5-2.22,8.52-2.22.67,0,1.36.04,2.05.11,3.79.42,7.13,1.91,9.91,4.44.19.17.36.35.53.53,1.67,1.87,2.63,4.19,2.78,6.71.15,2.39-.45,4.74-1.71,6.78-.13.22-.28.43-.44.63-1.77,2.27-4.28,3.62-7.13,3.88-.74.97-1.67,1.79-2.75,2.44-.06.04-.12.07-.18.11-.24.6-.55,1.19-.94,1.74-1.61,2.38-4.12,3.74-6.91,3.74-.24,0-.47-.01-.71-.03-.26-.01-.51-.01-.77-.01-3.13,0-6.03.75-8.85,2.29-1.46,1.08-2.58,2.39-3.42,4-.87,1.67-1.28,3.42-1.26,5.35,0,.25,0,.49-.03.73-.08.88.06,1.66.43,2.47.23.5.51.9.87,1.23.64.17,1.27.25,1.9.25.74,0,1.47-.11,2.23-.34.4-.12.82-.21,1.24-.25.43-.05.87-.07,1.3-.07,2.15,0,4.21.58,6.12,1.73.28.17.56.36.81.57,2.04,1.66,3.62,3.63,4.7,5.83,1.38,2.87,1.46,6.05.22,8.98-1.16,2.81-3.41,4.96-6.32,6.07-.12.05-.24.09-.37.13-3.26,1.03-6.61,1.56-9.96,1.56Z"/>
      </g>
      <g>
        <path class="cls-1" d="M7.12,26.2h9.02v-7.79c-2.89.12-5.7.06-8.44-.18,6.48-1.99,12.3-5.14,17.46-9.43l6.45,5.86c.23.27.31.64.23,1.11-.23.47-.59.64-1.05.53l-1.52-.29c-1.8.63-3.67,1.09-5.62,1.41v8.2l2.58-3.34c.23-.27.55-.45.94-.53.47,0,.82.12,1.05.35l2.23,2.58c.23-.43.55-.78.94-1.05.31-.2.66-.51,1.05-.94,1.33-2.15,1.88-4.55,1.64-7.21,1.17.86,2.23,1.93,3.16,3.22h5.04v-10.43l9.96,2.05c.55.12.86.39.94.82.16.55.08.98-.23,1.29l-1.99,1.76v4.51h3.52l2.23-3.22,6.91,7.21c.31.35.35.76.12,1.23-.16.43-.51.61-1.05.53l-1.64-.23-2.93,1.11,4.22,4.86c.39.31.43.64.12,1-.08.43-.35.64-.82.64h-4.8l4.8,3.81c.23.27.35.63.35,1.05-.16.39-.43.63-.82.7l-1.76-.18c-2.66,1.45-5.16,2.6-7.5,3.46,3.2,6.02,7.85,10.49,13.95,13.42-3.28,1.6-6.17,3.54-8.67,5.8-5.86-7.81-9.38-16.62-10.55-26.43-1.41,1.8-3.01,3.4-4.8,4.8,5.08,3.44,7.97,8.26,8.67,14.47.16,2.07,0,4.08-.47,6.04-.47,1.91-1.37,3.53-2.7,4.86-1.8,1.68-3.87,2.56-6.21,2.64-1.17,0-2.03-.53-2.58-1.58-1.33-2.77-3.44-4.67-6.33-5.68,2.19.08,4.53.23,7.03.47.31.08.74.06,1.29-.06.7-.27,1.25-.74,1.64-1.41.39-1.21.7-2.54.94-3.98-6.17,3.16-12.66,5-19.45,5.51v4.75c0,.62-.31,1-.94,1.11l-5.16.59c-.39,0-.72-.13-1-.38-.27-.25-.41-.56-.41-.91v-16.76c-2.73,3.28-5.78,6.02-9.14,8.2,4.61-8.4,7.5-17.38,8.67-26.95h-6.91l-1.64-2.99ZM23.64,29.19v1.29c2.81.12,5.23,1.15,7.27,3.11,1.02,1.17,1.52,2.52,1.52,4.04.08.66-.08,1.35-.47,2.05-.55.86-1.37,1.39-2.46,1.58-1.02.16-1.95-.14-2.81-.88-.55-.47-.78-1.09-.7-1.88.08-.59.04-1.17-.12-1.76-.39-1.48-1.13-2.75-2.23-3.81v25.43c7.03-2.77,13.32-6.72,18.87-11.84l-.23-.64c-5.47,3.01-11.25,5.1-17.34,6.27,5.7-3.09,10.62-6.97,14.77-11.66l-.35-.41c-3.98,3.01-8.44,5.08-13.36,6.21,5.39-3.87,9.84-8.69,13.36-14.47h-3.87l-.12-.53c-1.02.35-2.01.31-2.99-.12-.98-.43-1.74-1.09-2.29-1.99h-6.45ZM53.06,21.81h-14.41c.31,1.25.47,2.52.47,3.81-.08,1.05-.39,2.13-.94,3.22h15.23l1.29-2.29-3.16,1.11,1.52-5.86ZM48.72,31.83c.39,2.07,1.05,4.2,1.99,6.39,1.72-1.76,2.85-3.89,3.4-6.39h-5.39Z"/>
        <path class="cls-1" d="M70.16,17.53c1.37-1.88,3.14-2.54,5.33-1.99,3.36.78,5.9,2.58,7.62,5.39.74,1.29.9,2.7.47,4.22-3.05,5.9-4.45,12.09-4.22,18.57.23,2.46,1.11,4.63,2.64,6.5.35.47.8.64,1.35.53.66-.23,1.17-.68,1.52-1.35,1.88-5.62,4.55-10.82,8.03-15.59-2.11,6.52-2.29,13.09-.53,19.69l1.05,2.87c.35,1.13.23,2.23-.35,3.28-.7,1.02-1.6,1.6-2.7,1.76-3.87.59-7.44-.2-10.72-2.34s-5.45-5.14-6.5-8.96c-1.6-5.78-2.05-11.66-1.35-17.64l1-12.07c0-.78-.25-1.44-.76-1.99-.51-.55-1.13-.84-1.88-.88ZM101.81,25.91c1.17-1.68,2.74-2.83,4.72-3.46,1.97-.62,3.94-.55,5.89.23,3.59,1.84,6.45,4.47,8.58,7.91,2.13,3.44,3.21,7.21,3.25,11.31.12,1.56-.29,2.98-1.23,4.25-.94,1.27-2.17,2.1-3.69,2.49-2.11.63-3.87.1-5.27-1.58-1.17-1.64-1.64-3.46-1.41-5.45.39-4.77-.76-9.22-3.46-13.36-.9-1.05-2.01-1.81-3.34-2.26-1.33-.45-2.68-.48-4.04-.09Z"/>
        <path class="cls-1" d="M127.94,26.38l2.81.7c1.68.23,3.34-.08,4.98-.94,10.08-4.69,20.41-8.57,31-11.66.59-.12,1.09-.04,1.52.23,2.85,1.88,5.14,4.26,6.86,7.15.31.55.29,1.05-.06,1.52-.35.55-.8.78-1.35.7-4.92-.23-9.55.88-13.89,3.34-2.5,1.76-4.45,3.98-5.86,6.68s-2.09,5.59-2.05,8.67c-.2,2.11.16,4.13,1.05,6.06s2.23,3.47,3.98,4.6c3.12,1.13,6.25,1.23,9.38.29,1.05-.12,2.07.12,3.05.7,1.25,1.02,2.19,2.17,2.81,3.46.51,1.05.53,2.13.06,3.22-.43,1.05-1.21,1.8-2.34,2.23-4.18,1.33-8.44,1.58-12.77.76-3.63-.7-6.62-2.5-8.96-5.39s-3.5-6.17-3.46-9.84c.04-4.8,1.03-9.32,2.99-13.54,1.95-4.22,4.75-7.87,8.38-10.96-5.31,1.56-9.96,4.32-13.95,8.26-1.45,1.84-3.34,2.79-5.68,2.87-2.27-.39-4.2-1.44-5.8-3.13-1.6-1.7-2.5-3.7-2.7-6.01ZM167.02,11.2c2.85-.31,5.66-.12,8.44.59,1.02.27,1.9.8,2.67,1.58.76.78,1.26,1.68,1.49,2.7.2.66.18,1.32-.06,1.96s-.64,1.14-1.23,1.49c-.98.51-1.97.61-2.99.29-1.02-.31-1.8-.94-2.34-1.88l-1.23-2.58c-.98-2.07-2.56-3.46-4.75-4.16ZM173.58,8.33c1.95-1.09,4.08-1.51,6.39-1.26,2.3.25,4.3,1.14,5.98,2.67.62.7.97,1.53,1.03,2.49.06.96-.17,1.85-.67,2.67-.7.9-1.68,1.31-2.93,1.23-1.21-.12-2.09-.68-2.64-1.7l-1.7-3.16c-1.29-1.95-3.11-2.93-5.45-2.93Z"/>
      </g>
      <g>
        <path class="cls-3" d="M7.12,26.2h9.02v-7.79c-2.89.12-5.7.06-8.44-.18,6.48-1.99,12.3-5.14,17.46-9.43l6.45,5.86c.23.27.31.64.23,1.11-.23.47-.59.64-1.05.53l-1.52-.29c-1.8.63-3.67,1.09-5.62,1.41v8.2l2.58-3.34c.23-.27.55-.45.94-.53.47,0,.82.12,1.05.35l2.23,2.58c.23-.43.55-.78.94-1.05.31-.2.66-.51,1.05-.94,1.33-2.15,1.88-4.55,1.64-7.21,1.17.86,2.23,1.93,3.16,3.22h5.04v-10.43l9.96,2.05c.55.12.86.39.94.82.16.55.08.98-.23,1.29l-1.99,1.76v4.51h3.52l2.23-3.22,6.91,7.21c.31.35.35.76.12,1.23-.16.43-.51.61-1.05.53l-1.64-.23-2.93,1.11,4.22,4.86c.39.31.43.64.12,1-.08.43-.35.64-.82.64h-4.8l4.8,3.81c.23.27.35.63.35,1.05-.16.39-.43.63-.82.7l-1.76-.18c-2.66,1.45-5.16,2.6-7.5,3.46,3.2,6.02,7.85,10.49,13.95,13.42-3.28,1.6-6.17,3.54-8.67,5.8-5.86-7.81-9.38-16.62-10.55-26.43-1.41,1.8-3.01,3.4-4.8,4.8,5.08,3.44,7.97,8.26,8.67,14.47.16,2.07,0,4.08-.47,6.04-.47,1.91-1.37,3.53-2.7,4.86-1.8,1.68-3.87,2.56-6.21,2.64-1.17,0-2.03-.53-2.58-1.58-1.33-2.77-3.44-4.67-6.33-5.68,2.19.08,4.53.23,7.03.47.31.08.74.06,1.29-.06.7-.27,1.25-.74,1.64-1.41.39-1.21.7-2.54.94-3.98-6.17,3.16-12.66,5-19.45,5.51v4.75c0,.62-.31,1-.94,1.11l-5.16.59c-.39,0-.72-.13-1-.38-.27-.25-.41-.56-.41-.91v-16.76c-2.73,3.28-5.78,6.02-9.14,8.2,4.61-8.4,7.5-17.38,8.67-26.95h-6.91l-1.64-2.99ZM23.64,29.19v1.29c2.81.12,5.23,1.15,7.27,3.11,1.02,1.17,1.52,2.52,1.52,4.04.08.66-.08,1.35-.47,2.05-.55.86-1.37,1.39-2.46,1.58-1.02.16-1.95-.14-2.81-.88-.55-.47-.78-1.09-.7-1.88.08-.59.04-1.17-.12-1.76-.39-1.48-1.13-2.75-2.23-3.81v25.43c7.03-2.77,13.32-6.72,18.87-11.84l-.23-.64c-5.47,3.01-11.25,5.1-17.34,6.27,5.7-3.09,10.62-6.97,14.77-11.66l-.35-.41c-3.98,3.01-8.44,5.08-13.36,6.21,5.39-3.87,9.84-8.69,13.36-14.47h-3.87l-.12-.53c-1.02.35-2.01.31-2.99-.12-.98-.43-1.74-1.09-2.29-1.99h-6.45ZM53.06,21.81h-14.41c.31,1.25.47,2.52.47,3.81-.08,1.05-.39,2.13-.94,3.22h15.23l1.29-2.29-3.16,1.11,1.52-5.86ZM48.72,31.83c.39,2.07,1.05,4.2,1.99,6.39,1.72-1.76,2.85-3.89,3.4-6.39h-5.39Z"/>
        <path class="cls-4" d="M70.16,17.53c1.37-1.88,3.14-2.54,5.33-1.99,3.36.78,5.9,2.58,7.62,5.39.74,1.29.9,2.7.47,4.22-3.05,5.9-4.45,12.09-4.22,18.57.23,2.46,1.11,4.63,2.64,6.5.35.47.8.64,1.35.53.66-.23,1.17-.68,1.52-1.35,1.88-5.62,4.55-10.82,8.03-15.59-2.11,6.52-2.29,13.09-.53,19.69l1.05,2.87c.35,1.13.23,2.23-.35,3.28-.7,1.02-1.6,1.6-2.7,1.76-3.87.59-7.44-.2-10.72-2.34s-5.45-5.14-6.5-8.96c-1.6-5.78-2.05-11.66-1.35-17.64l1-12.07c0-.78-.25-1.44-.76-1.99-.51-.55-1.13-.84-1.88-.88ZM101.81,25.91c1.17-1.68,2.74-2.83,4.72-3.46,1.97-.62,3.94-.55,5.89.23,3.59,1.84,6.45,4.47,8.58,7.91,2.13,3.44,3.21,7.21,3.25,11.31.12,1.56-.29,2.98-1.23,4.25-.94,1.27-2.17,2.1-3.69,2.49-2.11.63-3.87.1-5.27-1.58-1.17-1.64-1.64-3.46-1.41-5.45.39-4.77-.76-9.22-3.46-13.36-.9-1.05-2.01-1.81-3.34-2.26-1.33-.45-2.68-.48-4.04-.09Z"/>
        <path class="cls-5" d="M127.94,26.38l2.81.7c1.68.23,3.34-.08,4.98-.94,10.08-4.69,20.41-8.57,31-11.66.59-.12,1.09-.04,1.52.23,2.85,1.88,5.14,4.26,6.86,7.15.31.55.29,1.05-.06,1.52-.35.55-.8.78-1.35.7-4.92-.23-9.55.88-13.89,3.34-2.5,1.76-4.45,3.98-5.86,6.68s-2.09,5.59-2.05,8.67c-.2,2.11.16,4.13,1.05,6.06s2.23,3.47,3.98,4.6c3.12,1.13,6.25,1.23,9.38.29,1.05-.12,2.07.12,3.05.7,1.25,1.02,2.19,2.17,2.81,3.46.51,1.05.53,2.13.06,3.22-.43,1.05-1.21,1.8-2.34,2.23-4.18,1.33-8.44,1.58-12.77.76-3.63-.7-6.62-2.5-8.96-5.39s-3.5-6.17-3.46-9.84c.04-4.8,1.03-9.32,2.99-13.54,1.95-4.22,4.75-7.87,8.38-10.96-5.31,1.56-9.96,4.32-13.95,8.26-1.45,1.84-3.34,2.79-5.68,2.87-2.27-.39-4.2-1.44-5.8-3.13-1.6-1.7-2.5-3.7-2.7-6.01ZM167.02,11.2c2.85-.31,5.66-.12,8.44.59,1.02.27,1.9.8,2.67,1.58.76.78,1.26,1.68,1.49,2.7.2.66.18,1.32-.06,1.96s-.64,1.14-1.23,1.49c-.98.51-1.97.61-2.99.29-1.02-.31-1.8-.94-2.34-1.88l-1.23-2.58c-.98-2.07-2.56-3.46-4.75-4.16ZM173.58,8.33c1.95-1.09,4.08-1.51,6.39-1.26,2.3.25,4.3,1.14,5.98,2.67.62.7.97,1.53,1.03,2.49.06.96-.17,1.85-.67,2.67-.7.9-1.68,1.31-2.93,1.23-1.21-.12-2.09-.68-2.64-1.7l-1.7-3.16c-1.29-1.95-3.11-2.93-5.45-2.93Z"/>
      </g>
    </g>
  </g>
</svg>