<?xml version="1.0" encoding="UTF-8"?>
<svg id="_レイヤー_2" data-name="レイヤー 2" xmlns="http://www.w3.org/2000/svg" xmlns:xlink="http://www.w3.org/1999/xlink" viewBox="0 0 86.06 42.8">
  <defs>
    <style>
      .cls-1 {
        fill: url(#_名称未設定グラデーション_356);
      }

      .cls-2 {
        fill: none;
        stroke: #000;
        stroke-linejoin: round;
        stroke-width: 5px;
      }

      .cls-3 {
        fill: url(#_名称未設定グラデーション_356-2);
      }
    </style>
    <linearGradient id="_名称未設定グラデーション_356" data-name="名称未設定グラデーション 356" x1="21.25" y1="31.62" x2="21.25" y2="7.57" gradientUnits="userSpaceOnUse">
      <stop offset="0" stop-color="#ffa415"/>
      <stop offset=".2" stop-color="#c3856d"/>
      <stop offset=".35" stop-color="#ffa415"/>
      <stop offset=".49" stop-color="#feffe7"/>
      <stop offset=".57" stop-color="#ffa415"/>
      <stop offset="1" stop-color="#feffaa"/>
    </linearGradient>
    <linearGradient id="_名称未設定グラデーション_356-2" data-name="名称未設定グラデーション 356" x1="64.16" y1="31.62" x2="64.16" y2="7.57" xlink:href="#_名称未設定グラデーション_356"/>
  </defs>
  <g id="_急募2" data-name="急募2">
    <g>
      <g>
        <path class="cls-2" d="M22.91,14.43v4.54h-5.88c1.54,2.35,3.65,5.7,6.34,10.04l-3.74,2.9c-1.15-2.38-2.52-5.07-4.12-8.06v16.46h-5.08v-13.99c-1.29,3.5-3,6.57-5.12,9.2l-2.81-4.54c3.11-3.7,5.33-7.7,6.68-12.01H3.34v-4.54h7.1v-5.46c-2.21.22-4.3.38-6.26.46l-.42-4.24c5.96-.31,11.82-1.08,17.56-2.31l1.43,4.07c-2.77.67-5.18,1.15-7.22,1.43v6.05h7.39ZM24.89,31.27V5.19h5.04v26.08h-5.04ZM34.71,3.55h5.29v29.78c0,1.65-.05,2.88-.15,3.68-.1.8-.37,1.45-.82,1.95-.45.5-1.01.81-1.68.92-.67.11-1.72.17-3.15.17-.36,0-2.39-.07-6.09-.21l-.25-4.83c2.46.14,4.2.21,5.21.21.76,0,1.22-.08,1.39-.25.17-.17.25-.71.25-1.64V3.55Z"/>
        <path class="cls-2" d="M46.6,28.88l-1.85-5.29c4.96-2.66,8.65-6.2,11.09-10.63h-10.33v-4.41h9.2c-1.12-2.07-1.97-3.57-2.56-4.49l5-1.55c1.23,1.96,2.35,3.98,3.36,6.05h7.39c1.34-2.16,2.44-4.17,3.28-6.05l5.17.97c-.81,1.74-1.71,3.43-2.69,5.08h9.16v4.41h-10.33c2.44,4.42,6.13,7.97,11.09,10.63l-1.85,5.29c-1.4-.78-2.55-1.51-3.44-2.18v7.85h4.54v4.66h-37.3v-4.66h4.54v-7.85c-.9.67-2.04,1.4-3.44,2.18ZM58.36,34.55v-9.41h-3.19v9.41h3.19ZM72.22,21.02c-2.16-2.52-3.93-5.21-5.33-8.06h-5.42c-1.4,2.86-3.18,5.54-5.33,8.06h16.09ZM65.75,34.55v-9.41h-3.19v9.41h3.19ZM69.95,34.55h3.19v-9.41h-3.19v9.41Z"/>
      </g>
      <g>
        <path class="cls-1" d="M22.91,14.43v4.54h-5.88c1.54,2.35,3.65,5.7,6.34,10.04l-3.74,2.9c-1.15-2.38-2.52-5.07-4.12-8.06v16.46h-5.08v-13.99c-1.29,3.5-3,6.57-5.12,9.2l-2.81-4.54c3.11-3.7,5.33-7.7,6.68-12.01H3.34v-4.54h7.1v-5.46c-2.21.22-4.3.38-6.26.46l-.42-4.24c5.96-.31,11.82-1.08,17.56-2.31l1.43,4.07c-2.77.67-5.18,1.15-7.22,1.43v6.05h7.39ZM24.89,31.27V5.19h5.04v26.08h-5.04ZM34.71,3.55h5.29v29.78c0,1.65-.05,2.88-.15,3.68-.1.8-.37,1.45-.82,1.95-.45.5-1.01.81-1.68.92-.67.11-1.72.17-3.15.17-.36,0-2.39-.07-6.09-.21l-.25-4.83c2.46.14,4.2.21,5.21.21.76,0,1.22-.08,1.39-.25.17-.17.25-.71.25-1.64V3.55Z"/>
        <path class="cls-3" d="M46.6,28.88l-1.85-5.29c4.96-2.66,8.65-6.2,11.09-10.63h-10.33v-4.41h9.2c-1.12-2.07-1.97-3.57-2.56-4.49l5-1.55c1.23,1.96,2.35,3.98,3.36,6.05h7.39c1.34-2.16,2.44-4.17,3.28-6.05l5.17.97c-.81,1.74-1.71,3.43-2.69,5.08h9.16v4.41h-10.33c2.44,4.42,6.13,7.97,11.09,10.63l-1.85,5.29c-1.4-.78-2.55-1.51-3.44-2.18v7.85h4.54v4.66h-37.3v-4.66h4.54v-7.85c-.9.67-2.04,1.4-3.44,2.18ZM58.36,34.55v-9.41h-3.19v9.41h3.19ZM72.22,21.02c-2.16-2.52-3.93-5.21-5.33-8.06h-5.42c-1.4,2.86-3.18,5.54-5.33,8.06h16.09ZM65.75,34.55v-9.41h-3.19v9.41h3.19ZM69.95,34.55h3.19v-9.41h-3.19v9.41Z"/>
      </g>
    </g>
  </g>
</svg>