<?xml version="1.0" encoding="UTF-8"?>
<svg id="_レイヤー_2" data-name="レイヤー 2" xmlns="http://www.w3.org/2000/svg" xmlns:xlink="http://www.w3.org/1999/xlink" viewBox="0 0 520.24 89.95">
  <defs>
    <style>
      .cls-1 {
        stroke-width: 7px;
      }

      .cls-1, .cls-2 {
        fill: none;
        stroke: #000;
        stroke-miterlimit: 2;
      }

      .cls-3 {
        fill: url(#_名称未設定グラデーション_120-5);
      }

      .cls-4 {
        fill: url(#_名称未設定グラデーション_120-6);
      }

      .cls-5 {
        fill: #fff;
      }

      .cls-6 {
        fill: url(#_名称未設定グラデーション_120-4);
      }

      .cls-7 {
        fill: url(#_名称未設定グラデーション_120-2);
      }

      .cls-8 {
        fill: url(#_名称未設定グラデーション_120-3);
      }

      .cls-9 {
        fill: url(#_名称未設定グラデーション_120);
      }

      .cls-2 {
        stroke-width: 23px;
      }

      .cls-10 {
        fill: url(#_名称未設定グラデーション_120-9);
      }

      .cls-11 {
        fill: url(#_名称未設定グラデーション_120-7);
      }

      .cls-12 {
        fill: url(#_名称未設定グラデーション_120-8);
      }
    </style>
    <linearGradient id="_名称未設定グラデーション_120" data-name="名称未設定グラデーション 120" x1="25.45" y1="81.25" x2="25.45" y2="8.97" gradientUnits="userSpaceOnUse">
      <stop offset="0" stop-color="#945700"/>
      <stop offset=".19" stop-color="#e9a900"/>
      <stop offset=".29" stop-color="#f5f8b4"/>
      <stop offset=".4" stop-color="#e9a900"/>
      <stop offset="1" stop-color="#fff87f"/>
    </linearGradient>
    <linearGradient id="_名称未設定グラデーション_120-2" data-name="名称未設定グラデーション 120" x1="73.66" x2="73.66" xlink:href="#_名称未設定グラデーション_120"/>
    <linearGradient id="_名称未設定グラデーション_120-3" data-name="名称未設定グラデーション 120" x1="135.53" x2="135.53" xlink:href="#_名称未設定グラデーション_120"/>
    <linearGradient id="_名称未設定グラデーション_120-4" data-name="名称未設定グラデーション 120" x1="199.36" x2="199.36" xlink:href="#_名称未設定グラデーション_120"/>
    <linearGradient id="_名称未設定グラデーション_120-5" data-name="名称未設定グラデーション 120" x1="260.12" x2="260.12" xlink:href="#_名称未設定グラデーション_120"/>
    <linearGradient id="_名称未設定グラデーション_120-6" data-name="名称未設定グラデーション 120" x1="325.07" x2="325.07" xlink:href="#_名称未設定グラデーション_120"/>
    <linearGradient id="_名称未設定グラデーション_120-7" data-name="名称未設定グラデーション 120" x1="384.12" x2="384.12" xlink:href="#_名称未設定グラデーション_120"/>
    <linearGradient id="_名称未設定グラデーション_120-8" data-name="名称未設定グラデーション 120" x1="446.27" x2="446.27" xlink:href="#_名称未設定グラデーション_120"/>
    <linearGradient id="_名称未設定グラデーション_120-9" data-name="名称未設定グラデーション 120" x1="494.79" x2="494.79" xlink:href="#_名称未設定グラデーション_120"/>
  </defs>
  <g id="_急募2" data-name="急募2">
    <g>
      <g>
        <path class="cls-2" d="M11.5,15.97h27.9v9.3h-16.74v38.44h-11.16V15.97Z"/>
        <path class="cls-2" d="M89.62,72.45c-1.49,0-3.62-.1-6.39-.31l-.62-9.42c2.15.21,3.68.31,4.59.31.7,0,1.13-.09,1.27-.28.14-.19.22-.8.22-1.83v-18.54h-6.39v-5.21c-.99,1.86-2.01,3.53-3.04,5.02v30.88h-10.91v-20.52c-1.53,1.86-2.96,3.33-4.28,4.4l-1.12-7.32-1.3,2.79c-.12-.29-.39-.86-.81-1.71-.41-.85-.74-1.5-.99-1.95v24.3h-9.73v-16.31c-.99,2.6-2.01,4.59-3.04,5.95l-3.04-11.22c2.85-4.38,4.88-9.75,6.08-16.12h-5.15v-9.11h5.15v-9.11h9.73v9.11h3.35c4.46-2.77,8.41-6.2,11.84-10.29l7.25,5.77c-2.85,3.56-5.46,6.38-7.81,8.46-2.36,2.09-5.11,4.02-8.25,5.8l-2.79-8.74v8.12h-3.6v.37c1.82,2.85,3.41,5.42,4.77,7.69,3.84-3.35,7.5-7.75,10.97-13.21l6.7,4.53v-1.8h20.96v9.42h-3.35v17.92c0,2.03-.03,3.63-.09,4.8-.06,1.18-.24,2.28-.53,3.32-.29,1.03-.62,1.77-.99,2.2-.37.43-.99.82-1.86,1.15-.87.33-1.79.53-2.76.59-.97.06-2.33.09-4.06.09ZM82.92,28.12v-9.42h19.78v9.42h-19.78Z"/>
        <path class="cls-2" d="M127.32,54.23h-2.73v-5.77h16.99v-1.55h-16.12v-10.91h36.46v10.91h-8.8v1.55h9.73v5.77h-9.73v1.55h10.66v6.63h-10.66v1.55h11.59l-.62,8.8h-14.88c-8.52,0-15.07-.35-19.65-1.05-4.59-.7-8.04-1.9-10.35-3.6-2.77,2.15-5.33,4.01-7.69,5.58l-5.15-8.56c2.4-1.45,4.22-2.62,5.46-3.53v-13.14h-4.28v-9.11h14.94v20.03c.45.74.85,1.28,1.18,1.61v-5.21h3.66v-1.55ZM160.73,19.88v7.94h3.66v6.63h-41.35v-3.1l-5.15,4.96c-3.84-4.26-7.48-8.1-10.91-11.53l7.25-6.7c3.72,3.89,6.74,7.13,9.05,9.73h8.49c.08-.16.19-.42.31-.77.12-.35.21-.61.25-.77h-6.26v-6.39h8.18c.21-.78.52-2,.93-3.66l11.28.62c-.08.33-.22.84-.4,1.52-.19.68-.32,1.19-.4,1.52h15.07ZM141.58,63.9v-1.49h-15.62c2.23.87,7.44,1.36,15.62,1.49ZM136.43,42.38h14.57v-1.55h-14.57v1.55ZM141.58,54.23h-4.53v1.55h4.53v-1.55ZM143.25,27.81h6.26v-1.55h-5.7c-.08.17-.19.42-.31.77-.12.35-.21.61-.25.77Z"/>
        <path class="cls-2" d="M195.02,44.18l10.85,2.17c-2.98,14.88-8.25,22.32-15.81,22.32-4.8,0-8.78-2.25-11.97-6.76-3.18-4.5-4.77-10.93-4.77-19.28,0-6.45.62-12.85,1.86-19.22l11.78.93c-1.24,6.2-1.86,12.3-1.86,18.29,0,3.1.24,5.78.71,8.03.47,2.25,1.03,3.85,1.67,4.81.64.95,1.29,1.43,1.95,1.43,1.86,0,3.72-4.24,5.58-12.71ZM204.94,27.44l11.16-3.41c2.85,5.91,4.98,11.66,6.39,17.24,1.4,5.58,2.38,12.24,2.91,19.96l-11.47.62c-.54-7.11-1.48-13.22-2.82-18.32-1.34-5.1-3.4-10.47-6.17-16.09Z"/>
        <path class="cls-2" d="M266.94,69.29l-3.41-9.92c4.17-1.2,7.23-2.93,9.18-5.21,1.94-2.27,2.91-5.29,2.91-9.05,0-2.85-.71-5.3-2.14-7.35-1.43-2.05-3.4-3.52-5.92-4.43-3.39,21.91-10.31,32.86-20.77,32.86-3.6,0-6.82-1.73-9.67-5.18-2.85-3.45-4.28-7.72-4.28-12.8,0-7.77,2.63-14.05,7.9-18.85,5.27-4.79,12.35-7.19,21.23-7.19,7.44,0,13.54,2.13,18.29,6.39,4.75,4.26,7.13,9.78,7.13,16.55s-1.76,11.72-5.27,15.81c-3.51,4.09-8.58,6.88-15.19,8.37ZM255.78,33.15c-3.72.95-6.61,2.69-8.68,5.21-2.07,2.52-3.1,5.6-3.1,9.24,0,2.07.33,3.77.99,5.11.66,1.34,1.36,2.02,2.11,2.02,3.26,0,6.16-7.19,8.68-21.58Z"/>
        <path class="cls-2" d="M302.59,69.91V20h12.4v37.76c4.34-1.2,8.52-3.6,12.55-7.19,4.03-3.6,7.39-8.1,10.08-13.52l9.92,4.96c-5.91,13.97-16.76,23.27-32.55,27.9h-12.4Z"/>
        <path class="cls-2" d="M413.88,59.37l-8.68,8.68c-6.99-7.11-13.79-14.53-20.4-22.26-1.94-2.27-3.3-3.78-4.06-4.53-.77-.74-1.4-1.12-1.89-1.12-.41,0-.95.43-1.61,1.3-.66.87-1.67,2.44-3.04,4.71-2.32,3.8-5.73,8.93-10.23,15.38l-9.61-6.51c3.68-5.25,7.11-10.23,10.29-14.94,1.61-2.4,2.74-4.07,3.38-5.02.64-.95,1.45-2.05,2.42-3.29.97-1.24,1.64-2,2.01-2.29.37-.29.96-.64,1.77-1.05.81-.41,1.5-.63,2.08-.65.58-.02,1.43-.03,2.54-.03s1.94.01,2.48.03c.54.02,1.21.17,2.01.43.81.27,1.4.53,1.77.77s1.04.83,2.01,1.74c.97.91,1.81,1.75,2.51,2.51.7.77,1.88,2.08,3.53,3.94,8.35,9.22,15.25,16.62,20.71,22.2ZM402.72,30.6l-6.94,3.35c-1.65-3.22-3.58-6.8-5.77-10.73l6.94-3.53c1.86,3.39,3.78,7.03,5.77,10.91ZM413.69,28.37l-7.13,3.41c-1.74-3.43-3.7-7.09-5.89-10.97l7.13-3.6c2.65,4.88,4.61,8.6,5.89,11.16Z"/>
        <path class="cls-2" d="M424.42,70.84l-7.13-8.68c1.78-1.07,3.17-1.98,4.19-2.73,1.01-.74,1.97-1.71,2.88-2.88.91-1.18,1.57-2.33,1.98-3.47.41-1.14.78-2.75,1.08-4.84.31-2.09.51-4.3.59-6.63.08-2.33.12-5.4.12-9.21v-11.78h11.78v11.78c0,8.43-.43,14.92-1.3,19.47-.87,4.55-2.35,8.18-4.43,10.91-2.09,2.73-5.34,5.41-9.77,8.06ZM444.88,69.6V20.62h11.78v34.35c3.35-3.22,5.93-8.89,7.75-16.99l10.85,2.48c-1.45,7.52-3.58,13.46-6.39,17.83-2.81,4.36-6.88,8.13-12.21,11.31h-11.78Z"/>
        <path class="cls-2" d="M508.74,74.25h-27.9v-9.3h16.74V26.51h11.16v47.74Z"/>
      </g>
      <g>
        <path class="cls-9" d="M11.5,70.71c-3.87,0-7-3.13-7-7V15.97c0-3.87,3.13-7,7-7h27.9c3.87,0,7,3.13,7,7v9.3c0,3.87-3.13,7-7,7h-9.74v31.44c0,3.87-3.13,7-7,7h-11.16Z"/>
        <path class="cls-7" d="M68.35,80.07c-1.6,0-3.07-.53-4.25-1.44-1.18.9-2.65,1.44-4.25,1.44h-9.73c-3.87,0-7-3.13-7-7v-4.58c-1.35-.92-2.35-2.31-2.79-3.94l-3.04-11.22c-.52-1.92-.2-3.98.89-5.65,1.21-1.86,2.25-3.98,3.11-6.35-1.99-1.23-3.32-3.44-3.32-5.95v-9.11c0-3.22,2.18-5.94,5.15-6.75v-2.36c0-3.87,3.13-7,7-7h9.73c3.08,0,5.69,1.99,6.63,4.75,1.12-1.08,2.19-2.22,3.2-3.42,1.38-1.65,3.37-2.5,5.37-2.5,1.53,0,3.07.5,4.35,1.52l1.79,1.42c.55-.14,1.13-.21,1.73-.21h19.78c3.87,0,7,3.13,7,7v9.42c0,.57-.07,1.13-.2,1.67.48.95.76,2.03.76,3.17v9.42c0,2.53-1.34,4.74-3.35,5.97v11.94c0,2.17-.03,3.86-.1,5.17-.09,1.68-.35,3.31-.78,4.83-.58,2.08-1.35,3.62-2.42,4.87-1.16,1.35-2.69,2.38-4.68,3.14-1.52.58-3.14.93-4.81,1.03-1.13.07-2.6.11-4.51.11-1.66,0-3.9-.11-6.84-.32-1.03.6-2.23.94-3.51.94h-10.91Z"/>
        <path class="cls-8" d="M111.51,80.7c-.51,0-1.02-.06-1.53-.17-1.87-.42-3.48-1.58-4.47-3.22l-5.15-8.56c-1.99-3.31-.92-7.61,2.38-9.6.76-.46,1.45-.88,2.07-1.28v-2.96c-2.51-1.06-4.28-3.55-4.28-6.45v-9.11c0-2.99,1.88-5.54,4.51-6.55-1.03-1.06-2.04-2.09-3.02-3.08-1.35-1.35-2.09-3.18-2.05-5.09.04-1.9.85-3.71,2.25-5l7.25-6.7c1.34-1.24,3.05-1.86,4.75-1.86,1.84,0,3.68.72,5.06,2.16.59.62,1.16,1.22,1.72,1.81,1.27-1.33,3.07-2.17,5.06-2.17h2.96c1.21-2.22,3.55-3.66,6.15-3.66.13,0,.26,0,.39.01l11.28.62c2.09.11,4.01,1.16,5.25,2.84.04.06.09.12.13.19h8.49c3.87,0,7,3.13,7,7v1.78c2.18,1.19,3.66,3.5,3.66,6.15v6.63c0,2.14-.96,4.06-2.48,5.35v5.18c.59,1.03.93,2.22.93,3.49v3.83c.59,1.03.93,2.22.93,3.49v4.7c.69,1.2,1.01,2.58.91,3.98l-.62,8.8c-.26,3.67-3.31,6.51-6.98,6.51h-14.88c-8.95,0-15.73-.37-20.71-1.13-3.32-.51-6.18-1.25-8.63-2.24-1.56,1.14-3.05,2.19-4.46,3.13-1.16.77-2.51,1.18-3.88,1.18Z"/>
        <path class="cls-6" d="M190.06,75.67c-4.94,0-12.01-1.69-17.68-9.72-4.02-5.69-6.06-13.53-6.06-23.32,0-6.87.67-13.78,1.99-20.56.64-3.31,3.54-5.66,6.87-5.66.18,0,.37,0,.56.02l11.78.93c1.99.16,3.83,1.16,5.03,2.76,1.21,1.6,1.67,3.63,1.28,5.59-.81,4.05-1.34,8.08-1.58,12.04.86-.37,1.8-.57,2.76-.57.46,0,.92.04,1.38.14l5.73,1.15c-.98-2.57-2.13-5.22-3.47-7.93-.91-1.84-.96-3.99-.14-5.87.81-1.88,2.42-3.32,4.38-3.92l11.16-3.41c.68-.21,1.37-.31,2.05-.31,2.63,0,5.11,1.49,6.3,3.96,3.04,6.31,5.35,12.56,6.87,18.57,1.5,5.96,2.54,13.09,3.11,21.19.13,1.87-.5,3.72-1.74,5.12s-3,2.25-4.87,2.35l-11.47.62c-.13,0-.26.01-.38.01-3.06,0-5.71-1.98-6.64-4.8-4.17,7.72-9.93,11.62-17.22,11.62Z"/>
        <path class="cls-3" d="M266.94,76.29c-2.93,0-5.63-1.85-6.62-4.73l-.91-2.66c-3.64,2.85-7.85,4.28-12.62,4.28-3.96,0-9.8-1.34-15.07-7.72-3.9-4.72-5.88-10.53-5.88-17.26,0-9.79,3.43-17.87,10.19-24.02,6.58-5.98,15.3-9.01,25.95-9.01,9.18,0,16.91,2.75,22.96,8.17,6.28,5.62,9.46,12.95,9.46,21.77,0,8.14-2.34,14.99-6.96,20.37-4.5,5.24-10.88,8.82-18.96,10.64-.52.12-1.03.17-1.54.17Z"/>
        <path class="cls-4" d="M302.59,76.91c-3.87,0-7-3.13-7-7V20c0-3.87,3.13-7,7-7h12.4c3.87,0,7,3.13,7,7v26.11c.3-.25.6-.51.89-.77,3.34-2.98,6.19-6.82,8.46-11.4.83-1.67,2.28-2.94,4.05-3.53.72-.24,1.47-.36,2.22-.36,1.08,0,2.15.25,3.13.74l9.92,4.96c3.3,1.65,4.75,5.59,3.32,8.99-6.74,15.93-19.2,26.66-37.03,31.89-.64.19-1.3.28-1.97.28h-12.4Z"/>
        <path class="cls-11" d="M405.17,75.05c-1.87,0-3.65-.76-4.96-2.09-6.99-7.12-13.89-14.64-20.51-22.37-2.38,3.84-5.73,8.86-9.99,14.96-1.36,1.95-3.53,2.99-5.74,2.99-1.35,0-2.72-.39-3.92-1.21l-9.61-6.51c-1.55-1.05-2.62-2.68-2.96-4.53-.34-1.84.08-3.75,1.15-5.29,3.61-5.15,7.05-10.14,10.22-14.84l3.38-5.02c.73-1.09,1.65-2.33,2.71-3.69,1.43-1.82,2.33-2.8,3.23-3.5.74-.57,1.65-1.13,2.87-1.76,1.75-.9,3.39-1.36,5.02-1.42.64-.02,1.57-.04,2.79-.04s2.15.01,2.75.04c.57.02,1.16.09,1.78.21.58-1.74,1.82-3.18,3.46-4.01l6.94-3.53c1.02-.52,2.1-.76,3.17-.76s2.04.23,2.97.66l4.73-2.39c1.01-.51,2.09-.75,3.15-.75,2.49,0,4.89,1.33,6.16,3.66,2.66,4.91,4.68,8.74,6,11.37.84,1.68.97,3.63.36,5.4-.61,1.78-1.91,3.23-3.6,4.04l-7.13,3.41c-.97.47-2,.69-3.02.69-1.1,0-2.17-.26-3.14-.74,6.03,6.58,11.22,12.1,15.46,16.44,2.68,2.74,2.66,7.13-.05,9.84l-8.68,8.68c-1.31,1.31-3.09,2.05-4.95,2.05h-.03Z"/>
        <path class="cls-12" d="M424.42,77.84c-2.04,0-4.04-.89-5.41-2.56l-7.13-8.68c-1.29-1.57-1.83-3.62-1.49-5.62s1.54-3.76,3.28-4.81c1.59-.96,2.82-1.76,3.67-2.38.48-.35.98-.86,1.49-1.52.58-.75.83-1.27.94-1.58.11-.32.42-1.28.74-3.47.27-1.81.44-3.78.52-5.86.08-2.24.12-5.25.12-8.96v-11.78c0-3.87,3.13-7,7-7h11.78c.87,0,1.71.16,2.48.45.77-.29,1.61-.45,2.48-.45h11.78c3.87,0,7,3.13,7,7v10.4c.25-.03.5-.04.75-.04.52,0,1.04.06,1.56.18l10.85,2.48c3.68.84,6.03,4.44,5.31,8.15-1.63,8.49-4.05,15.13-7.38,20.3-3.39,5.26-8.27,9.81-14.51,13.53-1.08.65-2.32.99-3.59.99h-11.78c-3.87,0-7-3.13-7-7v-.38c-2.49,2.65-5.75,5.16-9.87,7.62-1.12.67-2.36.99-3.59.99Z"/>
        <path class="cls-10" d="M480.84,81.25c-3.87,0-7-3.13-7-7v-9.3c0-3.87,3.13-7,7-7h9.74v-31.44c0-3.87,3.13-7,7-7h11.16c3.87,0,7,3.13,7,7v47.74c0,3.87-3.13,7-7,7h-27.9Z"/>
      </g>
      <g>
        <path class="cls-1" d="M11.5,15.97h27.9v9.3h-16.74v38.44h-11.16V15.97Z"/>
        <path class="cls-1" d="M89.62,72.45c-1.49,0-3.62-.1-6.39-.31l-.62-9.42c2.15.21,3.68.31,4.59.31.7,0,1.13-.09,1.27-.28.14-.19.22-.8.22-1.83v-18.54h-6.39v-5.21c-.99,1.86-2.01,3.53-3.04,5.02v30.88h-10.91v-20.52c-1.53,1.86-2.96,3.33-4.28,4.4l-1.12-7.32-1.3,2.79c-.12-.29-.39-.86-.81-1.71-.41-.85-.74-1.5-.99-1.95v24.3h-9.73v-16.31c-.99,2.6-2.01,4.59-3.04,5.95l-3.04-11.22c2.85-4.38,4.88-9.75,6.08-16.12h-5.15v-9.11h5.15v-9.11h9.73v9.11h3.35c4.46-2.77,8.41-6.2,11.84-10.29l7.25,5.77c-2.85,3.56-5.46,6.38-7.81,8.46-2.36,2.09-5.11,4.02-8.25,5.8l-2.79-8.74v8.12h-3.6v.37c1.82,2.85,3.41,5.42,4.77,7.69,3.84-3.35,7.5-7.75,10.97-13.21l6.7,4.53v-1.8h20.96v9.42h-3.35v17.92c0,2.03-.03,3.63-.09,4.8-.06,1.18-.24,2.28-.53,3.32-.29,1.03-.62,1.77-.99,2.2-.37.43-.99.82-1.86,1.15-.87.33-1.79.53-2.76.59-.97.06-2.33.09-4.06.09ZM82.92,28.12v-9.42h19.78v9.42h-19.78Z"/>
        <path class="cls-1" d="M127.32,54.23h-2.73v-5.77h16.99v-1.55h-16.12v-10.91h36.46v10.91h-8.8v1.55h9.73v5.77h-9.73v1.55h10.66v6.63h-10.66v1.55h11.59l-.62,8.8h-14.88c-8.52,0-15.07-.35-19.65-1.05-4.59-.7-8.04-1.9-10.35-3.6-2.77,2.15-5.33,4.01-7.69,5.58l-5.15-8.56c2.4-1.45,4.22-2.62,5.46-3.53v-13.14h-4.28v-9.11h14.94v20.03c.45.74.85,1.28,1.18,1.61v-5.21h3.66v-1.55ZM160.73,19.88v7.94h3.66v6.63h-41.35v-3.1l-5.15,4.96c-3.84-4.26-7.48-8.1-10.91-11.53l7.25-6.7c3.72,3.89,6.74,7.13,9.05,9.73h8.49c.08-.16.19-.42.31-.77.12-.35.21-.61.25-.77h-6.26v-6.39h8.18c.21-.78.52-2,.93-3.66l11.28.62c-.08.33-.22.84-.4,1.52-.19.68-.32,1.19-.4,1.52h15.07ZM141.58,63.9v-1.49h-15.62c2.23.87,7.44,1.36,15.62,1.49ZM136.43,42.38h14.57v-1.55h-14.57v1.55ZM141.58,54.23h-4.53v1.55h4.53v-1.55ZM143.25,27.81h6.26v-1.55h-5.7c-.08.17-.19.42-.31.77-.12.35-.21.61-.25.77Z"/>
        <path class="cls-1" d="M195.02,44.18l10.85,2.17c-2.98,14.88-8.25,22.32-15.81,22.32-4.8,0-8.78-2.25-11.97-6.76-3.18-4.5-4.77-10.93-4.77-19.28,0-6.45.62-12.85,1.86-19.22l11.78.93c-1.24,6.2-1.86,12.3-1.86,18.29,0,3.1.24,5.78.71,8.03.47,2.25,1.03,3.85,1.67,4.81.64.95,1.29,1.43,1.95,1.43,1.86,0,3.72-4.24,5.58-12.71ZM204.94,27.44l11.16-3.41c2.85,5.91,4.98,11.66,6.39,17.24,1.4,5.58,2.38,12.24,2.91,19.96l-11.47.62c-.54-7.11-1.48-13.22-2.82-18.32-1.34-5.1-3.4-10.47-6.17-16.09Z"/>
        <path class="cls-1" d="M266.94,69.29l-3.41-9.92c4.17-1.2,7.23-2.93,9.18-5.21,1.94-2.27,2.91-5.29,2.91-9.05,0-2.85-.71-5.3-2.14-7.35-1.43-2.05-3.4-3.52-5.92-4.43-3.39,21.91-10.31,32.86-20.77,32.86-3.6,0-6.82-1.73-9.67-5.18-2.85-3.45-4.28-7.72-4.28-12.8,0-7.77,2.63-14.05,7.9-18.85,5.27-4.79,12.35-7.19,21.23-7.19,7.44,0,13.54,2.13,18.29,6.39,4.75,4.26,7.13,9.78,7.13,16.55s-1.76,11.72-5.27,15.81c-3.51,4.09-8.58,6.88-15.19,8.37ZM255.78,33.15c-3.72.95-6.61,2.69-8.68,5.21-2.07,2.52-3.1,5.6-3.1,9.24,0,2.07.33,3.77.99,5.11.66,1.34,1.36,2.02,2.11,2.02,3.26,0,6.16-7.19,8.68-21.58Z"/>
        <path class="cls-1" d="M302.59,69.91V20h12.4v37.76c4.34-1.2,8.52-3.6,12.55-7.19,4.03-3.6,7.39-8.1,10.08-13.52l9.92,4.96c-5.91,13.97-16.76,23.27-32.55,27.9h-12.4Z"/>
        <path class="cls-1" d="M413.88,59.37l-8.68,8.68c-6.99-7.11-13.79-14.53-20.4-22.26-1.94-2.27-3.3-3.78-4.06-4.53-.77-.74-1.4-1.12-1.89-1.12-.41,0-.95.43-1.61,1.3-.66.87-1.67,2.44-3.04,4.71-2.32,3.8-5.73,8.93-10.23,15.38l-9.61-6.51c3.68-5.25,7.11-10.23,10.29-14.94,1.61-2.4,2.74-4.07,3.38-5.02.64-.95,1.45-2.05,2.42-3.29.97-1.24,1.64-2,2.01-2.29.37-.29.96-.64,1.77-1.05.81-.41,1.5-.63,2.08-.65.58-.02,1.43-.03,2.54-.03s1.94.01,2.48.03c.54.02,1.21.17,2.01.43.81.27,1.4.53,1.77.77s1.04.83,2.01,1.74c.97.91,1.81,1.75,2.51,2.51.7.77,1.88,2.08,3.53,3.94,8.35,9.22,15.25,16.62,20.71,22.2ZM402.72,30.6l-6.94,3.35c-1.65-3.22-3.58-6.8-5.77-10.73l6.94-3.53c1.86,3.39,3.78,7.03,5.77,10.91ZM413.69,28.37l-7.13,3.41c-1.74-3.43-3.7-7.09-5.89-10.97l7.13-3.6c2.65,4.88,4.61,8.6,5.89,11.16Z"/>
        <path class="cls-1" d="M424.42,70.84l-7.13-8.68c1.78-1.07,3.17-1.98,4.19-2.73,1.01-.74,1.97-1.71,2.88-2.88.91-1.18,1.57-2.33,1.98-3.47.41-1.14.78-2.75,1.08-4.84.31-2.09.51-4.3.59-6.63.08-2.33.12-5.4.12-9.21v-11.78h11.78v11.78c0,8.43-.43,14.92-1.3,19.47-.87,4.55-2.35,8.18-4.43,10.91-2.09,2.73-5.34,5.41-9.77,8.06ZM444.88,69.6V20.62h11.78v34.35c3.35-3.22,5.93-8.89,7.75-16.99l10.85,2.48c-1.45,7.52-3.58,13.46-6.39,17.83-2.81,4.36-6.88,8.13-12.21,11.31h-11.78Z"/>
        <path class="cls-1" d="M508.74,74.25h-27.9v-9.3h16.74V26.51h11.16v47.74Z"/>
      </g>
      <g>
        <path class="cls-5" d="M11.5,15.97h27.9v9.3h-16.74v38.44h-11.16V15.97Z"/>
        <path class="cls-5" d="M89.62,72.45c-1.49,0-3.62-.1-6.39-.31l-.62-9.42c2.15.21,3.68.31,4.59.31.7,0,1.13-.09,1.27-.28.14-.19.22-.8.22-1.83v-18.54h-6.39v-5.21c-.99,1.86-2.01,3.53-3.04,5.02v30.88h-10.91v-20.52c-1.53,1.86-2.96,3.33-4.28,4.4l-1.12-7.32-1.3,2.79c-.12-.29-.39-.86-.81-1.71-.41-.85-.74-1.5-.99-1.95v24.3h-9.73v-16.31c-.99,2.6-2.01,4.59-3.04,5.95l-3.04-11.22c2.85-4.38,4.88-9.75,6.08-16.12h-5.15v-9.11h5.15v-9.11h9.73v9.11h3.35c4.46-2.77,8.41-6.2,11.84-10.29l7.25,5.77c-2.85,3.56-5.46,6.38-7.81,8.46-2.36,2.09-5.11,4.02-8.25,5.8l-2.79-8.74v8.12h-3.6v.37c1.82,2.85,3.41,5.42,4.77,7.69,3.84-3.35,7.5-7.75,10.97-13.21l6.7,4.53v-1.8h20.96v9.42h-3.35v17.92c0,2.03-.03,3.63-.09,4.8-.06,1.18-.24,2.28-.53,3.32-.29,1.03-.62,1.77-.99,2.2-.37.43-.99.82-1.86,1.15-.87.33-1.79.53-2.76.59-.97.06-2.33.09-4.06.09ZM82.92,28.12v-9.42h19.78v9.42h-19.78Z"/>
        <path class="cls-5" d="M127.32,54.23h-2.73v-5.77h16.99v-1.55h-16.12v-10.91h36.46v10.91h-8.8v1.55h9.73v5.77h-9.73v1.55h10.66v6.63h-10.66v1.55h11.59l-.62,8.8h-14.88c-8.52,0-15.07-.35-19.65-1.05-4.59-.7-8.04-1.9-10.35-3.6-2.77,2.15-5.33,4.01-7.69,5.58l-5.15-8.56c2.4-1.45,4.22-2.62,5.46-3.53v-13.14h-4.28v-9.11h14.94v20.03c.45.74.85,1.28,1.18,1.61v-5.21h3.66v-1.55ZM160.73,19.88v7.94h3.66v6.63h-41.35v-3.1l-5.15,4.96c-3.84-4.26-7.48-8.1-10.91-11.53l7.25-6.7c3.72,3.89,6.74,7.13,9.05,9.73h8.49c.08-.16.19-.42.31-.77.12-.35.21-.61.25-.77h-6.26v-6.39h8.18c.21-.78.52-2,.93-3.66l11.28.62c-.08.33-.22.84-.4,1.52-.19.68-.32,1.19-.4,1.52h15.07ZM141.58,63.9v-1.49h-15.62c2.23.87,7.44,1.36,15.62,1.49ZM136.43,42.38h14.57v-1.55h-14.57v1.55ZM141.58,54.23h-4.53v1.55h4.53v-1.55ZM143.25,27.81h6.26v-1.55h-5.7c-.08.17-.19.42-.31.77-.12.35-.21.61-.25.77Z"/>
        <path class="cls-5" d="M195.02,44.18l10.85,2.17c-2.98,14.88-8.25,22.32-15.81,22.32-4.8,0-8.78-2.25-11.97-6.76-3.18-4.5-4.77-10.93-4.77-19.28,0-6.45.62-12.85,1.86-19.22l11.78.93c-1.24,6.2-1.86,12.3-1.86,18.29,0,3.1.24,5.78.71,8.03.47,2.25,1.03,3.85,1.67,4.81.64.95,1.29,1.43,1.95,1.43,1.86,0,3.72-4.24,5.58-12.71ZM204.94,27.44l11.16-3.41c2.85,5.91,4.98,11.66,6.39,17.24,1.4,5.58,2.38,12.24,2.91,19.96l-11.47.62c-.54-7.11-1.48-13.22-2.82-18.32-1.34-5.1-3.4-10.47-6.17-16.09Z"/>
        <path class="cls-5" d="M266.94,69.29l-3.41-9.92c4.17-1.2,7.23-2.93,9.18-5.21,1.94-2.27,2.91-5.29,2.91-9.05,0-2.85-.71-5.3-2.14-7.35-1.43-2.05-3.4-3.52-5.92-4.43-3.39,21.91-10.31,32.86-20.77,32.86-3.6,0-6.82-1.73-9.67-5.18-2.85-3.45-4.28-7.72-4.28-12.8,0-7.77,2.63-14.05,7.9-18.85,5.27-4.79,12.35-7.19,21.23-7.19,7.44,0,13.54,2.13,18.29,6.39,4.75,4.26,7.13,9.78,7.13,16.55s-1.76,11.72-5.27,15.81c-3.51,4.09-8.58,6.88-15.19,8.37ZM255.78,33.15c-3.72.95-6.61,2.69-8.68,5.21-2.07,2.52-3.1,5.6-3.1,9.24,0,2.07.33,3.77.99,5.11.66,1.34,1.36,2.02,2.11,2.02,3.26,0,6.16-7.19,8.68-21.58Z"/>
        <path class="cls-5" d="M302.59,69.91V20h12.4v37.76c4.34-1.2,8.52-3.6,12.55-7.19,4.03-3.6,7.39-8.1,10.08-13.52l9.92,4.96c-5.91,13.97-16.76,23.27-32.55,27.9h-12.4Z"/>
        <path class="cls-5" d="M413.88,59.37l-8.68,8.68c-6.99-7.11-13.79-14.53-20.4-22.26-1.94-2.27-3.3-3.78-4.06-4.53-.77-.74-1.4-1.12-1.89-1.12-.41,0-.95.43-1.61,1.3-.66.87-1.67,2.44-3.04,4.71-2.32,3.8-5.73,8.93-10.23,15.38l-9.61-6.51c3.68-5.25,7.11-10.23,10.29-14.94,1.61-2.4,2.74-4.07,3.38-5.02.64-.95,1.45-2.05,2.42-3.29.97-1.24,1.64-2,2.01-2.29.37-.29.96-.64,1.77-1.05.81-.41,1.5-.63,2.08-.65.58-.02,1.43-.03,2.54-.03s1.94.01,2.48.03c.54.02,1.21.17,2.01.43.81.27,1.4.53,1.77.77s1.04.83,2.01,1.74c.97.91,1.81,1.75,2.51,2.51.7.77,1.88,2.08,3.53,3.94,8.35,9.22,15.25,16.62,20.71,22.2ZM402.72,30.6l-6.94,3.35c-1.65-3.22-3.58-6.8-5.77-10.73l6.94-3.53c1.86,3.39,3.78,7.03,5.77,10.91ZM413.69,28.37l-7.13,3.41c-1.74-3.43-3.7-7.09-5.89-10.97l7.13-3.6c2.65,4.88,4.61,8.6,5.89,11.16Z"/>
        <path class="cls-5" d="M424.42,70.84l-7.13-8.68c1.78-1.07,3.17-1.98,4.19-2.73,1.01-.74,1.97-1.71,2.88-2.88.91-1.18,1.57-2.33,1.98-3.47.41-1.14.78-2.75,1.08-4.84.31-2.09.51-4.3.59-6.63.08-2.33.12-5.4.12-9.21v-11.78h11.78v11.78c0,8.43-.43,14.92-1.3,19.47-.87,4.55-2.35,8.18-4.43,10.91-2.09,2.73-5.34,5.41-9.77,8.06ZM444.88,69.6V20.62h11.78v34.35c3.35-3.22,5.93-8.89,7.75-16.99l10.85,2.48c-1.45,7.52-3.58,13.46-6.39,17.83-2.81,4.36-6.88,8.13-12.21,11.31h-11.78Z"/>
        <path class="cls-5" d="M508.74,74.25h-27.9v-9.3h16.74V26.51h11.16v47.74Z"/>
      </g>
    </g>
  </g>
</svg>