<?xml version="1.0" encoding="UTF-8"?>
<svg id="_レイヤー_2" data-name="レイヤー 2" xmlns="http://www.w3.org/2000/svg" xmlns:xlink="http://www.w3.org/1999/xlink" viewBox="0 0 703.92 136.16">
  <defs>
    <style>
      .cls-1 {
        fill: url(#_名称未設定グラデーション_83-13);
      }

      .cls-2 {
        fill: url(#_名称未設定グラデーション_83-23);
      }

      .cls-3 {
        fill: url(#_名称未設定グラデーション_83-17);
      }

      .cls-4 {
        fill: url(#_名称未設定グラデーション_83-15);
      }

      .cls-5 {
        fill: url(#_名称未設定グラデーション_83);
      }

      .cls-6 {
        fill: url(#_名称未設定グラデーション_83-4);
      }

      .cls-7 {
        fill: url(#_名称未設定グラデーション_83-8);
      }

      .cls-8 {
        fill: url(#_名称未設定グラデーション_83-11);
      }

      .cls-9 {
        fill: url(#_名称未設定グラデーション_83-2);
      }

      .cls-10 {
        fill: url(#_名称未設定グラデーション_83-24);
      }

      .cls-11 {
        fill: #fff;
      }

      .cls-12 {
        fill: url(#_名称未設定グラデーション_83-25);
      }

      .cls-13 {
        fill: url(#_名称未設定グラデーション_83-18);
      }

      .cls-14 {
        fill: url(#_名称未設定グラデーション_83-19);
      }

      .cls-15 {
        fill: url(#_名称未設定グラデーション_83-3);
      }

      .cls-16 {
        fill: url(#_名称未設定グラデーション_83-21);
      }

      .cls-17 {
        fill: url(#_名称未設定グラデーション_83-10);
      }

      .cls-18 {
        fill: url(#_名称未設定グラデーション_83-7);
      }

      .cls-19 {
        fill: url(#_名称未設定グラデーション_83-14);
      }

      .cls-20 {
        fill: none;
        stroke: #231815;
        stroke-miterlimit: 2;
        stroke-width: 5px;
      }

      .cls-21 {
        fill: url(#_名称未設定グラデーション_83-22);
      }

      .cls-22 {
        fill: url(#_名称未設定グラデーション_83-9);
      }

      .cls-23 {
        fill: url(#_名称未設定グラデーション_83-5);
      }

      .cls-24 {
        fill: url(#_名称未設定グラデーション_83-6);
      }

      .cls-25 {
        fill: url(#_名称未設定グラデーション_83-12);
      }

      .cls-26 {
        fill: url(#_名称未設定グラデーション_83-20);
      }

      .cls-27 {
        fill: url(#_名称未設定グラデーション_83-16);
      }
    </style>
    <linearGradient id="_名称未設定グラデーション_83" data-name="名称未設定グラデーション 83" x1="113.64" y1="34.25" x2="590.33" y2="34.25" gradientUnits="userSpaceOnUse">
      <stop offset=".02" stop-color="#94ffb9"/>
      <stop offset=".24" stop-color="#2be900"/>
      <stop offset=".37" stop-color="#7ffff6"/>
      <stop offset=".51" stop-color="#2be900"/>
      <stop offset=".74" stop-color="#80fff2"/>
      <stop offset="1" stop-color="#94ffb9"/>
    </linearGradient>
    <linearGradient id="_名称未設定グラデーション_83-2" data-name="名称未設定グラデーション 83" y1="34.02" y2="34.02" xlink:href="#_名称未設定グラデーション_83"/>
    <linearGradient id="_名称未設定グラデーション_83-3" data-name="名称未設定グラデーション 83" y1="33.7" y2="33.7" xlink:href="#_名称未設定グラデーション_83"/>
    <linearGradient id="_名称未設定グラデーション_83-4" data-name="名称未設定グラデーション 83" y1="32.89" y2="32.89" xlink:href="#_名称未設定グラデーション_83"/>
    <linearGradient id="_名称未設定グラデーション_83-5" data-name="名称未設定グラデーション 83" y1="32.97" y2="32.97" xlink:href="#_名称未設定グラデーション_83"/>
    <linearGradient id="_名称未設定グラデーション_83-6" data-name="名称未設定グラデーション 83" y1="33.28" y2="33.28" xlink:href="#_名称未設定グラデーション_83"/>
    <linearGradient id="_名称未設定グラデーション_83-7" data-name="名称未設定グラデーション 83" y1="32.72" y2="32.72" xlink:href="#_名称未設定グラデーション_83"/>
    <linearGradient id="_名称未設定グラデーション_83-8" data-name="名称未設定グラデーション 83" y1="32.18" y2="32.18" xlink:href="#_名称未設定グラデーション_83"/>
    <linearGradient id="_名称未設定グラデーション_83-9" data-name="名称未設定グラデーション 83" y1="31.96" y2="31.96" xlink:href="#_名称未設定グラデーション_83"/>
    <linearGradient id="_名称未設定グラデーション_83-10" data-name="名称未設定グラデーション 83" y1="32.27" y2="32.27" xlink:href="#_名称未設定グラデーション_83"/>
    <linearGradient id="_名称未設定グラデーション_83-11" data-name="名称未設定グラデーション 83" x1="10" y1="104.2" x2="693.92" y2="104.2" xlink:href="#_名称未設定グラデーション_83"/>
    <linearGradient id="_名称未設定グラデーション_83-12" data-name="名称未設定グラデーション 83" x1="10" y1="104.23" x2="693.92" y2="104.23" xlink:href="#_名称未設定グラデーション_83"/>
    <linearGradient id="_名称未設定グラデーション_83-13" data-name="名称未設定グラデーション 83" x1="10" y1="104.49" x2="693.92" y2="104.49" xlink:href="#_名称未設定グラデーション_83"/>
    <linearGradient id="_名称未設定グラデーション_83-14" data-name="名称未設定グラデーション 83" x1="10" y1="104.23" x2="693.92" y2="104.23" xlink:href="#_名称未設定グラデーション_83"/>
    <linearGradient id="_名称未設定グラデーション_83-15" data-name="名称未設定グラデーション 83" x1="10" y1="104.16" x2="693.92" y2="104.16" xlink:href="#_名称未設定グラデーション_83"/>
    <linearGradient id="_名称未設定グラデーション_83-16" data-name="名称未設定グラデーション 83" x1="10" y1="104.73" x2="693.92" y2="104.73" xlink:href="#_名称未設定グラデーション_83"/>
    <linearGradient id="_名称未設定グラデーション_83-17" data-name="名称未設定グラデーション 83" x1="10" y1="104.47" x2="693.92" y2="104.47" xlink:href="#_名称未設定グラデーション_83"/>
    <linearGradient id="_名称未設定グラデーション_83-18" data-name="名称未設定グラデーション 83" x1="10" y1="104.35" x2="693.92" y2="104.35" xlink:href="#_名称未設定グラデーション_83"/>
    <linearGradient id="_名称未設定グラデーション_83-19" data-name="名称未設定グラデーション 83" x1="10" y1="102.55" x2="693.92" y2="102.55" xlink:href="#_名称未設定グラデーション_83"/>
    <linearGradient id="_名称未設定グラデーション_83-20" data-name="名称未設定グラデーション 83" x1="10" y1="104.47" x2="693.92" y2="104.47" xlink:href="#_名称未設定グラデーション_83"/>
    <linearGradient id="_名称未設定グラデーション_83-21" data-name="名称未設定グラデーション 83" x1="10" y1="104.47" x2="693.92" y2="104.47" xlink:href="#_名称未設定グラデーション_83"/>
    <linearGradient id="_名称未設定グラデーション_83-22" data-name="名称未設定グラデーション 83" x1="10" y1="104.16" x2="693.92" y2="104.16" xlink:href="#_名称未設定グラデーション_83"/>
    <linearGradient id="_名称未設定グラデーション_83-23" data-name="名称未設定グラデーション 83" x1="10" y1="104.3" x2="693.92" y2="104.3" xlink:href="#_名称未設定グラデーション_83"/>
    <linearGradient id="_名称未設定グラデーション_83-24" data-name="名称未設定グラデーション 83" x1="10" y1="102.48" x2="693.92" y2="102.48" xlink:href="#_名称未設定グラデーション_83"/>
    <linearGradient id="_名称未設定グラデーション_83-25" data-name="名称未設定グラデーション 83" x1="10" y1="104.47" x2="693.92" y2="104.47" xlink:href="#_名称未設定グラデーション_83"/>
  </defs>
  <g id="_予想2" data-name="予想2">
    <g>
      <g>
        <path class="cls-11" d="M119.89,66.1c-2.63,0-5.16-1.04-7.03-2.89-1.89-1.86-2.96-4.4-2.97-7.05l-.05-7.57c-4.23-1.73-6.83-6.19-6.07-10.85.74-4.56,1.45-10.17,2.12-16.68.28-2.68,1.63-5.14,3.74-6.81v-1.1c-.02-2.65,1.01-5.2,2.88-7.09s4.4-2.96,7.05-2.97c0,0,6.86-.04,6.88-.04,2.26,0,4.44.77,6.2,2.15,1.78-1.7,4.19-2.75,6.84-2.76,0,0,7.72-.05,7.74-.05,2.56,0,5.02.98,6.88,2.74,0,0,3.49-.02,3.51-.02,2.63,0,5.16,1.04,7.03,2.89,1.89,1.86,2.96,4.4,2.97,7.05l.03,4.9c0,.83-.09,1.63-.28,2.41.82,1.46,1.27,3.13,1.28,4.84l.03,4.94c.01,2.26-.72,4.35-1.98,6.03l.06,10.01c0,1.39,0,2.55-.04,3.43-.07,1.71-.37,3.36-.9,4.92-.76,2.2-1.83,3.95-3.29,5.34-1.39,1.32-3.09,2.29-5.2,2.98-1.49.48-3.05.77-4.64.85-.91.04-2.06.07-3.55.08h-.23c-1.34,0-3.46-.07-6.46-.21-.73-.03-1.43-.15-2.11-.33-1.1.42-2.29.66-3.54.67,0,0-7.39.05-7.41.05-.31,0-.62-.01-.92-.04-.55.1-1.12.15-1.7.16,0,0-6.86.04-6.88.04Z"/>
        <path class="cls-11" d="M170.05,65.98c-2.63,0-5.16-1.04-7.03-2.89-1-.99-1.77-2.16-2.27-3.44-1.29-.49-2.47-1.25-3.47-2.23-1.89-1.86-2.96-4.4-2.97-7.05l-.03-5.08c-.44-1.12-.69-2.33-.69-3.61l-.04-5.9c0-.92.12-1.83.35-2.7-.4-1.07-.62-2.23-.63-3.44l-.04-5.9c-.01-1.67.4-3.31,1.17-4.76l-.02-3.65c-.02-2.65,1.02-5.2,2.89-7.09,1.38-1.4,3.14-2.35,5.03-2.75,1.82-2.05,4.47-3.35,7.43-3.37,0,0,7.34-.04,7.36-.04,1.95,0,3.77.56,5.32,1.53.24-.02.48-.03.73-.03,0,0,22.98-.14,23-.14,2.69,0,5.26,1.08,7.14,3,1.9,1.94,2.92,4.56,2.85,7.27l-.08,2.93c-.11,3.14-.29,5.48-.56,7.27.41,1.09.63,2.25.63,3.44l.03,5.57c0,.51-.03,1.01-.11,1.51-.38,2.57-.93,5.03-1.65,7.38,2.72,2.6,3.83,6.6,2.61,10.34l-2.12,6.49c-.87,2.68-2.83,4.86-5.4,6.02-1.3.59-2.7.88-4.1.88s-2.71-.28-3.98-.83c-.89-.39-1.77-.82-2.64-1.3-.11.08-.22.15-.33.23-1.68,1.14-3.64,1.74-5.63,1.74-.32,0-.64-.02-.96-.05-.46.07-.94.11-1.42.11,0,0-6.95.04-6.97.04-.8,0-1.57-.09-2.31-.27-1.15.47-2.4.73-3.72.74,0,0-7.34.04-7.36.04Z"/>
        <path class="cls-11" d="M216.75,65.5c-2.63,0-5.15-1.04-7.03-2.89-.75-.74-1.36-1.58-1.84-2.49-2.23-1.16-3.97-3.13-4.83-5.58l-2.54-7.28c-1.09-3.14-.56-6.6,1.41-9.26-.59-1.26-.92-2.67-.93-4.16l-.04-5.9c0-1.45.3-2.86.88-4.16-.46-1.72-.92-3.33-1.36-4.84-1.5-5.1,1.25-10.47,6.26-12.24l2.41-.85c1.82-2.05,4.46-3.34,7.42-3.36,0,0,6.14-.04,6.16-.04,2.29,0,4.51.79,6.28,2.22h1.06c1.84-1.74,4.27-2.72,6.8-2.74,0,0,7.72-.05,7.74-.05,2.61,0,4.99,1,6.78,2.65,0,0,2.92-.02,2.94-.02,5.49,0,9.96,4.44,10,9.94l.03,4.9c0,1.03-.15,2.05-.45,3.01.62,1.31.96,2.75.97,4.23l.03,4.94c.01,1.82-.47,3.54-1.31,5.02l.07,10.93c.01,2.35-.05,4.07-.21,5.4-.38,3.15-1.75,5.95-3.95,8.12-2.19,2.15-4.98,3.48-8.08,3.83-1.26.15-2.94.22-5.28.24h-.39c-1.6,0-3.37-.06-5.44-.18-.58-.03-1.15-.12-1.7-.25-1,.34-2.07.53-3.18.54,0,0-7.29.04-7.31.04-.71,0-1.4-.07-2.06-.21-.91.28-1.87.43-2.87.44,0,0-6.43.04-6.45.04Z"/>
        <path class="cls-11" d="M259.41,64.14c-2.63,0-5.16-1.04-7.03-2.89-1.89-1.86-2.96-4.4-2.97-7.05l-.04-5.95c-.02-3.59,1.85-6.75,4.69-8.54-1.09-1.03-1.94-2.3-2.47-3.73l-2.29-6.13c-.96-2.56-.83-5.4.37-7.86.04-.08.08-.17.13-.25,0-.09,0-.18,0-.28l-.04-5.95c-.03-5.52,4.42-10.03,9.94-10.06l9.36-.06c1.82-2.24,4.59-3.68,7.7-3.7,0,0,7.72-.05,7.74-.05,2.63,0,5.16,1.04,7.03,2.89.23.23.45.47.66.72,0,0,9.4-.06,9.42-.06,2.63,0,5.16,1.04,7.03,2.89,1.89,1.86,2.96,4.4,2.97,7.05l.04,5.95c0,.09,0,.18,0,.28.04.08.09.17.13.25,1.22,2.45,1.39,5.29.46,7.86l-2.22,6.16c-.52,1.44-1.35,2.72-2.42,3.76.65.4,1.26.87,1.81,1.42,1.89,1.86,2.96,4.4,2.97,7.05l.04,5.95c.03,5.52-4.42,10.03-9.94,10.06,0,0-43.05.26-43.07.26Z"/>
        <path class="cls-11" d="M333.93,64.83c-1.48,0-4.25-.06-8.48-.19-1.7-.05-3.29-.53-4.68-1.32-1.31-.14-2.62-.55-3.84-1.24-2.78-1.57-5.91-3.18-9.31-4.76-1.69-.79-3.11-2.02-4.12-3.55-3.59-1.5-6.12-5.03-6.14-9.17l-.04-5.62c-.02-2.65,1.02-5.2,2.89-7.09.08-.08.16-.16.24-.23l-.03-4.21c-1.96-1.81-3.19-4.4-3.21-7.28l-.04-5.81c-.02-2.65,1.02-5.2,2.89-7.09,1.86-1.89,4.4-2.96,7.05-2.97l10.5-.06c1.81-1.88,4.34-3.05,7.15-3.07,0,0,7.72-.05,7.74-.05,2.63,0,5.16,1.04,7.03,2.89.03.03.06.06.09.09,0,0,10.54-.06,10.56-.06,5.49,0,9.96,4.44,10,9.94l.04,5.81c.02,2.65-1.02,5.2-2.88,7.09-.08.08-.16.16-.24.23l.03,4.21c1.96,1.81,3.2,4.4,3.21,7.28l.04,5.62c.02,2.65-1.02,5.2-2.88,7.09-1.37,1.38-3.09,2.33-4.96,2.74-.13.51-.29,1.02-.46,1.52-.82,2.31-1.98,4.11-3.53,5.51-1.46,1.32-3.23,2.24-5.56,2.91-1.56.44-3.14.7-4.73.78-.98.04-2.32.07-4.02.08h-.29Z"/>
        <path class="cls-11" d="M356.09,64.5c-5.49,0-9.96-4.44-10-9.94l-.26-42.19c-.02-2.65,1.02-5.2,2.89-7.09s4.4-2.96,7.05-2.97c0,0,19.58-.12,19.6-.12.33,0,.66.02.99.05.35-.04.7-.06,1.06-.06,0,0,20.06-.12,20.08-.12,2.63,0,5.16,1.04,7.03,2.89,1.89,1.86,2.96,4.4,2.97,7.05l.21,33.55c0,1.63-.01,2.93-.06,3.97-.09,1.67-.37,3.27-.83,4.78-.65,2.09-1.58,3.8-2.83,5.21-1.47,1.65-3.41,2.88-5.77,3.67-1.5.5-3.06.8-4.66.91-.98.07-2.22.1-3.79.11h-.98c-2.33,0-4.79-.05-7.31-.15-3.83-.16-7.1-2.46-8.65-5.75-.49,1.18-1.2,2.26-2.12,3.18-1.86,1.89-4.4,2.96-7.05,2.97,0,0-7.53.05-7.55.05Z"/>
        <path class="cls-11" d="M420.32,57.29c-5.49,0-9.96-4.44-10-9.94l-.06-9.12c-.01-1.94.54-3.82,1.57-5.43-1.02-1.56-1.62-3.42-1.63-5.41l-.06-9.12c-.02-2.65,1.02-5.2,2.89-7.09,1.86-1.89,4.4-2.96,7.05-2.97,0,0,9.16-.06,9.18-.06,5.49,0,9.96,4.44,10,9.94l.06,9.12c.01,1.94-.54,3.82-1.57,5.43,1.02,1.56,1.62,3.42,1.63,5.41l.06,9.12c.02,2.65-1.02,5.2-2.89,7.09-1.86,1.89-4.4,2.96-7.05,2.97,0,0-9.16.06-9.18.06Z"/>
        <path class="cls-11" d="M455.88,64.03c-2.63,0-5.16-1.04-7.03-2.89-1.89-1.86-2.96-4.4-2.97-7.05l-.05-7.57c-4.22-1.73-6.82-6.19-6.07-10.84.74-4.56,1.45-10.18,2.12-16.68.28-2.68,1.63-5.14,3.74-6.81v-1.1c-.04-5.52,4.41-10.03,9.93-10.06,0,0,6.86-.04,6.88-.04,2.26,0,4.44.77,6.2,2.15,1.84-1.76,4.29-2.75,6.84-2.76,0,0,7.72-.05,7.74-.05,2.66,0,5.08,1.04,6.88,2.74,0,0,3.49-.02,3.51-.02,5.49,0,9.96,4.44,10,9.94l.03,4.9c0,.82-.09,1.62-.28,2.41.82,1.46,1.27,3.13,1.28,4.84l.03,4.94c.01,2.26-.72,4.35-1.98,6.03l.06,10.01c0,1.44,0,2.57-.04,3.44-.06,1.68-.37,3.33-.9,4.89-.76,2.22-1.83,3.96-3.29,5.35-1.41,1.34-3.1,2.31-5.22,2.99-1.49.48-3.04.77-4.63.85-.91.04-2.06.07-3.55.08h-.23c-1.34,0-3.46-.07-6.46-.21-.73-.03-1.43-.15-2.11-.33-1.1.42-2.29.66-3.54.67,0,0-7.38.05-7.41.05-.31,0-.62-.01-.92-.04-.55.1-1.12.15-1.7.16,0,0-6.86.04-6.88.04Z"/>
        <path class="cls-11" d="M506.04,63.92c-2.63,0-5.16-1.04-7.03-2.89-1-.99-1.77-2.16-2.27-3.44-3.75-1.42-6.42-5.04-6.45-9.29l-.03-5.08c-.45-1.14-.69-2.36-.69-3.6l-.04-5.9c0-.92.12-1.83.35-2.7-.4-1.07-.62-2.23-.63-3.45l-.04-5.9c0-1.67.4-3.31,1.17-4.76l-.02-3.65c-.02-2.65,1.02-5.2,2.89-7.09,1.38-1.4,3.13-2.35,5.03-2.75.12-.14.25-.27.37-.4,1.86-1.89,4.4-2.96,7.05-2.97,0,0,7.34-.04,7.36-.04,1.95,0,3.78.56,5.32,1.53.24-.02.48-.03.73-.03,0,0,22.98-.14,23-.14,2.69,0,5.26,1.08,7.14,3,1.9,1.94,2.92,4.56,2.85,7.26l-.08,2.93c-.11,3.15-.29,5.48-.56,7.27.41,1.09.63,2.26.63,3.44l.03,5.57c0,.51-.03,1.01-.11,1.51-.38,2.57-.93,5.03-1.65,7.38,2.73,2.6,3.83,6.6,2.61,10.34l-2.12,6.49c-.87,2.68-2.83,4.86-5.4,6.02-1.3.59-2.7.88-4.1.88s-2.71-.28-3.98-.83c-.89-.39-1.77-.82-2.64-1.3-.11.08-.22.15-.33.23-1.68,1.14-3.64,1.74-5.63,1.74-.32,0-.65-.02-.97-.05-.47.07-.94.11-1.42.11,0,0-6.95.04-6.97.04-.8,0-1.57-.09-2.31-.27-1.15.47-2.4.73-3.72.74,0,0-7.34.04-7.36.04Z"/>
        <path class="cls-11" d="M551.31,63.02c-3.18,0-6.28-1.51-8.21-4.28l-4.07-5.83c-1.62-2.33-2.18-5.23-1.54-7.99.64-2.73,2.39-5.07,4.84-6.45-2.63-1.79-4.37-4.8-4.39-8.22l-.04-6.29c-.02-2.65,1.02-5.2,2.89-7.09.26-.26.53-.51.81-.74l-.03-4.34c-.02-2.65,1.02-5.2,2.89-7.09,1.86-1.89,4.4-2.96,7.05-2.97,0,0,34.22-.21,34.24-.21,5.49,0,9.96,4.44,10,9.94l.03,4.34c2.29,1.82,3.77,4.62,3.79,7.78l.04,6.29c0,1.01-.14,2-.43,2.95.79,1.5,1.2,3.21,1.14,5.02-.11,2.99-.2,5.1-.25,6.32-.09,1.81-.38,3.76-.86,5.8-.6,2.5-1.21,4.4-2.43,6.13-1.73,2.45-4.18,3.75-5.88,4.51-2.25,1.01-4.52,1.53-6.75,1.55l-4.71.03c-3.63,0-6.17-.23-8.23-.73-3.74-.92-6.12-2.78-7.61-4.62-2.19,1.79-4.69,3.45-7.49,4.98-1.52.83-3.16,1.22-4.78,1.22Z"/>
      </g>
      <g>
        <path class="cls-20" d="M147.31,27.32l11.33-.07.03,4.94-27.26.17-3.5.93c-.03-.1-.22-.96-.57-2.59-.35-1.63-.62-2.86-.81-3.69l.18,29.04-6.82.04-.16-26.11c-.4,3.36-.89,6.81-1.47,10.33l-4.61-.98c.77-4.77,1.5-10.52,2.2-17.25l3.84.5-.06-9.5,6.82-.04.05,8.64,3.16-.88c.03.1.07.22.12.38.05.16.09.29.12.38l9.7-.06v-1.39s-10.9.07-10.9.07l-.03-4.9,10.9-.07-.02-2.78,7.68-.05.02,2.78,10.37-.06.03,4.9-10.37.06v1.39s9.27-.06,9.27-.06l.03,4.46-9.26.06v1.39ZM149.07,55.78c-1.15,0-3.2-.06-6.15-.2l-.23-5.42c2.82.14,4.54.21,5.19.21.61,0,.97-.05,1.08-.15.11-.1.17-.4.16-.91v-.43s-12.43.08-12.43.08l.04,6.96-7.34.05-.14-22.27,27.41-.17.09,14.74c0,1.28,0,2.28-.03,3-.03.72-.15,1.4-.37,2.04-.22.64-.47,1.09-.74,1.35-.27.26-.73.49-1.39.7-.65.21-1.34.34-2.06.37-.72.04-1.75.06-3.1.07ZM131.42,27.42l8.21-.05v-1.39s-8.55.05-8.55.05c.03.16.09.39.17.69.08.3.14.54.17.7ZM136.64,39.63l12.43-.08v-1.49s-12.44.08-12.44.08v1.49ZM136.66,43.56v1.49s12.44-.08,12.44-.08v-1.49s-12.44.08-12.44.08Z"/>
        <path class="cls-20" d="M204.4,25.56c-.46.37-1.24.56-2.32.57s-4.08-.05-8.98-.18l-.22-5.13c2.82.14,4.69.21,5.62.21.29,0,.47-.09.55-.27.08-.18.15-.7.21-1.56l-9.12.06.05,8.26,15.94-.1.03,5.57c-.68,4.61-2.01,8.7-4,12.26,1.58,1.56,3.36,2.83,5.35,3.81l-2.12,6.49c-2.47-1.07-4.85-2.69-7.13-4.85-1.59,1.74-3.4,3.3-5.44,4.69l-2.48-5.27.03,5.33-6.91.04-.09-13.97-6.1.04.02,3.17,5.14-.03.03,5.52-5.14.03.04,5.71-7.3.04-.04-5.71-5.71.04-.03-5.52,5.71-.04-.02-3.17-6.38.04-.04-5.9,3.36-.02c-.3-1.53-.76-3.58-1.38-6.14h-2.26s-.04-5.89-.04-5.89l6.62-.04-.02-2.88-5.42.03-.03-5.52,5.42-.03-.02-3.12,7.3-.04.02,3.12,5.04-.03.03,5.52-5.04.03.02,2.88,6.1-.04-.06-9.98,22.94-.14-.08,2.93c-.11,3.11-.29,5.32-.56,6.65-.26,1.33-.63,2.18-1.09,2.55ZM172.56,35.66h1.92c.72-2.13,1.35-4.18,1.88-6.17l-5.09.03c.33,1.34.76,3.39,1.29,6.14ZM183.32,35.6l-.04-6.14h-1.15c-.63,2.35-1.25,4.4-1.88,6.16l3.07-.02ZM193.86,33.04l-3.65.02.02,2.83,3.63-2.85ZM190.24,38.29l.06,10.37c1.53-1.06,2.74-2.08,3.63-3.05-1.42-2.1-2.65-4.54-3.69-7.32ZM194.77,33.03c.69,2.3,1.68,4.52,2.97,6.65.82-1.93,1.45-4.15,1.88-6.68l-4.85.03Z"/>
        <path class="cls-20" d="M246.08,55.08c-1.47,0-3.2-.04-5.18-.16l-.22-5.42c2.3.15,3.73.22,4.27.21.61,0,.97-.05,1.08-.13.11-.08.17-.39.16-.94v-.43s-10.85.07-10.85.07l.04,6.91-7.25.04-.07-11.42-2.86,2.8c-.26-.64-.63-1.55-1.12-2.73-.49-1.18-.83-1.98-1.02-2.39l.09,13.97-6.38.04-.07-11.9c-1.1,2.98-2.49,5.54-4.18,7.66l-2.54-7.28c2.6-3.31,4.5-6.72,5.7-10.21l-4.66.03-.04-5.9,5.76-.04v-2.11s-3.7,1.32-3.7,1.32c-1.02-4.06-2-7.7-2.95-10.93l4.69-1.66c.79,2.75,1.42,5.18,1.92,7.28l-.06-9.26,6.1-.04.05,9.02c.69-2.4,1.23-4.89,1.63-7.45l3.36.65,9.17-.06-.02-2.69,7.68-.05.02,2.69,9.7-.06.03,4.9-9.7.06v1.39s8.7-.05,8.7-.05l.03,4.46-8.69.05v1.39s10.18-.06,10.18-.06l.03,4.94-27.5.17v1.92s-2.87.02-2.87.02c.78,1.56,1.94,3.88,3.5,6.94l-.05-7.58,25.58-.16.09,14.64c.01,1.89-.04,3.27-.14,4.15-.11.88-.46,1.61-1.04,2.19-.59.58-1.32.92-2.2,1.02-.88.1-2.28.16-4.2.17ZM228.43,19.58c-.53,2.18-1.24,4.62-2.11,7.31l-3.51-1.37v2.3s4.09-.02,4.09-.02v-.96s10.12-.06,10.12-.06v-1.39s-8.31.05-8.31.05l-.03-4.46,8.3-.05v-1.39s-8.55.05-8.55.05ZM235.27,38.97l10.85-.07v-1.44s-10.86.07-10.86.07v1.44ZM235.3,42.91v1.44s10.86-.07,10.86-.07v-1.44s-10.86.07-10.86.07Z"/>
        <path class="cls-20" d="M302.42,53.87l-43.01.26-.04-5.95,5.57-.03-.11-17.33c-2.3.97-3.59,1.53-3.88,1.66l-2.29-6.13c4.98-1.6,9.36-3.27,13.12-5.02l-12,.07-.04-5.95,17.09-.1-.02-3.65,7.68-.05.02,3.65,17.09-.1.04,5.95-12,.07c3.79,1.7,8.18,3.33,13.18,4.86l-2.22,6.16c-.29-.13-1.59-.66-3.9-1.61l.11,17.33,5.57-.03.04,5.95ZM268.91,28.93l8.02-.05-.03-4.56c-2.58,1.71-5.24,3.25-7.99,4.61ZM272.36,35.58l16.9-.1v-1.82s-16.91.1-16.91.1v1.82ZM272.38,39.94v1.87s16.91-.1,16.91-.1v-1.87s-16.91.1-16.91.1ZM272.42,46.19v1.92s16.91-.1,16.91-.1v-1.92s-16.91.1-16.91.1ZM292.62,28.78c-2.76-1.33-5.44-2.83-8.04-4.51l.03,4.56,8.02-.05Z"/>
        <path class="cls-20" d="M325.23,47.68l-3.37,5.69c-3.02-1.71-6.36-3.42-10.02-5.12l2.28-3.76-6.77.04-.04-5.62,28.03-.17v-1.3s-17.96.11-17.96.11l-6.91.04-.1-16.18,14.5-.09v-1.34s-17.67.11-17.67.11l-.04-5.81,17.66-.11-.02-3.02,7.68-.05.02,3.02,17.66-.11.04,5.81-17.66.11v1.34s14.5-.09,14.5-.09l.1,16.18-4.13.03v1.3s7.3-.04,7.3-.04l.04,5.62-7.3.04v2.4c.02,1.41.01,2.5-.01,3.26-.03.77-.17,1.5-.42,2.21-.25.7-.52,1.19-.81,1.44-.29.26-.83.5-1.63.73-.8.23-1.61.36-2.42.4-.82.04-2.02.06-3.62.07-1.28,0-4.08-.06-8.4-.19l-.42-5.95c3.84.14,6.3.2,7.39.19,1.34,0,2.13-.09,2.35-.25.22-.16.33-.69.33-1.59l-.02-2.69-16.32.1c1.44.7,3.5,1.77,6.16,3.23ZM324.92,27.67v-1.63s-7.59.05-7.59.05v1.63s7.59-.05,7.59-.05ZM324.94,31.08l-7.58.05v1.73s7.59-.05,7.59-.05v-1.73ZM332.6,27.62l7.58-.05v-1.63s-7.59.05-7.59.05v1.63ZM332.62,31.03v1.73s7.59-.05,7.59-.05v-1.73s-7.59.05-7.59.05Z"/>
        <path class="cls-20" d="M355.83,12.31l19.54-.12.14,22.8-12.05.07.12,19.39-7.49.05-.26-42.19ZM363.38,21.43l6.38-.04-.02-3.6-6.38.04.02,3.6ZM363.4,26.09l.02,3.55,6.38-.04-.02-3.55-6.38.04ZM397.49,12.06l.21,33.55c0,1.44,0,2.58-.05,3.41-.04.83-.17,1.6-.39,2.31-.22.71-.47,1.22-.76,1.54-.29.32-.77.6-1.46.83-.69.23-1.41.37-2.18.42-.77.05-1.82.08-3.17.09-2.5.02-5.1-.03-7.82-.14l-.42-6.33c4.1.14,6.32.2,6.67.2,1.02,0,1.63-.1,1.82-.27.19-.18.28-.73.28-1.66l-.07-11.09-12.53.08-.14-22.8,20.01-.12ZM390.06,21.27l-.02-3.6-6.82.04.02,3.6,6.82-.04ZM390.09,25.92l-6.82.04.02,3.55,6.82-.04-.02-3.55Z"/>
        <path class="cls-20" d="M420.2,27.32l-.06-9.12,9.12-.06.06,9.12-9.12.06ZM420.32,47.29l-.06-9.12,9.12-.06.06,9.12-9.12.06Z"/>
        <path class="cls-20" d="M483.3,25.26l11.33-.07.03,4.94-27.26.17-3.5.93c-.03-.1-.22-.96-.57-2.59-.35-1.63-.62-2.86-.81-3.69l.18,29.04-6.82.04-.16-26.11c-.4,3.36-.89,6.81-1.47,10.33l-4.61-.98c.77-4.77,1.5-10.52,2.2-17.25l3.84.5-.06-9.5,6.82-.04.05,8.64,3.16-.88c.03.1.07.22.12.38.05.16.09.29.12.38l9.7-.06v-1.39s-10.9.07-10.9.07l-.03-4.9,10.9-.07-.02-2.78,7.68-.05.02,2.78,10.37-.06.03,4.9-10.37.06v1.39s9.27-.06,9.27-.06l.03,4.46-9.26.06v1.39ZM485.06,53.71c-1.15,0-3.2-.06-6.15-.2l-.23-5.42c2.82.14,4.54.21,5.19.21.61,0,.97-.05,1.08-.15.11-.1.17-.4.16-.91v-.43s-12.44.08-12.44.08l.04,6.96-7.34.05-.14-22.27,27.41-.17.09,14.74c0,1.28,0,2.28-.03,3-.03.72-.15,1.4-.37,2.04-.22.64-.47,1.09-.74,1.35-.27.26-.73.49-1.39.7-.66.21-1.34.34-2.06.37-.72.04-1.75.06-3.1.07ZM467.42,25.35l8.21-.05v-1.39s-8.55.05-8.55.05c.03.16.09.39.17.69.08.3.14.54.17.7ZM472.63,37.56l12.43-.08v-1.49s-12.44.08-12.44.08v1.49ZM472.65,41.5v1.49s12.44-.08,12.44-.08v-1.49s-12.44.08-12.44.08Z"/>
        <path class="cls-20" d="M540.39,23.49c-.46.37-1.24.56-2.32.57s-4.08-.05-8.98-.18l-.22-5.13c2.82.14,4.69.21,5.62.21.29,0,.47-.09.55-.27.08-.18.15-.7.21-1.56l-9.12.06.05,8.26,15.94-.1.03,5.57c-.68,4.61-2.01,8.7-4,12.26,1.58,1.56,3.36,2.83,5.35,3.81l-2.12,6.49c-2.47-1.07-4.85-2.69-7.13-4.85-1.59,1.74-3.4,3.3-5.44,4.69l-2.48-5.27.03,5.33-6.91.04-.09-13.97-6.1.04.02,3.17,5.14-.03.03,5.52-5.14.03.04,5.71-7.3.04-.04-5.71-5.71.04-.03-5.52,5.71-.04-.02-3.17-6.38.04-.04-5.9,3.36-.02c-.3-1.53-.76-3.58-1.38-6.14h-2.26s-.04-5.89-.04-5.89l6.62-.04-.02-2.88-5.42.03-.03-5.52,5.42-.03-.02-3.12,7.3-.04.02,3.12,5.04-.03.03,5.52-5.04.03.02,2.88,6.1-.04-.06-9.98,22.94-.14-.08,2.93c-.11,3.11-.3,5.32-.56,6.65-.26,1.33-.63,2.18-1.09,2.55ZM508.56,33.6h1.92c.72-2.13,1.35-4.18,1.88-6.17l-5.09.03c.33,1.34.76,3.39,1.29,6.14ZM519.31,33.53l-.04-6.14h-1.15c-.63,2.35-1.25,4.4-1.88,6.16l3.07-.02ZM529.85,30.97l-3.65.02.02,2.83,3.63-2.85ZM526.24,36.22l.06,10.37c1.53-1.06,2.74-2.08,3.63-3.05-1.42-2.1-2.65-4.54-3.69-7.32ZM530.77,30.96c.69,2.3,1.68,4.52,2.97,6.65.82-1.93,1.45-4.15,1.88-6.68l-4.85.03Z"/>
        <path class="cls-20" d="M565.8,30.08c-.1,5.47-1.26,9.97-3.49,13.49s-5.9,6.67-11.01,9.45l-4.07-5.83c4.05-2.23,6.92-4.59,8.6-7.08,1.68-2.49,2.62-5.82,2.82-9.98l-10.7.07-.04-6.29,41.66-.26.04,6.29-11.81.07.09,14.78c0,.61.12.97.34,1.08.22.11.99.16,2.3.15,1.22,0,1.94-.39,2.18-1.14.24-.75.43-3.4.6-7.95l7.01.53c-.11,2.95-.19,5.02-.25,6.22s-.26,2.52-.6,3.96c-.34,1.44-.63,2.33-.87,2.67s-.84.73-1.82,1.16c-.97.44-1.88.66-2.71.66-.83,0-2.22.01-4.18.03-2.94.02-5.05-.13-6.32-.44-1.27-.31-2.11-.86-2.53-1.64-.42-.78-.64-2.12-.65-4l-.1-16.03-4.51.03ZM551.61,18.07l-.04-6.34,34.18-.21.04,6.34-34.18.21Z"/>
      </g>
      <g>
        <path class="cls-5" d="M147.31,27.32l11.33-.07.03,4.94-27.26.17-3.5.93c-.03-.1-.22-.96-.57-2.59-.35-1.63-.62-2.86-.81-3.69l.18,29.04-6.82.04-.16-26.11c-.4,3.36-.89,6.81-1.47,10.33l-4.61-.98c.77-4.77,1.5-10.52,2.2-17.25l3.84.5-.06-9.5,6.82-.04.05,8.64,3.16-.88c.03.1.07.22.12.38.05.16.09.29.12.38l9.7-.06v-1.39s-10.9.07-10.9.07l-.03-4.9,10.9-.07-.02-2.78,7.68-.05.02,2.78,10.37-.06.03,4.9-10.37.06v1.39s9.27-.06,9.27-.06l.03,4.46-9.26.06v1.39ZM149.07,55.78c-1.15,0-3.2-.06-6.15-.2l-.23-5.42c2.82.14,4.54.21,5.19.21.61,0,.97-.05,1.08-.15.11-.1.17-.4.16-.91v-.43s-12.43.08-12.43.08l.04,6.96-7.34.05-.14-22.27,27.41-.17.09,14.74c0,1.28,0,2.28-.03,3-.03.72-.15,1.4-.37,2.04-.22.64-.47,1.09-.74,1.35-.27.26-.73.49-1.39.7-.65.21-1.34.34-2.06.37-.72.04-1.75.06-3.1.07ZM131.42,27.42l8.21-.05v-1.39s-8.55.05-8.55.05c.03.16.09.39.17.69.08.3.14.54.17.7ZM136.64,39.63l12.43-.08v-1.49s-12.44.08-12.44.08v1.49ZM136.66,43.56v1.49s12.44-.08,12.44-.08v-1.49s-12.44.08-12.44.08Z"/>
        <path class="cls-9" d="M204.4,25.56c-.46.37-1.24.56-2.32.57s-4.08-.05-8.98-.18l-.22-5.13c2.82.14,4.69.21,5.62.21.29,0,.47-.09.55-.27.08-.18.15-.7.21-1.56l-9.12.06.05,8.26,15.94-.1.03,5.57c-.68,4.61-2.01,8.7-4,12.26,1.58,1.56,3.36,2.83,5.35,3.81l-2.12,6.49c-2.47-1.07-4.85-2.69-7.13-4.85-1.59,1.74-3.4,3.3-5.44,4.69l-2.48-5.27.03,5.33-6.91.04-.09-13.97-6.1.04.02,3.17,5.14-.03.03,5.52-5.14.03.04,5.71-7.3.04-.04-5.71-5.71.04-.03-5.52,5.71-.04-.02-3.17-6.38.04-.04-5.9,3.36-.02c-.3-1.53-.76-3.58-1.38-6.14h-2.26s-.04-5.89-.04-5.89l6.62-.04-.02-2.88-5.42.03-.03-5.52,5.42-.03-.02-3.12,7.3-.04.02,3.12,5.04-.03.03,5.52-5.04.03.02,2.88,6.1-.04-.06-9.98,22.94-.14-.08,2.93c-.11,3.11-.29,5.32-.56,6.65-.26,1.33-.63,2.18-1.09,2.55ZM172.56,35.66h1.92c.72-2.13,1.35-4.18,1.88-6.17l-5.09.03c.33,1.34.76,3.39,1.29,6.14ZM183.32,35.6l-.04-6.14h-1.15c-.63,2.35-1.25,4.4-1.88,6.16l3.07-.02ZM193.86,33.04l-3.65.02.02,2.83,3.63-2.85ZM190.24,38.29l.06,10.37c1.53-1.06,2.74-2.08,3.63-3.05-1.42-2.1-2.65-4.54-3.69-7.32ZM194.77,33.03c.69,2.3,1.68,4.52,2.97,6.65.82-1.93,1.45-4.15,1.88-6.68l-4.85.03Z"/>
        <path class="cls-15" d="M246.08,55.08c-1.47,0-3.2-.04-5.18-.16l-.22-5.42c2.3.15,3.73.22,4.27.21.61,0,.97-.05,1.08-.13.11-.08.17-.39.16-.94v-.43s-10.85.07-10.85.07l.04,6.91-7.25.04-.07-11.42-2.86,2.8c-.26-.64-.63-1.55-1.12-2.73-.49-1.18-.83-1.98-1.02-2.39l.09,13.97-6.38.04-.07-11.9c-1.1,2.98-2.49,5.54-4.18,7.66l-2.54-7.28c2.6-3.31,4.5-6.72,5.7-10.21l-4.66.03-.04-5.9,5.76-.04v-2.11s-3.7,1.32-3.7,1.32c-1.02-4.06-2-7.7-2.95-10.93l4.69-1.66c.79,2.75,1.42,5.18,1.92,7.28l-.06-9.26,6.1-.04.05,9.02c.69-2.4,1.23-4.89,1.63-7.45l3.36.65,9.17-.06-.02-2.69,7.68-.05.02,2.69,9.7-.06.03,4.9-9.7.06v1.39s8.7-.05,8.7-.05l.03,4.46-8.69.05v1.39s10.18-.06,10.18-.06l.03,4.94-27.5.17v1.92s-2.87.02-2.87.02c.78,1.56,1.94,3.88,3.5,6.94l-.05-7.58,25.58-.16.09,14.64c.01,1.89-.04,3.27-.14,4.15-.11.88-.46,1.61-1.04,2.19-.59.58-1.32.92-2.2,1.02-.88.1-2.28.16-4.2.17ZM228.43,19.58c-.53,2.18-1.24,4.62-2.11,7.31l-3.51-1.37v2.3s4.09-.02,4.09-.02v-.96s10.12-.06,10.12-.06v-1.39s-8.31.05-8.31.05l-.03-4.46,8.3-.05v-1.39s-8.55.05-8.55.05ZM235.27,38.97l10.85-.07v-1.44s-10.86.07-10.86.07v1.44ZM235.3,42.91v1.44s10.86-.07,10.86-.07v-1.44s-10.86.07-10.86.07Z"/>
        <path class="cls-6" d="M302.42,53.87l-43.01.26-.04-5.95,5.57-.03-.11-17.33c-2.3.97-3.59,1.53-3.88,1.66l-2.29-6.13c4.98-1.6,9.36-3.27,13.12-5.02l-12,.07-.04-5.95,17.09-.1-.02-3.65,7.68-.05.02,3.65,17.09-.1.04,5.95-12,.07c3.79,1.7,8.18,3.33,13.18,4.86l-2.22,6.16c-.29-.13-1.59-.66-3.9-1.61l.11,17.33,5.57-.03.04,5.95ZM268.91,28.93l8.02-.05-.03-4.56c-2.58,1.71-5.24,3.25-7.99,4.61ZM272.36,35.58l16.9-.1v-1.82s-16.91.1-16.91.1v1.82ZM272.38,39.94v1.87s16.91-.1,16.91-.1v-1.87s-16.91.1-16.91.1ZM272.42,46.19v1.92s16.91-.1,16.91-.1v-1.92s-16.91.1-16.91.1ZM292.62,28.78c-2.76-1.33-5.44-2.83-8.04-4.51l.03,4.56,8.02-.05Z"/>
        <path class="cls-23" d="M325.23,47.68l-3.37,5.69c-3.02-1.71-6.36-3.42-10.02-5.12l2.28-3.76-6.77.04-.04-5.62,28.03-.17v-1.3s-17.96.11-17.96.11l-6.91.04-.1-16.18,14.5-.09v-1.34s-17.67.11-17.67.11l-.04-5.81,17.66-.11-.02-3.02,7.68-.05.02,3.02,17.66-.11.04,5.81-17.66.11v1.34s14.5-.09,14.5-.09l.1,16.18-4.13.03v1.3s7.3-.04,7.3-.04l.04,5.62-7.3.04v2.4c.02,1.41.01,2.5-.01,3.26-.03.77-.17,1.5-.42,2.21-.25.7-.52,1.19-.81,1.44-.29.26-.83.5-1.63.73-.8.23-1.61.36-2.42.4-.82.04-2.02.06-3.62.07-1.28,0-4.08-.06-8.4-.19l-.42-5.95c3.84.14,6.3.2,7.39.19,1.34,0,2.13-.09,2.35-.25.22-.16.33-.69.33-1.59l-.02-2.69-16.32.1c1.44.7,3.5,1.77,6.16,3.23ZM324.92,27.67v-1.63s-7.59.05-7.59.05v1.63s7.59-.05,7.59-.05ZM324.94,31.08l-7.58.05v1.73s7.59-.05,7.59-.05v-1.73ZM332.6,27.62l7.58-.05v-1.63s-7.59.05-7.59.05v1.63ZM332.62,31.03v1.73s7.59-.05,7.59-.05v-1.73s-7.59.05-7.59.05Z"/>
        <path class="cls-24" d="M355.83,12.31l19.54-.12.14,22.8-12.05.07.12,19.39-7.49.05-.26-42.19ZM363.38,21.43l6.38-.04-.02-3.6-6.38.04.02,3.6ZM363.4,26.09l.02,3.55,6.38-.04-.02-3.55-6.38.04ZM397.49,12.06l.21,33.55c0,1.44,0,2.58-.05,3.41-.04.83-.17,1.6-.39,2.31-.22.71-.47,1.22-.76,1.54-.29.32-.77.6-1.46.83-.69.23-1.41.37-2.18.42-.77.05-1.82.08-3.17.09-2.5.02-5.1-.03-7.82-.14l-.42-6.33c4.1.14,6.32.2,6.67.2,1.02,0,1.63-.1,1.82-.27.19-.18.28-.73.28-1.66l-.07-11.09-12.53.08-.14-22.8,20.01-.12ZM390.06,21.27l-.02-3.6-6.82.04.02,3.6,6.82-.04ZM390.09,25.92l-6.82.04.02,3.55,6.82-.04-.02-3.55Z"/>
        <path class="cls-18" d="M420.2,27.32l-.06-9.12,9.12-.06.06,9.12-9.12.06ZM420.32,47.29l-.06-9.12,9.12-.06.06,9.12-9.12.06Z"/>
        <path class="cls-7" d="M483.3,25.26l11.33-.07.03,4.94-27.26.17-3.5.93c-.03-.1-.22-.96-.57-2.59-.35-1.63-.62-2.86-.81-3.69l.18,29.04-6.82.04-.16-26.11c-.4,3.36-.89,6.81-1.47,10.33l-4.61-.98c.77-4.77,1.5-10.52,2.2-17.25l3.84.5-.06-9.5,6.82-.04.05,8.64,3.16-.88c.03.1.07.22.12.38.05.16.09.29.12.38l9.7-.06v-1.39s-10.9.07-10.9.07l-.03-4.9,10.9-.07-.02-2.78,7.68-.05.02,2.78,10.37-.06.03,4.9-10.37.06v1.39s9.27-.06,9.27-.06l.03,4.46-9.26.06v1.39ZM485.06,53.71c-1.15,0-3.2-.06-6.15-.2l-.23-5.42c2.82.14,4.54.21,5.19.21.61,0,.97-.05,1.08-.15.11-.1.17-.4.16-.91v-.43s-12.44.08-12.44.08l.04,6.96-7.34.05-.14-22.27,27.41-.17.09,14.74c0,1.28,0,2.28-.03,3-.03.72-.15,1.4-.37,2.04-.22.64-.47,1.09-.74,1.35-.27.26-.73.49-1.39.7-.66.21-1.34.34-2.06.37-.72.04-1.75.06-3.1.07ZM467.42,25.35l8.21-.05v-1.39s-8.55.05-8.55.05c.03.16.09.39.17.69.08.3.14.54.17.7ZM472.63,37.56l12.43-.08v-1.49s-12.44.08-12.44.08v1.49ZM472.65,41.5v1.49s12.44-.08,12.44-.08v-1.49s-12.44.08-12.44.08Z"/>
        <path class="cls-22" d="M540.39,23.49c-.46.37-1.24.56-2.32.57s-4.08-.05-8.98-.18l-.22-5.13c2.82.14,4.69.21,5.62.21.29,0,.47-.09.55-.27.08-.18.15-.7.21-1.56l-9.12.06.05,8.26,15.94-.1.03,5.57c-.68,4.61-2.01,8.7-4,12.26,1.58,1.56,3.36,2.83,5.35,3.81l-2.12,6.49c-2.47-1.07-4.85-2.69-7.13-4.85-1.59,1.74-3.4,3.3-5.44,4.69l-2.48-5.27.03,5.33-6.91.04-.09-13.97-6.1.04.02,3.17,5.14-.03.03,5.52-5.14.03.04,5.71-7.3.04-.04-5.71-5.71.04-.03-5.52,5.71-.04-.02-3.17-6.38.04-.04-5.9,3.36-.02c-.3-1.53-.76-3.58-1.38-6.14h-2.26s-.04-5.89-.04-5.89l6.62-.04-.02-2.88-5.42.03-.03-5.52,5.42-.03-.02-3.12,7.3-.04.02,3.12,5.04-.03.03,5.52-5.04.03.02,2.88,6.1-.04-.06-9.98,22.94-.14-.08,2.93c-.11,3.11-.3,5.32-.56,6.65-.26,1.33-.63,2.18-1.09,2.55ZM508.56,33.6h1.92c.72-2.13,1.35-4.18,1.88-6.17l-5.09.03c.33,1.34.76,3.39,1.29,6.14ZM519.31,33.53l-.04-6.14h-1.15c-.63,2.35-1.25,4.4-1.88,6.16l3.07-.02ZM529.85,30.97l-3.65.02.02,2.83,3.63-2.85ZM526.24,36.22l.06,10.37c1.53-1.06,2.74-2.08,3.63-3.05-1.42-2.1-2.65-4.54-3.69-7.32ZM530.77,30.96c.69,2.3,1.68,4.52,2.97,6.65.82-1.93,1.45-4.15,1.88-6.68l-4.85.03Z"/>
        <path class="cls-17" d="M565.8,30.08c-.1,5.47-1.26,9.97-3.49,13.49s-5.9,6.67-11.01,9.45l-4.07-5.83c4.05-2.23,6.92-4.59,8.6-7.08,1.68-2.49,2.62-5.82,2.82-9.98l-10.7.07-.04-6.29,41.66-.26.04,6.29-11.81.07.09,14.78c0,.61.12.97.34,1.08.22.11.99.16,2.3.15,1.22,0,1.94-.39,2.18-1.14.24-.75.43-3.4.6-7.95l7.01.53c-.11,2.95-.19,5.02-.25,6.22s-.26,2.52-.6,3.96c-.34,1.44-.63,2.33-.87,2.67s-.84.73-1.82,1.16c-.97.44-1.88.66-2.71.66-.83,0-2.22.01-4.18.03-2.94.02-5.05-.13-6.32-.44-1.27-.31-2.11-.86-2.53-1.64-.42-.78-.64-2.12-.65-4l-.1-16.03-4.51.03ZM551.61,18.07l-.04-6.34,34.18-.21.04,6.34-34.18.21Z"/>
      </g>
    </g>
    <g>
      <g>
        <path class="cls-11" d="M16.15,135.97c-5.52,0-10-4.48-10-10v-7.57c-4.21-1.76-6.79-6.23-6.01-10.88.76-4.55,1.51-10.16,2.23-16.67.29-2.68,1.66-5.13,3.78-6.79v-1.1c0-5.52,4.48-10,10-10h6.82c2.36,0,4.54.82,6.25,2.19,1.79-1.69,4.2-2.72,6.86-2.72h7.68c2.69,0,5.13,1.06,6.92,2.78h3.44c5.52,0,10,4.48,10,10v4.9c0,.83-.1,1.63-.29,2.4.8,1.44,1.25,3.09,1.25,4.85v4.94c0,2.26-.75,4.35-2.02,6.02v10.01c0,1.42-.02,2.55-.06,3.43-.08,1.7-.39,3.35-.93,4.9-.77,2.2-1.85,3.93-3.32,5.32-1.4,1.32-3.1,2.28-5.22,2.95-1.49.47-3.05.75-4.64.82-.91.04-2.06.06-3.55.06-1.35,0-3.48-.08-6.69-.25-.73-.04-1.43-.16-2.11-.34-1.1.42-2.29.64-3.54.64h-7.34c-.33,0-.66-.02-.99-.05-.55.09-1.12.14-1.7.14h-6.82Z"/>
        <path class="cls-11" d="M66.31,136.16c-4.25,0-7.88-2.65-9.33-6.39-3.74-1.45-6.39-5.08-6.39-9.33v-5.08c-.43-1.12-.67-2.34-.67-3.61v-5.9c0-.94.13-1.84.37-2.7-.39-1.07-.61-2.23-.61-3.44v-5.9c0-1.72.43-3.34,1.2-4.75v-3.65c0-4.83,3.42-8.86,7.98-9.8,1.83-2.04,4.49-3.32,7.45-3.32h7.3c1.98,0,3.82.57,5.37,1.56.24-.02.48-.03.73-.03h22.94c2.71,0,5.3,1.1,7.19,3.05s2.9,4.57,2.81,7.28l-.1,2.93c-.13,3.14-.33,5.47-.61,7.26.4,1.08.61,2.24.61,3.45v5.57c0,.51-.04,1.01-.12,1.51-.39,2.56-.96,5.02-1.69,7.37,2.71,2.61,3.79,6.62,2.54,10.36l-2.16,6.48c-.89,2.67-2.87,4.84-5.44,5.98-1.29.57-2.67.86-4.05.86s-2.75-.28-4.04-.85c-.89-.39-1.76-.83-2.63-1.31-.11.08-.22.15-.33.22-1.67,1.12-3.61,1.7-5.58,1.7-.34,0-.68-.02-1.02-.05-.46.07-.94.1-1.42.1h-6.91c-.82,0-1.61-.1-2.37-.28-1.15.46-2.41.72-3.72.72h-7.3Z"/>
        <path class="cls-11" d="M128.03,136.02c-.46,0-.93-.03-1.39-.1-.33.03-.67.05-1,.05h-7.1c-4.08,0-7.58-2.44-9.14-5.94-.25.05-.49.1-.74.14-.63.12-1.26.18-1.88.18-2.13,0-4.22-.68-5.95-1.96-2.25-1.66-3.69-4.19-3.99-6.97l-.67-6.29c-.31-2.89.65-5.64,2.44-7.67v-21.09c0-5.52,4.48-10,10-10h2.42c1.83-2.09,4.52-3.41,7.52-3.41h7.1c2.32,0,4.45.79,6.15,2.11h19.05c5.52,0,10,4.48,10,10v6.29c0,.45-.03.9-.09,1.35-.86,6.33-2.5,12.18-4.9,17.46.33.19.67.37,1.01.55,2.37,1.24,4.15,3.37,4.93,5.93.79,2.56.52,5.32-.75,7.67l-3.46,6.43c-1.28,2.38-3.47,4.14-6.06,4.88-.9.26-1.82.38-2.74.38-1.73,0-3.45-.45-4.98-1.33-1.88-1.08-3.67-2.23-5.35-3.45-1.72,1.23-3.55,2.39-5.48,3.48-1.52.86-3.21,1.3-4.93,1.3Z"/>
        <path class="cls-11" d="M173.35,135.97c-2.89,0-5.49-1.22-7.31-3.18-2.03.62-4.19,1.22-6.49,1.81-.83.21-1.66.31-2.47.31-4.16,0-8.01-2.61-9.44-6.71l-2.16-6.19c-.88-2.52-.71-5.29.45-7.67v-4.65c0-2.12.66-4.09,1.79-5.71-1.41-1.26-2.44-2.91-2.96-4.77-.73-2.61-.36-5.41,1.02-7.75,2.26-3.84,4.07-7.88,5.37-12,1.33-4.21,5.23-6.99,9.53-6.99.48,0,.96.03,1.45.11l6.91,1.01c.68.1,1.35.27,1.99.5,1.59-1.03,3.47-1.62,5.44-1.62.31,0,.61.01.92.04l7.3.67c2.23.21,4.3,1.15,5.9,2.65h5.75c5.52,0,10,4.48,10,10v5.23c0,1.86-.51,3.6-1.39,5.09v.47c0,.26,0,.51-.03.77.02.25.03.51.03.77v.43c.88,1.49,1.39,3.23,1.39,5.09v.52c1.03,1.57,1.63,3.46,1.63,5.48v3.77c.05.08.09.15.14.23,1.46,2.52,1.75,5.56.79,8.31l-2.16,6.19c-1.43,4.09-5.28,6.71-9.44,6.71-.82,0-1.65-.1-2.47-.31-2.3-.59-4.46-1.19-6.49-1.81-1.83,1.96-4.43,3.18-7.31,3.18h-7.68Z"/>
        <path class="cls-11" d="M230.42,136.02c-.9,0-2.79-.03-8.77-.25-1.7-.06-3.29-.55-4.67-1.35-1.31-.15-2.61-.57-3.83-1.26-2.77-1.59-5.9-3.21-9.28-4.82-1.69-.8-3.1-2.04-4.1-3.58-3.58-1.52-6.09-5.07-6.09-9.21v-5.62c0-2.88,1.22-5.48,3.17-7.3v-4.21c-1.95-1.82-3.17-4.42-3.17-7.3v-5.81c0-5.52,4.48-10,10-10h10.5c1.82-1.87,4.36-3.02,7.17-3.02h7.68c2.81,0,5.35,1.16,7.17,3.02h10.5c5.52,0,10,4.48,10,10v5.81c0,2.88-1.22,5.48-3.17,7.3v4.21c1.95,1.82,3.17,4.42,3.17,7.3v5.62c0,4.81-3.39,8.82-7.91,9.78-.13.51-.29,1.01-.47,1.5-.84,2.31-2,4.1-3.56,5.49-1.48,1.32-3.25,2.23-5.58,2.88-1.56.43-3.15.69-4.73.75-.98.04-2.29.06-4.02.06Z"/>
        <path class="cls-11" d="M252.35,135.83c-5.52,0-10-4.48-10-10v-42.19c0-5.52,4.48-10,10-10h19.54c.36,0,.71.02,1.06.06.35-.04.7-.06,1.06-.06h20.02c5.52,0,10,4.48,10,10v33.55c0,1.64-.03,2.94-.09,3.98-.1,1.66-.38,3.26-.86,4.76-.67,2.1-1.6,3.79-2.86,5.2-1.48,1.65-3.43,2.86-5.8,3.64-1.49.49-3.06.78-4.66.88-.99.06-2.23.09-3.8.09-2.63,0-5.42-.07-8.29-.2-3.82-.18-7.09-2.5-8.61-5.79-1.52,3.58-5.07,6.09-9.21,6.09h-7.49Z"/>
        <path class="cls-11" d="M316.63,129.01c-5.52,0-10-4.48-10-10v-9.12c0-2,.59-3.86,1.6-5.42-1.01-1.56-1.6-3.42-1.6-5.42v-9.12c0-5.52,4.48-10,10-10h9.12c5.52,0,10,4.48,10,10v9.12c0,2-.59,3.86-1.6,5.42,1.01,1.56,1.6,3.42,1.6,5.42v9.12c0,5.52-4.48,10-10,10h-9.12Z"/>
        <path class="cls-11" d="M359.58,133.81c-4.64,0-8.74-3.23-9.76-7.84l-1.44-6.53c-.33-1.48-.31-2.99.03-4.43-1.32-1.55-2.17-3.52-2.34-5.67-4.49-.98-7.85-4.98-7.85-9.77v-6.77c0-4.84,3.44-8.87,8-9.8.88-4.62,4.94-8.12,9.82-8.12h7.34c2.07,0,4,.63,5.59,1.71,1.6-1.08,3.52-1.71,5.59-1.71h7.58c4.87,0,8.92,3.48,9.82,8.08,4.66.85,8.2,4.93,8.2,9.84v6.77c0,5.12-3.84,9.33-8.8,9.93-1.16,6.06-3.62,11.02-7.34,14.81-5.25,5.35-12.94,8.44-23.49,9.45-.32.03-.64.05-.96.05Z"/>
        <path class="cls-11" d="M412.62,134.15c-2.2,0-4.75-.2-7.79-.62-3.31-.46-6.04-2.49-7.5-5.27l-5.96-2.65c-2.46-1.09-4.37-3.13-5.31-5.66-.94-2.52-.82-5.32.33-7.75,1.12-2.37,2.25-4.9,3.4-7.59-1.63-1.78-2.63-4.15-2.63-6.76v-6.58c0-5.52,4.48-10,10-10h6.5c1.18-4.21,5.04-7.3,9.63-7.3h7.97c.74,0,1.46.08,2.15.23,2.91-2.14,6.35-3.26,10.09-3.26,4.65,0,8.85,1.74,12.15,5.03,3.3,3.31,5.05,7.51,5.05,12.17,0,3.49-1.02,6.84-2.96,9.68-.52.77-1.11,1.49-1.74,2.16-.36,1.66-1.14,3.17-2.22,4.41,1.12,2.71,2.28,5.62,3.49,8.72.97,2.49.91,5.26-.18,7.7-1.08,2.44-3.1,4.34-5.6,5.29l-6.72,2.54c-1.17.44-2.36.65-3.54.65s-2.23-.19-3.27-.55c-.3.39-.62.75-.97,1.1-1.49,1.49-3.3,2.55-5.57,3.29-1.56.51-3.18.81-4.84.91-1.03.06-2.33.09-3.98.09Z"/>
        <rect class="cls-11" x="434.45" y="91.88" width="45.47" height="25.18" rx="10" ry="10"/>
        <path class="cls-11" d="M486.05,134c-5.52,0-10-4.48-10-10v-39.07c0-5.52,4.48-10,10-10h7.97c5.52,0,10,4.48,10,10v5.44c5.23,1.64,10.25,3.49,14.98,5.54,5,2.16,7.36,7.92,5.3,12.97l-2.69,6.58c-1.02,2.48-2.99,4.46-5.47,5.47-1.21.5-2.5.74-3.79.74s-2.69-.27-3.95-.81c-1.43-.62-2.89-1.21-4.38-1.79v4.94c0,5.52-4.48,10-10,10h-7.97Z"/>
        <path class="cls-11" d="M530.17,133.72c-3.18,0-6.28-1.51-8.21-4.28l-4.22-6.05c-1.63-2.33-2.19-5.25-1.53-8.02.65-2.77,2.46-5.13,4.96-6.49,2.18-1.19,4.23-2.48,6.13-3.87-.74-.55-1.49-1.09-2.24-1.63-2.23-1.6-3.7-4.04-4.08-6.75-.38-2.71.38-5.46,2.08-7.61l4.51-5.66c1.97-2.47,4.88-3.77,7.83-3.77,2.03,0,4.08.62,5.85,1.89.68.49,1.36.99,2.03,1.48.13-.41.27-.83.39-1.25.76-2.54,2.51-4.68,4.85-5.94,1.47-.79,3.09-1.19,4.73-1.19.97,0,1.95.14,2.9.43l7.29,2.21c5.17,1.56,8.16,6.95,6.76,12.16-1.15,4.3-2.67,8.4-4.53,12.27,1.71,1.61,3.34,3.18,4.87,4.71,3.8,3.81,3.92,9.94.25,13.88l-5.09,5.47c-1.86,2-4.46,3.15-7.19,3.19-.04,0-.09,0-.13,0-2.69,0-5.26-1.08-7.14-3-.83-.85-1.69-1.71-2.55-2.56-4.1,3.42-8.74,6.5-13.86,9.2-1.48.78-3.08,1.16-4.66,1.16Z"/>
        <path class="cls-11" d="M577.24,132.66c-4.93,0-9.19-3.63-9.89-8.6l-1.01-7.15c-.38-2.69.35-5.42,2.03-7.56s4.15-3.51,6.86-3.78c.82-.08,1.62-.18,2.4-.3-2.47-1.58-4.94-3.1-7.41-4.53-2.36-1.37-4.06-3.64-4.7-6.3s-.17-5.45,1.3-7.75l3.94-6.14c1.9-2.97,5.12-4.61,8.43-4.61,1.65,0,3.31.41,4.84,1.26,4.35,2.41,8.94,5.28,13.67,8.53.87-1.47,2.11-2.7,3.62-3.56,1.53-.88,3.24-1.32,4.97-1.32.93,0,1.86.13,2.77.39l7.15,2.06c5.08,1.46,8.14,6.62,6.99,11.78-2.56,11.52-7.69,20.52-15.22,26.75-7.38,6.1-17.43,9.73-29.87,10.8-.29.02-.58.04-.87.04Z"/>
        <path class="cls-11" d="M653.18,132.56c-4.6,0-8.73-3.19-9.75-7.85-.71-3.23-1.43-6.29-2.15-9.18-1.57,4.17-3.47,8.18-5.7,12.01-1.85,3.17-5.19,4.96-8.65,4.96-1.48,0-2.98-.33-4.39-1.02l-7.15-3.5c-2.51-1.23-4.39-3.45-5.19-6.13-.8-2.68-.43-5.57,1-7.97,4.71-7.9,7.37-16.97,7.92-26.96.29-5.33,4.7-9.45,9.98-9.45.17,0,.34,0,.51.01l7.58.38c.42.02.83.07,1.23.14.22-.13.44-.26.67-.37l4.94-2.5c1.44-.73,2.98-1.08,4.5-1.08.57,0,1.14.05,1.7.15l1.48-.75c1.44-.73,2.98-1.08,4.5-1.08,3.53,0,6.94,1.87,8.76,5.16,1.21,2.19,2.67,4.96,4.34,8.22,1.23,2.4,1.43,5.2.56,7.76-.76,2.23-2.28,4.12-4.28,5.33,1.83,5.88,3.61,12.52,5.31,19.8.61,2.63.14,5.39-1.32,7.67s-3.77,3.86-6.41,4.4l-7.97,1.63c-.68.14-1.35.21-2.02.21Z"/>
        <rect class="cls-11" x="658.45" y="91.88" width="45.47" height="25.18" rx="10" ry="10"/>
      </g>
      <g>
        <path class="cls-20" d="M43.75,97.36h11.33v4.94h-27.26l-3.5.91c-.03-.1-.22-.96-.55-2.59-.34-1.63-.6-2.86-.79-3.7v29.04h-6.82v-26.11c-.42,3.36-.93,6.8-1.54,10.32l-4.61-1.01c.8-4.77,1.57-10.51,2.3-17.23l3.84.53v-9.5h6.82v8.64l3.17-.86c.03.1.07.22.12.38.05.16.09.29.12.38h9.7v-1.39h-10.9v-4.9h10.9v-2.78h7.68v2.78h10.37v4.9h-10.37v1.39h9.26v4.46h-9.26v1.39ZM45.33,125.83c-1.15,0-3.2-.08-6.14-.24l-.19-5.42c2.82.16,4.54.24,5.18.24.61,0,.97-.05,1.08-.14.11-.1.17-.4.17-.91v-.43h-12.43v6.96h-7.34v-22.27h27.41v14.74c0,1.28-.02,2.28-.05,3-.03.72-.16,1.4-.38,2.04-.22.64-.47,1.09-.74,1.34-.27.26-.74.49-1.39.7-.66.21-1.34.33-2.06.36-.72.03-1.75.05-3.1.05ZM27.86,97.36h8.21v-1.39h-8.54c.03.16.09.39.17.7.08.3.14.54.17.7ZM32.99,109.6h12.43v-1.49h-12.43v1.49ZM32.99,113.54v1.49h12.43v-1.49h-12.43Z"/>
        <path class="cls-20" d="M100.84,95.95c-.46.37-1.24.55-2.33.55s-4.08-.08-8.98-.24l-.19-5.14c2.82.16,4.69.24,5.62.24.29,0,.47-.09.55-.26.08-.18.15-.7.22-1.56h-9.12v8.26h15.94v5.57c-.71,4.61-2.06,8.69-4.08,12.24,1.57,1.57,3.34,2.85,5.33,3.84l-2.16,6.48c-2.46-1.09-4.83-2.72-7.11-4.9-1.6,1.73-3.42,3.28-5.47,4.66l-2.45-5.28v5.33h-6.91v-13.97h-6.1v3.17h5.14v5.52h-5.14v5.71h-7.3v-5.71h-5.71v-5.52h5.71v-3.17h-6.38v-5.9h3.36c-.29-1.54-.74-3.58-1.34-6.14h-2.26v-5.9h6.62v-2.88h-5.42v-5.52h5.42v-3.12h7.3v3.12h5.04v5.52h-5.04v2.88h6.1v-9.98h22.94l-.1,2.93c-.13,3.1-.33,5.32-.6,6.65-.27,1.33-.64,2.18-1.1,2.54ZM68.95,105.86h1.92c.74-2.11,1.38-4.16,1.92-6.14h-5.09c.32,1.34.74,3.39,1.25,6.14ZM79.7,105.86v-6.14h-1.15c-.64,2.34-1.28,4.38-1.92,6.14h3.07ZM90.26,103.36h-3.65v2.83l3.65-2.83ZM86.61,108.6v10.37c1.54-1.06,2.75-2.06,3.65-3.02-1.41-2.11-2.62-4.56-3.65-7.34ZM91.17,103.36c.67,2.3,1.65,4.53,2.93,6.67.83-1.92,1.47-4.14,1.92-6.67h-4.85Z"/>
        <path class="cls-20" d="M127.07,94l6.91-1.73c1.02,5.5,2.51,10.13,4.46,13.87,2.59-4.42,4.27-9.34,5.04-14.78h-16.37v-6.29h23.71v6.29c-1.12,8.26-3.73,15.34-7.82,21.26,2.46,2.72,5.54,5.04,9.22,6.96l-3.46,6.43c-4.06-2.34-7.49-4.98-10.27-7.92-2.85,2.94-6.34,5.58-10.46,7.92l-2.4-4.37v4.32h-7.1v-8.35c-4,1.09-7.92,2-11.76,2.74l-.67-6.29c1.09-.19,1.92-.35,2.5-.48v-27.22h6.72v25.68c.9-.19,1.97-.46,3.22-.82v-28.27h7.1v35.9c3.17-1.86,5.94-4.06,8.3-6.62-3.1-4.86-5.39-10.94-6.86-18.24Z"/>
        <path class="cls-20" d="M199.46,118.72l-2.16,6.19c-6.66-1.7-12.08-3.55-16.27-5.57v6.62h-7.68v-6.62c-4.19,2.02-9.62,3.87-16.27,5.57l-2.16-6.19c6.56-1.22,11.74-2.5,15.55-3.84h-14.54v-5.18h17.42v-1.54h-14.45v-9.17l-4.51-2.45c2.66-4.51,4.75-9.2,6.29-14.06l6.91,1.01c-.16.67-.38,1.46-.67,2.35h8.54c.19-.54.53-1.66,1.01-3.36l7.3.67c-.16.64-.43,1.54-.82,2.69h13.39v5.23h-14.02v1.54h12.62v4.03h-12.62v1.54h12.62v4.03h-12.62v1.49h14.02v4.46h-15.31v1.54h16.94v5.18h-14.06c3.81,1.34,8.99,2.62,15.55,3.84ZM174.64,92.61v-1.54h-8.45v1.54h8.45ZM174.64,98.18v-1.54h-8.45v1.54h8.45ZM174.64,102.21h-8.45v1.49h8.45v-1.49Z"/>
        <path class="cls-20" d="M221.54,118.82l-3.41,5.66c-3.01-1.73-6.34-3.46-9.98-5.18l2.3-3.74h-6.77v-5.62h28.03v-1.3h-24.86v-16.18h14.5v-1.34h-17.66v-5.81h17.66v-3.02h7.68v3.02h17.66v5.81h-17.66v1.34h14.5v16.18h-4.13v1.3h7.3v5.62h-7.3v2.4c0,1.41-.02,2.5-.05,3.26-.03.77-.18,1.5-.43,2.21-.26.7-.53,1.18-.82,1.44-.29.26-.83.5-1.63.72-.8.22-1.61.35-2.42.38-.82.03-2.02.05-3.62.05-1.28,0-4.08-.08-8.4-.24l-.38-5.95c3.84.16,6.3.24,7.39.24,1.34,0,2.13-.08,2.35-.24.22-.16.34-.69.34-1.58v-2.69h-16.32c1.44.7,3.49,1.79,6.14,3.26ZM221.35,98.8v-1.63h-7.58v1.63h7.58ZM221.35,102.21h-7.58v1.73h7.58v-1.73ZM229.02,98.8h7.58v-1.63h-7.58v1.63ZM229.02,102.21v1.73h7.58v-1.73h-7.58Z"/>
        <path class="cls-20" d="M252.35,83.64h19.54v22.8h-12.05v19.39h-7.49v-42.19ZM259.84,92.8h6.38v-3.6h-6.38v3.6ZM259.84,97.46v3.55h6.38v-3.55h-6.38ZM294.02,83.64v33.55c0,1.44-.02,2.58-.07,3.41-.05.83-.18,1.6-.41,2.3-.22.7-.48,1.22-.77,1.54-.29.32-.78.59-1.46.82-.69.22-1.42.36-2.18.41-.77.05-1.82.07-3.17.07-2.5,0-5.1-.06-7.82-.19l-.38-6.34c4.1.16,6.32.24,6.67.24,1.02,0,1.63-.09,1.82-.26.19-.18.29-.73.29-1.66v-11.09h-12.53v-22.8h20.02ZM286.53,92.8v-3.6h-6.82v3.6h6.82ZM286.53,97.46h-6.82v3.55h6.82v-3.55Z"/>
        <path class="cls-20" d="M316.63,99.04v-9.12h9.12v9.12h-9.12ZM316.63,119.01v-9.12h9.12v9.12h-9.12Z"/>
        <path class="cls-20" d="M348.21,92.8h7.82v-7.92h7.34v7.92h11.18v-7.92h7.58v7.92h8.02v6.77h-8.02v1.15c0,7.49-1.75,13.02-5.26,16.58-3.5,3.57-9.27,5.74-17.3,6.5l-1.44-6.53c6.37-.7,10.7-2.23,12.98-4.58,2.29-2.35,3.43-6.34,3.43-11.98v-1.15h-11.18v8.98h-7.34v-8.98h-7.82v-6.77Z"/>
        <path class="cls-20" d="M402.26,100.53l6.77,2.26c-2.3,6.08-4.64,11.62-7.01,16.61l-6.58-2.93c2.24-4.74,4.51-10.05,6.82-15.94ZM397.17,91.27h16.13v-7.3h7.97v7.3h5.76c-.48-1.06-.72-2.1-.72-3.12,0-1.98.7-3.68,2.11-5.09,1.41-1.41,3.1-2.11,5.09-2.11s3.68.7,5.09,2.11c1.41,1.41,2.11,3.1,2.11,5.09,0,1.5-.41,2.86-1.22,4.06-.81,1.2-1.89,2.07-3.24,2.62v3.02h-14.97v17.57c0,1.47-.03,2.62-.07,3.46-.05.83-.19,1.62-.43,2.35-.24.74-.52,1.26-.84,1.58-.32.32-.85.6-1.58.84-.74.24-1.51.38-2.33.43-.82.05-1.95.07-3.38.07-1.73,0-3.87-.18-6.43-.53l.43-6.67c2.34.29,4,.43,4.99.43.8,0,1.28-.1,1.44-.29.16-.19.24-.75.24-1.68v-17.57h-16.13v-6.58ZM424.43,102.83l6.72-2.54c2.05,4.58,4.32,10.06,6.82,16.46l-6.72,2.54c-2.59-6.53-4.87-12.02-6.82-16.46ZM435.71,85.94c-.61-.61-1.34-.91-2.21-.91s-1.6.3-2.21.91c-.61.61-.91,1.34-.91,2.21s.3,1.6.91,2.21c.61.61,1.34.91,2.21.91s1.6-.3,2.21-.91c.61-.61.91-1.34.91-2.21s-.3-1.6-.91-2.21Z"/>
        <path class="cls-20" d="M444.45,107.06v-5.18h25.47v5.18h-25.47Z"/>
        <path class="cls-20" d="M486.05,84.93h7.97v12.96c7.49,1.98,14.5,4.38,21.02,7.2l-2.69,6.58c-5.73-2.46-11.84-4.61-18.34-6.43v18.77h-7.97v-39.07Z"/>
        <path class="cls-20" d="M530.88,95.25l4.51-5.66c4.03,2.91,7.89,5.89,11.57,8.93,2.66-4.16,4.75-8.8,6.29-13.92l7.29,2.21c-1.66,6.21-4.16,11.84-7.49,16.9,3.84,3.39,7.31,6.64,10.42,9.74l-5.09,5.47c-3.1-3.17-6.37-6.29-9.79-9.36-4.83,5.5-10.98,10.22-18.43,14.16l-4.22-6.05c6.65-3.62,12.22-8.05,16.7-13.3-3.78-3.17-7.7-6.21-11.76-9.12Z"/>
        <path class="cls-20" d="M575.23,92.08l3.94-6.14c4.38,2.43,8.99,5.33,13.82,8.69l-4.13,6.1c-4.51-3.1-9.06-5.98-13.63-8.64ZM576.24,115.51c8.77-.9,15.46-3.25,20.09-7.06,4.62-3.81,7.95-9.68,9.96-17.62l7.15,2.06c-2.08,9.34-6.02,16.42-11.83,21.22-5.81,4.8-13.93,7.65-24.36,8.54l-1.01-7.15Z"/>
        <path class="cls-20" d="M629.09,87.48l7.58.38c-.54,12.9-3.79,24.45-9.74,34.66l-7.15-3.5c5.57-9.34,8.67-19.86,9.31-31.54ZM652.61,91.84l-4.94,2.35c-1.25-2.53-2.61-5.07-4.08-7.63l4.94-2.5c1.47,2.72,2.83,5.31,4.08,7.78ZM646.8,98.37l7.34-2.26c2.43,6.94,4.77,15.22,7.01,24.82l-7.97,1.63c-2.11-9.57-4.24-17.63-6.38-24.19ZM660.38,90.31l-5.04,2.4c-1.44-2.78-2.83-5.38-4.18-7.78l5.04-2.54c1.15,2.08,2.54,4.72,4.18,7.92Z"/>
        <path class="cls-20" d="M668.45,107.06v-5.18h25.47v5.18h-25.47Z"/>
      </g>
      <g>
        <path class="cls-8" d="M43.75,97.36h11.33v4.94h-27.26l-3.5.91c-.03-.1-.22-.96-.55-2.59-.34-1.63-.6-2.86-.79-3.7v29.04h-6.82v-26.11c-.42,3.36-.93,6.8-1.54,10.32l-4.61-1.01c.8-4.77,1.57-10.51,2.3-17.23l3.84.53v-9.5h6.82v8.64l3.17-.86c.03.1.07.22.12.38.05.16.09.29.12.38h9.7v-1.39h-10.9v-4.9h10.9v-2.78h7.68v2.78h10.37v4.9h-10.37v1.39h9.26v4.46h-9.26v1.39ZM45.33,125.83c-1.15,0-3.2-.08-6.14-.24l-.19-5.42c2.82.16,4.54.24,5.18.24.61,0,.97-.05,1.08-.14.11-.1.17-.4.17-.91v-.43h-12.43v6.96h-7.34v-22.27h27.41v14.74c0,1.28-.02,2.28-.05,3-.03.72-.16,1.4-.38,2.04-.22.64-.47,1.09-.74,1.34-.27.26-.74.49-1.39.7-.66.21-1.34.33-2.06.36-.72.03-1.75.05-3.1.05ZM27.86,97.36h8.21v-1.39h-8.54c.03.16.09.39.17.7.08.3.14.54.17.7ZM32.99,109.6h12.43v-1.49h-12.43v1.49ZM32.99,113.54v1.49h12.43v-1.49h-12.43Z"/>
        <path class="cls-25" d="M100.84,95.95c-.46.37-1.24.55-2.33.55s-4.08-.08-8.98-.24l-.19-5.14c2.82.16,4.69.24,5.62.24.29,0,.47-.09.55-.26.08-.18.15-.7.22-1.56h-9.12v8.26h15.94v5.57c-.71,4.61-2.06,8.69-4.08,12.24,1.57,1.57,3.34,2.85,5.33,3.84l-2.16,6.48c-2.46-1.09-4.83-2.72-7.11-4.9-1.6,1.73-3.42,3.28-5.47,4.66l-2.45-5.28v5.33h-6.91v-13.97h-6.1v3.17h5.14v5.52h-5.14v5.71h-7.3v-5.71h-5.71v-5.52h5.71v-3.17h-6.38v-5.9h3.36c-.29-1.54-.74-3.58-1.34-6.14h-2.26v-5.9h6.62v-2.88h-5.42v-5.52h5.42v-3.12h7.3v3.12h5.04v5.52h-5.04v2.88h6.1v-9.98h22.94l-.1,2.93c-.13,3.1-.33,5.32-.6,6.65-.27,1.33-.64,2.18-1.1,2.54ZM68.95,105.86h1.92c.74-2.11,1.38-4.16,1.92-6.14h-5.09c.32,1.34.74,3.39,1.25,6.14ZM79.7,105.86v-6.14h-1.15c-.64,2.34-1.28,4.38-1.92,6.14h3.07ZM90.26,103.36h-3.65v2.83l3.65-2.83ZM86.61,108.6v10.37c1.54-1.06,2.75-2.06,3.65-3.02-1.41-2.11-2.62-4.56-3.65-7.34ZM91.17,103.36c.67,2.3,1.65,4.53,2.93,6.67.83-1.92,1.47-4.14,1.92-6.67h-4.85Z"/>
        <path class="cls-1" d="M127.07,94l6.91-1.73c1.02,5.5,2.51,10.13,4.46,13.87,2.59-4.42,4.27-9.34,5.04-14.78h-16.37v-6.29h23.71v6.29c-1.12,8.26-3.73,15.34-7.82,21.26,2.46,2.72,5.54,5.04,9.22,6.96l-3.46,6.43c-4.06-2.34-7.49-4.98-10.27-7.92-2.85,2.94-6.34,5.58-10.46,7.92l-2.4-4.37v4.32h-7.1v-8.35c-4,1.09-7.92,2-11.76,2.74l-.67-6.29c1.09-.19,1.92-.35,2.5-.48v-27.22h6.72v25.68c.9-.19,1.97-.46,3.22-.82v-28.27h7.1v35.9c3.17-1.86,5.94-4.06,8.3-6.62-3.1-4.86-5.39-10.94-6.86-18.24Z"/>
        <path class="cls-19" d="M199.46,118.72l-2.16,6.19c-6.66-1.7-12.08-3.55-16.27-5.57v6.62h-7.68v-6.62c-4.19,2.02-9.62,3.87-16.27,5.57l-2.16-6.19c6.56-1.22,11.74-2.5,15.55-3.84h-14.54v-5.18h17.42v-1.54h-14.45v-9.17l-4.51-2.45c2.66-4.51,4.75-9.2,6.29-14.06l6.91,1.01c-.16.67-.38,1.46-.67,2.35h8.54c.19-.54.53-1.66,1.01-3.36l7.3.67c-.16.64-.43,1.54-.82,2.69h13.39v5.23h-14.02v1.54h12.62v4.03h-12.62v1.54h12.62v4.03h-12.62v1.49h14.02v4.46h-15.31v1.54h16.94v5.18h-14.06c3.81,1.34,8.99,2.62,15.55,3.84ZM174.64,92.61v-1.54h-8.45v1.54h8.45ZM174.64,98.18v-1.54h-8.45v1.54h8.45ZM174.64,102.21h-8.45v1.49h8.45v-1.49Z"/>
        <path class="cls-4" d="M221.54,118.82l-3.41,5.66c-3.01-1.73-6.34-3.46-9.98-5.18l2.3-3.74h-6.77v-5.62h28.03v-1.3h-24.86v-16.18h14.5v-1.34h-17.66v-5.81h17.66v-3.02h7.68v3.02h17.66v5.81h-17.66v1.34h14.5v16.18h-4.13v1.3h7.3v5.62h-7.3v2.4c0,1.41-.02,2.5-.05,3.26-.03.77-.18,1.5-.43,2.21-.26.7-.53,1.18-.82,1.44-.29.26-.83.5-1.63.72-.8.22-1.61.35-2.42.38-.82.03-2.02.05-3.62.05-1.28,0-4.08-.08-8.4-.24l-.38-5.95c3.84.16,6.3.24,7.39.24,1.34,0,2.13-.08,2.35-.24.22-.16.34-.69.34-1.58v-2.69h-16.32c1.44.7,3.49,1.79,6.14,3.26ZM221.35,98.8v-1.63h-7.58v1.63h7.58ZM221.35,102.21h-7.58v1.73h7.58v-1.73ZM229.02,98.8h7.58v-1.63h-7.58v1.63ZM229.02,102.21v1.73h7.58v-1.73h-7.58Z"/>
        <path class="cls-27" d="M252.35,83.64h19.54v22.8h-12.05v19.39h-7.49v-42.19ZM259.84,92.8h6.38v-3.6h-6.38v3.6ZM259.84,97.46v3.55h6.38v-3.55h-6.38ZM294.02,83.64v33.55c0,1.44-.02,2.58-.07,3.41-.05.83-.18,1.6-.41,2.3-.22.7-.48,1.22-.77,1.54-.29.32-.78.59-1.46.82-.69.22-1.42.36-2.18.41-.77.05-1.82.07-3.17.07-2.5,0-5.1-.06-7.82-.19l-.38-6.34c4.1.16,6.32.24,6.67.24,1.02,0,1.63-.09,1.82-.26.19-.18.29-.73.29-1.66v-11.09h-12.53v-22.8h20.02ZM286.53,92.8v-3.6h-6.82v3.6h6.82ZM286.53,97.46h-6.82v3.55h6.82v-3.55Z"/>
        <path class="cls-3" d="M316.63,99.04v-9.12h9.12v9.12h-9.12ZM316.63,119.01v-9.12h9.12v9.12h-9.12Z"/>
        <path class="cls-13" d="M348.21,92.8h7.82v-7.92h7.34v7.92h11.18v-7.92h7.58v7.92h8.02v6.77h-8.02v1.15c0,7.49-1.75,13.02-5.26,16.58-3.5,3.57-9.27,5.74-17.3,6.5l-1.44-6.53c6.37-.7,10.7-2.23,12.98-4.58,2.29-2.35,3.43-6.34,3.43-11.98v-1.15h-11.18v8.98h-7.34v-8.98h-7.82v-6.77Z"/>
        <path class="cls-14" d="M402.26,100.53l6.77,2.26c-2.3,6.08-4.64,11.62-7.01,16.61l-6.58-2.93c2.24-4.74,4.51-10.05,6.82-15.94ZM397.17,91.27h16.13v-7.3h7.97v7.3h5.76c-.48-1.06-.72-2.1-.72-3.12,0-1.98.7-3.68,2.11-5.09,1.41-1.41,3.1-2.11,5.09-2.11s3.68.7,5.09,2.11c1.41,1.41,2.11,3.1,2.11,5.09,0,1.5-.41,2.86-1.22,4.06-.81,1.2-1.89,2.07-3.24,2.62v3.02h-14.97v17.57c0,1.47-.03,2.62-.07,3.46-.05.83-.19,1.62-.43,2.35-.24.74-.52,1.26-.84,1.58-.32.32-.85.6-1.58.84-.74.24-1.51.38-2.33.43-.82.05-1.95.07-3.38.07-1.73,0-3.87-.18-6.43-.53l.43-6.67c2.34.29,4,.43,4.99.43.8,0,1.28-.1,1.44-.29.16-.19.24-.75.24-1.68v-17.57h-16.13v-6.58ZM424.43,102.83l6.72-2.54c2.05,4.58,4.32,10.06,6.82,16.46l-6.72,2.54c-2.59-6.53-4.87-12.02-6.82-16.46ZM435.71,85.94c-.61-.61-1.34-.91-2.21-.91s-1.6.3-2.21.91c-.61.61-.91,1.34-.91,2.21s.3,1.6.91,2.21c.61.61,1.34.91,2.21.91s1.6-.3,2.21-.91c.61-.61.91-1.34.91-2.21s-.3-1.6-.91-2.21Z"/>
        <path class="cls-26" d="M444.45,107.06v-5.18h25.47v5.18h-25.47Z"/>
        <path class="cls-16" d="M486.05,84.93h7.97v12.96c7.49,1.98,14.5,4.38,21.02,7.2l-2.69,6.58c-5.73-2.46-11.84-4.61-18.34-6.43v18.77h-7.97v-39.07Z"/>
        <path class="cls-21" d="M530.88,95.25l4.51-5.66c4.03,2.91,7.89,5.89,11.57,8.93,2.66-4.16,4.75-8.8,6.29-13.92l7.29,2.21c-1.66,6.21-4.16,11.84-7.49,16.9,3.84,3.39,7.31,6.64,10.42,9.74l-5.09,5.47c-3.1-3.17-6.37-6.29-9.79-9.36-4.83,5.5-10.98,10.22-18.43,14.16l-4.22-6.05c6.65-3.62,12.22-8.05,16.7-13.3-3.78-3.17-7.7-6.21-11.76-9.12Z"/>
        <path class="cls-2" d="M575.23,92.08l3.94-6.14c4.38,2.43,8.99,5.33,13.82,8.69l-4.13,6.1c-4.51-3.1-9.06-5.98-13.63-8.64ZM576.24,115.51c8.77-.9,15.46-3.25,20.09-7.06,4.62-3.81,7.95-9.68,9.96-17.62l7.15,2.06c-2.08,9.34-6.02,16.42-11.83,21.22-5.81,4.8-13.93,7.65-24.36,8.54l-1.01-7.15Z"/>
        <path class="cls-10" d="M629.09,87.48l7.58.38c-.54,12.9-3.79,24.45-9.74,34.66l-7.15-3.5c5.57-9.34,8.67-19.86,9.31-31.54ZM652.61,91.84l-4.94,2.35c-1.25-2.53-2.61-5.07-4.08-7.63l4.94-2.5c1.47,2.72,2.83,5.31,4.08,7.78ZM646.8,98.37l7.34-2.26c2.43,6.94,4.77,15.22,7.01,24.82l-7.97,1.63c-2.11-9.57-4.24-17.63-6.38-24.19ZM660.38,90.31l-5.04,2.4c-1.44-2.78-2.83-5.38-4.18-7.78l5.04-2.54c1.15,2.08,2.54,4.72,4.18,7.92Z"/>
        <path class="cls-12" d="M668.45,107.06v-5.18h25.47v5.18h-25.47Z"/>
      </g>
    </g>
  </g>
</svg>