<?xml version="1.0" encoding="UTF-8"?>
<svg id="_レイヤー_2" data-name="レイヤー 2" xmlns="http://www.w3.org/2000/svg" xmlns:xlink="http://www.w3.org/1999/xlink" viewBox="0 0 707.99 69.67">
  <defs>
    <style>
      .cls-1 {
        fill: url(#_名称未設定グラデーション_1240-9);
      }

      .cls-2 {
        fill: none;
        stroke: #231815;
        stroke-miterlimit: 2;
        stroke-width: 8px;
      }

      .cls-3 {
        fill: url(#_名称未設定グラデーション_1240-8);
      }

      .cls-4 {
        fill: url(#_名称未設定グラデーション_1240-2);
      }

      .cls-5 {
        fill: url(#_名称未設定グラデーション_1240-11);
      }

      .cls-6 {
        fill: #fff;
      }

      .cls-7 {
        fill: url(#_名称未設定グラデーション_1240-6);
      }

      .cls-8 {
        fill: url(#_名称未設定グラデーション_1240);
      }

      .cls-9 {
        fill: url(#_名称未設定グラデーション_1240-4);
      }

      .cls-10 {
        fill: url(#_名称未設定グラデーション_1240-5);
      }

      .cls-11 {
        fill: url(#_名称未設定グラデーション_1240-7);
      }

      .cls-12 {
        fill: url(#_名称未設定グラデーション_1240-12);
      }

      .cls-13 {
        fill: url(#_名称未設定グラデーション_1240-10);
      }

      .cls-14 {
        fill: url(#_名称未設定グラデーション_1240-3);
      }
    </style>
    <linearGradient id="_名称未設定グラデーション_1240" data-name="名称未設定グラデーション 1240" x1="33.04" y1="64.32" x2="33.04" y2="4.78" gradientUnits="userSpaceOnUse">
      <stop offset=".26" stop-color="#ff0"/>
      <stop offset=".56" stop-color="#fff"/>
      <stop offset=".86" stop-color="#ff0"/>
    </linearGradient>
    <linearGradient id="_名称未設定グラデーション_1240-2" data-name="名称未設定グラデーション 1240" x1="100.64" x2="100.64" y2="4.78" xlink:href="#_名称未設定グラデーション_1240"/>
    <linearGradient id="_名称未設定グラデーション_1240-3" data-name="名称未設定グラデーション 1240" x1="170.86" x2="170.86" y2="4.78" xlink:href="#_名称未設定グラデーション_1240"/>
    <linearGradient id="_名称未設定グラデーション_1240-4" data-name="名称未設定グラデーション 1240" x1="238.42" x2="238.42" y2="4.78" xlink:href="#_名称未設定グラデーション_1240"/>
    <linearGradient id="_名称未設定グラデーション_1240-5" data-name="名称未設定グラデーション 1240" x1="307.72" x2="307.72" y2="4.78" xlink:href="#_名称未設定グラデーション_1240"/>
    <linearGradient id="_名称未設定グラデーション_1240-6" data-name="名称未設定グラデーション 1240" x1="366.63" x2="366.63" xlink:href="#_名称未設定グラデーション_1240"/>
    <linearGradient id="_名称未設定グラデーション_1240-7" data-name="名称未設定グラデーション 1240" x1="407.26" x2="407.26" xlink:href="#_名称未設定グラデーション_1240"/>
    <linearGradient id="_名称未設定グラデーション_1240-8" data-name="名称未設定グラデーション 1240" x1="457.66" x2="457.66" y2="4.78" xlink:href="#_名称未設定グラデーション_1240"/>
    <linearGradient id="_名称未設定グラデーション_1240-9" data-name="名称未設定グラデーション 1240" x1="516.88" x2="516.88" y2="4.78" xlink:href="#_名称未設定グラデーション_1240"/>
    <linearGradient id="_名称未設定グラデーション_1240-10" data-name="名称未設定グラデーション 1240" x1="579.76" x2="579.76" y2="4.78" xlink:href="#_名称未設定グラデーション_1240"/>
    <linearGradient id="_名称未設定グラデーション_1240-11" data-name="名称未設定グラデーション 1240" x1="642.57" x2="642.57" xlink:href="#_名称未設定グラデーション_1240"/>
    <linearGradient id="_名称未設定グラデーション_1240-12" data-name="名称未設定グラデーション 1240" x1="689.82" x2="689.82" xlink:href="#_名称未設定グラデーション_1240"/>
  </defs>
  <g id="_予想2" data-name="予想2">
    <g>
      <g>
        <path class="cls-6" d="M57.74,20.53c-1.97,5.29-4.14,10.23-6.49,14.81l-9.89-4.35c2.48-4.91,4.51-9.64,6.11-14.17h-8.57v19.4h23.18v9.58h-23.18v17.33h-11.72v-17.33H4v-9.58h23.18v-19.4h-8.82c2.52,4.87,4.64,9.6,6.36,14.17l-9.89,4.35c-1.97-5-4.14-9.83-6.49-14.49l9.2-4.03H6.52V7.56h53.05v9.26h-11.21l9.39,3.72Z"/>
        <path class="cls-6" d="M120.55,63.12c-3.91,0-8.76-.11-14.55-.32l-.57-9.58c3.78.21,7.06.32,9.83.32.71,0,1.23-.19,1.54-.57.32-.38.63-1.64.95-3.78.31-2.14.56-5.27.72-9.39.17-4.12.34-10.14.5-18.08h-16.63c-.88,1.85-1.72,3.51-2.52,4.98h16.06v8.95h-17.89v-5.92c-1.18,1.85-2.31,3.4-3.4,4.66l-6.8-6.8h-1.2v18.46c2.65-.84,4.18-1.32,4.6-1.45l.63,9.58c-6.43,2.35-13.02,4.2-19.78,5.54l-.88-9.89c1.34-.25,2.88-.57,4.6-.95v-21.29h-4.28v-9.26h4.28V7.24h10.84v11.09h3.65v3.65c3.23-5.12,5.61-10.75,7.12-16.88l10.52,1.2c-.5,1.97-1.07,3.93-1.7,5.86h23.94c-.21,22.64-.78,36.81-1.7,42.53-.71,4.28-1.93,6.89-3.65,7.81-.88.42-2.29.63-4.22.63ZM114.06,38.74l2.46,8.95c-7.06,3.23-14.15,5.69-21.29,7.37l-2.46-9.26c7.35-1.85,14.45-4.2,21.29-7.06Z"/>
        <path class="cls-6" d="M191.05,63.12c-3.86,0-8.69-.11-14.49-.32l-.63-9.58c3.78.21,7.08.32,9.89.32.38,0,.66-.25.85-.76s.39-1.81.6-3.91c.21-2.1.39-5.28.54-9.54.15-4.26.3-10.13.47-17.61h-10.46c-.97,2.1-2.12,4.28-3.46,6.55l5.61-2.2c2.65,5.33,4.91,11.09,6.8,17.26l-9.26,3.09c-1.39-4.49-3.28-9.26-5.67-14.3-.34.5-.92,1.26-1.76,2.27l-2.14-2.14v25.64h-15.12v4.28h-10.52V13.41h6.99c.88-3.23,1.53-6.01,1.95-8.32l10.84,1.2c-.46,2.27-1.01,4.64-1.64,7.12h7.5v4.72c2.06-4.03,3.7-8.38,4.91-13.04l10.52,1.2c-.5,1.97-1.07,3.93-1.7,5.86h17.77c-.13,12.81-.29,22.45-.5,28.92-.21,6.47-.68,11.46-1.42,14.96-.74,3.51-1.51,5.56-2.33,6.17-.82.61-2.2.91-4.13.91ZM152.81,31.31h4.91v-8.63h-4.91v8.63ZM152.81,40.25v8.63h4.91v-8.63h-4.91Z"/>
        <path class="cls-6" d="M222.04,46.74v3.09h-10.77V15.24h21.29V5.67h11.72v9.58h21.29v34.59h-10.77v-3.09h-10.52v17.01h-11.72v-17.01h-10.52ZM222.04,37.48h10.52v-12.66h-10.52v12.66ZM254.8,37.48v-12.66h-10.52v12.66h10.52Z"/>
        <path class="cls-6" d="M327.88,30.11c2.94.88,5.9,1.89,8.88,3.02l-3.4,8.69c-2.9-1.3-5.71-2.44-8.44-3.4.38,1.18.61,1.89.69,2.14l-7.06,1.26c-.25-.63-.5-1.32-.76-2.08l-4.22.19v2.46h23.18v9.01h-23.18v12.03h-11.72v-12.03h-23.18v-9.01h23.18v-1.95l-9.26.44-.25-2.96c-3.65,1.6-7.27,2.9-10.84,3.91l-2.83-8.63c3.57-1.01,6.68-1.97,9.32-2.9-2.56-2.23-5.35-4.37-8.38-6.43l4.79-5.54h-4.79v-8.63h22.24v-4.03h11.72v4.03h22.24v8.63h-4.98l4.98,5.29c-2.14,2.06-4.79,4.22-7.94,6.49ZM291.85,22.11l3.84-3.46c1.26.92,2.21,1.64,2.83,2.14.92-1.09,1.6-1.91,2.02-2.46h-13.42c.97.71,2.54,1.97,4.73,3.78ZM292.16,29.35l1.2,3.46,5.61-.19c-2.39-1.97-4.28-3.49-5.67-4.54l-1.13,1.26ZM305.96,26.64c2.39-2.52,4.87-5.29,7.43-8.32h-1.95c-2.23,2.69-4.41,5.17-6.55,7.43.67.55,1.03.84,1.07.88ZM314.65,32.06c-.17-.38-.42-.9-.76-1.58l-1.7,1.7,2.46-.13ZM323.28,29.29l-3.84-3.84c3.15-2.39,6.09-4.77,8.82-7.12h-12.79l7.06,2.77c-2.81,3.32-5.33,6.09-7.56,8.32l5.73-1.51c.21.42.49,1.06.85,1.92.36.86.6,1.46.72,1.8l1.01-2.33Z"/>
        <path class="cls-6" d="M352.45,5.1h28.35v9.45h-17.01v39.06h-11.34V5.1Z"/>
        <path class="cls-6" d="M412.62,21.79v-.32h-22.68v-10.08h34.65v10.08c-6.72,10.75-12.5,22.72-17.32,35.91h-13.54c5.33-13.02,11.63-24.88,18.9-35.59Z"/>
        <path class="cls-6" d="M442.7,16.31c3.25-3.7,8.24-5.54,14.96-5.54s11.71,1.85,14.96,5.54c3.25,3.7,4.88,9.72,4.88,18.08s-1.63,14.39-4.88,18.08c-3.26,3.7-8.24,5.54-14.96,5.54s-11.71-1.85-14.96-5.54c-3.25-3.7-4.88-9.72-4.88-18.08s1.63-14.38,4.88-18.08ZM452.37,45.51c1.09,2.04,2.86,3.06,5.29,3.06s4.2-1.02,5.29-3.06c1.09-2.04,1.64-5.74,1.64-11.12s-.55-9.08-1.64-11.12c-1.09-2.04-2.86-3.06-5.29-3.06s-4.2,1.02-5.29,3.06c-1.09,2.04-1.64,5.74-1.64,11.12s.54,9.08,1.64,11.12Z"/>
        <path class="cls-6" d="M491.21,14.17c2.21-2.27,5.3-3.4,9.29-3.4s7.09,1.13,9.29,3.4c2.21,2.27,3.31,5.44,3.31,9.51s-1.1,7.25-3.31,9.51c-2.21,2.27-5.3,3.4-9.29,3.4s-7.09-1.13-9.29-3.4c-2.21-2.27-3.31-5.44-3.31-9.51s1.1-7.25,3.31-9.51ZM498.14,28.03c.52.84,1.31,1.26,2.36,1.26s1.84-.42,2.36-1.26c.52-.84.79-2.29.79-4.35s-.26-3.51-.79-4.35c-.53-.84-1.31-1.26-2.36-1.26s-1.84.42-2.36,1.26c-.53.84-.79,2.29-.79,4.35s.26,3.51.79,4.35ZM524.13,11.4h9.45l-23.94,45.99h-9.45l23.94-45.99ZM523.97,35.59c2.21-2.27,5.3-3.4,9.29-3.4s7.09,1.13,9.29,3.4c2.21,2.27,3.31,5.44,3.31,9.51s-1.1,7.25-3.31,9.51c-2.21,2.27-5.3,3.4-9.29,3.4s-7.09-1.13-9.29-3.4c-2.21-2.27-3.31-5.44-3.31-9.51s1.1-7.25,3.31-9.51ZM530.9,49.45c.52.84,1.31,1.26,2.36,1.26s1.84-.42,2.36-1.26c.53-.84.79-2.29.79-4.35s-.26-3.51-.79-4.35c-.53-.84-1.31-1.26-2.36-1.26s-1.84.42-2.36,1.26c-.53.84-.79,2.29-.79,4.35s.26,3.51.79,4.35Z"/>
        <path class="cls-6" d="M589.46,5.67h9.26v4.66h1.89c-.34-1.3-.76-2.65-1.26-4.03l5.86-1.51c.71,1.98,1.3,3.82,1.76,5.54h1.32v8.95h-9.26c.17,3.24.31,5.67.44,7.31.8-2.48,1.47-4.7,2.02-6.68l7.75,3.09c-1.51,4.45-3.15,8.48-4.91,12.1l4.91,3.02c0,5-.57,8.72-1.7,11.15-1.13,2.44-2.54,3.65-4.22,3.65-2.98,0-5.5-1.72-7.56-5.17-1.76,1.81-3.86,3.53-6.3,5.17l-3.97-5.86c-2.73,1.39-5.31,2.52-7.75,3.4l-.57-4.35h-4.09v6.49c3.99.63,10.98.95,20.98.95h14.55l-.63,9.26h-13.92c-10,0-17.42-.48-22.27-1.45-4.85-.97-8.85-2.88-12-5.73-.46,2.77-.97,5.48-1.51,8.13l-8-4.03c1.76-8.06,2.69-16.4,2.77-25.01l8.32.94c0,3.78-.15,7.31-.44,10.58.38.42.95,1.01,1.7,1.76v-15.12h-11.15v-9.26h8.63v-3.72h-7.37v-8.95h7.37v-5.29h10.84v5.29h6.49v8.95h-6.49v3.72h7.12v9.26h-4.98v4.28h4.35v3.65c.21-.08.51-.21.91-.38.4-.17.7-.29.91-.38V10.33h10.21v-4.66ZM588.83,35.21l1.89-1.13.63,6.68c.13-.13.33-.34.6-.63.27-.29.47-.53.6-.69-1.39-5.46-2.31-12.18-2.77-20.16h-.94v15.94ZM601.49,40.19c.42,1.68.84,2.52,1.26,2.52.54,0,.84-2.08.88-6.24-.67,1.26-1.39,2.5-2.14,3.72Z"/>
        <path class="cls-6" d="M651.01,41.57h.13c.8,0,1.55.37,2.27,1.1.71.74,1.2,1.65,1.45,2.74.46,1.97,1.05,3.2,1.76,3.69.71.48,2.23.72,4.54.72,1.6,0,3.91-.27,6.93-.82l1.26,10.27c-3.19.84-6.76,1.26-10.71,1.26-4.28,0-7.52-.61-9.7-1.83-2.18-1.22-3.57-3.13-4.16-5.73-.34-1.51-.74-2.52-1.2-3.02-.46-.5-1.11-.76-1.95-.76-.88,0-2.36.62-4.44,1.86s-7.11,4.61-15.09,10.11l-6.3-8.5c9.03-6.09,18.9-12.79,29.61-20.1v-.13c-6.85,1.3-14.62,1.95-23.31,1.95v-10.71c12.43,0,25.14-.73,38.12-2.21l1.58,11.97c-3.49,2.39-7.1,5.06-10.84,8l.06.13ZM626.82,17.07l1.58-10.08c9.87,1.51,19.53,2.56,28.98,3.15l-.95,10.08c-9.41-.63-19.28-1.68-29.61-3.15Z"/>
        <path class="cls-6" d="M703.99,64.32h-28.35v-9.45h17.01V15.81h11.34v48.51Z"/>
      </g>
      <g>
        <path class="cls-2" d="M57.74,20.53c-1.97,5.29-4.14,10.23-6.49,14.81l-9.89-4.35c2.48-4.91,4.51-9.64,6.11-14.17h-8.57v19.4h23.18v9.58h-23.18v17.33h-11.72v-17.33H4v-9.58h23.18v-19.4h-8.82c2.52,4.87,4.64,9.6,6.36,14.17l-9.89,4.35c-1.97-5-4.14-9.83-6.49-14.49l9.2-4.03H6.52V7.56h53.05v9.26h-11.21l9.39,3.72Z"/>
        <path class="cls-2" d="M120.55,63.12c-3.91,0-8.76-.11-14.55-.32l-.57-9.58c3.78.21,7.06.32,9.83.32.71,0,1.23-.19,1.54-.57.32-.38.63-1.64.95-3.78.31-2.14.56-5.27.72-9.39.17-4.12.34-10.14.5-18.08h-16.63c-.88,1.85-1.72,3.51-2.52,4.98h16.06v8.95h-17.89v-5.92c-1.18,1.85-2.31,3.4-3.4,4.66l-6.8-6.8h-1.2v18.46c2.65-.84,4.18-1.32,4.6-1.45l.63,9.58c-6.43,2.35-13.02,4.2-19.78,5.54l-.88-9.89c1.34-.25,2.88-.57,4.6-.95v-21.29h-4.28v-9.26h4.28V7.24h10.84v11.09h3.65v3.65c3.23-5.12,5.61-10.75,7.12-16.88l10.52,1.2c-.5,1.97-1.07,3.93-1.7,5.86h23.94c-.21,22.64-.78,36.81-1.7,42.53-.71,4.28-1.93,6.89-3.65,7.81-.88.42-2.29.63-4.22.63ZM114.06,38.74l2.46,8.95c-7.06,3.23-14.15,5.69-21.29,7.37l-2.46-9.26c7.35-1.85,14.45-4.2,21.29-7.06Z"/>
        <path class="cls-2" d="M191.05,63.12c-3.86,0-8.69-.11-14.49-.32l-.63-9.58c3.78.21,7.08.32,9.89.32.38,0,.66-.25.85-.76s.39-1.81.6-3.91c.21-2.1.39-5.28.54-9.54.15-4.26.3-10.13.47-17.61h-10.46c-.97,2.1-2.12,4.28-3.46,6.55l5.61-2.2c2.65,5.33,4.91,11.09,6.8,17.26l-9.26,3.09c-1.39-4.49-3.28-9.26-5.67-14.3-.34.5-.92,1.26-1.76,2.27l-2.14-2.14v25.64h-15.12v4.28h-10.52V13.41h6.99c.88-3.23,1.53-6.01,1.95-8.32l10.84,1.2c-.46,2.27-1.01,4.64-1.64,7.12h7.5v4.72c2.06-4.03,3.7-8.38,4.91-13.04l10.52,1.2c-.5,1.97-1.07,3.93-1.7,5.86h17.77c-.13,12.81-.29,22.45-.5,28.92-.21,6.47-.68,11.46-1.42,14.96-.74,3.51-1.51,5.56-2.33,6.17-.82.61-2.2.91-4.13.91ZM152.81,31.31h4.91v-8.63h-4.91v8.63ZM152.81,40.25v8.63h4.91v-8.63h-4.91Z"/>
        <path class="cls-2" d="M222.04,46.74v3.09h-10.77V15.24h21.29V5.67h11.72v9.58h21.29v34.59h-10.77v-3.09h-10.52v17.01h-11.72v-17.01h-10.52ZM222.04,37.48h10.52v-12.66h-10.52v12.66ZM254.8,37.48v-12.66h-10.52v12.66h10.52Z"/>
        <path class="cls-2" d="M327.88,30.11c2.94.88,5.9,1.89,8.88,3.02l-3.4,8.69c-2.9-1.3-5.71-2.44-8.44-3.4.38,1.18.61,1.89.69,2.14l-7.06,1.26c-.25-.63-.5-1.32-.76-2.08l-4.22.19v2.46h23.18v9.01h-23.18v12.03h-11.72v-12.03h-23.18v-9.01h23.18v-1.95l-9.26.44-.25-2.96c-3.65,1.6-7.27,2.9-10.84,3.91l-2.83-8.63c3.57-1.01,6.68-1.97,9.32-2.9-2.56-2.23-5.35-4.37-8.38-6.43l4.79-5.54h-4.79v-8.63h22.24v-4.03h11.72v4.03h22.24v8.63h-4.98l4.98,5.29c-2.14,2.06-4.79,4.22-7.94,6.49ZM291.85,22.11l3.84-3.46c1.26.92,2.21,1.64,2.83,2.14.92-1.09,1.6-1.91,2.02-2.46h-13.42c.97.71,2.54,1.97,4.73,3.78ZM292.16,29.35l1.2,3.46,5.61-.19c-2.39-1.97-4.28-3.49-5.67-4.54l-1.13,1.26ZM305.96,26.64c2.39-2.52,4.87-5.29,7.43-8.32h-1.95c-2.23,2.69-4.41,5.17-6.55,7.43.67.55,1.03.84,1.07.88ZM314.65,32.06c-.17-.38-.42-.9-.76-1.58l-1.7,1.7,2.46-.13ZM323.28,29.29l-3.84-3.84c3.15-2.39,6.09-4.77,8.82-7.12h-12.79l7.06,2.77c-2.81,3.32-5.33,6.09-7.56,8.32l5.73-1.51c.21.42.49,1.06.85,1.92.36.86.6,1.46.72,1.8l1.01-2.33Z"/>
        <path class="cls-2" d="M352.45,5.1h28.35v9.45h-17.01v39.06h-11.34V5.1Z"/>
        <path class="cls-2" d="M412.62,21.79v-.32h-22.68v-10.08h34.65v10.08c-6.72,10.75-12.5,22.72-17.32,35.91h-13.54c5.33-13.02,11.63-24.88,18.9-35.59Z"/>
        <path class="cls-2" d="M442.7,16.31c3.25-3.7,8.24-5.54,14.96-5.54s11.71,1.85,14.96,5.54c3.25,3.7,4.88,9.72,4.88,18.08s-1.63,14.39-4.88,18.08c-3.26,3.7-8.24,5.54-14.96,5.54s-11.71-1.85-14.96-5.54c-3.25-3.7-4.88-9.72-4.88-18.08s1.63-14.38,4.88-18.08ZM452.37,45.51c1.09,2.04,2.86,3.06,5.29,3.06s4.2-1.02,5.29-3.06c1.09-2.04,1.64-5.74,1.64-11.12s-.55-9.08-1.64-11.12c-1.09-2.04-2.86-3.06-5.29-3.06s-4.2,1.02-5.29,3.06c-1.09,2.04-1.64,5.74-1.64,11.12s.54,9.08,1.64,11.12Z"/>
        <path class="cls-2" d="M491.21,14.17c2.21-2.27,5.3-3.4,9.29-3.4s7.09,1.13,9.29,3.4c2.21,2.27,3.31,5.44,3.31,9.51s-1.1,7.25-3.31,9.51c-2.21,2.27-5.3,3.4-9.29,3.4s-7.09-1.13-9.29-3.4c-2.21-2.27-3.31-5.44-3.31-9.51s1.1-7.25,3.31-9.51ZM498.14,28.03c.52.84,1.31,1.26,2.36,1.26s1.84-.42,2.36-1.26c.52-.84.79-2.29.79-4.35s-.26-3.51-.79-4.35c-.53-.84-1.31-1.26-2.36-1.26s-1.84.42-2.36,1.26c-.53.84-.79,2.29-.79,4.35s.26,3.51.79,4.35ZM524.13,11.4h9.45l-23.94,45.99h-9.45l23.94-45.99ZM523.97,35.59c2.21-2.27,5.3-3.4,9.29-3.4s7.09,1.13,9.29,3.4c2.21,2.27,3.31,5.44,3.31,9.51s-1.1,7.25-3.31,9.51c-2.21,2.27-5.3,3.4-9.29,3.4s-7.09-1.13-9.29-3.4c-2.21-2.27-3.31-5.44-3.31-9.51s1.1-7.25,3.31-9.51ZM530.9,49.45c.52.84,1.31,1.26,2.36,1.26s1.84-.42,2.36-1.26c.53-.84.79-2.29.79-4.35s-.26-3.51-.79-4.35c-.53-.84-1.31-1.26-2.36-1.26s-1.84.42-2.36,1.26c-.53.84-.79,2.29-.79,4.35s.26,3.51.79,4.35Z"/>
        <path class="cls-2" d="M589.46,5.67h9.26v4.66h1.89c-.34-1.3-.76-2.65-1.26-4.03l5.86-1.51c.71,1.98,1.3,3.82,1.76,5.54h1.32v8.95h-9.26c.17,3.24.31,5.67.44,7.31.8-2.48,1.47-4.7,2.02-6.68l7.75,3.09c-1.51,4.45-3.15,8.48-4.91,12.1l4.91,3.02c0,5-.57,8.72-1.7,11.15-1.13,2.44-2.54,3.65-4.22,3.65-2.98,0-5.5-1.72-7.56-5.17-1.76,1.81-3.86,3.53-6.3,5.17l-3.97-5.86c-2.73,1.39-5.31,2.52-7.75,3.4l-.57-4.35h-4.09v6.49c3.99.63,10.98.95,20.98.95h14.55l-.63,9.26h-13.92c-10,0-17.42-.48-22.27-1.45-4.85-.97-8.85-2.88-12-5.73-.46,2.77-.97,5.48-1.51,8.13l-8-4.03c1.76-8.06,2.69-16.4,2.77-25.01l8.32.94c0,3.78-.15,7.31-.44,10.58.38.42.95,1.01,1.7,1.76v-15.12h-11.15v-9.26h8.63v-3.72h-7.37v-8.95h7.37v-5.29h10.84v5.29h6.49v8.95h-6.49v3.72h7.12v9.26h-4.98v4.28h4.35v3.65c.21-.08.51-.21.91-.38.4-.17.7-.29.91-.38V10.33h10.21v-4.66ZM588.83,35.21l1.89-1.13.63,6.68c.13-.13.33-.34.6-.63.27-.29.47-.53.6-.69-1.39-5.46-2.31-12.18-2.77-20.16h-.94v15.94ZM601.49,40.19c.42,1.68.84,2.52,1.26,2.52.54,0,.84-2.08.88-6.24-.67,1.26-1.39,2.5-2.14,3.72Z"/>
        <path class="cls-2" d="M651.01,41.57h.13c.8,0,1.55.37,2.27,1.1.71.74,1.2,1.65,1.45,2.74.46,1.97,1.05,3.2,1.76,3.69.71.48,2.23.72,4.54.72,1.6,0,3.91-.27,6.93-.82l1.26,10.27c-3.19.84-6.76,1.26-10.71,1.26-4.28,0-7.52-.61-9.7-1.83-2.18-1.22-3.57-3.13-4.16-5.73-.34-1.51-.74-2.52-1.2-3.02-.46-.5-1.11-.76-1.95-.76-.88,0-2.36.62-4.44,1.86s-7.11,4.61-15.09,10.11l-6.3-8.5c9.03-6.09,18.9-12.79,29.61-20.1v-.13c-6.85,1.3-14.62,1.95-23.31,1.95v-10.71c12.43,0,25.14-.73,38.12-2.21l1.58,11.97c-3.49,2.39-7.1,5.06-10.84,8l.06.13ZM626.82,17.07l1.58-10.08c9.87,1.51,19.53,2.56,28.98,3.15l-.95,10.08c-9.41-.63-19.28-1.68-29.61-3.15Z"/>
        <path class="cls-2" d="M703.99,64.32h-28.35v-9.45h17.01V15.81h11.34v48.51Z"/>
      </g>
      <g>
        <path class="cls-8" d="M57.74,20.53c-1.97,5.29-4.14,10.23-6.49,14.81l-9.89-4.35c2.48-4.91,4.51-9.64,6.11-14.17h-8.57v19.4h23.18v9.58h-23.18v17.33h-11.72v-17.33H4v-9.58h23.18v-19.4h-8.82c2.52,4.87,4.64,9.6,6.36,14.17l-9.89,4.35c-1.97-5-4.14-9.83-6.49-14.49l9.2-4.03H6.52V7.56h53.05v9.26h-11.21l9.39,3.72Z"/>
        <path class="cls-4" d="M120.55,63.12c-3.91,0-8.76-.11-14.55-.32l-.57-9.58c3.78.21,7.06.32,9.83.32.71,0,1.23-.19,1.54-.57.32-.38.63-1.64.95-3.78.31-2.14.56-5.27.72-9.39.17-4.12.34-10.14.5-18.08h-16.63c-.88,1.85-1.72,3.51-2.52,4.98h16.06v8.95h-17.89v-5.92c-1.18,1.85-2.31,3.4-3.4,4.66l-6.8-6.8h-1.2v18.46c2.65-.84,4.18-1.32,4.6-1.45l.63,9.58c-6.43,2.35-13.02,4.2-19.78,5.54l-.88-9.89c1.34-.25,2.88-.57,4.6-.95v-21.29h-4.28v-9.26h4.28V7.24h10.84v11.09h3.65v3.65c3.23-5.12,5.61-10.75,7.12-16.88l10.52,1.2c-.5,1.97-1.07,3.93-1.7,5.86h23.94c-.21,22.64-.78,36.81-1.7,42.53-.71,4.28-1.93,6.89-3.65,7.81-.88.42-2.29.63-4.22.63ZM114.06,38.74l2.46,8.95c-7.06,3.23-14.15,5.69-21.29,7.37l-2.46-9.26c7.35-1.85,14.45-4.2,21.29-7.06Z"/>
        <path class="cls-14" d="M191.05,63.12c-3.86,0-8.69-.11-14.49-.32l-.63-9.58c3.78.21,7.08.32,9.89.32.38,0,.66-.25.85-.76s.39-1.81.6-3.91c.21-2.1.39-5.28.54-9.54.15-4.26.3-10.13.47-17.61h-10.46c-.97,2.1-2.12,4.28-3.46,6.55l5.61-2.2c2.65,5.33,4.91,11.09,6.8,17.26l-9.26,3.09c-1.39-4.49-3.28-9.26-5.67-14.3-.34.5-.92,1.26-1.76,2.27l-2.14-2.14v25.64h-15.12v4.28h-10.52V13.41h6.99c.88-3.23,1.53-6.01,1.95-8.32l10.84,1.2c-.46,2.27-1.01,4.64-1.64,7.12h7.5v4.72c2.06-4.03,3.7-8.38,4.91-13.04l10.52,1.2c-.5,1.97-1.07,3.93-1.7,5.86h17.77c-.13,12.81-.29,22.45-.5,28.92-.21,6.47-.68,11.46-1.42,14.96-.74,3.51-1.51,5.56-2.33,6.17-.82.61-2.2.91-4.13.91ZM152.81,31.31h4.91v-8.63h-4.91v8.63ZM152.81,40.25v8.63h4.91v-8.63h-4.91Z"/>
        <path class="cls-9" d="M222.04,46.74v3.09h-10.77V15.24h21.29V5.67h11.72v9.58h21.29v34.59h-10.77v-3.09h-10.52v17.01h-11.72v-17.01h-10.52ZM222.04,37.48h10.52v-12.66h-10.52v12.66ZM254.8,37.48v-12.66h-10.52v12.66h10.52Z"/>
        <path class="cls-10" d="M327.88,30.11c2.94.88,5.9,1.89,8.88,3.02l-3.4,8.69c-2.9-1.3-5.71-2.44-8.44-3.4.38,1.18.61,1.89.69,2.14l-7.06,1.26c-.25-.63-.5-1.32-.76-2.08l-4.22.19v2.46h23.18v9.01h-23.18v12.03h-11.72v-12.03h-23.18v-9.01h23.18v-1.95l-9.26.44-.25-2.96c-3.65,1.6-7.27,2.9-10.84,3.91l-2.83-8.63c3.57-1.01,6.68-1.97,9.32-2.9-2.56-2.23-5.35-4.37-8.38-6.43l4.79-5.54h-4.79v-8.63h22.24v-4.03h11.72v4.03h22.24v8.63h-4.98l4.98,5.29c-2.14,2.06-4.79,4.22-7.94,6.49ZM291.85,22.11l3.84-3.46c1.26.92,2.21,1.64,2.83,2.14.92-1.09,1.6-1.91,2.02-2.46h-13.42c.97.71,2.54,1.97,4.73,3.78ZM292.16,29.35l1.2,3.46,5.61-.19c-2.39-1.97-4.28-3.49-5.67-4.54l-1.13,1.26ZM305.96,26.64c2.39-2.52,4.87-5.29,7.43-8.32h-1.95c-2.23,2.69-4.41,5.17-6.55,7.43.67.55,1.03.84,1.07.88ZM314.65,32.06c-.17-.38-.42-.9-.76-1.58l-1.7,1.7,2.46-.13ZM323.28,29.29l-3.84-3.84c3.15-2.39,6.09-4.77,8.82-7.12h-12.79l7.06,2.77c-2.81,3.32-5.33,6.09-7.56,8.32l5.73-1.51c.21.42.49,1.06.85,1.92.36.86.6,1.46.72,1.8l1.01-2.33Z"/>
        <path class="cls-7" d="M352.45,5.1h28.35v9.45h-17.01v39.06h-11.34V5.1Z"/>
        <path class="cls-11" d="M412.62,21.79v-.32h-22.68v-10.08h34.65v10.08c-6.72,10.75-12.5,22.72-17.32,35.91h-13.54c5.33-13.02,11.63-24.88,18.9-35.59Z"/>
        <path class="cls-3" d="M442.7,16.31c3.25-3.7,8.24-5.54,14.96-5.54s11.71,1.85,14.96,5.54c3.25,3.7,4.88,9.72,4.88,18.08s-1.63,14.39-4.88,18.08c-3.26,3.7-8.24,5.54-14.96,5.54s-11.71-1.85-14.96-5.54c-3.25-3.7-4.88-9.72-4.88-18.08s1.63-14.38,4.88-18.08ZM452.37,45.51c1.09,2.04,2.86,3.06,5.29,3.06s4.2-1.02,5.29-3.06c1.09-2.04,1.64-5.74,1.64-11.12s-.55-9.08-1.64-11.12c-1.09-2.04-2.86-3.06-5.29-3.06s-4.2,1.02-5.29,3.06c-1.09,2.04-1.64,5.74-1.64,11.12s.54,9.08,1.64,11.12Z"/>
        <path class="cls-1" d="M491.21,14.17c2.21-2.27,5.3-3.4,9.29-3.4s7.09,1.13,9.29,3.4c2.21,2.27,3.31,5.44,3.31,9.51s-1.1,7.25-3.31,9.51c-2.21,2.27-5.3,3.4-9.29,3.4s-7.09-1.13-9.29-3.4c-2.21-2.27-3.31-5.44-3.31-9.51s1.1-7.25,3.31-9.51ZM498.14,28.03c.52.84,1.31,1.26,2.36,1.26s1.84-.42,2.36-1.26c.52-.84.79-2.29.79-4.35s-.26-3.51-.79-4.35c-.53-.84-1.31-1.26-2.36-1.26s-1.84.42-2.36,1.26c-.53.84-.79,2.29-.79,4.35s.26,3.51.79,4.35ZM524.13,11.4h9.45l-23.94,45.99h-9.45l23.94-45.99ZM523.97,35.59c2.21-2.27,5.3-3.4,9.29-3.4s7.09,1.13,9.29,3.4c2.21,2.27,3.31,5.44,3.31,9.51s-1.1,7.25-3.31,9.51c-2.21,2.27-5.3,3.4-9.29,3.4s-7.09-1.13-9.29-3.4c-2.21-2.27-3.31-5.44-3.31-9.51s1.1-7.25,3.31-9.51ZM530.9,49.45c.52.84,1.31,1.26,2.36,1.26s1.84-.42,2.36-1.26c.53-.84.79-2.29.79-4.35s-.26-3.51-.79-4.35c-.53-.84-1.31-1.26-2.36-1.26s-1.84.42-2.36,1.26c-.53.84-.79,2.29-.79,4.35s.26,3.51.79,4.35Z"/>
        <path class="cls-13" d="M589.46,5.67h9.26v4.66h1.89c-.34-1.3-.76-2.65-1.26-4.03l5.86-1.51c.71,1.98,1.3,3.82,1.76,5.54h1.32v8.95h-9.26c.17,3.24.31,5.67.44,7.31.8-2.48,1.47-4.7,2.02-6.68l7.75,3.09c-1.51,4.45-3.15,8.48-4.91,12.1l4.91,3.02c0,5-.57,8.72-1.7,11.15-1.13,2.44-2.54,3.65-4.22,3.65-2.98,0-5.5-1.72-7.56-5.17-1.76,1.81-3.86,3.53-6.3,5.17l-3.97-5.86c-2.73,1.39-5.31,2.52-7.75,3.4l-.57-4.35h-4.09v6.49c3.99.63,10.98.95,20.98.95h14.55l-.63,9.26h-13.92c-10,0-17.42-.48-22.27-1.45-4.85-.97-8.85-2.88-12-5.73-.46,2.77-.97,5.48-1.51,8.13l-8-4.03c1.76-8.06,2.69-16.4,2.77-25.01l8.32.94c0,3.78-.15,7.31-.44,10.58.38.42.95,1.01,1.7,1.76v-15.12h-11.15v-9.26h8.63v-3.72h-7.37v-8.95h7.37v-5.29h10.84v5.29h6.49v8.95h-6.49v3.72h7.12v9.26h-4.98v4.28h4.35v3.65c.21-.08.51-.21.91-.38.4-.17.7-.29.91-.38V10.33h10.21v-4.66ZM588.83,35.21l1.89-1.13.63,6.68c.13-.13.33-.34.6-.63.27-.29.47-.53.6-.69-1.39-5.46-2.31-12.18-2.77-20.16h-.94v15.94ZM601.49,40.19c.42,1.68.84,2.52,1.26,2.52.54,0,.84-2.08.88-6.24-.67,1.26-1.39,2.5-2.14,3.72Z"/>
        <path class="cls-5" d="M651.01,41.57h.13c.8,0,1.55.37,2.27,1.1.71.74,1.2,1.65,1.45,2.74.46,1.97,1.05,3.2,1.76,3.69.71.48,2.23.72,4.54.72,1.6,0,3.91-.27,6.93-.82l1.26,10.27c-3.19.84-6.76,1.26-10.71,1.26-4.28,0-7.52-.61-9.7-1.83-2.18-1.22-3.57-3.13-4.16-5.73-.34-1.51-.74-2.52-1.2-3.02-.46-.5-1.11-.76-1.95-.76-.88,0-2.36.62-4.44,1.86s-7.11,4.61-15.09,10.11l-6.3-8.5c9.03-6.09,18.9-12.79,29.61-20.1v-.13c-6.85,1.3-14.62,1.95-23.31,1.95v-10.71c12.43,0,25.14-.73,38.12-2.21l1.58,11.97c-3.49,2.39-7.1,5.06-10.84,8l.06.13ZM626.82,17.07l1.58-10.08c9.87,1.51,19.53,2.56,28.98,3.15l-.95,10.08c-9.41-.63-19.28-1.68-29.61-3.15Z"/>
        <path class="cls-12" d="M703.99,64.32h-28.35v-9.45h17.01V15.81h11.34v48.51Z"/>
      </g>
    </g>
  </g>
</svg>