<?xml version="1.0" encoding="UTF-8"?>
<svg id="_レイヤー_2" data-name="レイヤー 2" xmlns="http://www.w3.org/2000/svg" viewBox="0 0 586.68 70.53">
  <defs>
    <style>
      .cls-1 {
        fill: #fff;
      }

      .cls-2 {
        stroke: #000;
        stroke-miterlimit: 2;
        stroke-width: 6px;
      }

      .cls-2, .cls-3 {
        fill: none;
      }

      .cls-3 {
        stroke: #231815;
        stroke-linejoin: round;
        stroke-width: 23px;
      }
    </style>
  </defs>
  <g id="_サポート" data-name="サポート">
    <g>
      <g>
        <path class="cls-3" d="M19.2,44.31v2.7h-7.7v-27.46h17.89v-8.06h8.32v8.06h17.89v27.46h-7.7v-2.7h-10.19v14.72h-8.32v-14.72h-10.19ZM19.2,37.71h10.19v-11.34h-10.19v11.34ZM47.9,37.71v-11.34h-10.19v11.34h10.19Z"/>
        <path class="cls-3" d="M76.55,15.09c-1.73,6.31-2.6,13.04-2.6,20.18s.87,13.87,2.6,20.18l-8.42.88c-1.73-6.62-2.6-13.64-2.6-21.06s.87-14.44,2.6-21.06l8.42.88ZM106.24,52.58c-4.06,1.04-8.16,1.56-12.32,1.56-4.78,0-8.45-.9-11-2.7s-3.82-4.4-3.82-7.8c0-1.7.62-3.58,1.85-5.64,1.23-2.06,2.87-3.89,4.91-5.49l5.72,4.42c-1.66,1.56-2.81,2.83-3.43,3.8-.62.97-.94,1.87-.94,2.7,0,1.98,2.24,2.96,6.71,2.96,3.22,0,6.95-.45,11.18-1.35l1.14,7.54ZM82.12,19.66c7.35,0,14.89-.52,22.62-1.56l.47,7.54c-8.53,1.04-16.22,1.56-23.09,1.56v-7.54Z"/>
        <path class="cls-3" d="M118.72,14.2l7.96.88c-1.73,6.31-2.6,13.04-2.6,20.18s.87,13.87,2.6,20.18l-7.96.88c-1.73-6.62-2.6-13.64-2.6-21.06s.87-14.44,2.6-21.06ZM143.06,22.37c.03-2.43.17-5.36.42-8.79h7.96c-.17,2.5-.29,5.22-.36,8.16,3.88-.42,6.76-.76,8.63-1.04l.42,7.33c-1.98.28-5.01.62-9.1,1.04.03,1.7.09,3.47.16,5.3.07,1.46.14,3.61.21,6.45,2.01,1.56,5.03,4.37,9.05,8.42l-5.41,4.99c-2.39-2.39-3.8-3.78-4.21-4.16-.69,2.01-1.93,3.55-3.72,4.63-1.79,1.07-4,1.61-6.63,1.61-3.64,0-6.53-.89-8.66-2.68-2.13-1.79-3.2-4.19-3.2-7.2s1.06-5.31,3.17-7.1c2.11-1.79,5.01-2.68,8.68-2.68,1.07,0,2.03.07,2.86.21-.03-.31-.07-.79-.1-1.43-.03-.64-.05-1.12-.05-1.43,0-.49,0-1.21-.03-2.16-.02-.95-.04-1.67-.08-2.16-4.54.28-8.79.42-12.74.42v-7.33c3.88,0,8.13-.14,12.74-.42ZM143.48,44.42c-1.08-.45-2.22-.68-3.43-.68s-2.19.25-2.83.75c-.64.5-.96,1.15-.96,1.95,0,1.84,1.26,2.76,3.8,2.76,1.21,0,2.09-.29,2.63-.86.54-.57.81-1.52.81-2.83v-1.09Z"/>
        <path class="cls-3" d="M174.47,58.4h-7.75V12.7h21.42v20.8h-13.68v24.91ZM174.47,20.86h7.54v-2.24h-7.54v2.24ZM174.47,25.96v2.24h7.54v-2.24h-7.54ZM190.43,33.5V12.7h21.94v36.35c0,1.56-.03,2.79-.08,3.69s-.2,1.73-.44,2.5c-.24.76-.52,1.32-.83,1.66s-.84.64-1.59.88c-.75.24-1.53.39-2.37.44-.83.05-1.98.08-3.43.08-2.22,0-4.54-.07-6.97-.21l-.31-4.89h-11.08v2.18h-7.02v-18.72h22.57v14.98c.24,0,.54,0,.88.03.35.02.55.03.62.03,1.11,0,1.77-.1,1.98-.29s.31-.79.31-1.79v-16.12h-14.2ZM193.81,41.97h-8.53v6.08h8.53v-6.08ZM204.63,20.86v-2.24h-8.01v2.24h8.01ZM204.63,25.96h-8.01v2.24h8.01v-2.24Z"/>
        <path class="cls-3" d="M230.99,18.16c-1.01,5.06-1.51,10.02-1.51,14.87,0,2.77.25,5.21.75,7.31.5,2.1,1.08,3.62,1.74,4.58.66.95,1.32,1.43,1.98,1.43.45,0,.94-.34,1.48-1.01.54-.68,1.13-1.91,1.77-3.69.64-1.79,1.26-4.01,1.85-6.68l7.8,1.51c-2.39,12.13-6.55,18.2-12.48,18.2-3.71,0-6.85-1.9-9.41-5.69-2.57-3.79-3.85-9.11-3.85-15.94,0-5.27.48-10.45,1.46-15.55l8.42.68ZM248.26,20.6l7.9-2.55c2.39,4.71,4.19,9.4,5.38,14.07,1.2,4.66,2.04,10.13,2.52,16.41l-8.16.42c-.45-5.79-1.27-10.84-2.44-15.16-1.18-4.32-2.91-8.71-5.2-13.18Z"/>
        <path class="cls-3" d="M307.8,28.87v3.28h-28.5v-3.28c-2.63,1.63-4.92,2.93-6.86,3.9l-2.96-6.6c3.85-2.08,7.22-4.2,10.11-6.37,2.89-2.17,5.81-4.72,8.76-7.67h10.4c2.95,2.95,5.87,5.5,8.76,7.67,2.89,2.17,6.27,4.29,10.11,6.37l-2.96,6.6c-1.94-.97-4.23-2.27-6.86-3.9ZM282.78,56.12v2.18h-8.11v-22.36h37.75v22.36h-8.11v-2.18h-21.53ZM304.31,49.93v-7.59h-21.53v7.59h21.53ZM303.17,25.7c-3.54-2.63-6.74-5.46-9.62-8.48-2.88,3.02-6.08,5.84-9.62,8.48h19.24Z"/>
        <path class="cls-3" d="M333.02,13.06h7.96c.03,1.39.08,3.34.13,5.85.05,2.51.08,4.33.08,5.43,4.37-3.19,8.51-4.78,12.43-4.78,4.96,0,8.55,1.33,10.79,4,2.24,2.67,3.35,7.12,3.35,13.36,0,5.55-1.34,9.81-4.03,12.79-2.69,2.98-6.32,4.47-10.89,4.47-3.12,0-6.07-.73-8.84-2.18l2.44-6.92c2.6,1.04,4.73,1.56,6.4,1.56,4.33,0,6.5-3.24,6.5-9.72,0-3.78-.45-6.37-1.35-7.77-.9-1.4-2.5-2.11-4.78-2.11-1.53,0-3.18.49-4.97,1.46s-4.08,2.76-6.89,5.36c0,.59.05,8.13.16,22.62h-7.96c0-3.4-.04-8.32-.1-14.77-1.56,1.66-3.71,4-6.45,7.02l-5.62-4.84c4.4-4.99,8.39-9.22,11.96-12.69,0-.42,0-1.02-.03-1.82-.02-.8-.03-1.38-.03-1.77-3.61.45-6.93.68-9.98.68l-.21-7.33c3.54,0,6.9-.22,10.09-.68-.07-2.6-.12-5.01-.16-7.23Z"/>
        <path class="cls-3" d="M404.05,13.21h7.96c-.04,1.01-.05,3.85-.05,8.53,2.43-.24,4.97-.54,7.64-.88l.68,6.92c-2.18.28-4.94.59-8.27.94v7.18c0,2.53-.56,4.39-1.66,5.56-1.11,1.18-2.81,1.77-5.1,1.77-1.04,0-2.62-.17-4.76-.52-2.13-.35-4.01-.75-5.64-1.2l1.3-6.97c3.12.87,5.29,1.3,6.5,1.3.62,0,1.01-.11,1.17-.34.16-.23.23-.82.23-1.79v-4.26c-4.71.38-9.01.68-12.9.88.04,2.6.05,6.76.05,12.48,0,2.53.46,4.11,1.38,4.73.92.62,3.27.94,7.05.94,4.99,0,9.88-.35,14.66-1.04l.68,7.33c-5.03.69-10.28,1.04-15.76,1.04-6.31,0-10.59-.93-12.84-2.78-2.25-1.85-3.38-5.26-3.38-10.22,0-2.67-.03-6.71-.1-12.12-1.84.07-4.37.1-7.59.1v-6.86c2.25,0,4.73-.05,7.44-.16-.04-1.28-.12-4.23-.26-8.84h8.22c.03.55.09,1.85.16,3.87.07,2.03.12,3.56.16,4.6,6.07-.38,10.4-.68,13-.88,0-4.12.02-7.23.05-9.31Z"/>
        <path class="cls-3" d="M433.69,13.68h8.63c0,2.88-.1,7.23-.31,13.05-.21,5.89-.31,10.21-.31,12.95,0,3.4.54,5.83,1.61,7.31s2.77,2.21,5.1,2.21c2.88,0,5.5-1.12,7.88-3.35,2.37-2.24,4.71-6.04,6.99-11.41l7.44,3.22c-2.6,6.69-5.73,11.58-9.39,14.66-3.66,3.08-7.96,4.63-12.92,4.63-5.23,0-9.1-1.32-11.6-3.95-2.5-2.63-3.74-7.07-3.74-13.31,0-2.5.1-6.69.31-12.58.21-5.89.31-10.37.31-13.42Z"/>
        <path class="cls-3" d="M480.49,19.04c13.9,0,27.87-.88,41.91-2.65l.68,7.54c-7.14.87-12.51,2.52-16.12,4.97s-5.41,5.31-5.41,8.61c0,2.98,1.34,5.41,4.03,7.28,2.69,1.87,6.54,2.96,11.57,3.28l-.88,7.75c-7.32-.31-13.04-2-17.19-5.07s-6.21-7.05-6.21-11.93c0-2.5.69-4.89,2.08-7.18,1.39-2.29,3.34-4.26,5.88-5.93l-.05-.1c-7.11.83-13.87,1.25-20.28,1.25v-7.8Z"/>
        <path class="cls-3" d="M544.71,12.49h8.63c0,.07-.1,2.38-.31,6.92,5.06-.07,9.95-.33,14.66-.78l.05,7.12c-4.82.45-9.86.71-15.13.78,0,.14-.02.35-.05.62-.04.28-.05.5-.05.68-.03.31-.07.77-.1,1.38-.03.61-.07,1.15-.1,1.64-.04.49-.07.94-.1,1.35,2.53-.07,6.22-.29,11.08-.68l.05,7.12c-3.88.35-7.71.57-11.49.68-.04.87-.05,2.15-.05,3.85,0,2.36.45,4,1.35,4.94.9.94,2.46,1.4,4.68,1.4,3.19,0,5.51-.51,6.97-1.53,1.46-1.02,2.18-2.63,2.18-4.81,0-1.56-.24-3.41-.73-5.56l8.06-.83c.59,2.36.88,4.7.88,7.02,0,8.7-5.79,13.05-17.37,13.05-5.23,0-8.99-1.06-11.26-3.17-2.27-2.12-3.41-5.62-3.41-10.5,0-1.7.02-2.98.05-3.85-3.81-.1-7.56-.33-11.23-.68l.42-7.12c4.19.38,7.92.62,11.18.73.14-1.94.24-3.41.31-4.42,0-.17.02-.42.05-.73s.05-.55.05-.73c-3.43-.1-6.81-.31-10.14-.62l.42-7.12c3.33.31,6.73.52,10.19.62.14-2.98.22-5.23.26-6.76Z"/>
      </g>
      <g>
        <path class="cls-1" d="M29.39,66.03c-3.87,0-7-3.13-7-7v-5.78c-.96.49-2.04.77-3.19.77h-7.7c-3.87,0-7-3.13-7-7v-27.46c0-3.87,3.13-7,7-7h10.89v-1.06c0-3.87,3.13-7,7-7h8.32c3.87,0,7,3.13,7,7v1.06h10.89c3.87,0,7,3.13,7,7v27.46c0,3.87-3.13,7-7,7h-7.7c-1.15,0-2.23-.28-3.19-.77v5.78c0,3.87-3.13,7-7,7h-8.32Z"/>
        <path class="cls-1" d="M68.12,63.32c-3.15,0-5.95-2.12-6.77-5.23-1.88-7.17-2.83-14.85-2.83-22.83s.95-15.67,2.83-22.83c.81-3.1,3.62-5.23,6.77-5.23.24,0,.49.01.74.04l8.42.88c2.04.21,3.89,1.32,5.05,3.02.33.48.59.99.78,1.52,6.69-.04,13.65-.55,20.69-1.49.31-.04.62-.06.93-.06,1.61,0,3.18.56,4.44,1.59,1.5,1.23,2.42,3.04,2.54,4.98l.47,7.54c.23,3.7-2.46,6.93-6.14,7.38-2.87.35-5.67.64-8.38.88.54.94.85,2.01.9,3.12.04.86-.08,1.71-.34,2.52,1.67-.2,3.48-.51,5.41-.92.48-.1.97-.15,1.46-.15,1.41,0,2.8.43,3.98,1.24,1.59,1.1,2.65,2.8,2.94,4.71l1.14,7.54c.54,3.55-1.7,6.94-5.18,7.83-4.6,1.18-9.33,1.78-14.06,1.78-4.48,0-8.26-.66-11.43-1.99-.05.08-.1.16-.16.24-1.16,1.7-3.01,2.8-5.05,3.01l-8.42.88c-.25.03-.49.04-.74.04Z"/>
        <path class="cls-1" d="M118.72,63.32c-3.15,0-5.95-2.12-6.77-5.23-1.88-7.17-2.83-14.85-2.83-22.83s.95-15.67,2.83-22.83c.81-3.11,3.62-5.23,6.77-5.23.26,0,.52.01.78.04l7.96.88c2.04.23,3.87,1.33,5.02,3.03.92,1.36,1.33,2.98,1.18,4.59.87-.02,1.77-.04,2.68-.07.05-.83.11-1.7.17-2.59.26-3.66,3.31-6.5,6.98-6.5h7.96c1.94,0,3.79.81,5.12,2.23,1.27,1.36,1.94,3.16,1.88,5.01.08-.01.16-.02.24-.04.34-.05.69-.08,1.03-.08,1.6,0,3.16.55,4.42,1.57,1.53,1.24,2.46,3.07,2.57,5.03l.42,7.33c.21,3.63-2.41,6.82-6.01,7.33-.8.11-1.76.24-2.87.37.02.63.05,1.35.07,2.16,1.92,1.71,4.28,3.97,7.11,6.83,1.34,1.35,2.07,3.18,2.03,5.08-.04,1.9-.85,3.7-2.25,4.99l-5.41,4.99c-1.34,1.24-3.05,1.86-4.75,1.86-1.25,0-2.5-.33-3.6-1-.23.16-.48.31-.72.46-2.88,1.73-6.33,2.61-10.24,2.61s-7-.71-9.81-2.12c-.94.65-2.04,1.06-3.2,1.19l-7.96.88c-.26.03-.52.04-.78.04Z"/>
        <path class="cls-1" d="M166.72,65.4c-3.87,0-7-3.13-7-7V12.7c0-3.87,3.13-7,7-7h21.42c.39,0,.77.03,1.14.09.37-.06.75-.09,1.14-.09h21.94c3.87,0,7,3.13,7,7v36.35c0,1.7-.03,3.04-.09,4.09-.08,1.48-.34,2.9-.76,4.21-.56,1.75-1.31,3.13-2.3,4.23-1.16,1.29-2.67,2.22-4.62,2.86-1.31.43-2.69.68-4.1.77-.96.06-2.23.09-3.86.09-2.33,0-4.81-.07-7.36-.22-2.86-.16-5.25-2.03-6.19-4.6-1.25,1.18-2.94,1.91-4.81,1.91h-5.06c-1.26,1.82-3.37,3.02-5.76,3.02h-7.75Z"/>
        <path class="cls-1" d="M234.37,61.66c-4.24,0-10.31-1.52-15.21-8.78-3.35-4.95-5.05-11.63-5.05-19.86,0-5.69.53-11.36,1.58-16.86.63-3.32,3.54-5.69,6.87-5.69.19,0,.38,0,.56.02l8.42.68c1.99.16,3.82,1.16,5.02,2.76,1.2,1.59,1.67,3.63,1.28,5.58-.59,2.98-.99,5.94-1.2,8.85.75-.28,1.56-.42,2.39-.42.44,0,.89.04,1.34.13l3.99.77c-.69-1.67-1.47-3.36-2.34-5.06-.94-1.83-1.02-3.97-.23-5.87.79-1.9,2.36-3.35,4.32-3.98l7.9-2.55c.71-.23,1.43-.34,2.15-.34,2.58,0,5.02,1.43,6.24,3.83,2.61,5.15,4.6,10.36,5.92,15.49,1.29,5.03,2.21,10.96,2.72,17.61.15,1.88-.48,3.74-1.72,5.16-1.25,1.42-3.01,2.27-4.9,2.37l-8.16.42c-.12,0-.24,0-.36,0-2.99,0-5.59-1.89-6.57-4.61-3.56,6.86-8.56,10.33-14.95,10.33Z"/>
        <path class="cls-1" d="M304.31,65.3c-2,0-3.8-.84-5.08-2.18h-11.37c-1.28,1.34-3.08,2.18-5.08,2.18h-8.11c-3.87,0-7-3.13-7-7v-20.4c-.68-.63-1.23-1.4-1.62-2.26l-2.96-6.6c-1.5-3.34-.17-7.28,3.06-9.03,3.53-1.91,6.64-3.87,9.25-5.82,2.62-1.96,5.31-4.32,8.01-7.02,1.31-1.31,3.09-2.05,4.95-2.05h10.4c1.86,0,3.64.74,4.95,2.05,2.7,2.7,5.39,5.06,8,7.01,2.6,1.95,5.71,3.91,9.25,5.82,3.22,1.74,4.56,5.68,3.06,9.03l-2.96,6.6c-.39.86-.94,1.63-1.62,2.26v20.4c0,3.87-3.13,7-7,7h-8.11Z"/>
        <path class="cls-1" d="M333.54,63.48c-3.87,0-7-3.13-7-7,0-.25,0-.5,0-.76-1.47-.09-2.92-.65-4.12-1.68l-5.62-4.84c-1.42-1.22-2.29-2.96-2.42-4.82s.5-3.71,1.73-5.11c1.43-1.62,2.82-3.17,4.18-4.64-2.31-1.09-3.92-3.41-4-6.13l-.21-7.33c-.05-1.89.66-3.72,1.98-5.08,1.32-1.36,3.13-2.12,5.02-2.12,1,0,1.98-.02,2.94-.06,0-.25,0-.49-.01-.74-.03-1.88.7-3.68,2.01-5.02,1.32-1.34,3.11-2.09,4.99-2.09h7.96c3.8,0,6.9,3.03,7,6.83,0,.13,0,.26,0,.4,1.89-.48,3.77-.73,5.63-.73,7.1,0,12.54,2.19,16.15,6.51,3.36,4.01,4.99,9.85,4.99,17.86,0,7.3-1.96,13.19-5.83,17.48-4,4.44-9.56,6.79-16.09,6.79-1.93,0-3.82-.21-5.66-.62-.21.3-.45.58-.71.84-1.31,1.32-3.1,2.07-4.97,2.07h-7.96ZM348.36,38.36c.22.06.45.14.67.23,1.49.6,2.48.86,3.08.97.11-.53.22-1.38.22-2.64,0-1.11-.05-1.96-.11-2.59-.19.08-.41.19-.65.32-.51.28-1.52.92-3.21,2.34,0,.41,0,.86,0,1.37Z"/>
        <path class="cls-1" d="M399.21,62.8c-8.17,0-13.66-1.39-17.29-4.38-3.94-3.24-5.93-8.49-5.93-15.62,0-1.33,0-3-.03-5.01h-.67c-3.87,0-7-3.13-7-7v-6.86c0-3.87,3.13-7,7-7h.23c-.02-.56-.03-1.16-.05-1.79-.06-1.89.66-3.73,1.97-5.08s3.13-2.12,5.02-2.12h8.22c2.88,0,5.37,1.74,6.44,4.25.5-3.38,3.41-5.97,6.92-5.97h7.96c1.9,0,3.72.77,5.04,2.14,1.32,1.37,2.03,3.21,1.96,5.11,0,.1,0,.24-.01.43.2-.02.41-.03.61-.03,1.57,0,3.11.53,4.36,1.52,1.48,1.18,2.42,2.91,2.61,4.8l.68,6.92c.37,3.77-2.33,7.15-6.08,7.63-.67.08-1.38.17-2.15.26v.9c0,2.11-.28,4.02-.84,5.71.16.11.31.22.46.33,1.51,1.19,2.46,2.94,2.64,4.86l.68,7.33c.34,3.73-2.31,7.07-6.01,7.58-5.31.73-10.94,1.1-16.71,1.1Z"/>
        <path class="cls-1" d="M448.4,63.95c-7.21,0-12.82-2.06-16.68-6.13-3.81-4.02-5.66-9.95-5.66-18.13,0-2.59.1-6.79.32-12.83.21-5.79.31-10.22.31-13.17,0-3.87,3.13-7,7-7h8.63c3.87,0,7,3.13,7,7,0,2.96-.11,7.43-.32,13.3-.2,5.77-.31,10.04-.31,12.7,0,1.16.08,1.96.17,2.49.67-.08,1.53-.39,2.62-1.42.93-.88,2.87-3.22,5.35-9.06.73-1.72,2.12-3.07,3.85-3.76.83-.33,1.71-.5,2.59-.5.95,0,1.9.19,2.78.58l7.44,3.22c3.45,1.5,5.1,5.45,3.74,8.96-3.06,7.87-6.79,13.59-11.4,17.48-4.94,4.16-10.8,6.28-17.43,6.28Z"/>
        <path class="cls-1" d="M515.97,62.8c-8.7-.37-15.79-2.54-21.05-6.44-5.92-4.38-9.05-10.46-9.05-17.56,0-1.72.22-3.42.65-5.07-2.04.08-4.05.11-6.02.11-3.87,0-7-3.13-7-7v-7.8c0-3.87,3.13-7,7-7,13.55,0,27.36-.87,41.04-2.6.29-.04.58-.05.88-.05,1.59,0,3.14.54,4.39,1.55,1.48,1.19,2.41,2.93,2.58,4.83l.68,7.54c.34,3.77-2.38,7.12-6.13,7.57-7.46.91-11.21,2.57-13.04,3.81-1.07.72-2.34,1.8-2.34,2.81,0,.42,0,.82,1.03,1.54,1.1.77,3.39,1.75,8,2.03,1.92.12,3.7,1.02,4.93,2.49,1.23,1.47,1.81,3.38,1.59,5.29l-.88,7.75c-.41,3.55-3.41,6.21-6.95,6.21-.1,0-.2,0-.3,0Z"/>
        <path class="cls-1" d="M557.81,63.84c-7.13,0-12.38-1.65-16.03-5.05-3.21-2.99-5.06-7.28-5.52-12.79-1.67-.11-3.32-.24-4.95-.39-3.75-.35-6.55-3.61-6.33-7.38l.42-7.12c.09-1.48.64-2.89,1.57-4.03-.11-.56-.15-1.15-.12-1.75l.42-7.12c.11-1.9.99-3.67,2.43-4.9,1.27-1.09,2.89-1.69,4.56-1.69.22,0,.44,0,.65.03.93.09,1.87.17,2.82.24.3-3.6,3.32-6.4,6.97-6.4h8.63c3.75,0,6.82,2.96,6.99,6.67,2.28-.12,4.51-.29,6.69-.5.22-.02.45-.03.67-.03,1.72,0,3.4.64,4.69,1.8,1.46,1.31,2.3,3.18,2.31,5.15l.05,7.12c.01,1.53-.47,2.96-1.31,4.13h.14c.24-.04.48-.05.72-.05,3.18,0,6,2.16,6.79,5.3.73,2.9,1.09,5.83,1.09,8.72,0,6.03-2.37,20.05-24.37,20.05Z"/>
      </g>
      <g>
        <path class="cls-2" d="M19.2,44.31v2.7h-7.7v-27.46h17.89v-8.06h8.32v8.06h17.89v27.46h-7.7v-2.7h-10.19v14.72h-8.32v-14.72h-10.19ZM19.2,37.71h10.19v-11.34h-10.19v11.34ZM47.9,37.71v-11.34h-10.19v11.34h10.19Z"/>
        <path class="cls-2" d="M76.55,15.09c-1.73,6.31-2.6,13.04-2.6,20.18s.87,13.87,2.6,20.18l-8.42.88c-1.73-6.62-2.6-13.64-2.6-21.06s.87-14.44,2.6-21.06l8.42.88ZM106.24,52.58c-4.06,1.04-8.16,1.56-12.32,1.56-4.78,0-8.45-.9-11-2.7s-3.82-4.4-3.82-7.8c0-1.7.62-3.58,1.85-5.64,1.23-2.06,2.87-3.89,4.91-5.49l5.72,4.42c-1.66,1.56-2.81,2.83-3.43,3.8-.62.97-.94,1.87-.94,2.7,0,1.98,2.24,2.96,6.71,2.96,3.22,0,6.95-.45,11.18-1.35l1.14,7.54ZM82.12,19.66c7.35,0,14.89-.52,22.62-1.56l.47,7.54c-8.53,1.04-16.22,1.56-23.09,1.56v-7.54Z"/>
        <path class="cls-2" d="M118.72,14.2l7.96.88c-1.73,6.31-2.6,13.04-2.6,20.18s.87,13.87,2.6,20.18l-7.96.88c-1.73-6.62-2.6-13.64-2.6-21.06s.87-14.44,2.6-21.06ZM143.06,22.37c.03-2.43.17-5.36.42-8.79h7.96c-.17,2.5-.29,5.22-.36,8.16,3.88-.42,6.76-.76,8.63-1.04l.42,7.33c-1.98.28-5.01.62-9.1,1.04.03,1.7.09,3.47.16,5.3.07,1.46.14,3.61.21,6.45,2.01,1.56,5.03,4.37,9.05,8.42l-5.41,4.99c-2.39-2.39-3.8-3.78-4.21-4.16-.69,2.01-1.93,3.55-3.72,4.63-1.79,1.07-4,1.61-6.63,1.61-3.64,0-6.53-.89-8.66-2.68-2.13-1.79-3.2-4.19-3.2-7.2s1.06-5.31,3.17-7.1c2.11-1.79,5.01-2.68,8.68-2.68,1.07,0,2.03.07,2.86.21-.03-.31-.07-.79-.1-1.43-.03-.64-.05-1.12-.05-1.43,0-.49,0-1.21-.03-2.16-.02-.95-.04-1.67-.08-2.16-4.54.28-8.79.42-12.74.42v-7.33c3.88,0,8.13-.14,12.74-.42ZM143.48,44.42c-1.08-.45-2.22-.68-3.43-.68s-2.19.25-2.83.75c-.64.5-.96,1.15-.96,1.95,0,1.84,1.26,2.76,3.8,2.76,1.21,0,2.09-.29,2.63-.86.54-.57.81-1.52.81-2.83v-1.09Z"/>
        <path class="cls-2" d="M174.47,58.4h-7.75V12.7h21.42v20.8h-13.68v24.91ZM174.47,20.86h7.54v-2.24h-7.54v2.24ZM174.47,25.96v2.24h7.54v-2.24h-7.54ZM190.43,33.5V12.7h21.94v36.35c0,1.56-.03,2.79-.08,3.69s-.2,1.73-.44,2.5c-.24.76-.52,1.32-.83,1.66s-.84.64-1.59.88c-.75.24-1.53.39-2.37.44-.83.05-1.98.08-3.43.08-2.22,0-4.54-.07-6.97-.21l-.31-4.89h-11.08v2.18h-7.02v-18.72h22.57v14.98c.24,0,.54,0,.88.03.35.02.55.03.62.03,1.11,0,1.77-.1,1.98-.29s.31-.79.31-1.79v-16.12h-14.2ZM193.81,41.97h-8.53v6.08h8.53v-6.08ZM204.63,20.86v-2.24h-8.01v2.24h8.01ZM204.63,25.96h-8.01v2.24h8.01v-2.24Z"/>
        <path class="cls-2" d="M230.99,18.16c-1.01,5.06-1.51,10.02-1.51,14.87,0,2.77.25,5.21.75,7.31.5,2.1,1.08,3.62,1.74,4.58.66.95,1.32,1.43,1.98,1.43.45,0,.94-.34,1.48-1.01.54-.68,1.13-1.91,1.77-3.69.64-1.79,1.26-4.01,1.85-6.68l7.8,1.51c-2.39,12.13-6.55,18.2-12.48,18.2-3.71,0-6.85-1.9-9.41-5.69-2.57-3.79-3.85-9.11-3.85-15.94,0-5.27.48-10.45,1.46-15.55l8.42.68ZM248.26,20.6l7.9-2.55c2.39,4.71,4.19,9.4,5.38,14.07,1.2,4.66,2.04,10.13,2.52,16.41l-8.16.42c-.45-5.79-1.27-10.84-2.44-15.16-1.18-4.32-2.91-8.71-5.2-13.18Z"/>
        <path class="cls-2" d="M307.8,28.87v3.28h-28.5v-3.28c-2.63,1.63-4.92,2.93-6.86,3.9l-2.96-6.6c3.85-2.08,7.22-4.2,10.11-6.37,2.89-2.17,5.81-4.72,8.76-7.67h10.4c2.95,2.95,5.87,5.5,8.76,7.67,2.89,2.17,6.27,4.29,10.11,6.37l-2.96,6.6c-1.94-.97-4.23-2.27-6.86-3.9ZM282.78,56.12v2.18h-8.11v-22.36h37.75v22.36h-8.11v-2.18h-21.53ZM304.31,49.93v-7.59h-21.53v7.59h21.53ZM303.17,25.7c-3.54-2.63-6.74-5.46-9.62-8.48-2.88,3.02-6.08,5.84-9.62,8.48h19.24Z"/>
        <path class="cls-2" d="M333.02,13.06h7.96c.03,1.39.08,3.34.13,5.85.05,2.51.08,4.33.08,5.43,4.37-3.19,8.51-4.78,12.43-4.78,4.96,0,8.55,1.33,10.79,4,2.24,2.67,3.35,7.12,3.35,13.36,0,5.55-1.34,9.81-4.03,12.79-2.69,2.98-6.32,4.47-10.89,4.47-3.12,0-6.07-.73-8.84-2.18l2.44-6.92c2.6,1.04,4.73,1.56,6.4,1.56,4.33,0,6.5-3.24,6.5-9.72,0-3.78-.45-6.37-1.35-7.77-.9-1.4-2.5-2.11-4.78-2.11-1.53,0-3.18.49-4.97,1.46s-4.08,2.76-6.89,5.36c0,.59.05,8.13.16,22.62h-7.96c0-3.4-.04-8.32-.1-14.77-1.56,1.66-3.71,4-6.45,7.02l-5.62-4.84c4.4-4.99,8.39-9.22,11.96-12.69,0-.42,0-1.02-.03-1.82-.02-.8-.03-1.38-.03-1.77-3.61.45-6.93.68-9.98.68l-.21-7.33c3.54,0,6.9-.22,10.09-.68-.07-2.6-.12-5.01-.16-7.23Z"/>
        <path class="cls-2" d="M404.05,13.21h7.96c-.04,1.01-.05,3.85-.05,8.53,2.43-.24,4.97-.54,7.64-.88l.68,6.92c-2.18.28-4.94.59-8.27.94v7.18c0,2.53-.56,4.39-1.66,5.56-1.11,1.18-2.81,1.77-5.1,1.77-1.04,0-2.62-.17-4.76-.52-2.13-.35-4.01-.75-5.64-1.2l1.3-6.97c3.12.87,5.29,1.3,6.5,1.3.62,0,1.01-.11,1.17-.34.16-.23.23-.82.23-1.79v-4.26c-4.71.38-9.01.68-12.9.88.04,2.6.05,6.76.05,12.48,0,2.53.46,4.11,1.38,4.73.92.62,3.27.94,7.05.94,4.99,0,9.88-.35,14.66-1.04l.68,7.33c-5.03.69-10.28,1.04-15.76,1.04-6.31,0-10.59-.93-12.84-2.78-2.25-1.85-3.38-5.26-3.38-10.22,0-2.67-.03-6.71-.1-12.12-1.84.07-4.37.1-7.59.1v-6.86c2.25,0,4.73-.05,7.44-.16-.04-1.28-.12-4.23-.26-8.84h8.22c.03.55.09,1.85.16,3.87.07,2.03.12,3.56.16,4.6,6.07-.38,10.4-.68,13-.88,0-4.12.02-7.23.05-9.31Z"/>
        <path class="cls-2" d="M433.69,13.68h8.63c0,2.88-.1,7.23-.31,13.05-.21,5.89-.31,10.21-.31,12.95,0,3.4.54,5.83,1.61,7.31s2.77,2.21,5.1,2.21c2.88,0,5.5-1.12,7.88-3.35,2.37-2.24,4.71-6.04,6.99-11.41l7.44,3.22c-2.6,6.69-5.73,11.58-9.39,14.66-3.66,3.08-7.96,4.63-12.92,4.63-5.23,0-9.1-1.32-11.6-3.95-2.5-2.63-3.74-7.07-3.74-13.31,0-2.5.1-6.69.31-12.58.21-5.89.31-10.37.31-13.42Z"/>
        <path class="cls-2" d="M480.49,19.04c13.9,0,27.87-.88,41.91-2.65l.68,7.54c-7.14.87-12.51,2.52-16.12,4.97s-5.41,5.31-5.41,8.61c0,2.98,1.34,5.41,4.03,7.28,2.69,1.87,6.54,2.96,11.57,3.28l-.88,7.75c-7.32-.31-13.04-2-17.19-5.07s-6.21-7.05-6.21-11.93c0-2.5.69-4.89,2.08-7.18,1.39-2.29,3.34-4.26,5.88-5.93l-.05-.1c-7.11.83-13.87,1.25-20.28,1.25v-7.8Z"/>
        <path class="cls-2" d="M544.71,12.49h8.63c0,.07-.1,2.38-.31,6.92,5.06-.07,9.95-.33,14.66-.78l.05,7.12c-4.82.45-9.86.71-15.13.78,0,.14-.02.35-.05.62-.04.28-.05.5-.05.68-.03.31-.07.77-.1,1.38-.03.61-.07,1.15-.1,1.64-.04.49-.07.94-.1,1.35,2.53-.07,6.22-.29,11.08-.68l.05,7.12c-3.88.35-7.71.57-11.49.68-.04.87-.05,2.15-.05,3.85,0,2.36.45,4,1.35,4.94.9.94,2.46,1.4,4.68,1.4,3.19,0,5.51-.51,6.97-1.53,1.46-1.02,2.18-2.63,2.18-4.81,0-1.56-.24-3.41-.73-5.56l8.06-.83c.59,2.36.88,4.7.88,7.02,0,8.7-5.79,13.05-17.37,13.05-5.23,0-8.99-1.06-11.26-3.17-2.27-2.12-3.41-5.62-3.41-10.5,0-1.7.02-2.98.05-3.85-3.81-.1-7.56-.33-11.23-.68l.42-7.12c4.19.38,7.92.62,11.18.73.14-1.94.24-3.41.31-4.42,0-.17.02-.42.05-.73s.05-.55.05-.73c-3.43-.1-6.81-.31-10.14-.62l.42-7.12c3.33.31,6.73.52,10.19.62.14-2.98.22-5.23.26-6.76Z"/>
      </g>
      <g>
        <path class="cls-1" d="M19.2,44.31v2.7h-7.7v-27.46h17.89v-8.06h8.32v8.06h17.89v27.46h-7.7v-2.7h-10.19v14.72h-8.32v-14.72h-10.19ZM19.2,37.71h10.19v-11.34h-10.19v11.34ZM47.9,37.71v-11.34h-10.19v11.34h10.19Z"/>
        <path class="cls-1" d="M76.55,15.09c-1.73,6.31-2.6,13.04-2.6,20.18s.87,13.87,2.6,20.18l-8.42.88c-1.73-6.62-2.6-13.64-2.6-21.06s.87-14.44,2.6-21.06l8.42.88ZM106.24,52.58c-4.06,1.04-8.16,1.56-12.32,1.56-4.78,0-8.45-.9-11-2.7s-3.82-4.4-3.82-7.8c0-1.7.62-3.58,1.85-5.64,1.23-2.06,2.87-3.89,4.91-5.49l5.72,4.42c-1.66,1.56-2.81,2.83-3.43,3.8-.62.97-.94,1.87-.94,2.7,0,1.98,2.24,2.96,6.71,2.96,3.22,0,6.95-.45,11.18-1.35l1.14,7.54ZM82.12,19.66c7.35,0,14.89-.52,22.62-1.56l.47,7.54c-8.53,1.04-16.22,1.56-23.09,1.56v-7.54Z"/>
        <path class="cls-1" d="M118.72,14.2l7.96.88c-1.73,6.31-2.6,13.04-2.6,20.18s.87,13.87,2.6,20.18l-7.96.88c-1.73-6.62-2.6-13.64-2.6-21.06s.87-14.44,2.6-21.06ZM143.06,22.37c.03-2.43.17-5.36.42-8.79h7.96c-.17,2.5-.29,5.22-.36,8.16,3.88-.42,6.76-.76,8.63-1.04l.42,7.33c-1.98.28-5.01.62-9.1,1.04.03,1.7.09,3.47.16,5.3.07,1.46.14,3.61.21,6.45,2.01,1.56,5.03,4.37,9.05,8.42l-5.41,4.99c-2.39-2.39-3.8-3.78-4.21-4.16-.69,2.01-1.93,3.55-3.72,4.63-1.79,1.07-4,1.61-6.63,1.61-3.64,0-6.53-.89-8.66-2.68-2.13-1.79-3.2-4.19-3.2-7.2s1.06-5.31,3.17-7.1c2.11-1.79,5.01-2.68,8.68-2.68,1.07,0,2.03.07,2.86.21-.03-.31-.07-.79-.1-1.43-.03-.64-.05-1.12-.05-1.43,0-.49,0-1.21-.03-2.16-.02-.95-.04-1.67-.08-2.16-4.54.28-8.79.42-12.74.42v-7.33c3.88,0,8.13-.14,12.74-.42ZM143.48,44.42c-1.08-.45-2.22-.68-3.43-.68s-2.19.25-2.83.75c-.64.5-.96,1.15-.96,1.95,0,1.84,1.26,2.76,3.8,2.76,1.21,0,2.09-.29,2.63-.86.54-.57.81-1.52.81-2.83v-1.09Z"/>
        <path class="cls-1" d="M174.47,58.4h-7.75V12.7h21.42v20.8h-13.68v24.91ZM174.47,20.86h7.54v-2.24h-7.54v2.24ZM174.47,25.96v2.24h7.54v-2.24h-7.54ZM190.43,33.5V12.7h21.94v36.35c0,1.56-.03,2.79-.08,3.69s-.2,1.73-.44,2.5c-.24.76-.52,1.32-.83,1.66s-.84.64-1.59.88c-.75.24-1.53.39-2.37.44-.83.05-1.98.08-3.43.08-2.22,0-4.54-.07-6.97-.21l-.31-4.89h-11.08v2.18h-7.02v-18.72h22.57v14.98c.24,0,.54,0,.88.03.35.02.55.03.62.03,1.11,0,1.77-.1,1.98-.29s.31-.79.31-1.79v-16.12h-14.2ZM193.81,41.97h-8.53v6.08h8.53v-6.08ZM204.63,20.86v-2.24h-8.01v2.24h8.01ZM204.63,25.96h-8.01v2.24h8.01v-2.24Z"/>
        <path class="cls-1" d="M230.99,18.16c-1.01,5.06-1.51,10.02-1.51,14.87,0,2.77.25,5.21.75,7.31.5,2.1,1.08,3.62,1.74,4.58.66.95,1.32,1.43,1.98,1.43.45,0,.94-.34,1.48-1.01.54-.68,1.13-1.91,1.77-3.69.64-1.79,1.26-4.01,1.85-6.68l7.8,1.51c-2.39,12.13-6.55,18.2-12.48,18.2-3.71,0-6.85-1.9-9.41-5.69-2.57-3.79-3.85-9.11-3.85-15.94,0-5.27.48-10.45,1.46-15.55l8.42.68ZM248.26,20.6l7.9-2.55c2.39,4.71,4.19,9.4,5.38,14.07,1.2,4.66,2.04,10.13,2.52,16.41l-8.16.42c-.45-5.79-1.27-10.84-2.44-15.16-1.18-4.32-2.91-8.71-5.2-13.18Z"/>
        <path class="cls-1" d="M307.8,28.87v3.28h-28.5v-3.28c-2.63,1.63-4.92,2.93-6.86,3.9l-2.96-6.6c3.85-2.08,7.22-4.2,10.11-6.37,2.89-2.17,5.81-4.72,8.76-7.67h10.4c2.95,2.95,5.87,5.5,8.76,7.67,2.89,2.17,6.27,4.29,10.11,6.37l-2.96,6.6c-1.94-.97-4.23-2.27-6.86-3.9ZM282.78,56.12v2.18h-8.11v-22.36h37.75v22.36h-8.11v-2.18h-21.53ZM304.31,49.93v-7.59h-21.53v7.59h21.53ZM303.17,25.7c-3.54-2.63-6.74-5.46-9.62-8.48-2.88,3.02-6.08,5.84-9.62,8.48h19.24Z"/>
        <path class="cls-1" d="M333.02,13.06h7.96c.03,1.39.08,3.34.13,5.85.05,2.51.08,4.33.08,5.43,4.37-3.19,8.51-4.78,12.43-4.78,4.96,0,8.55,1.33,10.79,4,2.24,2.67,3.35,7.12,3.35,13.36,0,5.55-1.34,9.81-4.03,12.79-2.69,2.98-6.32,4.47-10.89,4.47-3.12,0-6.07-.73-8.84-2.18l2.44-6.92c2.6,1.04,4.73,1.56,6.4,1.56,4.33,0,6.5-3.24,6.5-9.72,0-3.78-.45-6.37-1.35-7.77-.9-1.4-2.5-2.11-4.78-2.11-1.53,0-3.18.49-4.97,1.46s-4.08,2.76-6.89,5.36c0,.59.05,8.13.16,22.62h-7.96c0-3.4-.04-8.32-.1-14.77-1.56,1.66-3.71,4-6.45,7.02l-5.62-4.84c4.4-4.99,8.39-9.22,11.96-12.69,0-.42,0-1.02-.03-1.82-.02-.8-.03-1.38-.03-1.77-3.61.45-6.93.68-9.98.68l-.21-7.33c3.54,0,6.9-.22,10.09-.68-.07-2.6-.12-5.01-.16-7.23Z"/>
        <path class="cls-1" d="M404.05,13.21h7.96c-.04,1.01-.05,3.85-.05,8.53,2.43-.24,4.97-.54,7.64-.88l.68,6.92c-2.18.28-4.94.59-8.27.94v7.18c0,2.53-.56,4.39-1.66,5.56-1.11,1.18-2.81,1.77-5.1,1.77-1.04,0-2.62-.17-4.76-.52-2.13-.35-4.01-.75-5.64-1.2l1.3-6.97c3.12.87,5.29,1.3,6.5,1.3.62,0,1.01-.11,1.17-.34.16-.23.23-.82.23-1.79v-4.26c-4.71.38-9.01.68-12.9.88.04,2.6.05,6.76.05,12.48,0,2.53.46,4.11,1.38,4.73.92.62,3.27.94,7.05.94,4.99,0,9.88-.35,14.66-1.04l.68,7.33c-5.03.69-10.28,1.04-15.76,1.04-6.31,0-10.59-.93-12.84-2.78-2.25-1.85-3.38-5.26-3.38-10.22,0-2.67-.03-6.71-.1-12.12-1.84.07-4.37.1-7.59.1v-6.86c2.25,0,4.73-.05,7.44-.16-.04-1.28-.12-4.23-.26-8.84h8.22c.03.55.09,1.85.16,3.87.07,2.03.12,3.56.16,4.6,6.07-.38,10.4-.68,13-.88,0-4.12.02-7.23.05-9.31Z"/>
        <path class="cls-1" d="M433.69,13.68h8.63c0,2.88-.1,7.23-.31,13.05-.21,5.89-.31,10.21-.31,12.95,0,3.4.54,5.83,1.61,7.31s2.77,2.21,5.1,2.21c2.88,0,5.5-1.12,7.88-3.35,2.37-2.24,4.71-6.04,6.99-11.41l7.44,3.22c-2.6,6.69-5.73,11.58-9.39,14.66-3.66,3.08-7.96,4.63-12.92,4.63-5.23,0-9.1-1.32-11.6-3.95-2.5-2.63-3.74-7.07-3.74-13.31,0-2.5.1-6.69.31-12.58.21-5.89.31-10.37.31-13.42Z"/>
        <path class="cls-1" d="M480.49,19.04c13.9,0,27.87-.88,41.91-2.65l.68,7.54c-7.14.87-12.51,2.52-16.12,4.97s-5.41,5.31-5.41,8.61c0,2.98,1.34,5.41,4.03,7.28,2.69,1.87,6.54,2.96,11.57,3.28l-.88,7.75c-7.32-.31-13.04-2-17.19-5.07s-6.21-7.05-6.21-11.93c0-2.5.69-4.89,2.08-7.18,1.39-2.29,3.34-4.26,5.88-5.93l-.05-.1c-7.11.83-13.87,1.25-20.28,1.25v-7.8Z"/>
        <path class="cls-1" d="M544.71,12.49h8.63c0,.07-.1,2.38-.31,6.92,5.06-.07,9.95-.33,14.66-.78l.05,7.12c-4.82.45-9.86.71-15.13.78,0,.14-.02.35-.05.62-.04.28-.05.5-.05.68-.03.31-.07.77-.1,1.38-.03.61-.07,1.15-.1,1.64-.04.49-.07.94-.1,1.35,2.53-.07,6.22-.29,11.08-.68l.05,7.12c-3.88.35-7.71.57-11.49.68-.04.87-.05,2.15-.05,3.85,0,2.36.45,4,1.35,4.94.9.94,2.46,1.4,4.68,1.4,3.19,0,5.51-.51,6.97-1.53,1.46-1.02,2.18-2.63,2.18-4.81,0-1.56-.24-3.41-.73-5.56l8.06-.83c.59,2.36.88,4.7.88,7.02,0,8.7-5.79,13.05-17.37,13.05-5.23,0-8.99-1.06-11.26-3.17-2.27-2.12-3.41-5.62-3.41-10.5,0-1.7.02-2.98.05-3.85-3.81-.1-7.56-.33-11.23-.68l.42-7.12c4.19.38,7.92.62,11.18.73.14-1.94.24-3.41.31-4.42,0-.17.02-.42.05-.73s.05-.55.05-.73c-3.43-.1-6.81-.31-10.14-.62l.42-7.12c3.33.31,6.73.52,10.19.62.14-2.98.22-5.23.26-6.76Z"/>
      </g>
    </g>
  </g>
</svg>