<?xml version="1.0" encoding="UTF-8"?>
<svg id="_レイヤー_2" data-name="レイヤー 2" xmlns="http://www.w3.org/2000/svg" viewBox="0 0 366.19 241.84">
  <defs>
    <style>
      .cls-1 {
        fill: #fff;
      }

      .cls-2 {
        fill: #e12800;
      }

      .cls-3 {
        fill: none;
        stroke: #e12800;
        stroke-linejoin: round;
        stroke-width: 34px;
      }
    </style>
  </defs>
  <g id="_レイヤー_1-2" data-name="レイヤー 1">
    <rect class="cls-2" x="18.16" y="17" width="330" height="202"/>
    <rect class="cls-2" x="18.16" y="17" width="330" height="202"/>
    <g>
      <g>
        <path class="cls-3" d="M63.26,69.08c-1.53-5.75-3.02-10.42-4.48-14l5.6-1.62c-2.31-2.69-4.18-5.75-5.6-9.18-2.32,4.63-5.02,8.21-8.12,10.75l-5.6-5.77c4.85-3.96,7.88-8.42,9.07-13.38h-2.35c-3.1,8.06-7.69,14.47-13.78,19.21l3.98,1.34c-.04-.11-.06-.24-.06-.39s-.02-.28-.06-.39l7.06-.9c.86,5.64,1.42,10.15,1.68,13.55l-7.34.84c-.22-3.55-.62-7.5-1.18-11.87-.97,4.07-2.41,8.1-4.31,12.1l-7.06-3.02c1.34-2.69,2.54-5.54,3.58-8.57l-3.81,3.53c-.3-.56-1.14-2.03-2.52-4.42-1.61,4.85-3.83,8.75-6.66,11.7l-4.31-6.55c2.61-3.1,4.53-7.03,5.74-11.79,1.21-4.76,1.82-11.21,1.82-19.35v-11.7h6.89v12.49c.67-2.5,1.21-4.74,1.62-6.72l3.25.84c1.01-2.13,1.83-4.52,2.46-7.17l6.83.78c-.22,1.12-.54,2.37-.95,3.75h9.07v5.54h1.18v-9.24h7.73l3.14-1.23c1.34,2.65,2.65,5.58,3.92,8.79l-3.58,1.68h3.3v7.17h-5.77c1.01,4.93,3.28,9.11,6.83,12.54l-4.14,5.88c1.49,4.07,2.74,8.08,3.75,12.04l-6.83,2.74ZM17.28,45.11c.82-5.52,1.23-11.65,1.23-18.37l4.93.5c0,7.54-.49,14.13-1.46,19.77l-4.7-1.9ZM35.31,54.52l-2.52-5.21c1.57-1.01,3.06-2.22,4.48-3.64-1.87-1.79-3.27-3.1-4.2-3.92-.15.45-.41,1.12-.78,2.02l-1.46-.84c-.22,1.98-.41,3.47-.56,4.48,1.49,2.5,3.08,5.21,4.76,8.12.04-.11.08-.28.14-.5.06-.22.1-.39.14-.5ZM36.54,37.05l-1.29-2.35c-.6,2.09-1.25,4.18-1.96,6.27l3.25-3.92ZM42.42,38.95c-1.42-1.34-2.48-2.33-3.19-2.97l-1.18,2.02c1.34,1.27,2.37,2.24,3.08,2.91.48-.67.91-1.32,1.29-1.96ZM45.17,33.18c.56-1.6.95-2.87,1.18-3.81h-3.86c-.04.08-.1.22-.2.42-.09.21-.16.36-.2.48.04.04.46.44,1.26,1.2.8.77,1.41,1.34,1.82,1.71ZM53.18,69.14c-.86-5.38-1.76-9.82-2.69-13.33l7.06-1.34c1.12,4.26,2.11,8.7,2.97,13.33l-7.34,1.34ZM62.86,27.36v1.34h2.52c-1.16-2.84-2-4.83-2.52-5.99v4.65Z"/>
        <path class="cls-3" d="M81.79,33.97c10.75,0,21.75-.67,32.98-2.02l1.23,9.18c-2.99,2.2-6.48,4.91-10.47,8.12l.06.06h.11c2.35,0,3.79,1.49,4.31,4.48.37,1.98.9,3.22,1.57,3.72.67.5,2.07.76,4.2.76,1.68,0,3.83-.26,6.44-.78l.95,7.78c-2.91.75-5.99,1.12-9.24,1.12-3.7,0-6.43-.54-8.2-1.62-1.77-1.08-2.9-2.87-3.39-5.38-.3-1.64-.65-2.71-1.06-3.19-.41-.48-1.08-.73-2.02-.73s-2.48.66-4.65,1.99c-2.17,1.33-6.7,4.45-13.61,9.38l-4.76-6.44c10.27-7.32,19.43-13.94,27.5-19.88v-.11c-6.61,1.12-13.93,1.68-21.95,1.68v-8.12ZM87.45,19.35c7.91,1.46,16.24,2.48,24.98,3.08l-.78,7.67c-8.36-.6-16.88-1.62-25.54-3.08l1.34-7.67Z"/>
        <path class="cls-3" d="M139.47,22.32c10.9,0,21.63-.37,32.2-1.12l1.23,9.91c-2.91,1.79-7.82,4.37-14.73,7.73l.06.11c1.16-.26,2.26-.39,3.3-.39,4.7,0,8.4,1.15,11.09,3.44,2.69,2.3,4.03,5.35,4.03,9.16,0,4.78-1.93,8.61-5.8,11.48-3.86,2.87-9.21,4.31-16.04,4.31-4.67,0-8.3-.9-10.89-2.69-2.6-1.79-3.89-4.18-3.89-7.17,0-2.43,1.13-4.49,3.39-6.19,2.26-1.7,5.14-2.55,8.65-2.55,3.88,0,6.81.75,8.79,2.24,1.98,1.49,2.97,3.62,2.97,6.38v.84c2.5-1.49,3.75-3.55,3.75-6.16,0-2.2-.91-3.93-2.72-5.18-1.81-1.25-4.55-1.88-8.2-1.88-2.69,0-5.51.45-8.46,1.34-2.95.9-7.08,2.61-12.38,5.15l-3.02-7.17c10.98-5.11,20.5-10.04,28.56-14.78l-.06-.11c-7.28.93-14.56,1.4-21.84,1.4v-8.12ZM155.94,59.73c.22-.86.34-1.59.34-2.18,0-.97-.32-1.68-.95-2.13-.64-.45-1.72-.67-3.25-.67-2.69,0-4.03.73-4.03,2.18,0,1.9,2.3,2.86,6.89,2.86.11,0,.28,0,.5-.03.22-.02.39-.03.5-.03Z"/>
        <path class="cls-3" d="M185.39,35.31c4.59-5.49,7.95-11.59,10.08-18.31l8.01,1.62c-.3,1.12-.54,1.94-.73,2.46h31.64v6.89h-34.55c-.6,1.2-1.06,2.09-1.4,2.69h32.7v5.77h-33.49v-4.42c-1.61,2.65-3.29,5.02-5.04,7.11h34.61v1.74c0,3.88.17,7.22.5,10,.34,2.78.7,4.72,1.09,5.82.39,1.1.78,1.65,1.15,1.65.19,0,.34-.19.45-.56.11-.37.26-1.41.45-3.11.19-1.7.41-4.23.67-7.59l7,1.4c-.26,5.49-.75,9.73-1.46,12.71s-1.58,4.96-2.6,5.94c-1.03.97-2.4,1.46-4.12,1.46-3.32,0-6.1-1.91-8.32-5.74-2.22-3.83-3.41-9.49-3.56-17h-6.21l5.1,4.65c-1.94,2.31-4.03,4.44-6.27,6.38,1.57,1.23,4.33,3.49,8.29,6.78l-5.04,5.43c-4.11-3.36-7.21-5.84-9.3-7.45-4.7,3.25-9.63,5.86-14.78,7.84l-3.7-6.55c4.07-1.6,8.04-3.66,11.93-6.16-2.46-1.75-5.12-3.51-7.95-5.26l4.31-5.66h-3.64v-6.61l-5.82-3.92ZM204.77,52.17c2.61-2.2,4.83-4.31,6.66-6.33h-16.35c3.51,2.13,6.74,4.24,9.69,6.33Z"/>
        <path class="cls-3" d="M248.84,68.58c-.64,0-2.39-.09-5.26-.28l-.45-6.89c2.31.19,3.77.28,4.37.28.34,0,.53-.09.59-.28.06-.19.08-.84.08-1.96v-6.94c-1.79.41-3.44.73-4.93.95l-.5-7.62c2.95-.48,4.76-.8,5.43-.95v-10.53h-5.32v-7.17h5.32v-8.57h8.34v8.57h4.26v7.17h-4.26v8.51c.75-.19,1.98-.54,3.7-1.06l1.01,7.34c-1.83.6-3.4,1.06-4.7,1.4v8.06c0,2.5-.06,4.34-.17,5.52-.11,1.18-.48,2.15-1.09,2.91-.62.76-1.36,1.21-2.24,1.34-.88.13-2.27.2-4.17.2ZM293.25,40.35h-4.37v3.53h4.37v6.94h-4.37v7.73c0,1.68-.03,3.01-.08,3.98-.06.97-.22,1.88-.5,2.74-.28.86-.6,1.46-.95,1.82-.36.35-.95.67-1.79.95-.84.28-1.74.45-2.69.5-.95.06-2.27.08-3.95.08-1.01,0-3.23-.09-6.66-.28l-.39-6.44-2.3,1.9c-2.76-3.25-5.32-6.07-7.67-8.46l5.32-4.54h-5.6v-6.94h18.7v-3.53h-18.7v-6.94h11.42v-4.03h-10.25v-6.72h10.25v-5.1h8.74v5.1h9.74v6.72h-9.74v4.03h11.48v6.94ZM268.1,50.82c2.58,2.61,5.02,5.32,7.34,8.12l-3.03,2.52c2.05.15,3.7.22,4.93.22,1.46,0,2.31-.1,2.58-.31.26-.2.39-.89.39-2.04v-8.51h-12.21Z"/>
        <path class="cls-3" d="M310.5,57.15c5.08,1.05,8.9,1.57,11.48,1.57,7.95,0,11.93-2.35,11.93-7.06,0-3.17-2.39-4.76-7.17-4.76-4.33,0-8.23,1.29-11.7,3.86l-8.06-3.19c2.16-5.23,3.79-9.67,4.87-13.33-4.18-.07-7.8-.2-10.86-.39v-7.39c3.7.26,7.93.39,12.71.39.41-2.05.84-4.78,1.29-8.18l8.57.28c-.3,2.58-.69,5.15-1.18,7.73,8.4-.3,16-.93,22.79-1.9l.73,7.39c-8.06,1.12-16.46,1.79-25.2,2.02-.64,2.32-1.33,4.61-2.07,6.89l.11.06c2.91-1.27,6.05-1.9,9.41-1.9,5.04,0,8.77,1.03,11.2,3.08,2.43,2.05,3.64,5.17,3.64,9.35,0,4.41-1.88,7.96-5.63,10.67s-8.88,4.06-15.37,4.06c-4.41,0-8.72-.52-12.94-1.57l1.46-7.67Z"/>
      </g>
      <g>
        <path class="cls-1" d="M37.77,78.36c-1.18,0-2.39-.23-3.54-.73l-6.47-2.77c-1.7,1.75-4.03,2.72-6.44,2.72-.27,0-.55-.01-.83-.04-2.73-.25-5.19-1.73-6.69-4.01l-4.31-6.55c-2.19-3.33-1.93-7.7.64-10.75.85-1.01,1.61-2.2,2.25-3.56-2.91-1.89-4.52-5.34-4-8.87.75-5.07,1.13-10.8,1.13-17.05,0-2.55,1.08-4.97,2.97-6.68.92-.83,1.98-1.45,3.13-1.84.48-4.52,4.3-8.04,8.95-8.04h6.89c1.07,0,2.09.19,3.05.53,1.29-.7,2.75-1.09,4.28-1.09.34,0,.69.02,1.03.06l6.83.78c1.31.15,2.56.59,3.67,1.26,1.35-.8,2.92-1.26,4.6-1.26h6.02l1.55-.61c1.08-.42,2.19-.62,3.29-.62,3.3,0,6.46,1.83,8.03,4.93,1.46,2.89,2.9,6.1,4.26,9.55.72,1.83.81,3.76.35,5.54v6.62c0,2.17-.77,4.16-2.04,5.71.12.12.24.25.37.37,3.18,3.08,3.65,8.03,1.1,11.65l-1.48,2.1c.93,2.83,1.75,5.64,2.46,8.41,1.11,4.37-1.18,8.89-5.37,10.57l-6.83,2.74c-1.08.43-2.22.65-3.35.65-1.36,0-2.71-.31-3.96-.92l-4.5.82c-.54.1-1.08.15-1.62.15-1.18,0-2.35-.23-3.44-.68l-5.45.62c-.34.04-.68.06-1.02.06-.81,0-1.62-.11-2.39-.32-.99.36-2.03.55-3.1.55Z"/>
        <path class="cls-1" d="M81.02,75.84c-2.76,0-5.48-1.27-7.24-3.65l-4.76-6.44c-1.44-1.94-2.03-4.38-1.65-6.76.38-2.38,1.7-4.52,3.67-5.92,1.81-1.29,3.59-2.56,5.33-3.81-2.17-1.64-3.56-4.25-3.56-7.17v-8.12c0-3.27,1.74-6.13,4.34-7.7.02-.27.06-.53.1-.79l1.34-7.67c.41-2.36,1.76-4.46,3.73-5.84,1.52-1.06,3.31-1.61,5.14-1.61.54,0,1.09.05,1.63.15,7.55,1.39,15.61,2.38,23.96,2.95,2.43.17,4.7,1.31,6.27,3.18s2.32,4.29,2.07,6.72l-.23,2.25c1.35,1.35,2.28,3.13,2.55,5.16l1.23,9.18c.44,3.26-.93,6.49-3.58,8.44-.08.06-.16.12-.24.18.37-.05.74-.07,1.12-.07,1.88,0,3.73.59,5.27,1.71,2.03,1.47,3.36,3.71,3.66,6.2l.95,7.78c.55,4.49-2.32,8.69-6.7,9.81-3.63.93-7.49,1.4-11.48,1.4-5.43,0-9.65-.96-12.89-2.94-1.65-1.01-3.58-2.6-5.13-5.07-2.07,1.41-5.14,3.55-9.68,6.79-1.58,1.13-3.41,1.67-5.22,1.67Z"/>
        <path class="cls-1" d="M154.82,75.95c-6.51,0-11.89-1.44-16.01-4.28-4.54-3.13-7.23-7.67-7.7-12.91-1.58-.98-2.83-2.42-3.57-4.16l-3.02-7.17c-1.88-4.46.1-9.61,4.49-11.66.84-.39,1.67-.78,2.49-1.17-.65-1.25-1.02-2.67-1.02-4.17v-8.12c0-4.97,4.03-9,9-9,10.64,0,21.26-.37,31.57-1.1.22-.02.43-.02.64-.02,4.5,0,8.36,3.36,8.92,7.89l1.23,9.91c.3,2.4-.39,4.77-1.82,6.62,3.7,3.85,5.64,8.84,5.64,14.54,0,7.65-3.26,14.11-9.42,18.7-5.43,4.04-12.64,6.09-21.42,6.09Z"/>
        <path class="cls-1" d="M190.27,78.47c-3.17,0-6.21-1.68-7.84-4.58l-3.7-6.55c-1.28-2.27-1.51-4.98-.64-7.43.75-2.1,2.24-3.84,4.18-4.89-.26-.6-.45-1.23-.57-1.89-.34-1.87-.09-3.78.71-5.47-.12-.59-.19-1.2-.19-1.82v-1.82l-1.85-1.24c-2.12-1.42-3.53-3.68-3.89-6.2s.37-5.08,2.01-7.04c3.81-4.56,6.64-9.69,8.4-15.25,1.2-3.8,4.72-6.28,8.57-6.28.59,0,1.19.06,1.79.18l8.01,1.62c1.67.34,3.19,1.14,4.4,2.28h24.72c4.97,0,9,4.03,9,9v6.89c0,2.78-1.26,5.27-3.25,6.92v1.53c0,1.08-.19,2.12-.54,3.08l.7.14c4.37.87,7.44,4.81,7.23,9.25-.29,6.1-.84,10.8-1.69,14.36-1.15,4.84-2.79,8.14-5.17,10.39-1.9,1.79-5.22,3.92-10.3,3.92-2.24,0-5.66-.46-9.14-2.68l-.28.3c-1.77,1.9-4.18,2.88-6.6,2.88-2.01,0-4.03-.67-5.7-2.03-1.54-1.26-2.94-2.4-4.19-3.4-3.55,2.04-7.22,3.79-10.96,5.23-1.06.41-2.15.6-3.23.6Z"/>
        <path class="cls-1" d="M278.91,77.63c-.75,0-2.31-.03-7.15-.29-3.93-.21-7.18-2.93-8.19-6.6-.38.68-.81,1.33-1.3,1.94-2.05,2.54-4.79,4.13-7.92,4.6-1.36.2-3.1.29-5.5.29-.64,0-1.79-.04-5.85-.3-4.51-.29-8.11-3.89-8.4-8.4l-.45-6.89c-.11-1.63.24-3.25.96-4.67-.48-1.02-.78-2.12-.85-3.27l-.5-7.62c-.16-2.41.65-4.68,2.11-6.4-1.26-1.55-2.01-3.52-2.01-5.67v-7.17c0-3.66,2.18-6.81,5.32-8.22v-.35c0-4.97,4.03-9,9-9h8.34c3.13,0,5.89,1.6,7.51,4.03h.9c1.45-3.02,4.54-5.1,8.11-5.1h8.74c3.57,0,6.66,2.08,8.11,5.1h1.63c4.97,0,9,4.03,9,9v5.44c1.09,1.49,1.74,3.33,1.74,5.31v6.94c0,.6-.06,1.19-.17,1.76.11.57.17,1.16.17,1.76v6.94c0,3.28-1.75,6.14-4.37,7.72h0c0,1.87-.03,3.34-.1,4.5-.1,1.74-.41,3.42-.93,5.01-.74,2.25-1.76,4.01-3.14,5.39-1.39,1.39-3.12,2.4-5.32,3.14-1.58.53-3.27.85-5.01.95-1.13.07-2.6.1-4.47.1Z"/>
        <path class="cls-1" d="M321.98,75.39c-5.11,0-10.19-.62-15.1-1.83-4.64-1.15-7.57-5.72-6.68-10.41l1.46-7.67c.04-.18.08-.37.12-.55-1.36-.96-2.43-2.28-3.09-3.84-.94-2.22-.95-4.73-.03-6.95.2-.49.4-.97.59-1.44-4.17-.81-7.27-4.48-7.27-8.83v-7.39c0-2.5,1.04-4.88,2.87-6.58,1.67-1.56,3.87-2.42,6.13-2.42.21,0,.42,0,.64.02,1.38.1,2.85.18,4.41.24,0-.07.02-.14.03-.22.59-4.49,4.42-7.83,8.92-7.83.1,0,.2,0,.3,0l8.57.28c2.51.08,4.88,1.21,6.52,3.12,1.01,1.17,1.68,2.56,1.99,4.04,4.1-.32,7.95-.73,11.53-1.25.42-.06.85-.09,1.27-.09,2,0,3.96.67,5.56,1.92,1.93,1.52,3.16,3.75,3.4,6.2l.73,7.39c.4,4.04-1.94,7.74-5.54,9.21,1.54,2.75,2.67,6.4,2.67,11.16,0,7.34-3.24,13.55-9.36,17.97-5.3,3.82-12.24,5.76-20.64,5.76Z"/>
      </g>
      <g>
        <path d="M63.26,69.08c-1.53-5.75-3.02-10.42-4.48-14l5.6-1.62c-2.31-2.69-4.18-5.75-5.6-9.18-2.32,4.63-5.02,8.21-8.12,10.75l-5.6-5.77c4.85-3.96,7.88-8.42,9.07-13.38h-2.35c-3.1,8.06-7.69,14.47-13.78,19.21l3.98,1.34c-.04-.11-.06-.24-.06-.39s-.02-.28-.06-.39l7.06-.9c.86,5.64,1.42,10.15,1.68,13.55l-7.34.84c-.22-3.55-.62-7.5-1.18-11.87-.97,4.07-2.41,8.1-4.31,12.1l-7.06-3.02c1.34-2.69,2.54-5.54,3.58-8.57l-3.81,3.53c-.3-.56-1.14-2.03-2.52-4.42-1.61,4.85-3.83,8.75-6.66,11.7l-4.31-6.55c2.61-3.1,4.53-7.03,5.74-11.79,1.21-4.76,1.82-11.21,1.82-19.35v-11.7h6.89v12.49c.67-2.5,1.21-4.74,1.62-6.72l3.25.84c1.01-2.13,1.83-4.52,2.46-7.17l6.83.78c-.22,1.12-.54,2.37-.95,3.75h9.07v5.54h1.18v-9.24h7.73l3.14-1.23c1.34,2.65,2.65,5.58,3.92,8.79l-3.58,1.68h3.3v7.17h-5.77c1.01,4.93,3.28,9.11,6.83,12.54l-4.14,5.88c1.49,4.07,2.74,8.08,3.75,12.04l-6.83,2.74ZM17.28,45.11c.82-5.52,1.23-11.65,1.23-18.37l4.93.5c0,7.54-.49,14.13-1.46,19.77l-4.7-1.9ZM35.31,54.52l-2.52-5.21c1.57-1.01,3.06-2.22,4.48-3.64-1.87-1.79-3.27-3.1-4.2-3.92-.15.45-.41,1.12-.78,2.02l-1.46-.84c-.22,1.98-.41,3.47-.56,4.48,1.49,2.5,3.08,5.21,4.76,8.12.04-.11.08-.28.14-.5.06-.22.1-.39.14-.5ZM36.54,37.05l-1.29-2.35c-.6,2.09-1.25,4.18-1.96,6.27l3.25-3.92ZM42.42,38.95c-1.42-1.34-2.48-2.33-3.19-2.97l-1.18,2.02c1.34,1.27,2.37,2.24,3.08,2.91.48-.67.91-1.32,1.29-1.96ZM45.17,33.18c.56-1.6.95-2.87,1.18-3.81h-3.86c-.04.08-.1.22-.2.42-.09.21-.16.36-.2.48.04.04.46.44,1.26,1.2.8.77,1.41,1.34,1.82,1.71ZM53.18,69.14c-.86-5.38-1.76-9.82-2.69-13.33l7.06-1.34c1.12,4.26,2.11,8.7,2.97,13.33l-7.34,1.34ZM62.86,27.36v1.34h2.52c-1.16-2.84-2-4.83-2.52-5.99v4.65Z"/>
        <path d="M81.79,33.97c10.75,0,21.75-.67,32.98-2.02l1.23,9.18c-2.99,2.2-6.48,4.91-10.47,8.12l.06.06h.11c2.35,0,3.79,1.49,4.31,4.48.37,1.98.9,3.22,1.57,3.72.67.5,2.07.76,4.2.76,1.68,0,3.83-.26,6.44-.78l.95,7.78c-2.91.75-5.99,1.12-9.24,1.12-3.7,0-6.43-.54-8.2-1.62-1.77-1.08-2.9-2.87-3.39-5.38-.3-1.64-.65-2.71-1.06-3.19-.41-.48-1.08-.73-2.02-.73s-2.48.66-4.65,1.99c-2.17,1.33-6.7,4.45-13.61,9.38l-4.76-6.44c10.27-7.32,19.43-13.94,27.5-19.88v-.11c-6.61,1.12-13.93,1.68-21.95,1.68v-8.12ZM87.45,19.35c7.91,1.46,16.24,2.48,24.98,3.08l-.78,7.67c-8.36-.6-16.88-1.62-25.54-3.08l1.34-7.67Z"/>
        <path d="M139.47,22.32c10.9,0,21.63-.37,32.2-1.12l1.23,9.91c-2.91,1.79-7.82,4.37-14.73,7.73l.06.11c1.16-.26,2.26-.39,3.3-.39,4.7,0,8.4,1.15,11.09,3.44,2.69,2.3,4.03,5.35,4.03,9.16,0,4.78-1.93,8.61-5.8,11.48-3.86,2.87-9.21,4.31-16.04,4.31-4.67,0-8.3-.9-10.89-2.69-2.6-1.79-3.89-4.18-3.89-7.17,0-2.43,1.13-4.49,3.39-6.19,2.26-1.7,5.14-2.55,8.65-2.55,3.88,0,6.81.75,8.79,2.24,1.98,1.49,2.97,3.62,2.97,6.38v.84c2.5-1.49,3.75-3.55,3.75-6.16,0-2.2-.91-3.93-2.72-5.18-1.81-1.25-4.55-1.88-8.2-1.88-2.69,0-5.51.45-8.46,1.34-2.95.9-7.08,2.61-12.38,5.15l-3.02-7.17c10.98-5.11,20.5-10.04,28.56-14.78l-.06-.11c-7.28.93-14.56,1.4-21.84,1.4v-8.12ZM155.94,59.73c.22-.86.34-1.59.34-2.18,0-.97-.32-1.68-.95-2.13-.64-.45-1.72-.67-3.25-.67-2.69,0-4.03.73-4.03,2.18,0,1.9,2.3,2.86,6.89,2.86.11,0,.28,0,.5-.03.22-.02.39-.03.5-.03Z"/>
        <path d="M185.39,35.31c4.59-5.49,7.95-11.59,10.08-18.31l8.01,1.62c-.3,1.12-.54,1.94-.73,2.46h31.64v6.89h-34.55c-.6,1.2-1.06,2.09-1.4,2.69h32.7v5.77h-33.49v-4.42c-1.61,2.65-3.29,5.02-5.04,7.11h34.61v1.74c0,3.88.17,7.22.5,10,.34,2.78.7,4.72,1.09,5.82.39,1.1.78,1.65,1.15,1.65.19,0,.34-.19.45-.56.11-.37.26-1.41.45-3.11.19-1.7.41-4.23.67-7.59l7,1.4c-.26,5.49-.75,9.73-1.46,12.71s-1.58,4.96-2.6,5.94c-1.03.97-2.4,1.46-4.12,1.46-3.32,0-6.1-1.91-8.32-5.74-2.22-3.83-3.41-9.49-3.56-17h-6.21l5.1,4.65c-1.94,2.31-4.03,4.44-6.27,6.38,1.57,1.23,4.33,3.49,8.29,6.78l-5.04,5.43c-4.11-3.36-7.21-5.84-9.3-7.45-4.7,3.25-9.63,5.86-14.78,7.84l-3.7-6.55c4.07-1.6,8.04-3.66,11.93-6.16-2.46-1.75-5.12-3.51-7.95-5.26l4.31-5.66h-3.64v-6.61l-5.82-3.92ZM204.77,52.17c2.61-2.2,4.83-4.31,6.66-6.33h-16.35c3.51,2.13,6.74,4.24,9.69,6.33Z"/>
        <path d="M248.84,68.58c-.64,0-2.39-.09-5.26-.28l-.45-6.89c2.31.19,3.77.28,4.37.28.34,0,.53-.09.59-.28.06-.19.08-.84.08-1.96v-6.94c-1.79.41-3.44.73-4.93.95l-.5-7.62c2.95-.48,4.76-.8,5.43-.95v-10.53h-5.32v-7.17h5.32v-8.57h8.34v8.57h4.26v7.17h-4.26v8.51c.75-.19,1.98-.54,3.7-1.06l1.01,7.34c-1.83.6-3.4,1.06-4.7,1.4v8.06c0,2.5-.06,4.34-.17,5.52-.11,1.18-.48,2.15-1.09,2.91-.62.76-1.36,1.21-2.24,1.34-.88.13-2.27.2-4.17.2ZM293.25,40.35h-4.37v3.53h4.37v6.94h-4.37v7.73c0,1.68-.03,3.01-.08,3.98-.06.97-.22,1.88-.5,2.74-.28.86-.6,1.46-.95,1.82-.36.35-.95.67-1.79.95-.84.28-1.74.45-2.69.5-.95.06-2.27.08-3.95.08-1.01,0-3.23-.09-6.66-.28l-.39-6.44-2.3,1.9c-2.76-3.25-5.32-6.07-7.67-8.46l5.32-4.54h-5.6v-6.94h18.7v-3.53h-18.7v-6.94h11.42v-4.03h-10.25v-6.72h10.25v-5.1h8.74v5.1h9.74v6.72h-9.74v4.03h11.48v6.94ZM268.1,50.82c2.58,2.61,5.02,5.32,7.34,8.12l-3.03,2.52c2.05.15,3.7.22,4.93.22,1.46,0,2.31-.1,2.58-.31.26-.2.39-.89.39-2.04v-8.51h-12.21Z"/>
        <path d="M310.5,57.15c5.08,1.05,8.9,1.57,11.48,1.57,7.95,0,11.93-2.35,11.93-7.06,0-3.17-2.39-4.76-7.17-4.76-4.33,0-8.23,1.29-11.7,3.86l-8.06-3.19c2.16-5.23,3.79-9.67,4.87-13.33-4.18-.07-7.8-.2-10.86-.39v-7.39c3.7.26,7.93.39,12.71.39.41-2.05.84-4.78,1.29-8.18l8.57.28c-.3,2.58-.69,5.15-1.18,7.73,8.4-.3,16-.93,22.79-1.9l.73,7.39c-8.06,1.12-16.46,1.79-25.2,2.02-.64,2.32-1.33,4.61-2.07,6.89l.11.06c2.91-1.27,6.05-1.9,9.41-1.9,5.04,0,8.77,1.03,11.2,3.08,2.43,2.05,3.64,5.17,3.64,9.35,0,4.41-1.88,7.96-5.63,10.67s-8.88,4.06-15.37,4.06c-4.41,0-8.72-.52-12.94-1.57l1.46-7.67Z"/>
      </g>
    </g>
    <g>
      <g>
        <path class="cls-3" d="M32.18,121.19v26.04h-8.51v-18.59c-1.68,2.05-3.16,3.57-4.42,4.54l-2.02-9.3c2.8-2.09,5.13-4.15,7-6.19,1.87-2.03,3.81-4.6,5.82-7.7l6.83,4.03c-1.38,2.54-2.95,4.93-4.7,7.17ZM21.31,113.47l-3.3-7.28c2.54-1.53,4.68-3.04,6.41-4.54,1.74-1.49,3.52-3.34,5.35-5.54l6.05,4.37c-2.2,2.88-4.37,5.26-6.5,7.17-2.13,1.9-4.8,3.85-8.01,5.82ZM69.86,112.63v7.39h-7.95v16.63c0,2.5-.08,4.34-.22,5.52-.15,1.18-.6,2.15-1.34,2.91-.75.76-1.67,1.21-2.77,1.34-1.1.13-2.85.2-5.24.2-1.94,0-4.84-.09-8.68-.28l-.45-7.39c4.67.19,7.17.28,7.5.28,1.04,0,1.68-.1,1.9-.31.22-.2.34-.85.34-1.93v-16.97h-15.46v-7.39h32.37ZM38.22,105.96v-7.39h29.4v7.39h-29.4Z"/>
        <path class="cls-3" d="M75.41,99.24c8.62-.3,17.32-1.06,26.1-2.3l.78,6.16c-2.99.37-5.97.69-8.96.95v2.52h8.85v1.23h3.98c.07-2.2.11-5.86.11-10.98h7.34c0,3.96-.06,7.62-.17,10.98h11.59v5.21c0,4.22,0,7.76-.03,10.61-.02,2.86-.09,5.54-.22,8.04-.13,2.5-.26,4.48-.39,5.94-.13,1.46-.36,2.78-.7,3.98s-.65,2.06-.95,2.6c-.3.54-.76.99-1.37,1.34-.62.35-1.2.56-1.76.62s-1.33.08-2.3.08c-2.17,0-4.7-.17-7.62-.5l-.17-7.67c2.58.37,4.26.56,5.04.56.56,0,.97-.35,1.23-1.06.26-.71.48-2.5.64-5.38.17-2.87.25-7.2.25-12.99v-4.2h-3.53c-.49,8.03-1.39,14.46-2.72,19.29-1.33,4.84-3.26,9.17-5.8,13.02l-3.19-2.3c-8.48.82-17.4,1.42-26.77,1.79l-.45-6.5c1.83-.07,5.41-.22,10.75-.45v-1.9h-9.91v-5.77h9.91v-1.68h-9.07v-16.52h9.07v-1.68h-10.25v-5.71h10.25v-1.85c-1.83.11-4.87.26-9.13.45l-.45-5.94ZM82.46,120.58h2.86v-2.13h-2.86v2.13ZM82.46,123.88v2.13h2.86v-2.13h-2.86ZM92.99,120.58h2.8v-2.13h-2.8v2.13ZM92.99,126.01h2.8v-2.13h-2.8v2.13ZM93.33,113.97h7.67v-1.68h-7.67v1.68ZM93.33,130.49v1.68h8.06v5.54c2.31-5.08,3.79-12.66,4.42-22.74h-3.86v15.51h-8.62ZM93.33,139.39c.67-.04,1.87-.1,3.58-.2,1.72-.09,3-.18,3.86-.25l.5-1.01h-7.95v1.46Z"/>
        <path class="cls-3" d="M159.24,136.15c7.84-1.98,11.76-6.64,11.76-14,0-3.06-.85-5.65-2.55-7.76-1.7-2.11-4-3.5-6.92-4.17-2.95,20.46-8.96,30.69-18.03,30.69-3.02,0-5.76-1.52-8.2-4.56-2.45-3.04-3.67-6.8-3.67-11.28,0-6.91,2.35-12.5,7.06-16.77,4.7-4.27,11.01-6.41,18.93-6.41,6.61,0,11.99,1.89,16.16,5.66,4.16,3.77,6.24,8.64,6.24,14.62s-1.59,10.49-4.76,14.22c-3.17,3.73-7.65,6.22-13.44,7.45l-2.58-7.67ZM152.46,110.27c-3.85.82-6.84,2.49-8.99,5.01-2.15,2.52-3.22,5.61-3.22,9.27,0,2.17.37,3.97,1.12,5.4.75,1.44,1.53,2.16,2.35,2.16.67,0,1.36-.37,2.07-1.12.71-.75,1.45-1.92,2.21-3.53.76-1.6,1.53-3.87,2.3-6.8.76-2.93,1.48-6.39,2.16-10.39Z"/>
        <path class="cls-3" d="M188.14,114.08c2.99-5.11,5.38-10.79,7.17-17.02l7.84,1.57c-.45,1.87-.82,3.27-1.12,4.2h6.16v-5.82h8.96v5.82h16.24v7.17h-16.24v7.11h19.43v7.39h-13.61v12.82c0,.97.13,1.55.39,1.74.26.19,1.12.28,2.58.28,1.64,0,2.63-.37,2.97-1.12.34-.75.62-3.23.84-7.45l7.45.73c-.11,2.65-.23,4.7-.37,6.16s-.38,2.84-.76,4.14c-.37,1.31-.76,2.22-1.15,2.74-.39.52-1.07.99-2.04,1.4-.97.41-1.97.64-3,.7-1.03.06-2.49.08-4.4.08-2.65,0-4.66-.08-6.02-.22-1.36-.15-2.47-.53-3.33-1.15-.86-.62-1.39-1.38-1.6-2.3-.21-.91-.31-2.27-.31-4.06v-14.5h-4.14c-1.23,11.91-7.97,19.56-20.22,22.96l-3.36-7.5c4.37-1.19,7.89-3.15,10.56-5.88,2.67-2.72,4.23-5.92,4.68-9.58h-14.67v-7.39h7.73l-6.66-3.02ZM199.45,109.99c-1.05,2.39-2.22,4.76-3.53,7.11h12.26v-7.11h-8.74Z"/>
        <path class="cls-3" d="M258.14,100.42c-1.87,6.8-2.8,14.04-2.8,21.73s.93,14.93,2.8,21.73l-9.07.95c-1.87-7.13-2.8-14.69-2.8-22.68s.93-15.55,2.8-22.68l9.07.95ZM290.11,140.79c-4.37,1.12-8.79,1.68-13.27,1.68-5.15,0-9.1-.97-11.84-2.91-2.74-1.94-4.12-4.74-4.12-8.4,0-1.83.66-3.85,1.99-6.08,1.32-2.22,3.09-4.19,5.29-5.91l6.16,4.76c-1.79,1.68-3.02,3.04-3.7,4.09-.67,1.05-1.01,2.02-1.01,2.91,0,2.13,2.41,3.19,7.22,3.19,3.47,0,7.49-.48,12.04-1.46l1.23,8.12ZM264.13,105.35c7.91,0,16.03-.56,24.36-1.68l.5,8.12c-9.18,1.12-17.47,1.68-24.86,1.68v-8.12Z"/>
        <path class="cls-3" d="M303.55,99.47l8.57.95c-1.87,6.8-2.8,14.04-2.8,21.73s.93,14.93,2.8,21.73l-8.57.95c-1.87-7.13-2.8-14.69-2.8-22.68s.93-15.55,2.8-22.68ZM329.76,108.26c.04-2.61.19-5.77.45-9.46h8.57c-.19,2.69-.32,5.62-.39,8.79,4.18-.45,7.28-.82,9.3-1.12l.45,7.9c-2.13.3-5.4.67-9.8,1.12.04,1.83.09,3.73.17,5.71.08,1.57.15,3.88.22,6.94,2.16,1.68,5.41,4.7,9.74,9.07l-5.82,5.38c-2.58-2.58-4.09-4.07-4.54-4.48-.75,2.17-2.08,3.83-4,4.98s-4.3,1.74-7.14,1.74c-3.92,0-7.03-.96-9.32-2.88s-3.44-4.51-3.44-7.76,1.14-5.72,3.42-7.64c2.28-1.92,5.39-2.88,9.35-2.88,1.16,0,2.18.08,3.08.22-.04-.34-.08-.85-.11-1.54-.04-.69-.06-1.2-.06-1.54,0-.52,0-1.3-.03-2.32-.02-1.03-.05-1.8-.08-2.32-4.89.3-9.46.45-13.72.45v-7.9c4.18,0,8.75-.15,13.72-.45ZM330.21,132c-1.16-.48-2.39-.73-3.7-.73s-2.36.27-3.05.81c-.69.54-1.04,1.24-1.04,2.1,0,1.98,1.36,2.97,4.09,2.97,1.31,0,2.25-.31,2.83-.92.58-.62.87-1.63.87-3.05v-1.18Z"/>
      </g>
      <g>
        <path class="cls-1" d="M23.66,156.23c-4.97,0-9-4.03-9-9v-6.31c-2.14-1.26-3.68-3.37-4.22-5.84l-2.02-9.3c-.75-3.45.59-7.01,3.41-9.12.26-.2.52-.39.78-.59l-2.8-6.18c-1.89-4.16-.36-9.07,3.55-11.43,2.1-1.26,3.84-2.49,5.19-3.65,1.35-1.16,2.79-2.66,4.29-4.47,1.77-2.14,4.34-3.25,6.93-3.25,1.83,0,3.67.56,5.26,1.7l1.32.95c.6-.13,1.23-.19,1.87-.19h29.4c4.97,0,9,4.03,9,9v7.39c0,.23,0,.46-.03.69,1.41,1.59,2.27,3.68,2.27,5.97v7.39c0,4.62-3.48,8.42-7.95,8.94v7.69c0,2.94-.09,5.06-.3,6.65-.4,3.11-1.72,5.9-3.83,8.06-2.19,2.24-5.01,3.62-8.15,4-1.5.18-3.5.26-6.3.26-2.1,0-5.08-.09-9.12-.29-1.77-.09-3.41-.68-4.77-1.64-1.62,1.58-3.84,2.55-6.28,2.55h-8.51ZM41.18,130.18c.66-.15,1.34-.23,2.03-.23.12,0,.24,0,.36,0,.13,0,.26.01.38.02v-.95h-2.78v1.16Z"/>
        <path class="cls-1" d="M104.64,156.29c-1.87,0-3.71-.58-5.26-1.69l-.46-.33c-7.61.68-15.63,1.18-23.89,1.51-.12,0-.24,0-.36,0-4.71,0-8.65-3.65-8.97-8.38l-.45-6.5c-.11-1.53.18-3.05.82-4.42v-4.32c0-1.36.3-2.65.84-3.8v-11.63c-.75-1.31-1.18-2.83-1.18-4.45v-5.71c0-1.41.32-2.75.9-3.93l-.21-2.72c-.18-2.44.64-4.86,2.27-6.68,1.64-1.83,3.94-2.9,6.39-2.99,8.27-.29,16.73-1.03,25.16-2.21.42-.06.84-.09,1.25-.09.73,0,1.46.09,2.17.27.82-.25,1.69-.38,2.59-.38h7.34c4.97,0,9,4.03,9,9,0,.67,0,1.32,0,1.98h2.43c4.97,0,9,4.03,9,9v5.21c0,4.24,0,7.8-.03,10.67-.02,2.99-.1,5.83-.24,8.45-.14,2.65-.27,4.7-.42,6.27-.18,2.01-.52,3.89-1,5.61-.53,1.9-1.09,3.33-1.73,4.51-1.09,1.97-2.73,3.63-4.75,4.8-1.74,1-3.54,1.59-5.37,1.78-.87.09-1.91.13-3.19.13-2.27,0-4.79-.15-7.66-.45-1.01.67-2.15,1.14-3.37,1.37-.54.1-1.09.15-1.63.15Z"/>
        <path class="cls-1" d="M161.81,152.82c-3.58,0-6.88-2.15-8.29-5.52-2.99,1.73-6.33,2.6-10.01,2.6-4.04,0-9.96-1.38-15.22-7.93-3.75-4.66-5.65-10.36-5.65-16.92,0-9.38,3.46-17.48,10-23.43,6.39-5.81,14.8-8.75,24.98-8.75,8.88,0,16.35,2.69,22.2,7.99,6.02,5.46,9.2,12.82,9.2,21.29,0,7.92-2.32,14.66-6.9,20.05-4.48,5.27-10.67,8.77-18.42,10.42-.63.13-1.26.2-1.88.2Z"/>
        <path class="cls-1" d="M189.87,156.46c-3.47,0-6.73-2.02-8.21-5.32l-3.36-7.5c-1.07-2.4-1.05-5.15.08-7.52.82-1.73,2.16-3.14,3.81-4.05-2.48-1.6-4.12-4.39-4.12-7.56v-7.39c0-1.62.43-3.14,1.18-4.46.17-1.08.55-2.14,1.11-3.11,2.6-4.45,4.71-9.48,6.29-14.97,1.13-3.92,4.71-6.52,8.64-6.52.58,0,1.18.06,1.77.18l6.19,1.24c1.42-.93,3.11-1.47,4.93-1.47h8.96c3.85,0,7.14,2.42,8.42,5.82h7.82c4.97,0,9,4.03,9,9,0,0,0,7.32,0,7.4,1.95,1.65,3.19,4.12,3.19,6.88v7.39c0,.97-.15,1.9-.44,2.77.73,1.37,1.12,2.95,1.04,4.61-.12,2.83-.25,4.98-.39,6.58-.18,2.01-.54,3.97-1.07,5.81-.69,2.42-1.52,4.22-2.6,5.66-1.36,1.82-3.29,3.26-5.74,4.29-1.94.82-3.96,1.29-6.02,1.4-1.2.07-2.79.1-4.88.1-3,0-5.29-.09-6.99-.28-2.92-.32-5.48-1.26-7.61-2.78-1.54-1.1-2.78-2.44-3.68-3.98-4.02,3.3-9.02,5.8-14.93,7.44-.8.22-1.61.33-2.41.33Z"/>
        <path class="cls-1" d="M249.06,153.83c-4.05,0-7.65-2.73-8.7-6.72-2.05-7.84-3.09-16.24-3.09-24.96s1.04-17.12,3.09-24.96c1.04-3.99,4.65-6.72,8.7-6.72.31,0,.63.02.95.05l9.07.95c2.63.28,5,1.69,6.49,3.88.22.32.41.65.59.99,6.85-.09,13.95-.62,21.13-1.59.4-.05.8-.08,1.2-.08,2.07,0,4.09.71,5.71,2.04,1.93,1.59,3.12,3.9,3.27,6.4l.5,8.12c.29,4.75-3.17,8.91-7.89,9.49-2.42.29-4.79.55-7.1.77.18.65.29,1.33.33,2.01.02.35.01.71-.01,1.06,1.18-.19,2.42-.42,3.71-.69.62-.13,1.25-.2,1.88-.2,1.81,0,3.6.55,5.12,1.6,2.04,1.41,3.41,3.6,3.78,6.05l1.23,8.12c.69,4.57-2.19,8.92-6.66,10.07-5.08,1.3-10.3,1.96-15.51,1.96-4.53,0-8.44-.6-11.79-1.83-1.49,1.79-3.63,2.94-5.97,3.18l-9.07.95c-.32.03-.63.05-.95.05Z"/>
        <path class="cls-1" d="M303.55,153.83c-4.05,0-7.65-2.73-8.7-6.72-2.05-7.84-3.09-16.24-3.09-24.96s1.04-17.12,3.09-24.96c1.05-3.99,4.65-6.72,8.7-6.72.33,0,.67.02,1,.06l8.57.95c2.62.29,4.98,1.71,6.46,3.89.87,1.29,1.39,2.76,1.52,4.27.01,0,.03,0,.04,0,.03-.48.07-.97.1-1.48.33-4.71,4.25-8.36,8.98-8.36h8.57c2.5,0,4.88,1.04,6.58,2.86,1.25,1.34,2.05,3.02,2.32,4.81h0c2.06,0,4.07.71,5.68,2.02,1.96,1.6,3.16,3.94,3.3,6.47l.45,7.9c.26,4.67-3.1,8.77-7.73,9.42-.53.08-1.13.15-1.79.24,0,.12,0,.25.01.37,2.01,1.81,4.41,4.13,7.25,6.99,1.72,1.73,2.66,4.09,2.61,6.54s-1.1,4.76-2.89,6.42l-5.82,5.38c-1.73,1.59-3.92,2.39-6.1,2.39-1.3,0-2.6-.28-3.81-.84-.03.02-.06.04-.1.06-3.34,2.01-7.3,3.02-11.78,3.02-3.92,0-7.42-.7-10.48-2.08-1.03.57-2.17.94-3.37,1.07l-8.57.95c-.34.04-.67.06-1,.06Z"/>
      </g>
      <g>
        <path d="M32.18,121.19v26.04h-8.51v-18.59c-1.68,2.05-3.16,3.57-4.42,4.54l-2.02-9.3c2.8-2.09,5.13-4.15,7-6.19,1.87-2.03,3.81-4.6,5.82-7.7l6.83,4.03c-1.38,2.54-2.95,4.93-4.7,7.17ZM21.31,113.47l-3.3-7.28c2.54-1.53,4.68-3.04,6.41-4.54,1.74-1.49,3.52-3.34,5.35-5.54l6.05,4.37c-2.2,2.88-4.37,5.26-6.5,7.17-2.13,1.9-4.8,3.85-8.01,5.82ZM69.86,112.63v7.39h-7.95v16.63c0,2.5-.08,4.34-.22,5.52-.15,1.18-.6,2.15-1.34,2.91-.75.76-1.67,1.21-2.77,1.34-1.1.13-2.85.2-5.24.2-1.94,0-4.84-.09-8.68-.28l-.45-7.39c4.67.19,7.17.28,7.5.28,1.04,0,1.68-.1,1.9-.31.22-.2.34-.85.34-1.93v-16.97h-15.46v-7.39h32.37ZM38.22,105.96v-7.39h29.4v7.39h-29.4Z"/>
        <path d="M75.41,99.24c8.62-.3,17.32-1.06,26.1-2.3l.78,6.16c-2.99.37-5.97.69-8.96.95v2.52h8.85v1.23h3.98c.07-2.2.11-5.86.11-10.98h7.34c0,3.96-.06,7.62-.17,10.98h11.59v5.21c0,4.22,0,7.76-.03,10.61-.02,2.86-.09,5.54-.22,8.04-.13,2.5-.26,4.48-.39,5.94-.13,1.46-.36,2.78-.7,3.98s-.65,2.06-.95,2.6c-.3.54-.76.99-1.37,1.34-.62.35-1.2.56-1.76.62s-1.33.08-2.3.08c-2.17,0-4.7-.17-7.62-.5l-.17-7.67c2.58.37,4.26.56,5.04.56.56,0,.97-.35,1.23-1.06.26-.71.48-2.5.64-5.38.17-2.87.25-7.2.25-12.99v-4.2h-3.53c-.49,8.03-1.39,14.46-2.72,19.29-1.33,4.84-3.26,9.17-5.8,13.02l-3.19-2.3c-8.48.82-17.4,1.42-26.77,1.79l-.45-6.5c1.83-.07,5.41-.22,10.75-.45v-1.9h-9.91v-5.77h9.91v-1.68h-9.07v-16.52h9.07v-1.68h-10.25v-5.71h10.25v-1.85c-1.83.11-4.87.26-9.13.45l-.45-5.94ZM82.46,120.58h2.86v-2.13h-2.86v2.13ZM82.46,123.88v2.13h2.86v-2.13h-2.86ZM92.99,120.58h2.8v-2.13h-2.8v2.13ZM92.99,126.01h2.8v-2.13h-2.8v2.13ZM93.33,113.97h7.67v-1.68h-7.67v1.68ZM93.33,130.49v1.68h8.06v5.54c2.31-5.08,3.79-12.66,4.42-22.74h-3.86v15.51h-8.62ZM93.33,139.39c.67-.04,1.87-.1,3.58-.2,1.72-.09,3-.18,3.86-.25l.5-1.01h-7.95v1.46Z"/>
        <path d="M159.24,136.15c7.84-1.98,11.76-6.64,11.76-14,0-3.06-.85-5.65-2.55-7.76-1.7-2.11-4-3.5-6.92-4.17-2.95,20.46-8.96,30.69-18.03,30.69-3.02,0-5.76-1.52-8.2-4.56-2.45-3.04-3.67-6.8-3.67-11.28,0-6.91,2.35-12.5,7.06-16.77,4.7-4.27,11.01-6.41,18.93-6.41,6.61,0,11.99,1.89,16.16,5.66,4.16,3.77,6.24,8.64,6.24,14.62s-1.59,10.49-4.76,14.22c-3.17,3.73-7.65,6.22-13.44,7.45l-2.58-7.67ZM152.46,110.27c-3.85.82-6.84,2.49-8.99,5.01-2.15,2.52-3.22,5.61-3.22,9.27,0,2.17.37,3.97,1.12,5.4.75,1.44,1.53,2.16,2.35,2.16.67,0,1.36-.37,2.07-1.12.71-.75,1.45-1.92,2.21-3.53.76-1.6,1.53-3.87,2.3-6.8.76-2.93,1.48-6.39,2.16-10.39Z"/>
        <path d="M188.14,114.08c2.99-5.11,5.38-10.79,7.17-17.02l7.84,1.57c-.45,1.87-.82,3.27-1.12,4.2h6.16v-5.82h8.96v5.82h16.24v7.17h-16.24v7.11h19.43v7.39h-13.61v12.82c0,.97.13,1.55.39,1.74.26.19,1.12.28,2.58.28,1.64,0,2.63-.37,2.97-1.12.34-.75.62-3.23.84-7.45l7.45.73c-.11,2.65-.23,4.7-.37,6.16s-.38,2.84-.76,4.14c-.37,1.31-.76,2.22-1.15,2.74-.39.52-1.07.99-2.04,1.4-.97.41-1.97.64-3,.7-1.03.06-2.49.08-4.4.08-2.65,0-4.66-.08-6.02-.22-1.36-.15-2.47-.53-3.33-1.15-.86-.62-1.39-1.38-1.6-2.3-.21-.91-.31-2.27-.31-4.06v-14.5h-4.14c-1.23,11.91-7.97,19.56-20.22,22.96l-3.36-7.5c4.37-1.19,7.89-3.15,10.56-5.88,2.67-2.72,4.23-5.92,4.68-9.58h-14.67v-7.39h7.73l-6.66-3.02ZM199.45,109.99c-1.05,2.39-2.22,4.76-3.53,7.11h12.26v-7.11h-8.74Z"/>
        <path d="M258.14,100.42c-1.87,6.8-2.8,14.04-2.8,21.73s.93,14.93,2.8,21.73l-9.07.95c-1.87-7.13-2.8-14.69-2.8-22.68s.93-15.55,2.8-22.68l9.07.95ZM290.11,140.79c-4.37,1.12-8.79,1.68-13.27,1.68-5.15,0-9.1-.97-11.84-2.91-2.74-1.94-4.12-4.74-4.12-8.4,0-1.83.66-3.85,1.99-6.08,1.32-2.22,3.09-4.19,5.29-5.91l6.16,4.76c-1.79,1.68-3.02,3.04-3.7,4.09-.67,1.05-1.01,2.02-1.01,2.91,0,2.13,2.41,3.19,7.22,3.19,3.47,0,7.49-.48,12.04-1.46l1.23,8.12ZM264.13,105.35c7.91,0,16.03-.56,24.36-1.68l.5,8.12c-9.18,1.12-17.47,1.68-24.86,1.68v-8.12Z"/>
        <path d="M303.55,99.47l8.57.95c-1.87,6.8-2.8,14.04-2.8,21.73s.93,14.93,2.8,21.73l-8.57.95c-1.87-7.13-2.8-14.69-2.8-22.68s.93-15.55,2.8-22.68ZM329.76,108.26c.04-2.61.19-5.77.45-9.46h8.57c-.19,2.69-.32,5.62-.39,8.79,4.18-.45,7.28-.82,9.3-1.12l.45,7.9c-2.13.3-5.4.67-9.8,1.12.04,1.83.09,3.73.17,5.71.08,1.57.15,3.88.22,6.94,2.16,1.68,5.41,4.7,9.74,9.07l-5.82,5.38c-2.58-2.58-4.09-4.07-4.54-4.48-.75,2.17-2.08,3.83-4,4.98s-4.3,1.74-7.14,1.74c-3.92,0-7.03-.96-9.32-2.88s-3.44-4.51-3.44-7.76,1.14-5.72,3.42-7.64c2.28-1.92,5.39-2.88,9.35-2.88,1.16,0,2.18.08,3.08.22-.04-.34-.08-.85-.11-1.54-.04-.69-.06-1.2-.06-1.54,0-.52,0-1.3-.03-2.32-.02-1.03-.05-1.8-.08-2.32-4.89.3-9.46.45-13.72.45v-7.9c4.18,0,8.75-.15,13.72-.45ZM330.21,132c-1.16-.48-2.39-.73-3.7-.73s-2.36.27-3.05.81c-.69.54-1.04,1.24-1.04,2.1,0,1.98,1.36,2.97,4.09,2.97,1.31,0,2.25-.31,2.83-.92.58-.62.87-1.63.87-3.05v-1.18Z"/>
      </g>
    </g>
    <g>
      <g>
        <path class="cls-3" d="M26.69,174.66h7.67v11.7c0,1.01-.04,2.41-.11,4.2.78-2.58,1.53-5.54,2.24-8.9l5.21,1.23c-.52,2.54-.93,4.41-1.23,5.6,2.8-4.48,4.91-9.63,6.33-15.46l8.12.9c-.45,1.87-.99,3.72-1.62,5.54h16.86c-.08,7.5-.17,13.59-.28,18.26-.11,4.67-.32,8.77-.62,12.32-.3,3.55-.6,6.16-.9,7.84-.3,1.68-.8,3.03-1.51,4.06-.71,1.03-1.39,1.62-2.04,1.79-.65.17-1.62.25-2.88.25-2.5,0-6.66-.11-12.49-.34l-.45-7.39c3.47.19,6.46.28,8.96.28.71,0,1.22-.18,1.54-.53.32-.35.63-1.53.95-3.53.32-2,.55-4.91.7-8.74.15-3.83.32-9.45.5-16.88h-11.26c-1.2,2.61-2.46,4.98-3.81,7.11l5.82-2.46c2.43,4.48,4.59,9.54,6.5,15.18l-7.11,2.58c-1.68-4.89-3.7-9.56-6.05-14-.6.9-1.34,1.9-2.24,3.02l-4.48-4.48c-.71,2.32-1.49,4.57-2.35,6.78l-3.08-1.51c-.04.19-.08.47-.14.84-.06.37-.08.64-.08.78,3.55,5.49,6.68,10.7,9.41,15.62l-5.6,5.21c-1.87-3.47-3.9-7.06-6.1-10.75-1.83,5.64-4.35,10.06-7.56,13.27l-5.1-6.55c2.8-3.14,4.88-7.17,6.24-12.1,1.36-4.93,2.04-11.27,2.04-19.04v-11.7ZM18.62,200.42c.9-5.6,1.34-11.72,1.34-18.37l5.6.67c0,7.43-.52,14.02-1.57,19.77l-5.38-2.07Z"/>
        <path class="cls-3" d="M137.12,195.05l4.31,2.35c-.15,4.63-.79,8.06-1.93,10.3-1.14,2.24-2.57,3.36-4.28,3.36-1.42,0-2.61-.49-3.58-1.48-.97-.99-1.76-2.77-2.35-5.35l-2.97,4.37c-1.08-1.46-2.37-3.06-3.86-4.82-1.38,3.44-3.25,6.33-5.6,8.68l-3.92-4.7.17,2.02c-4,.6-9.48,1.2-16.46,1.79l6.05,2.8c-1.94,3.51-4.29,7-7.06,10.47l-6.83-3.92c2.65-3.21,4.91-6.29,6.78-9.24-.67.08-1.64.16-2.91.25-1.27.09-2.2.16-2.8.2l-.73-6.72c3.92-.22,6.81-.41,8.68-.56v-2.18h-5.88v-3.47c-.37.19-.97.43-1.79.73l-2.02-6.33c2.76-.93,4.78-2.15,6.05-3.64h-4.87v-6.16h8.51v-1.46h-6.94v-5.71h6.94v-3.3h8.46v3.3h7.11v1.62h4.54v-4.93h7.45v4.93h10.02c0,15.49.37,23.24,1.12,23.24.15,0,.35-2.15.62-6.44ZM95.79,196.95h3.47v-3.42c-.93,1.27-2.09,2.41-3.47,3.42ZM100.1,192.19h3.14v-2.24h-2.18c-.19.67-.5,1.42-.95,2.24ZM105.76,224.56c-.37-3.36-.95-7.06-1.74-11.09l7.9-.78c.93,4.03,1.59,7.75,1.96,11.14l-8.12.73ZM113.1,183.79v-1.46h-6.83v1.46h6.83ZM113.54,196.95v5.71h-7.28v1.51c2.43-.22,4.54-.45,6.33-.67l.11,1.51c1.79-1.83,3.08-4.26,3.86-7.28-.67-.6-1.48-1.25-2.41-1.96-.6.04-1.64.06-3.14.06-2.43,0-4.01-.04-4.76-.11v1.23h7.28ZM112.54,189.95h-2.41v.62c0,.49.06.77.17.84.11.08.43.11.95.11.56,0,.9-.07,1.04-.22.13-.15.21-.6.25-1.34ZM117.91,185.36h-3.86v3.36l3.7.39c.11-2.35.17-3.6.17-3.75ZM118.86,224.56c-1.2-4.07-2.39-7.62-3.58-10.64l7.62-1.74c1.34,3.4,2.61,7.04,3.81,10.92l-7.84,1.46ZM128.55,199.92c-.41-3.47-.65-8.32-.73-14.56h-2.46c-.08,3.92-.32,7.32-.73,10.19,1.19,1.19,2.5,2.65,3.92,4.37ZM133.14,224.56c-2.31-3.7-4.67-7.09-7.06-10.19l6.78-3.64c2.8,3.73,5.17,7.15,7.11,10.25l-6.83,3.58Z"/>
        <path class="cls-3" d="M187.24,213.19c7.84-1.98,11.76-6.64,11.76-14,0-3.06-.85-5.65-2.55-7.76-1.7-2.11-4-3.5-6.92-4.17-2.95,20.46-8.96,30.69-18.03,30.69-3.02,0-5.76-1.52-8.2-4.56-2.45-3.04-3.67-6.8-3.67-11.28,0-6.91,2.35-12.5,7.06-16.77,4.7-4.27,11.01-6.41,18.93-6.41,6.61,0,11.99,1.89,16.16,5.66,4.16,3.77,6.24,8.64,6.24,14.62s-1.59,10.49-4.76,14.22c-3.17,3.73-7.65,6.22-13.44,7.45l-2.58-7.67ZM180.46,187.32c-3.85.82-6.84,2.49-8.99,5.01-2.15,2.52-3.22,5.61-3.22,9.27,0,2.17.37,3.97,1.12,5.4.75,1.44,1.53,2.16,2.35,2.16.67,0,1.36-.37,2.07-1.12.71-.75,1.45-1.92,2.21-3.53.76-1.6,1.53-3.87,2.3-6.8.76-2.93,1.48-6.39,2.16-10.39Z"/>
        <path class="cls-3" d="M231.31,180.21h17.58v-6.61h8.74v6.61h17.58v7.11h-17.58v6.33h19.6v7.17h-15.68c4.67,5.04,10.73,9.74,18.2,14.11l-4.2,7.5c-7.17-4.7-13.14-9.91-17.92-15.62v17.47h-8.74v-17.53c-4.82,5.82-10.79,11.05-17.92,15.68l-4.2-7.5c7.47-4.37,13.53-9.07,18.2-14.11h-15.68v-7.17h19.6v-6.33h-17.58v-7.11Z"/>
        <path class="cls-3" d="M349.19,215.71l-4.2,7.45c-7.17-4.7-13.14-9.91-17.92-15.62v16.74h-8.74v-16.74c-4.74,5.75-10.71,10.96-17.92,15.62l-4.2-7.45c6.35-3.77,11.74-7.8,16.18-12.1h-14.67v-7.11h9.86c-1.01-2.28-2.45-5.15-4.31-8.62l5.26-2.3h-9.07v-6.94h18.87v-5.04h8.74v5.04h18.87v6.94h-3.14c-1.27,3.36-2.95,7-5.04,10.92h9.91v7.11h-14.67c4.44,4.29,9.84,8.33,16.18,12.1ZM311.17,185.58c1.27,2.39,2.72,5.4,4.37,9.02l-4.37,1.9h7.17v-10.92h-7.17ZM334.13,196.5l-4.37-1.9c1.75-3.25,3.19-6.25,4.31-9.02h-7v10.92h7.06Z"/>
      </g>
      <g>
        <path class="cls-1" d="M23.5,233.05c-.19,0-.37,0-.56-.02-2.58-.16-4.96-1.42-6.55-3.46l-5.1-6.55c-2.67-3.43-2.5-8.28.39-11.52.86-.96,1.63-2.09,2.3-3.37-3.1-1.86-4.84-5.46-4.25-9.14.82-5.1,1.23-10.81,1.23-16.95,0-2.57,1.1-5.02,3.03-6.73,1.1-.97,2.4-1.65,3.79-2,.65-4.33,4.39-7.66,8.9-7.66h7.67c2.02,0,3.88.66,5.38,1.78,1.68-2.11,4.25-3.41,7.05-3.41.33,0,.66.02.99.05l8.12.9c2.57.28,4.89,1.66,6.38,3.77.38.54.7,1.12.95,1.72h6.92c2.4,0,4.71.96,6.4,2.67,1.69,1.71,2.63,4.02,2.6,6.42-.08,7.7-.17,13.71-.28,18.38-.12,4.82-.33,9.14-.65,12.86-.33,3.86-.65,6.69-1,8.66-.53,2.95-1.52,5.51-2.97,7.6-1.98,2.86-4.4,4.67-7.21,5.4-1.42.37-3.05.54-5.13.54-2.65,0-6.84-.11-12.83-.34-2.83-.11-5.32-1.52-6.9-3.65-1.48,1-3.23,1.53-5.02,1.53-.49,0-.98-.04-1.47-.12-1.53-.25-2.95-.89-4.13-1.83-.55.64-1.11,1.25-1.7,1.84-1.69,1.69-3.98,2.64-6.36,2.64Z"/>
        <path class="cls-1" d="M95.62,233.84c-1.53,0-3.07-.39-4.47-1.19l-6.83-3.92c-2.3-1.32-3.9-3.59-4.38-6.2-.44-2.44.14-4.96,1.61-6.95-.32-.78-.54-1.61-.64-2.49l-.73-6.72c-.19-1.77.15-3.53.95-5.09l-1.58-4.96c-.79-2.49-.45-5.07.75-7.18v-5.35c0-1.88.58-3.63,1.57-5.08v-2.09c0-4.96,4.02-8.99,8.98-9,1.65-2.02,4.16-3.3,6.97-3.3h8.46c2.22,0,4.25.8,5.82,2.14,1.57-1.33,3.6-2.14,5.82-2.14h7.45c3.51,0,6.54,2,8.03,4.93h2c4.97,0,9,4.03,9,9,0,4.37.03,7.82.08,10.55l1.28.7c2.98,1.63,4.8,4.8,4.69,8.19-.19,6.02-1.14,10.63-2.9,14.09-.42.82-.86,1.56-1.33,2.23.49.75.96,1.48,1.41,2.19,1.33,2.12,1.72,4.71,1.06,7.13-.65,2.42-2.29,4.46-4.51,5.62l-6.83,3.58c-1.33.7-2.76,1.03-4.17,1.03-1.8,0-3.57-.54-5.07-1.56l-7.57,1.41c-.55.1-1.11.15-1.65.15-1.31,0-2.58-.29-3.73-.81-.15.02-.29.04-.44.05l-8.12.73c-.27.02-.54.04-.81.04-1.77,0-3.44-.52-4.85-1.43-1.55,1.12-3.4,1.71-5.28,1.71Z"/>
        <path class="cls-1" d="M189.81,229.86c-3.58,0-6.88-2.15-8.29-5.52-2.99,1.73-6.33,2.6-10.01,2.6-4.04,0-9.96-1.38-15.22-7.93-3.75-4.66-5.65-10.36-5.65-16.92,0-9.38,3.46-17.48,10-23.43,6.39-5.81,14.8-8.75,24.98-8.75,8.88,0,16.35,2.69,22.2,7.98,6.02,5.46,9.2,12.82,9.2,21.29,0,7.92-2.32,14.66-6.9,20.05-4.48,5.27-10.67,8.77-18.42,10.42-.63.13-1.26.2-1.88.2Z"/>
        <path class="cls-1" d="M248.9,233.28c-4.04,0-7.46-2.67-8.6-6.34-1.43,1.04-2.9,2.05-4.42,3.04-1.47.96-3.18,1.45-4.9,1.45-.72,0-1.45-.09-2.16-.26-2.42-.6-4.48-2.17-5.69-4.34l-4.2-7.5c-2.39-4.28-.92-9.69,3.31-12.16.15-.09.29-.17.44-.26-1.47-1.6-2.37-3.74-2.37-6.09v-7.17c0-2.16.76-4.15,2.04-5.7-.01-.21-.02-.42-.02-.63v-7.11c0-4.97,4.03-9,9-9h8.91c1.05-3.81,4.54-6.61,8.68-6.61h8.74c4.14,0,7.63,2.8,8.68,6.61h8.91c4.97,0,9,4.03,9,9v7.11c0,.21,0,.42-.02.63,1.27,1.55,2.04,3.54,2.04,5.7v7.17c0,2.35-.9,4.49-2.37,6.09.14.09.29.17.44.26,4.23,2.48,5.7,7.88,3.31,12.16l-4.2,7.5c-1.22,2.18-3.29,3.75-5.71,4.35-.71.17-1.42.26-2.14.26-1.74,0-3.46-.5-4.94-1.48-1.5-.99-2.96-2-4.38-3.03-1.13,3.68-4.56,6.35-8.61,6.35h-8.74Z"/>
        <path class="cls-1" d="M318.34,233.28c-3.82,0-7.09-2.39-8.4-5.75-1.49,1.09-3.04,2.15-4.63,3.18-1.47.95-3.17,1.45-4.89,1.45-.72,0-1.44-.09-2.15-.26-2.41-.59-4.47-2.16-5.69-4.32l-4.2-7.45c-2.15-3.82-1.22-8.55,2.02-11.29-1.05-1.47-1.67-3.28-1.67-5.23v-7.11c0-2.59,1.1-4.93,2.85-6.57-.71-1.29-1.12-2.77-1.12-4.35v-6.94c0-4.97,4.03-9,9-9h10.79c1.46-2.98,4.53-5.04,8.08-5.04h8.74c3.55,0,6.62,2.06,8.08,5.04h10.79c4.97,0,9,4.03,9,9v6.94c0,1.58-.41,3.06-1.12,4.35,1.75,1.64,2.85,3.98,2.85,6.57v7.11c0,1.95-.62,3.75-1.67,5.23,3.24,2.74,4.18,7.47,2.02,11.29l-4.2,7.45c-1.22,2.17-3.29,3.74-5.72,4.32-.7.17-1.41.25-2.12.25-1.74,0-3.46-.5-4.94-1.48-1.57-1.03-3.1-2.09-4.58-3.18-1.3,3.38-4.57,5.77-8.4,5.77h-8.74Z"/>
      </g>
      <g>
        <path d="M26.69,174.66h7.67v11.7c0,1.01-.04,2.41-.11,4.2.78-2.58,1.53-5.54,2.24-8.9l5.21,1.23c-.52,2.54-.93,4.41-1.23,5.6,2.8-4.48,4.91-9.63,6.33-15.46l8.12.9c-.45,1.87-.99,3.72-1.62,5.54h16.86c-.08,7.5-.17,13.59-.28,18.26-.11,4.67-.32,8.77-.62,12.32-.3,3.55-.6,6.16-.9,7.84-.3,1.68-.8,3.03-1.51,4.06-.71,1.03-1.39,1.62-2.04,1.79-.65.17-1.62.25-2.88.25-2.5,0-6.66-.11-12.49-.34l-.45-7.39c3.47.19,6.46.28,8.96.28.71,0,1.22-.18,1.54-.53.32-.35.63-1.53.95-3.53.32-2,.55-4.91.7-8.74.15-3.83.32-9.45.5-16.88h-11.26c-1.2,2.61-2.46,4.98-3.81,7.11l5.82-2.46c2.43,4.48,4.59,9.54,6.5,15.18l-7.11,2.58c-1.68-4.89-3.7-9.56-6.05-14-.6.9-1.34,1.9-2.24,3.02l-4.48-4.48c-.71,2.32-1.49,4.57-2.35,6.78l-3.08-1.51c-.04.19-.08.47-.14.84-.06.37-.08.64-.08.78,3.55,5.49,6.68,10.7,9.41,15.62l-5.6,5.21c-1.87-3.47-3.9-7.06-6.1-10.75-1.83,5.64-4.35,10.06-7.56,13.27l-5.1-6.55c2.8-3.14,4.88-7.17,6.24-12.1,1.36-4.93,2.04-11.27,2.04-19.04v-11.7ZM18.62,200.42c.9-5.6,1.34-11.72,1.34-18.37l5.6.67c0,7.43-.52,14.02-1.57,19.77l-5.38-2.07Z"/>
        <path d="M137.12,195.05l4.31,2.35c-.15,4.63-.79,8.06-1.93,10.3-1.14,2.24-2.57,3.36-4.28,3.36-1.42,0-2.61-.49-3.58-1.48-.97-.99-1.76-2.77-2.35-5.35l-2.97,4.37c-1.08-1.46-2.37-3.06-3.86-4.82-1.38,3.44-3.25,6.33-5.6,8.68l-3.92-4.7.17,2.02c-4,.6-9.48,1.2-16.46,1.79l6.05,2.8c-1.94,3.51-4.29,7-7.06,10.47l-6.83-3.92c2.65-3.21,4.91-6.29,6.78-9.24-.67.08-1.64.16-2.91.25-1.27.09-2.2.16-2.8.2l-.73-6.72c3.92-.22,6.81-.41,8.68-.56v-2.18h-5.88v-3.47c-.37.19-.97.43-1.79.73l-2.02-6.33c2.76-.93,4.78-2.15,6.05-3.64h-4.87v-6.16h8.51v-1.46h-6.94v-5.71h6.94v-3.3h8.46v3.3h7.11v1.62h4.54v-4.93h7.45v4.93h10.02c0,15.49.37,23.24,1.12,23.24.15,0,.35-2.15.62-6.44ZM95.79,196.95h3.47v-3.42c-.93,1.27-2.09,2.41-3.47,3.42ZM100.1,192.19h3.14v-2.24h-2.18c-.19.67-.5,1.42-.95,2.24ZM105.76,224.56c-.37-3.36-.95-7.06-1.74-11.09l7.9-.78c.93,4.03,1.59,7.75,1.96,11.14l-8.12.73ZM113.1,183.79v-1.46h-6.83v1.46h6.83ZM113.54,196.95v5.71h-7.28v1.51c2.43-.22,4.54-.45,6.33-.67l.11,1.51c1.79-1.83,3.08-4.26,3.86-7.28-.67-.6-1.48-1.25-2.41-1.96-.6.04-1.64.06-3.14.06-2.43,0-4.01-.04-4.76-.11v1.23h7.28ZM112.54,189.95h-2.41v.62c0,.49.06.77.17.84.11.08.43.11.95.11.56,0,.9-.07,1.04-.22.13-.15.21-.6.25-1.34ZM117.91,185.36h-3.86v3.36l3.7.39c.11-2.35.17-3.6.17-3.75ZM118.86,224.56c-1.2-4.07-2.39-7.62-3.58-10.64l7.62-1.74c1.34,3.4,2.61,7.04,3.81,10.92l-7.84,1.46ZM128.55,199.92c-.41-3.47-.65-8.32-.73-14.56h-2.46c-.08,3.92-.32,7.32-.73,10.19,1.19,1.19,2.5,2.65,3.92,4.37ZM133.14,224.56c-2.31-3.7-4.67-7.09-7.06-10.19l6.78-3.64c2.8,3.73,5.17,7.15,7.11,10.25l-6.83,3.58Z"/>
        <path d="M187.24,213.19c7.84-1.98,11.76-6.64,11.76-14,0-3.06-.85-5.65-2.55-7.76-1.7-2.11-4-3.5-6.92-4.17-2.95,20.46-8.96,30.69-18.03,30.69-3.02,0-5.76-1.52-8.2-4.56-2.45-3.04-3.67-6.8-3.67-11.28,0-6.91,2.35-12.5,7.06-16.77,4.7-4.27,11.01-6.41,18.93-6.41,6.61,0,11.99,1.89,16.16,5.66,4.16,3.77,6.24,8.64,6.24,14.62s-1.59,10.49-4.76,14.22c-3.17,3.73-7.65,6.22-13.44,7.45l-2.58-7.67ZM180.46,187.32c-3.85.82-6.84,2.49-8.99,5.01-2.15,2.52-3.22,5.61-3.22,9.27,0,2.17.37,3.97,1.12,5.4.75,1.44,1.53,2.16,2.35,2.16.67,0,1.36-.37,2.07-1.12.71-.75,1.45-1.92,2.21-3.53.76-1.6,1.53-3.87,2.3-6.8.76-2.93,1.48-6.39,2.16-10.39Z"/>
        <path d="M231.31,180.21h17.58v-6.61h8.74v6.61h17.58v7.11h-17.58v6.33h19.6v7.17h-15.68c4.67,5.04,10.73,9.74,18.2,14.11l-4.2,7.5c-7.17-4.7-13.14-9.91-17.92-15.62v17.47h-8.74v-17.53c-4.82,5.82-10.79,11.05-17.92,15.68l-4.2-7.5c7.47-4.37,13.53-9.07,18.2-14.11h-15.68v-7.17h19.6v-6.33h-17.58v-7.11Z"/>
        <path d="M349.19,215.71l-4.2,7.45c-7.17-4.7-13.14-9.91-17.92-15.62v16.74h-8.74v-16.74c-4.74,5.75-10.71,10.96-17.92,15.62l-4.2-7.45c6.35-3.77,11.74-7.8,16.18-12.1h-14.67v-7.11h9.86c-1.01-2.28-2.45-5.15-4.31-8.62l5.26-2.3h-9.07v-6.94h18.87v-5.04h8.74v5.04h18.87v6.94h-3.14c-1.27,3.36-2.95,7-5.04,10.92h9.91v7.11h-14.67c4.44,4.29,9.84,8.33,16.18,12.1ZM311.17,185.58c1.27,2.39,2.72,5.4,4.37,9.02l-4.37,1.9h7.17v-10.92h-7.17ZM334.13,196.5l-4.37-1.9c1.75-3.25,3.19-6.25,4.31-9.02h-7v10.92h7.06Z"/>
      </g>
    </g>
  </g>
</svg>