<?xml version="1.0" encoding="UTF-8"?>
<svg id="_レイヤー_2" data-name="レイヤー 2" xmlns="http://www.w3.org/2000/svg" xmlns:xlink="http://www.w3.org/1999/xlink" viewBox="0 0 576.08 101.9">
  <defs>
    <style>
      .cls-1 {
        fill: url(#_名称未設定グラデーション_120-5);
      }

      .cls-2 {
        fill: url(#_名称未設定グラデーション_120-6);
      }

      .cls-3 {
        fill: none;
        stroke: #000;
        stroke-miterlimit: 2;
        stroke-width: 10px;
      }

      .cls-4 {
        fill: #fff;
      }

      .cls-5 {
        fill: url(#_名称未設定グラデーション_120-4);
      }

      .cls-6 {
        fill: url(#_名称未設定グラデーション_120-2);
      }

      .cls-7 {
        fill: url(#_名称未設定グラデーション_120-3);
      }

      .cls-8 {
        fill: url(#_名称未設定グラデーション_120);
      }

      .cls-9 {
        fill: url(#_名称未設定グラデーション_120-7);
      }

      .cls-10 {
        fill: url(#_名称未設定グラデーション_120-8);
      }
    </style>
    <linearGradient id="_名称未設定グラデーション_120" data-name="名称未設定グラデーション 120" x1="30.45" y1="101.9" x2="30.45" y2="0" gradientUnits="userSpaceOnUse">
      <stop offset="0" stop-color="#945700"/>
      <stop offset=".19" stop-color="#e9a900"/>
      <stop offset=".29" stop-color="#f5f8b4"/>
      <stop offset=".4" stop-color="#e9a900"/>
      <stop offset="1" stop-color="#fff87f"/>
    </linearGradient>
    <linearGradient id="_名称未設定グラデーション_120-2" data-name="名称未設定グラデーション 120" x1="95.03" x2="95.03" y2="0" xlink:href="#_名称未設定グラデーション_120"/>
    <linearGradient id="_名称未設定グラデーション_120-3" data-name="名称未設定グラデーション 120" x1="178.05" x2="178.05" y2="0" xlink:href="#_名称未設定グラデーション_120"/>
    <linearGradient id="_名称未設定グラデーション_120-4" data-name="名称未設定グラデーション 120" x1="258.82" x2="258.82" y2="0" xlink:href="#_名称未設定グラデーション_120"/>
    <linearGradient id="_名称未設定グラデーション_120-5" data-name="名称未設定グラデーション 120" x1="331.04" x2="331.04" y2="0" xlink:href="#_名称未設定グラデーション_120"/>
    <linearGradient id="_名称未設定グラデーション_120-6" data-name="名称未設定グラデーション 120" x1="401.11" x2="401.11" xlink:href="#_名称未設定グラデーション_120"/>
    <linearGradient id="_名称未設定グラデーション_120-7" data-name="名称未設定グラデーション 120" x1="481.26" x2="481.26" y2="0" xlink:href="#_名称未設定グラデーション_120"/>
    <linearGradient id="_名称未設定グラデーション_120-8" data-name="名称未設定グラデーション 120" x1="545.63" x2="545.63" y2="0" xlink:href="#_名称未設定グラデーション_120"/>
  </defs>
  <g id="_レイヤー_1-2" data-name="レイヤー 1">
    <g>
      <g>
        <path class="cls-8" d="M12,87.96c-6.63,0-12-5.37-12-12V12.82C0,6.19,5.37.82,12,.82h36.9c6.63,0,12,5.37,12,12v12.3c0,6.63-5.37,12-12,12h-10.14v38.84c0,6.63-5.37,12-12,12h-14.76Z"/>
        <path class="cls-6" d="M64.32,100.34c-6.45,0-11.71-5.09-11.99-11.48-1.46-1.3-2.61-2.96-3.3-4.86l-4.84-13.28c-1.26-3.46-.86-7.3,1.08-10.43,1.09-1.76,2.09-3.51,2.98-5.23-1.75-2.09-2.81-4.78-2.81-7.72v-12.05c0-2.17.57-4.2,1.58-5.96l-1.1-10.04c-.36-3.27.64-6.53,2.76-9.04,2.12-2.51,5.17-4.04,8.45-4.24,8-.48,15.22-1.77,21.47-3.84,1.25-.41,2.52-.61,3.77-.61,2.93,0,5.74,1.08,7.91,2.98,2.2-2.76,5.59-4.53,9.39-4.53h14.84c4.44,0,8.31,2.41,10.39,5.99h7.74c6.63,0,12,5.37,12,12v19.27c0,2.6-.83,5.01-2.24,6.98,3.81,3.93,4.48,9.96,1.61,14.64-.82,1.33-1.69,2.71-2.62,4.13.62.79,1.26,1.54,1.93,2.25,3.47,3.66,4.27,9.1,2.02,13.62l-6.81,13.61c-1.71,3.42-4.94,5.82-8.71,6.46-.68.12-1.35.17-2.03.17-3.08,0-6.08-1.19-8.33-3.37-.16-.15-.31-.31-.47-.46-4.04,3.27-9.08,4.65-13.75,4.65-2.75,0-6.27-.14-10.78-.44-2.09-.14-4.03-.8-5.69-1.87-1.29.45-2.61.67-3.93.67-.32,0-.64-.01-.96-.04-1.93,1.32-4.25,2.09-6.76,2.09h-12.79Z"/>
        <path class="cls-7" d="M185.83,101.08c-2.78,0-5.56-.96-7.83-2.91-14.47-12.46-24.9-20.75-31-24.63-7.59-4.92-10.25-7.43-11.94-9.71-2.6-3.5-3.87-8.12-3.87-14.1s1.31-10.69,4.01-14.23c1.69-2.22,4.47-4.78,12.53-10.02,6.79-4.45,16.43-11.61,28.61-21.24,2.2-1.74,4.82-2.59,7.44-2.59,3.35,0,6.67,1.4,9.04,4.1l10.25,11.73c1,1.14,1.76,2.45,2.26,3.85,4.18.08,8.19,2.35,10.32,6.28,3.6,6.63,6.21,11.58,7.97,15.11,1.44,2.88,1.66,6.22.62,9.26-1.04,3.04-3.27,5.54-6.17,6.93l-9.43,4.51c-1.67.8-3.43,1.18-5.17,1.18-1.41,0-2.8-.25-4.12-.73l-.36.17c1.58,1.25,3.23,2.55,4.95,3.91,2.61,2.06,4.24,5.12,4.51,8.43.27,3.31-.84,6.59-3.08,9.05l-10.66,11.73c-2.36,2.6-5.62,3.93-8.88,3.93Z"/>
        <path class="cls-5" d="M238.31,98.62c-5,0-9.58-3.14-11.3-7.99l-4.51-12.71c-.93-2.62-.91-5.47,0-8.05-6.14-.53-10.95-5.68-10.95-11.95v-13.12c0-5.6,3.83-10.3,9.02-11.63v-9.69c0-6.63,5.37-12,12-12,12.32,0,21.92-.45,28.55-1.33,6.27-.83,12.36-2.34,18.11-4.48,1.35-.5,2.77-.75,4.18-.75,1.74,0,3.47.38,5.08,1.13,2.91,1.36,5.16,3.83,6.23,6.86l4.51,12.71c.99,2.8.89,5.72-.1,8.3,4.1,1.91,6.94,6.06,6.94,10.88v13.12c0,6.63-5.37,12-12,12h-17.04c-5.78,15.49-18.52,25.49-36.74,28.54-.67.11-1.33.17-1.99.17Z"/>
        <path class="cls-1" d="M324.49,98.31c-2.29,0-4.55-.66-6.51-1.92-2.67-1.73-4.55-4.44-5.22-7.55l-3.32-15.4-.34.06c-.7.12-1.4.19-2.1.19-2.46,0-4.87-.75-6.91-2.19-2.62-1.84-4.39-4.66-4.92-7.81l-1.73-10.22c-1.05-6.24,2.91-12.17,8.97-13.65-.08-5.6,3.79-10.66,9.47-11.88l11.02-2.38c.85-.18,1.7-.27,2.54-.27,5.14,0,9.81,3.33,11.41,8.32l16.13-2.88c.7-.12,1.41-.19,2.11-.19,2.46,0,4.87.75,6.91,2.19,2.62,1.84,4.39,4.66,4.92,7.81l1.73,10.22c.33,1.98.17,4.01-.49,5.91-3.02,8.76-8.01,16.75-14.85,23.76-1.64,1.68-3.66,2.79-5.81,3.3.04,2.36-.62,4.7-1.91,6.71-1.73,2.67-4.44,4.55-7.55,5.23l-11.02,2.38c-.84.18-1.69.27-2.53.27Z"/>
        <path class="cls-2" d="M371.78,94.93c-5.91,0-11.02-4.35-11.87-10.3l-2.05-14.35c-.46-3.23.42-6.52,2.43-9.09s4.99-4.21,8.24-4.55c5.11-.52,9.67-1.32,13.64-2.39-6.6-4.35-13.46-8.57-20.45-12.58-2.84-1.63-4.89-4.35-5.68-7.53-.79-3.18-.24-6.54,1.51-9.31l7.79-12.3c2.27-3.59,6.16-5.58,10.15-5.58,1.96,0,3.95.48,5.78,1.49,8.41,4.63,16.85,9.78,25.09,15.31.73.49,1.38,1.04,1.96,1.65.09-.31.17-.63.26-.95.84-3.1,2.88-5.74,5.68-7.33,1.82-1.03,3.86-1.56,5.91-1.56,1.11,0,2.21.15,3.3.46l14.35,4.1c6.13,1.75,9.82,7.99,8.4,14.2-4.3,18.92-12.53,33.49-24.45,43.3-11.73,9.65-28.2,15.45-48.94,17.24-.35.03-.7.04-1.04.04Z"/>
        <path class="cls-9" d="M452.97,95.34c-4.5,0-8.75-2.54-10.8-6.77l-6.15-12.71c-1.49-3.09-1.6-6.66-.28-9.83,1.31-3.17,3.92-5.62,7.16-6.74,8.3-2.87,15.9-7.16,22.62-12.74h-10.49c-6.63,0-12-5.37-12-12v-13.53c0-6.63,5.37-12,12-12h52.48c6.63,0,12,5.37,12,12v13.53c0,1.53-.29,3.05-.86,4.47-1.87,4.66-4.21,9.21-7.01,13.61,4.41,3.96,8.53,7.75,12.32,11.33,2.33,2.2,3.68,5.23,3.76,8.44.08,3.2-1.13,6.3-3.35,8.61l-10.25,10.66c-2.21,2.3-5.24,3.62-8.42,3.68-.08,0-.15,0-.23,0-3.1,0-6.09-1.2-8.33-3.36-3.8-3.66-7.89-7.48-12.23-11.42-8.63,6.16-18.09,10.92-28.24,14.2-1.22.39-2.46.58-3.69.58Z"/>
        <path class="cls-10" d="M527.18,101.9c-6.63,0-12-5.37-12-12v-12.3c0-6.63,5.37-12,12-12h10.14V26.76c0-6.63,5.37-12,12-12h14.76c6.63,0,12,5.37,12,12v63.14c0,6.63-5.37,12-12,12h-36.9Z"/>
      </g>
      <g>
        <path class="cls-3" d="M12,12.82h36.9v12.3h-22.14v50.84h-14.76V12.82Z"/>
        <path class="cls-3" d="M127.05,62.76c2.13,4.1,4.65,7.68,7.54,10.74l-6.81,13.61c-4.7-4.54-8.83-10.95-12.38-19.23-3.55-8.28-5.85-16.88-6.89-25.79h-1.72c-.27.22-.68.56-1.23,1.02-.55.47-.96.81-1.23,1.03,7.05,12.08,10.58,22.66,10.58,31.73,0,8.04-3.23,12.05-9.68,12.05-2.46,0-5.79-.14-10-.41l-.82-7.54c-2.79,2.19-5.99,4.29-9.59,6.31l-6.07-10c7.98-3.88,14.9-8.61,20.75-14.19-.05-.11-.15-.3-.29-.57-.14-.27-.23-.49-.29-.66-4.1,3.66-8.69,6.92-13.78,9.76l-2.38-3.94-2.79,1.97c-.27-.66-.74-1.67-1.39-3.03-.66-1.37-1.15-2.41-1.48-3.12v25.83h-12.79v-17.47c-1.09,3.61-2.43,6.62-4.02,9.02l-4.84-13.28c4.1-6.61,7-13.04,8.69-19.27h-6.72v-12.05h6.89v-6.48c-2.3.22-4.05.36-5.25.41l-1.23-11.23c9.07-.55,17.25-2.02,24.52-4.43l1.56,4.43h15.74v-5.99h14.84v5.99h18.12v19.27h-3.28v4.84h-8.69c.27,1.86.71,4.13,1.31,6.81,1.58-2.62,2.6-4.35,3.03-5.17l8.77,8.86c-1.91,3.12-4.16,6.51-6.72,10.17ZM81.95,35.29v-9.76c-2.79.77-4.4,1.2-4.84,1.31v8.45h4.84ZM94.74,52.51c-.06-.11-.16-.29-.33-.53s-.27-.42-.33-.53c-2.3,1.48-5,3.06-8.12,4.76l-5.58-8.86h-1.8c1.37,2.19,3.61,5.93,6.72,11.23,3.61-1.91,6.75-3.94,9.43-6.07ZM91.46,42.09h-5.49v-4.84h-1.56v8.45c1.97-.87,4.32-2.08,7.05-3.61ZM119.34,28.89h-24.52v2.38h24.52v-2.38ZM102.77,72.43c-.82.88-2.1,2.13-3.85,3.77.76.05,1.67.08,2.71.08.6,0,.96-.12,1.07-.37.11-.25.16-1.05.16-2.42,0-.49-.03-.85-.08-1.07Z"/>
        <path class="cls-3" d="M194.04,25.37c-14,10.72-23.48,17.58-28.45,20.58-2.13,1.31-3.39,2.13-3.77,2.46-.38.33-.57.77-.57,1.31s.18,1,.53,1.35c.35.36,1.54,1.19,3.57,2.5,4.76,3.17,15.14,11.1,31.16,23.78l-10.66,11.73c-14.98-12.9-25.78-21.46-32.39-25.67-4.81-3.12-7.72-5.36-8.73-6.72-1.01-1.37-1.52-3.69-1.52-6.97s.52-5.6,1.56-6.97c1.04-1.37,4.21-3.77,9.51-7.22,7.16-4.7,17-12,29.52-21.89l10.25,11.73ZM198.39,51.03l-9.27,4.43c-2.19-4.21-4.73-8.94-7.63-14.19l9.27-4.67c2.46,4.48,5,9.29,7.63,14.43ZM212.9,48.08l-9.43,4.51c-2.3-4.54-4.89-9.38-7.79-14.51l9.43-4.76c3.5,6.45,6.09,11.37,7.79,14.76Z"/>
        <path class="cls-3" d="M223.56,57.92v-13.12h29.52v-8.61c-6.4.27-13.23.41-20.5.41v-13.12c12.9,0,22.95-.48,30.13-1.43,7.19-.96,14.09-2.67,20.71-5.12l4.51,12.71c-6.45,2.51-12.87,4.24-19.27,5.17v10h25.42v13.12h-26.24c-2.68,16.29-12.52,25.86-29.52,28.7l-4.51-12.71c5.52-1.04,9.72-2.76,12.59-5.17,2.87-2.4,4.8-6.01,5.78-10.82h-28.62Z"/>
        <path class="cls-3" d="M335.51,83.94l-11.02,2.38-5.76-26.71-11.74,2.09-1.73-10.22,11.23-2.02-2.09-9.79,11.02-2.38,2.23,10.15,27.43-4.9,1.73,10.22c-2.45,7.1-6.48,13.54-12.1,19.3l-8.93-6.77c3.36-3.74,6-7.13,7.92-10.15l-13.9,2.45,5.69,26.35Z"/>
        <path class="cls-3" d="M399.67,33.73l-8.2,12.3c-7.65-5.14-15.58-10.06-23.78-14.76l7.79-12.3c8.15,4.48,16.21,9.4,24.19,14.76ZM420.17,27.58l14.35,4.1c-3.72,16.35-10.51,28.58-20.38,36.7-9.87,8.12-23.98,12.97-42.35,14.55l-2.05-14.35c15.03-1.53,26.28-5.34,33.74-11.44,7.46-6.09,13.02-15.95,16.69-29.56Z"/>
        <path class="cls-3" d="M455.02,34.55v-13.53h52.48v13.53c-2.79,6.94-6.78,13.56-11.97,19.84,7.49,6.56,14.21,12.66,20.17,18.29l-10.25,10.66c-6.07-5.85-12.77-12-20.09-18.45-9.57,8.42-20.36,14.57-32.39,18.45l-6.15-12.71c9.95-3.44,18.93-8.55,26.94-15.33,8.01-6.78,13.49-13.69,16.44-20.75h-35.18Z"/>
        <path class="cls-3" d="M564.08,89.9h-36.9v-12.3h22.14V26.76h14.76v63.14Z"/>
      </g>
      <g>
        <path class="cls-4" d="M12,12.82h36.9v12.3h-22.14v50.84h-14.76V12.82Z"/>
        <path class="cls-4" d="M127.05,62.76c2.13,4.1,4.65,7.68,7.54,10.74l-6.81,13.61c-4.7-4.54-8.83-10.95-12.38-19.23-3.55-8.28-5.85-16.88-6.89-25.79h-1.72c-.27.22-.68.56-1.23,1.02-.55.47-.96.81-1.23,1.03,7.05,12.08,10.58,22.66,10.58,31.73,0,8.04-3.23,12.05-9.68,12.05-2.46,0-5.79-.14-10-.41l-.82-7.54c-2.79,2.19-5.99,4.29-9.59,6.31l-6.07-10c7.98-3.88,14.9-8.61,20.75-14.19-.05-.11-.15-.3-.29-.57-.14-.27-.23-.49-.29-.66-4.1,3.66-8.69,6.92-13.78,9.76l-2.38-3.94-2.79,1.97c-.27-.66-.74-1.67-1.39-3.03-.66-1.37-1.15-2.41-1.48-3.12v25.83h-12.79v-17.47c-1.09,3.61-2.43,6.62-4.02,9.02l-4.84-13.28c4.1-6.61,7-13.04,8.69-19.27h-6.72v-12.05h6.89v-6.48c-2.3.22-4.05.36-5.25.41l-1.23-11.23c9.07-.55,17.25-2.02,24.52-4.43l1.56,4.43h15.74v-5.99h14.84v5.99h18.12v19.27h-3.28v4.84h-8.69c.27,1.86.71,4.13,1.31,6.81,1.58-2.62,2.6-4.35,3.03-5.17l8.77,8.86c-1.91,3.12-4.16,6.51-6.72,10.17ZM81.95,35.29v-9.76c-2.79.77-4.4,1.2-4.84,1.31v8.45h4.84ZM94.74,52.51c-.06-.11-.16-.29-.33-.53s-.27-.42-.33-.53c-2.3,1.48-5,3.06-8.12,4.76l-5.58-8.86h-1.8c1.37,2.19,3.61,5.93,6.72,11.23,3.61-1.91,6.75-3.94,9.43-6.07ZM91.46,42.09h-5.49v-4.84h-1.56v8.45c1.97-.87,4.32-2.08,7.05-3.61ZM119.34,28.89h-24.52v2.38h24.52v-2.38ZM102.77,72.43c-.82.88-2.1,2.13-3.85,3.77.76.05,1.67.08,2.71.08.6,0,.96-.12,1.07-.37.11-.25.16-1.05.16-2.42,0-.49-.03-.85-.08-1.07Z"/>
        <path class="cls-4" d="M194.04,25.37c-14,10.72-23.48,17.58-28.45,20.58-2.13,1.31-3.39,2.13-3.77,2.46-.38.33-.57.77-.57,1.31s.18,1,.53,1.35c.35.36,1.54,1.19,3.57,2.5,4.76,3.17,15.14,11.1,31.16,23.78l-10.66,11.73c-14.98-12.9-25.78-21.46-32.39-25.67-4.81-3.12-7.72-5.36-8.73-6.72-1.01-1.37-1.52-3.69-1.52-6.97s.52-5.6,1.56-6.97c1.04-1.37,4.21-3.77,9.51-7.22,7.16-4.7,17-12,29.52-21.89l10.25,11.73ZM198.39,51.03l-9.27,4.43c-2.19-4.21-4.73-8.94-7.63-14.19l9.27-4.67c2.46,4.48,5,9.29,7.63,14.43ZM212.9,48.08l-9.43,4.51c-2.3-4.54-4.89-9.38-7.79-14.51l9.43-4.76c3.5,6.45,6.09,11.37,7.79,14.76Z"/>
        <path class="cls-4" d="M223.56,57.92v-13.12h29.52v-8.61c-6.4.27-13.23.41-20.5.41v-13.12c12.9,0,22.95-.48,30.13-1.43,7.19-.96,14.09-2.67,20.71-5.12l4.51,12.71c-6.45,2.51-12.87,4.24-19.27,5.17v10h25.42v13.12h-26.24c-2.68,16.29-12.52,25.86-29.52,28.7l-4.51-12.71c5.52-1.04,9.72-2.76,12.59-5.17,2.87-2.4,4.8-6.01,5.78-10.82h-28.62Z"/>
        <path class="cls-4" d="M335.51,83.94l-11.02,2.38-5.76-26.71-11.74,2.09-1.73-10.22,11.23-2.02-2.09-9.79,11.02-2.38,2.23,10.15,27.43-4.9,1.73,10.22c-2.45,7.1-6.48,13.54-12.1,19.3l-8.93-6.77c3.36-3.74,6-7.13,7.92-10.15l-13.9,2.45,5.69,26.35Z"/>
        <path class="cls-4" d="M399.67,33.73l-8.2,12.3c-7.65-5.14-15.58-10.06-23.78-14.76l7.79-12.3c8.15,4.48,16.21,9.4,24.19,14.76ZM420.17,27.58l14.35,4.1c-3.72,16.35-10.51,28.58-20.38,36.7-9.87,8.12-23.98,12.97-42.35,14.55l-2.05-14.35c15.03-1.53,26.28-5.34,33.74-11.44,7.46-6.09,13.02-15.95,16.69-29.56Z"/>
        <path class="cls-4" d="M455.02,34.55v-13.53h52.48v13.53c-2.79,6.94-6.78,13.56-11.97,19.84,7.49,6.56,14.21,12.66,20.17,18.29l-10.25,10.66c-6.07-5.85-12.77-12-20.09-18.45-9.57,8.42-20.36,14.57-32.39,18.45l-6.15-12.71c9.95-3.44,18.93-8.55,26.94-15.33,8.01-6.78,13.49-13.69,16.44-20.75h-35.18Z"/>
        <path class="cls-4" d="M564.08,89.9h-36.9v-12.3h22.14V26.76h14.76v63.14Z"/>
      </g>
    </g>
  </g>
</svg>