<?xml version="1.0" encoding="UTF-8"?>
<svg id="_レイヤー_2" data-name="レイヤー 2" xmlns="http://www.w3.org/2000/svg" xmlns:xlink="http://www.w3.org/1999/xlink" viewBox="0 0 641.96 68.92">
  <defs>
    <style>
      .cls-1 {
        fill: url(#_名称未設定グラデーション_120-5);
      }

      .cls-2 {
        fill: url(#_名称未設定グラデーション_120-6);
      }

      .cls-3 {
        fill: url(#_名称未設定グラデーション_120-12);
      }

      .cls-4 {
        fill: #fff;
      }

      .cls-5 {
        fill: url(#_名称未設定グラデーション_120-4);
      }

      .cls-6 {
        fill: url(#_名称未設定グラデーション_120-2);
      }

      .cls-7 {
        fill: url(#_名称未設定グラデーション_120-3);
      }

      .cls-8 {
        fill: url(#_名称未設定グラデーション_120-10);
      }

      .cls-9 {
        fill: url(#_名称未設定グラデーション_120);
      }

      .cls-10 {
        fill: url(#_名称未設定グラデーション_120-11);
      }

      .cls-11 {
        fill: url(#_名称未設定グラデーション_120-9);
      }

      .cls-12 {
        fill: none;
        stroke: #000;
        stroke-width: 6px;
      }

      .cls-13 {
        fill: url(#_名称未設定グラデーション_120-7);
      }

      .cls-14 {
        fill: url(#_名称未設定グラデーション_120-8);
      }
    </style>
    <linearGradient id="_名称未設定グラデーション_120" data-name="名称未設定グラデーション 120" x1="34.47" y1="68.92" x2="34.47" y2="0" gradientUnits="userSpaceOnUse">
      <stop offset="0" stop-color="#945700"/>
      <stop offset=".19" stop-color="#e9a900"/>
      <stop offset=".29" stop-color="#f5f8b4"/>
      <stop offset=".4" stop-color="#e9a900"/>
      <stop offset="1" stop-color="#fff87f"/>
    </linearGradient>
    <linearGradient id="_名称未設定グラデーション_120-2" data-name="名称未設定グラデーション 120" x1="88.63" x2="88.63" xlink:href="#_名称未設定グラデーション_120"/>
    <linearGradient id="_名称未設定グラデーション_120-3" data-name="名称未設定グラデーション 120" x1="142.47" x2="142.47" xlink:href="#_名称未設定グラデーション_120"/>
    <linearGradient id="_名称未設定グラデーション_120-4" data-name="名称未設定グラデーション 120" x1="196.61" x2="196.61" xlink:href="#_名称未設定グラデーション_120"/>
    <linearGradient id="_名称未設定グラデーション_120-5" data-name="名称未設定グラデーション 120" x1="250.43" x2="250.43" xlink:href="#_名称未設定グラデーション_120"/>
    <linearGradient id="_名称未設定グラデーション_120-6" data-name="名称未設定グラデーション 120" x1="305.19" x2="305.19" xlink:href="#_名称未設定グラデーション_120"/>
    <linearGradient id="_名称未設定グラデーション_120-7" data-name="名称未設定グラデーション 120" x1="358.47" x2="358.47" xlink:href="#_名称未設定グラデーション_120"/>
    <linearGradient id="_名称未設定グラデーション_120-8" data-name="名称未設定グラデーション 120" x1="412.43" x2="412.43" xlink:href="#_名称未設定グラデーション_120"/>
    <linearGradient id="_名称未設定グラデーション_120-9" data-name="名称未設定グラデーション 120" x1="466.47" x2="466.47" xlink:href="#_名称未設定グラデーション_120"/>
    <linearGradient id="_名称未設定グラデーション_120-10" data-name="名称未設定グラデーション 120" x1="521.26" x2="521.26" xlink:href="#_名称未設定グラデーション_120"/>
    <linearGradient id="_名称未設定グラデーション_120-11" data-name="名称未設定グラデーション 120" x1="574.9" x2="574.9" xlink:href="#_名称未設定グラデーション_120"/>
    <linearGradient id="_名称未設定グラデーション_120-12" data-name="名称未設定グラデーション 120" x1="628.51" x2="628.51" xlink:href="#_名称未設定グラデーション_120"/>
  </defs>
  <g id="_レイヤー_1-2" data-name="レイヤー 1">
    <g>
      <g>
        <path class="cls-4" d="M8.42,21.84h7.7v-13.39l7.91,2.53c.42.14.63.39.63.74.07.42-.07.7-.42.84l-1.58,1.16v8.12h1.27l1.58-2.74c.49-.35.95-.39,1.37-.11l1.79,2.64v-10.86l5.8,1.48h18.88l1.58-2.21c.14-.14.32-.25.53-.32.28,0,.49.07.63.21l4.54,3.38c.21.14.32.32.32.53,0,.28-.11.49-.32.63l-1.16,1.27v41.77c-.07.35-.25.7-.53,1.05l-4.32,1.58c-.49,0-.77-.25-.84-.74v-2h-18.98v.63c.07.49-.11.77-.53.84l-4.32.95c-.77,0-1.2-.35-1.27-1.05v-27.11l-6.01,4.22v16.88c-.21,1.69-.81,3.2-1.79,4.54-.98,1.34-2.21,2.29-3.69,2.85-.63.21-1.27.18-1.9-.11-.56-.35-.98-.84-1.27-1.48-.91-2.46-2.46-4.29-4.64-5.48l5.27.53c.42,0,.77-.14,1.05-.42.28-.28.42-.6.42-.95v-11.71l-1.69,1.16-.11.63c-.14.42-.39.67-.74.74-.35.07-.67-.03-.95-.32l-4.64-7.49,8.12-2v-8.02h-6.22l-1.48-3.38ZM22.66,25.22v6.33l6.01-1.58v-4.75h-6.01ZM34.79,15.09v5.59h12.66l1.48-2.53c.56-.56,1.12-.6,1.69-.11l3.16,3.69v-6.64h-18.98ZM34.79,23.53v8.02h4.75v-8.02h-4.75ZM34.79,34.39v12.02h4.75v-12.02h-4.75ZM34.79,49.16v5.27h18.98v-5.27h-18.98ZM45.44,23.53v8.02h1.79l1.69-3.16c.56-.49,1.09-.53,1.58-.11l3.27,4.11v-8.86h-8.33ZM45.44,34.39v.95c3.09.84,5.45,2.6,7.07,5.27.21.7.19,1.37-.05,2-.25.63-.69,1.13-1.32,1.48l2.64,3.06v-12.76h-8.33ZM45.44,46.42h2.95l1.37-2.11c-.63,0-1.18-.21-1.63-.63-.46-.42-.72-.95-.79-1.58-.35-1.76-.98-3.3-1.9-4.64v8.96Z"/>
        <path class="cls-4" d="M86.84,37.14c-1.2,3.24-2.25,6.59-3.16,10.07-.35,1.79-1.09,3.41-2.21,4.85-1.13,1.44-2.51,2.57-4.17,3.38-.95.56-1.93.71-2.95.45-1.02-.26-1.81-.84-2.37-1.71l-.95-1.58c-.67-1.19-1.58-2.21-2.74-3.06-1.65-.6-2.74-1.71-3.27-3.32-.63-1.58-.47-3.11.47-4.59,4.11-4.85,9.19-8.02,15.24-9.49l4.85-14.4c-2.07,1.48-4.22,3.34-6.43,5.59-.49.49-1.12.78-1.87.87-.76.09-1.45-.06-2.08-.45-1.41-.84-2.45-2.01-3.14-3.51-.69-1.49-.91-3.07-.66-4.72,1.37,1.37,2.95,1.76,4.75,1.16l11.34-5.38c1.23-.67,2.41-.58,3.53.26,1.65,1.23,3.16,2.64,4.54,4.22.42.49.61,1.05.58,1.69-.07.63-.33,1.16-.79,1.58-1.2.49-1.99,1.37-2.37,2.64l-4.27,10.12c3.44.25,6.93,1.04,10.44,2.37l.58-4.8c.07-1.65-.25-3.22-.95-4.69,2.04-.42,4.01-.22,5.91.61,1.9.83,3.39,2.14,4.48,3.93.35.53.42,1.07.21,1.63-.32.63-.76,1-1.32,1.11-.46.21-.65.51-.58.9l-1.16,4.43c1.97,1.2,3.73,2.72,5.27,4.59,1.16,2.18,1.37,4.41.63,6.7-.32,1.09-1,1.83-2.06,2.21-1.09.32-2.09.18-3.01-.42l-4.32-3.59c-1.48,3.66-3.81,6.59-7.01,8.81-3.2,2.21-6.75,3.36-10.65,3.43,6.36-4.25,10.49-10.14,12.39-17.67-3.23-2.29-6.8-3.69-10.71-4.22ZM79.3,37.72l-4.11,2.43c-2,1.13-3.29,2.79-3.85,5.01-.11,1.2.03,2.32.42,3.38.7.67,1.44.72,2.21.16,2.39-3.34,4.17-7,5.33-10.97Z"/>
        <path class="cls-4" d="M116.84,13.09h20.67l2.21-3.9c.21-.39.49-.58.84-.58.42,0,.74.16.95.47l4.96,4.75c.42.39.49.83.21,1.32-.21.56-.6.81-1.16.74h-5.8v1.69h15.71l1.37-2.53c.14-.35.42-.56.84-.63.42-.07.77.05,1.05.37l5.91,4.69c.21.25.32.55.32.92s-.14.66-.42.87l-1.58,1.11c-.21,8.16-2.64,15.58-7.28,22.25,3.73,3.97,8.16,6.91,13.29,8.81-3.59.95-6.43,2.88-8.54,5.8-3.38-2.6-6.4-5.71-9.07-9.33-4.64,4.82-10.05,8.19-16.24,10.12-.63.18-1.2.09-1.69-.26-.49-.32-.81-.79-.95-1.42v-13.5l-10.23,5.96-.21.79c-.07.39-.28.65-.63.79-.49.07-.84-.07-1.05-.42l-4.32-9.07,4.85-.84V15.88h-2.95l-1.05-2.79ZM128.13,15.88v6.86h4.32v-6.86h-4.32ZM128.13,25.64v5.96h4.32v-5.96h-4.32ZM128.13,34.39v6.22l4.32-.84v-5.38h-4.32ZM139.73,20.37v17.98l5.06-.9-5.06,3.01v16.14c3.23-3.55,6.08-7.44,8.54-11.65-4.22-7.77-5.98-15.96-5.27-24.57h-3.27ZM145.43,20.37c.21,6.64,2.11,12.8,5.7,18.46,2.25-5.98,3.41-12.13,3.48-18.46h-9.18Z"/>
        <path class="cls-4" d="M179.81,15.73c1.93.92,3.94.95,6.01.11l12.71-4.96.9-.69c.49-.28,1.02-.33,1.58-.16,3.51,1.09,6.4,3.16,8.65,6.22.21.49.21.98,0,1.48-.25.49-.67.79-1.27.9-5.31,3.55-9.77,7.98-13.39,13.29,5.8-2.43,11.62-2.43,17.46,0,1.72.92,3.12,2.19,4.19,3.82,1.07,1.63,1.68,3.44,1.82,5.41.7,4.64-.62,8.61-3.96,11.92-5.84,4.85-12.5,6.87-19.99,6.06-2.32-.14-4.4-.94-6.22-2.4-1.83-1.46-3.02-3.33-3.59-5.62-.28-1.05-.2-2.1.24-3.14.44-1.04,1.17-1.78,2.19-2.24,2.78-1.48,5.57-1.48,8.38,0,1.27.7,2.31,1.68,3.14,2.93.83,1.25,1.29,2.61,1.4,4.09,1.9.04,3.67-.45,5.3-1.45s2.87-2.36,3.72-4.09c.84-1.69,1.23-3.45,1.16-5.3-.07-1.85-.6-3.56-1.58-5.14-.98-1.41-2.36-2.11-4.11-2.11-3.69-.18-7,.72-9.91,2.69-5.06,3.34-9.28,7.42-12.66,12.23-.98,1.51-2.41,2.13-4.27,1.85-1.65-.46-2.58-1.53-2.79-3.22l-.32-1.95c-.11-1.41.35-2.58,1.37-3.53,8.93-7.84,16.49-16.72,22.68-26.63-4.08,1.55-7.52,3.94-10.34,7.17-.77,1.05-1.74,1.27-2.9.63-3.16-1.58-5.08-4.13-5.75-7.65l.16-.53ZM193.89,52.75c.07-.95-.21-1.74-.84-2.37-.67-.63-1.46-.91-2.37-.84-.7,0-1.14.32-1.32.95-.18.7.03,1.23.63,1.58,1.23.56,2.53.79,3.9.69Z"/>
        <path class="cls-4" d="M238.13,11.61c1.62-1.23,3.43-1.79,5.43-1.69,3.09.18,5.82,1.23,8.17,3.16.84.88.97,1.85.37,2.9l-1.27,1.69c-.32.74-.42,1.48-.32,2.21-.28,3.48,0,6.82.84,10.02l8.02-3.9c.42-.25.53-.6.32-1.05l-1.79-2.69c2.67-.14,5.11.54,7.3,2.03,2.2,1.5,3.72,3.51,4.56,6.04.25.92.13,1.79-.34,2.61-.47.83-1.19,1.38-2.14,1.66l-2.9.16c-3.34-.91-6.75-1.09-10.23-.53-.77.18-1.41.53-1.9,1.05l-1.21,1.79c-.74.95-1.74,1.42-3.01,1.42-1.2,0-2.2-.46-3.01-1.37-1.65.32-3.03,1.08-4.14,2.29s-1.75,2.65-1.92,4.3c-.21,1.23-.04,2.39.5,3.48.54,1.09,1.38,1.92,2.5,2.48,2.5,1.05,5.1,1.32,7.8.79,4.78-.88,9.7-1.92,14.77-3.11.98-.35,1.95-.35,2.9,0,.95.35,1.72.95,2.32,1.79.53.88.75,1.83.66,2.85-.09,1.02-.48,1.92-1.19,2.69-9.53,4.46-19.35,5.29-29.48,2.48-4.04-1.02-6.93-3.43-8.65-7.22-1.16-3.09-.9-6.06.79-8.91,2.88-4.22,6.78-6.91,11.71-8.07-1.44-6.19-2.16-12.52-2.16-18.98-.18-.74-.59-1.34-1.24-1.79-.65-.46-1.34-.65-2.08-.58Z"/>
        <path class="cls-4" d="M280.85,16.68c1.23-1.69,2.83-2.29,4.8-1.79,3.02.7,5.31,2.32,6.86,4.85.67,1.16.81,2.43.42,3.8-2.74,5.31-4.01,10.88-3.8,16.72.21,2.21,1,4.17,2.37,5.85.32.42.72.58,1.21.47.6-.21,1.05-.61,1.37-1.21,1.69-5.06,4.09-9.74,7.22-14.03-1.9,5.87-2.06,11.78-.47,17.72l.95,2.58c.32,1.02.21,2-.32,2.95-.63.91-1.44,1.44-2.43,1.58-3.48.53-6.7-.18-9.65-2.11s-4.9-4.62-5.85-8.07c-1.44-5.2-1.85-10.49-1.21-15.87l.9-10.86c0-.7-.23-1.3-.69-1.79-.46-.49-1.02-.76-1.69-.79ZM309.32,24.22c1.05-1.51,2.47-2.55,4.25-3.11,1.77-.56,3.54-.49,5.3.21,3.23,1.65,5.81,4.03,7.73,7.12,1.92,3.09,2.89,6.49,2.93,10.18.11,1.41-.26,2.68-1.11,3.82-.84,1.14-1.95,1.89-3.32,2.24-1.9.56-3.48.09-4.75-1.42-1.05-1.48-1.48-3.11-1.27-4.9.35-4.29-.69-8.3-3.11-12.02-.81-.95-1.81-1.63-3.01-2.03-1.2-.4-2.41-.43-3.64-.08Z"/>
        <path class="cls-4" d="M343.07,28.17c-.35,1.09-.11,2.06.74,2.9.91.53,1.83.49,2.74-.11l7.44-4.59c3.8-2,7.88-3.06,12.23-3.16,1.93-.03,3.72.4,5.35,1.32,1.63.92,2.94,2.2,3.93,3.85,1.83,3.69,2.07,7.47.74,11.34-.92,3.27-2.39,6.2-4.43,8.78-2.04,2.58-4.55,4.65-7.54,6.2-5.45,2.64-11.13,3.78-17.03,3.43,4.64-1.48,8.72-3.81,12.23-7.01,3.51-3.2,6.2-7.03,8.07-11.5,1.69-3.62,2.02-7.45,1-11.5-.25-.74-.76-1.11-1.53-1.11-1.9-.07-3.6.46-5.12,1.58-4.01,2.88-7.59,6.22-10.76,10.02-1.93,1.79-4.15,2.32-6.64,1.58-1.3-.35-2.37-1.05-3.22-2.11s-1.32-2.27-1.42-3.64c-.07-2.71,1-4.8,3.22-6.28ZM348.51,9.61c2.92,1.93,6.1,2.64,9.54,2.11l5.38-.9c2.32-.28,4.46.19,6.43,1.42,1.86,1.23,2.62,2.94,2.27,5.12-.14.63-.47,1.16-1,1.58s-1.11.62-1.74.58l-4.01.11c-5.73.07-11.15,1.11-16.24,3.11,2.18-1.93,4.34-3.67,6.49-5.22-2-.32-3.67-1.22-4.98-2.72-1.32-1.49-2.03-3.22-2.14-5.19Z"/>
        <path class="cls-4" d="M399.92,19.89l7.07,5.33c.21.14.32.39.32.74-.07.35-.21.6-.42.74l-1.27,1h22.15l2.85-4.59c.21-.32.46-.49.74-.53.28-.03.56.05.84.26l5.7,6.01c.21.28.28.63.21,1.05-.14.39-.39.62-.74.69h-11.6v22.2c-.28,2.08-1.27,3.81-2.95,5.22-1.69,1.41-3.59,2.07-5.7,2-.84,0-1.51-.37-2-1.11-1.83-3.3-4.64-5.43-8.44-6.38l9.81.42c.7-.25,1.09-.74,1.16-1.48v-20.88h-12.55l-1.05-.9-2.74,2.9,1.05.11c.35.04.6.21.74.53.21.39.21.72,0,1l-1.27,1.69v21.36c-.49,1.23-1.34,2-2.53,2.32-1.41.42-2.81.25-4.22-.53-.63-.6-.95-1.32-.95-2.16v-18.51c-2.39,1.58-4.85,2.9-7.38,3.96,5.83-6.61,10.23-14.1,13.18-22.46ZM399.82,8.66l6.75,5.33c.42.32.53.74.32,1.27-.28.53-.67.76-1.16.69l-1.58-.26c-4.92,3.83-10.37,7-16.35,9.49,4.71-5.24,8.72-10.74,12.02-16.51ZM407.52,13.99h16.77l3.48-4.38c.14-.25.42-.4.84-.47.42,0,.74.11.95.32l4.64,4.9c.35.49.42.99.21,1.5-.21.51-.6.82-1.16.92h-24.57l-1.16-2.79Z"/>
        <path class="cls-4" d="M442,17.26c6.54-1.93,12.83-4.8,18.88-8.6l6.22,5.27c.28.32.32.67.11,1.05-.21.46-.53.6-.95.42l-1.69-.32c-2.25.56-4.29.95-6.12,1.16v4.38h1.69l2.21-3.32c.21-.32.53-.51.95-.58.42-.07.77.04,1.05.32l4.43,3.96c.35.39.46.84.32,1.37-.28.53-.67.79-1.16.79h-9.49v2.37h1.58l.95-1.21c.35-.56.88-.7,1.58-.42l3.69,2.27-.84-2.11h6.12v-15.61l9.49,2.69c.56.11.84.42.84.95.07.46-.11.83-.53,1.11l-2.11,1.53v9.33h4.01l1.58-2.11c.28-.28.6-.42.95-.42s.67.11.95.32l4.75,4.11c.28.28.42.62.42,1,0,.42-.14.74-.42.95l-.84.53c0,8.83-.84,17.58-2.53,26.26-.28,1.16-.84,2.09-1.69,2.79-1.9,1.48-4.04,2.37-6.43,2.69-.56.07-1.13-.05-1.69-.37-.56-.32-.95-.76-1.16-1.32-.56-1.58-1.48-2.9-2.74-3.96s-2.71-1.69-4.32-1.9c-3.24,3.55-7.1,6.06-11.6,7.54,2.95-2.08,5.45-4.69,7.49-7.86l-17.09,6.49c-.42.11-.7.37-.84.79-.14.39-.46.63-.95.74-.42.07-.77-.07-1.05-.42l-4.75-7.44,10.44-.74v-2.69h-7.28l-1.48-2.9h8.75v-4.64h-1.58v.9c0,.63-.32,1-.95,1.11l-4.75.32c-.28,0-.53-.12-.74-.37-.21-.21-.32-.47-.32-.79v-18.25l5.8,1.11h2.53v-2.37h-9.18l-1.48-2.53h10.65v-3.59c-3.38.25-6.61.32-9.7.21ZM450.12,28.7v3.43h1.37v-3.43h-1.37ZM450.12,35.19v3.59h1.37v-3.59h-1.37ZM468.27,27.38c.21.28.25.55.11.79-.07.32-.25.53-.53.63l-.95.84v11.23c.07.25.03.47-.11.69-.14.21-.35.33-.63.37l-2.32.58c.28.07.53.23.74.47l3.16,3.53c.14.56.11,1.07-.11,1.53-.28.53-.67.86-1.16,1h-8.02v2.11l8.44-.53c3.09-7.45,4.64-15.21,4.64-23.26h-3.27ZM458.46,28.7v3.43h1.58v-3.43h-1.58ZM458.46,35.19v3.59h1.58v-3.59h-1.58ZM458.46,41.51v4.64h1.58l2.11-3.16-.74.11c-.7.18-1.16-.05-1.37-.69v-.9h-1.58ZM479.23,27.38c-.35,8.93-3.16,17.02-8.44,24.26,2.6.53,5.06,1.09,7.38,1.69.56.11,1.07.03,1.53-.24.46-.26.76-.64.9-1.13,1.76-8.19,2.5-16.38,2.21-24.57h-3.59Z"/>
        <path class="cls-4" d="M501.49,12.93c1.72-1.48,3.71-2.13,5.96-1.95,2.46.25,4.61,1.23,6.43,2.95.53.53.67,1.16.42,1.9-.35.81-.88,1.56-1.58,2.27l-.53,2.16,1.37-.95c.63-.18,1.23-.21,1.79-.11,1.48.35,2.51,1.2,3.11,2.53.35,1.02.16,1.85-.58,2.48-2.5,2.64-5.47,4.57-8.91,5.8-3.09,9-5.12,18.04-6.06,27.11-.07.6-.37,1.09-.9,1.48-.49.35-1.07.47-1.74.37-1.02-.25-1.9-.73-2.64-1.45-.74-.72-1.23-1.57-1.48-2.56-.25-1.79,0-3.57.74-5.33,2.43-5.91,4.24-12.06,5.43-18.46l-2.16-.26c-1.27-.39-2.31-1.07-3.14-2.06-.83-.98-1.29-2.14-1.4-3.48.7.39,1.51.62,2.43.69,2.04,0,3.9-.63,5.59-1.9l.84-6.7c.18-1.02-.04-1.98-.63-2.87-.6-.9-1.39-1.45-2.37-1.66ZM518.05,39.14c-.67,2.14-.72,4.32-.16,6.54.77,2,2.25,3.15,4.43,3.43,2.64.53,5.15.26,7.54-.79,2.32-.88,4.66-1.51,7.01-1.9,1.3-.07,2.43.3,3.38,1.11.95.88,1.49,2.02,1.63,3.43.07.92-.25,1.62-.95,2.11-2.32,1.69-4.9,2.76-7.75,3.22-4.08.88-8.21.84-12.39-.11-1.86-.49-3.39-1.51-4.59-3.06-1.2-1.55-1.79-3.29-1.79-5.22-.11-3.48,1.11-6.4,3.64-8.75ZM518.42,27.85c2.14-1.62,4.57-3.01,7.28-4.17,2.64-.81,5.34-.84,8.12-.11,1.44.39,2.69,1.09,3.74,2.11,1.05,1.02,1.81,2.25,2.27,3.69.46,1.9.07,3.57-1.16,5.01-.56.56-1.25.92-2.06,1.05-.81.14-1.58.04-2.32-.32-3.13-1.23-6.28-1.65-9.44-1.27,1.58-.74,3.04-1.69,4.38-2.85.49-.42.58-.95.26-1.58-.56-.74-1.28-1.21-2.16-1.42-2.95-.84-5.92-.9-8.91-.16ZM528.54,14.3c1.55-.74,3.15-1.03,4.8-.87,1.65.16,3.18.69,4.59,1.61,1.83,1.48,2.46,3.36,1.9,5.64-.42,1.13-1.23,1.74-2.43,1.85-1.2.18-2.13-.26-2.79-1.32l-1.63-3.85c-.42-.88-1.03-1.6-1.82-2.16-.79-.56-1.66-.86-2.61-.9ZM534.87,11.51c1.48-.84,3.06-1.27,4.75-1.27s3.25.44,4.69,1.32c.88.46,1.56,1.13,2.03,2.03s.64,1.87.5,2.93c-.18,1.3-.92,2.08-2.21,2.32-1.3.25-2.29-.19-2.95-1.32l-1.42-2.64c-1.27-1.93-3.06-3.06-5.38-3.38Z"/>
        <path class="cls-4" d="M554.54,14.67l1.79-.58c1.97.25,3.74.98,5.3,2.19,1.56,1.21,2.77,2.73,3.61,4.56.81,1.65.6,3.16-.63,4.54-2.64,2.39-4.62,5.22-5.96,8.49-1.34,3.27-1.9,6.7-1.69,10.28.11,1.09.56,2.02,1.37,2.79,1.97-5.66,4.41-10.92,7.33-15.77-1.13,4.57-1.86,9.26-2.21,14.08-.11,2.32.25,4.69,1.05,7.12.6,1.44.39,2.76-.63,3.96-1.02,1.09-2.29,1.41-3.8.95-3.2-2-5.57-4.67-7.12-8.02-1.55-3.34-2.06-6.86-1.53-10.55.95-5.59,2.43-10.97,4.43-16.14,1.02-2.88.58-5.52-1.32-7.91ZM577.11,14.04c1.41-1.41,3.09-2.28,5.06-2.61,1.97-.33,3.85-.04,5.64.87.7.42,1.25,1.01,1.63,1.77.39.76.53,1.56.42,2.4-.04.11-.2.55-.5,1.32-.3.77-.47,1.21-.5,1.32v2.9l2-.74c1.09-.39,2.18-.47,3.27-.26,2,.39,3.43,1.56,4.27,3.53.35.84.19,1.55-.47,2.11-2.71,2.21-5.73,3.6-9.07,4.17v11.18c-.18,3.62-1.32,6.89-3.43,9.81-4.78,4.67-10.53,7.26-17.24,7.75,2.81-1.09,5.25-2.72,7.33-4.88,2.07-2.16,3.59-4.65,4.54-7.46,1.41-5.1,1.85-10.16,1.32-15.19-2.5.7-4.94.52-7.33-.55-2.39-1.07-4.17-2.79-5.33-5.14,4.36,1.05,8.56.65,12.6-1.21.11-3.16-.12-6.15-.69-8.96-.74-1.48-1.92-2.18-3.53-2.11Z"/>
        <path class="cls-4" d="M629.84,43.78h-2.37c-.56-9.67-1.99-19.39-4.27-29.16-.25-1.09-.16-2.14.26-3.16.42-1.02,1.07-1.85,1.95-2.48.91-.63,1.92-.96,3.03-.98,1.11-.02,2.12.29,3.03.92.95.6,1.63,1.41,2.03,2.43.4,1.02.5,2.08.29,3.16-2.21,9.39-3.53,19.14-3.96,29.27ZM623.09,55.54c0-1.48.54-2.75,1.63-3.82,1.09-1.07,2.37-1.61,3.85-1.61s2.75.54,3.82,1.61c1.07,1.07,1.59,2.35,1.56,3.82-.04,1.44-.58,2.7-1.63,3.77-1.05,1.07-2.32,1.61-3.8,1.61s-2.75-.54-3.82-1.61-1.61-2.33-1.61-3.77Z"/>
      </g>
      <g>
        <path class="cls-9" d="M16.36,68.26c-1.49,0-2.94-.31-4.33-.93-.34-.15-.67-.33-.99-.52-1.91-1.19-3.41-2.93-4.34-5.02-.07-.15-.13-.3-.19-.46-.31-.83-.66-1.07-.99-1.26-3.33-1.83-4.92-5.75-3.79-9.38.61-1.97,1.93-3.56,3.62-4.55l-4.15-6.69c-1.35-2.18-1.57-4.86-.61-7.23.5-1.24,1.3-2.31,2.3-3.14-.12-.21-.23-.43-.32-.66l-1.48-3.38C.01,22.58.25,19.72,1.73,17.46c1.42-2.18,3.81-3.52,6.39-3.62v-5.4c0-2.55,1.22-4.96,3.28-6.46,1.39-1.01,3.04-1.54,4.72-1.54.82,0,1.64.12,2.44.38l7.47,2.39c.85-.3,1.74-.45,2.65-.45.66,0,1.32.08,1.97.25l4.83,1.23h13.93c.99-.95,2.16-1.66,3.49-2.11.83-.28,1.69-.42,2.56-.42,2.09,0,4.04.68,5.6,1.94l4.26,3.17c2.27,1.63,3.62,4.23,3.62,7.01,0,1.78-.53,3.47-1.48,4.89v38.77c0,.53-.05,1.06-.16,1.58-.33,1.61-1.04,3.11-2.12,4.46-.91,1.15-2.13,2.02-3.5,2.52l-4.32,1.58c-.88.32-1.81.49-2.75.49-2.53,0-4.82-1.04-6.43-2.74h-9.13c-.93.62-2,1.08-3.19,1.31l-4.22.93c-.56.12-1.14.19-1.72.19-2.38,0-4.53-.83-6.16-2.24-1.15.84-2.4,1.52-3.76,2.04-.11.04-.21.08-.32.11-1.09.36-2.21.55-3.34.55Z"/>
        <path class="cls-6" d="M85.15,67.02c-2.68,0-5.13-1.34-6.6-3.47-1.05.31-2.14.46-3.25.46-.99,0-1.99-.13-2.97-.38-2.99-.77-5.45-2.55-7.11-5.15-.04-.06-1.07-1.78-1.07-1.78-.04-.07-.08-.14-.12-.21-.02-.04-.05-.09-.09-.14-3.07-1.56-5.33-4.14-6.47-7.42-1.49-3.93-1.04-8.05,1.27-11.64.19-.3.4-.58.63-.85,2.67-3.15,5.7-5.76,9.05-7.8-1.52-1.4-2.75-3.1-3.65-5.07-1.34-2.92-1.78-6.03-1.3-9.23.45-2.99,2.54-5.47,5.41-6.42.82-.27,1.67-.4,2.51-.4,1.25,0,2.48.29,3.59.85l8.91-4.23c1.65-.85,3.4-1.28,5.18-1.28,2.39,0,4.72.8,6.73,2.31,2.09,1.56,4.04,3.37,5.78,5.38,1.54,1.8,2.41,3.98,2.52,6.26,1.27.25,2.52.64,3.74,1.17,3.4,1.48,6.11,3.83,8.06,7,1.68,2.64,2.02,5.8.93,8.71-.1.26-.21.52-.33.76-.1.21-.21.41-.33.61.53.55,1.05,1.13,1.54,1.72.35.42.65.87.91,1.35,2.16,4.07,2.58,8.49,1.21,12.81-1.04,3.45-3.57,6.13-6.95,7.37-.17.06-.35.12-.52.17-1.1.32-2.22.48-3.33.48-1.4,0-2.79-.26-4.1-.77-1.36,1.47-2.89,2.8-4.59,3.98-4.5,3.12-9.57,4.75-15.06,4.85-.05,0-.1,0-.15,0Z"/>
        <path class="cls-7" d="M134.48,68.11c-1.99,0-3.91-.6-5.56-1.72-2.18-1.46-3.7-3.7-4.28-6.33-.03-.12-.05-.23-.07-.35-.08.03-.15.07-.23.1-.58.23-1.19.4-1.82.49-.46.07-.92.1-1.38.1-3.18,0-6.05-1.62-7.68-4.32-.13-.22-.25-.44-.36-.67l-4.32-9.07c-1.08-2.26-1.04-4.89.11-7.11.86-1.67,2.27-2.96,3.96-3.68v-13.44c-1.07-.87-1.93-2.03-2.44-3.38l-1.05-2.79c-.93-2.46-.59-5.21.9-7.37,1.49-2.16,3.95-3.45,6.58-3.45h16.01c1.65-2.81,4.51-4.48,7.72-4.48,2.63,0,5.09,1.1,6.8,3l4.6,4.41c.09.09.18.18.27.27,1.16-.89,2.55-1.51,4.08-1.76.53-.09,1.04-.13,1.56-.13,2.25,0,4.42.85,6.09,2.35l5.62,4.47c.4.32.77.67,1.1,1.06,1.45,1.69,2.24,3.86,2.24,6.13s-.8,4.36-2.25,6c-.59,5.84-2.19,11.38-4.77,16.57,1.77,1.21,3.69,2.19,5.8,2.97,3.27,1.21,5.38,4.4,5.22,7.88-.17,3.48-2.57,6.46-5.94,7.35-1.81.48-3.08,1.33-4.11,2.75-1.27,1.75-3.19,2.92-5.34,3.23-.38.06-.77.08-1.15.08-1.76,0-3.48-.58-4.89-1.67-1.75-1.35-3.42-2.82-5.01-4.4-3.97,2.85-8.33,5.02-13.03,6.49-.08.03-.16.05-.25.07-.91.25-1.83.38-2.75.38Z"/>
        <path class="cls-5" d="M197.68,67.3c-1.26,0-2.55-.07-3.84-.2-3.91-.28-7.45-1.66-10.53-4.12-1.31-1.04-2.45-2.24-3.41-3.56-.45.05-.9.07-1.35.07-.67,0-1.36-.05-2.04-.16-.31-.05-.62-.11-.93-.2-4.72-1.3-7.92-4.94-8.58-9.76l-.3-1.84c-.04-.23-.06-.45-.08-.68-.29-3.83,1.1-7.38,3.9-9.99.06-.05.11-.1.17-.15,2.77-2.44,5.42-4.99,7.92-7.66-3.59-2.75-5.92-6.6-6.81-11.31-.24-1.26-.17-2.56.2-3.79l.16-.53c.67-2.23,2.28-4.06,4.41-5.01,1.04-.46,2.14-.69,3.25-.69s2.13.21,3.14.64l11.62-4.53c.28-.22.58-.41.89-.59,1.5-.86,3.2-1.31,4.92-1.31,1.02,0,2.03.16,3.02.47,5.15,1.6,9.43,4.67,12.71,9.12.36.5.67,1.03.91,1.59,1.07,2.51,1.07,5.27,0,7.77-.06.14-.13.28-.19.42-.55,1.11-1.29,2.07-2.18,2.87.3.11.59.23.89.36.23.1.46.2.68.32,2.92,1.55,5.31,3.74,7.13,6.5,1.77,2.69,2.8,5.69,3.09,8.9.98,7.07-1.19,13.46-6.28,18.5-.16.16-.33.32-.51.46-6.45,5.37-13.84,8.09-21.94,8.09Z"/>
        <path class="cls-1" d="M251.37,66.81c-4.5,0-9.1-.64-13.66-1.9-6.37-1.64-11.16-5.66-13.88-11.65-.07-.16-.14-.33-.2-.49-2.02-5.38-1.54-10.85,1.4-15.8.09-.15.18-.29.28-.43,2.5-3.66,5.58-6.52,9.21-8.55-.5-3.24-.82-6.51-.97-9.81-1.26-.88-2.28-2.13-2.87-3.64-1.3-3.33-.24-7.11,2.6-9.28,2.87-2.18,6.26-3.33,9.81-3.33.3,0,.59,0,.89.02,4.84.28,9.15,1.95,12.83,4.97.25.2.48.42.7.64,1.85,1.93,2.85,4.32,2.95,6.78,3.32.3,6.42,1.43,9.25,3.35,3.67,2.5,6.25,5.91,7.65,10.12.05.15.1.31.14.46.79,2.95.39,6.02-1.14,8.67-.96,1.68-2.28,3.04-3.87,4.03,1.48.91,2.77,2.12,3.8,3.56.12.17.23.34.34.51,1.39,2.31,2,4.96,1.77,7.64-.24,2.77-1.36,5.33-3.24,7.4-.71.78-1.57,1.41-2.52,1.86-6.89,3.23-14.04,4.86-21.27,4.86Z"/>
        <path class="cls-2" d="M296.84,64.34c-4.22,0-8.2-1.21-11.83-3.58-4.55-2.98-7.73-7.35-9.19-12.64-1.7-6.12-2.19-12.44-1.46-18.79l.6-7.24c-.53-.58-.99-1.25-1.34-1.98-1.26-2.65-.97-5.78.76-8.15,2.47-3.38,6.01-5.25,9.98-5.25,1.04,0,2.1.13,3.15.39,5.07,1.2,9.16,4.12,11.81,8.46.04.06.07.12.11.19,1.35,2.35,1.91,4.94,1.64,7.59.08,0,.28,0,.3,0,.14-1.3.61-2.57,1.39-3.7,2.05-2.94,4.95-5.07,8.39-6.16,1.57-.5,3.18-.75,4.78-.75,2,0,3.99.39,5.91,1.16.23.09.45.19.67.3,4.53,2.32,8.2,5.69,10.88,10.03,2.65,4.28,4.04,9.02,4.12,14.09.17,3.21-.75,6.28-2.67,8.88-1.9,2.58-4.54,4.38-7.63,5.2-1.2.34-2.41.52-3.6.52-3.63,0-6.97-1.6-9.41-4.52-.13-.16-.26-.32-.38-.49-2.17-3.04-3.11-6.6-2.72-10.31.14-1.93-.18-3.69-1.01-5.42-.26.03-.52.04-.78.04-.02,0-.04,0-.06,0-.06.53-.17,1.06-.34,1.58-1.39,4.31-1.54,8.52-.44,12.87l.81,2.22c.05.13.09.26.13.39.96,3.09.62,6.36-.96,9.21-.13.23-.27.45-.42.67-1.89,2.74-4.69,4.49-7.87,4.95-1.07.16-2.21.25-3.33.25Z"/>
        <path class="cls-13" d="M349.31,66.19c-.84,0-1.7-.03-2.55-.08-3.85-.23-6.99-3.17-7.46-6.99-.48-3.83,1.84-7.45,5.51-8.62,1.99-.63,3.81-1.45,5.49-2.47-1.2.32-2.43.49-3.7.49-1.42,0-2.86-.21-4.29-.63-2.89-.8-5.41-2.46-7.28-4.81-1.84-2.29-2.93-5.07-3.15-8.02-.01-.13-.02-.27-.02-.4-.14-5.47,2.26-10.13,6.78-13.14.89-.59,1.87-.99,2.88-1.19.29-.93.76-1.81,1.38-2.59-1.42-2.32-2.23-4.93-2.38-7.7-.16-3.02,1.39-5.87,4.02-7.37,1.23-.71,2.6-1.06,3.97-1.06,1.54,0,3.08.45,4.42,1.33.98.65,1.91.95,2.95.95.29,0,.6-.02.92-.07l5.32-.89c.12-.02.24-.04.35-.05.75-.09,1.5-.14,2.24-.14,3.35,0,6.51.91,9.4,2.72.06.04.12.07.17.11,4.51,2.98,6.61,7.74,5.75,13.06-.03.16-.05.31-.09.46-.11.51-.26,1-.44,1.48,1.1,1.09,2.06,2.33,2.88,3.71.11.18.21.36.3.55,2.73,5.51,3.14,11.48,1.21,17.27-1.2,4.19-3.15,8.01-5.79,11.36-2.74,3.47-6.15,6.28-10.14,8.35-.06.03-.13.07-.19.1-5.88,2.85-12.09,4.29-18.45,4.29Z"/>
        <path class="cls-14" d="M416.96,68.02c-3.46-.05-6.56-1.75-8.5-4.67-.12-.18-.24-.37-.34-.56-.03-.06-.07-.12-.1-.18-1.55,2.3-3.8,3.93-6.54,4.69-1.2.35-2.43.52-3.67.52-2.27,0-4.48-.59-6.58-1.74-.6-.33-1.15-.73-1.64-1.2-2.23-2.11-3.45-4.94-3.45-7.97v-6.58c-2.3-.18-4.48-1.35-5.89-3.32-2.17-3.03-1.96-7.16.51-9.95,1.31-1.49,2.55-3.03,3.7-4.63-1.24-.57-2.34-1.46-3.17-2.64-2.16-3.05-1.92-7.2.58-9.98,4.31-4.8,8.02-9.89,11.03-15.13,1.16-2.02,3.14-3.43,5.42-3.88.5-.1,1.01-.15,1.52-.15,1.78,0,3.53.6,4.96,1.72l4.57,3.61h11.08l.92-1.15c1.38-1.88,3.49-3.17,5.93-3.59.44-.07.89-.11,1.33-.11,2.54,0,4.89.94,6.61,2.66.05.05,4.79,5.06,4.79,5.06.26.27.49.56.71.86,1.94,2.72,2.34,6.16,1.08,9.2-.23.55-.5,1.07-.82,1.56l2.72,2.87c.21.23.41.46.6.71,1.52,2.04,2.12,4.58,1.69,7.16-.08.48-.21.95-.37,1.41-1.09,3.01-3.59,5.18-6.69,5.8-.52.1-1.04.16-1.57.16h-3.6v14.2c0,.36-.02.72-.07,1.08-.55,4.05-2.54,7.61-5.76,10.29-3.04,2.53-6.67,3.86-10.52,3.86-.15,0-.3,0-.46,0Z"/>
        <path class="cls-11" d="M446.86,68.36c-2.76,0-5.34-1.25-7.09-3.43-.18-.23-.35-.46-.5-.7l-4.75-7.44c-1.52-2.38-1.67-5.38-.4-7.9.26-.52.58-1.01.94-1.45-.21-1.32-.09-2.68.35-3.95-.02-.27-.04-.54-.04-.81v-15.9l-1.23-2.11c-1.41-2.41-1.45-5.38-.13-7.83.17-3.33,2.43-6.27,5.72-7.25,5.81-1.72,11.49-4.31,16.89-7.7,1.31-.82,2.78-1.23,4.25-1.23,1.85,0,3.69.64,5.17,1.9l.04.03c.2-.18.4-.36.62-.52,1.4-1.06,3.1-1.62,4.82-1.62.73,0,1.46.1,2.18.3l9.29,2.63c3.87.94,6.59,4.17,6.85,8.1.08.98.01,1.94-.2,2.86.65.29,1.28.66,1.86,1.09.15.12.3.24.45.36l4.75,4.11c.15.13.29.26.43.4,1.78,1.78,2.75,4.14,2.75,6.65,0,1.73-.46,3.37-1.3,4.78-.19,8.2-1.07,16.42-2.64,24.48-.02.12-.05.24-.08.36-.68,2.81-2.18,5.25-4.33,7.05-.07.06-.14.12-.21.17-3.03,2.35-6.49,3.8-10.29,4.31-.49.06-.92.09-1.36.09-1.85,0-3.64-.48-5.31-1.42-1.66-.93-2.99-2.23-3.92-3.81-2.88,2.07-6.05,3.68-9.48,4.81-.82.27-1.67.4-2.49.4-2.02,0-3.98-.77-5.45-2.15-1.18,1.04-2.64,1.78-4.26,2.12-.12.03-.24.05-.36.07-.5.08-1.01.13-1.52.13Z"/>
        <path class="cls-8" d="M500.72,67c-.56,0-1.13-.05-1.7-.13-.21-.03-.42-.07-.62-.12-2.43-.59-4.57-1.76-6.35-3.5-1.79-1.75-3.06-3.94-3.66-6.35-.07-.28-.12-.56-.16-.85-.44-3.22,0-6.42,1.29-9.51,1.38-3.36,2.56-6.87,3.51-10.47-.77-.61-1.48-1.3-2.13-2.08-1.88-2.24-3.01-5.01-3.24-7.99-.23-2.93,1.17-5.76,3.64-7.35,1.09-.7,2.32-1.12,3.56-1.24-.51-.75-.9-1.6-1.13-2.51-.75-2.95.24-6.06,2.55-8.04,2.98-2.56,6.6-3.91,10.46-3.91.44,0,.88.02,1.33.05.06,0,.12,0,.17.02,4.25.42,7.99,2.14,11.12,5.09.06.05.12.11.17.17.75.75,1.36,1.59,1.83,2.49.77-1.57,2.06-2.89,3.73-3.68,1.4-.67,2.83-1.14,4.31-1.41.45-.42.95-.8,1.5-1.11,2.69-1.54,5.63-2.32,8.71-2.32s5.99.79,8.65,2.36c2.19,1.2,3.97,3.01,5.15,5.24,1.25,2.36,1.72,5.03,1.36,7.72-.59,4.35-3.42,7.65-7.5,8.85.06.18.12.36.18.55.06.18.11.36.15.55,1.06,4.39.04,8.68-2.85,12.07-.14.16-.28.31-.43.46-.11.11-.22.21-.33.32.5.32.98.67,1.44,1.07.08.07.17.15.25.22,2.39,2.21,3.82,5.15,4.16,8.5,0,.06.01.12.02.18.28,3.68-1.31,7.12-4.26,9.22-3.27,2.37-6.95,3.91-10.93,4.58-2.44.51-4.93.77-7.4.77-2.73,0-5.5-.31-8.24-.94-.09-.02-.18-.04-.28-.07-3.13-.83-5.89-2.51-8.04-4.91-.52,2.41-1.9,4.54-3.95,6.04-.03.02-.07.05-.1.07-1.74,1.23-3.79,1.89-5.93,1.89Z"/>
        <path class="cls-10" d="M568.19,67.55c-2.07,0-4.01-.8-5.45-2.15-.46.06-.92.08-1.39.08-1.18,0-2.39-.18-3.58-.54-.68-.21-1.33-.5-1.94-.88-4.52-2.83-7.93-6.68-10.13-11.43-2.2-4.75-2.94-9.81-2.19-15.04,0-.07.02-.14.03-.21,1.03-6.04,2.64-11.94,4.8-17.54,0-.03.02-.05.02-.08-.02-.03-.05-.07-.09-.12-1.63-2.05-2.15-4.78-1.39-7.29.76-2.51,2.7-4.49,5.2-5.3l1.79-.58c.8-.26,1.63-.39,2.46-.39.33,0,.66.02.99.06,3.4.43,6.5,1.71,9.21,3.8.99.77,1.9,1.62,2.72,2.55.3-1.53,1.04-2.97,2.19-4.12,2.59-2.59,5.75-4.22,9.38-4.84.97-.16,1.94-.25,2.9-.25,2.68,0,5.27.63,7.71,1.88.16.08.32.17.48.27,1.97,1.18,3.57,2.9,4.64,4.98.53,1.05.91,2.15,1.12,3.28,3.64,1.27,6.47,3.94,8.08,7.69,1.72,4.14.66,8.58-2.68,11.38-.03.02-.06.05-.09.07-1.92,1.57-3.97,2.85-6.13,3.83v5.32c0,.13,0,.26,0,.39-.25,5.18-1.91,9.93-4.93,14.11-.27.37-.56.71-.89,1.03-6.15,6.01-13.63,9.38-22.25,10.01-.2.01-.4.02-.59.02ZM571.44,45.72c-.01.39,0,.78.03,1.17.38-.64.69-1.32.95-2.04.46-1.71.79-3.42.98-5.12-.41-.12-.81-.25-1.21-.39-.33,2.1-.58,4.24-.74,6.38Z"/>
        <path class="cls-3" d="M628.53,68.92c-3.62,0-6.89-1.37-9.48-3.95-2.58-2.58-3.95-5.84-3.95-9.43s1.39-6.93,4.02-9.52c.18-.18.36-.34.54-.51-.09-.41-.15-.83-.17-1.26-.53-9.17-1.9-18.52-4.08-27.81-.62-2.75-.39-5.51.66-8.04,1-2.41,2.57-4.4,4.67-5.91.04-.03.08-.06.12-.09,2.2-1.52,4.78-2.35,7.45-2.4.04,0,.18,0,.22,0,2.63,0,5.17.78,7.35,2.25,2.31,1.49,4.05,3.62,5.06,6.15.96,2.43,1.2,5.07.71,7.63-.02.11-.04.21-.07.32-2.09,8.85-3.35,18.19-3.75,27.76-.02.53-.09,1.04-.21,1.53.15.13.29.27.43.41,2.64,2.64,3.98,5.98,3.9,9.67-.08,3.49-1.44,6.67-3.93,9.19-2.58,2.62-5.86,4-9.5,4Z"/>
      </g>
      <g>
        <path class="cls-12" d="M8.42,21.84h7.7v-13.39l7.91,2.53c.42.14.63.39.63.74.07.42-.07.7-.42.84l-1.58,1.16v8.12h1.27l1.58-2.74c.49-.35.95-.39,1.37-.11l1.79,2.64v-10.86l5.8,1.48h18.88l1.58-2.21c.14-.14.32-.25.53-.32.28,0,.49.07.63.21l4.54,3.38c.21.14.32.32.32.53,0,.28-.11.49-.32.63l-1.16,1.27v41.77c-.07.35-.25.7-.53,1.05l-4.32,1.58c-.49,0-.77-.25-.84-.74v-2h-18.98v.63c.07.49-.11.77-.53.84l-4.32.95c-.77,0-1.2-.35-1.27-1.05v-27.11l-6.01,4.22v16.88c-.21,1.69-.81,3.2-1.79,4.54-.98,1.34-2.21,2.29-3.69,2.85-.63.21-1.27.18-1.9-.11-.56-.35-.98-.84-1.27-1.48-.91-2.46-2.46-4.29-4.64-5.48l5.27.53c.42,0,.77-.14,1.05-.42.28-.28.42-.6.42-.95v-11.71l-1.69,1.16-.11.63c-.14.42-.39.67-.74.74-.35.07-.67-.03-.95-.32l-4.64-7.49,8.12-2v-8.02h-6.22l-1.48-3.38ZM22.66,25.22v6.33l6.01-1.58v-4.75h-6.01ZM34.79,15.09v5.59h12.66l1.48-2.53c.56-.56,1.12-.6,1.69-.11l3.16,3.69v-6.64h-18.98ZM34.79,23.53v8.02h4.75v-8.02h-4.75ZM34.79,34.39v12.02h4.75v-12.02h-4.75ZM34.79,49.16v5.27h18.98v-5.27h-18.98ZM45.44,23.53v8.02h1.79l1.69-3.16c.56-.49,1.09-.53,1.58-.11l3.27,4.11v-8.86h-8.33ZM45.44,34.39v.95c3.09.84,5.45,2.6,7.07,5.27.21.7.19,1.37-.05,2-.25.63-.69,1.13-1.32,1.48l2.64,3.06v-12.76h-8.33ZM45.44,46.42h2.95l1.37-2.11c-.63,0-1.18-.21-1.63-.63-.46-.42-.72-.95-.79-1.58-.35-1.76-.98-3.3-1.9-4.64v8.96Z"/>
        <path class="cls-12" d="M86.84,37.14c-1.2,3.24-2.25,6.59-3.16,10.07-.35,1.79-1.09,3.41-2.21,4.85-1.13,1.44-2.51,2.57-4.17,3.38-.95.56-1.93.71-2.95.45-1.02-.26-1.81-.84-2.37-1.71l-.95-1.58c-.67-1.19-1.58-2.21-2.74-3.06-1.65-.6-2.74-1.71-3.27-3.32-.63-1.58-.47-3.11.47-4.59,4.11-4.85,9.19-8.02,15.24-9.49l4.85-14.4c-2.07,1.48-4.22,3.34-6.43,5.59-.49.49-1.12.78-1.87.87-.76.09-1.45-.06-2.08-.45-1.41-.84-2.45-2.01-3.14-3.51-.69-1.49-.91-3.07-.66-4.72,1.37,1.37,2.95,1.76,4.75,1.16l11.34-5.38c1.23-.67,2.41-.58,3.53.26,1.65,1.23,3.16,2.64,4.54,4.22.42.49.61,1.05.58,1.69-.07.63-.33,1.16-.79,1.58-1.2.49-1.99,1.37-2.37,2.64l-4.27,10.12c3.44.25,6.93,1.04,10.44,2.37l.58-4.8c.07-1.65-.25-3.22-.95-4.69,2.04-.42,4.01-.22,5.91.61,1.9.83,3.39,2.14,4.48,3.93.35.53.42,1.07.21,1.63-.32.63-.76,1-1.32,1.11-.46.21-.65.51-.58.9l-1.16,4.43c1.97,1.2,3.73,2.72,5.27,4.59,1.16,2.18,1.37,4.41.63,6.7-.32,1.09-1,1.83-2.06,2.21-1.09.32-2.09.18-3.01-.42l-4.32-3.59c-1.48,3.66-3.81,6.59-7.01,8.81-3.2,2.21-6.75,3.36-10.65,3.43,6.36-4.25,10.49-10.14,12.39-17.67-3.23-2.29-6.8-3.69-10.71-4.22ZM79.3,37.72l-4.11,2.43c-2,1.13-3.29,2.79-3.85,5.01-.11,1.2.03,2.32.42,3.38.7.67,1.44.72,2.21.16,2.39-3.34,4.17-7,5.33-10.97Z"/>
        <path class="cls-12" d="M116.84,13.09h20.67l2.21-3.9c.21-.39.49-.58.84-.58.42,0,.74.16.95.47l4.96,4.75c.42.39.49.83.21,1.32-.21.56-.6.81-1.16.74h-5.8v1.69h15.71l1.37-2.53c.14-.35.42-.56.84-.63.42-.07.77.05,1.05.37l5.91,4.69c.21.25.32.55.32.92s-.14.66-.42.87l-1.58,1.11c-.21,8.16-2.64,15.58-7.28,22.25,3.73,3.97,8.16,6.91,13.29,8.81-3.59.95-6.43,2.88-8.54,5.8-3.38-2.6-6.4-5.71-9.07-9.33-4.64,4.82-10.05,8.19-16.24,10.12-.63.18-1.2.09-1.69-.26-.49-.32-.81-.79-.95-1.42v-13.5l-10.23,5.96-.21.79c-.07.39-.28.65-.63.79-.49.07-.84-.07-1.05-.42l-4.32-9.07,4.85-.84V15.88h-2.95l-1.05-2.79ZM128.13,15.88v6.86h4.32v-6.86h-4.32ZM128.13,25.64v5.96h4.32v-5.96h-4.32ZM128.13,34.39v6.22l4.32-.84v-5.38h-4.32ZM139.73,20.37v17.98l5.06-.9-5.06,3.01v16.14c3.23-3.55,6.08-7.44,8.54-11.65-4.22-7.77-5.98-15.96-5.27-24.57h-3.27ZM145.43,20.37c.21,6.64,2.11,12.8,5.7,18.46,2.25-5.98,3.41-12.13,3.48-18.46h-9.18Z"/>
        <path class="cls-12" d="M179.81,15.73c1.93.92,3.94.95,6.01.11l12.71-4.96.9-.69c.49-.28,1.02-.33,1.58-.16,3.51,1.09,6.4,3.16,8.65,6.22.21.49.21.98,0,1.48-.25.49-.67.79-1.27.9-5.31,3.55-9.77,7.98-13.39,13.29,5.8-2.43,11.62-2.43,17.46,0,1.72.92,3.12,2.19,4.19,3.82,1.07,1.63,1.68,3.44,1.82,5.41.7,4.64-.62,8.61-3.96,11.92-5.84,4.85-12.5,6.87-19.99,6.06-2.32-.14-4.4-.94-6.22-2.4-1.83-1.46-3.02-3.33-3.59-5.62-.28-1.05-.2-2.1.24-3.14.44-1.04,1.17-1.78,2.19-2.24,2.78-1.48,5.57-1.48,8.38,0,1.27.7,2.31,1.68,3.14,2.93.83,1.25,1.29,2.61,1.4,4.09,1.9.04,3.67-.45,5.3-1.45s2.87-2.36,3.72-4.09c.84-1.69,1.23-3.45,1.16-5.3-.07-1.85-.6-3.56-1.58-5.14-.98-1.41-2.36-2.11-4.11-2.11-3.69-.18-7,.72-9.91,2.69-5.06,3.34-9.28,7.42-12.66,12.23-.98,1.51-2.41,2.13-4.27,1.85-1.65-.46-2.58-1.53-2.79-3.22l-.32-1.95c-.11-1.41.35-2.58,1.37-3.53,8.93-7.84,16.49-16.72,22.68-26.63-4.08,1.55-7.52,3.94-10.34,7.17-.77,1.05-1.74,1.27-2.9.63-3.16-1.58-5.08-4.13-5.75-7.65l.16-.53ZM193.89,52.75c.07-.95-.21-1.74-.84-2.37-.67-.63-1.46-.91-2.37-.84-.7,0-1.14.32-1.32.95-.18.7.03,1.23.63,1.58,1.23.56,2.53.79,3.9.69Z"/>
        <path class="cls-12" d="M238.13,11.61c1.62-1.23,3.43-1.79,5.43-1.69,3.09.18,5.82,1.23,8.17,3.16.84.88.97,1.85.37,2.9l-1.27,1.69c-.32.74-.42,1.48-.32,2.21-.28,3.48,0,6.82.84,10.02l8.02-3.9c.42-.25.53-.6.32-1.05l-1.79-2.69c2.67-.14,5.11.54,7.3,2.03,2.2,1.5,3.72,3.51,4.56,6.04.25.92.13,1.79-.34,2.61-.47.83-1.19,1.38-2.14,1.66l-2.9.16c-3.34-.91-6.75-1.09-10.23-.53-.77.18-1.41.53-1.9,1.05l-1.21,1.79c-.74.95-1.74,1.42-3.01,1.42-1.2,0-2.2-.46-3.01-1.37-1.65.32-3.03,1.08-4.14,2.29s-1.75,2.65-1.92,4.3c-.21,1.23-.04,2.39.5,3.48.54,1.09,1.38,1.92,2.5,2.48,2.5,1.05,5.1,1.32,7.8.79,4.78-.88,9.7-1.92,14.77-3.11.98-.35,1.95-.35,2.9,0,.95.35,1.72.95,2.32,1.79.53.88.75,1.83.66,2.85-.09,1.02-.48,1.92-1.19,2.69-9.53,4.46-19.35,5.29-29.48,2.48-4.04-1.02-6.93-3.43-8.65-7.22-1.16-3.09-.9-6.06.79-8.91,2.88-4.22,6.78-6.91,11.71-8.07-1.44-6.19-2.16-12.52-2.16-18.98-.18-.74-.59-1.34-1.24-1.79-.65-.46-1.34-.65-2.08-.58Z"/>
        <path class="cls-12" d="M280.85,16.68c1.23-1.69,2.83-2.29,4.8-1.79,3.02.7,5.31,2.32,6.86,4.85.67,1.16.81,2.43.42,3.8-2.74,5.31-4.01,10.88-3.8,16.72.21,2.21,1,4.17,2.37,5.85.32.42.72.58,1.21.47.6-.21,1.05-.61,1.37-1.21,1.69-5.06,4.09-9.74,7.22-14.03-1.9,5.87-2.06,11.78-.47,17.72l.95,2.58c.32,1.02.21,2-.32,2.95-.63.91-1.44,1.44-2.43,1.58-3.48.53-6.7-.18-9.65-2.11s-4.9-4.62-5.85-8.07c-1.44-5.2-1.85-10.49-1.21-15.87l.9-10.86c0-.7-.23-1.3-.69-1.79-.46-.49-1.02-.76-1.69-.79ZM309.32,24.22c1.05-1.51,2.47-2.55,4.25-3.11,1.77-.56,3.54-.49,5.3.21,3.23,1.65,5.81,4.03,7.73,7.12,1.92,3.09,2.89,6.49,2.93,10.18.11,1.41-.26,2.68-1.11,3.82-.84,1.14-1.95,1.89-3.32,2.24-1.9.56-3.48.09-4.75-1.42-1.05-1.48-1.48-3.11-1.27-4.9.35-4.29-.69-8.3-3.11-12.02-.81-.95-1.81-1.63-3.01-2.03-1.2-.4-2.41-.43-3.64-.08Z"/>
        <path class="cls-12" d="M343.07,28.17c-.35,1.09-.11,2.06.74,2.9.91.53,1.83.49,2.74-.11l7.44-4.59c3.8-2,7.88-3.06,12.23-3.16,1.93-.03,3.72.4,5.35,1.32,1.63.92,2.94,2.2,3.93,3.85,1.83,3.69,2.07,7.47.74,11.34-.92,3.27-2.39,6.2-4.43,8.78-2.04,2.58-4.55,4.65-7.54,6.2-5.45,2.64-11.13,3.78-17.03,3.43,4.64-1.48,8.72-3.81,12.23-7.01,3.51-3.2,6.2-7.03,8.07-11.5,1.69-3.62,2.02-7.45,1-11.5-.25-.74-.76-1.11-1.53-1.11-1.9-.07-3.6.46-5.12,1.58-4.01,2.88-7.59,6.22-10.76,10.02-1.93,1.79-4.15,2.32-6.64,1.58-1.3-.35-2.37-1.05-3.22-2.11s-1.32-2.27-1.42-3.64c-.07-2.71,1-4.8,3.22-6.28ZM348.51,9.61c2.92,1.93,6.1,2.64,9.54,2.11l5.38-.9c2.32-.28,4.46.19,6.43,1.42,1.86,1.23,2.62,2.94,2.27,5.12-.14.63-.47,1.16-1,1.58s-1.11.62-1.74.58l-4.01.11c-5.73.07-11.15,1.11-16.24,3.11,2.18-1.93,4.34-3.67,6.49-5.22-2-.32-3.67-1.22-4.98-2.72-1.32-1.49-2.03-3.22-2.14-5.19Z"/>
        <path class="cls-12" d="M399.92,19.89l7.07,5.33c.21.14.32.39.32.74-.07.35-.21.6-.42.74l-1.27,1h22.15l2.85-4.59c.21-.32.46-.49.74-.53.28-.03.56.05.84.26l5.7,6.01c.21.28.28.63.21,1.05-.14.39-.39.62-.74.69h-11.6v22.2c-.28,2.08-1.27,3.81-2.95,5.22-1.69,1.41-3.59,2.07-5.7,2-.84,0-1.51-.37-2-1.11-1.83-3.3-4.64-5.43-8.44-6.38l9.81.42c.7-.25,1.09-.74,1.16-1.48v-20.88h-12.55l-1.05-.9-2.74,2.9,1.05.11c.35.04.6.21.74.53.21.39.21.72,0,1l-1.27,1.69v21.36c-.49,1.23-1.34,2-2.53,2.32-1.41.42-2.81.25-4.22-.53-.63-.6-.95-1.32-.95-2.16v-18.51c-2.39,1.58-4.85,2.9-7.38,3.96,5.83-6.61,10.23-14.1,13.18-22.46ZM399.82,8.66l6.75,5.33c.42.32.53.74.32,1.27-.28.53-.67.76-1.16.69l-1.58-.26c-4.92,3.83-10.37,7-16.35,9.49,4.71-5.24,8.72-10.74,12.02-16.51ZM407.52,13.99h16.77l3.48-4.38c.14-.25.42-.4.84-.47.42,0,.74.11.95.32l4.64,4.9c.35.49.42.99.21,1.5-.21.51-.6.82-1.16.92h-24.57l-1.16-2.79Z"/>
        <path class="cls-12" d="M442,17.26c6.54-1.93,12.83-4.8,18.88-8.6l6.22,5.27c.28.32.32.67.11,1.05-.21.46-.53.6-.95.42l-1.69-.32c-2.25.56-4.29.95-6.12,1.16v4.38h1.69l2.21-3.32c.21-.32.53-.51.95-.58.42-.07.77.04,1.05.32l4.43,3.96c.35.39.46.84.32,1.37-.28.53-.67.79-1.16.79h-9.49v2.37h1.58l.95-1.21c.35-.56.88-.7,1.58-.42l3.69,2.27-.84-2.11h6.12v-15.61l9.49,2.69c.56.11.84.42.84.95.07.46-.11.83-.53,1.11l-2.11,1.53v9.33h4.01l1.58-2.11c.28-.28.6-.42.95-.42s.67.11.95.32l4.75,4.11c.28.28.42.62.42,1,0,.42-.14.74-.42.95l-.84.53c0,8.83-.84,17.58-2.53,26.26-.28,1.16-.84,2.09-1.69,2.79-1.9,1.48-4.04,2.37-6.43,2.69-.56.07-1.13-.05-1.69-.37-.56-.32-.95-.76-1.16-1.32-.56-1.58-1.48-2.9-2.74-3.96s-2.71-1.69-4.32-1.9c-3.24,3.55-7.1,6.06-11.6,7.54,2.95-2.08,5.45-4.69,7.49-7.86l-17.09,6.49c-.42.11-.7.37-.84.79-.14.39-.46.63-.95.74-.42.07-.77-.07-1.05-.42l-4.75-7.44,10.44-.74v-2.69h-7.28l-1.48-2.9h8.75v-4.64h-1.58v.9c0,.63-.32,1-.95,1.11l-4.75.32c-.28,0-.53-.12-.74-.37-.21-.21-.32-.47-.32-.79v-18.25l5.8,1.11h2.53v-2.37h-9.18l-1.48-2.53h10.65v-3.59c-3.38.25-6.61.32-9.7.21ZM450.12,28.7v3.43h1.37v-3.43h-1.37ZM450.12,35.19v3.59h1.37v-3.59h-1.37ZM468.27,27.38c.21.28.25.55.11.79-.07.32-.25.53-.53.63l-.95.84v11.23c.07.25.03.47-.11.69-.14.21-.35.33-.63.37l-2.32.58c.28.07.53.23.74.47l3.16,3.53c.14.56.11,1.07-.11,1.53-.28.53-.67.86-1.16,1h-8.02v2.11l8.44-.53c3.09-7.45,4.64-15.21,4.64-23.26h-3.27ZM458.46,28.7v3.43h1.58v-3.43h-1.58ZM458.46,35.19v3.59h1.58v-3.59h-1.58ZM458.46,41.51v4.64h1.58l2.11-3.16-.74.11c-.7.18-1.16-.05-1.37-.69v-.9h-1.58ZM479.23,27.38c-.35,8.93-3.16,17.02-8.44,24.26,2.6.53,5.06,1.09,7.38,1.69.56.11,1.07.03,1.53-.24.46-.26.76-.64.9-1.13,1.76-8.19,2.5-16.38,2.21-24.57h-3.59Z"/>
        <path class="cls-12" d="M501.49,12.93c1.72-1.48,3.71-2.13,5.96-1.95,2.46.25,4.61,1.23,6.43,2.95.53.53.67,1.16.42,1.9-.35.81-.88,1.56-1.58,2.27l-.53,2.16,1.37-.95c.63-.18,1.23-.21,1.79-.11,1.48.35,2.51,1.2,3.11,2.53.35,1.02.16,1.85-.58,2.48-2.5,2.64-5.47,4.57-8.91,5.8-3.09,9-5.12,18.04-6.06,27.11-.07.6-.37,1.09-.9,1.48-.49.35-1.07.47-1.74.37-1.02-.25-1.9-.73-2.64-1.45-.74-.72-1.23-1.57-1.48-2.56-.25-1.79,0-3.57.74-5.33,2.43-5.91,4.24-12.06,5.43-18.46l-2.16-.26c-1.27-.39-2.31-1.07-3.14-2.06-.83-.98-1.29-2.14-1.4-3.48.7.39,1.51.62,2.43.69,2.04,0,3.9-.63,5.59-1.9l.84-6.7c.18-1.02-.04-1.98-.63-2.87-.6-.9-1.39-1.45-2.37-1.66ZM518.05,39.14c-.67,2.14-.72,4.32-.16,6.54.77,2,2.25,3.15,4.43,3.43,2.64.53,5.15.26,7.54-.79,2.32-.88,4.66-1.51,7.01-1.9,1.3-.07,2.43.3,3.38,1.11.95.88,1.49,2.02,1.63,3.43.07.92-.25,1.62-.95,2.11-2.32,1.69-4.9,2.76-7.75,3.22-4.08.88-8.21.84-12.39-.11-1.86-.49-3.39-1.51-4.59-3.06-1.2-1.55-1.79-3.29-1.79-5.22-.11-3.48,1.11-6.4,3.64-8.75ZM518.42,27.85c2.14-1.62,4.57-3.01,7.28-4.17,2.64-.81,5.34-.84,8.12-.11,1.44.39,2.69,1.09,3.74,2.11,1.05,1.02,1.81,2.25,2.27,3.69.46,1.9.07,3.57-1.16,5.01-.56.56-1.25.92-2.06,1.05-.81.14-1.58.04-2.32-.32-3.13-1.23-6.28-1.65-9.44-1.27,1.58-.74,3.04-1.69,4.38-2.85.49-.42.58-.95.26-1.58-.56-.74-1.28-1.21-2.16-1.42-2.95-.84-5.92-.9-8.91-.16ZM528.54,14.3c1.55-.74,3.15-1.03,4.8-.87,1.65.16,3.18.69,4.59,1.61,1.83,1.48,2.46,3.36,1.9,5.64-.42,1.13-1.23,1.74-2.43,1.85-1.2.18-2.13-.26-2.79-1.32l-1.63-3.85c-.42-.88-1.03-1.6-1.82-2.16-.79-.56-1.66-.86-2.61-.9ZM534.87,11.51c1.48-.84,3.06-1.27,4.75-1.27s3.25.44,4.69,1.32c.88.46,1.56,1.13,2.03,2.03s.64,1.87.5,2.93c-.18,1.3-.92,2.08-2.21,2.32-1.3.25-2.29-.19-2.95-1.32l-1.42-2.64c-1.27-1.93-3.06-3.06-5.38-3.38Z"/>
        <path class="cls-12" d="M554.54,14.67l1.79-.58c1.97.25,3.74.98,5.3,2.19,1.56,1.21,2.77,2.73,3.61,4.56.81,1.65.6,3.16-.63,4.54-2.64,2.39-4.62,5.22-5.96,8.49-1.34,3.27-1.9,6.7-1.69,10.28.11,1.09.56,2.02,1.37,2.79,1.97-5.66,4.41-10.92,7.33-15.77-1.13,4.57-1.86,9.26-2.21,14.08-.11,2.32.25,4.69,1.05,7.12.6,1.44.39,2.76-.63,3.96-1.02,1.09-2.29,1.41-3.8.95-3.2-2-5.57-4.67-7.12-8.02-1.55-3.34-2.06-6.86-1.53-10.55.95-5.59,2.43-10.97,4.43-16.14,1.02-2.88.58-5.52-1.32-7.91ZM577.11,14.04c1.41-1.41,3.09-2.28,5.06-2.61,1.97-.33,3.85-.04,5.64.87.7.42,1.25,1.01,1.63,1.77.39.76.53,1.56.42,2.4-.04.11-.2.55-.5,1.32-.3.77-.47,1.21-.5,1.32v2.9l2-.74c1.09-.39,2.18-.47,3.27-.26,2,.39,3.43,1.56,4.27,3.53.35.84.19,1.55-.47,2.11-2.71,2.21-5.73,3.6-9.07,4.17v11.18c-.18,3.62-1.32,6.89-3.43,9.81-4.78,4.67-10.53,7.26-17.24,7.75,2.81-1.09,5.25-2.72,7.33-4.88,2.07-2.16,3.59-4.65,4.54-7.46,1.41-5.1,1.85-10.16,1.32-15.19-2.5.7-4.94.52-7.33-.55-2.39-1.07-4.17-2.79-5.33-5.14,4.36,1.05,8.56.65,12.6-1.21.11-3.16-.12-6.15-.69-8.96-.74-1.48-1.92-2.18-3.53-2.11Z"/>
        <path class="cls-12" d="M629.84,43.78h-2.37c-.56-9.67-1.99-19.39-4.27-29.16-.25-1.09-.16-2.14.26-3.16.42-1.02,1.07-1.85,1.95-2.48.91-.63,1.92-.96,3.03-.98,1.11-.02,2.12.29,3.03.92.95.6,1.63,1.41,2.03,2.43.4,1.02.5,2.08.29,3.16-2.21,9.39-3.53,19.14-3.96,29.27ZM623.09,55.54c0-1.48.54-2.75,1.63-3.82,1.09-1.07,2.37-1.61,3.85-1.61s2.75.54,3.82,1.61c1.07,1.07,1.59,2.35,1.56,3.82-.04,1.44-.58,2.7-1.63,3.77-1.05,1.07-2.32,1.61-3.8,1.61s-2.75-.54-3.82-1.61-1.61-2.33-1.61-3.77Z"/>
      </g>
      <g>
        <path class="cls-4" d="M8.42,21.84h7.7v-13.39l7.91,2.53c.42.14.63.39.63.74.07.42-.07.7-.42.84l-1.58,1.16v8.12h1.27l1.58-2.74c.49-.35.95-.39,1.37-.11l1.79,2.64v-10.86l5.8,1.48h18.88l1.58-2.21c.14-.14.32-.25.53-.32.28,0,.49.07.63.21l4.54,3.38c.21.14.32.32.32.53,0,.28-.11.49-.32.63l-1.16,1.27v41.77c-.07.35-.25.7-.53,1.05l-4.32,1.58c-.49,0-.77-.25-.84-.74v-2h-18.98v.63c.07.49-.11.77-.53.84l-4.32.95c-.77,0-1.2-.35-1.27-1.05v-27.11l-6.01,4.22v16.88c-.21,1.69-.81,3.2-1.79,4.54-.98,1.34-2.21,2.29-3.69,2.85-.63.21-1.27.18-1.9-.11-.56-.35-.98-.84-1.27-1.48-.91-2.46-2.46-4.29-4.64-5.48l5.27.53c.42,0,.77-.14,1.05-.42.28-.28.42-.6.42-.95v-11.71l-1.69,1.16-.11.63c-.14.42-.39.67-.74.74-.35.07-.67-.03-.95-.32l-4.64-7.49,8.12-2v-8.02h-6.22l-1.48-3.38ZM22.66,25.22v6.33l6.01-1.58v-4.75h-6.01ZM34.79,15.09v5.59h12.66l1.48-2.53c.56-.56,1.12-.6,1.69-.11l3.16,3.69v-6.64h-18.98ZM34.79,23.53v8.02h4.75v-8.02h-4.75ZM34.79,34.39v12.02h4.75v-12.02h-4.75ZM34.79,49.16v5.27h18.98v-5.27h-18.98ZM45.44,23.53v8.02h1.79l1.69-3.16c.56-.49,1.09-.53,1.58-.11l3.27,4.11v-8.86h-8.33ZM45.44,34.39v.95c3.09.84,5.45,2.6,7.07,5.27.21.7.19,1.37-.05,2-.25.63-.69,1.13-1.32,1.48l2.64,3.06v-12.76h-8.33ZM45.44,46.42h2.95l1.37-2.11c-.63,0-1.18-.21-1.63-.63-.46-.42-.72-.95-.79-1.58-.35-1.76-.98-3.3-1.9-4.64v8.96Z"/>
        <path class="cls-4" d="M86.84,37.14c-1.2,3.24-2.25,6.59-3.16,10.07-.35,1.79-1.09,3.41-2.21,4.85-1.13,1.44-2.51,2.57-4.17,3.38-.95.56-1.93.71-2.95.45-1.02-.26-1.81-.84-2.37-1.71l-.95-1.58c-.67-1.19-1.58-2.21-2.74-3.06-1.65-.6-2.74-1.71-3.27-3.32-.63-1.58-.47-3.11.47-4.59,4.11-4.85,9.19-8.02,15.24-9.49l4.85-14.4c-2.07,1.48-4.22,3.34-6.43,5.59-.49.49-1.12.78-1.87.87-.76.09-1.45-.06-2.08-.45-1.41-.84-2.45-2.01-3.14-3.51-.69-1.49-.91-3.07-.66-4.72,1.37,1.37,2.95,1.76,4.75,1.16l11.34-5.38c1.23-.67,2.41-.58,3.53.26,1.65,1.23,3.16,2.64,4.54,4.22.42.49.61,1.05.58,1.69-.07.63-.33,1.16-.79,1.58-1.2.49-1.99,1.37-2.37,2.64l-4.27,10.12c3.44.25,6.93,1.04,10.44,2.37l.58-4.8c.07-1.65-.25-3.22-.95-4.69,2.04-.42,4.01-.22,5.91.61,1.9.83,3.39,2.14,4.48,3.93.35.53.42,1.07.21,1.63-.32.63-.76,1-1.32,1.11-.46.21-.65.51-.58.9l-1.16,4.43c1.97,1.2,3.73,2.72,5.27,4.59,1.16,2.18,1.37,4.41.63,6.7-.32,1.09-1,1.83-2.06,2.21-1.09.32-2.09.18-3.01-.42l-4.32-3.59c-1.48,3.66-3.81,6.59-7.01,8.81-3.2,2.21-6.75,3.36-10.65,3.43,6.36-4.25,10.49-10.14,12.39-17.67-3.23-2.29-6.8-3.69-10.71-4.22ZM79.3,37.72l-4.11,2.43c-2,1.13-3.29,2.79-3.85,5.01-.11,1.2.03,2.32.42,3.38.7.67,1.44.72,2.21.16,2.39-3.34,4.17-7,5.33-10.97Z"/>
        <path class="cls-4" d="M116.84,13.09h20.67l2.21-3.9c.21-.39.49-.58.84-.58.42,0,.74.16.95.47l4.96,4.75c.42.39.49.83.21,1.32-.21.56-.6.81-1.16.74h-5.8v1.69h15.71l1.37-2.53c.14-.35.42-.56.84-.63.42-.07.77.05,1.05.37l5.91,4.69c.21.25.32.55.32.92s-.14.66-.42.87l-1.58,1.11c-.21,8.16-2.64,15.58-7.28,22.25,3.73,3.97,8.16,6.91,13.29,8.81-3.59.95-6.43,2.88-8.54,5.8-3.38-2.6-6.4-5.71-9.07-9.33-4.64,4.82-10.05,8.19-16.24,10.12-.63.18-1.2.09-1.69-.26-.49-.32-.81-.79-.95-1.42v-13.5l-10.23,5.96-.21.79c-.07.39-.28.65-.63.79-.49.07-.84-.07-1.05-.42l-4.32-9.07,4.85-.84V15.88h-2.95l-1.05-2.79ZM128.13,15.88v6.86h4.32v-6.86h-4.32ZM128.13,25.64v5.96h4.32v-5.96h-4.32ZM128.13,34.39v6.22l4.32-.84v-5.38h-4.32ZM139.73,20.37v17.98l5.06-.9-5.06,3.01v16.14c3.23-3.55,6.08-7.44,8.54-11.65-4.22-7.77-5.98-15.96-5.27-24.57h-3.27ZM145.43,20.37c.21,6.64,2.11,12.8,5.7,18.46,2.25-5.98,3.41-12.13,3.48-18.46h-9.18Z"/>
        <path class="cls-4" d="M179.81,15.73c1.93.92,3.94.95,6.01.11l12.71-4.96.9-.69c.49-.28,1.02-.33,1.58-.16,3.51,1.09,6.4,3.16,8.65,6.22.21.49.21.98,0,1.48-.25.49-.67.79-1.27.9-5.31,3.55-9.77,7.98-13.39,13.29,5.8-2.43,11.62-2.43,17.46,0,1.72.92,3.12,2.19,4.19,3.82,1.07,1.63,1.68,3.44,1.82,5.41.7,4.64-.62,8.61-3.96,11.92-5.84,4.85-12.5,6.87-19.99,6.06-2.32-.14-4.4-.94-6.22-2.4-1.83-1.46-3.02-3.33-3.59-5.62-.28-1.05-.2-2.1.24-3.14.44-1.04,1.17-1.78,2.19-2.24,2.78-1.48,5.57-1.48,8.38,0,1.27.7,2.31,1.68,3.14,2.93.83,1.25,1.29,2.61,1.4,4.09,1.9.04,3.67-.45,5.3-1.45s2.87-2.36,3.72-4.09c.84-1.69,1.23-3.45,1.16-5.3-.07-1.85-.6-3.56-1.58-5.14-.98-1.41-2.36-2.11-4.11-2.11-3.69-.18-7,.72-9.91,2.69-5.06,3.34-9.28,7.42-12.66,12.23-.98,1.51-2.41,2.13-4.27,1.85-1.65-.46-2.58-1.53-2.79-3.22l-.32-1.95c-.11-1.41.35-2.58,1.37-3.53,8.93-7.84,16.49-16.72,22.68-26.63-4.08,1.55-7.52,3.94-10.34,7.17-.77,1.05-1.74,1.27-2.9.63-3.16-1.58-5.08-4.13-5.75-7.65l.16-.53ZM193.89,52.75c.07-.95-.21-1.74-.84-2.37-.67-.63-1.46-.91-2.37-.84-.7,0-1.14.32-1.32.95-.18.7.03,1.23.63,1.58,1.23.56,2.53.79,3.9.69Z"/>
        <path class="cls-4" d="M238.13,11.61c1.62-1.23,3.43-1.79,5.43-1.69,3.09.18,5.82,1.23,8.17,3.16.84.88.97,1.85.37,2.9l-1.27,1.69c-.32.74-.42,1.48-.32,2.21-.28,3.48,0,6.82.84,10.02l8.02-3.9c.42-.25.53-.6.32-1.05l-1.79-2.69c2.67-.14,5.11.54,7.3,2.03,2.2,1.5,3.72,3.51,4.56,6.04.25.92.13,1.79-.34,2.61-.47.83-1.19,1.38-2.14,1.66l-2.9.16c-3.34-.91-6.75-1.09-10.23-.53-.77.18-1.41.53-1.9,1.05l-1.21,1.79c-.74.95-1.74,1.42-3.01,1.42-1.2,0-2.2-.46-3.01-1.37-1.65.32-3.03,1.08-4.14,2.29s-1.75,2.65-1.92,4.3c-.21,1.23-.04,2.39.5,3.48.54,1.09,1.38,1.92,2.5,2.48,2.5,1.05,5.1,1.32,7.8.79,4.78-.88,9.7-1.92,14.77-3.11.98-.35,1.95-.35,2.9,0,.95.35,1.72.95,2.32,1.79.53.88.75,1.83.66,2.85-.09,1.02-.48,1.92-1.19,2.69-9.53,4.46-19.35,5.29-29.48,2.48-4.04-1.02-6.93-3.43-8.65-7.22-1.16-3.09-.9-6.06.79-8.91,2.88-4.22,6.78-6.91,11.71-8.07-1.44-6.19-2.16-12.52-2.16-18.98-.18-.74-.59-1.34-1.24-1.79-.65-.46-1.34-.65-2.08-.58Z"/>
        <path class="cls-4" d="M280.85,16.68c1.23-1.69,2.83-2.29,4.8-1.79,3.02.7,5.31,2.32,6.86,4.85.67,1.16.81,2.43.42,3.8-2.74,5.31-4.01,10.88-3.8,16.72.21,2.21,1,4.17,2.37,5.85.32.42.72.58,1.21.47.6-.21,1.05-.61,1.37-1.21,1.69-5.06,4.09-9.74,7.22-14.03-1.9,5.87-2.06,11.78-.47,17.72l.95,2.58c.32,1.02.21,2-.32,2.95-.63.91-1.44,1.44-2.43,1.58-3.48.53-6.7-.18-9.65-2.11s-4.9-4.62-5.85-8.07c-1.44-5.2-1.85-10.49-1.21-15.87l.9-10.86c0-.7-.23-1.3-.69-1.79-.46-.49-1.02-.76-1.69-.79ZM309.32,24.22c1.05-1.51,2.47-2.55,4.25-3.11,1.77-.56,3.54-.49,5.3.21,3.23,1.65,5.81,4.03,7.73,7.12,1.92,3.09,2.89,6.49,2.93,10.18.11,1.41-.26,2.68-1.11,3.82-.84,1.14-1.95,1.89-3.32,2.24-1.9.56-3.48.09-4.75-1.42-1.05-1.48-1.48-3.11-1.27-4.9.35-4.29-.69-8.3-3.11-12.02-.81-.95-1.81-1.63-3.01-2.03-1.2-.4-2.41-.43-3.64-.08Z"/>
        <path class="cls-4" d="M343.07,28.17c-.35,1.09-.11,2.06.74,2.9.91.53,1.83.49,2.74-.11l7.44-4.59c3.8-2,7.88-3.06,12.23-3.16,1.93-.03,3.72.4,5.35,1.32,1.63.92,2.94,2.2,3.93,3.85,1.83,3.69,2.07,7.47.74,11.34-.92,3.27-2.39,6.2-4.43,8.78-2.04,2.58-4.55,4.65-7.54,6.2-5.45,2.64-11.13,3.78-17.03,3.43,4.64-1.48,8.72-3.81,12.23-7.01,3.51-3.2,6.2-7.03,8.07-11.5,1.69-3.62,2.02-7.45,1-11.5-.25-.74-.76-1.11-1.53-1.11-1.9-.07-3.6.46-5.12,1.58-4.01,2.88-7.59,6.22-10.76,10.02-1.93,1.79-4.15,2.32-6.64,1.58-1.3-.35-2.37-1.05-3.22-2.11s-1.32-2.27-1.42-3.64c-.07-2.71,1-4.8,3.22-6.28ZM348.51,9.61c2.92,1.93,6.1,2.64,9.54,2.11l5.38-.9c2.32-.28,4.46.19,6.43,1.42,1.86,1.23,2.62,2.94,2.27,5.12-.14.63-.47,1.16-1,1.58s-1.11.62-1.74.58l-4.01.11c-5.73.07-11.15,1.11-16.24,3.11,2.18-1.93,4.34-3.67,6.49-5.22-2-.32-3.67-1.22-4.98-2.72-1.32-1.49-2.03-3.22-2.14-5.19Z"/>
        <path class="cls-4" d="M399.92,19.89l7.07,5.33c.21.14.32.39.32.74-.07.35-.21.6-.42.74l-1.27,1h22.15l2.85-4.59c.21-.32.46-.49.74-.53.28-.03.56.05.84.26l5.7,6.01c.21.28.28.63.21,1.05-.14.39-.39.62-.74.69h-11.6v22.2c-.28,2.08-1.27,3.81-2.95,5.22-1.69,1.41-3.59,2.07-5.7,2-.84,0-1.51-.37-2-1.11-1.83-3.3-4.64-5.43-8.44-6.38l9.81.42c.7-.25,1.09-.74,1.16-1.48v-20.88h-12.55l-1.05-.9-2.74,2.9,1.05.11c.35.04.6.21.74.53.21.39.21.72,0,1l-1.27,1.69v21.36c-.49,1.23-1.34,2-2.53,2.32-1.41.42-2.81.25-4.22-.53-.63-.6-.95-1.32-.95-2.16v-18.51c-2.39,1.58-4.85,2.9-7.38,3.96,5.83-6.61,10.23-14.1,13.18-22.46ZM399.82,8.66l6.75,5.33c.42.32.53.74.32,1.27-.28.53-.67.76-1.16.69l-1.58-.26c-4.92,3.83-10.37,7-16.35,9.49,4.71-5.24,8.72-10.74,12.02-16.51ZM407.52,13.99h16.77l3.48-4.38c.14-.25.42-.4.84-.47.42,0,.74.11.95.32l4.64,4.9c.35.49.42.99.21,1.5-.21.51-.6.82-1.16.92h-24.57l-1.16-2.79Z"/>
        <path class="cls-4" d="M442,17.26c6.54-1.93,12.83-4.8,18.88-8.6l6.22,5.27c.28.32.32.67.11,1.05-.21.46-.53.6-.95.42l-1.69-.32c-2.25.56-4.29.95-6.12,1.16v4.38h1.69l2.21-3.32c.21-.32.53-.51.95-.58.42-.07.77.04,1.05.32l4.43,3.96c.35.39.46.84.32,1.37-.28.53-.67.79-1.16.79h-9.49v2.37h1.58l.95-1.21c.35-.56.88-.7,1.58-.42l3.69,2.27-.84-2.11h6.12v-15.61l9.49,2.69c.56.11.84.42.84.95.07.46-.11.83-.53,1.11l-2.11,1.53v9.33h4.01l1.58-2.11c.28-.28.6-.42.95-.42s.67.11.95.32l4.75,4.11c.28.28.42.62.42,1,0,.42-.14.74-.42.95l-.84.53c0,8.83-.84,17.58-2.53,26.26-.28,1.16-.84,2.09-1.69,2.79-1.9,1.48-4.04,2.37-6.43,2.69-.56.07-1.13-.05-1.69-.37-.56-.32-.95-.76-1.16-1.32-.56-1.58-1.48-2.9-2.74-3.96s-2.71-1.69-4.32-1.9c-3.24,3.55-7.1,6.06-11.6,7.54,2.95-2.08,5.45-4.69,7.49-7.86l-17.09,6.49c-.42.11-.7.37-.84.79-.14.39-.46.63-.95.74-.42.07-.77-.07-1.05-.42l-4.75-7.44,10.44-.74v-2.69h-7.28l-1.48-2.9h8.75v-4.64h-1.58v.9c0,.63-.32,1-.95,1.11l-4.75.32c-.28,0-.53-.12-.74-.37-.21-.21-.32-.47-.32-.79v-18.25l5.8,1.11h2.53v-2.37h-9.18l-1.48-2.53h10.65v-3.59c-3.38.25-6.61.32-9.7.21ZM450.12,28.7v3.43h1.37v-3.43h-1.37ZM450.12,35.19v3.59h1.37v-3.59h-1.37ZM468.27,27.38c.21.28.25.55.11.79-.07.32-.25.53-.53.63l-.95.84v11.23c.07.25.03.47-.11.69-.14.21-.35.33-.63.37l-2.32.58c.28.07.53.23.74.47l3.16,3.53c.14.56.11,1.07-.11,1.53-.28.53-.67.86-1.16,1h-8.02v2.11l8.44-.53c3.09-7.45,4.64-15.21,4.64-23.26h-3.27ZM458.46,28.7v3.43h1.58v-3.43h-1.58ZM458.46,35.19v3.59h1.58v-3.59h-1.58ZM458.46,41.51v4.64h1.58l2.11-3.16-.74.11c-.7.18-1.16-.05-1.37-.69v-.9h-1.58ZM479.23,27.38c-.35,8.93-3.16,17.02-8.44,24.26,2.6.53,5.06,1.09,7.38,1.69.56.11,1.07.03,1.53-.24.46-.26.76-.64.9-1.13,1.76-8.19,2.5-16.38,2.21-24.57h-3.59Z"/>
        <path class="cls-4" d="M501.49,12.93c1.72-1.48,3.71-2.13,5.96-1.95,2.46.25,4.61,1.23,6.43,2.95.53.53.67,1.16.42,1.9-.35.81-.88,1.56-1.58,2.27l-.53,2.16,1.37-.95c.63-.18,1.23-.21,1.79-.11,1.48.35,2.51,1.2,3.11,2.53.35,1.02.16,1.85-.58,2.48-2.5,2.64-5.47,4.57-8.91,5.8-3.09,9-5.12,18.04-6.06,27.11-.07.6-.37,1.09-.9,1.48-.49.35-1.07.47-1.74.37-1.02-.25-1.9-.73-2.64-1.45-.74-.72-1.23-1.57-1.48-2.56-.25-1.79,0-3.57.74-5.33,2.43-5.91,4.24-12.06,5.43-18.46l-2.16-.26c-1.27-.39-2.31-1.07-3.14-2.06-.83-.98-1.29-2.14-1.4-3.48.7.39,1.51.62,2.43.69,2.04,0,3.9-.63,5.59-1.9l.84-6.7c.18-1.02-.04-1.98-.63-2.87-.6-.9-1.39-1.45-2.37-1.66ZM518.05,39.14c-.67,2.14-.72,4.32-.16,6.54.77,2,2.25,3.15,4.43,3.43,2.64.53,5.15.26,7.54-.79,2.32-.88,4.66-1.51,7.01-1.9,1.3-.07,2.43.3,3.38,1.11.95.88,1.49,2.02,1.63,3.43.07.92-.25,1.62-.95,2.11-2.32,1.69-4.9,2.76-7.75,3.22-4.08.88-8.21.84-12.39-.11-1.86-.49-3.39-1.51-4.59-3.06-1.2-1.55-1.79-3.29-1.79-5.22-.11-3.48,1.11-6.4,3.64-8.75ZM518.42,27.85c2.14-1.62,4.57-3.01,7.28-4.17,2.64-.81,5.34-.84,8.12-.11,1.44.39,2.69,1.09,3.74,2.11,1.05,1.02,1.81,2.25,2.27,3.69.46,1.9.07,3.57-1.16,5.01-.56.56-1.25.92-2.06,1.05-.81.14-1.58.04-2.32-.32-3.13-1.23-6.28-1.65-9.44-1.27,1.58-.74,3.04-1.69,4.38-2.85.49-.42.58-.95.26-1.58-.56-.74-1.28-1.21-2.16-1.42-2.95-.84-5.92-.9-8.91-.16ZM528.54,14.3c1.55-.74,3.15-1.03,4.8-.87,1.65.16,3.18.69,4.59,1.61,1.83,1.48,2.46,3.36,1.9,5.64-.42,1.13-1.23,1.74-2.43,1.85-1.2.18-2.13-.26-2.79-1.32l-1.63-3.85c-.42-.88-1.03-1.6-1.82-2.16-.79-.56-1.66-.86-2.61-.9ZM534.87,11.51c1.48-.84,3.06-1.27,4.75-1.27s3.25.44,4.69,1.32c.88.46,1.56,1.13,2.03,2.03s.64,1.87.5,2.93c-.18,1.3-.92,2.08-2.21,2.32-1.3.25-2.29-.19-2.95-1.32l-1.42-2.64c-1.27-1.93-3.06-3.06-5.38-3.38Z"/>
        <path class="cls-4" d="M554.54,14.67l1.79-.58c1.97.25,3.74.98,5.3,2.19,1.56,1.21,2.77,2.73,3.61,4.56.81,1.65.6,3.16-.63,4.54-2.64,2.39-4.62,5.22-5.96,8.49-1.34,3.27-1.9,6.7-1.69,10.28.11,1.09.56,2.02,1.37,2.79,1.97-5.66,4.41-10.92,7.33-15.77-1.13,4.57-1.86,9.26-2.21,14.08-.11,2.32.25,4.69,1.05,7.12.6,1.44.39,2.76-.63,3.96-1.02,1.09-2.29,1.41-3.8.95-3.2-2-5.57-4.67-7.12-8.02-1.55-3.34-2.06-6.86-1.53-10.55.95-5.59,2.43-10.97,4.43-16.14,1.02-2.88.58-5.52-1.32-7.91ZM577.11,14.04c1.41-1.41,3.09-2.28,5.06-2.61,1.97-.33,3.85-.04,5.64.87.7.42,1.25,1.01,1.63,1.77.39.76.53,1.56.42,2.4-.04.11-.2.55-.5,1.32-.3.77-.47,1.21-.5,1.32v2.9l2-.74c1.09-.39,2.18-.47,3.27-.26,2,.39,3.43,1.56,4.27,3.53.35.84.19,1.55-.47,2.11-2.71,2.21-5.73,3.6-9.07,4.17v11.18c-.18,3.62-1.32,6.89-3.43,9.81-4.78,4.67-10.53,7.26-17.24,7.75,2.81-1.09,5.25-2.72,7.33-4.88,2.07-2.16,3.59-4.65,4.54-7.46,1.41-5.1,1.85-10.16,1.32-15.19-2.5.7-4.94.52-7.33-.55-2.39-1.07-4.17-2.79-5.33-5.14,4.36,1.05,8.56.65,12.6-1.21.11-3.16-.12-6.15-.69-8.96-.74-1.48-1.92-2.18-3.53-2.11Z"/>
        <path class="cls-4" d="M629.84,43.78h-2.37c-.56-9.67-1.99-19.39-4.27-29.16-.25-1.09-.16-2.14.26-3.16.42-1.02,1.07-1.85,1.95-2.48.91-.63,1.92-.96,3.03-.98,1.11-.02,2.12.29,3.03.92.95.6,1.63,1.41,2.03,2.43.4,1.02.5,2.08.29,3.16-2.21,9.39-3.53,19.14-3.96,29.27ZM623.09,55.54c0-1.48.54-2.75,1.63-3.82,1.09-1.07,2.37-1.61,3.85-1.61s2.75.54,3.82,1.61c1.07,1.07,1.59,2.35,1.56,3.82-.04,1.44-.58,2.7-1.63,3.77-1.05,1.07-2.32,1.61-3.8,1.61s-2.75-.54-3.82-1.61-1.61-2.33-1.61-3.77Z"/>
      </g>
    </g>
  </g>
</svg>