<?xml version="1.0" encoding="UTF-8"?>
<svg id="_レイヤー_2" data-name="レイヤー 2" xmlns="http://www.w3.org/2000/svg" xmlns:xlink="http://www.w3.org/1999/xlink" viewBox="0 0 782.51 83.68">
  <defs>
    <style>
      .cls-1 {
        fill: url(#_名称未設定グラデーション_120-5);
      }

      .cls-2 {
        fill: url(#_名称未設定グラデーション_120-6);
      }

      .cls-3 {
        fill: #fff;
      }

      .cls-4 {
        fill: url(#_名称未設定グラデーション_120-4);
      }

      .cls-5 {
        fill: url(#_名称未設定グラデーション_120-2);
      }

      .cls-6 {
        fill: url(#_名称未設定グラデーション_120-3);
      }

      .cls-7 {
        fill: url(#_名称未設定グラデーション_120-10);
      }

      .cls-8 {
        fill: url(#_名称未設定グラデーション_120);
      }

      .cls-9 {
        fill: url(#_名称未設定グラデーション_120-11);
      }

      .cls-10 {
        fill: url(#_名称未設定グラデーション_120-9);
      }

      .cls-11 {
        fill: none;
        stroke: #000;
        stroke-width: 6px;
      }

      .cls-12 {
        fill: url(#_名称未設定グラデーション_120-7);
      }

      .cls-13 {
        fill: url(#_名称未設定グラデーション_120-8);
      }
    </style>
    <linearGradient id="_名称未設定グラデーション_120" data-name="名称未設定グラデーション 120" x1="41.17" y1="83.68" x2="41.17" y2="0" gradientUnits="userSpaceOnUse">
      <stop offset="0" stop-color="#945700"/>
      <stop offset=".19" stop-color="#e9a900"/>
      <stop offset=".29" stop-color="#f5f8b4"/>
      <stop offset=".4" stop-color="#e9a900"/>
      <stop offset="1" stop-color="#fff87f"/>
    </linearGradient>
    <linearGradient id="_名称未設定グラデーション_120-2" data-name="名称未設定グラデーション 120" x1="111.05" x2="111.05" xlink:href="#_名称未設定グラデーション_120"/>
    <linearGradient id="_名称未設定グラデーション_120-3" data-name="名称未設定グラデーション 120" x1="181.61" x2="181.61" xlink:href="#_名称未設定グラデーション_120"/>
    <linearGradient id="_名称未設定グラデーション_120-4" data-name="名称未設定グラデーション 120" x1="251.15" x2="251.15" xlink:href="#_名称未設定グラデーション_120"/>
    <linearGradient id="_名称未設定グラデーション_120-5" data-name="名称未設定グラデーション 120" x1="321.45" x2="321.45" xlink:href="#_名称未設定グラデーション_120"/>
    <linearGradient id="_名称未設定グラデーション_120-6" data-name="名称未設定グラデーション 120" x1="390.61" x2="390.61" y2="0" xlink:href="#_名称未設定グラデーション_120"/>
    <linearGradient id="_名称未設定グラデーション_120-7" data-name="名称未設定グラデーション 120" x1="461.02" x2="461.02" xlink:href="#_名称未設定グラデーション_120"/>
    <linearGradient id="_名称未設定グラデーション_120-8" data-name="名称未設定グラデーション 120" x1="531.15" x2="531.15" y2="0" xlink:href="#_名称未設定グラデーション_120"/>
    <linearGradient id="_名称未設定グラデーション_120-9" data-name="名称未設定グラデーション 120" x1="601.61" x2="601.61" xlink:href="#_名称未設定グラデーション_120"/>
    <linearGradient id="_名称未設定グラデーション_120-10" data-name="名称未設定グラデーション 120" x1="671.15" x2="671.15" xlink:href="#_名称未設定グラデーション_120"/>
    <linearGradient id="_名称未設定グラデーション_120-11" data-name="名称未設定グラデーション 120" x1="740.88" x2="740.88" xlink:href="#_名称未設定グラデーション_120"/>
  </defs>
  <g id="_レイヤー_1-2" data-name="レイヤー 1">
    <g>
      <g>
        <path class="cls-3" d="M14.01,23.31c2.64,3.65,3.9,7.79,3.76,12.44-.09,1.19-.32,2.28-.68,3.28-.41.91-1.05,1.64-1.91,2.19-1.19.73-2.42.91-3.69.55-1.32-.36-2.28-1.14-2.87-2.32-.59-1.09-.75-2.19-.48-3.28s.77-2.05,1.5-2.87c2.92-2.73,4.38-6.06,4.38-9.98ZM18.52,9.37l9.98,3.28c.46.18.73.55.82,1.09,0,.55-.21,1-.62,1.37l-1.64.96v5.88c3.55.09,6.4,1.55,8.54,4.38h10.66v-4.1h-11.62l-1.91-3.83h13.54v-10.12l11.42,2.46c.55.09.93.46,1.16,1.09.09.64-.05,1.14-.41,1.5l-2.26,1.78v3.28h5.47l2.87-4.51c.23-.36.5-.55.82-.55.27-.09.62-.04,1.03.14l5.13,5.33c.68.55.82,1.28.41,2.19-.32.82-.93,1.23-1.85,1.23h-13.88v4.1h5.33l2.32-3.14c.18-.27.5-.46.96-.55.46,0,.82.14,1.09.41l3.96,4.38c.41.37.52.87.34,1.5-.27.64-.73.96-1.37.96h-12.65v5.47h7.59l2.87-3.69c.41-.46.89-.73,1.44-.82.64-.09,1.18.05,1.64.41l4.24,4.79c.41.64.48,1.28.21,1.91-.27.64-.78,1-1.5,1.09h-40.26l-1.44-3.69h15.31v-5.47h-9.09c.14.82.04,1.55-.27,2.19-.64,1.09-1.56,1.85-2.77,2.26-1.21.41-2.38.34-3.52-.21-.82-.36-1.46-.96-1.91-1.78-.32-.91-.46-1.78-.41-2.6.23-2-.18-3.87-1.23-5.61v48.95c0,.55-.16.98-.48,1.3-.32.32-.71.52-1.16.62l-5.06.27c-.55,0-.98-.14-1.3-.41-.37-.37-.55-.73-.55-1.09V9.37ZM35,39.86l9.71,2.6h13.88l1.85-2.05c.82-1,1.8-1.14,2.94-.41l6.43,4.65c.32.18.48.46.48.82s-.11.68-.34.96l-1.57,1.64v18.87c0,1.46-.41,2.73-1.23,3.83-2.14,2.83-4.95,4.38-8.41,4.65-1.32.09-2.35-.41-3.08-1.5-1.73-2.83-4.01-4.92-6.84-6.29,2.32,0,4.51.18,6.56.55.68.09,1.32-.07,1.91-.48.59-.41.93-.98,1.03-1.71v-5.33h-13.26v12.44c0,.91-.46,1.5-1.37,1.78l-6.36.82c-.68,0-1.23-.23-1.64-.68-.46-.37-.68-.87-.68-1.5v-33.63ZM45.05,46.14v3.28h13.26v-3.28h-13.26ZM45.05,53.25v3.42h13.26v-3.42h-13.26Z"/>
        <path class="cls-3" d="M80.87,17.98h10.12v-9.3l10.94,2.8c.59.14.89.5.89,1.09s-.25,1-.75,1.23l-1.85.89v3.28h1.57l1.44-2.73c.18-.27.48-.41.89-.41.23,0,.5.11.82.34l5.47,5.06c.32.23.39.52.21.89-.14.37-.39.55-.75.55h-9.64v3.76h1.57l2.6-2.46c.55-.64,1.12-.64,1.71,0l2.67,2.46,6.02-.96V8l11.07,3.01c.5.23.8.64.89,1.23,0,.59-.25,1-.75,1.23l-1.98,1.44v7.79l1.85-.34,1.85-2.67c.5-.46,1.05-.5,1.64-.14l6.97,5.61c.46.55.43,1.07-.07,1.57l-2.12,1.78v17.91c0,.64.3,1.09.89,1.37.68.27,1.37.27,2.05,0,.41-.23.68-.52.82-.89l1.98-11.83,1.16,7.25c.27,1.5.93,2.89,1.98,4.17.46.68.8,1.44,1.03,2.26.18,1.05.02,2.07-.48,3.08-.5,1-1.25,1.73-2.26,2.19-3.96,1.28-7.93,1.32-11.89.14-2.14-.77-3.26-2.28-3.35-4.51v-5.95c-1,.91-2.23,1.3-3.69,1.16-1.37-.27-2.42-1.03-3.14-2.26-3.96,6.24-9.48,10.53-16.54,12.85,4.83,3.14,7.36,7.57,7.59,13.26.04,1.46-.49,2.73-1.61,3.83-1.12,1.09-2.4,1.62-3.86,1.57-1.46-.05-2.71-.64-3.76-1.78-1.05-1.14-1.53-2.46-1.44-3.96,1.28-5.1,1.14-10.16-.41-15.18l1.85,1.16c2.87-2.19,5.24-4.58,7.11-7.18l-19.76,8.75-.62,1.91c-.23.59-.59.96-1.09,1.09-.64.14-1.14.02-1.5-.34l-6.43-9.23,12.24-1.78v-3.76h-6.7l-1.85-2.73c-1.28.5-2.6.93-3.96,1.3,3.37-3.46,5.88-7.56,7.52-12.3h-5.47l-2.53-4.79h12.99v-3.62h-8.27l-1.85-3.69ZM93.65,55.1c2.19,5.88,1.78,11.51-1.23,16.88-1.5,1.87-3.4,2.55-5.67,2.05-1.05-.23-1.95-.74-2.7-1.54-.75-.8-1.24-1.72-1.47-2.77-.37-2.42.43-4.26,2.39-5.54,3.74-2.19,6.63-5.22,8.68-9.09ZM90.98,40.33v-5.06c-2.14,2.05-4.44,3.74-6.9,5.06h6.9ZM94.67,30.08c-.09.14-.25.4-.48.79-.23.39-.39.67-.48.85l8.07,3.21c.27.14.46.41.55.82,0,.37-.14.64-.41.82l-1.71,1.44v2.32h1.91l1.98-3.42c-.27-.36-.43-.73-.48-1.09-.59-2.05-1.57-3.96-2.94-5.74h-6.02ZM100.21,43.82v2.32l9.5-1.3c2-3.28,3.37-6.65,4.1-10.12-1.73-1.73-3.69-3.28-5.88-4.65h-1.91c1.46.59,2.83,1.46,4.1,2.6,1.05,1.05,1.32,2.3.82,3.76-.46,1.5-1.46,2.32-3.01,2.46l2.32,3.08c.23.37.27.73.14,1.09-.18.46-.5.71-.96.75h-9.23ZM114.77,28.64l-3.49.68c-.09.27-.3.52-.62.75,1.41.09,2.71.3,3.9.62l.21-2.05ZM112.31,54.62c3.19,1.28,5.9,3.17,8.13,5.67,2.23,2.51,3.83,5.4,4.79,8.68.46,2.1-.25,3.78-2.12,5.06-1.82,1.28-3.65,1.3-5.47.07-1.91-1.19-2.69-2.85-2.32-4.99.55-5.2-.46-10.03-3.01-14.49ZM124.07,26.87c-.09,2.6-.5,5.04-1.23,7.31,1.14.68,2.21,1.55,3.21,2.6v-10.25l-1.98.34ZM123.8,54.07c3.55.46,6.77,1.79,9.64,4,2.87,2.21,4.99,4.96,6.36,8.24.77,2.37.25,4.35-1.57,5.95-1.82,1.59-3.85,1.87-6.08.82-2.14-1.09-3.14-2.87-3.01-5.33-.14-5.2-1.91-9.75-5.33-13.67Z"/>
        <path class="cls-3" d="M180.53,24.41c4.28,7.47,5.29,15.36,3.01,23.65-.91,4.24-2.71,8.03-5.4,11.38-2.69,3.35-6.02,5.87-9.98,7.55-1.46.73-2.89.8-4.31.21-2.55-1.32-3.96-3.42-4.24-6.29-2.28-.23-4.25-1.07-5.91-2.53-1.66-1.46-2.79-3.28-3.38-5.47-.96-4.56-.32-8.91,1.91-13.06,2.37-4.79,5.64-8.84,9.81-12.17,4.17-3.33,8.88-5.58,14.12-6.77,7.79-2.14,15.27-1.41,22.42,2.19,3.51,1.64,6.48,3.91,8.92,6.8,2.44,2.89,4.14,6.21,5.09,9.95,1.05,4.1.98,8.15-.21,12.13-1.19,3.99-3.35,7.42-6.49,10.29-3.83,3.55-8.2,6.12-13.12,7.69s-9.98,2.08-15.18,1.54c5.42-1.73,10.15-4.57,14.18-8.51,4.03-3.94,6.96-8.62,8.78-14.05.96-3.24,1.14-6.48.55-9.74-.59-3.26-1.94-6.23-4.03-8.92-2.14-2.32-4.66-4-7.55-5.02-2.89-1.03-5.89-1.31-8.99-.85ZM174.52,26.12c-7.43,4.88-12.12,11.69-14.08,20.44-.96,3.87-.48,7.52,1.44,10.94.55.55,1.21.88,1.98.99.77.11,1.46-.15,2.05-.79,4.15-4.19,6.97-9.08,8.48-14.66,1.5-5.58,1.55-11.22.14-16.92Z"/>
        <path class="cls-3" d="M245.41,8.68l12.44,2.94c.64.23,1,.68,1.09,1.37.09.64-.18,1.19-.82,1.64l-1.5.75c.27,3.69-.23,7.31-1.5,10.87,5.38-3.05,9.66-7.25,12.85-12.58l9.43,8.07c.36.37.46.8.27,1.3-.27.55-.68.78-1.23.68l-2.05-.41c-6.56,2.73-13.31,4.44-20.23,5.13l-.55,1.03c8.84.68,17,3.28,24.47,7.79,1.09.82,1.78,1.87,2.05,3.14.27,1.28.04,2.48-.68,3.62-.64,1.14-1.62,1.9-2.94,2.29-1.32.39-2.58.26-3.76-.38-.73-.46-1.32-1-1.78-1.64-5.2-5.74-11.26-10.16-18.18-13.26-1.19,1.82-2.64,3.44-4.38,4.85l8.61,3.14c.55.27.82.72.82,1.33s-.27,1.06-.82,1.33l-1.5,1.03c-.09,2.42-.41,4.58-.96,6.49.09.32.59,1.23,1.5,2.73,3.46-3.37,6.15-7.18,8.07-11.42l8.75,7.93c.46.41.55.88.27,1.4-.27.52-.68.79-1.23.79l-2.73-.48-11.48,4.17c7.29,7.06,16,11.35,26.11,12.85-4.56,1.96-8.61,4.53-12.17,7.72-8.2-5.15-14.4-12.19-18.59-21.12-3.1,6.7-7.79,11.95-14.08,15.76s-13.12,5.48-20.51,5.02c6.65-1.09,12.33-4.06,17.02-8.89,4.69-4.83,7.54-10.6,8.54-17.29v-9.57c-7.84,3.74-16.13,5.99-24.88,6.77,6.47-2.28,12.76-5.33,18.87-9.16,2.46-1.82,4.33-4.09,5.61-6.8,1.28-2.71,1.87-5.57,1.78-8.58v-12.37ZM237.2,42.79c1,2.42,1.37,4.92,1.09,7.52s-1.14,4.97-2.6,7.11c-.82,1.05-1.89,1.7-3.21,1.95-1.32.25-2.53.06-3.62-.58-1.09-.73-1.85-1.72-2.26-2.97-.41-1.25-.3-2.5.34-3.73.64-1.23,1.59-2.05,2.87-2.46,3.1-1.5,5.56-3.78,7.38-6.84ZM234.06,16.75c1.73,2.14,2.78,4.55,3.14,7.21.36,2.67,0,5.25-1.09,7.76-.55,1.05-1.34,1.8-2.39,2.26-1.05.46-2.17.57-3.35.34-1.09-.27-2.01-.85-2.73-1.74-.73-.89-1.09-1.9-1.09-3.04.09-1.59.73-2.87,1.91-3.83,3.28-2.14,5.15-5.13,5.61-8.96Z"/>
        <path class="cls-3" d="M302.83,44.23c-1.32,3.19-1.64,6.45-.96,9.78.59,2.55,1.98,4.51,4.17,5.88,3.65,2.01,7.47,2.62,11.48,1.85l20.1-4.51c3.65-.59,6.81.37,9.5,2.87,1,.96,1.46,2.1,1.37,3.42-.14,1.46-.75,2.53-1.85,3.21-12.81,5.88-26.07,7.25-39.79,4.1-4.19-1.09-7.59-3.42-10.19-6.97-2.42-3.05-2.92-6.4-1.5-10.05,1.59-4.01,4.15-7.2,7.66-9.57ZM298.52,17.57c4.88,1.82,9.82,2.03,14.83.62,6.56-2.6,13.12-4.49,19.69-5.67,1.5-.14,3.03.16,4.58.89,1.41.68,2.54,1.69,3.38,3.01.84,1.32,1.29,2.78,1.33,4.38.04.73-.16,1.4-.62,2.02-.46.62-1.07.97-1.85,1.06-9.98,1.55-19.37,4.69-28.16,9.43,1.14-2.42,2.78-4.51,4.92-6.29-3.6,0-7-.83-10.19-2.5-3.19-1.66-5.83-3.98-7.93-6.94Z"/>
        <path class="cls-3" d="M370.03,14.97c2.6,1.82,5.47,2.6,8.61,2.32,6.52-1.18,12.9-3.1,19.14-5.74.77-.5,1.48-.41,2.12.27l7.11,5.4c1.28,1.14,2.03,2.58,2.26,4.31.14.78-.18,1.37-.96,1.78l-5.33,1.23c-8.8,5.61-17.55,11.78-26.25,18.53,10.25-4.97,21.03-8.82,32.33-11.55,2.42-.41,4.81-.02,7.18,1.16,2,1.09,2.96,2.8,2.87,5.13-.27,1.19-.88,2.17-1.81,2.94-.93.78-1.97,1.19-3.11,1.23l-8.89.75c-3.92.23-7.27,1.8-10.05,4.72-2.78,2.92-4.22,6.33-4.31,10.25-.05,1.6.46,3,1.5,4.2,1.05,1.21,2.39,1.93,4.03,2.15,3.55.05,7.06-.64,10.53-2.05,3.1-.36,5.83.48,8.2,2.53.87.73,1.25,1.63,1.16,2.7-.09,1.07-.55,1.95-1.37,2.63-6.02,3.96-12.53,4.97-19.55,3.01-2.64-.68-4.95-1.94-6.9-3.76-1.96-1.82-3.37-4.01-4.24-6.56-1.23-3.28-1.22-6.56.03-9.84,1.25-3.28,3.45-5.7,6.6-7.25-4.06,1.19-7.91,2.99-11.55,5.4-.55.37-1.03.82-1.44,1.37-.64.96-1.47,1.63-2.5,2.02-1.03.39-2.06.42-3.11.1-4.69-1.5-8.11-4.44-10.25-8.82,3.46.14,6.45-.91,8.96-3.14l24.61-24.61c-5.01,1.91-9.5,4.72-13.47,8.41-.14,1.14-.71,1.96-1.71,2.46-.91.59-1.89.68-2.94.27-2.83-.96-4.98-2.8-6.46-5.54-1.48-2.73-1.83-5.54-1.06-8.41Z"/>
        <path class="cls-3" d="M437.91,9.98l9.71,4.85c.46.27.59.66.41,1.16-.27.46-.64.68-1.09.68l-1.78.48-7.11,8.27c1.37,1.41,2.32,3.1,2.87,5.06l5.88-12.24,8.89,6.15c.18.32.27.59.27.82-.09.27-.27.48-.55.62l-.82.82h12.44V8.62l12.44,3.49c.36,0,.64.18.82.55.09.27.04.57-.14.89l-2.6,2.94v10.19h5.06l3.01-4.99c.27-.41.64-.64,1.09-.68.36-.09.73.02,1.09.34l6.15,6.97c.36.41.36.91,0,1.5-.18.5-.59.75-1.23.75h-15.18v10.05h4.24l2.73-4.65c.18-.36.5-.59.96-.68.46-.04.82.09,1.09.41l5.61,6.49c.36.41.46.89.27,1.44-.18.55-.55.87-1.09.96h-34.86c-.27.96-.87,1.71-1.78,2.26-.91.55-1.82.71-2.73.48-1.73-.27-2.83-1.25-3.28-2.94l-1.37.41v5.81c2.1.32,4.01,1.14,5.74,2.46,1.73,1.32,3.01,3.01,3.83,5.06v-11.21l9.98,2.46h12.03l2.19-2.87c.55-.68,1.18-.8,1.91-.34l7.38,4.79c.36.23.5.55.41.96.09.5-.05.87-.41,1.09l-1.37,1.23v17.98c0,1.09-.55,1.8-1.64,2.12l-6.43.96c-.73-.05-1.34-.31-1.85-.79-.5-.48-.75-1.08-.75-1.81v-1.03h-10.94v1.03c0,.46-.14.87-.41,1.23-.27.32-.59.5-.96.55l-6.15.89c-.82,0-1.5-.25-2.05-.75-.64-.59-.96-1.28-.96-2.05v-11.48c-.27.73-.68,1.32-1.23,1.78-.55.46-1.23.71-2.05.75-1.37.23-2.55-.18-3.55-1.23-.91-1.09-1.19-2.32-.82-3.69,0-2.14-.64-4.08-1.91-5.81v19c0,1-.5,1.71-1.5,2.12l-4.92,1.3c-.55.04-1.09-.11-1.64-.48-.55-.46-.82-.98-.82-1.57v-17.09l-1.09.34c-.37,6.38-3.1,11.55-8.2,15.52,2.19-6.84,2.69-13.92,1.5-21.26l7.79,2.67v-6.02l-4.92,1.3-.27.48c0,.46-.23.68-.68.68-.37.14-.64,0-.82-.41l-3.96-8.41,8.2-.41,2.6-5.26c-2.01.82-3.74.37-5.2-1.37-.91-1.28-1.19-2.67-.82-4.17.18-1.78-.07-3.47-.75-5.09-.68-1.62-1.75-2.95-3.21-4,2.55.32,4.92,1.21,7.11,2.67,1.28-4.42,2-8.89,2.19-13.4ZM445.15,35.62l-5.06,4.79,7.93-.34c-.64-1.73-1.6-3.21-2.87-4.44ZM452.67,28.37l-5.33,5.06c1.91.46,3.65,1.31,5.2,2.56,1.55,1.25,2.73,2.79,3.55,4.61h10.94v-10.05h-12.99l-1.37-2.19ZM467.44,53.39v14.56h10.94v-14.56h-10.94Z"/>
        <path class="cls-3" d="M507.09,10.26l10.94,2.73h27.62l1.5-2.67c.36-.46.73-.71,1.09-.75.46-.14.87-.07,1.23.21l8.34,4.99c.36.23.59.57.68,1.03,0,.5-.18.89-.55,1.16l-2.19,1.71v19.76c0,.55-.14.98-.41,1.3l6.84,5.88c.55.59.73,1.23.55,1.91-.27.78-.78,1.21-1.5,1.3h-23.65c8.11,6.61,17.45,10.87,28.03,12.78-3.55,1.96-6.84,4.49-9.84,7.59-7.47-3.83-13.76-9.23-18.87-16.2v18.12c0,.59-.27,1.05-.82,1.37l-8.07,1.98c-.55.09-1,0-1.37-.27-.46-.32-.68-.73-.68-1.23v-14.7c-9.3,5.01-19.05,8.73-29.26,11.14,9.75-4.65,17.59-11.51,23.52-20.58h-18.59l-1.64-3.42h25.98v-5.13h-7.25v.89c0,.59-.32.98-.96,1.16l-8.89,1.09c-.46.05-.87-.07-1.23-.34-.37-.27-.55-.64-.55-1.09V10.26ZM518.71,16.75v8.07h7.25v-8.07h-7.25ZM518.71,28.78v7.86h7.25v-7.86h-7.25ZM536.89,16.75v8.07h7.52v-8.07h-7.52ZM536.89,28.78v7.86h7.52v-7.86h-7.52ZM536.89,40.27v5.13h12.17l2.73-4.03-6.02.89c-.27,0-.59-.11-.96-.34-.27-.27-.41-.62-.41-1.03v-.62h-7.52Z"/>
        <path class="cls-3" d="M600.53,24.41c4.28,7.47,5.29,15.36,3.01,23.65-.91,4.24-2.71,8.03-5.4,11.38-2.69,3.35-6.02,5.87-9.98,7.55-1.46.73-2.89.8-4.31.21-2.55-1.32-3.96-3.42-4.24-6.29-2.28-.23-4.25-1.07-5.91-2.53-1.66-1.46-2.79-3.28-3.38-5.47-.96-4.56-.32-8.91,1.91-13.06,2.37-4.79,5.64-8.84,9.81-12.17,4.17-3.33,8.88-5.58,14.12-6.77,7.79-2.14,15.27-1.41,22.42,2.19,3.51,1.64,6.48,3.91,8.92,6.8,2.44,2.89,4.14,6.21,5.09,9.95,1.05,4.1.98,8.15-.21,12.13-1.19,3.99-3.35,7.42-6.49,10.29-3.83,3.55-8.2,6.12-13.12,7.69s-9.98,2.08-15.18,1.54c5.42-1.73,10.15-4.57,14.18-8.51,4.03-3.94,6.96-8.62,8.78-14.05.96-3.24,1.14-6.48.55-9.74-.59-3.26-1.94-6.23-4.03-8.92-2.14-2.32-4.66-4-7.55-5.02-2.89-1.03-5.89-1.31-8.99-.85ZM594.52,26.12c-7.43,4.88-12.12,11.69-14.08,20.44-.96,3.87-.48,7.52,1.44,10.94.55.55,1.21.88,1.98.99.77.11,1.46-.15,2.05-.79,4.15-4.19,6.97-9.08,8.48-14.66,1.5-5.58,1.55-11.22.14-16.92Z"/>
        <path class="cls-3" d="M646.81,8.82l10.53,3.96c.46.14.73.43.82.89.09.41-.09.8-.55,1.16l-2.05,1.37v10.8h.96l3.14-4.85c.46-.5.96-.52,1.5-.07l5.33,6.08v-14.56h21.6l2.19-3.08c.18-.32.46-.52.82-.62.27-.04.59.02.96.21l7.66,5.2c.36.23.55.57.55,1.03,0,.5-.23.82-.68.96l-1.91,1.3v20.37c0,1.55-.78,2.6-2.32,3.14l6.02,5.47c.46.32.55.68.27,1.09-.18.46-.55.64-1.09.55h-1.91l-11.89,4.31c4.74,6.11,10.89,9.89,18.46,11.35-3.83,1.73-7.11,4.12-9.84,7.18-3.19-2.64-5.92-5.47-8.2-8.48-6.29,2.96-12.12,6.06-17.5,9.3l-.41,1.57c-.09.32-.32.52-.68.62-.37.04-.68-.09-.96-.41l-8.34-11.21,7.25-.48V29.88c-.27.27-.64.46-1.09.55h-9.84v3.21c2.28.37,4.35,1.23,6.22,2.6,1.87,1.37,3.26,3.12,4.17,5.26.64,1.23.59,2.48-.14,3.76-.73,1.23-1.78,1.91-3.14,2.05-1.37.09-2.51-.34-3.42-1.3-.91-.96-1.28-2.07-1.09-3.35.18-2.51-.68-4.58-2.6-6.22v35.41c0,.91-.46,1.48-1.37,1.71l-5.06,1.23c-.64,0-1.21-.25-1.71-.75s-.71-1.12-.62-1.85v-21.4c-2.73,3.74-5.97,6.93-9.71,9.57,5.01-9.52,7.97-19.5,8.89-29.94h-6.97l-1.37-3.42h9.16V8.82ZM676.76,17.16v8.41h10.25v-8.41h-10.25ZM676.76,28.99v8.41h10.25v-8.41h-10.25ZM676.76,41.09v21.05l8.89-.68c-4.01-6.24-6.29-13.03-6.84-20.37h-2.05ZM681.4,41.09c.55,3.6,1.78,6.88,3.69,9.84,2.37-2.51,4.28-5.31,5.74-8.41l-1.91.21c-.55,0-1-.16-1.37-.48-.37-.32-.55-.71-.55-1.16h-5.61Z"/>
        <path class="cls-3" d="M727.48,11.21l9.98,2.87h24.47l3.42-4.03c.64-.77,1.41-.91,2.32-.41l6.56,6.22c.27.37.34.73.21,1.09-.14.37-.39.64-.75.82h-13.67l-6.56,6.63h7.52l2.05-2.32c.55-.68,1.18-.8,1.91-.34l7.38,4.51c.27.27.46.59.55.96,0,.37-.14.66-.41.89l-2.05,1.64v15.24c0,1.37-.68,2.17-2.05,2.39l-5.88,1.16c-.46.05-.89-.09-1.3-.41-.41-.32-.66-.75-.75-1.3v-.68h-1.5v19.76c-.18,2.42-1.19,4.5-3.01,6.25-1.82,1.75-3.96,2.68-6.43,2.77-1.37.09-2.42-.48-3.14-1.71-1.91-3.37-4.42-5.95-7.52-7.72l7.79.82c.73,0,1.37-.24,1.91-.72s.87-1.08.96-1.81v-17.64h-.55v.68c0,.32-.14.59-.41.82-.27.18-.59.27-.96.27l-6.97.48c-.46-.04-.84-.22-1.16-.51-.32-.3-.43-.67-.34-1.13v-25.09l10.12,2.73.41-6.63h-12.44v20.3c-.46,6.43-2.05,12.48-4.79,18.15s-6.47,10.68-11.21,15c-.82,1.18-1.98,1.91-3.49,2.19s-2.85,0-4.03-.82c-1.28-.82-2.07-1.97-2.39-3.45-.32-1.48-.07-2.84.75-4.07.55-1.46.62-2.93.21-4.41-.41-1.48-1.25-2.68-2.53-3.59l-2.46-1.09c2.46-.87,4.38-2.35,5.74-4.44l14.49-28.85v-11.48ZM708.2,24.75c4.65.23,8.52,2.05,11.62,5.47,1,1.46,1.18,2.97.55,4.55-.64,1.57-1.82,2.5-3.55,2.77-1.37.23-2.51-.04-3.42-.82-1.09-.77-1.73-1.8-1.91-3.08-.27-3.28-1.37-6.24-3.28-8.89ZM712.3,11.35c4.38-.09,8.38,1.25,12.03,4.03,1.28,1.05,1.82,2.44,1.64,4.17-.18,1.69-1.05,2.89-2.6,3.62-1.28.59-2.6.62-3.96.07-1.28-.64-2.14-1.64-2.6-3.01-.82-3.37-2.32-6.33-4.51-8.89ZM727.48,26.25l-7.66,29.74c-.64,3.24-.14,6.29,1.5,9.16.64.91.96,1.89.96,2.94,3.01-6.84,4.74-13.99,5.2-21.46v-20.37ZM738.14,50.25l8.75,3.42c.55.23.82.66.82,1.3s-.32,1.05-.96,1.23l-2.73.55c-4.47,6.11-10.16,10.8-17.09,14.08,5.1-6.15,8.84-13.01,11.21-20.58ZM748.94,28.03v5.33h11.48v-5.33h-11.48ZM748.94,36.92v5.67h11.48v-5.67h-11.48ZM759.2,49.77c6.47,1.19,11.26,4.65,14.36,10.39,1,1.73.96,3.46-.14,5.2-1,1.73-2.46,2.6-4.38,2.6-1.46.05-2.71-.43-3.76-1.44-1.05-1-1.62-2.21-1.71-3.62-.46-4.51-1.91-8.89-4.38-13.12Z"/>
      </g>
      <g>
        <path class="cls-8" d="M37.32,83.68c-2.49,0-4.79-.84-6.61-2.38-1.12.75-2.37,1.27-3.7,1.54-.38.08-.76.13-1.15.15l-5.06.27c-.14,0-.29.01-.43.01-2.48,0-4.73-.81-6.51-2.34-.15-.13-.3-.27-.44-.41-1.86-1.86-2.89-4.26-2.89-6.75v-24.01c-.42-.08-.83-.17-1.24-.29-3.38-.93-6.15-3.18-7.76-6.32C.01,40.31-.38,37.23.37,34.22c.59-2.35,1.69-4.46,3.29-6.25.16-.18.33-.35.51-.52,1.31-1.23,1.85-2.43,1.85-4.14,0-3.1,1.78-5.88,4.51-7.2v-6.75c0-2.57,1.23-4.98,3.31-6.48,1.38-1,3.03-1.52,4.69-1.52.84,0,1.68.13,2.5.4l9.98,3.28c.16.05.32.11.48.17,2.38.96,4.22,2.82,5.16,5.17h1.63v-2.12c0-2.42,1.09-4.71,2.97-6.22,1.44-1.16,3.21-1.78,5.03-1.78.56,0,1.13.06,1.69.18l11.31,2.44c1.85.36,3.49,1.25,4.78,2.54.52-.09,1.05-.14,1.59-.14,1.33,0,2.67.29,3.97.87.95.42,1.81,1.02,2.53,1.77l4.89,5.08c3.09,2.83,3.97,7.09,2.26,11.08-.33.8-.75,1.54-1.24,2.2.19.82.26,1.67.23,2.53l1.68,1.9c.27.31.52.64.74.98,1.85,2.88,2.15,6.3.83,9.39-.71,1.67-1.84,3.06-3.25,4.08,0,.09,0,.19,0,.28,0,2.07-.68,4.08-1.91,5.72v15.74c0,3.18-.98,6.16-2.83,8.63-3.55,4.68-8.44,7.37-14.18,7.82-.37.03-.65.04-.93.04-3.15,0-6.02-1.24-8.14-3.46-1.15,1.16-2.61,2.05-4.3,2.56-.42.12-.84.22-1.28.27l-6.36.82c-.34.04-.68.07-1.02.07Z"/>
        <path class="cls-5" d="M120.33,83.01c-2.43,0-4.86-.76-7.03-2.19-.42-.26-.82-.55-1.19-.84-2.13,1.4-4.56,2.13-7.14,2.13,0,0-.28,0-.42,0-2.98-.09-5.69-1.12-7.96-2.99-2.41,2.01-5.32,3.08-8.45,3.08-1.02,0-2.07-.12-3.11-.35-2.6-.57-4.95-1.9-6.8-3.86-1.76-1.87-2.93-4.08-3.47-6.56-.04-.17-.07-.33-.09-.5-.57-3.8.26-7.29,2.33-10.08l-4.81-6.91c-1.58-2.28-1.88-5.21-.77-7.75,0,0,0-.01,0-.02-1.64-3.06-1.11-6.85,1.33-9.35.54-.56,1.05-1.13,1.53-1.73-.31-.39-.59-.81-.82-1.26l-2.53-4.79c-1.31-2.48-1.23-5.46.22-7.87.48-.8,1.1-1.5,1.8-2.07-.26-1.82.12-3.71,1.12-5.32,1.46-2.36,4.03-3.79,6.81-3.79h2.12v-1.3c0-2.47,1.14-4.8,3.1-6.32,1.42-1.1,3.15-1.68,4.91-1.68.66,0,1.33.08,1.99.25l10.88,2.79c1.27.31,2.41.86,3.39,1.59.51-1.44,1.43-2.71,2.67-3.67,1.41-1.08,3.12-1.64,4.86-1.64.7,0,1.41.09,2.1.28l11.07,3.01c.42.11.83.26,1.22.44,2.97,1.36,4.97,4.01,5.47,7.28.06.41.09.82.09,1.23,0,.45-.03.89-.09,1.32l6.67,5.36c.42.33.8.71,1.14,1.12,2.05,2.46,2.64,5.55,1.82,8.36,1.81,1.2,3.12,3.13,3.48,5.4l1.14,7.12c.02.08.07.23.28.48.17.21.33.42.48.65.92,1.38,1.62,2.91,2.07,4.54.07.26.13.52.18.78.47,2.72.05,5.5-1.21,8.02-1.1,2.19-2.74,3.97-4.79,5.2.46.85.88,1.73,1.26,2.63.08.19.15.39.22.59,1.78,5.45.36,10.72-3.91,14.45-2.56,2.24-5.6,3.42-8.8,3.42-2,0-4.01-.46-5.96-1.38-.08-.04-.34-.17-.4-.2-.23.18-.47.35-.71.52-2.19,1.53-4.74,2.37-7.3,2.37Z"/>
        <path class="cls-6" d="M181.59,79.72c-1.59,0-3.22-.09-4.83-.26-2.9-.3-5.32-2.14-6.46-4.68-1.47.54-2.99.82-4.53.82-1.71,0-3.39-.34-5.01-1.02-.2-.08-.39-.17-.58-.27-3.09-1.6-5.43-3.94-6.89-6.83-1.76-.75-3.38-1.78-4.86-3.08-2.86-2.5-4.82-5.67-5.83-9.39-.04-.15-.08-.29-.11-.44-1.34-6.39-.46-12.57,2.63-18.37,2.88-5.77,6.89-10.73,11.93-14.75,5.06-4.03,10.83-6.82,17.16-8.28,3.52-.95,7.07-1.44,10.53-1.44,5.94,0,11.77,1.41,17.33,4.19,4.51,2.12,8.39,5.1,11.54,8.84,3.21,3.81,5.47,8.22,6.73,13.12,1.41,5.51,1.31,11.02-.29,16.4-1.6,5.38-4.55,10.07-8.77,13.92-4.63,4.3-10.06,7.48-16.08,9.4-4.42,1.41-9,2.13-13.62,2.13ZM191.15,50.68c.69-1.3,1.29-2.68,1.78-4.14.57-1.99.67-3.92.31-5.91-.12-.66-.29-1.3-.51-1.92.08,3.69-.39,7.44-1.41,11.24-.05.24-.11.48-.17.72Z"/>
        <path class="cls-4" d="M271.66,82.92c-1.47,0-2.94-.4-4.25-1.22-5.69-3.58-10.59-7.97-14.63-13.15-2.78,3.02-6,5.65-9.65,7.85-6.86,4.15-14.36,6.25-22.3,6.25-.94,0-1.89-.03-2.84-.09-4.06-.25-7.29-3.51-7.5-7.58s2.67-7.64,6.69-8.3c2.26-.37,4.34-1.02,6.27-1.95-2.08-1.66-3.61-3.86-4.44-6.43-.51-1.57-.72-3.17-.62-4.74-3.41-.33-6.3-2.82-7.05-6.27-.85-3.94,1.36-7.9,5.16-9.24,1.37-.48,2.73-1,4.09-1.57-1.35-2.07-2.05-4.44-2.05-6.95,0-.15,0-.3.01-.46.22-3.83,1.95-7.24,4.88-9.6.21-.17.43-.33.65-.47,1.31-.85,1.86-1.72,2.03-3.2.38-3.19,2.64-5.85,5.73-6.74.73-.21,1.48-.31,2.21-.31,1.16,0,2.3.25,3.35.73v-.8c0-2.45,1.12-4.76,3.04-6.27,1.43-1.13,3.18-1.73,4.96-1.73.61,0,1.23.07,1.84.21l12.44,2.94c.29.07.58.15.86.25,1.49.53,2.77,1.38,3.79,2.45.73-.37,1.51-.63,2.34-.77.43-.07.86-.1,1.29-.1,1.89,0,3.74.67,5.2,1.92l9.43,8.07c.16.14.32.28.46.43,2.55,2.56,3.37,6.26,2.13,9.67-.11.29-.23.58-.37.85-.73,1.46-1.78,2.66-3.05,3.53.15.09.29.17.44.26.23.14.45.29.67.45,2.64,1.98,4.39,4.7,5.07,7.87.7,3.28.13,6.53-1.64,9.42-1.4,2.4-3.45,4.2-5.99,5.29-.02.05-.05.09-.07.14-.81,1.56-1.97,2.81-3.36,3.68,2.56.93,5.25,1.61,8.11,2.04,3.54.53,6.3,3.34,6.76,6.88.46,3.55-1.49,6.97-4.77,8.38-3.73,1.61-7.09,3.73-9.98,6.33-1.51,1.35-3.42,2.05-5.35,2.05Z"/>
        <path class="cls-1" d="M321.04,80.47c-5.25,0-10.62-.62-15.96-1.85-.08-.02-.15-.04-.23-.06-5.96-1.55-10.85-4.88-14.54-9.88-4.08-5.24-5.01-11.55-2.59-17.78,2.22-5.58,5.79-10.04,10.64-13.31,1.36-.92,2.92-1.37,4.48-1.37.5,0,1.01.05,1.5.14-.56-1.34-.74-2.81-.53-4.25-.35-.17-.7-.34-1.05-.52-4.31-2.25-7.93-5.42-10.76-9.41-2.03-2.87-1.95-6.72.19-9.5,1.55-2.01,3.91-3.12,6.34-3.12.94,0,1.88.17,2.8.51,1.86.7,3.66,1.03,5.5,1.03,1.31,0,2.65-.18,4.01-.53,6.88-2.69,13.87-4.69,20.79-5.94.23-.04.46-.07.7-.09.48-.04.96-.07,1.44-.07,2.45,0,4.9.57,7.27,1.68,2.84,1.37,5.07,3.36,6.72,5.94,1.61,2.53,2.48,5.33,2.58,8.34.12,2.56-.63,5.02-2.18,7.11-1.74,2.34-4.27,3.83-7.15,4.22-9,1.41-17.58,4.29-25.5,8.56-1.19.64-2.5.96-3.79.96-.51,0-1.01-.05-1.5-.14.8,1.92.84,4.13,0,6.14-.7,1.68-.87,3.27-.53,4.99.1.38.21.54.44.71,1.36.71,2.7,1.05,4.08,1.05.54,0,1.11-.05,1.69-.16l19.96-4.48c.16-.04.31-.07.47-.09,1.12-.18,2.23-.27,3.32-.27,4.81,0,9.28,1.79,12.92,5.19,2.79,2.67,4.15,6.13,3.89,9.82,0,.07,0,.13-.02.2-.37,3.95-2.35,7.24-5.57,9.25-.29.18-.59.34-.9.49-9.36,4.3-19.1,6.47-28.95,6.47Z"/>
        <path class="cls-2" d="M402.26,81.84c-2.91,0-5.89-.42-8.88-1.25-3.9-1.02-7.36-2.92-10.27-5.63-2.9-2.7-5.03-5.97-6.33-9.73-.35-.95-.63-1.9-.85-2.86-.72.12-1.44.19-2.17.19-1.26,0-2.52-.19-3.75-.56-.04-.01-.07-.02-.11-.03-6.73-2.16-11.92-6.62-15-12.92-1.24-2.53-1.05-5.53.48-7.88,1.48-2.27,4-3.63,6.7-3.63.11,0,.5.01.6.01,1.19,0,2.05-.29,2.9-1.01l3.36-3.36c-1.97-1.61-3.62-3.62-4.9-5.98-2.45-4.52-3.05-9.47-1.75-14.3.68-2.52,2.55-4.55,5-5.44.89-.32,1.81-.48,2.72-.48,1.62,0,3.23.49,4.6,1.45.91.64,1.78.93,2.8.93.07,0,.14,0,.22,0,5.62-1.05,11.21-2.73,16.62-4.99,1.41-.74,2.93-1.12,4.47-1.12,2.35,0,4.58.88,6.37,2.49l6.75,5.13c.17.13.33.26.49.4,2.67,2.38,4.34,5.52,4.84,9.09.21,1.37.13,2.73-.21,3.99.96.32,1.91.71,2.85,1.18.09.04.17.09.25.13,4.68,2.55,7.24,7.09,7.03,12.46-.02.5-.09,1-.2,1.49-.67,2.89-2.22,5.41-4.5,7.3-2.22,1.84-4.87,2.9-7.68,3.06,0,0-8.89.75-8.96.75-1.89.11-3.35.8-4.72,2.25-.89.93-1.47,1.88-1.79,2.93,1.58-.22,3.14-.65,4.74-1.3.67-.27,1.37-.45,2.09-.54.77-.09,1.55-.14,2.31-.14,4.43,0,8.58,1.57,12.03,4.53,2.81,2.39,4.24,5.83,3.93,9.46-.27,3.19-1.77,6.06-4.22,8.1-.23.19-.47.37-.72.53-5.34,3.52-11.11,5.3-17.15,5.3Z"/>
        <path class="cls-12" d="M459.92,83.33c-2.84,0-5.42-.99-7.46-2.85-.27-.25-.53-.52-.78-.79-.82.68-1.77,1.25-2.82,1.68-.32.13-.65.24-.99.33l-4.92,1.3c-.45.12-.92.2-1.39.24-.28.02-.56.03-.84.03-2.06,0-4.1-.63-5.89-1.83-.24-.16-.47-.33-.69-.51-.62-.51-1.16-1.08-1.63-1.69-1.06.49-2.21.74-3.36.74-1.6,0-3.2-.48-4.58-1.44-2.87-2.01-4.11-5.66-3.04-9,1.81-5.67,2.22-11.41,1.23-17.55-.15-.94-.13-1.89.04-2.79l-2.25-4.78c-1.14-2.41-1-5.24.38-7.53.89-1.48,2.21-2.61,3.76-3.26-.33-1.6-.35-3.27-.05-4.93,0-.32-.05-.59-.18-.89-.09-.22-.21-.4-.52-.62-2.97-2.14-4.11-6.01-2.78-9.42,1.21-3.09,4.19-5.08,7.44-5.08.33,0,.66.02,1,.06.03,0,.05,0,.08.01.11-1.04.19-2.09.23-3.13.11-2.71,1.59-5.19,3.93-6.57,1.25-.74,2.66-1.11,4.07-1.11,1.22,0,2.45.28,3.58.84l9.71,4.85c.18.09.37.19.54.3,2.59,1.55,4.13,4.16,4.34,6.97l2.95,2.04v-8.38c0-2.5,1.17-4.86,3.17-6.38,1.41-1.07,3.11-1.62,4.83-1.62.72,0,1.45.1,2.16.3l11.92,3.34c2.71.51,5.05,2.25,6.33,4.81.17.34.32.7.44,1.06.32.96.47,1.95.46,2.94,1.72.26,3.34,1.02,4.73,2.24.26.23.51.48.74.74l6.15,6.97c2.56,2.88,3,6.9,1.16,10.38-.68,1.42-1.7,2.61-2.95,3.48l.05.06c2.22,2.54,2.9,5.98,1.83,9.21-.37,1.1-.91,2.09-1.58,2.95.28.92.41,1.9.37,2.89.04,2.05-.61,4.01-1.8,5.6v14.62c0,4.64-2.9,8.49-7.4,9.8-.35.1-.7.18-1.06.23l-6.43.96c-.39.06-.78.09-1.18.09-.17,0-.33,0-.5-.02-2.62-.17-5-1.2-6.87-2.99-.21-.2-.41-.41-.6-.62h-.4c-1.48,1.49-3.38,2.44-5.43,2.73l-6.11.88c-.38.05-.76.08-1.14.08Z"/>
        <path class="cls-13" d="M527.61,82.48c-2.07,0-4.02-.63-5.67-1.83-2.54-1.83-3.99-4.63-3.99-7.71v-2.05c-6.3,2.61-12.79,4.71-19.42,6.28-.62.15-1.24.22-1.85.22-3.33,0-6.39-2.08-7.54-5.34-1.36-3.86.41-8.12,4.1-9.88,3.21-1.53,6.15-3.31,8.84-5.35h-.48c-3.08,0-5.88-1.76-7.21-4.54l-1.64-3.42c-1.19-2.48-1.02-5.4.44-7.72,1.31-2.07,3.48-3.42,5.88-3.69V10.26c0-2.46,1.13-4.79,3.08-6.31,1.42-1.11,3.16-1.69,4.92-1.69.65,0,1.3.08,1.94.24l9.98,2.5h22.17c1.78-2.06,3.77-2.91,5.34-3.23.71-.17,1.44-.25,2.16-.25,1.83,0,3.58.53,5.11,1.53,0,0,8.23,4.92,8.27,4.95,2.23,1.4,3.75,3.61,4.27,6.22.11.52.16,1.05.16,1.58,0,2.56-.98,4.93-2.73,6.68v13.92l3.64,3.13c.23.2.46.42.66.64,2.42,2.62,3.29,6.04,2.4,9.39-.05.2-.12.41-.19.61-.52,1.47-1.31,2.74-2.33,3.77,2.88.88,5.05,3.33,5.55,6.35.55,3.34-1.07,6.67-4.03,8.3-2.84,1.57-5.52,3.64-7.97,6.15-1.54,1.59-3.63,2.43-5.74,2.43-1.24,0-2.49-.29-3.64-.88-2.53-1.3-4.95-2.76-7.26-4.38-.26,3.1-2,5.84-4.75,7.44-.66.39-1.38.68-2.12.86l-8.07,1.98c-.2.05-.4.09-.6.12-.57.09-1.14.14-1.7.14Z"/>
        <path class="cls-10" d="M601.59,79.72c-1.6,0-3.22-.09-4.83-.26-2.9-.3-5.32-2.14-6.46-4.68-1.47.54-2.99.82-4.53.82-1.71,0-3.39-.34-5.01-1.02-.2-.08-.39-.17-.58-.27-3.09-1.6-5.43-3.94-6.89-6.83-1.75-.75-3.38-1.78-4.86-3.08-2.86-2.5-4.82-5.67-5.83-9.39-.04-.15-.08-.29-.11-.44-1.34-6.39-.46-12.57,2.63-18.37,2.88-5.77,6.89-10.73,11.93-14.75,5.06-4.03,10.83-6.82,17.16-8.28,3.53-.95,7.07-1.44,10.53-1.44,5.94,0,11.77,1.41,17.33,4.19,4.5,2.12,8.39,5.1,11.54,8.84,3.21,3.81,5.47,8.22,6.73,13.12,1.41,5.51,1.31,11.02-.29,16.4-1.6,5.38-4.55,10.07-8.77,13.92-4.63,4.3-10.06,7.48-16.08,9.4-4.42,1.41-9,2.13-13.62,2.13ZM611.15,50.68c.69-1.3,1.28-2.68,1.78-4.14.57-1.99.67-3.92.31-5.91-.12-.66-.29-1.3-.51-1.92.08,3.69-.39,7.44-1.41,11.24-.05.24-.11.48-.17.72Z"/>
        <path class="cls-7" d="M668.42,83.07c-2.63,0-5.14-1.17-6.89-3.21-.12-.14-.24-.29-.35-.44l-.48-.64c-1.22,1.2-2.77,2.08-4.56,2.53l-5.11,1.24c-.62.15-1.25.23-1.89.23-2.75,0-5.37-1.1-7.37-3.09-2.08-2.08-3.14-4.91-2.96-7.83v-3.68c-.56.12-1.13.18-1.71.18-1.89,0-3.77-.67-5.28-1.98-2.78-2.44-3.53-6.47-1.8-9.74,3.13-5.95,5.39-12.16,6.75-18.54-2.32-.68-4.25-2.39-5.18-4.71l-1.37-3.42c-.99-2.46-.68-5.26.8-7.46,1.49-2.2,3.97-3.51,6.62-3.51h1.16v-10.18c0-2.63,1.29-5.08,3.45-6.58,1.36-.94,2.95-1.42,4.55-1.42.95,0,1.91.17,2.82.51l10.37,3.91c.96.33,1.83.79,2.6,1.38,1.15-.65,2.48-1.01,3.9-1.01h17.47c1.27-1.71,3.08-2.92,5.19-3.45.22-.05.43-.1.65-.14.48-.08.97-.12,1.46-.12,1.48,0,2.94.36,4.35,1.06.32.16.63.34.93.54l7.59,5.15c2.58,1.7,4.12,4.56,4.12,7.69,0,2.46-.97,4.72-2.6,6.36v16.27c0,.55-.04,1.09-.11,1.62l.96.87c3.36,2.74,4.25,7.25,2.18,10.99-.94,1.82-2.45,3.22-4.26,4.03.73.21,1.49.39,2.27.54,3.42.66,6.02,3.46,6.43,6.92.41,3.46-1.47,6.79-4.65,8.22-2.83,1.28-5.18,2.99-7.18,5.23-1.58,1.76-3.76,2.66-5.96,2.66-1.8,0-3.61-.61-5.1-1.84-1.83-1.52-3.54-3.1-5.13-4.74-3.07,1.55-6.01,3.15-8.81,4.76-1.15,2.27-3.23,3.94-5.8,4.58-.32.08-.65.14-.98.18-.37.04-.74.07-1.11.07Z"/>
        <path class="cls-9" d="M749.21,82.93c-4.07,0-7.63-2.06-9.75-5.64-.03-.04-.05-.08-.07-.13-.65-1.15-1.39-2.13-2.22-2.96-2.15,1.43-4.43,2.71-6.82,3.84-1.1.52-2.27.77-3.42.77-.61,0-1.21-.07-1.8-.21-1.7,1.35-3.72,2.26-6,2.67-.85.15-1.7.23-2.53.23-2.64,0-5.18-.78-7.37-2.27-3.02-1.98-5.01-4.89-5.78-8.43-.56-2.6-.37-5.16.54-7.53-2.99-1.33-4.87-4.36-4.74-7.63.13-3.28,2.25-6.14,5.34-7.23.8-.28,1.22-.64,1.5-1l2.26-4.51c-2.64-2.02-4.33-4.91-4.8-8.17-.02-.15-.04-.31-.05-.46-.15-1.82-.74-3.41-1.79-4.86-1.8-2.49-2.02-5.8-.55-8.5,1.13-2.09,3.11-3.53,5.36-4.01-.1-.12-.2-.25-.3-.37-2.01-2.35-2.49-5.65-1.23-8.47,1.26-2.82,4.04-4.67,7.14-4.73.19,0,.39,0,.58,0,3.34,0,6.54.59,9.58,1.77.12-.1.24-.2.37-.3,1.4-1.06,3.1-1.61,4.81-1.61.74,0,1.48.1,2.21.31l8.9,2.56h19.64l1-1.18c1.92-2.3,4.56-3.56,7.44-3.56,1.68,0,3.31.43,4.86,1.28.6.33,1.16.73,1.65,1.21l6.56,6.22c.33.31.63.65.9,1.01,1.9,2.54,2.38,5.79,1.29,8.7-.47,1.26-1.2,2.38-2.12,3.33.35.68.63,1.41.82,2.16.16.64.24,1.3.24,1.96,0,2.35-.88,4.57-2.46,6.25v11.52c0,2.18-.6,4.17-1.67,5.81,1.44,1.63,2.71,3.46,3.81,5.47,2.4,4.24,2.3,9.05-.28,13.23-2.41,4.07-6.44,6.41-11.09,6.45-.11,0-.21,0-.32,0-1.73,0-3.39-.32-4.92-.94-.7,1.03-1.53,2-2.46,2.9-3.21,3.08-7.21,4.81-11.57,5-.23.01-.46.02-.68.02Z"/>
      </g>
      <g>
        <path class="cls-11" d="M14.01,23.31c2.64,3.65,3.9,7.79,3.76,12.44-.09,1.19-.32,2.28-.68,3.28-.41.91-1.05,1.64-1.91,2.19-1.19.73-2.42.91-3.69.55-1.32-.36-2.28-1.14-2.87-2.32-.59-1.09-.75-2.19-.48-3.28s.77-2.05,1.5-2.87c2.92-2.73,4.38-6.06,4.38-9.98ZM18.52,9.37l9.98,3.28c.46.18.73.55.82,1.09,0,.55-.21,1-.62,1.37l-1.64.96v5.88c3.55.09,6.4,1.55,8.54,4.38h10.66v-4.1h-11.62l-1.91-3.83h13.54v-10.12l11.42,2.46c.55.09.93.46,1.16,1.09.09.64-.05,1.14-.41,1.5l-2.26,1.78v3.28h5.47l2.87-4.51c.23-.36.5-.55.82-.55.27-.09.62-.04,1.03.14l5.13,5.33c.68.55.82,1.28.41,2.19-.32.82-.93,1.23-1.85,1.23h-13.88v4.1h5.33l2.32-3.14c.18-.27.5-.46.96-.55.46,0,.82.14,1.09.41l3.96,4.38c.41.37.52.87.34,1.5-.27.64-.73.96-1.37.96h-12.65v5.47h7.59l2.87-3.69c.41-.46.89-.73,1.44-.82.64-.09,1.18.05,1.64.41l4.24,4.79c.41.64.48,1.28.21,1.91-.27.64-.78,1-1.5,1.09h-40.26l-1.44-3.69h15.31v-5.47h-9.09c.14.82.04,1.55-.27,2.19-.64,1.09-1.56,1.85-2.77,2.26-1.21.41-2.38.34-3.52-.21-.82-.36-1.46-.96-1.91-1.78-.32-.91-.46-1.78-.41-2.6.23-2-.18-3.87-1.23-5.61v48.95c0,.55-.16.98-.48,1.3-.32.32-.71.52-1.16.62l-5.06.27c-.55,0-.98-.14-1.3-.41-.37-.37-.55-.73-.55-1.09V9.37ZM35,39.86l9.71,2.6h13.88l1.85-2.05c.82-1,1.8-1.14,2.94-.41l6.43,4.65c.32.18.48.46.48.82s-.11.68-.34.96l-1.57,1.64v18.87c0,1.46-.41,2.73-1.23,3.83-2.14,2.83-4.95,4.38-8.41,4.65-1.32.09-2.35-.41-3.08-1.5-1.73-2.83-4.01-4.92-6.84-6.29,2.32,0,4.51.18,6.56.55.68.09,1.32-.07,1.91-.48.59-.41.93-.98,1.03-1.71v-5.33h-13.26v12.44c0,.91-.46,1.5-1.37,1.78l-6.36.82c-.68,0-1.23-.23-1.64-.68-.46-.37-.68-.87-.68-1.5v-33.63ZM45.05,46.14v3.28h13.26v-3.28h-13.26ZM45.05,53.25v3.42h13.26v-3.42h-13.26Z"/>
        <path class="cls-11" d="M80.87,17.98h10.12v-9.3l10.94,2.8c.59.14.89.5.89,1.09s-.25,1-.75,1.23l-1.85.89v3.28h1.57l1.44-2.73c.18-.27.48-.41.89-.41.23,0,.5.11.82.34l5.47,5.06c.32.23.39.52.21.89-.14.37-.39.55-.75.55h-9.64v3.76h1.57l2.6-2.46c.55-.64,1.12-.64,1.71,0l2.67,2.46,6.02-.96V8l11.07,3.01c.5.23.8.64.89,1.23,0,.59-.25,1-.75,1.23l-1.98,1.44v7.79l1.85-.34,1.85-2.67c.5-.46,1.05-.5,1.64-.14l6.97,5.61c.46.55.43,1.07-.07,1.57l-2.12,1.78v17.91c0,.64.3,1.09.89,1.37.68.27,1.37.27,2.05,0,.41-.23.68-.52.82-.89l1.98-11.83,1.16,7.25c.27,1.5.93,2.89,1.98,4.17.46.68.8,1.44,1.03,2.26.18,1.05.02,2.07-.48,3.08-.5,1-1.25,1.73-2.26,2.19-3.96,1.28-7.93,1.32-11.89.14-2.14-.77-3.26-2.28-3.35-4.51v-5.95c-1,.91-2.23,1.3-3.69,1.16-1.37-.27-2.42-1.03-3.14-2.26-3.96,6.24-9.48,10.53-16.54,12.85,4.83,3.14,7.36,7.57,7.59,13.26.04,1.46-.49,2.73-1.61,3.83-1.12,1.09-2.4,1.62-3.86,1.57-1.46-.05-2.71-.64-3.76-1.78-1.05-1.14-1.53-2.46-1.44-3.96,1.28-5.1,1.14-10.16-.41-15.18l1.85,1.16c2.87-2.19,5.24-4.58,7.11-7.18l-19.76,8.75-.62,1.91c-.23.59-.59.96-1.09,1.09-.64.14-1.14.02-1.5-.34l-6.43-9.23,12.24-1.78v-3.76h-6.7l-1.85-2.73c-1.28.5-2.6.93-3.96,1.3,3.37-3.46,5.88-7.56,7.52-12.3h-5.47l-2.53-4.79h12.99v-3.62h-8.27l-1.85-3.69ZM93.65,55.1c2.19,5.88,1.78,11.51-1.23,16.88-1.5,1.87-3.4,2.55-5.67,2.05-1.05-.23-1.95-.74-2.7-1.54-.75-.8-1.24-1.72-1.47-2.77-.37-2.42.43-4.26,2.39-5.54,3.74-2.19,6.63-5.22,8.68-9.09ZM90.98,40.33v-5.06c-2.14,2.05-4.44,3.74-6.9,5.06h6.9ZM94.67,30.08c-.09.14-.25.4-.48.79-.23.39-.39.67-.48.85l8.07,3.21c.27.14.46.41.55.82,0,.37-.14.64-.41.82l-1.71,1.44v2.32h1.91l1.98-3.42c-.27-.36-.43-.73-.48-1.09-.59-2.05-1.57-3.96-2.94-5.74h-6.02ZM100.21,43.82v2.32l9.5-1.3c2-3.28,3.37-6.65,4.1-10.12-1.73-1.73-3.69-3.28-5.88-4.65h-1.91c1.46.59,2.83,1.46,4.1,2.6,1.05,1.05,1.32,2.3.82,3.76-.46,1.5-1.46,2.32-3.01,2.46l2.32,3.08c.23.37.27.73.14,1.09-.18.46-.5.71-.96.75h-9.23ZM114.77,28.64l-3.49.68c-.09.27-.3.52-.62.75,1.41.09,2.71.3,3.9.62l.21-2.05ZM112.31,54.62c3.19,1.28,5.9,3.17,8.13,5.67,2.23,2.51,3.83,5.4,4.79,8.68.46,2.1-.25,3.78-2.12,5.06-1.82,1.28-3.65,1.3-5.47.07-1.91-1.19-2.69-2.85-2.32-4.99.55-5.2-.46-10.03-3.01-14.49ZM124.07,26.87c-.09,2.6-.5,5.04-1.23,7.31,1.14.68,2.21,1.55,3.21,2.6v-10.25l-1.98.34ZM123.8,54.07c3.55.46,6.77,1.79,9.64,4,2.87,2.21,4.99,4.96,6.36,8.24.77,2.37.25,4.35-1.57,5.95-1.82,1.59-3.85,1.87-6.08.82-2.14-1.09-3.14-2.87-3.01-5.33-.14-5.2-1.91-9.75-5.33-13.67Z"/>
        <path class="cls-11" d="M180.53,24.41c4.28,7.47,5.29,15.36,3.01,23.65-.91,4.24-2.71,8.03-5.4,11.38-2.69,3.35-6.02,5.87-9.98,7.55-1.46.73-2.89.8-4.31.21-2.55-1.32-3.96-3.42-4.24-6.29-2.28-.23-4.25-1.07-5.91-2.53-1.66-1.46-2.79-3.28-3.38-5.47-.96-4.56-.32-8.91,1.91-13.06,2.37-4.79,5.64-8.84,9.81-12.17,4.17-3.33,8.88-5.58,14.12-6.77,7.79-2.14,15.27-1.41,22.42,2.19,3.51,1.64,6.48,3.91,8.92,6.8,2.44,2.89,4.14,6.21,5.09,9.95,1.05,4.1.98,8.15-.21,12.13-1.19,3.99-3.35,7.42-6.49,10.29-3.83,3.55-8.2,6.12-13.12,7.69s-9.98,2.08-15.18,1.54c5.42-1.73,10.15-4.57,14.18-8.51,4.03-3.94,6.96-8.62,8.78-14.05.96-3.24,1.14-6.48.55-9.74-.59-3.26-1.94-6.23-4.03-8.92-2.14-2.32-4.66-4-7.55-5.02-2.89-1.03-5.89-1.31-8.99-.85ZM174.52,26.12c-7.43,4.88-12.12,11.69-14.08,20.44-.96,3.87-.48,7.52,1.44,10.94.55.55,1.21.88,1.98.99.77.11,1.46-.15,2.05-.79,4.15-4.19,6.97-9.08,8.48-14.66,1.5-5.58,1.55-11.22.14-16.92Z"/>
        <path class="cls-11" d="M245.41,8.68l12.44,2.94c.64.23,1,.68,1.09,1.37.09.64-.18,1.19-.82,1.64l-1.5.75c.27,3.69-.23,7.31-1.5,10.87,5.38-3.05,9.66-7.25,12.85-12.58l9.43,8.07c.36.37.46.8.27,1.3-.27.55-.68.78-1.23.68l-2.05-.41c-6.56,2.73-13.31,4.44-20.23,5.13l-.55,1.03c8.84.68,17,3.28,24.47,7.79,1.09.82,1.78,1.87,2.05,3.14.27,1.28.04,2.48-.68,3.62-.64,1.14-1.62,1.9-2.94,2.29-1.32.39-2.58.26-3.76-.38-.73-.46-1.32-1-1.78-1.64-5.2-5.74-11.26-10.16-18.18-13.26-1.19,1.82-2.64,3.44-4.38,4.85l8.61,3.14c.55.27.82.72.82,1.33s-.27,1.06-.82,1.33l-1.5,1.03c-.09,2.42-.41,4.58-.96,6.49.09.32.59,1.23,1.5,2.73,3.46-3.37,6.15-7.18,8.07-11.42l8.75,7.93c.46.41.55.88.27,1.4-.27.52-.68.79-1.23.79l-2.73-.48-11.48,4.17c7.29,7.06,16,11.35,26.11,12.85-4.56,1.96-8.61,4.53-12.17,7.72-8.2-5.15-14.4-12.19-18.59-21.12-3.1,6.7-7.79,11.95-14.08,15.76s-13.12,5.48-20.51,5.02c6.65-1.09,12.33-4.06,17.02-8.89,4.69-4.83,7.54-10.6,8.54-17.29v-9.57c-7.84,3.74-16.13,5.99-24.88,6.77,6.47-2.28,12.76-5.33,18.87-9.16,2.46-1.82,4.33-4.09,5.61-6.8,1.28-2.71,1.87-5.57,1.78-8.58v-12.37ZM237.2,42.79c1,2.42,1.37,4.92,1.09,7.52s-1.14,4.97-2.6,7.11c-.82,1.05-1.89,1.7-3.21,1.95-1.32.25-2.53.06-3.62-.58-1.09-.73-1.85-1.72-2.26-2.97-.41-1.25-.3-2.5.34-3.73.64-1.23,1.59-2.05,2.87-2.46,3.1-1.5,5.56-3.78,7.38-6.84ZM234.06,16.75c1.73,2.14,2.78,4.55,3.14,7.21.36,2.67,0,5.25-1.09,7.76-.55,1.05-1.34,1.8-2.39,2.26-1.05.46-2.17.57-3.35.34-1.09-.27-2.01-.85-2.73-1.74-.73-.89-1.09-1.9-1.09-3.04.09-1.59.73-2.87,1.91-3.83,3.28-2.14,5.15-5.13,5.61-8.96Z"/>
        <path class="cls-11" d="M302.83,44.23c-1.32,3.19-1.64,6.45-.96,9.78.59,2.55,1.98,4.51,4.17,5.88,3.65,2.01,7.47,2.62,11.48,1.85l20.1-4.51c3.65-.59,6.81.37,9.5,2.87,1,.96,1.46,2.1,1.37,3.42-.14,1.46-.75,2.53-1.85,3.21-12.81,5.88-26.07,7.25-39.79,4.1-4.19-1.09-7.59-3.42-10.19-6.97-2.42-3.05-2.92-6.4-1.5-10.05,1.59-4.01,4.15-7.2,7.66-9.57ZM298.52,17.57c4.88,1.82,9.82,2.03,14.83.62,6.56-2.6,13.12-4.49,19.69-5.67,1.5-.14,3.03.16,4.58.89,1.41.68,2.54,1.69,3.38,3.01.84,1.32,1.29,2.78,1.33,4.38.04.73-.16,1.4-.62,2.02-.46.62-1.07.97-1.85,1.06-9.98,1.55-19.37,4.69-28.16,9.43,1.14-2.42,2.78-4.51,4.92-6.29-3.6,0-7-.83-10.19-2.5-3.19-1.66-5.83-3.98-7.93-6.94Z"/>
        <path class="cls-11" d="M370.03,14.97c2.6,1.82,5.47,2.6,8.61,2.32,6.52-1.18,12.9-3.1,19.14-5.74.77-.5,1.48-.41,2.12.27l7.11,5.4c1.28,1.14,2.03,2.58,2.26,4.31.14.78-.18,1.37-.96,1.78l-5.33,1.23c-8.8,5.61-17.55,11.78-26.25,18.53,10.25-4.97,21.03-8.82,32.33-11.55,2.42-.41,4.81-.02,7.18,1.16,2,1.09,2.96,2.8,2.87,5.13-.27,1.19-.88,2.17-1.81,2.94-.93.78-1.97,1.19-3.11,1.23l-8.89.75c-3.92.23-7.27,1.8-10.05,4.72-2.78,2.92-4.22,6.33-4.31,10.25-.05,1.6.46,3,1.5,4.2,1.05,1.21,2.39,1.93,4.03,2.15,3.55.05,7.06-.64,10.53-2.05,3.1-.36,5.83.48,8.2,2.53.87.73,1.25,1.63,1.16,2.7-.09,1.07-.55,1.95-1.37,2.63-6.02,3.96-12.53,4.97-19.55,3.01-2.64-.68-4.95-1.94-6.9-3.76-1.96-1.82-3.37-4.01-4.24-6.56-1.23-3.28-1.22-6.56.03-9.84,1.25-3.28,3.45-5.7,6.6-7.25-4.06,1.19-7.91,2.99-11.55,5.4-.55.37-1.03.82-1.44,1.37-.64.96-1.47,1.63-2.5,2.02-1.03.39-2.06.42-3.11.1-4.69-1.5-8.11-4.44-10.25-8.82,3.46.14,6.45-.91,8.96-3.14l24.61-24.61c-5.01,1.91-9.5,4.72-13.47,8.41-.14,1.14-.71,1.96-1.71,2.46-.91.59-1.89.68-2.94.27-2.83-.96-4.98-2.8-6.46-5.54-1.48-2.73-1.83-5.54-1.06-8.41Z"/>
        <path class="cls-11" d="M437.91,9.98l9.71,4.85c.46.27.59.66.41,1.16-.27.46-.64.68-1.09.68l-1.78.48-7.11,8.27c1.37,1.41,2.32,3.1,2.87,5.06l5.88-12.24,8.89,6.15c.18.32.27.59.27.82-.09.27-.27.48-.55.62l-.82.82h12.44V8.62l12.44,3.49c.36,0,.64.18.82.55.09.27.04.57-.14.89l-2.6,2.94v10.19h5.06l3.01-4.99c.27-.41.64-.64,1.09-.68.36-.09.73.02,1.09.34l6.15,6.97c.36.41.36.91,0,1.5-.18.5-.59.75-1.23.75h-15.18v10.05h4.24l2.73-4.65c.18-.36.5-.59.96-.68.46-.04.82.09,1.09.41l5.61,6.49c.36.41.46.89.27,1.44-.18.55-.55.87-1.09.96h-34.86c-.27.96-.87,1.71-1.78,2.26-.91.55-1.82.71-2.73.48-1.73-.27-2.83-1.25-3.28-2.94l-1.37.41v5.81c2.1.32,4.01,1.14,5.74,2.46,1.73,1.32,3.01,3.01,3.83,5.06v-11.21l9.98,2.46h12.03l2.19-2.87c.55-.68,1.18-.8,1.91-.34l7.38,4.79c.36.23.5.55.41.96.09.5-.05.87-.41,1.09l-1.37,1.23v17.98c0,1.09-.55,1.8-1.64,2.12l-6.43.96c-.73-.05-1.34-.31-1.85-.79-.5-.48-.75-1.08-.75-1.81v-1.03h-10.94v1.03c0,.46-.14.87-.41,1.23-.27.32-.59.5-.96.55l-6.15.89c-.82,0-1.5-.25-2.05-.75-.64-.59-.96-1.28-.96-2.05v-11.48c-.27.73-.68,1.32-1.23,1.78-.55.46-1.23.71-2.05.75-1.37.23-2.55-.18-3.55-1.23-.91-1.09-1.19-2.32-.82-3.69,0-2.14-.64-4.08-1.91-5.81v19c0,1-.5,1.71-1.5,2.12l-4.92,1.3c-.55.04-1.09-.11-1.64-.48-.55-.46-.82-.98-.82-1.57v-17.09l-1.09.34c-.37,6.38-3.1,11.55-8.2,15.52,2.19-6.84,2.69-13.92,1.5-21.26l7.79,2.67v-6.02l-4.92,1.3-.27.48c0,.46-.23.68-.68.68-.37.14-.64,0-.82-.41l-3.96-8.41,8.2-.41,2.6-5.26c-2.01.82-3.74.37-5.2-1.37-.91-1.28-1.19-2.67-.82-4.17.18-1.78-.07-3.47-.75-5.09-.68-1.62-1.75-2.95-3.21-4,2.55.32,4.92,1.21,7.11,2.67,1.28-4.42,2-8.89,2.19-13.4ZM445.15,35.62l-5.06,4.79,7.93-.34c-.64-1.73-1.6-3.21-2.87-4.44ZM452.67,28.37l-5.33,5.06c1.91.46,3.65,1.31,5.2,2.56,1.55,1.25,2.73,2.79,3.55,4.61h10.94v-10.05h-12.99l-1.37-2.19ZM467.44,53.39v14.56h10.94v-14.56h-10.94Z"/>
        <path class="cls-11" d="M507.09,10.26l10.94,2.73h27.62l1.5-2.67c.36-.46.73-.71,1.09-.75.46-.14.87-.07,1.23.21l8.34,4.99c.36.23.59.57.68,1.03,0,.5-.18.89-.55,1.16l-2.19,1.71v19.76c0,.55-.14.98-.41,1.3l6.84,5.88c.55.59.73,1.23.55,1.91-.27.78-.78,1.21-1.5,1.3h-23.65c8.11,6.61,17.45,10.87,28.03,12.78-3.55,1.96-6.84,4.49-9.84,7.59-7.47-3.83-13.76-9.23-18.87-16.2v18.12c0,.59-.27,1.05-.82,1.37l-8.07,1.98c-.55.09-1,0-1.37-.27-.46-.32-.68-.73-.68-1.23v-14.7c-9.3,5.01-19.05,8.73-29.26,11.14,9.75-4.65,17.59-11.51,23.52-20.58h-18.59l-1.64-3.42h25.98v-5.13h-7.25v.89c0,.59-.32.98-.96,1.16l-8.89,1.09c-.46.05-.87-.07-1.23-.34-.37-.27-.55-.64-.55-1.09V10.26ZM518.71,16.75v8.07h7.25v-8.07h-7.25ZM518.71,28.78v7.86h7.25v-7.86h-7.25ZM536.89,16.75v8.07h7.52v-8.07h-7.52ZM536.89,28.78v7.86h7.52v-7.86h-7.52ZM536.89,40.27v5.13h12.17l2.73-4.03-6.02.89c-.27,0-.59-.11-.96-.34-.27-.27-.41-.62-.41-1.03v-.62h-7.52Z"/>
        <path class="cls-11" d="M600.53,24.41c4.28,7.47,5.29,15.36,3.01,23.65-.91,4.24-2.71,8.03-5.4,11.38-2.69,3.35-6.02,5.87-9.98,7.55-1.46.73-2.89.8-4.31.21-2.55-1.32-3.96-3.42-4.24-6.29-2.28-.23-4.25-1.07-5.91-2.53-1.66-1.46-2.79-3.28-3.38-5.47-.96-4.56-.32-8.91,1.91-13.06,2.37-4.79,5.64-8.84,9.81-12.17,4.17-3.33,8.88-5.58,14.12-6.77,7.79-2.14,15.27-1.41,22.42,2.19,3.51,1.64,6.48,3.91,8.92,6.8,2.44,2.89,4.14,6.21,5.09,9.95,1.05,4.1.98,8.15-.21,12.13-1.19,3.99-3.35,7.42-6.49,10.29-3.83,3.55-8.2,6.12-13.12,7.69s-9.98,2.08-15.18,1.54c5.42-1.73,10.15-4.57,14.18-8.51,4.03-3.94,6.96-8.62,8.78-14.05.96-3.24,1.14-6.48.55-9.74-.59-3.26-1.94-6.23-4.03-8.92-2.14-2.32-4.66-4-7.55-5.02-2.89-1.03-5.89-1.31-8.99-.85ZM594.52,26.12c-7.43,4.88-12.12,11.69-14.08,20.44-.96,3.87-.48,7.52,1.44,10.94.55.55,1.21.88,1.98.99.77.11,1.46-.15,2.05-.79,4.15-4.19,6.97-9.08,8.48-14.66,1.5-5.58,1.55-11.22.14-16.92Z"/>
        <path class="cls-11" d="M646.81,8.82l10.53,3.96c.46.14.73.43.82.89.09.41-.09.8-.55,1.16l-2.05,1.37v10.8h.96l3.14-4.85c.46-.5.96-.52,1.5-.07l5.33,6.08v-14.56h21.6l2.19-3.08c.18-.32.46-.52.82-.62.27-.04.59.02.96.21l7.66,5.2c.36.23.55.57.55,1.03,0,.5-.23.82-.68.96l-1.91,1.3v20.37c0,1.55-.78,2.6-2.32,3.14l6.02,5.47c.46.32.55.68.27,1.09-.18.46-.55.64-1.09.55h-1.91l-11.89,4.31c4.74,6.11,10.89,9.89,18.46,11.35-3.83,1.73-7.11,4.12-9.84,7.18-3.19-2.64-5.92-5.47-8.2-8.48-6.29,2.96-12.12,6.06-17.5,9.3l-.41,1.57c-.09.32-.32.52-.68.62-.37.04-.68-.09-.96-.41l-8.34-11.21,7.25-.48V29.88c-.27.27-.64.46-1.09.55h-9.84v3.21c2.28.37,4.35,1.23,6.22,2.6,1.87,1.37,3.26,3.12,4.17,5.26.64,1.23.59,2.48-.14,3.76-.73,1.23-1.78,1.91-3.14,2.05-1.37.09-2.51-.34-3.42-1.3-.91-.96-1.28-2.07-1.09-3.35.18-2.51-.68-4.58-2.6-6.22v35.41c0,.91-.46,1.48-1.37,1.71l-5.06,1.23c-.64,0-1.21-.25-1.71-.75s-.71-1.12-.62-1.85v-21.4c-2.73,3.74-5.97,6.93-9.71,9.57,5.01-9.52,7.97-19.5,8.89-29.94h-6.97l-1.37-3.42h9.16V8.82ZM676.76,17.16v8.41h10.25v-8.41h-10.25ZM676.76,28.99v8.41h10.25v-8.41h-10.25ZM676.76,41.09v21.05l8.89-.68c-4.01-6.24-6.29-13.03-6.84-20.37h-2.05ZM681.4,41.09c.55,3.6,1.78,6.88,3.69,9.84,2.37-2.51,4.28-5.31,5.74-8.41l-1.91.21c-.55,0-1-.16-1.37-.48-.37-.32-.55-.71-.55-1.16h-5.61Z"/>
        <path class="cls-11" d="M727.48,11.21l9.98,2.87h24.47l3.42-4.03c.64-.77,1.41-.91,2.32-.41l6.56,6.22c.27.37.34.73.21,1.09-.14.37-.39.64-.75.82h-13.67l-6.56,6.63h7.52l2.05-2.32c.55-.68,1.18-.8,1.91-.34l7.38,4.51c.27.27.46.59.55.96,0,.37-.14.66-.41.89l-2.05,1.64v15.24c0,1.37-.68,2.17-2.05,2.39l-5.88,1.16c-.46.05-.89-.09-1.3-.41-.41-.32-.66-.75-.75-1.3v-.68h-1.5v19.76c-.18,2.42-1.19,4.5-3.01,6.25-1.82,1.75-3.96,2.68-6.43,2.77-1.37.09-2.42-.48-3.14-1.71-1.91-3.37-4.42-5.95-7.52-7.72l7.79.82c.73,0,1.37-.24,1.91-.72s.87-1.08.96-1.81v-17.64h-.55v.68c0,.32-.14.59-.41.82-.27.18-.59.27-.96.27l-6.97.48c-.46-.04-.84-.22-1.16-.51-.32-.3-.43-.67-.34-1.13v-25.09l10.12,2.73.41-6.63h-12.44v20.3c-.46,6.43-2.05,12.48-4.79,18.15s-6.47,10.68-11.21,15c-.82,1.18-1.98,1.91-3.49,2.19s-2.85,0-4.03-.82c-1.28-.82-2.07-1.97-2.39-3.45-.32-1.48-.07-2.84.75-4.07.55-1.46.62-2.93.21-4.41-.41-1.48-1.25-2.68-2.53-3.59l-2.46-1.09c2.46-.87,4.38-2.35,5.74-4.44l14.49-28.85v-11.48ZM708.2,24.75c4.65.23,8.52,2.05,11.62,5.47,1,1.46,1.18,2.97.55,4.55-.64,1.57-1.82,2.5-3.55,2.77-1.37.23-2.51-.04-3.42-.82-1.09-.77-1.73-1.8-1.91-3.08-.27-3.28-1.37-6.24-3.28-8.89ZM712.3,11.35c4.38-.09,8.38,1.25,12.03,4.03,1.28,1.05,1.82,2.44,1.64,4.17-.18,1.69-1.05,2.89-2.6,3.62-1.28.59-2.6.62-3.96.07-1.28-.64-2.14-1.64-2.6-3.01-.82-3.37-2.32-6.33-4.51-8.89ZM727.48,26.25l-7.66,29.74c-.64,3.24-.14,6.29,1.5,9.16.64.91.96,1.89.96,2.94,3.01-6.84,4.74-13.99,5.2-21.46v-20.37ZM738.14,50.25l8.75,3.42c.55.23.82.66.82,1.3s-.32,1.05-.96,1.23l-2.73.55c-4.47,6.11-10.16,10.8-17.09,14.08,5.1-6.15,8.84-13.01,11.21-20.58ZM748.94,28.03v5.33h11.48v-5.33h-11.48ZM748.94,36.92v5.67h11.48v-5.67h-11.48ZM759.2,49.77c6.47,1.19,11.26,4.65,14.36,10.39,1,1.73.96,3.46-.14,5.2-1,1.73-2.46,2.6-4.38,2.6-1.46.05-2.71-.43-3.76-1.44-1.05-1-1.62-2.21-1.71-3.62-.46-4.51-1.91-8.89-4.38-13.12Z"/>
      </g>
      <g>
        <path class="cls-3" d="M14.01,23.31c2.64,3.65,3.9,7.79,3.76,12.44-.09,1.19-.32,2.28-.68,3.28-.41.91-1.05,1.64-1.91,2.19-1.19.73-2.42.91-3.69.55-1.32-.36-2.28-1.14-2.87-2.32-.59-1.09-.75-2.19-.48-3.28s.77-2.05,1.5-2.87c2.92-2.73,4.38-6.06,4.38-9.98ZM18.52,9.37l9.98,3.28c.46.18.73.55.82,1.09,0,.55-.21,1-.62,1.37l-1.64.96v5.88c3.55.09,6.4,1.55,8.54,4.38h10.66v-4.1h-11.62l-1.91-3.83h13.54v-10.12l11.42,2.46c.55.09.93.46,1.16,1.09.09.64-.05,1.14-.41,1.5l-2.26,1.78v3.28h5.47l2.87-4.51c.23-.36.5-.55.82-.55.27-.09.62-.04,1.03.14l5.13,5.33c.68.55.82,1.28.41,2.19-.32.82-.93,1.23-1.85,1.23h-13.88v4.1h5.33l2.32-3.14c.18-.27.5-.46.96-.55.46,0,.82.14,1.09.41l3.96,4.38c.41.37.52.87.34,1.5-.27.64-.73.96-1.37.96h-12.65v5.47h7.59l2.87-3.69c.41-.46.89-.73,1.44-.82.64-.09,1.18.05,1.64.41l4.24,4.79c.41.64.48,1.28.21,1.91-.27.64-.78,1-1.5,1.09h-40.26l-1.44-3.69h15.31v-5.47h-9.09c.14.82.04,1.55-.27,2.19-.64,1.09-1.56,1.85-2.77,2.26-1.21.41-2.38.34-3.52-.21-.82-.36-1.46-.96-1.91-1.78-.32-.91-.46-1.78-.41-2.6.23-2-.18-3.87-1.23-5.61v48.95c0,.55-.16.98-.48,1.3-.32.32-.71.52-1.16.62l-5.06.27c-.55,0-.98-.14-1.3-.41-.37-.37-.55-.73-.55-1.09V9.37ZM35,39.86l9.71,2.6h13.88l1.85-2.05c.82-1,1.8-1.14,2.94-.41l6.43,4.65c.32.18.48.46.48.82s-.11.68-.34.96l-1.57,1.64v18.87c0,1.46-.41,2.73-1.23,3.83-2.14,2.83-4.95,4.38-8.41,4.65-1.32.09-2.35-.41-3.08-1.5-1.73-2.83-4.01-4.92-6.84-6.29,2.32,0,4.51.18,6.56.55.68.09,1.32-.07,1.91-.48.59-.41.93-.98,1.03-1.71v-5.33h-13.26v12.44c0,.91-.46,1.5-1.37,1.78l-6.36.82c-.68,0-1.23-.23-1.64-.68-.46-.37-.68-.87-.68-1.5v-33.63ZM45.05,46.14v3.28h13.26v-3.28h-13.26ZM45.05,53.25v3.42h13.26v-3.42h-13.26Z"/>
        <path class="cls-3" d="M80.87,17.98h10.12v-9.3l10.94,2.8c.59.14.89.5.89,1.09s-.25,1-.75,1.23l-1.85.89v3.28h1.57l1.44-2.73c.18-.27.48-.41.89-.41.23,0,.5.11.82.34l5.47,5.06c.32.23.39.52.21.89-.14.37-.39.55-.75.55h-9.64v3.76h1.57l2.6-2.46c.55-.64,1.12-.64,1.71,0l2.67,2.46,6.02-.96V8l11.07,3.01c.5.23.8.64.89,1.23,0,.59-.25,1-.75,1.23l-1.98,1.44v7.79l1.85-.34,1.85-2.67c.5-.46,1.05-.5,1.64-.14l6.97,5.61c.46.55.43,1.07-.07,1.57l-2.12,1.78v17.91c0,.64.3,1.09.89,1.37.68.27,1.37.27,2.05,0,.41-.23.68-.52.82-.89l1.98-11.83,1.16,7.25c.27,1.5.93,2.89,1.98,4.17.46.68.8,1.44,1.03,2.26.18,1.05.02,2.07-.48,3.08-.5,1-1.25,1.73-2.26,2.19-3.96,1.28-7.93,1.32-11.89.14-2.14-.77-3.26-2.28-3.35-4.51v-5.95c-1,.91-2.23,1.3-3.69,1.16-1.37-.27-2.42-1.03-3.14-2.26-3.96,6.24-9.48,10.53-16.54,12.85,4.83,3.14,7.36,7.57,7.59,13.26.04,1.46-.49,2.73-1.61,3.83-1.12,1.09-2.4,1.62-3.86,1.57-1.46-.05-2.71-.64-3.76-1.78-1.05-1.14-1.53-2.46-1.44-3.96,1.28-5.1,1.14-10.16-.41-15.18l1.85,1.16c2.87-2.19,5.24-4.58,7.11-7.18l-19.76,8.75-.62,1.91c-.23.59-.59.96-1.09,1.09-.64.14-1.14.02-1.5-.34l-6.43-9.23,12.24-1.78v-3.76h-6.7l-1.85-2.73c-1.28.5-2.6.93-3.96,1.3,3.37-3.46,5.88-7.56,7.52-12.3h-5.47l-2.53-4.79h12.99v-3.62h-8.27l-1.85-3.69ZM93.65,55.1c2.19,5.88,1.78,11.51-1.23,16.88-1.5,1.87-3.4,2.55-5.67,2.05-1.05-.23-1.95-.74-2.7-1.54-.75-.8-1.24-1.72-1.47-2.77-.37-2.42.43-4.26,2.39-5.54,3.74-2.19,6.63-5.22,8.68-9.09ZM90.98,40.33v-5.06c-2.14,2.05-4.44,3.74-6.9,5.06h6.9ZM94.67,30.08c-.09.14-.25.4-.48.79-.23.39-.39.67-.48.85l8.07,3.21c.27.14.46.41.55.82,0,.37-.14.64-.41.82l-1.71,1.44v2.32h1.91l1.98-3.42c-.27-.36-.43-.73-.48-1.09-.59-2.05-1.57-3.96-2.94-5.74h-6.02ZM100.21,43.82v2.32l9.5-1.3c2-3.28,3.37-6.65,4.1-10.12-1.73-1.73-3.69-3.28-5.88-4.65h-1.91c1.46.59,2.83,1.46,4.1,2.6,1.05,1.05,1.32,2.3.82,3.76-.46,1.5-1.46,2.32-3.01,2.46l2.32,3.08c.23.37.27.73.14,1.09-.18.46-.5.71-.96.75h-9.23ZM114.77,28.64l-3.49.68c-.09.27-.3.52-.62.75,1.41.09,2.71.3,3.9.62l.21-2.05ZM112.31,54.62c3.19,1.28,5.9,3.17,8.13,5.67,2.23,2.51,3.83,5.4,4.79,8.68.46,2.1-.25,3.78-2.12,5.06-1.82,1.28-3.65,1.3-5.47.07-1.91-1.19-2.69-2.85-2.32-4.99.55-5.2-.46-10.03-3.01-14.49ZM124.07,26.87c-.09,2.6-.5,5.04-1.23,7.31,1.14.68,2.21,1.55,3.21,2.6v-10.25l-1.98.34ZM123.8,54.07c3.55.46,6.77,1.79,9.64,4,2.87,2.21,4.99,4.96,6.36,8.24.77,2.37.25,4.35-1.57,5.95-1.82,1.59-3.85,1.87-6.08.82-2.14-1.09-3.14-2.87-3.01-5.33-.14-5.2-1.91-9.75-5.33-13.67Z"/>
        <path class="cls-3" d="M180.53,24.41c4.28,7.47,5.29,15.36,3.01,23.65-.91,4.24-2.71,8.03-5.4,11.38-2.69,3.35-6.02,5.87-9.98,7.55-1.46.73-2.89.8-4.31.21-2.55-1.32-3.96-3.42-4.24-6.29-2.28-.23-4.25-1.07-5.91-2.53-1.66-1.46-2.79-3.28-3.38-5.47-.96-4.56-.32-8.91,1.91-13.06,2.37-4.79,5.64-8.84,9.81-12.17,4.17-3.33,8.88-5.58,14.12-6.77,7.79-2.14,15.27-1.41,22.42,2.19,3.51,1.64,6.48,3.91,8.92,6.8,2.44,2.89,4.14,6.21,5.09,9.95,1.05,4.1.98,8.15-.21,12.13-1.19,3.99-3.35,7.42-6.49,10.29-3.83,3.55-8.2,6.12-13.12,7.69s-9.98,2.08-15.18,1.54c5.42-1.73,10.15-4.57,14.18-8.51,4.03-3.94,6.96-8.62,8.78-14.05.96-3.24,1.14-6.48.55-9.74-.59-3.26-1.94-6.23-4.03-8.92-2.14-2.32-4.66-4-7.55-5.02-2.89-1.03-5.89-1.31-8.99-.85ZM174.52,26.12c-7.43,4.88-12.12,11.69-14.08,20.44-.96,3.87-.48,7.52,1.44,10.94.55.55,1.21.88,1.98.99.77.11,1.46-.15,2.05-.79,4.15-4.19,6.97-9.08,8.48-14.66,1.5-5.58,1.55-11.22.14-16.92Z"/>
        <path class="cls-3" d="M245.41,8.68l12.44,2.94c.64.23,1,.68,1.09,1.37.09.64-.18,1.19-.82,1.64l-1.5.75c.27,3.69-.23,7.31-1.5,10.87,5.38-3.05,9.66-7.25,12.85-12.58l9.43,8.07c.36.37.46.8.27,1.3-.27.55-.68.78-1.23.68l-2.05-.41c-6.56,2.73-13.31,4.44-20.23,5.13l-.55,1.03c8.84.68,17,3.28,24.47,7.79,1.09.82,1.78,1.87,2.05,3.14.27,1.28.04,2.48-.68,3.62-.64,1.14-1.62,1.9-2.94,2.29-1.32.39-2.58.26-3.76-.38-.73-.46-1.32-1-1.78-1.64-5.2-5.74-11.26-10.16-18.18-13.26-1.19,1.82-2.64,3.44-4.38,4.85l8.61,3.14c.55.27.82.72.82,1.33s-.27,1.06-.82,1.33l-1.5,1.03c-.09,2.42-.41,4.58-.96,6.49.09.32.59,1.23,1.5,2.73,3.46-3.37,6.15-7.18,8.07-11.42l8.75,7.93c.46.41.55.88.27,1.4-.27.52-.68.79-1.23.79l-2.73-.48-11.48,4.17c7.29,7.06,16,11.35,26.11,12.85-4.56,1.96-8.61,4.53-12.17,7.72-8.2-5.15-14.4-12.19-18.59-21.12-3.1,6.7-7.79,11.95-14.08,15.76s-13.12,5.48-20.51,5.02c6.65-1.09,12.33-4.06,17.02-8.89,4.69-4.83,7.54-10.6,8.54-17.29v-9.57c-7.84,3.74-16.13,5.99-24.88,6.77,6.47-2.28,12.76-5.33,18.87-9.16,2.46-1.82,4.33-4.09,5.61-6.8,1.28-2.71,1.87-5.57,1.78-8.58v-12.37ZM237.2,42.79c1,2.42,1.37,4.92,1.09,7.52s-1.14,4.97-2.6,7.11c-.82,1.05-1.89,1.7-3.21,1.95-1.32.25-2.53.06-3.62-.58-1.09-.73-1.85-1.72-2.26-2.97-.41-1.25-.3-2.5.34-3.73.64-1.23,1.59-2.05,2.87-2.46,3.1-1.5,5.56-3.78,7.38-6.84ZM234.06,16.75c1.73,2.14,2.78,4.55,3.14,7.21.36,2.67,0,5.25-1.09,7.76-.55,1.05-1.34,1.8-2.39,2.26-1.05.46-2.17.57-3.35.34-1.09-.27-2.01-.85-2.73-1.74-.73-.89-1.09-1.9-1.09-3.04.09-1.59.73-2.87,1.91-3.83,3.28-2.14,5.15-5.13,5.61-8.96Z"/>
        <path class="cls-3" d="M302.83,44.23c-1.32,3.19-1.64,6.45-.96,9.78.59,2.55,1.98,4.51,4.17,5.88,3.65,2.01,7.47,2.62,11.48,1.85l20.1-4.51c3.65-.59,6.81.37,9.5,2.87,1,.96,1.46,2.1,1.37,3.42-.14,1.46-.75,2.53-1.85,3.21-12.81,5.88-26.07,7.25-39.79,4.1-4.19-1.09-7.59-3.42-10.19-6.97-2.42-3.05-2.92-6.4-1.5-10.05,1.59-4.01,4.15-7.2,7.66-9.57ZM298.52,17.57c4.88,1.82,9.82,2.03,14.83.62,6.56-2.6,13.12-4.49,19.69-5.67,1.5-.14,3.03.16,4.58.89,1.41.68,2.54,1.69,3.38,3.01.84,1.32,1.29,2.78,1.33,4.38.04.73-.16,1.4-.62,2.02-.46.62-1.07.97-1.85,1.06-9.98,1.55-19.37,4.69-28.16,9.43,1.14-2.42,2.78-4.51,4.92-6.29-3.6,0-7-.83-10.19-2.5-3.19-1.66-5.83-3.98-7.93-6.94Z"/>
        <path class="cls-3" d="M370.03,14.97c2.6,1.82,5.47,2.6,8.61,2.32,6.52-1.18,12.9-3.1,19.14-5.74.77-.5,1.48-.41,2.12.27l7.11,5.4c1.28,1.14,2.03,2.58,2.26,4.31.14.78-.18,1.37-.96,1.78l-5.33,1.23c-8.8,5.61-17.55,11.78-26.25,18.53,10.25-4.97,21.03-8.82,32.33-11.55,2.42-.41,4.81-.02,7.18,1.16,2,1.09,2.96,2.8,2.87,5.13-.27,1.19-.88,2.17-1.81,2.94-.93.78-1.97,1.19-3.11,1.23l-8.89.75c-3.92.23-7.27,1.8-10.05,4.72-2.78,2.92-4.22,6.33-4.31,10.25-.05,1.6.46,3,1.5,4.2,1.05,1.21,2.39,1.93,4.03,2.15,3.55.05,7.06-.64,10.53-2.05,3.1-.36,5.83.48,8.2,2.53.87.73,1.25,1.63,1.16,2.7-.09,1.07-.55,1.95-1.37,2.63-6.02,3.96-12.53,4.97-19.55,3.01-2.64-.68-4.95-1.94-6.9-3.76-1.96-1.82-3.37-4.01-4.24-6.56-1.23-3.28-1.22-6.56.03-9.84,1.25-3.28,3.45-5.7,6.6-7.25-4.06,1.19-7.91,2.99-11.55,5.4-.55.37-1.03.82-1.44,1.37-.64.96-1.47,1.63-2.5,2.02-1.03.39-2.06.42-3.11.1-4.69-1.5-8.11-4.44-10.25-8.82,3.46.14,6.45-.91,8.96-3.14l24.61-24.61c-5.01,1.91-9.5,4.72-13.47,8.41-.14,1.14-.71,1.96-1.71,2.46-.91.59-1.89.68-2.94.27-2.83-.96-4.98-2.8-6.46-5.54-1.48-2.73-1.83-5.54-1.06-8.41Z"/>
        <path class="cls-3" d="M437.91,9.98l9.71,4.85c.46.27.59.66.41,1.16-.27.46-.64.68-1.09.68l-1.78.48-7.11,8.27c1.37,1.41,2.32,3.1,2.87,5.06l5.88-12.24,8.89,6.15c.18.32.27.59.27.82-.09.27-.27.48-.55.62l-.82.82h12.44V8.62l12.44,3.49c.36,0,.64.18.82.55.09.27.04.57-.14.89l-2.6,2.94v10.19h5.06l3.01-4.99c.27-.41.64-.64,1.09-.68.36-.09.73.02,1.09.34l6.15,6.97c.36.41.36.91,0,1.5-.18.5-.59.75-1.23.75h-15.18v10.05h4.24l2.73-4.65c.18-.36.5-.59.96-.68.46-.04.82.09,1.09.41l5.61,6.49c.36.41.46.89.27,1.44-.18.55-.55.87-1.09.96h-34.86c-.27.96-.87,1.71-1.78,2.26-.91.55-1.82.71-2.73.48-1.73-.27-2.83-1.25-3.28-2.94l-1.37.41v5.81c2.1.32,4.01,1.14,5.74,2.46,1.73,1.32,3.01,3.01,3.83,5.06v-11.21l9.98,2.46h12.03l2.19-2.87c.55-.68,1.18-.8,1.91-.34l7.38,4.79c.36.23.5.55.41.96.09.5-.05.87-.41,1.09l-1.37,1.23v17.98c0,1.09-.55,1.8-1.64,2.12l-6.43.96c-.73-.05-1.34-.31-1.85-.79-.5-.48-.75-1.08-.75-1.81v-1.03h-10.94v1.03c0,.46-.14.87-.41,1.23-.27.32-.59.5-.96.55l-6.15.89c-.82,0-1.5-.25-2.05-.75-.64-.59-.96-1.28-.96-2.05v-11.48c-.27.73-.68,1.32-1.23,1.78-.55.46-1.23.71-2.05.75-1.37.23-2.55-.18-3.55-1.23-.91-1.09-1.19-2.32-.82-3.69,0-2.14-.64-4.08-1.91-5.81v19c0,1-.5,1.71-1.5,2.12l-4.92,1.3c-.55.04-1.09-.11-1.64-.48-.55-.46-.82-.98-.82-1.57v-17.09l-1.09.34c-.37,6.38-3.1,11.55-8.2,15.52,2.19-6.84,2.69-13.92,1.5-21.26l7.79,2.67v-6.02l-4.92,1.3-.27.48c0,.46-.23.68-.68.68-.37.14-.64,0-.82-.41l-3.96-8.41,8.2-.41,2.6-5.26c-2.01.82-3.74.37-5.2-1.37-.91-1.28-1.19-2.67-.82-4.17.18-1.78-.07-3.47-.75-5.09-.68-1.62-1.75-2.95-3.21-4,2.55.32,4.92,1.21,7.11,2.67,1.28-4.42,2-8.89,2.19-13.4ZM445.15,35.62l-5.06,4.79,7.93-.34c-.64-1.73-1.6-3.21-2.87-4.44ZM452.67,28.37l-5.33,5.06c1.91.46,3.65,1.31,5.2,2.56,1.55,1.25,2.73,2.79,3.55,4.61h10.94v-10.05h-12.99l-1.37-2.19ZM467.44,53.39v14.56h10.94v-14.56h-10.94Z"/>
        <path class="cls-3" d="M507.09,10.26l10.94,2.73h27.62l1.5-2.67c.36-.46.73-.71,1.09-.75.46-.14.87-.07,1.23.21l8.34,4.99c.36.23.59.57.68,1.03,0,.5-.18.89-.55,1.16l-2.19,1.71v19.76c0,.55-.14.98-.41,1.3l6.84,5.88c.55.59.73,1.23.55,1.91-.27.78-.78,1.21-1.5,1.3h-23.65c8.11,6.61,17.45,10.87,28.03,12.78-3.55,1.96-6.84,4.49-9.84,7.59-7.47-3.83-13.76-9.23-18.87-16.2v18.12c0,.59-.27,1.05-.82,1.37l-8.07,1.98c-.55.09-1,0-1.37-.27-.46-.32-.68-.73-.68-1.23v-14.7c-9.3,5.01-19.05,8.73-29.26,11.14,9.75-4.65,17.59-11.51,23.52-20.58h-18.59l-1.64-3.42h25.98v-5.13h-7.25v.89c0,.59-.32.98-.96,1.16l-8.89,1.09c-.46.05-.87-.07-1.23-.34-.37-.27-.55-.64-.55-1.09V10.26ZM518.71,16.75v8.07h7.25v-8.07h-7.25ZM518.71,28.78v7.86h7.25v-7.86h-7.25ZM536.89,16.75v8.07h7.52v-8.07h-7.52ZM536.89,28.78v7.86h7.52v-7.86h-7.52ZM536.89,40.27v5.13h12.17l2.73-4.03-6.02.89c-.27,0-.59-.11-.96-.34-.27-.27-.41-.62-.41-1.03v-.62h-7.52Z"/>
        <path class="cls-3" d="M600.53,24.41c4.28,7.47,5.29,15.36,3.01,23.65-.91,4.24-2.71,8.03-5.4,11.38-2.69,3.35-6.02,5.87-9.98,7.55-1.46.73-2.89.8-4.31.21-2.55-1.32-3.96-3.42-4.24-6.29-2.28-.23-4.25-1.07-5.91-2.53-1.66-1.46-2.79-3.28-3.38-5.47-.96-4.56-.32-8.91,1.91-13.06,2.37-4.79,5.64-8.84,9.81-12.17,4.17-3.33,8.88-5.58,14.12-6.77,7.79-2.14,15.27-1.41,22.42,2.19,3.51,1.64,6.48,3.91,8.92,6.8,2.44,2.89,4.14,6.21,5.09,9.95,1.05,4.1.98,8.15-.21,12.13-1.19,3.99-3.35,7.42-6.49,10.29-3.83,3.55-8.2,6.12-13.12,7.69s-9.98,2.08-15.18,1.54c5.42-1.73,10.15-4.57,14.18-8.51,4.03-3.94,6.96-8.62,8.78-14.05.96-3.24,1.14-6.48.55-9.74-.59-3.26-1.94-6.23-4.03-8.92-2.14-2.32-4.66-4-7.55-5.02-2.89-1.03-5.89-1.31-8.99-.85ZM594.52,26.12c-7.43,4.88-12.12,11.69-14.08,20.44-.96,3.87-.48,7.52,1.44,10.94.55.55,1.21.88,1.98.99.77.11,1.46-.15,2.05-.79,4.15-4.19,6.97-9.08,8.48-14.66,1.5-5.58,1.55-11.22.14-16.92Z"/>
        <path class="cls-3" d="M646.81,8.82l10.53,3.96c.46.14.73.43.82.89.09.41-.09.8-.55,1.16l-2.05,1.37v10.8h.96l3.14-4.85c.46-.5.96-.52,1.5-.07l5.33,6.08v-14.56h21.6l2.19-3.08c.18-.32.46-.52.82-.62.27-.04.59.02.96.21l7.66,5.2c.36.23.55.57.55,1.03,0,.5-.23.82-.68.96l-1.91,1.3v20.37c0,1.55-.78,2.6-2.32,3.14l6.02,5.47c.46.32.55.68.27,1.09-.18.46-.55.64-1.09.55h-1.91l-11.89,4.31c4.74,6.11,10.89,9.89,18.46,11.35-3.83,1.73-7.11,4.12-9.84,7.18-3.19-2.64-5.92-5.47-8.2-8.48-6.29,2.96-12.12,6.06-17.5,9.3l-.41,1.57c-.09.32-.32.52-.68.62-.37.04-.68-.09-.96-.41l-8.34-11.21,7.25-.48V29.88c-.27.27-.64.46-1.09.55h-9.84v3.21c2.28.37,4.35,1.23,6.22,2.6,1.87,1.37,3.26,3.12,4.17,5.26.64,1.23.59,2.48-.14,3.76-.73,1.23-1.78,1.91-3.14,2.05-1.37.09-2.51-.34-3.42-1.3-.91-.96-1.28-2.07-1.09-3.35.18-2.51-.68-4.58-2.6-6.22v35.41c0,.91-.46,1.48-1.37,1.71l-5.06,1.23c-.64,0-1.21-.25-1.71-.75s-.71-1.12-.62-1.85v-21.4c-2.73,3.74-5.97,6.93-9.71,9.57,5.01-9.52,7.97-19.5,8.89-29.94h-6.97l-1.37-3.42h9.16V8.82ZM676.76,17.16v8.41h10.25v-8.41h-10.25ZM676.76,28.99v8.41h10.25v-8.41h-10.25ZM676.76,41.09v21.05l8.89-.68c-4.01-6.24-6.29-13.03-6.84-20.37h-2.05ZM681.4,41.09c.55,3.6,1.78,6.88,3.69,9.84,2.37-2.51,4.28-5.31,5.74-8.41l-1.91.21c-.55,0-1-.16-1.37-.48-.37-.32-.55-.71-.55-1.16h-5.61Z"/>
        <path class="cls-3" d="M727.48,11.21l9.98,2.87h24.47l3.42-4.03c.64-.77,1.41-.91,2.32-.41l6.56,6.22c.27.37.34.73.21,1.09-.14.37-.39.64-.75.82h-13.67l-6.56,6.63h7.52l2.05-2.32c.55-.68,1.18-.8,1.91-.34l7.38,4.51c.27.27.46.59.55.96,0,.37-.14.66-.41.89l-2.05,1.64v15.24c0,1.37-.68,2.17-2.05,2.39l-5.88,1.16c-.46.05-.89-.09-1.3-.41-.41-.32-.66-.75-.75-1.3v-.68h-1.5v19.76c-.18,2.42-1.19,4.5-3.01,6.25-1.82,1.75-3.96,2.68-6.43,2.77-1.37.09-2.42-.48-3.14-1.71-1.91-3.37-4.42-5.95-7.52-7.72l7.79.82c.73,0,1.37-.24,1.91-.72s.87-1.08.96-1.81v-17.64h-.55v.68c0,.32-.14.59-.41.82-.27.18-.59.27-.96.27l-6.97.48c-.46-.04-.84-.22-1.16-.51-.32-.3-.43-.67-.34-1.13v-25.09l10.12,2.73.41-6.63h-12.44v20.3c-.46,6.43-2.05,12.48-4.79,18.15s-6.47,10.68-11.21,15c-.82,1.18-1.98,1.91-3.49,2.19s-2.85,0-4.03-.82c-1.28-.82-2.07-1.97-2.39-3.45-.32-1.48-.07-2.84.75-4.07.55-1.46.62-2.93.21-4.41-.41-1.48-1.25-2.68-2.53-3.59l-2.46-1.09c2.46-.87,4.38-2.35,5.74-4.44l14.49-28.85v-11.48ZM708.2,24.75c4.65.23,8.52,2.05,11.62,5.47,1,1.46,1.18,2.97.55,4.55-.64,1.57-1.82,2.5-3.55,2.77-1.37.23-2.51-.04-3.42-.82-1.09-.77-1.73-1.8-1.91-3.08-.27-3.28-1.37-6.24-3.28-8.89ZM712.3,11.35c4.38-.09,8.38,1.25,12.03,4.03,1.28,1.05,1.82,2.44,1.64,4.17-.18,1.69-1.05,2.89-2.6,3.62-1.28.59-2.6.62-3.96.07-1.28-.64-2.14-1.64-2.6-3.01-.82-3.37-2.32-6.33-4.51-8.89ZM727.48,26.25l-7.66,29.74c-.64,3.24-.14,6.29,1.5,9.16.64.91.96,1.89.96,2.94,3.01-6.84,4.74-13.99,5.2-21.46v-20.37ZM738.14,50.25l8.75,3.42c.55.23.82.66.82,1.3s-.32,1.05-.96,1.23l-2.73.55c-4.47,6.11-10.16,10.8-17.09,14.08,5.1-6.15,8.84-13.01,11.21-20.58ZM748.94,28.03v5.33h11.48v-5.33h-11.48ZM748.94,36.92v5.67h11.48v-5.67h-11.48ZM759.2,49.77c6.47,1.19,11.26,4.65,14.36,10.39,1,1.73.96,3.46-.14,5.2-1,1.73-2.46,2.6-4.38,2.6-1.46.05-2.71-.43-3.76-1.44-1.05-1-1.62-2.21-1.71-3.62-.46-4.51-1.91-8.89-4.38-13.12Z"/>
      </g>
    </g>
  </g>
</svg>