<?xml version="1.0" encoding="UTF-8"?>
<svg id="_レイヤー_2" data-name="レイヤー 2" xmlns="http://www.w3.org/2000/svg" xmlns:xlink="http://www.w3.org/1999/xlink" viewBox="0 0 545.93 88.2">
  <defs>
    <style>
      .cls-1 {
        fill: url(#_名称未設定グラデーション_120-5);
      }

      .cls-2 {
        fill: url(#_名称未設定グラデーション_120-6);
      }

      .cls-3 {
        fill: none;
        stroke: #000;
        stroke-miterlimit: 2;
        stroke-width: 10px;
      }

      .cls-4 {
        fill: #fff;
      }

      .cls-5 {
        fill: url(#_名称未設定グラデーション_120-4);
      }

      .cls-6 {
        fill: url(#_名称未設定グラデーション_120-2);
      }

      .cls-7 {
        fill: url(#_名称未設定グラデーション_120-3);
      }

      .cls-8 {
        fill: url(#_名称未設定グラデーション_120);
      }

      .cls-9 {
        fill: url(#_名称未設定グラデーション_120-7);
      }
    </style>
    <linearGradient id="_名称未設定グラデーション_120" data-name="名称未設定グラデーション 120" x1="46.86" y1="88.2" x2="46.86" y2="0" gradientUnits="userSpaceOnUse">
      <stop offset="0" stop-color="#945700"/>
      <stop offset=".19" stop-color="#e9a900"/>
      <stop offset=".29" stop-color="#f5f8b4"/>
      <stop offset=".4" stop-color="#e9a900"/>
      <stop offset="1" stop-color="#fff87f"/>
    </linearGradient>
    <linearGradient id="_名称未設定グラデーション_120-2" data-name="名称未設定グラデーション 120" x1="130.48" x2="130.48" xlink:href="#_名称未設定グラデーション_120"/>
    <linearGradient id="_名称未設定グラデーション_120-3" data-name="名称未設定グラデーション 120" x1="206.22" x2="206.22" xlink:href="#_名称未設定グラデーション_120"/>
    <linearGradient id="_名称未設定グラデーション_120-4" data-name="名称未設定グラデーション 120" x1="275.27" x2="275.27" xlink:href="#_名称未設定グラデーション_120"/>
    <linearGradient id="_名称未設定グラデーション_120-5" data-name="名称未設定グラデーション 120" x1="345.2" x2="345.2" xlink:href="#_名称未設定グラデーション_120"/>
    <linearGradient id="_名称未設定グラデーション_120-6" data-name="名称未設定グラデーション 120" x1="416.88" x2="416.88" xlink:href="#_名称未設定グラデーション_120"/>
    <linearGradient id="_名称未設定グラデーション_120-7" data-name="名称未設定グラデーション 120" x1="499.06" x2="499.06" xlink:href="#_名称未設定グラデーション_120"/>
  </defs>
  <g id="_レイヤー_1-2" data-name="レイヤー 1">
    <g>
      <g>
        <path class="cls-4" d="M12,51.84v-8.48h69.73v8.48H12Z"/>
        <path class="cls-4" d="M114.34,15.01l10.71.91c-.7,3.78-1.28,6.79-1.75,9.03,7-.56,12.88-1.14,17.64-1.75l.91,9.59c-7.14.84-14.05,1.49-20.72,1.96-3.22,13.81-7.3,27.63-12.25,41.44l-10.43-3.01c4.67-13.07,8.49-25.67,11.48-37.8-2.24.09-5.65.19-10.22.28v-9.52c2.57-.05,6.72-.21,12.46-.49.65-2.99,1.38-6.53,2.17-10.64ZM154.52,62.96l1.26,9.59c-4.53,1.31-9.22,1.96-14.07,1.96-6.77,0-11.64-.91-14.63-2.73-2.99-1.82-4.48-4.53-4.48-8.12,0-2.01.58-4.15,1.75-6.44,1.17-2.29,2.78-4.34,4.83-6.16l8.33,4.48c-2.57,2.61-3.85,4.62-3.85,6.02,0,1.21.59,2.09,1.79,2.62,1.19.54,3.28.8,6.26.8,3.17,0,7.44-.68,12.81-2.03ZM127.22,38.95c8.59-1.49,17.38-2.24,26.39-2.24v9.59c-8.54,0-17.01.75-25.41,2.24l-.98-9.59ZM151.72,23.34l-6.58,3.15c-1.49-3.08-3.27-6.46-5.32-10.15l6.58-3.29c1.91,3.59,3.69,7.02,5.32,10.29ZM162.5,22.5l-6.72,3.22c-2.52-4.85-4.34-8.31-5.46-10.36l6.72-3.36c2.15,3.92,3.97,7.42,5.46,10.5Z"/>
        <path class="cls-4" d="M188.54,29.29c.93-4.57,1.7-9.36,2.31-14.35l10.01.84c-.61,4.95-1.26,9.24-1.96,12.88.7-.05,1.59-.07,2.66-.07,2.61,0,4.67.05,6.16.14,1.49.09,2.91.37,4.24.84,1.33.47,2.29,1.03,2.87,1.68.58.65,1.1,1.7,1.54,3.15.44,1.45.71,3.01.8,4.69.09,1.68.14,3.97.14,6.86,0,9.33-1.4,16.45-4.2,21.35-2.8,4.9-6.25,7.35-10.36,7.35-3.17,0-7.37-1.52-12.6-4.55l3.85-8.75c3.41,2.01,5.69,3.01,6.86,3.01.7,0,1.35-.37,1.96-1.12.61-.75,1.18-1.9,1.71-3.46.54-1.56.97-3.73,1.29-6.51.33-2.78.49-5.99.49-9.62,0-2.43-.29-3.96-.88-4.58-.58-.63-1.97-.95-4.17-.95-.93,0-2.43.07-4.48.21-2.85,11.67-7.23,23.89-13.16,36.68l-9.1-3.92c5.13-10.92,9.05-21.58,11.76-31.99-2.75.23-5.74.51-8.96.84l-.63-9.52c7.56-.7,11.5-1.07,11.83-1.12ZM216.89,27.4l10.08-3.22c4.34,11.06,7.98,22.61,10.92,34.65l-10.15,2.59c-2.85-11.71-6.46-23.05-10.85-34.02Z"/>
        <path class="cls-4" d="M253.71,31.81l10.78.91c-.47,2.89-1.24,6.98-2.31,12.25l.14.07c6.25-4.01,12.81-6.02,19.67-6.02,5.69,0,10.21,1.49,13.54,4.48,3.34,2.99,5,7,5,12.04,0,5.79-2.4,10.42-7.21,13.9-4.81,3.48-11.55,5.21-20.23,5.21-5.41,0-10.71-.47-15.89-1.4l1.19-10.15c5.04.93,10.03,1.4,14.98,1.4s9.01-.79,11.62-2.38c2.61-1.59,3.92-3.78,3.92-6.58,0-2.01-.69-3.57-2.06-4.69-1.38-1.12-3.4-1.68-6.06-1.68-2.85,0-5.68.47-8.5,1.4-2.82.93-6.59,2.64-11.3,5.11l-10.99-2.17c1.68-8.77,2.92-16.01,3.71-21.7ZM258.33,26.63l2.24-9.24c11.06,3.08,22.05,4.69,32.97,4.83v9.52c-12.51-.14-24.24-1.84-35.21-5.11Z"/>
        <path class="cls-4" d="M369.42,60.58l1.82,10.43c-8.45,2.29-16.19,3.43-23.24,3.43-9.71,0-16.94-1.4-21.7-4.2-4.76-2.8-7.14-6.74-7.14-11.83s4.18-11.48,12.53-18.48l7.98,6.72c-5.74,5.13-8.61,8.87-8.61,11.2,0,4.06,5.65,6.09,16.94,6.09,6.02,0,13.16-1.12,21.42-3.36ZM325.32,30.55l.63-10.15c8.4.98,16.29,1.47,23.66,1.47,6.44,0,11.48-.14,15.12-.42l.35,10.15c-4.99.28-10.15.42-15.47.42-8.45,0-16.54-.49-24.29-1.47Z"/>
        <path class="cls-4" d="M397.21,19.77c13.16,0,26.06-.61,38.71-1.82l1.33,10.71c-5.74,4.48-11.9,8.24-18.48,11.27l.07.14c9.29-.75,18.48-1.63,27.58-2.66l.63,9.45c-10.45.75-18.36,2.27-23.73,4.58-5.37,2.31-8.05,4.79-8.05,7.46,0,1.49.57,2.7,1.71,3.6,1.14.91,3.34,1.63,6.58,2.17,3.24.54,7.71.81,13.41.81l-.28,9.87c-11.99-.05-20.58-1.28-25.76-3.71-5.18-2.43-7.77-6.09-7.77-10.99,0-4.06,2.78-7.75,8.33-11.06l-.07-.14c-8.54.61-16.78,1-24.71,1.19v-9.1c6.63-.05,12.8-1.12,18.51-3.22,5.72-2.1,11.51-5.46,17.39-10.08v-.14c-8.87.84-17.34,1.26-25.41,1.26v-9.59Z"/>
        <path class="cls-4" d="M464.2,51.84v-8.48h69.73v8.48h-69.73Z"/>
      </g>
      <g>
        <rect class="cls-8" y="31.36" width="93.73" height="32.48" rx="12" ry="12"/>
        <path class="cls-6" d="M108.88,88.2c-1.1,0-2.22-.15-3.33-.47l-10.43-3.01c-3.18-.92-5.84-3.11-7.35-6.06-1.51-2.95-1.73-6.39-.62-9.51,2.75-7.7,5.21-15.28,7.37-22.67-1.17-.56-2.26-1.32-3.21-2.25-2.3-2.26-3.6-5.35-3.6-8.57v-9.52c0-6.54,5.24-11.88,11.79-12,.77-.01,1.7-.04,2.8-.08.09-.44.17-.88.26-1.33,1.1-5.68,6.08-9.72,11.77-9.72.34,0,.68.01,1.03.04l10.71.91c2.46.21,4.77,1.17,6.64,2.71.55-.4,1.13-.76,1.75-1.07l6.58-3.29c1.72-.86,3.55-1.27,5.36-1.27,1.44,0,2.86.26,4.2.76l1.08-.54c1.72-.86,3.55-1.27,5.36-1.27,4.25,0,8.36,2.27,10.53,6.24,2.23,4.06,4.15,7.77,5.73,11.03,1.39,2.87,1.58,6.18.53,9.2s-3.26,5.48-6.14,6.86l-2.29,1.1c.14.74.22,1.51.22,2.29v9.59c0,3.01-1.11,5.75-2.93,7.86,2.04,1.89,3.37,4.44,3.74,7.24l1.26,9.59c.77,5.88-2.87,11.45-8.57,13.09-5.59,1.61-11.44,2.43-17.4,2.43-9.22,0-15.86-1.42-20.88-4.48-.38-.23-.74-.47-1.1-.71-2,4.25-6.28,6.88-10.85,6.88Z"/>
        <path class="cls-7" d="M183.63,87c-1.59,0-3.2-.32-4.74-.98l-9.1-3.92c-2.99-1.29-5.32-3.73-6.47-6.77-1.15-3.04-1.02-6.42.36-9.36,2.57-5.47,4.82-10.89,6.75-16.23-.29-.2-.57-.42-.84-.65-2.49-2.1-4.01-5.12-4.23-8.37l-.63-9.52c-.43-6.49,4.39-12.14,10.87-12.74.98-.09,1.88-.17,2.7-.25.23-1.55.44-3.13.64-4.72.74-6.07,5.89-10.55,11.9-10.55.34,0,.67.01,1.02.04l10.01.84c3.25.27,6.25,1.86,8.31,4.39,1.82,2.23,2.76,5.03,2.68,7.89.13-.04.25-.09.38-.13l10.08-3.22c1.21-.39,2.44-.57,3.65-.57,4.81,0,9.32,2.91,11.17,7.62,4.51,11.5,8.35,23.68,11.41,36.19,1.56,6.39-2.32,12.85-8.69,14.47l-10.15,2.59c-.98.25-1.97.37-2.97.37-1.34,0-2.67-.22-3.93-.66-.09.17-.18.33-.28.5-6.66,11.66-15.88,13.4-20.78,13.4-3.51,0-7.21-.81-11.33-2.51-2.17,1.84-4.94,2.86-7.79,2.86Z"/>
        <path class="cls-5" d="M273.1,86.65c-6.1,0-12.16-.54-18.02-1.59-6.24-1.12-10.53-6.91-9.79-13.21l.82-6.99c-5.58-1.9-9.04-7.67-7.9-13.61,1.63-8.51,2.84-15.61,3.61-21.1.5-3.57,2.52-6.57,5.34-8.4l1.74-7.19c.77-3.16,2.78-5.88,5.59-7.52,1.86-1.09,3.96-1.65,6.07-1.65,1.08,0,2.16.15,3.22.44,10.01,2.79,20.07,4.26,29.9,4.39,6.57.08,11.85,5.43,11.85,12v9.52c0,1.4-.24,2.77-.71,4.06,5.05,5.15,7.71,11.94,7.71,19.74,0,9.69-4.21,17.86-12.18,23.62-6.88,4.97-16.05,7.49-27.26,7.49Z"/>
        <path class="cls-1" d="M348,86.44c-11.99,0-21.08-1.92-27.78-5.86-8.42-4.95-13.06-12.83-13.06-22.17,0-6.69,2.95-13.34,8.97-20.14-1.92-2.28-2.99-5.27-2.79-8.46l.63-10.15c.2-3.29,1.75-6.35,4.28-8.46,2.17-1.81,4.9-2.79,7.7-2.79.46,0,.93.03,1.39.08,7.9.92,15.4,1.39,22.27,1.39,6.11,0,10.88-.13,14.2-.38.31-.02.62-.04.92-.04,2.94,0,5.79,1.08,8,3.06,2.44,2.18,3.88,5.26,3.99,8.53l.35,10.15c.22,6.52-4.81,12.03-11.32,12.39-4.65.26-9.47.41-14.37.43.18.8.28,1.62.29,2.46.03,1.89-.39,3.73-1.19,5.39,4.46-.27,9.76-1.23,15.8-2.87,1.03-.28,2.09-.42,3.14-.42,2.26,0,4.5.64,6.44,1.88,2.85,1.81,4.8,4.74,5.38,8.06l1.82,10.43c1.07,6.11-2.7,12.03-8.69,13.65-9.43,2.55-18.31,3.85-26.38,3.85Z"/>
        <path class="cls-2" d="M436.64,87.35c-14.08-.06-23.87-1.59-30.8-4.84-8.71-4.08-13.96-11.3-14.61-19.99-1.42.05-2.84.09-4.24.12-.09,0-.19,0-.28,0-3.13,0-6.14-1.22-8.38-3.42-2.31-2.26-3.62-5.35-3.62-8.58v-9.1c0-6.12,4.58-11.17,10.5-11.91,0-.09,0-9.86,0-9.86,0-6.63,5.37-12,12-12,12.72,0,25.36-.59,37.56-1.77.39-.04.78-.06,1.16-.06,5.99,0,11.14,4.46,11.9,10.52l1.14,9.21c1.87.41,3.64,1.26,5.14,2.52,2.52,2.1,4.06,5.14,4.28,8.41l.63,9.45c.44,6.59-4.53,12.3-11.12,12.77-.3.02-.61.04-.9.07,1.34,2.04,2.03,4.45,1.96,6.92l-.28,9.87c-.18,6.49-5.5,11.66-11.99,11.66h-.05Z"/>
        <rect class="cls-9" x="452.2" y="31.36" width="93.73" height="32.48" rx="12" ry="12"/>
      </g>
      <g>
        <path class="cls-3" d="M12,51.84v-8.48h69.73v8.48H12Z"/>
        <path class="cls-3" d="M114.34,15.01l10.71.91c-.7,3.78-1.28,6.79-1.75,9.03,7-.56,12.88-1.14,17.64-1.75l.91,9.59c-7.14.84-14.05,1.49-20.72,1.96-3.22,13.81-7.3,27.63-12.25,41.44l-10.43-3.01c4.67-13.07,8.49-25.67,11.48-37.8-2.24.09-5.65.19-10.22.28v-9.52c2.57-.05,6.72-.21,12.46-.49.65-2.99,1.38-6.53,2.17-10.64ZM154.52,62.96l1.26,9.59c-4.53,1.31-9.22,1.96-14.07,1.96-6.77,0-11.64-.91-14.63-2.73-2.99-1.82-4.48-4.53-4.48-8.12,0-2.01.58-4.15,1.75-6.44,1.17-2.29,2.78-4.34,4.83-6.16l8.33,4.48c-2.57,2.61-3.85,4.62-3.85,6.02,0,1.21.59,2.09,1.79,2.62,1.19.54,3.28.8,6.26.8,3.17,0,7.44-.68,12.81-2.03ZM127.22,38.95c8.59-1.49,17.38-2.24,26.39-2.24v9.59c-8.54,0-17.01.75-25.41,2.24l-.98-9.59ZM151.72,23.34l-6.58,3.15c-1.49-3.08-3.27-6.46-5.32-10.15l6.58-3.29c1.91,3.59,3.69,7.02,5.32,10.29ZM162.5,22.5l-6.72,3.22c-2.52-4.85-4.34-8.31-5.46-10.36l6.72-3.36c2.15,3.92,3.97,7.42,5.46,10.5Z"/>
        <path class="cls-3" d="M188.54,29.29c.93-4.57,1.7-9.36,2.31-14.35l10.01.84c-.61,4.95-1.26,9.24-1.96,12.88.7-.05,1.59-.07,2.66-.07,2.61,0,4.67.05,6.16.14,1.49.09,2.91.37,4.24.84,1.33.47,2.29,1.03,2.87,1.68.58.65,1.1,1.7,1.54,3.15.44,1.45.71,3.01.8,4.69.09,1.68.14,3.97.14,6.86,0,9.33-1.4,16.45-4.2,21.35-2.8,4.9-6.25,7.35-10.36,7.35-3.17,0-7.37-1.52-12.6-4.55l3.85-8.75c3.41,2.01,5.69,3.01,6.86,3.01.7,0,1.35-.37,1.96-1.12.61-.75,1.18-1.9,1.71-3.46.54-1.56.97-3.73,1.29-6.51.33-2.78.49-5.99.49-9.62,0-2.43-.29-3.96-.88-4.58-.58-.63-1.97-.95-4.17-.95-.93,0-2.43.07-4.48.21-2.85,11.67-7.23,23.89-13.16,36.68l-9.1-3.92c5.13-10.92,9.05-21.58,11.76-31.99-2.75.23-5.74.51-8.96.84l-.63-9.52c7.56-.7,11.5-1.07,11.83-1.12ZM216.89,27.4l10.08-3.22c4.34,11.06,7.98,22.61,10.92,34.65l-10.15,2.59c-2.85-11.71-6.46-23.05-10.85-34.02Z"/>
        <path class="cls-3" d="M253.71,31.81l10.78.91c-.47,2.89-1.24,6.98-2.31,12.25l.14.07c6.25-4.01,12.81-6.02,19.67-6.02,5.69,0,10.21,1.49,13.54,4.48,3.34,2.99,5,7,5,12.04,0,5.79-2.4,10.42-7.21,13.9-4.81,3.48-11.55,5.21-20.23,5.21-5.41,0-10.71-.47-15.89-1.4l1.19-10.15c5.04.93,10.03,1.4,14.98,1.4s9.01-.79,11.62-2.38c2.61-1.59,3.92-3.78,3.92-6.58,0-2.01-.69-3.57-2.06-4.69-1.38-1.12-3.4-1.68-6.06-1.68-2.85,0-5.68.47-8.5,1.4-2.82.93-6.59,2.64-11.3,5.11l-10.99-2.17c1.68-8.77,2.92-16.01,3.71-21.7ZM258.33,26.63l2.24-9.24c11.06,3.08,22.05,4.69,32.97,4.83v9.52c-12.51-.14-24.24-1.84-35.21-5.11Z"/>
        <path class="cls-3" d="M369.42,60.58l1.82,10.43c-8.45,2.29-16.19,3.43-23.24,3.43-9.71,0-16.94-1.4-21.7-4.2-4.76-2.8-7.14-6.74-7.14-11.83s4.18-11.48,12.53-18.48l7.98,6.72c-5.74,5.13-8.61,8.87-8.61,11.2,0,4.06,5.65,6.09,16.94,6.09,6.02,0,13.16-1.12,21.42-3.36ZM325.32,30.55l.63-10.15c8.4.98,16.29,1.47,23.66,1.47,6.44,0,11.48-.14,15.12-.42l.35,10.15c-4.99.28-10.15.42-15.47.42-8.45,0-16.54-.49-24.29-1.47Z"/>
        <path class="cls-3" d="M397.21,19.77c13.16,0,26.06-.61,38.71-1.82l1.33,10.71c-5.74,4.48-11.9,8.24-18.48,11.27l.07.14c9.29-.75,18.48-1.63,27.58-2.66l.63,9.45c-10.45.75-18.36,2.27-23.73,4.58-5.37,2.31-8.05,4.79-8.05,7.46,0,1.49.57,2.7,1.71,3.6,1.14.91,3.34,1.63,6.58,2.17,3.24.54,7.71.81,13.41.81l-.28,9.87c-11.99-.05-20.58-1.28-25.76-3.71-5.18-2.43-7.77-6.09-7.77-10.99,0-4.06,2.78-7.75,8.33-11.06l-.07-.14c-8.54.61-16.78,1-24.71,1.19v-9.1c6.63-.05,12.8-1.12,18.51-3.22,5.72-2.1,11.51-5.46,17.39-10.08v-.14c-8.87.84-17.34,1.26-25.41,1.26v-9.59Z"/>
        <path class="cls-3" d="M464.2,51.84v-8.48h69.73v8.48h-69.73Z"/>
      </g>
      <g>
        <path class="cls-4" d="M12,51.84v-8.48h69.73v8.48H12Z"/>
        <path class="cls-4" d="M114.34,15.01l10.71.91c-.7,3.78-1.28,6.79-1.75,9.03,7-.56,12.88-1.14,17.64-1.75l.91,9.59c-7.14.84-14.05,1.49-20.72,1.96-3.22,13.81-7.3,27.63-12.25,41.44l-10.43-3.01c4.67-13.07,8.49-25.67,11.48-37.8-2.24.09-5.65.19-10.22.28v-9.52c2.57-.05,6.72-.21,12.46-.49.65-2.99,1.38-6.53,2.17-10.64ZM154.52,62.96l1.26,9.59c-4.53,1.31-9.22,1.96-14.07,1.96-6.77,0-11.64-.91-14.63-2.73-2.99-1.82-4.48-4.53-4.48-8.12,0-2.01.58-4.15,1.75-6.44,1.17-2.29,2.78-4.34,4.83-6.16l8.33,4.48c-2.57,2.61-3.85,4.62-3.85,6.02,0,1.21.59,2.09,1.79,2.62,1.19.54,3.28.8,6.26.8,3.17,0,7.44-.68,12.81-2.03ZM127.22,38.95c8.59-1.49,17.38-2.24,26.39-2.24v9.59c-8.54,0-17.01.75-25.41,2.24l-.98-9.59ZM151.72,23.34l-6.58,3.15c-1.49-3.08-3.27-6.46-5.32-10.15l6.58-3.29c1.91,3.59,3.69,7.02,5.32,10.29ZM162.5,22.5l-6.72,3.22c-2.52-4.85-4.34-8.31-5.46-10.36l6.72-3.36c2.15,3.92,3.97,7.42,5.46,10.5Z"/>
        <path class="cls-4" d="M188.54,29.29c.93-4.57,1.7-9.36,2.31-14.35l10.01.84c-.61,4.95-1.26,9.24-1.96,12.88.7-.05,1.59-.07,2.66-.07,2.61,0,4.67.05,6.16.14,1.49.09,2.91.37,4.24.84,1.33.47,2.29,1.03,2.87,1.68.58.65,1.1,1.7,1.54,3.15.44,1.45.71,3.01.8,4.69.09,1.68.14,3.97.14,6.86,0,9.33-1.4,16.45-4.2,21.35-2.8,4.9-6.25,7.35-10.36,7.35-3.17,0-7.37-1.52-12.6-4.55l3.85-8.75c3.41,2.01,5.69,3.01,6.86,3.01.7,0,1.35-.37,1.96-1.12.61-.75,1.18-1.9,1.71-3.46.54-1.56.97-3.73,1.29-6.51.33-2.78.49-5.99.49-9.62,0-2.43-.29-3.96-.88-4.58-.58-.63-1.97-.95-4.17-.95-.93,0-2.43.07-4.48.21-2.85,11.67-7.23,23.89-13.16,36.68l-9.1-3.92c5.13-10.92,9.05-21.58,11.76-31.99-2.75.23-5.74.51-8.96.84l-.63-9.52c7.56-.7,11.5-1.07,11.83-1.12ZM216.89,27.4l10.08-3.22c4.34,11.06,7.98,22.61,10.92,34.65l-10.15,2.59c-2.85-11.71-6.46-23.05-10.85-34.02Z"/>
        <path class="cls-4" d="M253.71,31.81l10.78.91c-.47,2.89-1.24,6.98-2.31,12.25l.14.07c6.25-4.01,12.81-6.02,19.67-6.02,5.69,0,10.21,1.49,13.54,4.48,3.34,2.99,5,7,5,12.04,0,5.79-2.4,10.42-7.21,13.9-4.81,3.48-11.55,5.21-20.23,5.21-5.41,0-10.71-.47-15.89-1.4l1.19-10.15c5.04.93,10.03,1.4,14.98,1.4s9.01-.79,11.62-2.38c2.61-1.59,3.92-3.78,3.92-6.58,0-2.01-.69-3.57-2.06-4.69-1.38-1.12-3.4-1.68-6.06-1.68-2.85,0-5.68.47-8.5,1.4-2.82.93-6.59,2.64-11.3,5.11l-10.99-2.17c1.68-8.77,2.92-16.01,3.71-21.7ZM258.33,26.63l2.24-9.24c11.06,3.08,22.05,4.69,32.97,4.83v9.52c-12.51-.14-24.24-1.84-35.21-5.11Z"/>
        <path class="cls-4" d="M369.42,60.58l1.82,10.43c-8.45,2.29-16.19,3.43-23.24,3.43-9.71,0-16.94-1.4-21.7-4.2-4.76-2.8-7.14-6.74-7.14-11.83s4.18-11.48,12.53-18.48l7.98,6.72c-5.74,5.13-8.61,8.87-8.61,11.2,0,4.06,5.65,6.09,16.94,6.09,6.02,0,13.16-1.12,21.42-3.36ZM325.32,30.55l.63-10.15c8.4.98,16.29,1.47,23.66,1.47,6.44,0,11.48-.14,15.12-.42l.35,10.15c-4.99.28-10.15.42-15.47.42-8.45,0-16.54-.49-24.29-1.47Z"/>
        <path class="cls-4" d="M397.21,19.77c13.16,0,26.06-.61,38.71-1.82l1.33,10.71c-5.74,4.48-11.9,8.24-18.48,11.27l.07.14c9.29-.75,18.48-1.63,27.58-2.66l.63,9.45c-10.45.75-18.36,2.27-23.73,4.58-5.37,2.31-8.05,4.79-8.05,7.46,0,1.49.57,2.7,1.71,3.6,1.14.91,3.34,1.63,6.58,2.17,3.24.54,7.71.81,13.41.81l-.28,9.87c-11.99-.05-20.58-1.28-25.76-3.71-5.18-2.43-7.77-6.09-7.77-10.99,0-4.06,2.78-7.75,8.33-11.06l-.07-.14c-8.54.61-16.78,1-24.71,1.19v-9.1c6.63-.05,12.8-1.12,18.51-3.22,5.72-2.1,11.51-5.46,17.39-10.08v-.14c-8.87.84-17.34,1.26-25.41,1.26v-9.59Z"/>
        <path class="cls-4" d="M464.2,51.84v-8.48h69.73v8.48h-69.73Z"/>
      </g>
    </g>
  </g>
</svg>