<?xml version="1.0" encoding="UTF-8"?>
<svg id="_レイヤー_2" data-name="レイヤー 2" xmlns="http://www.w3.org/2000/svg" xmlns:xlink="http://www.w3.org/1999/xlink" viewBox="0 0 685.95 309.27">
  <defs>
    <style>
      .cls-1 {
        fill: #fff;
      }

      .cls-2 {
        stroke-linejoin: round;
        stroke-width: 23px;
      }

      .cls-2, .cls-3 {
        fill: none;
        stroke: #231815;
      }

      .cls-3 {
        stroke-width: 5px;
      }

      .cls-4 {
        fill: #ff2800;
      }
    </style>
  </defs>
  <g id="_急募2" data-name="急募2">
    <image width="63" height="296" transform="translate(-5 2)" xlink:href="deco_3.png"/>
    <g>
      <g>
        <path class="cls-1" d="M83.65,232.62l10.39,2.8c.46.14.73.48.82,1.03.27.5.18.96-.27,1.37l-2.19,1.78v16.95c2.19-4.38,3.51-8.89,3.96-13.54l7.79,6.9c.36.37.46.84.27,1.44-.18.59-.55.91-1.09.96l-1.78.21c-2.73,3.51-5.79,6.68-9.16,9.5v5.81c-.09,1.6-.37,3.12-.82,4.58,4.01,1.28,7.15,3.69,9.43,7.25.91,1.73,1.32,3.6,1.23,5.61,0,1.09-.41,2.04-1.23,2.84-.82.8-1.75,1.22-2.8,1.26-1.05.05-2.01-.28-2.87-.99-.87-.71-1.39-1.61-1.57-2.7-.27-1.05-.37-2.16-.27-3.35.27-2.92-.55-5.49-2.46-7.72-1.55,4.79-3.92,9.07-7.11,12.85-3.19,3.78-7.02,6.79-11.48,9.02,7.11-7.43,10.85-16.29,11.21-26.59v-37.26ZM76.95,246.9c3.01,3.42,4.92,7.34,5.74,11.76.55,2.1.27,4.08-.82,5.95-.82,1.55-2.14,2.32-3.96,2.32s-3.19-.8-4.1-2.39c-.82-2.32-.41-4.42,1.23-6.29,2.1-3.51,2.73-7.29,1.91-11.35ZM111.13,229.27l13.4,7.04c.46.32.64.71.55,1.16-.09.46-.37.75-.82.89l-2.19.82c-1.55,4.83-3.6,9.14-6.15,12.92h10.53l1.91-2.73c.27-.41.68-.62,1.23-.62s.96.16,1.23.48l6.84,5.74c.27.23.41.52.41.89,0,.41-.14.71-.41.89l-1.5,1.64c-.09,10.76-1.14,21.44-3.14,32.06-.64,3.65-2.73,6.2-6.29,7.66-1.55.68-3.19.66-4.92-.07-1.09-.5-2.1-1.25-3.01-2.26-1.73-3.74-4.42-6.45-8.07-8.13l9.3,1.3c.91.23,1.78.02,2.6-.62.82-.55,1.32-1.34,1.5-2.39,1.64-10.07,2.28-20.17,1.91-30.28h-12.58c-1,1.41-2.51,3.14-4.51,5.2,4.1,1.78,7.56,4.42,10.39,7.93,1.64,2.05,2.23,4.33,1.78,6.84-.18,1.14-.71,2.08-1.57,2.84-.87.75-1.87,1.15-3.01,1.2-1.14.05-2.17-.27-3.08-.96-.91-.68-1.5-1.59-1.78-2.73-.46-1.55-.46-3.19,0-4.92.09-3.51-1.09-6.61-3.55-9.3-2.37,2.28-4.79,4.26-7.25,5.95,7.2-11.76,10.62-24.56,10.25-38.42Z"/>
        <path class="cls-1" d="M144.97,240.2h10.12v-9.3l10.94,2.8c.59.14.89.5.89,1.09s-.25,1-.75,1.23l-1.85.89v3.28h1.57l1.44-2.73c.18-.27.48-.41.89-.41.23,0,.5.11.82.34l5.47,5.06c.32.23.39.52.21.89-.14.37-.39.55-.75.55h-9.64v3.76h1.57l2.6-2.46c.55-.64,1.12-.64,1.71,0l2.67,2.46,6.02-.96v-16.47l11.07,3.01c.5.23.8.64.89,1.23,0,.59-.25,1-.75,1.23l-1.98,1.44v7.79l1.85-.34,1.85-2.67c.5-.46,1.05-.5,1.64-.14l6.97,5.61c.46.55.43,1.07-.07,1.57l-2.12,1.78v17.91c0,.64.3,1.09.89,1.37.68.27,1.37.27,2.05,0,.41-.23.68-.52.82-.89l1.98-11.83,1.16,7.25c.27,1.5.93,2.89,1.98,4.17.46.68.8,1.44,1.03,2.26.18,1.05.02,2.07-.48,3.08-.5,1-1.25,1.73-2.26,2.19-3.96,1.28-7.93,1.32-11.89.14-2.14-.77-3.26-2.28-3.35-4.51v-5.95c-1,.91-2.23,1.3-3.69,1.16-1.37-.27-2.42-1.03-3.14-2.26-3.96,6.24-9.48,10.53-16.54,12.85,4.83,3.14,7.36,7.57,7.59,13.26.04,1.46-.49,2.73-1.61,3.83-1.12,1.09-2.4,1.62-3.86,1.57-1.46-.05-2.71-.64-3.76-1.78-1.05-1.14-1.53-2.46-1.44-3.96,1.28-5.1,1.14-10.16-.41-15.18l1.85,1.16c2.87-2.19,5.24-4.58,7.11-7.18l-19.76,8.75-.62,1.91c-.23.59-.59.96-1.09,1.09-.64.14-1.14.02-1.5-.34l-6.43-9.23,12.24-1.78v-3.76h-6.7l-1.85-2.73c-1.28.5-2.6.93-3.96,1.3,3.37-3.46,5.88-7.56,7.52-12.3h-5.47l-2.53-4.79h12.99v-3.62h-8.27l-1.85-3.69ZM157.75,277.32c2.19,5.88,1.78,11.51-1.23,16.88-1.5,1.87-3.4,2.55-5.67,2.05-1.05-.23-1.95-.74-2.7-1.54-.75-.8-1.24-1.72-1.47-2.77-.37-2.42.43-4.26,2.39-5.54,3.74-2.19,6.63-5.22,8.68-9.09ZM155.08,262.56v-5.06c-2.14,2.05-4.44,3.74-6.9,5.06h6.9ZM158.78,252.3c-.09.14-.25.4-.48.79-.23.39-.39.67-.48.85l8.07,3.21c.27.14.46.41.55.82,0,.37-.14.64-.41.82l-1.71,1.44v2.32h1.91l1.98-3.42c-.27-.36-.43-.73-.48-1.09-.59-2.05-1.57-3.96-2.94-5.74h-6.02ZM164.31,266.04v2.32l9.5-1.3c2-3.28,3.37-6.65,4.1-10.12-1.73-1.73-3.69-3.28-5.88-4.65h-1.91c1.46.59,2.83,1.46,4.1,2.6,1.05,1.05,1.32,2.3.82,3.76-.46,1.5-1.46,2.32-3.01,2.46l2.32,3.08c.23.37.27.73.14,1.09-.18.46-.5.71-.96.75h-9.23ZM178.87,250.87l-3.49.68c-.09.27-.3.52-.62.75,1.41.09,2.71.3,3.9.62l.21-2.05ZM176.41,276.84c3.19,1.28,5.9,3.17,8.13,5.67,2.23,2.51,3.83,5.4,4.79,8.68.46,2.1-.25,3.78-2.12,5.06-1.82,1.28-3.65,1.3-5.47.07-1.91-1.19-2.69-2.85-2.32-4.99.55-5.2-.46-10.03-3.01-14.49ZM188.17,249.09c-.09,2.6-.5,5.04-1.23,7.31,1.14.68,2.21,1.55,3.21,2.6v-10.25l-1.98.34ZM187.9,276.3c3.55.46,6.77,1.79,9.64,4,2.87,2.21,4.99,4.96,6.36,8.24.77,2.37.25,4.35-1.57,5.95-1.82,1.59-3.85,1.87-6.08.82-2.14-1.09-3.14-2.87-3.01-5.33-.14-5.2-1.91-9.75-5.33-13.67Z"/>
      </g>
      <g>
        <path class="cls-3" d="M83.65,232.62l10.39,2.8c.46.14.73.48.82,1.03.27.5.18.96-.27,1.37l-2.19,1.78v16.95c2.19-4.38,3.51-8.89,3.96-13.54l7.79,6.9c.36.37.46.84.27,1.44-.18.59-.55.91-1.09.96l-1.78.21c-2.73,3.51-5.79,6.68-9.16,9.5v5.81c-.09,1.6-.37,3.12-.82,4.58,4.01,1.28,7.15,3.69,9.43,7.25.91,1.73,1.32,3.6,1.23,5.61,0,1.09-.41,2.04-1.23,2.84-.82.8-1.75,1.22-2.8,1.26-1.05.05-2.01-.28-2.87-.99-.87-.71-1.39-1.61-1.57-2.7-.27-1.05-.37-2.16-.27-3.35.27-2.92-.55-5.49-2.46-7.72-1.55,4.79-3.92,9.07-7.11,12.85-3.19,3.78-7.02,6.79-11.48,9.02,7.11-7.43,10.85-16.29,11.21-26.59v-37.26ZM76.95,246.9c3.01,3.42,4.92,7.34,5.74,11.76.55,2.1.27,4.08-.82,5.95-.82,1.55-2.14,2.32-3.96,2.32s-3.19-.8-4.1-2.39c-.82-2.32-.41-4.42,1.23-6.29,2.1-3.51,2.73-7.29,1.91-11.35ZM111.13,229.27l13.4,7.04c.46.32.64.71.55,1.16-.09.46-.37.75-.82.89l-2.19.82c-1.55,4.83-3.6,9.14-6.15,12.92h10.53l1.91-2.73c.27-.41.68-.62,1.23-.62s.96.16,1.23.48l6.84,5.74c.27.23.41.52.41.89,0,.41-.14.71-.41.89l-1.5,1.64c-.09,10.76-1.14,21.44-3.14,32.06-.64,3.65-2.73,6.2-6.29,7.66-1.55.68-3.19.66-4.92-.07-1.09-.5-2.1-1.25-3.01-2.26-1.73-3.74-4.42-6.45-8.07-8.13l9.3,1.3c.91.23,1.78.02,2.6-.62.82-.55,1.32-1.34,1.5-2.39,1.64-10.07,2.28-20.17,1.91-30.28h-12.58c-1,1.41-2.51,3.14-4.51,5.2,4.1,1.78,7.56,4.42,10.39,7.93,1.64,2.05,2.23,4.33,1.78,6.84-.18,1.14-.71,2.08-1.57,2.84-.87.75-1.87,1.15-3.01,1.2-1.14.05-2.17-.27-3.08-.96-.91-.68-1.5-1.59-1.78-2.73-.46-1.55-.46-3.19,0-4.92.09-3.51-1.09-6.61-3.55-9.3-2.37,2.28-4.79,4.26-7.25,5.95,7.2-11.76,10.62-24.56,10.25-38.42Z"/>
        <path class="cls-3" d="M144.97,240.2h10.12v-9.3l10.94,2.8c.59.14.89.5.89,1.09s-.25,1-.75,1.23l-1.85.89v3.28h1.57l1.44-2.73c.18-.27.48-.41.89-.41.23,0,.5.11.82.34l5.47,5.06c.32.23.39.52.21.89-.14.37-.39.55-.75.55h-9.64v3.76h1.57l2.6-2.46c.55-.64,1.12-.64,1.71,0l2.67,2.46,6.02-.96v-16.47l11.07,3.01c.5.23.8.64.89,1.23,0,.59-.25,1-.75,1.23l-1.98,1.44v7.79l1.85-.34,1.85-2.67c.5-.46,1.05-.5,1.64-.14l6.97,5.61c.46.55.43,1.07-.07,1.57l-2.12,1.78v17.91c0,.64.3,1.09.89,1.37.68.27,1.37.27,2.05,0,.41-.23.68-.52.82-.89l1.98-11.83,1.16,7.25c.27,1.5.93,2.89,1.98,4.17.46.68.8,1.44,1.03,2.26.18,1.05.02,2.07-.48,3.08-.5,1-1.25,1.73-2.26,2.19-3.96,1.28-7.93,1.32-11.89.14-2.14-.77-3.26-2.28-3.35-4.51v-5.95c-1,.91-2.23,1.3-3.69,1.16-1.37-.27-2.42-1.03-3.14-2.26-3.96,6.24-9.48,10.53-16.54,12.85,4.83,3.14,7.36,7.57,7.59,13.26.04,1.46-.49,2.73-1.61,3.83-1.12,1.09-2.4,1.62-3.86,1.57-1.46-.05-2.71-.64-3.76-1.78-1.05-1.14-1.53-2.46-1.44-3.96,1.28-5.1,1.14-10.16-.41-15.18l1.85,1.16c2.87-2.19,5.24-4.58,7.11-7.18l-19.76,8.75-.62,1.91c-.23.59-.59.96-1.09,1.09-.64.14-1.14.02-1.5-.34l-6.43-9.23,12.24-1.78v-3.76h-6.7l-1.85-2.73c-1.28.5-2.6.93-3.96,1.3,3.37-3.46,5.88-7.56,7.52-12.3h-5.47l-2.53-4.79h12.99v-3.62h-8.27l-1.85-3.69ZM157.75,277.32c2.19,5.88,1.78,11.51-1.23,16.88-1.5,1.87-3.4,2.55-5.67,2.05-1.05-.23-1.95-.74-2.7-1.54-.75-.8-1.24-1.72-1.47-2.77-.37-2.42.43-4.26,2.39-5.54,3.74-2.19,6.63-5.22,8.68-9.09ZM155.08,262.56v-5.06c-2.14,2.05-4.44,3.74-6.9,5.06h6.9ZM158.78,252.3c-.09.14-.25.4-.48.79-.23.39-.39.67-.48.85l8.07,3.21c.27.14.46.41.55.82,0,.37-.14.64-.41.82l-1.71,1.44v2.32h1.91l1.98-3.42c-.27-.36-.43-.73-.48-1.09-.59-2.05-1.57-3.96-2.94-5.74h-6.02ZM164.31,266.04v2.32l9.5-1.3c2-3.28,3.37-6.65,4.1-10.12-1.73-1.73-3.69-3.28-5.88-4.65h-1.91c1.46.59,2.83,1.46,4.1,2.6,1.05,1.05,1.32,2.3.82,3.76-.46,1.5-1.46,2.32-3.01,2.46l2.32,3.08c.23.37.27.73.14,1.09-.18.46-.5.71-.96.75h-9.23ZM178.87,250.87l-3.49.68c-.09.27-.3.52-.62.75,1.41.09,2.71.3,3.9.62l.21-2.05ZM176.41,276.84c3.19,1.28,5.9,3.17,8.13,5.67,2.23,2.51,3.83,5.4,4.79,8.68.46,2.1-.25,3.78-2.12,5.06-1.82,1.28-3.65,1.3-5.47.07-1.91-1.19-2.69-2.85-2.32-4.99.55-5.2-.46-10.03-3.01-14.49ZM188.17,249.09c-.09,2.6-.5,5.04-1.23,7.31,1.14.68,2.21,1.55,3.21,2.6v-10.25l-1.98.34ZM187.9,276.3c3.55.46,6.77,1.79,9.64,4,2.87,2.21,4.99,4.96,6.36,8.24.77,2.37.25,4.35-1.57,5.95-1.82,1.59-3.85,1.87-6.08.82-2.14-1.09-3.14-2.87-3.01-5.33-.14-5.2-1.91-9.75-5.33-13.67Z"/>
      </g>
      <g>
        <path class="cls-1" d="M83.65,232.62l10.39,2.8c.46.14.73.48.82,1.03.27.5.18.96-.27,1.37l-2.19,1.78v16.95c2.19-4.38,3.51-8.89,3.96-13.54l7.79,6.9c.36.37.46.84.27,1.44-.18.59-.55.91-1.09.96l-1.78.21c-2.73,3.51-5.79,6.68-9.16,9.5v5.81c-.09,1.6-.37,3.12-.82,4.58,4.01,1.28,7.15,3.69,9.43,7.25.91,1.73,1.32,3.6,1.23,5.61,0,1.09-.41,2.04-1.23,2.84-.82.8-1.75,1.22-2.8,1.26-1.05.05-2.01-.28-2.87-.99-.87-.71-1.39-1.61-1.57-2.7-.27-1.05-.37-2.16-.27-3.35.27-2.92-.55-5.49-2.46-7.72-1.55,4.79-3.92,9.07-7.11,12.85-3.19,3.78-7.02,6.79-11.48,9.02,7.11-7.43,10.85-16.29,11.21-26.59v-37.26ZM76.95,246.9c3.01,3.42,4.92,7.34,5.74,11.76.55,2.1.27,4.08-.82,5.95-.82,1.55-2.14,2.32-3.96,2.32s-3.19-.8-4.1-2.39c-.82-2.32-.41-4.42,1.23-6.29,2.1-3.51,2.73-7.29,1.91-11.35ZM111.13,229.27l13.4,7.04c.46.32.64.71.55,1.16-.09.46-.37.75-.82.89l-2.19.82c-1.55,4.83-3.6,9.14-6.15,12.92h10.53l1.91-2.73c.27-.41.68-.62,1.23-.62s.96.16,1.23.48l6.84,5.74c.27.23.41.52.41.89,0,.41-.14.71-.41.89l-1.5,1.64c-.09,10.76-1.14,21.44-3.14,32.06-.64,3.65-2.73,6.2-6.29,7.66-1.55.68-3.19.66-4.92-.07-1.09-.5-2.1-1.25-3.01-2.26-1.73-3.74-4.42-6.45-8.07-8.13l9.3,1.3c.91.23,1.78.02,2.6-.62.82-.55,1.32-1.34,1.5-2.39,1.64-10.07,2.28-20.17,1.91-30.28h-12.58c-1,1.41-2.51,3.14-4.51,5.2,4.1,1.78,7.56,4.42,10.39,7.93,1.64,2.05,2.23,4.33,1.78,6.84-.18,1.14-.71,2.08-1.57,2.84-.87.75-1.87,1.15-3.01,1.2-1.14.05-2.17-.27-3.08-.96-.91-.68-1.5-1.59-1.78-2.73-.46-1.55-.46-3.19,0-4.92.09-3.51-1.09-6.61-3.55-9.3-2.37,2.28-4.79,4.26-7.25,5.95,7.2-11.76,10.62-24.56,10.25-38.42Z"/>
        <path class="cls-1" d="M144.97,240.2h10.12v-9.3l10.94,2.8c.59.14.89.5.89,1.09s-.25,1-.75,1.23l-1.85.89v3.28h1.57l1.44-2.73c.18-.27.48-.41.89-.41.23,0,.5.11.82.34l5.47,5.06c.32.23.39.52.21.89-.14.37-.39.55-.75.55h-9.64v3.76h1.57l2.6-2.46c.55-.64,1.12-.64,1.71,0l2.67,2.46,6.02-.96v-16.47l11.07,3.01c.5.23.8.64.89,1.23,0,.59-.25,1-.75,1.23l-1.98,1.44v7.79l1.85-.34,1.85-2.67c.5-.46,1.05-.5,1.64-.14l6.97,5.61c.46.55.43,1.07-.07,1.57l-2.12,1.78v17.91c0,.64.3,1.09.89,1.37.68.27,1.37.27,2.05,0,.41-.23.68-.52.82-.89l1.98-11.83,1.16,7.25c.27,1.5.93,2.89,1.98,4.17.46.68.8,1.44,1.03,2.26.18,1.05.02,2.07-.48,3.08-.5,1-1.25,1.73-2.26,2.19-3.96,1.28-7.93,1.32-11.89.14-2.14-.77-3.26-2.28-3.35-4.51v-5.95c-1,.91-2.23,1.3-3.69,1.16-1.37-.27-2.42-1.03-3.14-2.26-3.96,6.24-9.48,10.53-16.54,12.85,4.83,3.14,7.36,7.57,7.59,13.26.04,1.46-.49,2.73-1.61,3.83-1.12,1.09-2.4,1.62-3.86,1.57-1.46-.05-2.71-.64-3.76-1.78-1.05-1.14-1.53-2.46-1.44-3.96,1.28-5.1,1.14-10.16-.41-15.18l1.85,1.16c2.87-2.19,5.24-4.58,7.11-7.18l-19.76,8.75-.62,1.91c-.23.59-.59.96-1.09,1.09-.64.14-1.14.02-1.5-.34l-6.43-9.23,12.24-1.78v-3.76h-6.7l-1.85-2.73c-1.28.5-2.6.93-3.96,1.3,3.37-3.46,5.88-7.56,7.52-12.3h-5.47l-2.53-4.79h12.99v-3.62h-8.27l-1.85-3.69ZM157.75,277.32c2.19,5.88,1.78,11.51-1.23,16.88-1.5,1.87-3.4,2.55-5.67,2.05-1.05-.23-1.95-.74-2.7-1.54-.75-.8-1.24-1.72-1.47-2.77-.37-2.42.43-4.26,2.39-5.54,3.74-2.19,6.63-5.22,8.68-9.09ZM155.08,262.56v-5.06c-2.14,2.05-4.44,3.74-6.9,5.06h6.9ZM158.78,252.3c-.09.14-.25.4-.48.79-.23.39-.39.67-.48.85l8.07,3.21c.27.14.46.41.55.82,0,.37-.14.64-.41.82l-1.71,1.44v2.32h1.91l1.98-3.42c-.27-.36-.43-.73-.48-1.09-.59-2.05-1.57-3.96-2.94-5.74h-6.02ZM164.31,266.04v2.32l9.5-1.3c2-3.28,3.37-6.65,4.1-10.12-1.73-1.73-3.69-3.28-5.88-4.65h-1.91c1.46.59,2.83,1.46,4.1,2.6,1.05,1.05,1.32,2.3.82,3.76-.46,1.5-1.46,2.32-3.01,2.46l2.32,3.08c.23.37.27.73.14,1.09-.18.46-.5.71-.96.75h-9.23ZM178.87,250.87l-3.49.68c-.09.27-.3.52-.62.75,1.41.09,2.71.3,3.9.62l.21-2.05ZM176.41,276.84c3.19,1.28,5.9,3.17,8.13,5.67,2.23,2.51,3.83,5.4,4.79,8.68.46,2.1-.25,3.78-2.12,5.06-1.82,1.28-3.65,1.3-5.47.07-1.91-1.19-2.69-2.85-2.32-4.99.55-5.2-.46-10.03-3.01-14.49ZM188.17,249.09c-.09,2.6-.5,5.04-1.23,7.31,1.14.68,2.21,1.55,3.21,2.6v-10.25l-1.98.34ZM187.9,276.3c3.55.46,6.77,1.79,9.64,4,2.87,2.21,4.99,4.96,6.36,8.24.77,2.37.25,4.35-1.57,5.95-1.82,1.59-3.85,1.87-6.08.82-2.14-1.09-3.14-2.87-3.01-5.33-.14-5.2-1.91-9.75-5.33-13.67Z"/>
      </g>
    </g>
    <g>
      <g>
        <path class="cls-2" d="M260.94,260.79h9.43l1.64-2.8c.55-.68,1.23-.84,2.05-.48l6.7,5.26c.27.23.41.52.41.89s-.14.66-.41.89l-1.91,1.71v9.09h17.23v-4.65h-3.14v1.23c0,.27-.09.52-.27.75-.18.18-.46.27-.82.27l-6.84.48c-.46.05-.82-.07-1.09-.34s-.41-.62-.41-1.03v-20.03l8.07,1.64h4.51v-2.32h-12.71l-1.91-3.49h14.63v-8l11.35,1.64c.36.05.64.32.82.82.09.37,0,.71-.27,1.03l-2.19,1.64v2.87h6.43l2.05-3.62c.27-.41.64-.66,1.09-.75.36-.04.77.07,1.23.34l5.06,5.26c.36.37.46.8.27,1.3-.09.55-.41.87-.96.96h-7.93l7.38,4.1c.36.23.57.5.62.82.04.32-.07.66-.34,1.03l-1.91,1.91v10.46c0,.46-.23.84-.68,1.16l5.88,5.2c.36.5.46,1.07.27,1.71-.18.59-.64.93-1.37,1.03h-17.09v5.95c-.09.78-.5,1.3-1.23,1.57l-6.15.96c-.55.09-1.09-.04-1.64-.41-.37-.36-.59-.84-.68-1.44v-6.63h-15.18l-2.05-2.94v6.7c3.83,2.96,8.11,4.83,12.85,5.61,1.82.32,3.69.41,5.61.27,9.21-1.05,18.68-1.62,28.44-1.71-2.64,2.28-4.6,5.13-5.88,8.54-6.65,0-13.67.46-21.05,1.37-2.64.32-5.33.09-8.07-.68-5.65-1.73-10.48-4.74-14.49-9.02l-8.48,6.56-.82,1.71c-.27.41-.59.64-.96.68-.46.09-.87-.02-1.23-.34l-5.47-9.23,10.53-2.39v-19.35h-7.52l-1.37-3.76ZM263.81,235.9c4.19.09,7.93,1.32,11.21,3.69,1.09.82,2.05,1.75,2.87,2.8.73.78,1.05,1.73.96,2.87,0,1.41-.46,2.58-1.37,3.49-1,.96-2.19,1.39-3.55,1.3-1.19.09-2.14-.39-2.87-1.44-.73-1.09-1.19-2.16-1.37-3.21-.37-4.15-2.32-7.31-5.88-9.5ZM285.14,230.78c1.55,1.09,2.78,2.35,3.69,3.76h23.79l1.5-2.87c.09-.36.32-.57.68-.62.27-.14.59-.11.96.07l7.93,7.79c.36.37.5.8.41,1.3-.18.46-.55.75-1.09.89-4.92-.09-9.39,1.37-13.4,4.38.18-2.37.73-4.81,1.64-7.31h-21.05c.36,1.73.32,3.51-.14,5.33-.55,1.28-1.37,2.3-2.46,3.08-1.37.91-2.85,1.09-4.44.55-1.6-.55-2.58-1.64-2.94-3.28-.46-1.14-.46-2.32,0-3.55.27-1,.82-1.78,1.64-2.32,2.1-1.96,3.19-4.35,3.28-7.18ZM292.93,257.16v3.42h3.14v-3.42h-3.14ZM292.93,264.2v3.08h3.14v-3.08h-3.14ZM305.78,251.35v2.32h4.24l1.37-2.32h-5.61ZM305.78,257.16v3.42h3.28v-3.42h-3.28ZM305.78,264.2v3.08h3.28v-3.08h-3.28ZM305.78,270.7v4.65h7.66l1.64-3.69-4.24.89c-.46.09-.87-.02-1.23-.34-.37-.23-.55-.62-.55-1.16v-.34h-3.28Z"/>
        <path class="cls-2" d="M336.27,242.81c1.37,1.37,2.42,2.83,3.14,4.38h6.84c-1.55-1-2.32-2.42-2.32-4.24-.09-.82-.25-1.5-.48-2.05-1.23-3.1-2.87-5.83-4.92-8.2,4.47.46,8.52,1.87,12.17,4.24.77.46,1.57,1.05,2.39,1.78,1.32,1.28,1.87,2.78,1.64,4.51-.09,1.73-.87,3.05-2.32,3.96h9.5c-2.23-.46-3.69-1.73-4.38-3.83-.09-.18-.25-.77-.48-1.78-.64-3.65-2.23-6.84-4.79-9.57,4.56.18,8.73,1.55,12.51,4.1.91.64,1.75,1.46,2.53,2.46,1.14,1.37,1.5,2.96,1.09,4.79-.37,1.82-1.39,3.1-3.08,3.83h4.03c2.42-5.74,4.4-11.44,5.95-17.09l10.53,8.34c.46.37.59.87.41,1.5-.14.64-.52.96-1.16.96h-1.78c-3.46,1.55-6.61,3.65-9.43,6.29h8.27l2.6-3.55c.27-.27.64-.46,1.09-.55.46-.09.87,0,1.23.27l8.34,8.34c.41.37.48.78.21,1.23-.23.46-.59.64-1.09.55l-2.05-.41-10.39,3.01,1.64,1.09c.27.18.46.5.55.96,0,.37-.14.68-.41.96l-2.8,2.19v7.93c0,1-.48,1.69-1.44,2.05l-7.11,1.5c-.59.18-1.19.09-1.78-.27-.55-.36-.89-.91-1.03-1.64v-.27h-3.9l-6.02,4.65h16.47l1.71-2.32c.68-.73,1.48-.87,2.39-.41l8.27,5.61c.68.55.77,1.19.27,1.91l-1.71,1.64v12.03c0,1.28-.59,2.1-1.78,2.46l-7.45,1.64c-.59,0-1.14-.14-1.64-.41-.5-.46-.75-1-.75-1.64v-1.5h-26.93v1.09c.09.36-.05.68-.41.96-.23.36-.55.5-.96.41l-8.48.27c-.59,0-1.09-.23-1.5-.68-.41-.46-.62-1-.62-1.64v-22.7l11.35,3.28h6.15l.82-4.65h-1.37v.27c0,.27-.09.59-.27.96-.27.18-.55.27-.82.27l-7.59.55c-.55.09-1.07-.09-1.57-.55-.37-.55-.48-1.09-.34-1.64v-18.05l9.98,2.6h17.64l1.5-2.6c.59-.91,1.32-1.14,2.19-.68l4.65,2.73,1.57-3.83h-39.99c.27,1.28.36,2.51.27,3.69-.18,2.01-.78,3.92-1.78,5.74-1.32,1.64-2.96,2.32-4.92,2.05-2.01-.27-3.42-1.32-4.24-3.14-.59-1.37-.52-2.78.21-4.24.41-1,1-1.82,1.78-2.46,2.92-2.46,4.38-5.61,4.38-9.43ZM348.64,278.63v12.03h26.93v-12.03h-26.93ZM353.63,258.53v8.48h16.06v-8.48h-16.06Z"/>
        <path class="cls-2" d="M408.12,242.26l.68-.27c2,1,4.12,1.44,6.36,1.3l22.35-4.03,3.35-3.83c.73-.59,1.57-.73,2.53-.41,3.6,1.82,6.79,4.15,9.57,6.97.27.32.41.73.41,1.23-.09.5-.3.84-.62,1.03l-2.73,1.78c-3.05,8.16-7,15.97-11.83,23.45,8.25,2.14,15.77,5.7,22.56,10.66,1.55,1.37,2.5,3.1,2.84,5.2.34,2.1-.03,4.03-1.13,5.81-.59,1.28-1.54,2.16-2.84,2.67-1.3.5-2.61.48-3.93-.07-2.19-1.14-3.81-2.92-4.85-5.33-3.14-6.93-8-12.19-14.56-15.79-9.57,10.66-21.33,18.02-35.27,22.08,9.71-6.43,18.21-14.29,25.5-23.58,5.83-7.52,9.39-16,10.66-25.43-5.2.91-10.05,2.17-14.56,3.76-1.23.55-2.37,1.34-3.42,2.39-1.05.82-2.23,1-3.55.55-2.19-.73-3.98-2.02-5.37-3.86-1.39-1.85-2.11-3.93-2.15-6.25Z"/>
        <path class="cls-2" d="M492.4,233.37c3.33-1.59,6.72-1.73,10.19-.41,2.42.91,4.42,2.46,6.02,4.65.32.73.18,1.32-.41,1.78l-.62.62-2.32,4.85c5.88.09,11.37-1.34,16.47-4.31.64-.36,1.3-.36,1.98,0,3.05,1.91,5.74,4.28,8.07,7.11.23.32.34.64.34.96s-.16.59-.48.82l-1.3.75c-2.55,6.84-5.95,13.08-10.19,18.73,1.69,1.28,3.05,2.89,4.1,4.85,1.37,2.28,1.44,4.6.21,6.97-1.19,2.14-2.99,3.21-5.4,3.21-2.32-.14-3.99-1.23-4.99-3.28l-1.3-2.32c-11.67,8.93-24.88,14.51-39.65,16.75,12.99-5.88,24.4-14.15,34.25-24.81-2.83-4.83-6.9-8.16-12.24-9.98-5.74,5.74-12.4,10.03-19.96,12.85,9.66-9.8,16.25-21.4,19.76-34.79.27-1.05.02-1.98-.75-2.8l-1.78-2.19ZM501.84,250.87c-1.55,2.78-3.35,5.47-5.4,8.07,5.33.82,10.48,2.28,15.45,4.38,2.46-4.51,4.26-9.41,5.4-14.7-3.87,1-7.5,2.23-10.87,3.69-.59.23-1.16.21-1.71-.07l-2.87-1.37Z"/>
        <path class="cls-2" d="M582.64,235.97c-.14-.23-.16-.46-.07-.68.04-.27.23-.43.55-.48,2.14-.55,4.26-.41,6.36.41,3.96,1.73,6.9,4.65,8.82,8.75.23.55.21,1.07-.07,1.57-.18.46-.59.75-1.23.89l-2.53.68-12.58,10.12c1.18.27,2.26.82,3.21,1.64.27.23.48.52.62.89,0,.46-.14.8-.41,1.03l-1.23,1.98c0,10.12.3,19.89.89,29.33-.05,1.05-.5,1.96-1.37,2.73-.91.73-1.91,1.03-3.01.89-1.64-.14-3.12-.66-4.44-1.57-1.32-.91-2.37-2.1-3.14-3.55-.41-1.05-.52-2.07-.34-3.08,1.41-8.16,1.69-16.43.82-24.81-10.66,6.2-22.06,10.14-34.18,11.83,18.23-7.06,33.02-18.62,44.37-34.66.73-1.09.66-2.1-.21-3.01l-.82-.89Z"/>
        <path class="cls-2" d="M620.58,246.64c1.87-2,4.24-2.76,7.11-2.26,3.42.5,6.17,2.14,8.27,4.92.46.68.6,1.45.44,2.29-.16.84-.6,1.49-1.33,1.95.27,8.52-1.34,16.54-4.85,24.06-2.14,3.87-4.92,7.16-8.34,9.84-3.42,2.69-7.27,4.65-11.55,5.88,5.33-5.65,9.16-12.09,11.48-19.31,2.32-7.22,3.03-14.69,2.12-22.39-.14-1.37-.73-2.57-1.78-3.62l-1.57-1.37ZM635.55,237.95c2.19-1.55,4.6-2.19,7.25-1.91,3.87.73,7.09,2.51,9.64,5.33.96.96,1.03,2.01.21,3.14-.55.73-.89,1.55-1.03,2.46l-1.5,25.57c10.53-5.33,18.64-13.17,24.34-23.52-1.41,7.29-4.03,14.04-7.86,20.23-3.83,6.2-8.68,11.55-14.56,16.06-.68.68-1.03,1.5-1.03,2.46,0,.32-.16.57-.48.75-.37.23-.71.23-1.03,0-4.06-2.42-7.59-5.17-10.6-8.27-.41-.55-.43-1.09-.07-1.64,1.09-2.14,1.5-4.33,1.23-6.56l-.82-28.57c-.09-1.55-.62-2.85-1.57-3.9l-2.12-1.64Z"/>
      </g>
      <g>
        <path class="cls-1" d="M296.49,303.75c-2.53,0-5.1-.37-7.65-1.09-.05-.01-.1-.03-.14-.04-4.72-1.45-9-3.65-12.79-6.59l-2.53,1.96-.1.22c-.14.3-.3.58-.49.85-1.36,2.04-3.36,3.35-5.65,3.71-.47.08-.95.12-1.43.12-2.02,0-3.99-.75-5.54-2.1-.56-.49-1.04-1.06-1.42-1.7l-5.47-9.23c-1.14-1.93-1.29-4.28-.41-6.33.88-2.06,2.7-3.56,4.88-4.06l5.08-1.15v-6.76h-.52c-2.94,0-5.57-1.84-6.58-4.61l-1.37-3.76c-.78-2.15-.46-4.54.85-6.41,1.31-1.87,3.45-2.98,5.73-2.98h5.31c-.33-.36-.65-.76-.94-1.17-.03-.04-.05-.07-.07-.11-1.27-1.91-2.09-3.89-2.44-5.9-.03-.19-.06-.39-.08-.58-.17-1.93-.92-3.13-2.57-4.15-2.69-1.66-3.94-4.91-3.05-7.94.88-2.98,3.62-5.02,6.71-5.02.05,0,.1,0,.15,0,4.84.11,9.29,1.37,13.27,3.77.03-.02.05-.04.08-.06.57-.6.8-1.21.83-2.06.08-2.57,1.57-4.89,3.88-6.04.99-.49,2.05-.73,3.12-.73,1.42,0,2.84.43,4.04,1.28,1.08.76,2.06,1.59,2.94,2.48h16.27c1.03-1.57,2.6-2.72,4.45-3.22.75-.23,1.55-.36,2.34-.36,1.27,0,2.51.3,3.7.89.66.33,1.26.76,1.79,1.27l7.93,7.79c2.04,2.04,2.89,4.77,2.39,7.54-.08.46-.21.92-.39,1.35-.54,1.35-1.4,2.51-2.5,3.4.94,1.82,1.16,3.93.59,5.97-.2.8-.5,1.55-.91,2.24.07.28.13.57.17.86.31,2.18-.29,4.38-1.67,6.23-.16.21-.33.41-.51.61v6.17l2.83,2.5c.38.34.73.72,1.03,1.13,1.62,2.23,2.11,5.05,1.34,7.74-.01.05-.03.1-.04.14-.17.55-.39,1.07-.66,1.56.89.75,1.59,1.73,2.02,2.87,1.04,2.75.25,5.85-1.98,7.77-1.75,1.51-3.03,3.37-3.89,5.69-1.02,2.74-3.64,4.55-6.56,4.55-6.34,0-13.14.44-20.2,1.31-1.06.13-2.13.19-3.18.19Z"/>
        <path class="cls-1" d="M377.97,304.77c-1.78,0-3.46-.43-4.99-1.27-.49-.27-.94-.59-1.35-.96-.45-.41-.86-.85-1.21-1.33h-17.19c-1.47,1.58-3.52,2.49-5.71,2.49-.16,0-.33,0-.49-.02l-7.99.26c-.08,0-.15,0-.23,0-2.58,0-4.96-1.06-6.7-3-1.58-1.76-2.42-3.94-2.42-6.33v-22.7c0-1.25.33-2.46.95-3.52-3.17-1.1-5.65-3.38-7.1-6.6-1.41-3.26-1.32-6.77.21-10,.85-1.98,2.1-3.65,3.71-4.97,1.28-1.08,1.83-2.26,1.83-4.03,0-2.54,1.37-4.85,3.54-6.08-1.5-2.12-1.71-4.93-.49-7.26,1.21-2.33,3.62-3.77,6.21-3.77.24,0,.47.01.71.04,2.69.27,5.28.84,7.75,1.68,1.31-1.5,3.23-2.4,5.27-2.4.09,0,.19,0,.28,0,5.61.22,10.83,1.87,15.54,4.89.16-.56.32-1.11.47-1.66.62-2.27,2.34-4.07,4.57-4.8.71-.23,1.45-.35,2.18-.35,1.56,0,3.09.52,4.35,1.51l10.53,8.34c2.11,1.7,3.22,4.16,3.13,6.76l6.95,6.95c2.67,2.54,3.27,6.43,1.47,9.64-1.41,2.59-4.06,4.19-6.99,4.19-.5,0-1-.05-1.5-.14-.04,0-.49-.1-.49-.1l-1.96.57c-.41,1.19-1.09,2.28-2.01,3.2-.2.2-.42.39-.64.57l-.11.09v4.55l4.51,3.06c.15.1.3.21.45.33,3.54,2.83,4.24,7.6,1.67,11.35-.15.21-.31.42-.48.62v9.09c0,4.37-2.57,7.87-6.71,9.15-.18.06-.37.11-.56.15l-7.45,1.64c-.49.11-1,.16-1.5.16Z"/>
        <path class="cls-1" d="M401.01,301.69c-2.67,0-5.18-1.53-6.35-4.06-1.45-3.14-.4-6.87,2.49-8.78,9.03-5.98,17.06-13.4,23.85-22.07,2.83-3.65,5.03-7.51,6.61-11.63-.79.25-1.57.5-2.34.77-.38.2-.75.48-1.13.86-.2.2-.41.39-.64.56-1.91,1.49-4.15,2.28-6.5,2.28-1.21,0-2.44-.21-3.65-.63-3.48-1.16-6.42-3.27-8.67-6.27-2.29-3.04-3.49-6.51-3.56-10.33-.06-2.91,1.7-5.55,4.4-6.63l.68-.27c.84-.33,1.72-.5,2.6-.5,1.08,0,2.15.25,3.13.74.8.4,1.57.58,2.43.58h.04l19.46-3.51,1.74-1.98c.26-.3.55-.57.85-.82,1.73-1.4,3.79-2.14,5.98-2.14,1.06,0,2.12.18,3.17.52.33.11.65.24.95.4,4.26,2.16,8.1,4.95,11.4,8.31.11.12.22.23.33.36,1.37,1.6,2.09,3.6,2.09,5.78,0,.42-.04.84-.11,1.26-.45,2.45-1.79,4.46-3.78,5.7l-.74.48c-2.01,5.07-4.36,10.05-7.04,14.89,5.76,2.28,11.18,5.27,16.19,8.94.17.13.34.26.5.4,2.75,2.42,4.51,5.65,5.11,9.32.59,3.61-.06,7.15-1.88,10.27-1.38,2.73-3.61,4.75-6.47,5.86-1.43.55-2.91.83-4.39.83-1.6,0-3.2-.32-4.74-.96-.19-.08-.38-.17-.56-.26-3.62-1.88-6.31-4.81-8.01-8.69-1.76-3.87-4.14-7.03-7.19-9.57-9.62,9.28-21.13,15.9-34.29,19.73-.65.19-1.31.28-1.96.28Z"/>
        <path class="cls-1" d="M473.12,302.1c-3.06,0-5.82-2.01-6.71-5.02-.99-3.35.64-6.92,3.83-8.36,10.27-4.65,19.6-11,27.8-18.9-.5-.43-1.04-.83-1.6-1.19-5.58,4.78-11.89,8.5-18.81,11.08-.8.3-1.63.44-2.45.44-2.32,0-4.56-1.16-5.88-3.19-1.79-2.76-1.42-6.38.89-8.72,8.26-8.38,14.12-18.35,17.42-29.67l-.64-.79c-1.35-1.66-1.87-3.85-1.4-5.95.47-2.09,1.87-3.85,3.8-4.78,2.76-1.32,5.64-2,8.55-2,2.39,0,4.8.46,7.16,1.36,3.68,1.39,6.77,3.77,9.18,7.06.3.41.56.86.76,1.33.16.36.29.73.4,1.1.94-.41,1.88-.88,2.8-1.41,1.41-.81,2.95-1.22,4.49-1.22s2.94.37,4.3,1.1c.14.08.29.16.43.25,3.68,2.31,6.96,5.2,9.75,8.59.1.12.2.25.29.39,1.07,1.51,1.64,3.24,1.64,5.02,0,2.47-1.13,4.74-3.1,6.29-1.92,4.71-4.23,9.19-6.91,13.39.45.65.86,1.33,1.25,2.04,2.53,4.33,2.65,9.17.32,13.65-.03.05-.06.11-.09.16-2.43,4.4-6.53,6.82-11.53,6.82-.14,0-.27,0-.41-.01-2.88-.17-5.45-1.18-7.51-2.88-11.11,7.23-23.52,11.92-36.97,13.95-.35.05-.71.08-1.05.08Z"/>
        <path class="cls-1" d="M581.1,302.75c-.4,0-.81-.02-1.22-.07-2.82-.26-5.41-1.19-7.71-2.77-2.25-1.55-4.05-3.58-5.35-6.03-.13-.24-.24-.48-.34-.73-.89-2.27-1.13-4.59-.71-6.88.7-4.06,1.1-8.2,1.18-12.39-8.5,3.76-17.44,6.3-26.69,7.59-.33.05-.65.07-.97.07-3.14,0-5.96-2.12-6.77-5.24-.89-3.44.93-7,4.25-8.29,15.85-6.14,29.05-16.09,39.29-29.59-.64-1.62-.72-3.39-.22-5.06.76-2.71,2.96-4.78,5.77-5.37,1.35-.33,2.71-.49,4.07-.49,2.14,0,4.28.41,6.35,1.22.08.03.17.07.25.1,5.55,2.43,9.71,6.53,12.36,12.2.04.09.08.18.12.27.99,2.37.91,4.99-.21,7.27-1.09,2.35-3.19,4.04-5.85,4.68l-.99.27-5.29,4.26c.2.65.3,1.33.3,2.02,0,1.86-.58,3.62-1.64,5.04.04,9.22.33,18.25.87,26.86.02.25.02.5,0,.75-.13,2.95-1.4,5.59-3.69,7.64-.1.09-.2.17-.3.26-2.01,1.6-4.38,2.45-6.87,2.45Z"/>
        <path class="cls-1" d="M610.32,300.33c-2.4,0-4.68-1.23-5.98-3.36-1.64-2.69-1.28-6.15.89-8.45,4.58-4.86,7.92-10.46,9.91-16.65,1.97-6.11,2.6-12.52,1.87-19.05l-1.03-.9c-1.43-1.25-2.3-3.02-2.4-4.92s.58-3.75,1.87-5.14c2.82-3.03,6.48-4.63,10.57-4.63.83,0,1.68.07,2.54.2.16-2.07,1.23-3.98,2.94-5.19,3.06-2.17,6.46-3.26,10.12-3.26.62,0,1.26.03,1.89.1.19.02.39.05.58.08,5.34,1.01,9.86,3.5,13.44,7.41,3.15,3.27,3.54,7.91,1.02,11.7l-.62,10.58c4.12-3.69,7.56-8.07,10.39-13.21,1.26-2.29,3.64-3.62,6.13-3.62.79,0,1.6.14,2.38.42,3.24,1.17,5.14,4.53,4.49,7.91-1.57,8.09-4.52,15.69-8.78,22.58-3.93,6.37-8.9,12-14.78,16.77-.5,2-1.79,3.73-3.65,4.83-1.26.76-2.68,1.16-4.12,1.16s-2.95-.43-4.22-1.24c-4.51-2.7-8.5-5.83-11.89-9.32l-.1-.1c-2.15,2.98-4.68,5.63-7.57,7.91-4.12,3.24-8.81,5.63-13.95,7.1-.64.18-1.29.27-1.93.27Z"/>
      </g>
      <g>
        <path class="cls-4" d="M260.94,260.79h9.43l1.64-2.8c.55-.68,1.23-.84,2.05-.48l6.7,5.26c.27.23.41.52.41.89s-.14.66-.41.89l-1.91,1.71v9.09h17.23v-4.65h-3.14v1.23c0,.27-.09.52-.27.75-.18.18-.46.27-.82.27l-6.84.48c-.46.05-.82-.07-1.09-.34s-.41-.62-.41-1.03v-20.03l8.07,1.64h4.51v-2.32h-12.71l-1.91-3.49h14.63v-8l11.35,1.64c.36.05.64.32.82.82.09.37,0,.71-.27,1.03l-2.19,1.64v2.87h6.43l2.05-3.62c.27-.41.64-.66,1.09-.75.36-.04.77.07,1.23.34l5.06,5.26c.36.37.46.8.27,1.3-.09.55-.41.87-.96.96h-7.93l7.38,4.1c.36.23.57.5.62.82.04.32-.07.66-.34,1.03l-1.91,1.91v10.46c0,.46-.23.84-.68,1.16l5.88,5.2c.36.5.46,1.07.27,1.71-.18.59-.64.93-1.37,1.03h-17.09v5.95c-.09.78-.5,1.3-1.23,1.57l-6.15.96c-.55.09-1.09-.04-1.64-.41-.37-.36-.59-.84-.68-1.44v-6.63h-15.18l-2.05-2.94v6.7c3.83,2.96,8.11,4.83,12.85,5.61,1.82.32,3.69.41,5.61.27,9.21-1.05,18.68-1.62,28.44-1.71-2.64,2.28-4.6,5.13-5.88,8.54-6.65,0-13.67.46-21.05,1.37-2.64.32-5.33.09-8.07-.68-5.65-1.73-10.48-4.74-14.49-9.02l-8.48,6.56-.82,1.71c-.27.41-.59.64-.96.68-.46.09-.87-.02-1.23-.34l-5.47-9.23,10.53-2.39v-19.35h-7.52l-1.37-3.76ZM263.81,235.9c4.19.09,7.93,1.32,11.21,3.69,1.09.82,2.05,1.75,2.87,2.8.73.78,1.05,1.73.96,2.87,0,1.41-.46,2.58-1.37,3.49-1,.96-2.19,1.39-3.55,1.3-1.19.09-2.14-.39-2.87-1.44-.73-1.09-1.19-2.16-1.37-3.21-.37-4.15-2.32-7.31-5.88-9.5ZM285.14,230.78c1.55,1.09,2.78,2.35,3.69,3.76h23.79l1.5-2.87c.09-.36.32-.57.68-.62.27-.14.59-.11.96.07l7.93,7.79c.36.37.5.8.41,1.3-.18.46-.55.75-1.09.89-4.92-.09-9.39,1.37-13.4,4.38.18-2.37.73-4.81,1.64-7.31h-21.05c.36,1.73.32,3.51-.14,5.33-.55,1.28-1.37,2.3-2.46,3.08-1.37.91-2.85,1.09-4.44.55-1.6-.55-2.58-1.64-2.94-3.28-.46-1.14-.46-2.32,0-3.55.27-1,.82-1.78,1.64-2.32,2.1-1.96,3.19-4.35,3.28-7.18ZM292.93,257.16v3.42h3.14v-3.42h-3.14ZM292.93,264.2v3.08h3.14v-3.08h-3.14ZM305.78,251.35v2.32h4.24l1.37-2.32h-5.61ZM305.78,257.16v3.42h3.28v-3.42h-3.28ZM305.78,264.2v3.08h3.28v-3.08h-3.28ZM305.78,270.7v4.65h7.66l1.64-3.69-4.24.89c-.46.09-.87-.02-1.23-.34-.37-.23-.55-.62-.55-1.16v-.34h-3.28Z"/>
        <path class="cls-4" d="M336.27,242.81c1.37,1.37,2.42,2.83,3.14,4.38h6.84c-1.55-1-2.32-2.42-2.32-4.24-.09-.82-.25-1.5-.48-2.05-1.23-3.1-2.87-5.83-4.92-8.2,4.47.46,8.52,1.87,12.17,4.24.77.46,1.57,1.05,2.39,1.78,1.32,1.28,1.87,2.78,1.64,4.51-.09,1.73-.87,3.05-2.32,3.96h9.5c-2.23-.46-3.69-1.73-4.38-3.83-.09-.18-.25-.77-.48-1.78-.64-3.65-2.23-6.84-4.79-9.57,4.56.18,8.73,1.55,12.51,4.1.91.64,1.75,1.46,2.53,2.46,1.14,1.37,1.5,2.96,1.09,4.79-.37,1.82-1.39,3.1-3.08,3.83h4.03c2.42-5.74,4.4-11.44,5.95-17.09l10.53,8.34c.46.37.59.87.41,1.5-.14.64-.52.96-1.16.96h-1.78c-3.46,1.55-6.61,3.65-9.43,6.29h8.27l2.6-3.55c.27-.27.64-.46,1.09-.55.46-.09.87,0,1.23.27l8.34,8.34c.41.37.48.78.21,1.23-.23.46-.59.64-1.09.55l-2.05-.41-10.39,3.01,1.64,1.09c.27.18.46.5.55.96,0,.37-.14.68-.41.96l-2.8,2.19v7.93c0,1-.48,1.69-1.44,2.05l-7.11,1.5c-.59.18-1.19.09-1.78-.27-.55-.36-.89-.91-1.03-1.64v-.27h-3.9l-6.02,4.65h16.47l1.71-2.32c.68-.73,1.48-.87,2.39-.41l8.27,5.61c.68.55.77,1.19.27,1.91l-1.71,1.64v12.03c0,1.28-.59,2.1-1.78,2.46l-7.45,1.64c-.59,0-1.14-.14-1.64-.41-.5-.46-.75-1-.75-1.64v-1.5h-26.93v1.09c.09.36-.05.68-.41.96-.23.36-.55.5-.96.41l-8.48.27c-.59,0-1.09-.23-1.5-.68-.41-.46-.62-1-.62-1.64v-22.7l11.35,3.28h6.15l.82-4.65h-1.37v.27c0,.27-.09.59-.27.96-.27.18-.55.27-.82.27l-7.59.55c-.55.09-1.07-.09-1.57-.55-.37-.55-.48-1.09-.34-1.64v-18.05l9.98,2.6h17.64l1.5-2.6c.59-.91,1.32-1.14,2.19-.68l4.65,2.73,1.57-3.83h-39.99c.27,1.28.36,2.51.27,3.69-.18,2.01-.78,3.92-1.78,5.74-1.32,1.64-2.96,2.32-4.92,2.05-2.01-.27-3.42-1.32-4.24-3.14-.59-1.37-.52-2.78.21-4.24.41-1,1-1.82,1.78-2.46,2.92-2.46,4.38-5.61,4.38-9.43ZM348.64,278.63v12.03h26.93v-12.03h-26.93ZM353.63,258.53v8.48h16.06v-8.48h-16.06Z"/>
        <path class="cls-4" d="M408.12,242.26l.68-.27c2,1,4.12,1.44,6.36,1.3l22.35-4.03,3.35-3.83c.73-.59,1.57-.73,2.53-.41,3.6,1.82,6.79,4.15,9.57,6.97.27.32.41.73.41,1.23-.09.5-.3.84-.62,1.03l-2.73,1.78c-3.05,8.16-7,15.97-11.83,23.45,8.25,2.14,15.77,5.7,22.56,10.66,1.55,1.37,2.5,3.1,2.84,5.2.34,2.1-.03,4.03-1.13,5.81-.59,1.28-1.54,2.16-2.84,2.67-1.3.5-2.61.48-3.93-.07-2.19-1.14-3.81-2.92-4.85-5.33-3.14-6.93-8-12.19-14.56-15.79-9.57,10.66-21.33,18.02-35.27,22.08,9.71-6.43,18.21-14.29,25.5-23.58,5.83-7.52,9.39-16,10.66-25.43-5.2.91-10.05,2.17-14.56,3.76-1.23.55-2.37,1.34-3.42,2.39-1.05.82-2.23,1-3.55.55-2.19-.73-3.98-2.02-5.37-3.86-1.39-1.85-2.11-3.93-2.15-6.25Z"/>
        <path class="cls-4" d="M492.4,233.37c3.33-1.59,6.72-1.73,10.19-.41,2.42.91,4.42,2.46,6.02,4.65.32.73.18,1.32-.41,1.78l-.62.62-2.32,4.85c5.88.09,11.37-1.34,16.47-4.31.64-.36,1.3-.36,1.98,0,3.05,1.91,5.74,4.28,8.07,7.11.23.32.34.64.34.96s-.16.59-.48.82l-1.3.75c-2.55,6.84-5.95,13.08-10.19,18.73,1.69,1.28,3.05,2.89,4.1,4.85,1.37,2.28,1.44,4.6.21,6.97-1.19,2.14-2.99,3.21-5.4,3.21-2.32-.14-3.99-1.23-4.99-3.28l-1.3-2.32c-11.67,8.93-24.88,14.51-39.65,16.75,12.99-5.88,24.4-14.15,34.25-24.81-2.83-4.83-6.9-8.16-12.24-9.98-5.74,5.74-12.4,10.03-19.96,12.85,9.66-9.8,16.25-21.4,19.76-34.79.27-1.05.02-1.98-.75-2.8l-1.78-2.19ZM501.84,250.87c-1.55,2.78-3.35,5.47-5.4,8.07,5.33.82,10.48,2.28,15.45,4.38,2.46-4.51,4.26-9.41,5.4-14.7-3.87,1-7.5,2.23-10.87,3.69-.59.23-1.16.21-1.71-.07l-2.87-1.37Z"/>
        <path class="cls-4" d="M582.64,235.97c-.14-.23-.16-.46-.07-.68.04-.27.23-.43.55-.48,2.14-.55,4.26-.41,6.36.41,3.96,1.73,6.9,4.65,8.82,8.75.23.55.21,1.07-.07,1.57-.18.46-.59.75-1.23.89l-2.53.68-12.58,10.12c1.18.27,2.26.82,3.21,1.64.27.23.48.52.62.89,0,.46-.14.8-.41,1.03l-1.23,1.98c0,10.12.3,19.89.89,29.33-.05,1.05-.5,1.96-1.37,2.73-.91.73-1.91,1.03-3.01.89-1.64-.14-3.12-.66-4.44-1.57-1.32-.91-2.37-2.1-3.14-3.55-.41-1.05-.52-2.07-.34-3.08,1.41-8.16,1.69-16.43.82-24.81-10.66,6.2-22.06,10.14-34.18,11.83,18.23-7.06,33.02-18.62,44.37-34.66.73-1.09.66-2.1-.21-3.01l-.82-.89Z"/>
        <path class="cls-4" d="M620.58,246.64c1.87-2,4.24-2.76,7.11-2.26,3.42.5,6.17,2.14,8.27,4.92.46.68.6,1.45.44,2.29-.16.84-.6,1.49-1.33,1.95.27,8.52-1.34,16.54-4.85,24.06-2.14,3.87-4.92,7.16-8.34,9.84-3.42,2.69-7.27,4.65-11.55,5.88,5.33-5.65,9.16-12.09,11.48-19.31,2.32-7.22,3.03-14.69,2.12-22.39-.14-1.37-.73-2.57-1.78-3.62l-1.57-1.37ZM635.55,237.95c2.19-1.55,4.6-2.19,7.25-1.91,3.87.73,7.09,2.51,9.64,5.33.96.96,1.03,2.01.21,3.14-.55.73-.89,1.55-1.03,2.46l-1.5,25.57c10.53-5.33,18.64-13.17,24.34-23.52-1.41,7.29-4.03,14.04-7.86,20.23-3.83,6.2-8.68,11.55-14.56,16.06-.68.68-1.03,1.5-1.03,2.46,0,.32-.16.57-.48.75-.37.23-.71.23-1.03,0-4.06-2.42-7.59-5.17-10.6-8.27-.41-.55-.43-1.09-.07-1.64,1.09-2.14,1.5-4.33,1.23-6.56l-.82-28.57c-.09-1.55-.62-2.85-1.57-3.9l-2.12-1.64Z"/>
      </g>
    </g>
    <g>
      <g>
        <path class="cls-1" d="M83.65,131.62l10.39,2.8c.46.14.73.48.82,1.03.27.5.18.96-.27,1.37l-2.19,1.78v16.95c2.19-4.38,3.51-8.89,3.96-13.54l7.79,6.9c.36.37.46.84.27,1.44-.18.59-.55.91-1.09.96l-1.78.21c-2.73,3.51-5.79,6.68-9.16,9.5v5.81c-.09,1.6-.37,3.12-.82,4.58,4.01,1.28,7.15,3.69,9.43,7.25.91,1.73,1.32,3.6,1.23,5.61,0,1.09-.41,2.04-1.23,2.84-.82.8-1.75,1.22-2.8,1.26-1.05.05-2.01-.28-2.87-.99-.87-.71-1.39-1.61-1.57-2.7-.27-1.05-.37-2.16-.27-3.35.27-2.92-.55-5.49-2.46-7.72-1.55,4.79-3.92,9.07-7.11,12.85-3.19,3.78-7.02,6.79-11.48,9.02,7.11-7.43,10.85-16.29,11.21-26.59v-37.26ZM76.95,145.9c3.01,3.42,4.92,7.34,5.74,11.76.55,2.1.27,4.08-.82,5.95-.82,1.55-2.14,2.32-3.96,2.32s-3.19-.8-4.1-2.39c-.82-2.32-.41-4.42,1.23-6.29,2.1-3.51,2.73-7.29,1.91-11.35ZM111.13,128.27l13.4,7.04c.46.32.64.71.55,1.16-.09.46-.37.75-.82.89l-2.19.82c-1.55,4.83-3.6,9.14-6.15,12.92h10.53l1.91-2.73c.27-.41.68-.62,1.23-.62s.96.16,1.23.48l6.84,5.74c.27.23.41.52.41.89,0,.41-.14.71-.41.89l-1.5,1.64c-.09,10.76-1.14,21.44-3.14,32.06-.64,3.65-2.73,6.2-6.29,7.66-1.55.68-3.19.66-4.92-.07-1.09-.5-2.1-1.25-3.01-2.26-1.73-3.74-4.42-6.45-8.07-8.13l9.3,1.3c.91.23,1.78.02,2.6-.62.82-.55,1.32-1.34,1.5-2.39,1.64-10.07,2.28-20.17,1.91-30.28h-12.58c-1,1.41-2.51,3.14-4.51,5.2,4.1,1.78,7.56,4.42,10.39,7.93,1.64,2.05,2.23,4.33,1.78,6.84-.18,1.14-.71,2.08-1.57,2.84-.87.75-1.87,1.15-3.01,1.2-1.14.05-2.17-.27-3.08-.96-.91-.68-1.5-1.59-1.78-2.73-.46-1.55-.46-3.19,0-4.92.09-3.51-1.09-6.61-3.55-9.3-2.37,2.28-4.79,4.26-7.25,5.95,7.2-11.76,10.62-24.56,10.25-38.42Z"/>
        <path class="cls-1" d="M144.97,139.2h10.12v-9.3l10.94,2.8c.59.14.89.5.89,1.09s-.25,1-.75,1.23l-1.85.89v3.28h1.57l1.44-2.73c.18-.27.48-.41.89-.41.23,0,.5.11.82.34l5.47,5.06c.32.23.39.52.21.89-.14.37-.39.55-.75.55h-9.64v3.76h1.57l2.6-2.46c.55-.64,1.12-.64,1.71,0l2.67,2.46,6.02-.96v-16.47l11.07,3.01c.5.23.8.64.89,1.23,0,.59-.25,1-.75,1.23l-1.98,1.44v7.79l1.85-.34,1.85-2.67c.5-.46,1.05-.5,1.64-.14l6.97,5.61c.46.55.43,1.07-.07,1.57l-2.12,1.78v17.91c0,.64.3,1.09.89,1.37.68.27,1.37.27,2.05,0,.41-.23.68-.52.82-.89l1.98-11.83,1.16,7.25c.27,1.5.93,2.89,1.98,4.17.46.68.8,1.44,1.03,2.26.18,1.05.02,2.07-.48,3.08-.5,1-1.25,1.73-2.26,2.19-3.96,1.28-7.93,1.32-11.89.14-2.14-.77-3.26-2.28-3.35-4.51v-5.95c-1,.91-2.23,1.3-3.69,1.16-1.37-.27-2.42-1.03-3.14-2.26-3.96,6.24-9.48,10.53-16.54,12.85,4.83,3.14,7.36,7.57,7.59,13.26.04,1.46-.49,2.73-1.61,3.83-1.12,1.09-2.4,1.62-3.86,1.57-1.46-.05-2.71-.64-3.76-1.78-1.05-1.14-1.53-2.46-1.44-3.96,1.28-5.1,1.14-10.16-.41-15.18l1.85,1.16c2.87-2.19,5.24-4.58,7.11-7.18l-19.76,8.75-.62,1.91c-.23.59-.59.96-1.09,1.09-.64.14-1.14.02-1.5-.34l-6.43-9.23,12.24-1.78v-3.76h-6.7l-1.85-2.73c-1.28.5-2.6.93-3.96,1.3,3.37-3.46,5.88-7.56,7.52-12.3h-5.47l-2.53-4.79h12.99v-3.62h-8.27l-1.85-3.69ZM157.75,176.32c2.19,5.88,1.78,11.51-1.23,16.88-1.5,1.87-3.4,2.55-5.67,2.05-1.05-.23-1.95-.74-2.7-1.54-.75-.8-1.24-1.72-1.47-2.77-.37-2.42.43-4.26,2.39-5.54,3.74-2.19,6.63-5.22,8.68-9.09ZM155.08,161.56v-5.06c-2.14,2.05-4.44,3.74-6.9,5.06h6.9ZM158.78,151.3c-.09.14-.25.4-.48.79-.23.39-.39.67-.48.85l8.07,3.21c.27.14.46.41.55.82,0,.37-.14.64-.41.82l-1.71,1.44v2.32h1.91l1.98-3.42c-.27-.36-.43-.73-.48-1.09-.59-2.05-1.57-3.96-2.94-5.74h-6.02ZM164.31,165.04v2.32l9.5-1.3c2-3.28,3.37-6.65,4.1-10.12-1.73-1.73-3.69-3.28-5.88-4.65h-1.91c1.46.59,2.83,1.46,4.1,2.6,1.05,1.05,1.32,2.3.82,3.76-.46,1.5-1.46,2.32-3.01,2.46l2.32,3.08c.23.37.27.73.14,1.09-.18.46-.5.71-.96.75h-9.23ZM178.87,149.87l-3.49.68c-.09.27-.3.52-.62.75,1.41.09,2.71.3,3.9.62l.21-2.05ZM176.41,175.84c3.19,1.28,5.9,3.17,8.13,5.67,2.23,2.51,3.83,5.4,4.79,8.68.46,2.1-.25,3.78-2.12,5.06-1.82,1.28-3.65,1.3-5.47.07-1.91-1.19-2.69-2.85-2.32-4.99.55-5.2-.46-10.03-3.01-14.49ZM188.17,148.09c-.09,2.6-.5,5.04-1.23,7.31,1.14.68,2.21,1.55,3.21,2.6v-10.25l-1.98.34ZM187.9,175.3c3.55.46,6.77,1.79,9.64,4,2.87,2.21,4.99,4.96,6.36,8.24.77,2.37.25,4.35-1.57,5.95-1.82,1.59-3.85,1.87-6.08.82-2.14-1.09-3.14-2.87-3.01-5.33-.14-5.2-1.91-9.75-5.33-13.67Z"/>
      </g>
      <g>
        <path class="cls-3" d="M83.65,131.62l10.39,2.8c.46.14.73.48.82,1.03.27.5.18.96-.27,1.37l-2.19,1.78v16.95c2.19-4.38,3.51-8.89,3.96-13.54l7.79,6.9c.36.37.46.84.27,1.44-.18.59-.55.91-1.09.96l-1.78.21c-2.73,3.51-5.79,6.68-9.16,9.5v5.81c-.09,1.6-.37,3.12-.82,4.58,4.01,1.28,7.15,3.69,9.43,7.25.91,1.73,1.32,3.6,1.23,5.61,0,1.09-.41,2.04-1.23,2.84-.82.8-1.75,1.22-2.8,1.26-1.05.05-2.01-.28-2.87-.99-.87-.71-1.39-1.61-1.57-2.7-.27-1.05-.37-2.16-.27-3.35.27-2.92-.55-5.49-2.46-7.72-1.55,4.79-3.92,9.07-7.11,12.85-3.19,3.78-7.02,6.79-11.48,9.02,7.11-7.43,10.85-16.29,11.21-26.59v-37.26ZM76.95,145.9c3.01,3.42,4.92,7.34,5.74,11.76.55,2.1.27,4.08-.82,5.95-.82,1.55-2.14,2.32-3.96,2.32s-3.19-.8-4.1-2.39c-.82-2.32-.41-4.42,1.23-6.29,2.1-3.51,2.73-7.29,1.91-11.35ZM111.13,128.27l13.4,7.04c.46.32.64.71.55,1.16-.09.46-.37.75-.82.89l-2.19.82c-1.55,4.83-3.6,9.14-6.15,12.92h10.53l1.91-2.73c.27-.41.68-.62,1.23-.62s.96.16,1.23.48l6.84,5.74c.27.23.41.52.41.89,0,.41-.14.71-.41.89l-1.5,1.64c-.09,10.76-1.14,21.44-3.14,32.06-.64,3.65-2.73,6.2-6.29,7.66-1.55.68-3.19.66-4.92-.07-1.09-.5-2.1-1.25-3.01-2.26-1.73-3.74-4.42-6.45-8.07-8.13l9.3,1.3c.91.23,1.78.02,2.6-.62.82-.55,1.32-1.34,1.5-2.39,1.64-10.07,2.28-20.17,1.91-30.28h-12.58c-1,1.41-2.51,3.14-4.51,5.2,4.1,1.78,7.56,4.42,10.39,7.93,1.64,2.05,2.23,4.33,1.78,6.84-.18,1.14-.71,2.08-1.57,2.84-.87.75-1.87,1.15-3.01,1.2-1.14.05-2.17-.27-3.08-.96-.91-.68-1.5-1.59-1.78-2.73-.46-1.55-.46-3.19,0-4.92.09-3.51-1.09-6.61-3.55-9.3-2.37,2.28-4.79,4.26-7.25,5.95,7.2-11.76,10.62-24.56,10.25-38.42Z"/>
        <path class="cls-3" d="M144.97,139.2h10.12v-9.3l10.94,2.8c.59.14.89.5.89,1.09s-.25,1-.75,1.23l-1.85.89v3.28h1.57l1.44-2.73c.18-.27.48-.41.89-.41.23,0,.5.11.82.34l5.47,5.06c.32.23.39.52.21.89-.14.37-.39.55-.75.55h-9.64v3.76h1.57l2.6-2.46c.55-.64,1.12-.64,1.71,0l2.67,2.46,6.02-.96v-16.47l11.07,3.01c.5.23.8.64.89,1.23,0,.59-.25,1-.75,1.23l-1.98,1.44v7.79l1.85-.34,1.85-2.67c.5-.46,1.05-.5,1.64-.14l6.97,5.61c.46.55.43,1.07-.07,1.57l-2.12,1.78v17.91c0,.64.3,1.09.89,1.37.68.27,1.37.27,2.05,0,.41-.23.68-.52.82-.89l1.98-11.83,1.16,7.25c.27,1.5.93,2.89,1.98,4.17.46.68.8,1.44,1.03,2.26.18,1.05.02,2.07-.48,3.08-.5,1-1.25,1.73-2.26,2.19-3.96,1.28-7.93,1.32-11.89.14-2.14-.77-3.26-2.28-3.35-4.51v-5.95c-1,.91-2.23,1.3-3.69,1.16-1.37-.27-2.42-1.03-3.14-2.26-3.96,6.24-9.48,10.53-16.54,12.85,4.83,3.14,7.36,7.57,7.59,13.26.04,1.46-.49,2.73-1.61,3.83-1.12,1.09-2.4,1.62-3.86,1.57-1.46-.05-2.71-.64-3.76-1.78-1.05-1.14-1.53-2.46-1.44-3.96,1.28-5.1,1.14-10.16-.41-15.18l1.85,1.16c2.87-2.19,5.24-4.58,7.11-7.18l-19.76,8.75-.62,1.91c-.23.59-.59.96-1.09,1.09-.64.14-1.14.02-1.5-.34l-6.43-9.23,12.24-1.78v-3.76h-6.7l-1.85-2.73c-1.28.5-2.6.93-3.96,1.3,3.37-3.46,5.88-7.56,7.52-12.3h-5.47l-2.53-4.79h12.99v-3.62h-8.27l-1.85-3.69ZM157.75,176.32c2.19,5.88,1.78,11.51-1.23,16.88-1.5,1.87-3.4,2.55-5.67,2.05-1.05-.23-1.95-.74-2.7-1.54-.75-.8-1.24-1.72-1.47-2.77-.37-2.42.43-4.26,2.39-5.54,3.74-2.19,6.63-5.22,8.68-9.09ZM155.08,161.56v-5.06c-2.14,2.05-4.44,3.74-6.9,5.06h6.9ZM158.78,151.3c-.09.14-.25.4-.48.79-.23.39-.39.67-.48.85l8.07,3.21c.27.14.46.41.55.82,0,.37-.14.64-.41.82l-1.71,1.44v2.32h1.91l1.98-3.42c-.27-.36-.43-.73-.48-1.09-.59-2.05-1.57-3.96-2.94-5.74h-6.02ZM164.31,165.04v2.32l9.5-1.3c2-3.28,3.37-6.65,4.1-10.12-1.73-1.73-3.69-3.28-5.88-4.65h-1.91c1.46.59,2.83,1.46,4.1,2.6,1.05,1.05,1.32,2.3.82,3.76-.46,1.5-1.46,2.32-3.01,2.46l2.32,3.08c.23.37.27.73.14,1.09-.18.46-.5.71-.96.75h-9.23ZM178.87,149.87l-3.49.68c-.09.27-.3.52-.62.75,1.41.09,2.71.3,3.9.62l.21-2.05ZM176.41,175.84c3.19,1.28,5.9,3.17,8.13,5.67,2.23,2.51,3.83,5.4,4.79,8.68.46,2.1-.25,3.78-2.12,5.06-1.82,1.28-3.65,1.3-5.47.07-1.91-1.19-2.69-2.85-2.32-4.99.55-5.2-.46-10.03-3.01-14.49ZM188.17,148.09c-.09,2.6-.5,5.04-1.23,7.31,1.14.68,2.21,1.55,3.21,2.6v-10.25l-1.98.34ZM187.9,175.3c3.55.46,6.77,1.79,9.64,4,2.87,2.21,4.99,4.96,6.36,8.24.77,2.37.25,4.35-1.57,5.95-1.82,1.59-3.85,1.87-6.08.82-2.14-1.09-3.14-2.87-3.01-5.33-.14-5.2-1.91-9.75-5.33-13.67Z"/>
      </g>
      <g>
        <path class="cls-1" d="M83.65,131.62l10.39,2.8c.46.14.73.48.82,1.03.27.5.18.96-.27,1.37l-2.19,1.78v16.95c2.19-4.38,3.51-8.89,3.96-13.54l7.79,6.9c.36.37.46.84.27,1.44-.18.59-.55.91-1.09.96l-1.78.21c-2.73,3.51-5.79,6.68-9.16,9.5v5.81c-.09,1.6-.37,3.12-.82,4.58,4.01,1.28,7.15,3.69,9.43,7.25.91,1.73,1.32,3.6,1.23,5.61,0,1.09-.41,2.04-1.23,2.84-.82.8-1.75,1.22-2.8,1.26-1.05.05-2.01-.28-2.87-.99-.87-.71-1.39-1.61-1.57-2.7-.27-1.05-.37-2.16-.27-3.35.27-2.92-.55-5.49-2.46-7.72-1.55,4.79-3.92,9.07-7.11,12.85-3.19,3.78-7.02,6.79-11.48,9.02,7.11-7.43,10.85-16.29,11.21-26.59v-37.26ZM76.95,145.9c3.01,3.42,4.92,7.34,5.74,11.76.55,2.1.27,4.08-.82,5.95-.82,1.55-2.14,2.32-3.96,2.32s-3.19-.8-4.1-2.39c-.82-2.32-.41-4.42,1.23-6.29,2.1-3.51,2.73-7.29,1.91-11.35ZM111.13,128.27l13.4,7.04c.46.32.64.71.55,1.16-.09.46-.37.75-.82.89l-2.19.82c-1.55,4.83-3.6,9.14-6.15,12.92h10.53l1.91-2.73c.27-.41.68-.62,1.23-.62s.96.16,1.23.48l6.84,5.74c.27.23.41.52.41.89,0,.41-.14.71-.41.89l-1.5,1.64c-.09,10.76-1.14,21.44-3.14,32.06-.64,3.65-2.73,6.2-6.29,7.66-1.55.68-3.19.66-4.92-.07-1.09-.5-2.1-1.25-3.01-2.26-1.73-3.74-4.42-6.45-8.07-8.13l9.3,1.3c.91.23,1.78.02,2.6-.62.82-.55,1.32-1.34,1.5-2.39,1.64-10.07,2.28-20.17,1.91-30.28h-12.58c-1,1.41-2.51,3.14-4.51,5.2,4.1,1.78,7.56,4.42,10.39,7.93,1.64,2.05,2.23,4.33,1.78,6.84-.18,1.14-.71,2.08-1.57,2.84-.87.75-1.87,1.15-3.01,1.2-1.14.05-2.17-.27-3.08-.96-.91-.68-1.5-1.59-1.78-2.73-.46-1.55-.46-3.19,0-4.92.09-3.51-1.09-6.61-3.55-9.3-2.37,2.28-4.79,4.26-7.25,5.95,7.2-11.76,10.62-24.56,10.25-38.42Z"/>
        <path class="cls-1" d="M144.97,139.2h10.12v-9.3l10.94,2.8c.59.14.89.5.89,1.09s-.25,1-.75,1.23l-1.85.89v3.28h1.57l1.44-2.73c.18-.27.48-.41.89-.41.23,0,.5.11.82.34l5.47,5.06c.32.23.39.52.21.89-.14.37-.39.55-.75.55h-9.64v3.76h1.57l2.6-2.46c.55-.64,1.12-.64,1.71,0l2.67,2.46,6.02-.96v-16.47l11.07,3.01c.5.23.8.64.89,1.23,0,.59-.25,1-.75,1.23l-1.98,1.44v7.79l1.85-.34,1.85-2.67c.5-.46,1.05-.5,1.64-.14l6.97,5.61c.46.55.43,1.07-.07,1.57l-2.12,1.78v17.91c0,.64.3,1.09.89,1.37.68.27,1.37.27,2.05,0,.41-.23.68-.52.82-.89l1.98-11.83,1.16,7.25c.27,1.5.93,2.89,1.98,4.17.46.68.8,1.44,1.03,2.26.18,1.05.02,2.07-.48,3.08-.5,1-1.25,1.73-2.26,2.19-3.96,1.28-7.93,1.32-11.89.14-2.14-.77-3.26-2.28-3.35-4.51v-5.95c-1,.91-2.23,1.3-3.69,1.16-1.37-.27-2.42-1.03-3.14-2.26-3.96,6.24-9.48,10.53-16.54,12.85,4.83,3.14,7.36,7.57,7.59,13.26.04,1.46-.49,2.73-1.61,3.83-1.12,1.09-2.4,1.62-3.86,1.57-1.46-.05-2.71-.64-3.76-1.78-1.05-1.14-1.53-2.46-1.44-3.96,1.28-5.1,1.14-10.16-.41-15.18l1.85,1.16c2.87-2.19,5.24-4.58,7.11-7.18l-19.76,8.75-.62,1.91c-.23.59-.59.96-1.09,1.09-.64.14-1.14.02-1.5-.34l-6.43-9.23,12.24-1.78v-3.76h-6.7l-1.85-2.73c-1.28.5-2.6.93-3.96,1.3,3.37-3.46,5.88-7.56,7.52-12.3h-5.47l-2.53-4.79h12.99v-3.62h-8.27l-1.85-3.69ZM157.75,176.32c2.19,5.88,1.78,11.51-1.23,16.88-1.5,1.87-3.4,2.55-5.67,2.05-1.05-.23-1.95-.74-2.7-1.54-.75-.8-1.24-1.72-1.47-2.77-.37-2.42.43-4.26,2.39-5.54,3.74-2.19,6.63-5.22,8.68-9.09ZM155.08,161.56v-5.06c-2.14,2.05-4.44,3.74-6.9,5.06h6.9ZM158.78,151.3c-.09.14-.25.4-.48.79-.23.39-.39.67-.48.85l8.07,3.21c.27.14.46.41.55.82,0,.37-.14.64-.41.82l-1.71,1.44v2.32h1.91l1.98-3.42c-.27-.36-.43-.73-.48-1.09-.59-2.05-1.57-3.96-2.94-5.74h-6.02ZM164.31,165.04v2.32l9.5-1.3c2-3.28,3.37-6.65,4.1-10.12-1.73-1.73-3.69-3.28-5.88-4.65h-1.91c1.46.59,2.83,1.46,4.1,2.6,1.05,1.05,1.32,2.3.82,3.76-.46,1.5-1.46,2.32-3.01,2.46l2.32,3.08c.23.37.27.73.14,1.09-.18.46-.5.71-.96.75h-9.23ZM178.87,149.87l-3.49.68c-.09.27-.3.52-.62.75,1.41.09,2.71.3,3.9.62l.21-2.05ZM176.41,175.84c3.19,1.28,5.9,3.17,8.13,5.67,2.23,2.51,3.83,5.4,4.79,8.68.46,2.1-.25,3.78-2.12,5.06-1.82,1.28-3.65,1.3-5.47.07-1.91-1.19-2.69-2.85-2.32-4.99.55-5.2-.46-10.03-3.01-14.49ZM188.17,148.09c-.09,2.6-.5,5.04-1.23,7.31,1.14.68,2.21,1.55,3.21,2.6v-10.25l-1.98.34ZM187.9,175.3c3.55.46,6.77,1.79,9.64,4,2.87,2.21,4.99,4.96,6.36,8.24.77,2.37.25,4.35-1.57,5.95-1.82,1.59-3.85,1.87-6.08.82-2.14-1.09-3.14-2.87-3.01-5.33-.14-5.2-1.91-9.75-5.33-13.67Z"/>
      </g>
    </g>
    <g>
      <g>
        <path class="cls-2" d="M264.12,144.88c2.64,3.65,3.9,7.79,3.76,12.44-.09,1.19-.32,2.28-.68,3.28-.41.91-1.05,1.64-1.91,2.19-1.19.73-2.42.91-3.69.55-1.32-.36-2.28-1.14-2.87-2.32-.59-1.09-.75-2.19-.48-3.28s.77-2.05,1.5-2.87c2.92-2.73,4.38-6.06,4.38-9.98ZM268.63,130.93l9.98,3.28c.46.18.73.55.82,1.09,0,.55-.21,1-.62,1.37l-1.64.96v5.88c3.55.09,6.4,1.55,8.54,4.38h10.66v-4.1h-11.62l-1.91-3.83h13.54v-10.12l11.42,2.46c.55.09.93.46,1.16,1.09.09.64-.05,1.14-.41,1.5l-2.26,1.78v3.28h5.47l2.87-4.51c.23-.36.5-.55.82-.55.27-.09.62-.04,1.03.14l5.13,5.33c.68.55.82,1.28.41,2.19-.32.82-.93,1.23-1.85,1.23h-13.88v4.1h5.33l2.32-3.14c.18-.27.5-.46.96-.55.46,0,.82.14,1.09.41l3.96,4.38c.41.37.52.87.34,1.5-.27.64-.73.96-1.37.96h-12.65v5.47h7.59l2.87-3.69c.41-.46.89-.73,1.44-.82.64-.09,1.18.05,1.64.41l4.24,4.79c.41.64.48,1.28.21,1.91-.27.64-.78,1-1.5,1.09h-40.26l-1.44-3.69h15.31v-5.47h-9.09c.14.82.04,1.55-.27,2.19-.64,1.09-1.56,1.85-2.77,2.26-1.21.41-2.38.34-3.52-.21-.82-.36-1.46-.96-1.91-1.78-.32-.91-.46-1.78-.41-2.6.23-2-.18-3.87-1.23-5.61v48.95c0,.55-.16.98-.48,1.3-.32.32-.71.52-1.16.62l-5.06.27c-.55,0-.98-.14-1.3-.41-.37-.37-.55-.73-.55-1.09v-64.39ZM285.11,161.42l9.71,2.6h13.88l1.85-2.05c.82-1,1.8-1.14,2.94-.41l6.43,4.65c.32.18.48.46.48.82s-.11.68-.34.96l-1.57,1.64v18.87c0,1.46-.41,2.73-1.23,3.83-2.14,2.83-4.95,4.38-8.41,4.65-1.32.09-2.35-.41-3.08-1.5-1.73-2.83-4.01-4.92-6.84-6.29,2.32,0,4.51.18,6.56.55.68.09,1.32-.07,1.91-.48.59-.41.93-.98,1.03-1.71v-5.33h-13.26v12.44c0,.91-.46,1.5-1.37,1.78l-6.36.82c-.68,0-1.23-.23-1.64-.68-.46-.37-.68-.87-.68-1.5v-33.63ZM295.16,167.71v3.28h13.26v-3.28h-13.26ZM295.16,174.82v3.42h13.26v-3.42h-13.26Z"/>
        <path class="cls-2" d="M338.57,130.38l11.21,2.32c.36.18.64.5.82.96.09.46,0,.82-.27,1.09l-1.91,2.19v6.02h1.91l2.87-4.1c.18-.27.55-.46,1.09-.55.46-.09.82.05,1.09.41l4.92,6.02c.27.46.27.91,0,1.37-.27.37-.64.55-1.09.55h-10.8v7.79h2.6l3.28-4.79c.18-.27.5-.46.96-.55.36,0,.68.14.96.41l4.92,5.33v-23.11l10.39,3.42h8.34l2.73-3.42c.27-.36.59-.55.96-.55.27-.09.59-.04.96.14l6.7,4.51c.46.27.68.64.68,1.09,0,.55-.18.96-.55,1.23l-1.78,1.37c-.46,4.38-1.28,8.66-2.46,12.85-.64,1.73-1.75,3.1-3.35,4.1-1.6,1-3.35,1.32-5.26.96-.73-.09-1.28-.5-1.64-1.23-1.28-2.55-3.14-4.6-5.61-6.15l6.02.68c.46.09.82,0,1.09-.27s.46-.64.55-1.09c.64-3.55,1-7.2,1.09-10.94h-9.02v22.42h10.39l1.91-2.46c.55-.64,1.14-.77,1.78-.41l6.29,4.79c.46.27.68.68.68,1.23s-.18.96-.55,1.23l-1.37,1.09c-.55,5.65-2.32,10.76-5.33,15.31,3.19,3.01,6.93,5.15,11.21,6.43-3.19,1.82-6.29,3.92-9.3,6.29-2.55-2.1-4.83-4.38-6.84-6.84-2.55,2.55-5.51,4.65-8.89,6.29,0,.27-.18.41-.55.41l-6.97,1.91c-.64,0-1.16-.18-1.57-.55-.41-.37-.66-.87-.75-1.5v-22.42h-12.71v6.97h2.19l2.87-3.96c.18-.27.5-.46.96-.55.36,0,.68.14.96.41l4.92,4.79c.46.55.55,1.14.27,1.78-.27.55-.73.87-1.37.96h-10.8v11.07c0,.82-.41,1.41-1.23,1.78l-6.15,1.64c-.46.09-.91-.05-1.37-.41-.37-.37-.59-.82-.68-1.37v-12.71h-8.61l-1.78-3.42h10.39v-6.97h-10.39l-1.78-3.42h8.07c-1.55-1.46-2.01-3.19-1.37-5.2.55-1.64.55-3.33,0-5.06h-5.61l-1.37-3.55h12.03v-7.79h-8.2l-1.37-3.69h9.57v-12.58ZM337.61,158c1.91.82,3.37,2.14,4.38,3.96.64,1,.87,2.1.68,3.28-.18,1.19-.73,2.19-1.64,3.01h5.06l.96-10.25h-9.43ZM354.97,158l2.05,1.09c.36.37.5.78.41,1.23-.18.46-.5.78-.96.96l-2.05.41-5.88,6.56h3.28l2.87-4.92c.27-.36.55-.55.82-.55.36,0,.68.14.96.41l4.65,5.06v-10.25h-6.15ZM370.97,164.43v26.93c2.37-2.64,4.28-5.61,5.74-8.89-3.01-5.47-4.51-11.48-4.51-18.05h-1.23ZM374.93,164.43c.82,4.01,2.28,7.7,4.38,11.07,1.09-3.65,1.59-7.34,1.5-11.07h-5.88Z"/>
        <path class="cls-2" d="M450.47,132.16c.5.27.75.68.75,1.23,0,.64-.27,1.03-.82,1.16-.91.32-1.37.93-1.37,1.85v2.8h3.42l2.6-4.1c.64-.64,1.32-.64,2.05,0l6.08,5.61c.36.37.43.78.21,1.23-.14.46-.46.73-.96.82h-13.4v5.13h3.08l2.12-3.49c.27-.32.62-.48,1.03-.48s.77.16,1.09.48l6.08,5.47c.23.32.23.66,0,1.03-.27.32-.59.46-.96.41h-12.44v5.33h4.65l3.01-3.96c.32-.32.71-.48,1.16-.48s.84.16,1.16.48l5.4,5.81c.18.32.21.71.07,1.16-.23.37-.52.57-.89.62h-38.08l-1.16-1.91h-6.7v1.71c4.38,1.05,7.61,3.55,9.71,7.52.82,1.73.57,3.33-.75,4.79-1.19,1.46-2.71,1.9-4.58,1.33-1.87-.57-2.92-1.79-3.14-3.66-.14-1.55-.55-3.03-1.23-4.44v28.03c.09.64-.03,1.23-.38,1.78s-.81.91-1.4,1.09l-5.61,1.09c-.41,0-.75-.11-1.03-.34-.32-.37-.48-.71-.48-1.03v-19.89c-3.24,3.05-6.81,5.92-10.73,8.61,4.56-8.29,7.95-17.16,10.19-26.59h-8.41l-1.98-3.96h10.94v-23.93l10.19,2.6c.55.23.87.66.96,1.3.09.59-.14,1.07-.68,1.44-.91.41-1.44,1.07-1.57,1.98v11.96c1.91-5.01,3.01-10.03,3.28-15.04l7.04,4.51h10.66v-10.32l11.83,3.28ZM398.45,135.72c4.97,2.19,8.09,5.9,9.37,11.14.23.91.17,1.82-.17,2.73-.34.91-.91,1.62-1.71,2.12-.8.5-1.67.74-2.63.72-.96-.02-1.8-.31-2.53-.85-.78-.59-1.3-1.34-1.57-2.26-.27-.91-.25-1.82.07-2.73.68-3.69.41-7.31-.82-10.87ZM427.64,147.88h11.01v-5.13h-10.87l-10.12,11.62h1.71l2.26-3.69c.36-.5.8-.75,1.3-.75.59,0,1.07.23,1.44.68l4.31,6.02h9.98v-5.33h-9.16l-1.85-3.42ZM449.99,163.81l1.71-2.46c.32-.32.72-.49,1.2-.51.48-.02.88.13,1.2.44l7.04,4.17c.41.32.57.68.48,1.09-.09.5-.34.82-.75.96-.78.37-1.16.96-1.16,1.78v19.89c.09,2.83-1.05,5.01-3.42,6.56-2.32,1.64-4.79,1.89-7.38.75-1.78-.91-3.17-2.1-4.17-3.55-1.09-1.5-2.53-2.46-4.31-2.87h7.93c.41,0,.75-.16,1.03-.48.23-.23.34-.57.34-1.03v-5.54h-11.07v10.12c0,1.46-.66,2.48-1.98,3.08l-5.33.89c-.68.18-1.32.04-1.91-.41-.64-.37-.96-.91-.96-1.64v-33.5l9.09,2.26h12.44ZM438.64,167.57v3.83h11.07v-3.83h-11.07ZM438.64,175.16v4.03h11.07v-4.03h-11.07Z"/>
        <path class="cls-2" d="M470.91,143.92h23.52v-12.99l13.12,3.42c.46.18.73.52.82,1.03.09.5-.09.93-.55,1.3l-2.6,1.78v5.47h12.99l4.24-4.92c.27-.36.66-.55,1.16-.55s.89.14,1.16.41l7.52,7.11c.27.37.3.73.07,1.09-.23.37-.57.55-1.03.55h-24.47c8.57,6.47,18.09,10.94,28.57,13.4-3.83,1.73-7.06,4.24-9.71,7.52-8.11-4.47-14.95-10.44-20.51-17.91v12.58c0,.82-.41,1.37-1.23,1.64l-8.07,1.23c-.46,0-.82-.14-1.09-.41-.27-.36-.41-.77-.41-1.23v-8.34c-3.1,2.92-6.65,5.61-10.66,8.07l7.66,2.87h19.41l2.87-3.28c.55-.46,1.14-.5,1.78-.14l8.61,5.74c.18.18.27.46.27.82s-.14.64-.41.82l-2.73,1.78v19h1.37l2.87-3.14c.36-.27.68-.41.96-.41.46,0,.77.14.96.41l5.74,5.61c.36.36.41.77.14,1.23-.09.46-.41.68-.96.68h-60.57l-3.28-4.38h11.89v-25.57c-4.28,2.28-8.71,4.01-13.26,5.2,9.48-5.83,16.86-13.76,22.15-23.79h-15.86l-2.46-3.69ZM491.42,170.58v4.38h19.41v-4.38h-19.41ZM491.42,178.92v4.24h19.41v-4.24h-19.41ZM491.42,186.99v4.79h19.41v-4.79h-19.41Z"/>
      </g>
      <g>
        <path class="cls-1" d="M287.43,204.24c-2.48,0-4.76-.92-6.46-2.6-.02-.02-.05-.05-.07-.07-1.16.93-2.51,1.56-3.97,1.85-.33.07-.67.11-1.01.13l-5.06.27c-.13,0-.25.01-.38.01-2.23,0-4.26-.73-5.86-2.1-.13-.12-.26-.24-.39-.36-1.67-1.67-2.6-3.82-2.6-6.04v-24.88c-.66-.07-1.32-.2-1.97-.39-3.11-.86-5.67-2.93-7.15-5.82-1.39-2.61-1.75-5.45-1.06-8.21.55-2.2,1.58-4.16,3.06-5.83.14-.16.29-.31.44-.45,1.52-1.42,2.16-2.88,2.16-4.87,0-2.92,1.81-5.52,4.51-6.54v-7.4c0-2.25,1.08-4.35,2.9-5.67,1.21-.88,2.65-1.33,4.1-1.33.73,0,1.47.12,2.19.35l9.98,3.28c.14.05.28.1.42.15,2.33.94,4.08,2.85,4.83,5.24h3.34v-3.12c0-2.12.96-4.12,2.6-5.45,1.26-1.01,2.81-1.55,4.4-1.55.49,0,.99.05,1.48.16l11.32,2.44c1.82.36,3.42,1.28,4.63,2.64.17-.04.33-.07.5-.09.47-.09.95-.13,1.44-.13,1.19,0,2.39.26,3.56.78.83.37,1.58.89,2.21,1.55l4.91,5.11c2.78,2.54,3.58,6.38,2.03,9.98-.36.87-.83,1.65-1.4,2.34.29,1,.39,2.06.28,3.14l1.95,2.21c.24.27.46.56.65.86,1.67,2.6,1.94,5.68.75,8.46-.72,1.67-1.89,3.03-3.37,3.97.03.26.04.53.04.79,0,1.99-.66,3.85-1.91,5.38v16.09c0,2.96-.91,5.73-2.63,8.03-3.37,4.44-8.01,7-13.46,7.43-.33.02-.59.03-.85.03-3.24,0-6.16-1.44-8.14-3.99-1.1,1.45-2.68,2.56-4.59,3.13-.37.11-.74.19-1.12.24l-6.36.82c-.3.04-.6.06-.9.06Z"/>
        <path class="cls-1" d="M340.75,203.58c-1.97,0-3.86-.68-5.47-1.97-.2-.16-.39-.33-.58-.52-1.4-1.4-2.31-3.18-2.64-5.17-.06-.38-.09-.76-.09-1.15v-5.71h-1.61c-2.61,0-5.01-1.45-6.21-3.77l-1.78-3.42c-1.1-2.12-1.05-4.65.14-6.72-.05-.08-.1-.17-.14-.26l-1.78-3.42c-1.13-2.17-1.04-4.77.23-6.86.48-.79,1.1-1.46,1.82-2-.54-.61-.97-1.32-1.28-2.11l-1.37-3.55c-.83-2.15-.54-4.57.76-6.48.69-1.01,1.62-1.8,2.69-2.32l-1.02-2.77c-.8-2.15-.49-4.55.82-6.43,1.31-1.88,3.45-3,5.75-3h2.57v-5.58c0-2.11.95-4.1,2.58-5.43,1.26-1.03,2.82-1.57,4.42-1.57.47,0,.95.05,1.42.15l11.21,2.32c.6.12,1.17.32,1.72.6.85.42,1.6.97,2.25,1.63.48-.77,1.1-1.45,1.86-2,1.21-.88,2.65-1.33,4.1-1.33.73,0,1.47.12,2.19.35l9.33,3.07h3.85l.59-.74c1.37-1.76,3.29-2.87,5.4-3.16.45-.08.9-.12,1.36-.12,1.29,0,2.57.31,3.79.91.27.14.54.29.79.46l6.6,4.45c2.43,1.55,3.87,4.14,3.87,6.96,0,2.47-.99,4.73-2.73,6.32-.53,3.74-1.3,7.44-2.32,11.03-.05.17-.11.35-.17.52-.09.25-.19.49-.29.73l2.01,1.53c2.28,1.57,3.63,4.13,3.63,6.94,0,2.27-.84,4.37-2.33,5.93-.56,3.39-1.52,6.64-2.88,9.7,1.29.71,2.68,1.28,4.17,1.72,2.69.8,4.64,3.12,4.96,5.91s-1.05,5.49-3.48,6.88c-2.88,1.64-5.72,3.57-8.44,5.71-1.27,1-2.8,1.5-4.33,1.5s-3.15-.53-4.44-1.59c-1.04-.86-2.06-1.75-3.03-2.67-1.21.82-2.46,1.59-3.77,2.29-1.01.87-2.26,1.48-3.66,1.72l-6.49,1.78c-.6.17-1.23.25-1.85.25-2.37,0-4.52-.8-6.22-2.31-1.22-1.08-2.11-2.44-2.62-3.99-.89,1.94-2.49,3.53-4.58,4.47-.34.15-.69.27-1.04.37l-6.15,1.64c-.14.04-.29.07-.44.1-.54.11-1.09.16-1.64.16Z"/>
        <path class="cls-1" d="M410.27,204.58c-2.06,0-3.96-.68-5.5-1.96-.28-.24-.55-.5-.79-.77-1.83-2.09-2.21-4.22-2.21-5.63v-5.36c-1.14.72-2.44,1.08-3.73,1.08-1.69,0-3.38-.61-4.7-1.81-2.4-2.18-3-5.72-1.44-8.56,2.83-5.15,5.2-10.6,7.08-16.27-2.32-.28-4.37-1.7-5.43-3.82l-1.98-3.96c-1.08-2.17-.97-4.75.31-6.81.11-.17.22-.34.34-.5-.33-1.74-.26-3.53.23-5.26.38-2.37.18-4.64-.62-6.94-.91-2.63-.18-5.55,1.87-7.44,1.32-1.22,3.02-1.85,4.75-1.85.95,0,1.91.19,2.82.59.19.08.37.17.56.25.23-1.82,1.18-3.5,2.65-4.64,1.24-.96,2.76-1.47,4.29-1.47.58,0,1.16.07,1.73.22l10.19,2.6c.33.08.65.19.97.32,1.23.52,2.3,1.29,3.14,2.26l5.23,3.35h1.61v-3.32c0-2.19,1.02-4.25,2.76-5.57,1.23-.94,2.72-1.43,4.24-1.43.63,0,1.25.08,1.87.25l11.83,3.28c.52.14,1.01.34,1.48.6.8.44,1.51.98,2.11,1.61.04,0,.07,0,.11,0,1.43,0,3.58.38,5.67,2.21.05.04,6.22,5.73,6.22,5.73.07.07.14.14.21.21,2.36,2.36,3.02,5.75,1.75,8.78-.3.78-.71,1.49-1.22,2.13,1.1,2.04,1.23,4.38.4,6.53l.47.51c.37.4.69.83.96,1.3,1.13,1.99,1.38,4.35.69,6.64-.18.6-.44,1.17-.77,1.7-.5.8-1.12,1.51-1.83,2.08.09.81.06,1.65-.11,2.48-.28,1.44-.9,2.72-1.78,3.77v17.39c.13,5.17-2.17,9.58-6.48,12.45-2.54,1.77-5.3,2.66-8.19,2.66-1.99,0-3.98-.43-5.94-1.29-.13-.06-.26-.12-.39-.18-1.17-.6-2.25-1.29-3.22-2.06-.84.79-1.83,1.45-2.95,1.95-.55.25-1.12.42-1.71.52l-5.11.85c-.64.14-1.3.21-1.94.21-1.87,0-3.67-.58-5.24-1.67-1.13-.73-2.05-1.67-2.73-2.77-1.21,1.65-2.87,2.83-4.84,3.43-.24.07-.48.13-.72.18l-5.61,1.09c-.44.09-.89.13-1.34.13Z"/>
        <path class="cls-1" d="M471.73,203.15c-2.2,0-4.28-1.04-5.6-2.8l-3.28-4.38c-1.59-2.12-1.85-4.96-.66-7.33s3.61-3.87,6.26-3.87h4.89v-7.94c-1.49.5-2.99.95-4.5,1.34-.59.15-1.18.23-1.76.23-2.75,0-5.32-1.63-6.44-4.26-1.36-3.19-.18-6.89,2.77-8.71,4.83-2.97,9.07-6.59,12.69-10.83h-2.73c-2.34,0-4.53-1.17-5.82-3.12l-2.46-3.69c-1.43-2.15-1.57-4.91-.35-7.19,1.22-2.28,3.59-3.7,6.17-3.7h16.52v-5.99c0-2.17,1-4.21,2.72-5.54,1.24-.96,2.75-1.46,4.28-1.46.59,0,1.18.07,1.76.23l13.12,3.42c.29.07.57.17.84.28,2.67,1.07,4.58,3.41,5.1,6.26.15.81.17,1.62.09,2.41l1.71-1.99c1.6-1.96,3.97-3.08,6.56-3.08,2.3,0,4.43.84,6.01,2.36l7.48,7.07c.29.27.56.57.79.89,1.99,2.66,2.15,6.2.4,9-.8,1.28-1.91,2.28-3.2,2.94.64.17,1.29.33,1.94.48,2.92.69,5.08,3.15,5.37,6.14s-1.35,5.82-4.08,7.06c-2.84,1.29-5.18,3.1-7.14,5.53-.17.21-.35.41-.54.6-.54,1.18-1.37,2.22-2.42,3.02v4.86c1.69.35,3.19,1.21,4.32,2.48l5.47,5.34c2.43,2.43,3.06,5.86,1.75,8.86-1.15,3.03-4.05,5.06-7.46,5.06h-60.57Z"/>
      </g>
      <g>
        <path class="cls-4" d="M264.12,144.88c2.64,3.65,3.9,7.79,3.76,12.44-.09,1.19-.32,2.28-.68,3.28-.41.91-1.05,1.64-1.91,2.19-1.19.73-2.42.91-3.69.55-1.32-.36-2.28-1.14-2.87-2.32-.59-1.09-.75-2.19-.48-3.28s.77-2.05,1.5-2.87c2.92-2.73,4.38-6.06,4.38-9.98ZM268.63,130.93l9.98,3.28c.46.18.73.55.82,1.09,0,.55-.21,1-.62,1.37l-1.64.96v5.88c3.55.09,6.4,1.55,8.54,4.38h10.66v-4.1h-11.62l-1.91-3.83h13.54v-10.12l11.42,2.46c.55.09.93.46,1.16,1.09.09.64-.05,1.14-.41,1.5l-2.26,1.78v3.28h5.47l2.87-4.51c.23-.36.5-.55.82-.55.27-.09.62-.04,1.03.14l5.13,5.33c.68.55.82,1.28.41,2.19-.32.82-.93,1.23-1.85,1.23h-13.88v4.1h5.33l2.32-3.14c.18-.27.5-.46.96-.55.46,0,.82.14,1.09.41l3.96,4.38c.41.37.52.87.34,1.5-.27.64-.73.96-1.37.96h-12.65v5.47h7.59l2.87-3.69c.41-.46.89-.73,1.44-.82.64-.09,1.18.05,1.64.41l4.24,4.79c.41.64.48,1.28.21,1.91-.27.64-.78,1-1.5,1.09h-40.26l-1.44-3.69h15.31v-5.47h-9.09c.14.82.04,1.55-.27,2.19-.64,1.09-1.56,1.85-2.77,2.26-1.21.41-2.38.34-3.52-.21-.82-.36-1.46-.96-1.91-1.78-.32-.91-.46-1.78-.41-2.6.23-2-.18-3.87-1.23-5.61v48.95c0,.55-.16.98-.48,1.3-.32.32-.71.52-1.16.62l-5.06.27c-.55,0-.98-.14-1.3-.41-.37-.37-.55-.73-.55-1.09v-64.39ZM285.11,161.42l9.71,2.6h13.88l1.85-2.05c.82-1,1.8-1.14,2.94-.41l6.43,4.65c.32.18.48.46.48.82s-.11.68-.34.96l-1.57,1.64v18.87c0,1.46-.41,2.73-1.23,3.83-2.14,2.83-4.95,4.38-8.41,4.65-1.32.09-2.35-.41-3.08-1.5-1.73-2.83-4.01-4.92-6.84-6.29,2.32,0,4.51.18,6.56.55.68.09,1.32-.07,1.91-.48.59-.41.93-.98,1.03-1.71v-5.33h-13.26v12.44c0,.91-.46,1.5-1.37,1.78l-6.36.82c-.68,0-1.23-.23-1.64-.68-.46-.37-.68-.87-.68-1.5v-33.63ZM295.16,167.71v3.28h13.26v-3.28h-13.26ZM295.16,174.82v3.42h13.26v-3.42h-13.26Z"/>
        <path class="cls-4" d="M338.57,130.38l11.21,2.32c.36.18.64.5.82.96.09.46,0,.82-.27,1.09l-1.91,2.19v6.02h1.91l2.87-4.1c.18-.27.55-.46,1.09-.55.46-.09.82.05,1.09.41l4.92,6.02c.27.46.27.91,0,1.37-.27.37-.64.55-1.09.55h-10.8v7.79h2.6l3.28-4.79c.18-.27.5-.46.96-.55.36,0,.68.14.96.41l4.92,5.33v-23.11l10.39,3.42h8.34l2.73-3.42c.27-.36.59-.55.96-.55.27-.09.59-.04.96.14l6.7,4.51c.46.27.68.64.68,1.09,0,.55-.18.96-.55,1.23l-1.78,1.37c-.46,4.38-1.28,8.66-2.46,12.85-.64,1.73-1.75,3.1-3.35,4.1-1.6,1-3.35,1.32-5.26.96-.73-.09-1.28-.5-1.64-1.23-1.28-2.55-3.14-4.6-5.61-6.15l6.02.68c.46.09.82,0,1.09-.27s.46-.64.55-1.09c.64-3.55,1-7.2,1.09-10.94h-9.02v22.42h10.39l1.91-2.46c.55-.64,1.14-.77,1.78-.41l6.29,4.79c.46.27.68.68.68,1.23s-.18.96-.55,1.23l-1.37,1.09c-.55,5.65-2.32,10.76-5.33,15.31,3.19,3.01,6.93,5.15,11.21,6.43-3.19,1.82-6.29,3.92-9.3,6.29-2.55-2.1-4.83-4.38-6.84-6.84-2.55,2.55-5.51,4.65-8.89,6.29,0,.27-.18.41-.55.41l-6.97,1.91c-.64,0-1.16-.18-1.57-.55-.41-.37-.66-.87-.75-1.5v-22.42h-12.71v6.97h2.19l2.87-3.96c.18-.27.5-.46.96-.55.36,0,.68.14.96.41l4.92,4.79c.46.55.55,1.14.27,1.78-.27.55-.73.87-1.37.96h-10.8v11.07c0,.82-.41,1.41-1.23,1.78l-6.15,1.64c-.46.09-.91-.05-1.37-.41-.37-.37-.59-.82-.68-1.37v-12.71h-8.61l-1.78-3.42h10.39v-6.97h-10.39l-1.78-3.42h8.07c-1.55-1.46-2.01-3.19-1.37-5.2.55-1.64.55-3.33,0-5.06h-5.61l-1.37-3.55h12.03v-7.79h-8.2l-1.37-3.69h9.57v-12.58ZM337.61,158c1.91.82,3.37,2.14,4.38,3.96.64,1,.87,2.1.68,3.28-.18,1.19-.73,2.19-1.64,3.01h5.06l.96-10.25h-9.43ZM354.97,158l2.05,1.09c.36.37.5.78.41,1.23-.18.46-.5.78-.96.96l-2.05.41-5.88,6.56h3.28l2.87-4.92c.27-.36.55-.55.82-.55.36,0,.68.14.96.41l4.65,5.06v-10.25h-6.15ZM370.97,164.43v26.93c2.37-2.64,4.28-5.61,5.74-8.89-3.01-5.47-4.51-11.48-4.51-18.05h-1.23ZM374.93,164.43c.82,4.01,2.28,7.7,4.38,11.07,1.09-3.65,1.59-7.34,1.5-11.07h-5.88Z"/>
        <path class="cls-4" d="M450.47,132.16c.5.27.75.68.75,1.23,0,.64-.27,1.03-.82,1.16-.91.32-1.37.93-1.37,1.85v2.8h3.42l2.6-4.1c.64-.64,1.32-.64,2.05,0l6.08,5.61c.36.37.43.78.21,1.23-.14.46-.46.73-.96.82h-13.4v5.13h3.08l2.12-3.49c.27-.32.62-.48,1.03-.48s.77.16,1.09.48l6.08,5.47c.23.32.23.66,0,1.03-.27.32-.59.46-.96.41h-12.44v5.33h4.65l3.01-3.96c.32-.32.71-.48,1.16-.48s.84.16,1.16.48l5.4,5.81c.18.32.21.71.07,1.16-.23.37-.52.57-.89.62h-38.08l-1.16-1.91h-6.7v1.71c4.38,1.05,7.61,3.55,9.71,7.52.82,1.73.57,3.33-.75,4.79-1.19,1.46-2.71,1.9-4.58,1.33-1.87-.57-2.92-1.79-3.14-3.66-.14-1.55-.55-3.03-1.23-4.44v28.03c.09.64-.03,1.23-.38,1.78s-.81.91-1.4,1.09l-5.61,1.09c-.41,0-.75-.11-1.03-.34-.32-.37-.48-.71-.48-1.03v-19.89c-3.24,3.05-6.81,5.92-10.73,8.61,4.56-8.29,7.95-17.16,10.19-26.59h-8.41l-1.98-3.96h10.94v-23.93l10.19,2.6c.55.23.87.66.96,1.3.09.59-.14,1.07-.68,1.44-.91.41-1.44,1.07-1.57,1.98v11.96c1.91-5.01,3.01-10.03,3.28-15.04l7.04,4.51h10.66v-10.32l11.83,3.28ZM398.45,135.72c4.97,2.19,8.09,5.9,9.37,11.14.23.91.17,1.82-.17,2.73-.34.91-.91,1.62-1.71,2.12-.8.5-1.67.74-2.63.72-.96-.02-1.8-.31-2.53-.85-.78-.59-1.3-1.34-1.57-2.26-.27-.91-.25-1.82.07-2.73.68-3.69.41-7.31-.82-10.87ZM427.64,147.88h11.01v-5.13h-10.87l-10.12,11.62h1.71l2.26-3.69c.36-.5.8-.75,1.3-.75.59,0,1.07.23,1.44.68l4.31,6.02h9.98v-5.33h-9.16l-1.85-3.42ZM449.99,163.81l1.71-2.46c.32-.32.72-.49,1.2-.51.48-.02.88.13,1.2.44l7.04,4.17c.41.32.57.68.48,1.09-.09.5-.34.82-.75.96-.78.37-1.16.96-1.16,1.78v19.89c.09,2.83-1.05,5.01-3.42,6.56-2.32,1.64-4.79,1.89-7.38.75-1.78-.91-3.17-2.1-4.17-3.55-1.09-1.5-2.53-2.46-4.31-2.87h7.93c.41,0,.75-.16,1.03-.48.23-.23.34-.57.34-1.03v-5.54h-11.07v10.12c0,1.46-.66,2.48-1.98,3.08l-5.33.89c-.68.18-1.32.04-1.91-.41-.64-.37-.96-.91-.96-1.64v-33.5l9.09,2.26h12.44ZM438.64,167.57v3.83h11.07v-3.83h-11.07ZM438.64,175.16v4.03h11.07v-4.03h-11.07Z"/>
        <path class="cls-4" d="M470.91,143.92h23.52v-12.99l13.12,3.42c.46.18.73.52.82,1.03.09.5-.09.93-.55,1.3l-2.6,1.78v5.47h12.99l4.24-4.92c.27-.36.66-.55,1.16-.55s.89.14,1.16.41l7.52,7.11c.27.37.3.73.07,1.09-.23.37-.57.55-1.03.55h-24.47c8.57,6.47,18.09,10.94,28.57,13.4-3.83,1.73-7.06,4.24-9.71,7.52-8.11-4.47-14.95-10.44-20.51-17.91v12.58c0,.82-.41,1.37-1.23,1.64l-8.07,1.23c-.46,0-.82-.14-1.09-.41-.27-.36-.41-.77-.41-1.23v-8.34c-3.1,2.92-6.65,5.61-10.66,8.07l7.66,2.87h19.41l2.87-3.28c.55-.46,1.14-.5,1.78-.14l8.61,5.74c.18.18.27.46.27.82s-.14.64-.41.82l-2.73,1.78v19h1.37l2.87-3.14c.36-.27.68-.41.96-.41.46,0,.77.14.96.41l5.74,5.61c.36.36.41.77.14,1.23-.09.46-.41.68-.96.68h-60.57l-3.28-4.38h11.89v-25.57c-4.28,2.28-8.71,4.01-13.26,5.2,9.48-5.83,16.86-13.76,22.15-23.79h-15.86l-2.46-3.69ZM491.42,170.58v4.38h19.41v-4.38h-19.41ZM491.42,178.92v4.24h19.41v-4.24h-19.41ZM491.42,186.99v4.79h19.41v-4.79h-19.41Z"/>
      </g>
    </g>
    <g>
      <g>
        <path class="cls-1" d="M83.65,20.62l10.39,2.8c.46.14.73.48.82,1.03.27.5.18.96-.27,1.37l-2.19,1.78v16.95c2.19-4.38,3.51-8.89,3.96-13.54l7.79,6.9c.36.37.46.84.27,1.44-.18.59-.55.91-1.09.96l-1.78.21c-2.73,3.51-5.79,6.68-9.16,9.5v5.81c-.09,1.6-.37,3.12-.82,4.58,4.01,1.28,7.15,3.69,9.43,7.25.91,1.73,1.32,3.6,1.23,5.61,0,1.09-.41,2.04-1.23,2.84-.82.8-1.75,1.22-2.8,1.26-1.05.05-2.01-.28-2.87-.99-.87-.71-1.39-1.61-1.57-2.7-.27-1.05-.37-2.16-.27-3.35.27-2.92-.55-5.49-2.46-7.72-1.55,4.79-3.92,9.07-7.11,12.85-3.19,3.78-7.02,6.79-11.48,9.02,7.11-7.43,10.85-16.29,11.21-26.59V20.62ZM76.95,34.9c3.01,3.42,4.92,7.34,5.74,11.76.55,2.1.27,4.08-.82,5.95-.82,1.55-2.14,2.32-3.96,2.32s-3.19-.8-4.1-2.39c-.82-2.32-.41-4.42,1.23-6.29,2.1-3.51,2.73-7.29,1.91-11.35ZM111.13,17.27l13.4,7.04c.46.32.64.71.55,1.16-.09.46-.37.75-.82.89l-2.19.82c-1.55,4.83-3.6,9.14-6.15,12.92h10.53l1.91-2.73c.27-.41.68-.62,1.23-.62s.96.16,1.23.48l6.84,5.74c.27.23.41.52.41.89,0,.41-.14.71-.41.89l-1.5,1.64c-.09,10.76-1.14,21.44-3.14,32.06-.64,3.65-2.73,6.2-6.29,7.66-1.55.68-3.19.66-4.92-.07-1.09-.5-2.1-1.25-3.01-2.26-1.73-3.74-4.42-6.45-8.07-8.13l9.3,1.3c.91.23,1.78.02,2.6-.62.82-.55,1.32-1.34,1.5-2.39,1.64-10.07,2.28-20.17,1.91-30.28h-12.58c-1,1.41-2.51,3.14-4.51,5.2,4.1,1.78,7.56,4.42,10.39,7.93,1.64,2.05,2.23,4.33,1.78,6.84-.18,1.14-.71,2.08-1.57,2.84-.87.75-1.87,1.15-3.01,1.2-1.14.05-2.17-.27-3.08-.96-.91-.68-1.5-1.59-1.78-2.73-.46-1.55-.46-3.19,0-4.92.09-3.51-1.09-6.61-3.55-9.3-2.37,2.28-4.79,4.26-7.25,5.95,7.2-11.76,10.62-24.56,10.25-38.42Z"/>
        <path class="cls-1" d="M144.97,28.2h10.12v-9.3l10.94,2.8c.59.14.89.5.89,1.09s-.25,1-.75,1.23l-1.85.89v3.28h1.57l1.44-2.73c.18-.27.48-.41.89-.41.23,0,.5.11.82.34l5.47,5.06c.32.23.39.52.21.89-.14.37-.39.55-.75.55h-9.64v3.76h1.57l2.6-2.46c.55-.64,1.12-.64,1.71,0l2.67,2.46,6.02-.96v-16.47l11.07,3.01c.5.23.8.64.89,1.23,0,.59-.25,1-.75,1.23l-1.98,1.44v7.79l1.85-.34,1.85-2.67c.5-.46,1.05-.5,1.64-.14l6.97,5.61c.46.55.43,1.07-.07,1.57l-2.12,1.78v17.91c0,.64.3,1.09.89,1.37.68.27,1.37.27,2.05,0,.41-.23.68-.52.82-.89l1.98-11.83,1.16,7.25c.27,1.5.93,2.89,1.98,4.17.46.68.8,1.44,1.03,2.26.18,1.05.02,2.07-.48,3.08-.5,1-1.25,1.73-2.26,2.19-3.96,1.28-7.93,1.32-11.89.14-2.14-.77-3.26-2.28-3.35-4.51v-5.95c-1,.91-2.23,1.3-3.69,1.16-1.37-.27-2.42-1.03-3.14-2.26-3.96,6.24-9.48,10.53-16.54,12.85,4.83,3.14,7.36,7.57,7.59,13.26.04,1.46-.49,2.73-1.61,3.83-1.12,1.09-2.4,1.62-3.86,1.57-1.46-.05-2.71-.64-3.76-1.78-1.05-1.14-1.53-2.46-1.44-3.96,1.28-5.1,1.14-10.16-.41-15.18l1.85,1.16c2.87-2.19,5.24-4.58,7.11-7.18l-19.76,8.75-.62,1.91c-.23.59-.59.96-1.09,1.09-.64.14-1.14.02-1.5-.34l-6.43-9.23,12.24-1.78v-3.76h-6.7l-1.85-2.73c-1.28.5-2.6.93-3.96,1.3,3.37-3.46,5.88-7.56,7.52-12.3h-5.47l-2.53-4.79h12.99v-3.62h-8.27l-1.85-3.69ZM157.75,65.32c2.19,5.88,1.78,11.51-1.23,16.88-1.5,1.87-3.4,2.55-5.67,2.05-1.05-.23-1.95-.74-2.7-1.54-.75-.8-1.24-1.72-1.47-2.77-.37-2.42.43-4.26,2.39-5.54,3.74-2.19,6.63-5.22,8.68-9.09ZM155.08,50.56v-5.06c-2.14,2.05-4.44,3.74-6.9,5.06h6.9ZM158.78,40.3c-.09.14-.25.4-.48.79-.23.39-.39.67-.48.85l8.07,3.21c.27.14.46.41.55.82,0,.37-.14.64-.41.82l-1.71,1.44v2.32h1.91l1.98-3.42c-.27-.36-.43-.73-.48-1.09-.59-2.05-1.57-3.96-2.94-5.74h-6.02ZM164.31,54.04v2.32l9.5-1.3c2-3.28,3.37-6.65,4.1-10.12-1.73-1.73-3.69-3.28-5.88-4.65h-1.91c1.46.59,2.83,1.46,4.1,2.6,1.05,1.05,1.32,2.3.82,3.76-.46,1.5-1.46,2.32-3.01,2.46l2.32,3.08c.23.37.27.73.14,1.09-.18.46-.5.71-.96.75h-9.23ZM178.87,38.87l-3.49.68c-.09.27-.3.52-.62.75,1.41.09,2.71.3,3.9.62l.21-2.05ZM176.41,64.84c3.19,1.28,5.9,3.17,8.13,5.67,2.23,2.51,3.83,5.4,4.79,8.68.46,2.1-.25,3.78-2.12,5.06-1.82,1.28-3.65,1.3-5.47.07-1.91-1.19-2.69-2.85-2.32-4.99.55-5.2-.46-10.03-3.01-14.49ZM188.17,37.09c-.09,2.6-.5,5.04-1.23,7.31,1.14.68,2.21,1.55,3.21,2.6v-10.25l-1.98.34ZM187.9,64.3c3.55.46,6.77,1.79,9.64,4,2.87,2.21,4.99,4.96,6.36,8.24.77,2.37.25,4.35-1.57,5.95-1.82,1.59-3.85,1.87-6.08.82-2.14-1.09-3.14-2.87-3.01-5.33-.14-5.2-1.91-9.75-5.33-13.67Z"/>
      </g>
      <g>
        <path class="cls-3" d="M83.65,20.62l10.39,2.8c.46.14.73.48.82,1.03.27.5.18.96-.27,1.37l-2.19,1.78v16.95c2.19-4.38,3.51-8.89,3.96-13.54l7.79,6.9c.36.37.46.84.27,1.44-.18.59-.55.91-1.09.96l-1.78.21c-2.73,3.51-5.79,6.68-9.16,9.5v5.81c-.09,1.6-.37,3.12-.82,4.58,4.01,1.28,7.15,3.69,9.43,7.25.91,1.73,1.32,3.6,1.23,5.61,0,1.09-.41,2.04-1.23,2.84-.82.8-1.75,1.22-2.8,1.26-1.05.05-2.01-.28-2.87-.99-.87-.71-1.39-1.61-1.57-2.7-.27-1.05-.37-2.16-.27-3.35.27-2.92-.55-5.49-2.46-7.72-1.55,4.79-3.92,9.07-7.11,12.85-3.19,3.78-7.02,6.79-11.48,9.02,7.11-7.43,10.85-16.29,11.21-26.59V20.62ZM76.95,34.9c3.01,3.42,4.92,7.34,5.74,11.76.55,2.1.27,4.08-.82,5.95-.82,1.55-2.14,2.32-3.96,2.32s-3.19-.8-4.1-2.39c-.82-2.32-.41-4.42,1.23-6.29,2.1-3.51,2.73-7.29,1.91-11.35ZM111.13,17.27l13.4,7.04c.46.32.64.71.55,1.16-.09.46-.37.75-.82.89l-2.19.82c-1.55,4.83-3.6,9.14-6.15,12.92h10.53l1.91-2.73c.27-.41.68-.62,1.23-.62s.96.16,1.23.48l6.84,5.74c.27.23.41.52.41.89,0,.41-.14.71-.41.89l-1.5,1.64c-.09,10.76-1.14,21.44-3.14,32.06-.64,3.65-2.73,6.2-6.29,7.66-1.55.68-3.19.66-4.92-.07-1.09-.5-2.1-1.25-3.01-2.26-1.73-3.74-4.42-6.45-8.07-8.13l9.3,1.3c.91.23,1.78.02,2.6-.62.82-.55,1.32-1.34,1.5-2.39,1.64-10.07,2.28-20.17,1.91-30.28h-12.58c-1,1.41-2.51,3.14-4.51,5.2,4.1,1.78,7.56,4.42,10.39,7.93,1.64,2.05,2.23,4.33,1.78,6.84-.18,1.14-.71,2.08-1.57,2.84-.87.75-1.87,1.15-3.01,1.2-1.14.05-2.17-.27-3.08-.96-.91-.68-1.5-1.59-1.78-2.73-.46-1.55-.46-3.19,0-4.92.09-3.51-1.09-6.61-3.55-9.3-2.37,2.28-4.79,4.26-7.25,5.95,7.2-11.76,10.62-24.56,10.25-38.42Z"/>
        <path class="cls-3" d="M144.97,28.2h10.12v-9.3l10.94,2.8c.59.14.89.5.89,1.09s-.25,1-.75,1.23l-1.85.89v3.28h1.57l1.44-2.73c.18-.27.48-.41.89-.41.23,0,.5.11.82.34l5.47,5.06c.32.23.39.52.21.89-.14.37-.39.55-.75.55h-9.64v3.76h1.57l2.6-2.46c.55-.64,1.12-.64,1.71,0l2.67,2.46,6.02-.96v-16.47l11.07,3.01c.5.23.8.64.89,1.23,0,.59-.25,1-.75,1.23l-1.98,1.44v7.79l1.85-.34,1.85-2.67c.5-.46,1.05-.5,1.64-.14l6.97,5.61c.46.55.43,1.07-.07,1.57l-2.12,1.78v17.91c0,.64.3,1.09.89,1.37.68.27,1.37.27,2.05,0,.41-.23.68-.52.82-.89l1.98-11.83,1.16,7.25c.27,1.5.93,2.89,1.98,4.17.46.68.8,1.44,1.03,2.26.18,1.05.02,2.07-.48,3.08-.5,1-1.25,1.73-2.26,2.19-3.96,1.28-7.93,1.32-11.89.14-2.14-.77-3.26-2.28-3.35-4.51v-5.95c-1,.91-2.23,1.3-3.69,1.16-1.37-.27-2.42-1.03-3.14-2.26-3.96,6.24-9.48,10.53-16.54,12.85,4.83,3.14,7.36,7.57,7.59,13.26.04,1.46-.49,2.73-1.61,3.83-1.12,1.09-2.4,1.62-3.86,1.57-1.46-.05-2.71-.64-3.76-1.78-1.05-1.14-1.53-2.46-1.44-3.96,1.28-5.1,1.14-10.16-.41-15.18l1.85,1.16c2.87-2.19,5.24-4.58,7.11-7.18l-19.76,8.75-.62,1.91c-.23.59-.59.96-1.09,1.09-.64.14-1.14.02-1.5-.34l-6.43-9.23,12.24-1.78v-3.76h-6.7l-1.85-2.73c-1.28.5-2.6.93-3.96,1.3,3.37-3.46,5.88-7.56,7.52-12.3h-5.47l-2.53-4.79h12.99v-3.62h-8.27l-1.85-3.69ZM157.75,65.32c2.19,5.88,1.78,11.51-1.23,16.88-1.5,1.87-3.4,2.55-5.67,2.05-1.05-.23-1.95-.74-2.7-1.54-.75-.8-1.24-1.72-1.47-2.77-.37-2.42.43-4.26,2.39-5.54,3.74-2.19,6.63-5.22,8.68-9.09ZM155.08,50.56v-5.06c-2.14,2.05-4.44,3.74-6.9,5.06h6.9ZM158.78,40.3c-.09.14-.25.4-.48.79-.23.39-.39.67-.48.85l8.07,3.21c.27.14.46.41.55.82,0,.37-.14.64-.41.82l-1.71,1.44v2.32h1.91l1.98-3.42c-.27-.36-.43-.73-.48-1.09-.59-2.05-1.57-3.96-2.94-5.74h-6.02ZM164.31,54.04v2.32l9.5-1.3c2-3.28,3.37-6.65,4.1-10.12-1.73-1.73-3.69-3.28-5.88-4.65h-1.91c1.46.59,2.83,1.46,4.1,2.6,1.05,1.05,1.32,2.3.82,3.76-.46,1.5-1.46,2.32-3.01,2.46l2.32,3.08c.23.37.27.73.14,1.09-.18.46-.5.71-.96.75h-9.23ZM178.87,38.87l-3.49.68c-.09.27-.3.52-.62.75,1.41.09,2.71.3,3.9.62l.21-2.05ZM176.41,64.84c3.19,1.28,5.9,3.17,8.13,5.67,2.23,2.51,3.83,5.4,4.79,8.68.46,2.1-.25,3.78-2.12,5.06-1.82,1.28-3.65,1.3-5.47.07-1.91-1.19-2.69-2.85-2.32-4.99.55-5.2-.46-10.03-3.01-14.49ZM188.17,37.09c-.09,2.6-.5,5.04-1.23,7.31,1.14.68,2.21,1.55,3.21,2.6v-10.25l-1.98.34ZM187.9,64.3c3.55.46,6.77,1.79,9.64,4,2.87,2.21,4.99,4.96,6.36,8.24.77,2.37.25,4.35-1.57,5.95-1.82,1.59-3.85,1.87-6.08.82-2.14-1.09-3.14-2.87-3.01-5.33-.14-5.2-1.91-9.75-5.33-13.67Z"/>
      </g>
      <g>
        <path class="cls-1" d="M83.65,20.62l10.39,2.8c.46.14.73.48.82,1.03.27.5.18.96-.27,1.37l-2.19,1.78v16.95c2.19-4.38,3.51-8.89,3.96-13.54l7.79,6.9c.36.37.46.84.27,1.44-.18.59-.55.91-1.09.96l-1.78.21c-2.73,3.51-5.79,6.68-9.16,9.5v5.81c-.09,1.6-.37,3.12-.82,4.58,4.01,1.28,7.15,3.69,9.43,7.25.91,1.73,1.32,3.6,1.23,5.61,0,1.09-.41,2.04-1.23,2.84-.82.8-1.75,1.22-2.8,1.26-1.05.05-2.01-.28-2.87-.99-.87-.71-1.39-1.61-1.57-2.7-.27-1.05-.37-2.16-.27-3.35.27-2.92-.55-5.49-2.46-7.72-1.55,4.79-3.92,9.07-7.11,12.85-3.19,3.78-7.02,6.79-11.48,9.02,7.11-7.43,10.85-16.29,11.21-26.59V20.62ZM76.95,34.9c3.01,3.42,4.92,7.34,5.74,11.76.55,2.1.27,4.08-.82,5.95-.82,1.55-2.14,2.32-3.96,2.32s-3.19-.8-4.1-2.39c-.82-2.32-.41-4.42,1.23-6.29,2.1-3.51,2.73-7.29,1.91-11.35ZM111.13,17.27l13.4,7.04c.46.32.64.71.55,1.16-.09.46-.37.75-.82.89l-2.19.82c-1.55,4.83-3.6,9.14-6.15,12.92h10.53l1.91-2.73c.27-.41.68-.62,1.23-.62s.96.16,1.23.48l6.84,5.74c.27.23.41.52.41.89,0,.41-.14.71-.41.89l-1.5,1.64c-.09,10.76-1.14,21.44-3.14,32.06-.64,3.65-2.73,6.2-6.29,7.66-1.55.68-3.19.66-4.92-.07-1.09-.5-2.1-1.25-3.01-2.26-1.73-3.74-4.42-6.45-8.07-8.13l9.3,1.3c.91.23,1.78.02,2.6-.62.82-.55,1.32-1.34,1.5-2.39,1.64-10.07,2.28-20.17,1.91-30.28h-12.58c-1,1.41-2.51,3.14-4.51,5.2,4.1,1.78,7.56,4.42,10.39,7.93,1.64,2.05,2.23,4.33,1.78,6.84-.18,1.14-.71,2.08-1.57,2.84-.87.75-1.87,1.15-3.01,1.2-1.14.05-2.17-.27-3.08-.96-.91-.68-1.5-1.59-1.78-2.73-.46-1.55-.46-3.19,0-4.92.09-3.51-1.09-6.61-3.55-9.3-2.37,2.28-4.79,4.26-7.25,5.95,7.2-11.76,10.62-24.56,10.25-38.42Z"/>
        <path class="cls-1" d="M144.97,28.2h10.12v-9.3l10.94,2.8c.59.14.89.5.89,1.09s-.25,1-.75,1.23l-1.85.89v3.28h1.57l1.44-2.73c.18-.27.48-.41.89-.41.23,0,.5.11.82.34l5.47,5.06c.32.23.39.52.21.89-.14.37-.39.55-.75.55h-9.64v3.76h1.57l2.6-2.46c.55-.64,1.12-.64,1.71,0l2.67,2.46,6.02-.96v-16.47l11.07,3.01c.5.23.8.64.89,1.23,0,.59-.25,1-.75,1.23l-1.98,1.44v7.79l1.85-.34,1.85-2.67c.5-.46,1.05-.5,1.64-.14l6.97,5.61c.46.55.43,1.07-.07,1.57l-2.12,1.78v17.91c0,.64.3,1.09.89,1.37.68.27,1.37.27,2.05,0,.41-.23.68-.52.82-.89l1.98-11.83,1.16,7.25c.27,1.5.93,2.89,1.98,4.17.46.68.8,1.44,1.03,2.26.18,1.05.02,2.07-.48,3.08-.5,1-1.25,1.73-2.26,2.19-3.96,1.28-7.93,1.32-11.89.14-2.14-.77-3.26-2.28-3.35-4.51v-5.95c-1,.91-2.23,1.3-3.69,1.16-1.37-.27-2.42-1.03-3.14-2.26-3.96,6.24-9.48,10.53-16.54,12.85,4.83,3.14,7.36,7.57,7.59,13.26.04,1.46-.49,2.73-1.61,3.83-1.12,1.09-2.4,1.62-3.86,1.57-1.46-.05-2.71-.64-3.76-1.78-1.05-1.14-1.53-2.46-1.44-3.96,1.28-5.1,1.14-10.16-.41-15.18l1.85,1.16c2.87-2.19,5.24-4.58,7.11-7.18l-19.76,8.75-.62,1.91c-.23.59-.59.96-1.09,1.09-.64.14-1.14.02-1.5-.34l-6.43-9.23,12.24-1.78v-3.76h-6.7l-1.85-2.73c-1.28.5-2.6.93-3.96,1.3,3.37-3.46,5.88-7.56,7.52-12.3h-5.47l-2.53-4.79h12.99v-3.62h-8.27l-1.85-3.69ZM157.75,65.32c2.19,5.88,1.78,11.51-1.23,16.88-1.5,1.87-3.4,2.55-5.67,2.05-1.05-.23-1.95-.74-2.7-1.54-.75-.8-1.24-1.72-1.47-2.77-.37-2.42.43-4.26,2.39-5.54,3.74-2.19,6.63-5.22,8.68-9.09ZM155.08,50.56v-5.06c-2.14,2.05-4.44,3.74-6.9,5.06h6.9ZM158.78,40.3c-.09.14-.25.4-.48.79-.23.39-.39.67-.48.85l8.07,3.21c.27.14.46.41.55.82,0,.37-.14.64-.41.82l-1.71,1.44v2.32h1.91l1.98-3.42c-.27-.36-.43-.73-.48-1.09-.59-2.05-1.57-3.96-2.94-5.74h-6.02ZM164.31,54.04v2.32l9.5-1.3c2-3.28,3.37-6.65,4.1-10.12-1.73-1.73-3.69-3.28-5.88-4.65h-1.91c1.46.59,2.83,1.46,4.1,2.6,1.05,1.05,1.32,2.3.82,3.76-.46,1.5-1.46,2.32-3.01,2.46l2.32,3.08c.23.37.27.73.14,1.09-.18.46-.5.71-.96.75h-9.23ZM178.87,38.87l-3.49.68c-.09.27-.3.52-.62.75,1.41.09,2.71.3,3.9.62l.21-2.05ZM176.41,64.84c3.19,1.28,5.9,3.17,8.13,5.67,2.23,2.51,3.83,5.4,4.79,8.68.46,2.1-.25,3.78-2.12,5.06-1.82,1.28-3.65,1.3-5.47.07-1.91-1.19-2.69-2.85-2.32-4.99.55-5.2-.46-10.03-3.01-14.49ZM188.17,37.09c-.09,2.6-.5,5.04-1.23,7.31,1.14.68,2.21,1.55,3.21,2.6v-10.25l-1.98.34ZM187.9,64.3c3.55.46,6.77,1.79,9.64,4,2.87,2.21,4.99,4.96,6.36,8.24.77,2.37.25,4.35-1.57,5.95-1.82,1.59-3.85,1.87-6.08.82-2.14-1.09-3.14-2.87-3.01-5.33-.14-5.2-1.91-9.75-5.33-13.67Z"/>
      </g>
    </g>
    <g>
      <path class="cls-3" d="M232.19,51.37c2.94,5.13,3.62,10.53,2.06,16.22-.63,2.91-1.86,5.51-3.7,7.8-1.84,2.3-4.12,4.02-6.84,5.18-1,.5-1.98.55-2.95.14-1.75-.91-2.72-2.34-2.91-4.31-1.56-.16-2.91-.73-4.05-1.73-1.14-1-1.91-2.25-2.32-3.75-.66-3.12-.22-6.11,1.31-8.95,1.62-3.28,3.87-6.06,6.73-8.34,2.86-2.28,6.09-3.83,9.68-4.64,5.34-1.47,10.47-.97,15.38,1.5,2.41,1.12,4.45,2.68,6.12,4.66,1.67,1.98,2.84,4.26,3.49,6.82.72,2.81.67,5.59-.14,8.32-.81,2.73-2.3,5.09-4.45,7.05-2.62,2.44-5.62,4.2-9,5.27s-6.84,1.43-10.41,1.05c3.72-1.19,6.96-3.13,9.73-5.84,2.77-2.7,4.77-5.91,6.02-9.63.66-2.22.78-4.45.38-6.68-.41-2.23-1.33-4.27-2.77-6.12-1.47-1.59-3.2-2.74-5.18-3.45-1.98-.7-4.04-.9-6.16-.59ZM228.06,52.54c-5.09,3.34-8.31,8.02-9.66,14.02-.66,2.66-.33,5.16.98,7.5.38.38.83.6,1.36.68.53.08,1-.1,1.41-.54,2.84-2.88,4.78-6.23,5.81-10.05,1.03-3.83,1.06-7.69.09-11.6Z"/>
      <path class="cls-1" d="M232.19,51.37c2.94,5.13,3.62,10.53,2.06,16.22-.63,2.91-1.86,5.51-3.7,7.8-1.84,2.3-4.12,4.02-6.84,5.18-1,.5-1.98.55-2.95.14-1.75-.91-2.72-2.34-2.91-4.31-1.56-.16-2.91-.73-4.05-1.73-1.14-1-1.91-2.25-2.32-3.75-.66-3.12-.22-6.11,1.31-8.95,1.62-3.28,3.87-6.06,6.73-8.34,2.86-2.28,6.09-3.83,9.68-4.64,5.34-1.47,10.47-.97,15.38,1.5,2.41,1.12,4.45,2.68,6.12,4.66,1.67,1.98,2.84,4.26,3.49,6.82.72,2.81.67,5.59-.14,8.32-.81,2.73-2.3,5.09-4.45,7.05-2.62,2.44-5.62,4.2-9,5.27s-6.84,1.43-10.41,1.05c3.72-1.19,6.96-3.13,9.73-5.84,2.77-2.7,4.77-5.91,6.02-9.63.66-2.22.78-4.45.38-6.68-.41-2.23-1.33-4.27-2.77-6.12-1.47-1.59-3.2-2.74-5.18-3.45-1.98-.7-4.04-.9-6.16-.59ZM228.06,52.54c-5.09,3.34-8.31,8.02-9.66,14.02-.66,2.66-.33,5.16.98,7.5.38.38.83.6,1.36.68.53.08,1-.1,1.41-.54,2.84-2.88,4.78-6.23,5.81-10.05,1.03-3.83,1.06-7.69.09-11.6Z"/>
    </g>
    <g>
      <path class="cls-3" d="M232.19,263.37c2.94,5.13,3.62,10.53,2.06,16.22-.63,2.91-1.86,5.51-3.7,7.8-1.84,2.3-4.12,4.02-6.84,5.18-1,.5-1.98.55-2.95.14-1.75-.91-2.72-2.34-2.91-4.31-1.56-.16-2.91-.73-4.05-1.73-1.14-1-1.91-2.25-2.32-3.75-.66-3.12-.22-6.11,1.31-8.95,1.62-3.28,3.87-6.06,6.73-8.34,2.86-2.28,6.09-3.83,9.68-4.64,5.34-1.47,10.47-.97,15.38,1.5,2.41,1.12,4.45,2.68,6.12,4.66,1.67,1.98,2.84,4.26,3.49,6.82.72,2.81.67,5.59-.14,8.32-.81,2.73-2.3,5.09-4.45,7.05-2.62,2.44-5.62,4.2-9,5.27s-6.84,1.43-10.41,1.05c3.72-1.19,6.96-3.13,9.73-5.84,2.77-2.7,4.77-5.91,6.02-9.63.66-2.22.78-4.45.38-6.68-.41-2.23-1.33-4.27-2.77-6.12-1.47-1.59-3.2-2.74-5.18-3.45-1.98-.7-4.04-.9-6.16-.59ZM228.06,264.54c-5.09,3.34-8.31,8.02-9.66,14.02-.66,2.66-.33,5.16.98,7.5.38.38.83.6,1.36.68.53.08,1-.1,1.41-.54,2.84-2.88,4.78-6.23,5.81-10.05,1.03-3.83,1.06-7.69.09-11.6Z"/>
      <path class="cls-1" d="M232.19,263.37c2.94,5.13,3.62,10.53,2.06,16.22-.63,2.91-1.86,5.51-3.7,7.8-1.84,2.3-4.12,4.02-6.84,5.18-1,.5-1.98.55-2.95.14-1.75-.91-2.72-2.34-2.91-4.31-1.56-.16-2.91-.73-4.05-1.73-1.14-1-1.91-2.25-2.32-3.75-.66-3.12-.22-6.11,1.31-8.95,1.62-3.28,3.87-6.06,6.73-8.34,2.86-2.28,6.09-3.83,9.68-4.64,5.34-1.47,10.47-.97,15.38,1.5,2.41,1.12,4.45,2.68,6.12,4.66,1.67,1.98,2.84,4.26,3.49,6.82.72,2.81.67,5.59-.14,8.32-.81,2.73-2.3,5.09-4.45,7.05-2.62,2.44-5.62,4.2-9,5.27s-6.84,1.43-10.41,1.05c3.72-1.19,6.96-3.13,9.73-5.84,2.77-2.7,4.77-5.91,6.02-9.63.66-2.22.78-4.45.38-6.68-.41-2.23-1.33-4.27-2.77-6.12-1.47-1.59-3.2-2.74-5.18-3.45-1.98-.7-4.04-.9-6.16-.59ZM228.06,264.54c-5.09,3.34-8.31,8.02-9.66,14.02-.66,2.66-.33,5.16.98,7.5.38.38.83.6,1.36.68.53.08,1-.1,1.41-.54,2.84-2.88,4.78-6.23,5.81-10.05,1.03-3.83,1.06-7.69.09-11.6Z"/>
    </g>
    <g>
      <path class="cls-3" d="M232.19,162.37c2.94,5.13,3.62,10.53,2.06,16.22-.63,2.91-1.86,5.51-3.7,7.8-1.84,2.3-4.12,4.02-6.84,5.18-1,.5-1.98.55-2.95.14-1.75-.91-2.72-2.34-2.91-4.31-1.56-.16-2.91-.73-4.05-1.73-1.14-1-1.91-2.25-2.32-3.75-.66-3.12-.22-6.11,1.31-8.95,1.62-3.28,3.87-6.06,6.73-8.34,2.86-2.28,6.09-3.83,9.68-4.64,5.34-1.47,10.47-.97,15.38,1.5,2.41,1.12,4.45,2.68,6.12,4.66,1.67,1.98,2.84,4.26,3.49,6.82.72,2.81.67,5.59-.14,8.32-.81,2.73-2.3,5.09-4.45,7.05-2.62,2.44-5.62,4.2-9,5.27s-6.84,1.43-10.41,1.05c3.72-1.19,6.96-3.13,9.73-5.84,2.77-2.7,4.77-5.91,6.02-9.63.66-2.22.78-4.45.38-6.68-.41-2.23-1.33-4.27-2.77-6.12-1.47-1.59-3.2-2.74-5.18-3.45-1.98-.7-4.04-.9-6.16-.59ZM228.06,163.54c-5.09,3.34-8.31,8.02-9.66,14.02-.66,2.66-.33,5.16.98,7.5.38.38.83.6,1.36.68.53.08,1-.1,1.41-.54,2.84-2.88,4.78-6.23,5.81-10.05,1.03-3.83,1.06-7.69.09-11.6Z"/>
      <path class="cls-1" d="M232.19,162.37c2.94,5.13,3.62,10.53,2.06,16.22-.63,2.91-1.86,5.51-3.7,7.8-1.84,2.3-4.12,4.02-6.84,5.18-1,.5-1.98.55-2.95.14-1.75-.91-2.72-2.34-2.91-4.31-1.56-.16-2.91-.73-4.05-1.73-1.14-1-1.91-2.25-2.32-3.75-.66-3.12-.22-6.11,1.31-8.95,1.62-3.28,3.87-6.06,6.73-8.34,2.86-2.28,6.09-3.83,9.68-4.64,5.34-1.47,10.47-.97,15.38,1.5,2.41,1.12,4.45,2.68,6.12,4.66,1.67,1.98,2.84,4.26,3.49,6.82.72,2.81.67,5.59-.14,8.32-.81,2.73-2.3,5.09-4.45,7.05-2.62,2.44-5.62,4.2-9,5.27s-6.84,1.43-10.41,1.05c3.72-1.19,6.96-3.13,9.73-5.84,2.77-2.7,4.77-5.91,6.02-9.63.66-2.22.78-4.45.38-6.68-.41-2.23-1.33-4.27-2.77-6.12-1.47-1.59-3.2-2.74-5.18-3.45-1.98-.7-4.04-.9-6.16-.59ZM228.06,163.54c-5.09,3.34-8.31,8.02-9.66,14.02-.66,2.66-.33,5.16.98,7.5.38.38.83.6,1.36.68.53.08,1-.1,1.41-.54,2.84-2.88,4.78-6.23,5.81-10.05,1.03-3.83,1.06-7.69.09-11.6Z"/>
    </g>
    <g>
      <g>
        <path class="cls-2" d="M265.43,33.49c2.64,3.65,3.9,7.79,3.76,12.44-.09,1.19-.32,2.28-.68,3.28-.41.91-1.05,1.64-1.91,2.19-1.19.73-2.42.91-3.69.55-1.32-.36-2.28-1.14-2.87-2.32-.59-1.09-.75-2.19-.48-3.28s.77-2.05,1.5-2.87c2.92-2.73,4.38-6.06,4.38-9.98ZM269.94,19.54l9.98,3.28c.46.18.73.55.82,1.09,0,.55-.21,1-.62,1.37l-1.64.96v5.88c3.55.09,6.4,1.55,8.54,4.38h10.66v-4.1h-11.62l-1.91-3.83h13.54v-10.12l11.42,2.46c.55.09.93.46,1.16,1.09.09.64-.05,1.14-.41,1.5l-2.26,1.78v3.28h5.47l2.87-4.51c.23-.36.5-.55.82-.55.27-.09.62-.04,1.03.14l5.13,5.33c.68.55.82,1.28.41,2.19-.32.82-.93,1.23-1.85,1.23h-13.88v4.1h5.33l2.32-3.14c.18-.27.5-.46.96-.55.46,0,.82.14,1.09.41l3.96,4.38c.41.37.52.87.34,1.5-.27.64-.73.96-1.37.96h-12.65v5.47h7.59l2.87-3.69c.41-.46.89-.73,1.44-.82.64-.09,1.18.05,1.64.41l4.24,4.79c.41.64.48,1.28.21,1.91-.27.64-.78,1-1.5,1.09h-40.26l-1.44-3.69h15.31v-5.47h-9.09c.14.82.04,1.55-.27,2.19-.64,1.09-1.56,1.85-2.77,2.26-1.21.41-2.38.34-3.52-.21-.82-.36-1.46-.96-1.91-1.78-.32-.91-.46-1.78-.41-2.6.23-2-.18-3.87-1.23-5.61v48.95c0,.55-.16.98-.48,1.3-.32.32-.71.52-1.16.62l-5.06.27c-.55,0-.98-.14-1.3-.41-.37-.37-.55-.73-.55-1.09V19.54ZM286.41,50.03l9.71,2.6h13.88l1.85-2.05c.82-1,1.8-1.14,2.94-.41l6.43,4.65c.32.18.48.46.48.82s-.11.68-.34.96l-1.57,1.64v18.87c0,1.46-.41,2.73-1.23,3.83-2.14,2.83-4.95,4.38-8.41,4.65-1.32.09-2.35-.41-3.08-1.5-1.73-2.83-4.01-4.92-6.84-6.29,2.32,0,4.51.18,6.56.55.68.09,1.32-.07,1.91-.48.59-.41.93-.98,1.03-1.71v-5.33h-13.26v12.44c0,.91-.46,1.5-1.37,1.78l-6.36.82c-.68,0-1.23-.23-1.64-.68-.46-.37-.68-.87-.68-1.5v-33.63ZM296.46,56.32v3.28h13.26v-3.28h-13.26ZM296.46,63.43v3.42h13.26v-3.42h-13.26Z"/>
        <path class="cls-2" d="M339.87,18.99l11.21,2.32c.36.18.64.5.82.96.09.46,0,.82-.27,1.09l-1.91,2.19v6.02h1.91l2.87-4.1c.18-.27.55-.46,1.09-.55.46-.09.82.05,1.09.41l4.92,6.02c.27.46.27.91,0,1.37-.27.37-.64.55-1.09.55h-10.8v7.79h2.6l3.28-4.79c.18-.27.5-.46.96-.55.36,0,.68.14.96.41l4.92,5.33v-23.11l10.39,3.42h8.34l2.73-3.42c.27-.36.59-.55.96-.55.27-.09.59-.04.96.14l6.7,4.51c.46.27.68.64.68,1.09,0,.55-.18.96-.55,1.23l-1.78,1.37c-.46,4.38-1.28,8.66-2.46,12.85-.64,1.73-1.75,3.1-3.35,4.1-1.6,1-3.35,1.32-5.26.96-.73-.09-1.28-.5-1.64-1.23-1.28-2.55-3.14-4.6-5.61-6.15l6.02.68c.46.09.82,0,1.09-.27s.46-.64.55-1.09c.64-3.55,1-7.2,1.09-10.94h-9.02v22.42h10.39l1.91-2.46c.55-.64,1.14-.77,1.78-.41l6.29,4.79c.46.27.68.68.68,1.23s-.18.96-.55,1.23l-1.37,1.09c-.55,5.65-2.32,10.76-5.33,15.31,3.19,3.01,6.93,5.15,11.21,6.43-3.19,1.82-6.29,3.92-9.3,6.29-2.55-2.1-4.83-4.38-6.84-6.84-2.55,2.55-5.51,4.65-8.89,6.29,0,.27-.18.41-.55.41l-6.97,1.91c-.64,0-1.16-.18-1.57-.55-.41-.37-.66-.87-.75-1.5v-22.42h-12.71v6.97h2.19l2.87-3.96c.18-.27.5-.46.96-.55.36,0,.68.14.96.41l4.92,4.79c.46.55.55,1.14.27,1.78-.27.55-.73.87-1.37.96h-10.8v11.07c0,.82-.41,1.41-1.23,1.78l-6.15,1.64c-.46.09-.91-.05-1.37-.41-.37-.37-.59-.82-.68-1.37v-12.71h-8.61l-1.78-3.42h10.39v-6.97h-10.39l-1.78-3.42h8.07c-1.55-1.46-2.01-3.19-1.37-5.2.55-1.64.55-3.33,0-5.06h-5.61l-1.37-3.55h12.03v-7.79h-8.2l-1.37-3.69h9.57v-12.58ZM338.91,46.61c1.91.82,3.37,2.14,4.38,3.96.64,1,.87,2.1.68,3.28-.18,1.19-.73,2.19-1.64,3.01h5.06l.96-10.25h-9.43ZM356.28,46.61l2.05,1.09c.36.37.5.78.41,1.23-.18.46-.5.78-.96.96l-2.05.41-5.88,6.56h3.28l2.87-4.92c.27-.36.55-.55.82-.55.36,0,.68.14.96.41l4.65,5.06v-10.25h-6.15ZM372.27,53.04v26.93c2.37-2.64,4.28-5.61,5.74-8.89-3.01-5.47-4.51-11.48-4.51-18.05h-1.23ZM376.24,53.04c.82,4.01,2.28,7.7,4.38,11.07,1.09-3.65,1.59-7.34,1.5-11.07h-5.88Z"/>
        <path class="cls-2" d="M399.55,43.6h48.47l3.83-4.92c.36-.55.88-.87,1.54-.96.66-.09,1.22.09,1.67.55l7.04,6.02c.59.46.77,1.05.55,1.78-.14.64-.55,1.09-1.23,1.37h-18.53l-1.03,1.91v23.11c-.05.55.11,1.07.48,1.57.36.5.84.8,1.44.89,3.24.64,6.38.46,9.43-.55,1-.46,1.71-1.14,2.12-2.05,1.91-4.38,3.08-9.07,3.49-14.08.77,3.37,1.37,6.43,1.78,9.16.36,2.01,1.33,3.53,2.91,4.58,1.57,1.05,2.24,2.53,2.02,4.44-.23,1.73-.92,3.24-2.08,4.51-1.16,1.28-2.59,2.19-4.27,2.73-7.57,1.46-15.22,1.73-22.97.82-1.5-.18-2.8-.84-3.9-1.98-1.09-1.14-1.69-2.48-1.78-4.03v-31.04h-7.66l4.92,2.19c.68.18.98.64.89,1.37.09.64-.21,1.05-.89,1.23l-1.3.68v1.09c0,7.66-2.63,14.38-7.9,20.17s-11.7,9.05-19.31,9.78c4.88-3.46,8.68-7.82,11.42-13.06,2.73-5.24,4.12-10.87,4.17-16.88v-6.56h-13.47l-1.85-3.83ZM404.67,24.6h38.55l4.58-5.2c.27-.46.68-.68,1.23-.68.46-.18.89-.04,1.3.41l6.56,6.29c.64.55.77,1.23.41,2.05-.37.82-.98,1.19-1.85,1.09h-49.22l-1.57-3.96Z"/>
      </g>
      <g>
        <path class="cls-1" d="M288.74,92.85c-2.48,0-4.76-.92-6.46-2.6-.02-.02-.05-.05-.07-.07-1.16.93-2.51,1.56-3.97,1.85-.33.07-.67.11-1.01.13l-5.06.27c-.13,0-.25.01-.38.01-2.23,0-4.26-.73-5.86-2.1-.13-.12-.26-.24-.39-.36-1.67-1.67-2.6-3.82-2.6-6.04v-24.88c-.66-.07-1.32-.2-1.97-.39-3.11-.86-5.67-2.93-7.15-5.82-1.39-2.61-1.75-5.45-1.06-8.21.55-2.2,1.58-4.16,3.06-5.83.14-.16.29-.31.44-.45,1.52-1.42,2.16-2.88,2.16-4.87,0-2.92,1.81-5.52,4.51-6.54v-7.4c0-2.25,1.08-4.35,2.9-5.67,1.21-.88,2.65-1.33,4.1-1.33.73,0,1.47.12,2.19.35l9.98,3.28c.14.05.28.1.42.15,2.33.94,4.08,2.85,4.83,5.24h3.34v-3.12c0-2.12.96-4.12,2.6-5.45,1.26-1.01,2.81-1.55,4.4-1.55.49,0,.99.05,1.48.16l11.32,2.44c1.82.36,3.42,1.28,4.63,2.64.17-.04.33-.07.5-.09.47-.09.95-.13,1.44-.13,1.19,0,2.39.26,3.56.78.83.37,1.58.89,2.21,1.55l4.91,5.11c2.78,2.54,3.58,6.38,2.03,9.98-.36.87-.83,1.65-1.4,2.34.29,1,.39,2.06.28,3.14l1.95,2.21c.24.27.46.56.65.86,1.67,2.6,1.94,5.68.75,8.46-.72,1.67-1.89,3.03-3.37,3.97.03.26.04.53.04.79,0,1.99-.66,3.85-1.91,5.38v16.09c0,2.96-.91,5.73-2.63,8.03-3.37,4.44-8.01,7-13.46,7.43-.33.02-.59.03-.85.03-3.24,0-6.16-1.44-8.14-3.99-1.1,1.45-2.68,2.56-4.59,3.13-.37.11-.74.19-1.12.24l-6.36.82c-.3.04-.6.06-.9.06Z"/>
        <path class="cls-1" d="M342.06,92.19c-1.97,0-3.86-.68-5.47-1.97-.2-.16-.39-.33-.58-.52-1.4-1.4-2.31-3.18-2.64-5.17-.06-.38-.09-.76-.09-1.15v-5.71h-1.61c-2.61,0-5.01-1.45-6.21-3.77l-1.78-3.42c-1.1-2.12-1.05-4.65.14-6.72-.05-.08-.1-.17-.14-.26l-1.78-3.42c-1.13-2.17-1.04-4.77.23-6.86.48-.79,1.1-1.46,1.82-2-.54-.61-.97-1.32-1.28-2.11l-1.37-3.55c-.83-2.15-.54-4.57.76-6.48.69-1.01,1.62-1.8,2.69-2.32l-1.02-2.77c-.8-2.15-.49-4.55.82-6.43,1.31-1.88,3.45-3,5.75-3h2.57v-5.58c0-2.11.95-4.1,2.58-5.43,1.26-1.03,2.82-1.57,4.42-1.57.47,0,.95.05,1.42.15l11.21,2.32c.6.12,1.17.32,1.72.6.85.42,1.6.97,2.25,1.63.48-.77,1.1-1.45,1.86-2,1.21-.88,2.65-1.33,4.11-1.33.73,0,1.47.12,2.19.35l9.33,3.07h3.85l.59-.74c1.37-1.76,3.29-2.87,5.4-3.16.45-.08.9-.12,1.36-.12,1.29,0,2.57.31,3.79.91.27.14.54.29.79.46l6.6,4.45c2.43,1.55,3.87,4.14,3.87,6.96,0,2.47-.99,4.73-2.73,6.32-.53,3.74-1.3,7.44-2.32,11.03-.05.17-.11.35-.17.52-.09.25-.19.49-.29.73l2.01,1.53c2.28,1.57,3.63,4.13,3.63,6.94,0,2.27-.84,4.37-2.33,5.93-.56,3.39-1.52,6.64-2.88,9.7,1.29.71,2.68,1.28,4.17,1.72,2.69.8,4.64,3.12,4.96,5.91s-1.05,5.49-3.48,6.88c-2.88,1.64-5.72,3.57-8.44,5.71-1.27,1-2.8,1.5-4.33,1.5s-3.15-.53-4.44-1.59c-1.04-.86-2.06-1.75-3.03-2.67-1.21.82-2.46,1.59-3.77,2.29-1.01.87-2.26,1.48-3.66,1.72l-6.49,1.78c-.6.17-1.23.25-1.85.25-2.37,0-4.52-.8-6.22-2.31-1.22-1.08-2.11-2.44-2.62-3.99-.89,1.94-2.49,3.53-4.58,4.47-.34.15-.69.27-1.04.37l-6.15,1.64c-.14.04-.29.07-.44.1-.54.11-1.09.16-1.64.16Z"/>
        <path class="cls-1" d="M445.09,92.01c-3.21,0-6.48-.19-9.72-.57-3.12-.38-5.92-1.79-8.13-4.09-2.19-2.28-3.47-5.12-3.7-8.24-6.41,6.94-14.35,10.9-23.6,11.79-.22.02-.45.03-.67.03-2.9,0-5.53-1.8-6.56-4.56-1.11-2.97-.08-6.31,2.51-8.15,4-2.84,7.03-6.3,9.26-10.59,2.16-4.14,3.26-8.47,3.37-13.21h-6.46c-2.69,0-5.14-1.54-6.31-3.96l-1.85-3.83c-1.05-2.17-.9-4.72.38-6.76,1.28-2.04,3.52-3.28,5.93-3.28h45.04l.81-1.04h-39.15c-2.87,0-5.45-1.75-6.51-4.42l-1.57-3.96c-.86-2.16-.59-4.6.72-6.51,1.3-1.92,3.47-3.07,5.79-3.07h35.39l2.24-2.54c1.34-1.78,3.31-2.94,5.51-3.26.53-.11,1.07-.16,1.61-.16,2.21,0,4.28.9,5.88,2.55l6.35,6.08c2.83,2.56,3.64,6.47,2.06,10.03-.67,1.5-1.69,2.75-2.93,3.64l5.77,4.93c2.71,2.2,3.79,5.59,2.86,8.96-.68,2.69-2.54,4.85-5.16,5.98.65.81,1.13,1.77,1.38,2.84.8,3.48,1.42,6.69,1.86,9.54,0,0,0,.01,0,.02,3.69,2.53,5.5,6.53,4.97,11.02-.43,3.26-1.72,6.05-3.86,8.4-1.99,2.18-4.44,3.76-7.29,4.68-.27.09-.55.16-.84.22-5.07.98-10.25,1.47-15.39,1.47ZM448.86,68.2c.21-.03.42-.06.63-.1,1.25-3.23,2.04-6.75,2.34-10.44.1-1.19.49-2.29,1.1-3.23h-4.07v13.77Z"/>
      </g>
      <g>
        <path class="cls-4" d="M265.43,33.49c2.64,3.65,3.9,7.79,3.76,12.44-.09,1.19-.32,2.28-.68,3.28-.41.91-1.05,1.64-1.91,2.19-1.19.73-2.42.91-3.69.55-1.32-.36-2.28-1.14-2.87-2.32-.59-1.09-.75-2.19-.48-3.28s.77-2.05,1.5-2.87c2.92-2.73,4.38-6.06,4.38-9.98ZM269.94,19.54l9.98,3.28c.46.18.73.55.82,1.09,0,.55-.21,1-.62,1.37l-1.64.96v5.88c3.55.09,6.4,1.55,8.54,4.38h10.66v-4.1h-11.62l-1.91-3.83h13.54v-10.12l11.42,2.46c.55.09.93.46,1.16,1.09.09.64-.05,1.14-.41,1.5l-2.26,1.78v3.28h5.47l2.87-4.51c.23-.36.5-.55.82-.55.27-.09.62-.04,1.03.14l5.13,5.33c.68.55.82,1.28.41,2.19-.32.82-.93,1.23-1.85,1.23h-13.88v4.1h5.33l2.32-3.14c.18-.27.5-.46.96-.55.46,0,.82.14,1.09.41l3.96,4.38c.41.37.52.87.34,1.5-.27.64-.73.96-1.37.96h-12.65v5.47h7.59l2.87-3.69c.41-.46.89-.73,1.44-.82.64-.09,1.18.05,1.64.41l4.24,4.79c.41.64.48,1.28.21,1.91-.27.64-.78,1-1.5,1.09h-40.26l-1.44-3.69h15.31v-5.47h-9.09c.14.82.04,1.55-.27,2.19-.64,1.09-1.56,1.85-2.77,2.26-1.21.41-2.38.34-3.52-.21-.82-.36-1.46-.96-1.91-1.78-.32-.91-.46-1.78-.41-2.6.23-2-.18-3.87-1.23-5.61v48.95c0,.55-.16.98-.48,1.3-.32.32-.71.52-1.16.62l-5.06.27c-.55,0-.98-.14-1.3-.41-.37-.37-.55-.73-.55-1.09V19.54ZM286.41,50.03l9.71,2.6h13.88l1.85-2.05c.82-1,1.8-1.14,2.94-.41l6.43,4.65c.32.18.48.46.48.82s-.11.68-.34.96l-1.57,1.64v18.87c0,1.46-.41,2.73-1.23,3.83-2.14,2.83-4.95,4.38-8.41,4.65-1.32.09-2.35-.41-3.08-1.5-1.73-2.83-4.01-4.92-6.84-6.29,2.32,0,4.51.18,6.56.55.68.09,1.32-.07,1.91-.48.59-.41.93-.98,1.03-1.71v-5.33h-13.26v12.44c0,.91-.46,1.5-1.37,1.78l-6.36.82c-.68,0-1.23-.23-1.64-.68-.46-.37-.68-.87-.68-1.5v-33.63ZM296.46,56.32v3.28h13.26v-3.28h-13.26ZM296.46,63.43v3.42h13.26v-3.42h-13.26Z"/>
        <path class="cls-4" d="M339.87,18.99l11.21,2.32c.36.18.64.5.82.96.09.46,0,.82-.27,1.09l-1.91,2.19v6.02h1.91l2.87-4.1c.18-.27.55-.46,1.09-.55.46-.09.82.05,1.09.41l4.92,6.02c.27.46.27.91,0,1.37-.27.37-.64.55-1.09.55h-10.8v7.79h2.6l3.28-4.79c.18-.27.5-.46.96-.55.36,0,.68.14.96.41l4.92,5.33v-23.11l10.39,3.42h8.34l2.73-3.42c.27-.36.59-.55.96-.55.27-.09.59-.04.96.14l6.7,4.51c.46.27.68.64.68,1.09,0,.55-.18.96-.55,1.23l-1.78,1.37c-.46,4.38-1.28,8.66-2.46,12.85-.64,1.73-1.75,3.1-3.35,4.1-1.6,1-3.35,1.32-5.26.96-.73-.09-1.28-.5-1.64-1.23-1.28-2.55-3.14-4.6-5.61-6.15l6.02.68c.46.09.82,0,1.09-.27s.46-.64.55-1.09c.64-3.55,1-7.2,1.09-10.94h-9.02v22.42h10.39l1.91-2.46c.55-.64,1.14-.77,1.78-.41l6.29,4.79c.46.27.68.68.68,1.23s-.18.96-.55,1.23l-1.37,1.09c-.55,5.65-2.32,10.76-5.33,15.31,3.19,3.01,6.93,5.15,11.21,6.43-3.19,1.82-6.29,3.92-9.3,6.29-2.55-2.1-4.83-4.38-6.84-6.84-2.55,2.55-5.51,4.65-8.89,6.29,0,.27-.18.41-.55.41l-6.97,1.91c-.64,0-1.16-.18-1.57-.55-.41-.37-.66-.87-.75-1.5v-22.42h-12.71v6.97h2.19l2.87-3.96c.18-.27.5-.46.96-.55.36,0,.68.14.96.41l4.92,4.79c.46.55.55,1.14.27,1.78-.27.55-.73.87-1.37.96h-10.8v11.07c0,.82-.41,1.41-1.23,1.78l-6.15,1.64c-.46.09-.91-.05-1.37-.41-.37-.37-.59-.82-.68-1.37v-12.71h-8.61l-1.78-3.42h10.39v-6.97h-10.39l-1.78-3.42h8.07c-1.55-1.46-2.01-3.19-1.37-5.2.55-1.64.55-3.33,0-5.06h-5.61l-1.37-3.55h12.03v-7.79h-8.2l-1.37-3.69h9.57v-12.58ZM338.91,46.61c1.91.82,3.37,2.14,4.38,3.96.64,1,.87,2.1.68,3.28-.18,1.19-.73,2.19-1.64,3.01h5.06l.96-10.25h-9.43ZM356.28,46.61l2.05,1.09c.36.37.5.78.41,1.23-.18.46-.5.78-.96.96l-2.05.41-5.88,6.56h3.28l2.87-4.92c.27-.36.55-.55.82-.55.36,0,.68.14.96.41l4.65,5.06v-10.25h-6.15ZM372.27,53.04v26.93c2.37-2.64,4.28-5.61,5.74-8.89-3.01-5.47-4.51-11.48-4.51-18.05h-1.23ZM376.24,53.04c.82,4.01,2.28,7.7,4.38,11.07,1.09-3.65,1.59-7.34,1.5-11.07h-5.88Z"/>
        <path class="cls-4" d="M399.55,43.6h48.47l3.83-4.92c.36-.55.88-.87,1.54-.96.66-.09,1.22.09,1.67.55l7.04,6.02c.59.46.77,1.05.55,1.78-.14.64-.55,1.09-1.23,1.37h-18.53l-1.03,1.91v23.11c-.05.55.11,1.07.48,1.57.36.5.84.8,1.44.89,3.24.64,6.38.46,9.43-.55,1-.46,1.71-1.14,2.12-2.05,1.91-4.38,3.08-9.07,3.49-14.08.77,3.37,1.37,6.43,1.78,9.16.36,2.01,1.33,3.53,2.91,4.58,1.57,1.05,2.24,2.53,2.02,4.44-.23,1.73-.92,3.24-2.08,4.51-1.16,1.28-2.59,2.19-4.27,2.73-7.57,1.46-15.22,1.73-22.97.82-1.5-.18-2.8-.84-3.9-1.98-1.09-1.14-1.69-2.48-1.78-4.03v-31.04h-7.66l4.92,2.19c.68.18.98.64.89,1.37.09.64-.21,1.05-.89,1.23l-1.3.68v1.09c0,7.66-2.63,14.38-7.9,20.17s-11.7,9.05-19.31,9.78c4.88-3.46,8.68-7.82,11.42-13.06,2.73-5.24,4.12-10.87,4.17-16.88v-6.56h-13.47l-1.85-3.83ZM404.67,24.6h38.55l4.58-5.2c.27-.46.68-.68,1.23-.68.46-.18.89-.04,1.3.41l6.56,6.29c.64.55.77,1.23.41,2.05-.37.82-.98,1.19-1.85,1.09h-49.22l-1.57-3.96Z"/>
      </g>
    </g>
    <g>
      <path class="cls-3" d="M26.25,48.3c0-2,.73-3.74,2.19-5.2s3.19-2.19,5.2-2.19,3.74.73,5.2,2.19c1.46,1.46,2.19,3.19,2.19,5.2s-.71,3.87-2.12,5.33c-1.41,1.46-3.14,2.19-5.2,2.19s-3.81-.73-5.26-2.19c-1.46-1.46-2.19-3.24-2.19-5.33Z"/>
      <path class="cls-1" d="M26.25,48.3c0-2,.73-3.74,2.19-5.2s3.19-2.19,5.2-2.19,3.74.73,5.2,2.19c1.46,1.46,2.19,3.19,2.19,5.2s-.71,3.87-2.12,5.33c-1.41,1.46-3.14,2.19-5.2,2.19s-3.81-.73-5.26-2.19c-1.46-1.46-2.19-3.24-2.19-5.33Z"/>
    </g>
    <g>
      <path class="cls-3" d="M26.25,161.3c0-2,.73-3.74,2.19-5.2s3.19-2.19,5.2-2.19,3.74.73,5.2,2.19c1.46,1.46,2.19,3.19,2.19,5.2s-.71,3.87-2.12,5.33c-1.41,1.46-3.14,2.19-5.2,2.19s-3.81-.73-5.26-2.19c-1.46-1.46-2.19-3.24-2.19-5.33Z"/>
      <path class="cls-1" d="M26.25,161.3c0-2,.73-3.74,2.19-5.2s3.19-2.19,5.2-2.19,3.74.73,5.2,2.19c1.46,1.46,2.19,3.19,2.19,5.2s-.71,3.87-2.12,5.33c-1.41,1.46-3.14,2.19-5.2,2.19s-3.81-.73-5.26-2.19c-1.46-1.46-2.19-3.24-2.19-5.33Z"/>
    </g>
    <g>
      <path class="cls-3" d="M26.25,272.3c0-2,.73-3.74,2.19-5.2s3.19-2.19,5.2-2.19,3.74.73,5.2,2.19c1.46,1.46,2.19,3.19,2.19,5.2s-.71,3.87-2.12,5.33c-1.41,1.46-3.14,2.19-5.2,2.19s-3.81-.73-5.26-2.19c-1.46-1.46-2.19-3.24-2.19-5.33Z"/>
      <path class="cls-1" d="M26.25,272.3c0-2,.73-3.74,2.19-5.2s3.19-2.19,5.2-2.19,3.74.73,5.2,2.19c1.46,1.46,2.19,3.19,2.19,5.2s-.71,3.87-2.12,5.33c-1.41,1.46-3.14,2.19-5.2,2.19s-3.81-.73-5.26-2.19c-1.46-1.46-2.19-3.24-2.19-5.33Z"/>
    </g>
  </g>
</svg>