<?xml version="1.0" encoding="UTF-8"?>
<svg id="_レイヤー_2" data-name="レイヤー 2" xmlns="http://www.w3.org/2000/svg" xmlns:xlink="http://www.w3.org/1999/xlink" viewBox="0 0 391.32 69">
  <defs>
    <style>
      .cls-1 {
        fill: url(#_名称未設定グラデーション_120-5);
      }

      .cls-2 {
        fill: url(#_名称未設定グラデーション_120-6);
      }

      .cls-3 {
        fill: #fff;
      }

      .cls-4 {
        fill: url(#_名称未設定グラデーション_120-4);
      }

      .cls-5 {
        fill: url(#_名称未設定グラデーション_120-2);
      }

      .cls-6 {
        fill: url(#_名称未設定グラデーション_120-3);
      }

      .cls-7 {
        fill: url(#_名称未設定グラデーション_120);
      }

      .cls-8 {
        fill: none;
        stroke: #000;
        stroke-width: 6px;
      }

      .cls-9 {
        fill: url(#_名称未設定グラデーション_120-7);
      }
    </style>
    <linearGradient id="_名称未設定グラデーション_120" data-name="名称未設定グラデーション 120" x1="33.95" y1="68.96" x2="33.95" y2="-.04" gradientUnits="userSpaceOnUse">
      <stop offset="0" stop-color="#945700"/>
      <stop offset=".19" stop-color="#e9a900"/>
      <stop offset=".29" stop-color="#f5f8b4"/>
      <stop offset=".4" stop-color="#e9a900"/>
      <stop offset="1" stop-color="#fff87f"/>
    </linearGradient>
    <linearGradient id="_名称未設定グラデーション_120-2" data-name="名称未設定グラデーション 120" x1="88.05" y1="69" x2="88.05" y2="0" xlink:href="#_名称未設定グラデーション_120"/>
    <linearGradient id="_名称未設定グラデーション_120-3" data-name="名称未設定グラデーション 120" x1="142.4" y1="69" x2="142.4" y2="0" xlink:href="#_名称未設定グラデーション_120"/>
    <linearGradient id="_名称未設定グラデーション_120-4" data-name="名称未設定グラデーション 120" x1="195.99" y1="69" x2="195.99" y2="0" xlink:href="#_名称未設定グラデーション_120"/>
    <linearGradient id="_名称未設定グラデーション_120-5" data-name="名称未設定グラデーション 120" x1="250.05" y1="69" x2="250.05" y2="0" xlink:href="#_名称未設定グラデーション_120"/>
    <linearGradient id="_名称未設定グラデーション_120-6" data-name="名称未設定グラデーション 120" x1="303.99" y1="69" x2="303.99" y2="0" xlink:href="#_名称未設定グラデーション_120"/>
    <linearGradient id="_名称未設定グラデーション_120-7" data-name="名称未設定グラデーション 120" x1="357.98" y1="69" x2="357.98" y2="0" xlink:href="#_名称未設定グラデーション_120"/>
  </defs>
  <g id="_レイヤー_1-2" data-name="レイヤー 1">
    <g>
      <g>
        <path class="cls-3" d="M17.18,17.65l7.91,1.74h.9c1.51-3.69,2.34-7.44,2.48-11.23l9.76,4.22c.53.14.72.47.58,1,0,.53-.25.83-.74.9l-2.06.58c-2.25,1.3-4.27,2.81-6.06,4.54h11.65l1.58-2.48c.39-.56.88-.7,1.48-.42l6.7,4.27c.25.21.37.47.37.79s-.12.58-.37.79l-1.58,1.53v10.71h.53l2.64-3.96c.25-.28.54-.42.9-.42s.62.14.79.42l4.96,4.96c.35.35.43.76.24,1.21-.19.46-.54.69-1.03.69h-9.02v15.61c-.07,2.11-.88,3.81-2.43,5.12-1.69,1.48-3.66,2.39-5.91,2.74-.81.11-1.44-.21-1.9-.95-1.9-2.95-4.5-5.04-7.8-6.28,3.06,0,5.78.12,8.17.37.39,0,.74-.12,1.05-.37.25-.25.4-.58.47-1v-15.24h-16.35v2.27c-.28,4.57-1.75,8.7-4.4,12.39s-6.07,6.42-10.26,8.17c4.25-5.94,6.5-12.53,6.75-19.78v-3.06h-7.86l-1.32-2.9h9.18v-16.93ZM25.09,21.87v12.71h16.35v-12.71h-16.35ZM27.72,22.77c1.97-.25,3.83.06,5.59.92,1.76.86,3.16,2.12,4.22,3.77.46.77.67,1.61.63,2.5s-.35,1.71-.95,2.45c-.56.77-1.34,1.27-2.32,1.48s-1.9.05-2.74-.47c-1.37-.63-2.06-1.71-2.06-3.22.21-2.78-.58-5.25-2.37-7.44ZM27.83,38.16c2.36.11,4.46.9,6.33,2.37s3.09,3.34,3.69,5.59c.42,1.55.14,2.92-.84,4.11-.6.74-1.36,1.23-2.29,1.48-.93.25-1.85.16-2.77-.26-.81-.35-1.46-.92-1.95-1.71s-.7-1.64-.63-2.56c.49-3.2-.02-6.2-1.53-9.02Z"/>
        <path class="cls-3" d="M66.01,22.66h8.33c-1.41-1.05-2.14-2.46-2.21-4.22-.07-3.09-1.09-5.87-3.06-8.33,3.73.56,6.96,2.18,9.7,4.85,1.05,1.13,1.55,2.44,1.48,3.96-.07,1.51-.63,2.76-1.69,3.74h2.95c.84-4.99,1.05-9.88.63-14.66l10.86,3.38c.42.14.63.46.63.95s-.21.77-.63.84l-1.58.63c-.28,2.95-.95,5.91-2,8.86h2.64c2.04-4.01,3.52-8.23,4.43-12.66l8.54,5.06c.42.28.54.69.37,1.21s-.51.79-1,.79l-2.21-.11c-2.46,1.55-4.71,3.45-6.75,5.7h4.75l2.53-3.69c.28-.35.6-.53.95-.53.42,0,.74.18.95.53l5.06,4.85c.21.28.25.6.11.95-.07.28-.32.46-.74.53h-16.35c1.05,2.32,2.39,4.43,4.01,6.33h4.96l2.74-3.9c.21-.35.53-.49.95-.42.42-.07.74.07.95.42l5.8,5.27c.21.21.25.49.11.84-.07.28-.28.42-.63.42h-12.45c4.43,3.73,9.6,5.77,15.5,6.12-3.23,1.83-6.01,4.15-8.33,6.96-1.48-.84-2.92-1.79-4.32-2.85-.42,3.66-1.2,7.21-2.32,10.65-.56,1.41-1.51,2.64-2.85,3.69-1.41,1.05-2.99,1.76-4.75,2.11-1.27.21-2.32-.18-3.16-1.16-1.2-1.48-2.07-2.6-2.64-3.38-.77-1.2-1.83-2-3.16-2.43,2.39-.28,4.75-.28,7.07,0,.42.07.83-.03,1.21-.32.39-.28.65-.6.79-.95,1.2-3.23,1.83-6.57,1.9-10.02h-6.54c-1.27,5.7-4.29,10.3-9.07,13.82-4.01,2.39-8.4,3.62-13.18,3.69,3.66-1.62,6.73-3.96,9.23-7.01s4.06-6.56,4.69-10.49h-2.85l-1.05-.95c-4.22,3.09-8.82,5.24-13.82,6.43,6.4-3.3,11.46-7.94,15.19-13.92h-11.81l-1.9-2.64h15.19c.91-1.76,1.79-3.87,2.64-6.33h-13.08l-1.69-2.64ZM83.2,34.26c-1.55,1.9-3.27,3.66-5.17,5.27h16.66c.07-.56.35-1.05.84-1.48-.91-1.41-1.69-2.67-2.32-3.8h-10.02ZM88.47,25.3c-.91,2.04-2.04,4.15-3.38,6.33h6.86c-.77-1.97-1.41-4.08-1.9-6.33h-1.58Z"/>
        <path class="cls-3" d="M141.58,21.08c3.3,5.77,4.08,11.85,2.32,18.25-.7,3.27-2.09,6.2-4.17,8.78-2.08,2.58-4.64,4.53-7.7,5.83-1.13.56-2.23.62-3.32.16-1.97-1.02-3.06-2.64-3.27-4.85-1.76-.18-3.28-.83-4.56-1.95-1.28-1.12-2.15-2.53-2.61-4.22-.74-3.51-.25-6.87,1.48-10.07,1.83-3.69,4.35-6.82,7.57-9.39,3.22-2.57,6.85-4.31,10.89-5.22,6.01-1.65,11.78-1.09,17.3,1.69,2.71,1.27,5,3.01,6.88,5.25,1.88,2.23,3.19,4.79,3.93,7.67.81,3.16.76,6.28-.16,9.36-.92,3.08-2.58,5.72-5.01,7.94-2.95,2.74-6.33,4.72-10.12,5.93s-7.7,1.61-11.71,1.19c4.18-1.34,7.83-3.52,10.94-6.57,3.11-3.04,5.37-6.65,6.78-10.84.74-2.5.88-5,.42-7.51-.46-2.51-1.5-4.81-3.11-6.88-1.65-1.79-3.59-3.08-5.83-3.88-2.23-.79-4.54-1.01-6.93-.66ZM136.94,22.4c-5.73,3.76-9.35,9.02-10.86,15.77-.74,2.99-.37,5.8,1.11,8.44.42.42.93.68,1.53.76.6.09,1.12-.11,1.58-.61,3.2-3.23,5.38-7,6.54-11.31,1.16-4.31,1.19-8.66.11-13.05Z"/>
        <path class="cls-3" d="M207.49,31.73v2.95h1.58l1.32-1.9c.53-.56,1.09-.67,1.69-.32l4.64,3.48c.32.28.47.63.47,1.05s-.19.74-.58.95l-.95.53v7.91l1.9-2.53c.21-.28.49-.42.84-.42s.61.14.79.42l2.53,3.8c.21.28.25.6.11.95-.14.28-.39.53-.74.74h-5.43v4.75c-.11,1.27-.46,2.39-1.05,3.38-1.2,1.76-2.83,2.74-4.9,2.95-1.16.07-2.09-.39-2.79-1.37-1.2-2.04-2.88-3.38-5.06-4.01,1.72-.14,3.55-.11,5.48.11.39,0,.77-.14,1.16-.42.32-.35.47-.74.47-1.16v-4.22h-10.23v8.96c-.07.7-.44,1.19-1.11,1.48l-4.17.74c-.35.07-.69,0-1-.21-.25-.21-.4-.53-.47-.95v-10.02h-2.85l-.26-.95-3.22.95c2.25,1.48,3.96,3.41,5.12,5.8.63,1.34.53,2.6-.32,3.8-1.13,1.27-2.46,1.55-4.01.84-1.16-.49-1.78-1.41-1.85-2.74.07-3.45-.95-6.57-3.06-9.39l1.48.53v-1.05h-3.53c-.14.49-.37.84-.69,1.05l3.43,2.74c.25.14.33.39.26.74-.07.28-.25.49-.53.63l-1.58.21c-2.5,3.8-5.94,6.29-10.34,7.49,2.85-3.16,4.69-6.86,5.54-11.07l-1.32.21c-.42.07-.77-.03-1.05-.32-.32-.35-.47-.7-.47-1.05V10.43l6.86,1.79h3.96l.95-1.48c.49-.77,1.14-.91,1.95-.42l4.38,2.85c.35.21.53.53.53.95s-.14.7-.42.84l-1.16.84v.32h5.33v-7.7l8.12,2.32c.39.07.65.32.79.74.07.35-.05.67-.37.95l-1.32.95v2.74h2.79v-7.7l7.38,2c.39.14.67.46.84.95,0,.42-.18.77-.53,1.05l-.84.63v3.06h.79l1.48-2.43c.14-.28.4-.46.79-.53.35,0,.63.14.84.42l2.95,4.01c.28.28.33.63.16,1.05-.14.35-.4.53-.79.53h-6.22v3.06l1.69-2.43c.25-.28.54-.42.9-.42.39,0,.7.14.95.42l2.95,3.9c.18.28.21.56.11.84-.11.35-.32.56-.63.63h-5.96v3.48h.63l2.27-2.85c.18-.28.46-.42.84-.42.32,0,.56.14.74.42l3.48,4.32c.21.28.26.6.16.95-.11.35-.35.56-.74.63h-11.87ZM179.6,15.07v7.8h3.43v-7.8h-3.43ZM179.6,25.82v7.28h3.43v-7.28h-3.43ZM179.6,35.95v8.54h3.43v-8.54h-3.43ZM195.1,19.18h-3.85l-1.48-1.9v11.39h5.33v-3.48h-2.85l-1.69-2.95h4.54v-3.06ZM189.78,31.73v14.66h2.21v-13.29l7.01,1.58h1.21v-2.95h-10.44ZM198.74,37.53v2.74h1.48v-2.74h-1.48ZM198.74,43.23v3.16h1.48v-3.16h-1.48ZM202.33,19.18v3.06h2.79v-3.06h-2.79ZM202.33,25.19v3.48h2.79v-3.48h-2.79ZM207.49,37.53v2.74h1.48v-2.74h-1.48ZM207.49,43.23v3.16h1.48v-3.16h-1.48Z"/>
        <path class="cls-3" d="M224.11,60.73c6.19-4.5,10.9-10.09,14.13-16.77,3.23-6.68,4.67-13.85,4.32-21.52l6.33,2.21c-.14-3.3.03-6.4.53-9.28h-11.92l-1.05-3.27h13.71l1.9-3.06c.14-.21.35-.39.63-.53.28,0,.49.11.63.32l6.12,4.96c.28.42.32.84.11,1.27-.21.56-.56.84-1.05.84-1.62.07-3.02.67-4.22,1.79-1.13,1.27-1.51,2.71-1.16,4.32.84,7.03,3.29,13.36,7.33,18.98,4.04,5.62,9.23,9.91,15.56,12.87-3.8,1.2-7.17,3.23-10.12,6.12-8.23-7.1-13.54-15.96-15.93-26.58-1.34,6.68-4.32,12.48-8.96,17.4s-10.27,8.23-16.88,9.91Z"/>
        <path class="cls-3" d="M277.89,20.18h21.46v-11.65l10.23,2.11c.53.11.88.44,1.05,1,.07.53-.09.95-.47,1.27l-1.58,1.37v5.91h10.02l3.16-4.32c.28-.42.64-.63,1.08-.63s.8.16,1.08.47l5.8,5.7c.32.28.42.69.32,1.21-.21.42-.53.69-.95.79h-24.89c.03,2.11-.09,4.4-.37,6.86h10.28l1.53-2.32c.18-.32.43-.49.76-.53.33-.03.62.07.87.32l6.49,4.69c.25.14.4.39.47.74,0,.35-.11.65-.32.9l-1.63,1.32c-.74,6.96-2.72,13.61-5.96,19.93-1.02,1.72-2.39,3.11-4.11,4.17-1.65.84-3.46,1.23-5.43,1.16-.67,0-1.29-.2-1.87-.61-.58-.4-.99-.96-1.24-1.66-1.23-2.71-3.16-4.75-5.8-6.12,2.88.7,5.82.95,8.81.74,1.19-.35,2.06-1.05,2.58-2.11,2.6-5.66,4.04-11.62,4.32-17.88h-10.12c-.77,4.18-2.16,8.16-4.17,11.92-1.93,3.62-4.51,6.61-7.73,8.96s-6.81,3.96-10.78,4.8c4.78-4.75,8.46-10.13,11.02-16.16,2.57-6.03,3.92-12.4,4.06-19.12h-16.35l-1.63-3.22Z"/>
        <path class="cls-3" d="M349.93,19.39c0,.07-.14.49-.42,1.27-.28.77-.46,1.23-.53,1.37h9.39v-13.39l10.44,2.85c.42.07.63.28.63.63.07.35-.07.63-.42.84l-1.9,1.27v7.8h5.17l2.32-4.22c.21-.28.47-.42.79-.42s.58.14.79.42l5.27,5.8c.21.28.25.56.11.84-.21.21-.46.32-.74.32h-13.71v9.07h7.17l2.21-4.11c.28-.28.58-.42.9-.42s.61.14.9.42l4.75,5.48c.28.28.35.63.21,1.05-.14.35-.42.53-.84.53h-19.93l4.22,1.79c.28.07.42.25.42.53-.07.35-.25.53-.53.53l-2.21.74-6.33,9.6c3.94-.42,8.16-.98,12.66-1.69-.92-2.53-2.36-4.78-4.32-6.75,3.51.49,6.66,1.79,9.44,3.9,2.78,2.11,4.9,4.82,6.38,8.12.56,2.11.03,3.87-1.58,5.27-.7.7-1.56,1.12-2.58,1.27-1.02.14-1.99.03-2.9-.32-.92-.35-1.67-.93-2.27-1.74-.6-.81-.93-1.74-1-2.79.07-1.27-.04-2.67-.32-4.22l-18.77,7.49-.84,1.37c-.07.42-.32.6-.74.53-.35,0-.63-.14-.84-.42l-5.38-9.6c3.23,0,6.19-.07,8.86-.21l2.95-13.39h-10.76l-1.16-.95c-.77,3.66-1.48,7.42-2.11,11.29-.07,1.05.11,2,.53,2.85.7,1.34,1.19,2.64,1.48,3.9.07,1.05-.14,2.06-.63,3.01-.49.95-1.23,1.67-2.21,2.16-2.11,1.05-4.04.77-5.8-.84-.77-.7-1.28-1.56-1.53-2.58-.25-1.02-.16-2.06.26-3.11.56-1.27.74-2.57.53-3.9-.21-1.76-1.13-2.88-2.74-3.38.7.14,1.42.07,2.16-.21.74-.28,1.32-.77,1.74-1.48,4.08-8.65,8.54-16.7,13.39-24.15ZM332.63,22.55c1.83-.42,3.64-.26,5.43.47s3.25,1.88,4.38,3.43c.98,1.34,1.09,2.74.32,4.22-.35.7-.88,1.21-1.58,1.53-.7.32-1.41.44-2.11.37-1.69-.21-2.74-1.12-3.16-2.74-.14-2.88-1.23-5.31-3.27-7.28ZM336.85,11.27c1.97-.28,3.9-.07,5.8.63,1.9.7,3.55,1.79,4.96,3.27.49.63.77,1.35.84,2.16.07.81-.07,1.53-.42,2.16-.42.7-1,1.23-1.74,1.58-.74.35-1.5.46-2.27.32-.77-.14-1.42-.49-1.95-1.05-.53-.56-.9-1.23-1.11-2-.35-2.95-1.72-5.31-4.11-7.07ZM348.45,23.29c-1.05,3.45-2.08,6.96-3.06,10.55h12.97v-9.07h-9.07l-.84-1.48Z"/>
      </g>
      <g>
        <path class="cls-7" d="M41.14,68.96c-3.39,0-6.5-1.74-8.35-4.67-.96-1.48-2.18-2.45-3.85-3.08-1.34-.5-2.48-1.33-3.35-2.37-3.27,3.88-7.32,6.84-12.06,8.84-1,.42-2.06.63-3.1.63-2.38,0-4.7-1.06-6.25-3.01-2.23-2.8-2.34-6.74-.25-9.65,2.29-3.2,3.82-6.58,4.62-10.21-2.82-.27-5.32-2.03-6.51-4.65l-1.32-2.9c-1.13-2.48-.92-5.35.56-7.64s4.01-3.67,6.73-3.67h1.18v-8.93c0-2.42,1.1-4.72,2.99-6.24,1.43-1.15,3.21-1.76,5.01-1.76.57,0,1.15.06,1.72.19l1.37.3c.1-.76.17-1.52.2-2.28.1-2.64,1.49-5.06,3.73-6.47,1.3-.82,2.78-1.23,4.27-1.23,1.08,0,2.16.22,3.17.66l9.45,4.09c1.86.68,3.41,1.92,4.44,3.56.86.14,1.71.4,2.53.79.31.14.61.31.9.49l6.7,4.27c.32.2.62.43.9.67,2.01,1.72,3.16,4.23,3.16,6.87,0,.87-.13,1.73-.37,2.54.45.35.87.75,1.25,1.19l4.63,4.63c2.64,2.64,3.4,6.56,1.95,9.99-1.45,3.43-4.67,5.56-8.39,5.56h-1.02v7.61c0,.09,0,.18,0,.27-.15,4.37-1.95,8.14-5.21,10.92-2.82,2.45-6.15,3.99-9.88,4.58-.07,0-.13.02-.2.03-.44.06-.89.09-1.33.09Z"/>
        <path class="cls-5" d="M91.41,69c-3.32,0-6.37-1.42-8.59-4.01-.05-.06-.1-.12-.15-.18-.29-.36-.57-.7-.83-1.03-5.02,2.84-10.56,4.33-16.46,4.41-.04,0-.08,0-.12,0-3.75,0-7.01-2.61-7.81-6.29-.49-2.22,0-4.47,1.22-6.24-2.11-.79-3.86-2.46-4.7-4.71-1.41-3.79.23-8.04,3.83-9.89.56-.29,1.11-.59,1.65-.91-.4-.37-.77-.78-1.1-1.23l-1.9-2.64c-1.75-2.44-2-5.65-.63-8.32.61-1.19,1.49-2.18,2.55-2.92-.64-2.05-.45-4.3.61-6.24.89-1.63,2.3-2.86,3.96-3.55-.04-.05-.08-.11-.13-.16-2.06-2.57-2.33-6.14-.68-8.99,1.44-2.5,4.1-4,6.93-4,.4,0,.8.03,1.2.09,1.82.27,3.57.73,5.24,1.35.44-.66.99-1.26,1.63-1.78,1.44-1.16,3.22-1.77,5.02-1.77.79,0,1.59.12,2.37.36l8.25,2.56c.16-.08.32-.16.49-.24,1.03-.46,2.13-.68,3.23-.68,1.42,0,2.83.38,4.08,1.12l8.54,5.06c.12.08.25.15.37.23,2.71,1.81,4.16,4.82,3.98,7.95l1.75,1.67c.32.3.61.63.87.99,1.73,2.32,2.23,5.27,1.37,8.02,0,0,.21.2.3.29,1.96,1.96,2.83,4.63,2.46,7.31,1.07,1.04,1.86,2.39,2.21,3.93.8,3.46-.77,7.02-3.86,8.77-2.4,1.35-4.39,3.02-6.1,5.09-1.18,1.43-2.76,2.35-4.46,2.72-.23.83-.48,1.66-.75,2.47-.05.17-.11.33-.18.49-1.09,2.72-2.88,5.07-5.32,7-.05.04-.1.08-.16.12-2.36,1.77-5.05,2.97-7.98,3.55-.08.02-.17.03-.25.05-.66.11-1.32.16-1.96.16Z"/>
        <path class="cls-6" d="M142.39,65.58c-1.29,0-2.61-.07-3.92-.21-2.33-.25-4.35-1.48-5.65-3.27-.87.2-1.75.3-2.64.3-1.56,0-3.1-.31-4.57-.93-.2-.08-.39-.17-.58-.27-2.54-1.32-4.51-3.2-5.81-5.5-1.3-.62-2.52-1.42-3.62-2.39-2.48-2.17-4.18-4.92-5.06-8.15-.04-.15-.07-.29-.11-.44-1.12-5.35-.39-10.53,2.19-15.38,2.34-4.68,5.6-8.71,9.69-11.97,4.11-3.28,8.79-5.54,13.94-6.73,2.86-.77,5.75-1.16,8.57-1.16,4.86,0,9.63,1.15,14.17,3.41,3.71,1.75,6.91,4.2,9.51,7.29,2.66,3.15,4.53,6.8,5.56,10.84,1.17,4.57,1.09,9.16-.24,13.62-1.33,4.48-3.78,8.37-7.28,11.57-3.76,3.49-8.18,6.08-13.08,7.65-3.59,1.15-7.31,1.73-11.06,1.73Z"/>
        <path class="cls-4" d="M193.21,68.55c-1.1,0-2.17-.19-3.2-.57-.65.12-1.31.18-1.98.18-1.62,0-3.23-.36-4.8-1.06-1.45-.63-2.71-1.53-3.72-2.62-2.21,1.42-4.66,2.5-7.35,3.23-.7.19-1.4.28-2.1.28-2.73,0-5.33-1.4-6.81-3.81-1.86-3.02-1.51-6.91.87-9.54.69-.76,1.28-1.57,1.79-2.42-.75-1.38-1.15-2.92-1.15-4.47V10.43c0-2.48,1.15-4.82,3.11-6.33,1.42-1.09,3.14-1.67,4.89-1.67.68,0,1.36.09,2.02.26l5.13,1.34c1.6-1.29,3.57-2,5.68-2,1.28,0,2.57.28,3.79.81.28-.29.59-.56.91-.81,1.4-1.06,3.1-1.61,4.82-1.61.73,0,1.47.1,2.2.31l3.46.99c1.31-.85,2.83-1.3,4.37-1.3.7,0,1.4.09,2.1.28l7.38,2c.22.06.43.13.64.2,1.86.68,3.44,1.94,4.55,3.6.95.59,1.79,1.36,2.49,2.28l2.8,3.8c2.1,2.54,2.61,5.95,1.31,9.1-.03.07-.06.13-.08.2.33,1.21.41,2.47.21,3.72,1.59,2.28,2.04,5.11,1.23,7.8-.48,1.6-1.38,2.99-2.57,4.06-.02.33-.05.65-.1.96.29.33.56.67.8,1.04l2.44,3.66c1.72,2.47,2.07,5.6.94,8.44-.08.21-.17.41-.27.61-.82,1.64-2.12,3.03-3.77,4.02-.61.37-1.26.65-1.93.84-.37,1.64-.98,3.17-1.84,4.58-.07.12-.15.23-.22.35-2.51,3.69-6.31,5.97-10.71,6.41-.11.01-.22.02-.33.03-.24.01-.48.02-.71.02-2.51,0-4.88-.83-6.81-2.34-.59.42-1.23.78-1.92,1.07-.55.23-1.13.41-1.72.51l-4.12.73c-.56.11-1.14.16-1.71.16Z"/>
        <path class="cls-1" d="M224.1,68.74c-3.04,0-5.9-1.74-7.24-4.6-1.63-3.47-.57-7.62,2.53-9.87,5.15-3.75,8.96-8.26,11.64-13.79,2.67-5.51,3.82-11.28,3.53-17.65-2.18-.86-3.93-2.66-4.69-4.99l-1.05-3.27c-.79-2.43-.36-5.1,1.15-7.17,1.51-2.07,3.91-3.29,6.47-3.29h9.31c.88-1.14,2.03-2.08,3.36-2.75,1.11-.55,2.33-.84,3.57-.84,2.3,0,4.47.89,6.08,2.44l5.7,4.62c.63.51,1.17,1.11,1.62,1.78,1.79,2.69,2.08,5.98.79,8.88-1.05,2.5-3.05,4.35-5.47,5.18.89,4.75,2.71,9,5.52,12.92,3.26,4.54,7.33,7.9,12.44,10.29,2.99,1.39,4.82,4.48,4.6,7.78-.22,3.29-2.43,6.11-5.58,7.1-2.61.82-4.88,2.2-6.94,4.21-1.55,1.51-3.57,2.28-5.59,2.28-1.86,0-3.72-.64-5.23-1.94-4.44-3.83-8.16-8.13-11.15-12.88-.84,1.08-1.74,2.12-2.7,3.14-5.68,6.02-12.65,10.12-20.72,12.18-.66.17-1.32.25-1.98.25Z"/>
        <path class="cls-2" d="M306.62,68.63c-2.23-.03-4.4-.74-6.27-2.04-1.83-1.27-3.21-3.03-4.04-5.1-.15-.3-.31-.57-.49-.81-4,2.83-8.5,4.79-13.36,5.82-.56.12-1.11.18-1.66.18-2.89,0-5.62-1.58-7.04-4.2-1.69-3.12-1.12-6.98,1.4-9.48,4.02-3.99,7.15-8.58,9.3-13.62,1.09-2.57,1.93-5.24,2.5-7.98h-7.43c-3.01,0-5.77-1.69-7.13-4.38l-1.63-3.22c-1.26-2.48-1.14-5.44.31-7.81,1.45-2.37,4.04-3.82,6.82-3.82h13.46v-3.65c0-2.41,1.08-4.68,2.95-6.2,1.44-1.17,3.23-1.8,5.05-1.8.54,0,1.08.05,1.62.17l10.23,2.11c3.13.62,5.65,2.76,6.83,5.77,1.42-.88,3.07-1.35,4.81-1.35,2.61,0,5.01,1.02,6.8,2.88l5.61,5.51c2.29,2.17,3.27,5.35,2.63,8.56-.14.7-.37,1.37-.69,2.01-1.11,2.21-3,3.89-5.28,4.71.06.22.11.44.16.67.11.53.16,1.06.16,1.59,0,2.25-.8,4.43-2.25,6.11-.06.07-.11.13-.17.19-1.07,6.75-3.2,13.29-6.36,19.48-.08.15-.16.29-.24.44-1.69,2.85-3.98,5.17-6.82,6.91-.18.11-.36.21-.54.3-2.66,1.36-5.55,2.04-8.62,2.04-.21,0-.41,0-.62,0Z"/>
        <path class="cls-9" d="M351.37,68.43c-.27,0-.54-.01-.81-.04-1.95-.13-3.76-.88-5.22-2.12-1.91.93-3.87,1.39-5.84,1.39-3.21,0-6.25-1.24-8.8-3.58-1.92-1.75-3.28-4.04-3.89-6.6-.52-2.17-.47-4.43.16-6.61-1.92-1.93-2.8-4.79-2.09-7.6.73-2.9,2.97-5.04,5.68-5.77.1-.2.2-.4.3-.61-1.25-1.37-2.18-3.08-2.69-5.04-.14-.53-.22-1.08-.25-1.63-.04-.86-.26-1.36-.84-1.91-2.11-2.04-2.93-5.07-2.15-7.89.69-2.48,2.52-4.45,4.89-5.35-.93-1.72-1.22-3.77-.72-5.75.79-3.15,3.41-5.51,6.63-5.97.93-.13,1.88-.2,2.81-.2,2.34,0,4.66.42,6.9,1.25,1.83.68,3.53,1.59,5.08,2.72.37-1.91,1.43-3.64,3-4.84,1.41-1.08,3.12-1.64,4.86-1.64.7,0,1.41.09,2.1.28l10.22,2.79c3.13.72,5.49,2.94,6.37,5.84,2.01.38,3.84,1.44,5.19,3.04l5.13,5.64c.17.19.34.39.49.59,2.01,2.69,2.34,6.21.86,9.19-.16.32-.34.63-.54.92l.81.93c2.18,2.4,2.89,5.77,1.85,8.91-.05.15-.11.31-.17.46-.91,2.28-2.69,4.01-4.88,4.9,1.46,1.86,2.7,3.92,3.7,6.16.17.39.32.79.43,1.21,1.33,4.99-.08,9.78-3.87,13.19-1.9,1.81-4.29,2.96-6.94,3.33-.66.09-1.31.13-1.95.13-1.69,0-3.34-.3-4.91-.91-2.33-.89-4.34-2.43-5.84-4.46-.21-.29-.41-.58-.6-.88l-7.59,3.03c-1.57,2.13-4.09,3.48-6.88,3.48Z"/>
      </g>
      <g>
        <path class="cls-8" d="M17.18,17.65l7.91,1.74h.9c1.51-3.69,2.34-7.44,2.48-11.23l9.76,4.22c.53.14.72.47.58,1,0,.53-.25.83-.74.9l-2.06.58c-2.25,1.3-4.27,2.81-6.06,4.54h11.65l1.58-2.48c.39-.56.88-.7,1.48-.42l6.7,4.27c.25.21.37.47.37.79s-.12.58-.37.79l-1.58,1.53v10.71h.53l2.64-3.96c.25-.28.54-.42.9-.42s.62.14.79.42l4.96,4.96c.35.35.43.76.24,1.21-.19.46-.54.69-1.03.69h-9.02v15.61c-.07,2.11-.88,3.81-2.43,5.12-1.69,1.48-3.66,2.39-5.91,2.74-.81.11-1.44-.21-1.9-.95-1.9-2.95-4.5-5.04-7.8-6.28,3.06,0,5.78.12,8.17.37.39,0,.74-.12,1.05-.37.25-.25.4-.58.47-1v-15.24h-16.35v2.27c-.28,4.57-1.75,8.7-4.4,12.39s-6.07,6.42-10.26,8.17c4.25-5.94,6.5-12.53,6.75-19.78v-3.06h-7.86l-1.32-2.9h9.18v-16.93ZM25.09,21.87v12.71h16.35v-12.71h-16.35ZM27.72,22.77c1.97-.25,3.83.06,5.59.92,1.76.86,3.16,2.12,4.22,3.77.46.77.67,1.61.63,2.5s-.35,1.71-.95,2.45c-.56.77-1.34,1.27-2.32,1.48s-1.9.05-2.74-.47c-1.37-.63-2.06-1.71-2.06-3.22.21-2.78-.58-5.25-2.37-7.44ZM27.83,38.16c2.36.11,4.46.9,6.33,2.37s3.09,3.34,3.69,5.59c.42,1.55.14,2.92-.84,4.11-.6.74-1.36,1.23-2.29,1.48-.93.25-1.85.16-2.77-.26-.81-.35-1.46-.92-1.95-1.71s-.7-1.64-.63-2.56c.49-3.2-.02-6.2-1.53-9.02Z"/>
        <path class="cls-8" d="M66.01,22.66h8.33c-1.41-1.05-2.14-2.46-2.21-4.22-.07-3.09-1.09-5.87-3.06-8.33,3.73.56,6.96,2.18,9.7,4.85,1.05,1.13,1.55,2.44,1.48,3.96-.07,1.51-.63,2.76-1.69,3.74h2.95c.84-4.99,1.05-9.88.63-14.66l10.86,3.38c.42.14.63.46.63.95s-.21.77-.63.84l-1.58.63c-.28,2.95-.95,5.91-2,8.86h2.64c2.04-4.01,3.52-8.23,4.43-12.66l8.54,5.06c.42.28.54.69.37,1.21s-.51.79-1,.79l-2.21-.11c-2.46,1.55-4.71,3.45-6.75,5.7h4.75l2.53-3.69c.28-.35.6-.53.95-.53.42,0,.74.18.95.53l5.06,4.85c.21.28.25.6.11.95-.07.28-.32.46-.74.53h-16.35c1.05,2.32,2.39,4.43,4.01,6.33h4.96l2.74-3.9c.21-.35.53-.49.95-.42.42-.07.74.07.95.42l5.8,5.27c.21.21.25.49.11.84-.07.28-.28.42-.63.42h-12.45c4.43,3.73,9.6,5.77,15.5,6.12-3.23,1.83-6.01,4.15-8.33,6.96-1.48-.84-2.92-1.79-4.32-2.85-.42,3.66-1.2,7.21-2.32,10.65-.56,1.41-1.51,2.64-2.85,3.69-1.41,1.05-2.99,1.76-4.75,2.11-1.27.21-2.32-.18-3.16-1.16-1.2-1.48-2.07-2.6-2.64-3.38-.77-1.2-1.83-2-3.16-2.43,2.39-.28,4.75-.28,7.07,0,.42.07.83-.03,1.21-.32.39-.28.65-.6.79-.95,1.2-3.23,1.83-6.57,1.9-10.02h-6.54c-1.27,5.7-4.29,10.3-9.07,13.82-4.01,2.39-8.4,3.62-13.18,3.69,3.66-1.62,6.73-3.96,9.23-7.01s4.06-6.56,4.69-10.49h-2.85l-1.05-.95c-4.22,3.09-8.82,5.24-13.82,6.43,6.4-3.3,11.46-7.94,15.19-13.92h-11.81l-1.9-2.64h15.19c.91-1.76,1.79-3.87,2.64-6.33h-13.08l-1.69-2.64ZM83.2,34.26c-1.55,1.9-3.27,3.66-5.17,5.27h16.66c.07-.56.35-1.05.84-1.48-.91-1.41-1.69-2.67-2.32-3.8h-10.02ZM88.47,25.3c-.91,2.04-2.04,4.15-3.38,6.33h6.86c-.77-1.97-1.41-4.08-1.9-6.33h-1.58Z"/>
        <path class="cls-8" d="M141.58,21.08c3.3,5.77,4.08,11.85,2.32,18.25-.7,3.27-2.09,6.2-4.17,8.78-2.08,2.58-4.64,4.53-7.7,5.83-1.13.56-2.23.62-3.32.16-1.97-1.02-3.06-2.64-3.27-4.85-1.76-.18-3.28-.83-4.56-1.95-1.28-1.12-2.15-2.53-2.61-4.22-.74-3.51-.25-6.87,1.48-10.07,1.83-3.69,4.35-6.82,7.57-9.39,3.22-2.57,6.85-4.31,10.89-5.22,6.01-1.65,11.78-1.09,17.3,1.69,2.71,1.27,5,3.01,6.88,5.25,1.88,2.23,3.19,4.79,3.93,7.67.81,3.16.76,6.28-.16,9.36-.92,3.08-2.58,5.72-5.01,7.94-2.95,2.74-6.33,4.72-10.12,5.93s-7.7,1.61-11.71,1.19c4.18-1.34,7.83-3.52,10.94-6.57,3.11-3.04,5.37-6.65,6.78-10.84.74-2.5.88-5,.42-7.51-.46-2.51-1.5-4.81-3.11-6.88-1.65-1.79-3.59-3.08-5.83-3.88-2.23-.79-4.54-1.01-6.93-.66ZM136.94,22.4c-5.73,3.76-9.35,9.02-10.86,15.77-.74,2.99-.37,5.8,1.11,8.44.42.42.93.68,1.53.76.6.09,1.12-.11,1.58-.61,3.2-3.23,5.38-7,6.54-11.31,1.16-4.31,1.19-8.66.11-13.05Z"/>
        <path class="cls-8" d="M207.49,31.73v2.95h1.58l1.32-1.9c.53-.56,1.09-.67,1.69-.32l4.64,3.48c.32.28.47.63.47,1.05s-.19.74-.58.95l-.95.53v7.91l1.9-2.53c.21-.28.49-.42.84-.42s.61.14.79.42l2.53,3.8c.21.28.25.6.11.95-.14.28-.39.53-.74.74h-5.43v4.75c-.11,1.27-.46,2.39-1.05,3.38-1.2,1.76-2.83,2.74-4.9,2.95-1.16.07-2.09-.39-2.79-1.37-1.2-2.04-2.88-3.38-5.06-4.01,1.72-.14,3.55-.11,5.48.11.39,0,.77-.14,1.16-.42.32-.35.47-.74.47-1.16v-4.22h-10.23v8.96c-.07.7-.44,1.19-1.11,1.48l-4.17.74c-.35.07-.69,0-1-.21-.25-.21-.4-.53-.47-.95v-10.02h-2.85l-.26-.95-3.22.95c2.25,1.48,3.96,3.41,5.12,5.8.63,1.34.53,2.6-.32,3.8-1.13,1.27-2.46,1.55-4.01.84-1.16-.49-1.78-1.41-1.85-2.74.07-3.45-.95-6.57-3.06-9.39l1.48.53v-1.05h-3.53c-.14.49-.37.84-.69,1.05l3.43,2.74c.25.14.33.39.26.74-.07.28-.25.49-.53.63l-1.58.21c-2.5,3.8-5.94,6.29-10.34,7.49,2.85-3.16,4.69-6.86,5.54-11.07l-1.32.21c-.42.07-.77-.03-1.05-.32-.32-.35-.47-.7-.47-1.05V10.43l6.86,1.79h3.96l.95-1.48c.49-.77,1.14-.91,1.95-.42l4.38,2.85c.35.21.53.53.53.95s-.14.7-.42.84l-1.16.84v.32h5.33v-7.7l8.12,2.32c.39.07.65.32.79.74.07.35-.05.67-.37.95l-1.32.95v2.74h2.79v-7.7l7.38,2c.39.14.67.46.84.95,0,.42-.18.77-.53,1.05l-.84.63v3.06h.79l1.48-2.43c.14-.28.4-.46.79-.53.35,0,.63.14.84.42l2.95,4.01c.28.28.33.63.16,1.05-.14.35-.4.53-.79.53h-6.22v3.06l1.69-2.43c.25-.28.54-.42.9-.42.39,0,.7.14.95.42l2.95,3.9c.18.28.21.56.11.84-.11.35-.32.56-.63.63h-5.96v3.48h.63l2.27-2.85c.18-.28.46-.42.84-.42.32,0,.56.14.74.42l3.48,4.32c.21.28.26.6.16.95-.11.35-.35.56-.74.63h-11.87ZM179.6,15.07v7.8h3.43v-7.8h-3.43ZM179.6,25.82v7.28h3.43v-7.28h-3.43ZM179.6,35.95v8.54h3.43v-8.54h-3.43ZM195.1,19.18h-3.85l-1.48-1.9v11.39h5.33v-3.48h-2.85l-1.69-2.95h4.54v-3.06ZM189.78,31.73v14.66h2.21v-13.29l7.01,1.58h1.21v-2.95h-10.44ZM198.74,37.53v2.74h1.48v-2.74h-1.48ZM198.74,43.23v3.16h1.48v-3.16h-1.48ZM202.33,19.18v3.06h2.79v-3.06h-2.79ZM202.33,25.19v3.48h2.79v-3.48h-2.79ZM207.49,37.53v2.74h1.48v-2.74h-1.48ZM207.49,43.23v3.16h1.48v-3.16h-1.48Z"/>
        <path class="cls-8" d="M224.11,60.73c6.19-4.5,10.9-10.09,14.13-16.77,3.23-6.68,4.67-13.85,4.32-21.52l6.33,2.21c-.14-3.3.03-6.4.53-9.28h-11.92l-1.05-3.27h13.71l1.9-3.06c.14-.21.35-.39.63-.53.28,0,.49.11.63.32l6.12,4.96c.28.42.32.84.11,1.27-.21.56-.56.84-1.05.84-1.62.07-3.02.67-4.22,1.79-1.13,1.27-1.51,2.71-1.16,4.32.84,7.03,3.29,13.36,7.33,18.98,4.04,5.62,9.23,9.91,15.56,12.87-3.8,1.2-7.17,3.23-10.12,6.12-8.23-7.1-13.54-15.96-15.93-26.58-1.34,6.68-4.32,12.48-8.96,17.4s-10.27,8.23-16.88,9.91Z"/>
        <path class="cls-8" d="M277.89,20.18h21.46v-11.65l10.23,2.11c.53.11.88.44,1.05,1,.07.53-.09.95-.47,1.27l-1.58,1.37v5.91h10.02l3.16-4.32c.28-.42.64-.63,1.08-.63s.8.16,1.08.47l5.8,5.7c.32.28.42.69.32,1.21-.21.42-.53.69-.95.79h-24.89c.03,2.11-.09,4.4-.37,6.86h10.28l1.53-2.32c.18-.32.43-.49.76-.53.33-.03.62.07.87.32l6.49,4.69c.25.14.4.39.47.74,0,.35-.11.65-.32.9l-1.63,1.32c-.74,6.96-2.72,13.61-5.96,19.93-1.02,1.72-2.39,3.11-4.11,4.17-1.65.84-3.46,1.23-5.43,1.16-.67,0-1.29-.2-1.87-.61-.58-.4-.99-.96-1.24-1.66-1.23-2.71-3.16-4.75-5.8-6.12,2.88.7,5.82.95,8.81.74,1.19-.35,2.06-1.05,2.58-2.11,2.6-5.66,4.04-11.62,4.32-17.88h-10.12c-.77,4.18-2.16,8.16-4.17,11.92-1.93,3.62-4.51,6.61-7.73,8.96s-6.81,3.96-10.78,4.8c4.78-4.75,8.46-10.13,11.02-16.16,2.57-6.03,3.92-12.4,4.06-19.12h-16.35l-1.63-3.22Z"/>
        <path class="cls-8" d="M349.93,19.39c0,.07-.14.49-.42,1.27-.28.77-.46,1.23-.53,1.37h9.39v-13.39l10.44,2.85c.42.07.63.28.63.63.07.35-.07.63-.42.84l-1.9,1.27v7.8h5.17l2.32-4.22c.21-.28.47-.42.79-.42s.58.14.79.42l5.27,5.8c.21.28.25.56.11.84-.21.21-.46.32-.74.32h-13.71v9.07h7.17l2.21-4.11c.28-.28.58-.42.9-.42s.61.14.9.42l4.75,5.48c.28.28.35.63.21,1.05-.14.35-.42.53-.84.53h-19.93l4.22,1.79c.28.07.42.25.42.53-.07.35-.25.53-.53.53l-2.21.74-6.33,9.6c3.94-.42,8.16-.98,12.66-1.69-.92-2.53-2.36-4.78-4.32-6.75,3.51.49,6.66,1.79,9.44,3.9,2.78,2.11,4.9,4.82,6.38,8.12.56,2.11.03,3.87-1.58,5.27-.7.7-1.56,1.12-2.58,1.27-1.02.14-1.99.03-2.9-.32-.92-.35-1.67-.93-2.27-1.74-.6-.81-.93-1.74-1-2.79.07-1.27-.04-2.67-.32-4.22l-18.77,7.49-.84,1.37c-.07.42-.32.6-.74.53-.35,0-.63-.14-.84-.42l-5.38-9.6c3.23,0,6.19-.07,8.86-.21l2.95-13.39h-10.76l-1.16-.95c-.77,3.66-1.48,7.42-2.11,11.29-.07,1.05.11,2,.53,2.85.7,1.34,1.19,2.64,1.48,3.9.07,1.05-.14,2.06-.63,3.01-.49.95-1.23,1.67-2.21,2.16-2.11,1.05-4.04.77-5.8-.84-.77-.7-1.28-1.56-1.53-2.58-.25-1.02-.16-2.06.26-3.11.56-1.27.74-2.57.53-3.9-.21-1.76-1.13-2.88-2.74-3.38.7.14,1.42.07,2.16-.21.74-.28,1.32-.77,1.74-1.48,4.08-8.65,8.54-16.7,13.39-24.15ZM332.63,22.55c1.83-.42,3.64-.26,5.43.47s3.25,1.88,4.38,3.43c.98,1.34,1.09,2.74.32,4.22-.35.7-.88,1.21-1.58,1.53-.7.32-1.41.44-2.11.37-1.69-.21-2.74-1.12-3.16-2.74-.14-2.88-1.23-5.31-3.27-7.28ZM336.85,11.27c1.97-.28,3.9-.07,5.8.63,1.9.7,3.55,1.79,4.96,3.27.49.63.77,1.35.84,2.16.07.81-.07,1.53-.42,2.16-.42.7-1,1.23-1.74,1.58-.74.35-1.5.46-2.27.32-.77-.14-1.42-.49-1.95-1.05-.53-.56-.9-1.23-1.11-2-.35-2.95-1.72-5.31-4.11-7.07ZM348.45,23.29c-1.05,3.45-2.08,6.96-3.06,10.55h12.97v-9.07h-9.07l-.84-1.48Z"/>
      </g>
      <g>
        <path class="cls-3" d="M17.18,17.65l7.91,1.74h.9c1.51-3.69,2.34-7.44,2.48-11.23l9.76,4.22c.53.14.72.47.58,1,0,.53-.25.83-.74.9l-2.06.58c-2.25,1.3-4.27,2.81-6.06,4.54h11.65l1.58-2.48c.39-.56.88-.7,1.48-.42l6.7,4.27c.25.21.37.47.37.79s-.12.58-.37.79l-1.58,1.53v10.71h.53l2.64-3.96c.25-.28.54-.42.9-.42s.62.14.79.42l4.96,4.96c.35.35.43.76.24,1.21-.19.46-.54.69-1.03.69h-9.02v15.61c-.07,2.11-.88,3.81-2.43,5.12-1.69,1.48-3.66,2.39-5.91,2.74-.81.11-1.44-.21-1.9-.95-1.9-2.95-4.5-5.04-7.8-6.28,3.06,0,5.78.12,8.17.37.39,0,.74-.12,1.05-.37.25-.25.4-.58.47-1v-15.24h-16.35v2.27c-.28,4.57-1.75,8.7-4.4,12.39s-6.07,6.42-10.26,8.17c4.25-5.94,6.5-12.53,6.75-19.78v-3.06h-7.86l-1.32-2.9h9.18v-16.93ZM25.09,21.87v12.71h16.35v-12.71h-16.35ZM27.72,22.77c1.97-.25,3.83.06,5.59.92,1.76.86,3.16,2.12,4.22,3.77.46.77.67,1.61.63,2.5s-.35,1.71-.95,2.45c-.56.77-1.34,1.27-2.32,1.48s-1.9.05-2.74-.47c-1.37-.63-2.06-1.71-2.06-3.22.21-2.78-.58-5.25-2.37-7.44ZM27.83,38.16c2.36.11,4.46.9,6.33,2.37s3.09,3.34,3.69,5.59c.42,1.55.14,2.92-.84,4.11-.6.74-1.36,1.23-2.29,1.48-.93.25-1.85.16-2.77-.26-.81-.35-1.46-.92-1.95-1.71s-.7-1.64-.63-2.56c.49-3.2-.02-6.2-1.53-9.02Z"/>
        <path class="cls-3" d="M66.01,22.66h8.33c-1.41-1.05-2.14-2.46-2.21-4.22-.07-3.09-1.09-5.87-3.06-8.33,3.73.56,6.96,2.18,9.7,4.85,1.05,1.13,1.55,2.44,1.48,3.96-.07,1.51-.63,2.76-1.69,3.74h2.95c.84-4.99,1.05-9.88.63-14.66l10.86,3.38c.42.14.63.46.63.95s-.21.77-.63.84l-1.58.63c-.28,2.95-.95,5.91-2,8.86h2.64c2.04-4.01,3.52-8.23,4.43-12.66l8.54,5.06c.42.28.54.69.37,1.21s-.51.79-1,.79l-2.21-.11c-2.46,1.55-4.71,3.45-6.75,5.7h4.75l2.53-3.69c.28-.35.6-.53.95-.53.42,0,.74.18.95.53l5.06,4.85c.21.28.25.6.11.95-.07.28-.32.46-.74.53h-16.35c1.05,2.32,2.39,4.43,4.01,6.33h4.96l2.74-3.9c.21-.35.53-.49.95-.42.42-.07.74.07.95.42l5.8,5.27c.21.21.25.49.11.84-.07.28-.28.42-.63.42h-12.45c4.43,3.73,9.6,5.77,15.5,6.12-3.23,1.83-6.01,4.15-8.33,6.96-1.48-.84-2.92-1.79-4.32-2.85-.42,3.66-1.2,7.21-2.32,10.65-.56,1.41-1.51,2.64-2.85,3.69-1.41,1.05-2.99,1.76-4.75,2.11-1.27.21-2.32-.18-3.16-1.16-1.2-1.48-2.07-2.6-2.64-3.38-.77-1.2-1.83-2-3.16-2.43,2.39-.28,4.75-.28,7.07,0,.42.07.83-.03,1.21-.32.39-.28.65-.6.79-.95,1.2-3.23,1.83-6.57,1.9-10.02h-6.54c-1.27,5.7-4.29,10.3-9.07,13.82-4.01,2.39-8.4,3.62-13.18,3.69,3.66-1.62,6.73-3.96,9.23-7.01s4.06-6.56,4.69-10.49h-2.85l-1.05-.95c-4.22,3.09-8.82,5.24-13.82,6.43,6.4-3.3,11.46-7.94,15.19-13.92h-11.81l-1.9-2.64h15.19c.91-1.76,1.79-3.87,2.64-6.33h-13.08l-1.69-2.64ZM83.2,34.26c-1.55,1.9-3.27,3.66-5.17,5.27h16.66c.07-.56.35-1.05.84-1.48-.91-1.41-1.69-2.67-2.32-3.8h-10.02ZM88.47,25.3c-.91,2.04-2.04,4.15-3.38,6.33h6.86c-.77-1.97-1.41-4.08-1.9-6.33h-1.58Z"/>
        <path class="cls-3" d="M141.58,21.08c3.3,5.77,4.08,11.85,2.32,18.25-.7,3.27-2.09,6.2-4.17,8.78-2.08,2.58-4.64,4.53-7.7,5.83-1.13.56-2.23.62-3.32.16-1.97-1.02-3.06-2.64-3.27-4.85-1.76-.18-3.28-.83-4.56-1.95-1.28-1.12-2.15-2.53-2.61-4.22-.74-3.51-.25-6.87,1.48-10.07,1.83-3.69,4.35-6.82,7.57-9.39,3.22-2.57,6.85-4.31,10.89-5.22,6.01-1.65,11.78-1.09,17.3,1.69,2.71,1.27,5,3.01,6.88,5.25,1.88,2.23,3.19,4.79,3.93,7.67.81,3.16.76,6.28-.16,9.36-.92,3.08-2.58,5.72-5.01,7.94-2.95,2.74-6.33,4.72-10.12,5.93s-7.7,1.61-11.71,1.19c4.18-1.34,7.83-3.52,10.94-6.57,3.11-3.04,5.37-6.65,6.78-10.84.74-2.5.88-5,.42-7.51-.46-2.51-1.5-4.81-3.11-6.88-1.65-1.79-3.59-3.08-5.83-3.88-2.23-.79-4.54-1.01-6.93-.66ZM136.94,22.4c-5.73,3.76-9.35,9.02-10.86,15.77-.74,2.99-.37,5.8,1.11,8.44.42.42.93.68,1.53.76.6.09,1.12-.11,1.58-.61,3.2-3.23,5.38-7,6.54-11.31,1.16-4.31,1.19-8.66.11-13.05Z"/>
        <path class="cls-3" d="M207.49,31.73v2.95h1.58l1.32-1.9c.53-.56,1.09-.67,1.69-.32l4.64,3.48c.32.28.47.63.47,1.05s-.19.74-.58.95l-.95.53v7.91l1.9-2.53c.21-.28.49-.42.84-.42s.61.14.79.42l2.53,3.8c.21.28.25.6.11.95-.14.28-.39.53-.74.74h-5.43v4.75c-.11,1.27-.46,2.39-1.05,3.38-1.2,1.76-2.83,2.74-4.9,2.95-1.16.07-2.09-.39-2.79-1.37-1.2-2.04-2.88-3.38-5.06-4.01,1.72-.14,3.55-.11,5.48.11.39,0,.77-.14,1.16-.42.32-.35.47-.74.47-1.16v-4.22h-10.23v8.96c-.07.7-.44,1.19-1.11,1.48l-4.17.74c-.35.07-.69,0-1-.21-.25-.21-.4-.53-.47-.95v-10.02h-2.85l-.26-.95-3.22.95c2.25,1.48,3.96,3.41,5.12,5.8.63,1.34.53,2.6-.32,3.8-1.13,1.27-2.46,1.55-4.01.84-1.16-.49-1.78-1.41-1.85-2.74.07-3.45-.95-6.57-3.06-9.39l1.48.53v-1.05h-3.53c-.14.49-.37.84-.69,1.05l3.43,2.74c.25.14.33.39.26.74-.07.28-.25.49-.53.63l-1.58.21c-2.5,3.8-5.94,6.29-10.34,7.49,2.85-3.16,4.69-6.86,5.54-11.07l-1.32.21c-.42.07-.77-.03-1.05-.32-.32-.35-.47-.7-.47-1.05V10.43l6.86,1.79h3.96l.95-1.48c.49-.77,1.14-.91,1.95-.42l4.38,2.85c.35.21.53.53.53.95s-.14.7-.42.84l-1.16.84v.32h5.33v-7.7l8.12,2.32c.39.07.65.32.79.74.07.35-.05.67-.37.95l-1.32.95v2.74h2.79v-7.7l7.38,2c.39.14.67.46.84.95,0,.42-.18.77-.53,1.05l-.84.63v3.06h.79l1.48-2.43c.14-.28.4-.46.79-.53.35,0,.63.14.84.42l2.95,4.01c.28.28.33.63.16,1.05-.14.35-.4.53-.79.53h-6.22v3.06l1.69-2.43c.25-.28.54-.42.9-.42.39,0,.7.14.95.42l2.95,3.9c.18.28.21.56.11.84-.11.35-.32.56-.63.63h-5.96v3.48h.63l2.27-2.85c.18-.28.46-.42.84-.42.32,0,.56.14.74.42l3.48,4.32c.21.28.26.6.16.95-.11.35-.35.56-.74.63h-11.87ZM179.6,15.07v7.8h3.43v-7.8h-3.43ZM179.6,25.82v7.28h3.43v-7.28h-3.43ZM179.6,35.95v8.54h3.43v-8.54h-3.43ZM195.1,19.18h-3.85l-1.48-1.9v11.39h5.33v-3.48h-2.85l-1.69-2.95h4.54v-3.06ZM189.78,31.73v14.66h2.21v-13.29l7.01,1.58h1.21v-2.95h-10.44ZM198.74,37.53v2.74h1.48v-2.74h-1.48ZM198.74,43.23v3.16h1.48v-3.16h-1.48ZM202.33,19.18v3.06h2.79v-3.06h-2.79ZM202.33,25.19v3.48h2.79v-3.48h-2.79ZM207.49,37.53v2.74h1.48v-2.74h-1.48ZM207.49,43.23v3.16h1.48v-3.16h-1.48Z"/>
        <path class="cls-3" d="M224.11,60.73c6.19-4.5,10.9-10.09,14.13-16.77,3.23-6.68,4.67-13.85,4.32-21.52l6.33,2.21c-.14-3.3.03-6.4.53-9.28h-11.92l-1.05-3.27h13.71l1.9-3.06c.14-.21.35-.39.63-.53.28,0,.49.11.63.32l6.12,4.96c.28.42.32.84.11,1.27-.21.56-.56.84-1.05.84-1.62.07-3.02.67-4.22,1.79-1.13,1.27-1.51,2.71-1.16,4.32.84,7.03,3.29,13.36,7.33,18.98,4.04,5.62,9.23,9.91,15.56,12.87-3.8,1.2-7.17,3.23-10.12,6.12-8.23-7.1-13.54-15.96-15.93-26.58-1.34,6.68-4.32,12.48-8.96,17.4s-10.27,8.23-16.88,9.91Z"/>
        <path class="cls-3" d="M277.89,20.18h21.46v-11.65l10.23,2.11c.53.11.88.44,1.05,1,.07.53-.09.95-.47,1.27l-1.58,1.37v5.91h10.02l3.16-4.32c.28-.42.64-.63,1.08-.63s.8.16,1.08.47l5.8,5.7c.32.28.42.69.32,1.21-.21.42-.53.69-.95.79h-24.89c.03,2.11-.09,4.4-.37,6.86h10.28l1.53-2.32c.18-.32.43-.49.76-.53.33-.03.62.07.87.32l6.49,4.69c.25.14.4.39.47.74,0,.35-.11.65-.32.9l-1.63,1.32c-.74,6.96-2.72,13.61-5.96,19.93-1.02,1.72-2.39,3.11-4.11,4.17-1.65.84-3.46,1.23-5.43,1.16-.67,0-1.29-.2-1.87-.61-.58-.4-.99-.96-1.24-1.66-1.23-2.71-3.16-4.75-5.8-6.12,2.88.7,5.82.95,8.81.74,1.19-.35,2.06-1.05,2.58-2.11,2.6-5.66,4.04-11.62,4.32-17.88h-10.12c-.77,4.18-2.16,8.16-4.17,11.92-1.93,3.62-4.51,6.61-7.73,8.96s-6.81,3.96-10.78,4.8c4.78-4.75,8.46-10.13,11.02-16.16,2.57-6.03,3.92-12.4,4.06-19.12h-16.35l-1.63-3.22Z"/>
        <path class="cls-3" d="M349.93,19.39c0,.07-.14.49-.42,1.27-.28.77-.46,1.23-.53,1.37h9.39v-13.39l10.44,2.85c.42.07.63.28.63.63.07.35-.07.63-.42.84l-1.9,1.27v7.8h5.17l2.32-4.22c.21-.28.47-.42.79-.42s.58.14.79.42l5.27,5.8c.21.28.25.56.11.84-.21.21-.46.32-.74.32h-13.71v9.07h7.17l2.21-4.11c.28-.28.58-.42.9-.42s.61.14.9.42l4.75,5.48c.28.28.35.63.21,1.05-.14.35-.42.53-.84.53h-19.93l4.22,1.79c.28.07.42.25.42.53-.07.35-.25.53-.53.53l-2.21.74-6.33,9.6c3.94-.42,8.16-.98,12.66-1.69-.92-2.53-2.36-4.78-4.32-6.75,3.51.49,6.66,1.79,9.44,3.9,2.78,2.11,4.9,4.82,6.38,8.12.56,2.11.03,3.87-1.58,5.27-.7.7-1.56,1.12-2.58,1.27-1.02.14-1.99.03-2.9-.32-.92-.35-1.67-.93-2.27-1.74-.6-.81-.93-1.74-1-2.79.07-1.27-.04-2.67-.32-4.22l-18.77,7.49-.84,1.37c-.07.42-.32.6-.74.53-.35,0-.63-.14-.84-.42l-5.38-9.6c3.23,0,6.19-.07,8.86-.21l2.95-13.39h-10.76l-1.16-.95c-.77,3.66-1.48,7.42-2.11,11.29-.07,1.05.11,2,.53,2.85.7,1.34,1.19,2.64,1.48,3.9.07,1.05-.14,2.06-.63,3.01-.49.95-1.23,1.67-2.21,2.16-2.11,1.05-4.04.77-5.8-.84-.77-.7-1.28-1.56-1.53-2.58-.25-1.02-.16-2.06.26-3.11.56-1.27.74-2.57.53-3.9-.21-1.76-1.13-2.88-2.74-3.38.7.14,1.42.07,2.16-.21.74-.28,1.32-.77,1.74-1.48,4.08-8.65,8.54-16.7,13.39-24.15ZM332.63,22.55c1.83-.42,3.64-.26,5.43.47s3.25,1.88,4.38,3.43c.98,1.34,1.09,2.74.32,4.22-.35.7-.88,1.21-1.58,1.53-.7.32-1.41.44-2.11.37-1.69-.21-2.74-1.12-3.16-2.74-.14-2.88-1.23-5.31-3.27-7.28ZM336.85,11.27c1.97-.28,3.9-.07,5.8.63,1.9.7,3.55,1.79,4.96,3.27.49.63.77,1.35.84,2.16.07.81-.07,1.53-.42,2.16-.42.7-1,1.23-1.74,1.58-.74.35-1.5.46-2.27.32-.77-.14-1.42-.49-1.95-1.05-.53-.56-.9-1.23-1.11-2-.35-2.95-1.72-5.31-4.11-7.07ZM348.45,23.29c-1.05,3.45-2.08,6.96-3.06,10.55h12.97v-9.07h-9.07l-.84-1.48Z"/>
      </g>
    </g>
  </g>
</svg>