<?xml version="1.0" encoding="UTF-8"?>
<svg id="_レイヤー_2" data-name="レイヤー 2" xmlns="http://www.w3.org/2000/svg" xmlns:xlink="http://www.w3.org/1999/xlink" viewBox="0 0 208.82 379.64">
  <defs>
    <style>
      .cls-1 {
        fill: url(#_名称未設定グラデーション_2);
      }

      .cls-2 {
        fill: url(#_名称未設定グラデーション_23);
      }
    </style>
    <linearGradient id="_名称未設定グラデーション_23" data-name="名称未設定グラデーション 23" x1="55.56" y1="146.1" x2="19.21" y2="349.55" gradientUnits="userSpaceOnUse">
      <stop offset="0" stop-color="#f6ddbb"/>
      <stop offset=".51" stop-color="#ed8d6d"/>
      <stop offset=".56" stop-color="#ec8468"/>
      <stop offset="1" stop-color="#e62160"/>
    </linearGradient>
    <linearGradient id="_名称未設定グラデーション_2" data-name="名称未設定グラデーション 2" x1="119.7" y1="16.08" x2="119.7" y2="372.42" gradientUnits="userSpaceOnUse">
      <stop offset=".12" stop-color="#fbf3a2"/>
      <stop offset=".58" stop-color="#f1ae50"/>
      <stop offset=".68" stop-color="#ee9642"/>
      <stop offset="1" stop-color="#e43055"/>
    </linearGradient>
  </defs>
  <g id="_レイヤー_1-2" data-name="レイヤー 1">
    <path class="cls-2" d="M39.74,128.36s29.44,21.58,25.31,53.55c-5.96,46.09-32.96,42.09-42.96,94.09-4.55,23.65-1,56,28.07,88.36C14.09,340-2.91,303,.41,269.8c5.68-56.8,29.85-54.97,38.62-94.22,7.06-31.58.71-47.22.71-47.22Z"/>
    <path class="cls-1" d="M208.78,268.86c-12.69,33.14-49.51,61.92-72.6,63.03,15.99-7.28,45.02-33.98,53.91-63.89,11-37-3-72-12.74-86.25,0,0,6.74,24.25-6.26,61.25-10.9,31.03-32,33-45,57-9.65,17.82-4.39,43.54-1.42,51.49-15.58-18.49-16.1-44.24-8.58-62.49,14-34,44.41-36.87,47-74,3-43-30-55-42-103-9.15-36.58-6-77,10-112-19,18-42.28,35.76-53,81-18,76,2.56,90.69-2,115-6,32-34.81,40.1-43,79-11.32,53.72,19,89,23.61,93.27,67.85,33.83,154.39-10.27,152.08-99.41ZM81.69,349.27s-26.94-23.97-17.6-60.27c9-35,37-30,55.8-85.89,5.29-15.73,9.2-55.11-14.79-87.69,21.99,22.58,32.99,57.58,23.31,97.56-10.04,41.48-44.32,47.02-54.74,84.5-5.52,19.87,8.02,51.79,8.02,51.79Z"/>
  </g>
</svg>