<?xml version="1.0" encoding="UTF-8"?>
<svg xmlns="http://www.w3.org/2000/svg" viewBox="0 0 72 72">
  <defs>
    <style>
      .cls-1 {
        fill: #fff;
      }
    </style>
  </defs>
  <g id="_レイヤー_9" data-name="レイヤー 9">
    <path class="cls-1" d="M36.28,72c13.82,0,26.62-7.36,26.62-26.16-1.23,3.03-1.72,4.26-3.74,5.39,1.45-2.25,2-5.06,2.42-7.7.43-2.7.88-6.04.22-8.69-.09-.38-.34-1.29-.66-1.54.32.94.08,6.59-1.49,6.22-.8-.19-1.74-3.78-1.81-4.56-.47-4.66,2.42-10.83-3.52-13.09,1.81,1.53,2.15,5.05,1.32,7.15-1.18,2.99-3.67-.1-4.07-1.98-1.04-4.89,1.76-11.4-3.63-14.85,1.56,3,1.16,7.81-.77,10.56-2.45,3.49-6.14,1.67-5.28-2.42.35-1.64,2.13-3.13,2.64-4.62.77-2.25.13-4.64-1.38-6.43,1.44,6.35-4.66,7.23-6.98,1.6-.81-1.96-.98-3.61-.81-5.17.26-2.44,1.03-2.22,1.8-4.96.03-.09.15-.77.04-.73-.18.71-2.79,2.96-4,5.8-.44,1.04-.85,2.79-.44,4.95.34,1.79,3.28,6.75.39,7.65-1.73.53-3.36-.49-4.24-1.93-1.9-3.11-.8-6.7.77-9.68-4.12,2.32-6.83,7.09-6.38,11.88.2,2.1,2.55,6.68,1.43,8.47-.66,1.05-2.45.56-3.24-.05-2.06-1.58-1.62-5.63-.88-7.81-1.4,1.67-2.25,3.19-2.14,5.44.05,1.17.96,2.97-.5,3.91-3.37,2.17-2.35-5.84-.44-6.82-5.84,2.56-3.06,8.06-3.36,12.71-.06,1.01-1.27,6.87-2.97,4.51-.93-1.29-.52-4.23-.71-5.78-1.49,3.67-.88,8.25-.06,12.05.43,1.98,1.11,3.95,2.09,5.72-1.87-1.15-1.62-1.99-3.41-5.39,0,19.92,14.86,26.38,27.18,26.38Z"/>
  </g>
  <g id="_レイヤー_8" data-name="レイヤー 8">
    <g>
      <path d="M37.23,45.55c.05-.67-.03-1.69-.28-2.29-.19-.46-.33-1.09-.74-1.48-.27-.25-.66-.4-1.05-.44-.31-.03-.62.02-.9.14.1-.68.69-1.37,1.36-1.35.62.02.82.46.84,1.01.4-.02.83.06,1.04.14.55.21.98.72,1.16,1.27.23.69-.08,1.52-.51,2.07-.23.3-.56.69-.92.93Z"/>
      <path d="M16.1,51.71l.69,2.22.94-.32c.07.31.18.61.27.9.14.43.25.98.48,1.37.21.34.66.37,1.19.24,0,.09.02.18.04.28-.19.1-.37.23-.52.31-.19.11-.81.32-.38.53.24.11.65-.16.88-.21.07-.02.12-.02.18-.02.27.8.72,1.68.82,1.9.2.42.26.73.76.63.37-.07.77-.31,1.13-.45.14-.06.31-.08.45-.13l-.07.2.11.73,19.06-6.74.1.48s5.6-1.95,9.88-4.53l1.98-.91c1.2-.67,2.53-1.35,3.55-2.29.13-.12.44-.37.44-.58,0-.58-1.31-.1-1.65-.03-.54.11-1.08.23-1.61.34l-2.15-3.95c-.06-.11-.2-.15-.3-.09-.11.06-.15.19-.09.3-.24.12-.51.38-.66.5-.4.35-.68.85-.95,1.3-.25.43-.38.79-.44,1.27.51-.63,1.07-1,1.89-.92.33.03,1.08.38,1.4.13l.84,1.54c-1.97.44-3.92.92-5.88,1.39-2.56-.42-6.69.25-8.75.66-.47-.28-1.21-.43-1.49-.6-.28-.17-.37-.39-.54-.66-.16-.25-.35-.48-.54-.72-.04-.03-.07-.05-.1-.06h-.04s-.02-.05-.02-.05c-.01-.02-.02-.05-.02-.07.06-.63-.02-1.7-.25-2.26-.2-.49-.35-1.08-.69-1.4-.22-.21-.57-.35-.92-.38-.31-.03-.62.04-.93.13-.43,0-.9.17-1.27.25-.81.18-1.61.48-2.41.72-.5.15-1.27.42-1.53.93-.11.2-.07.39,0,.58-.02.07-.04.14-.05.22-.26.29-.44.63-.44,1.02,0,.47.14,1.09.32,1.51.21.49.67.77,1,1.18.41.52.84,1.03,1.33,1.48.08.07.16.13.24.19-.02,0-.04.01-.06.02.11.09.22.2.28.32,4.74-1.45,11.3-3.23,14.17-2.97.29.03.54.08.76.15.06.02.09.08.07.14-.02.06-.08.09-.14.07-.19-.07-.43-.11-.71-.14-2.29-.22-7.19.95-11.49,2.19-4.3,1.23-8.01,2.52-8.02,2.52-.02,0-.03,0-.05,0-.04,0-.08-.03-.1-.07-.02-.06.01-.12.07-.14,0,0,2.23-.77,5.22-1.69-.07-.1-.2-.21-.33-.3-2.9.97-5.34,1.95-5.34,1.95l-.1.44-.14.11-.28,1.5c-.12.82-.24,1.75-.29,2.29,0,.06-.06.11-.12.1-.06,0-.11-.06-.1-.12.04-.41.12-1.02.2-1.65l-1.34.43-.02.02c-.54-.02-1.14.17-1.56.41,0-.09-.02-.17-.05-.26.37-.21.68-.39.86-.48.37-.18,1.33-.61,1.54-.96.26-.44-.28-1.09-.37-1.55-.61-.16-1.28.27-1.82.46-.26-.57.27-.41.51-.67.44-.47-.46-.29-.6-.34-.19-.08-.16-.26-.45-.29-.18-.02-.39.04-.58.06-.35.04-.86-.03-1.11.27.02-.42-.36-.41-.65-.46-.14-.02-.17.09-.28,0-.07-.05,0-.24-.07-.31-.28-.33-.78-.09-1.05.22l-1.8.67ZM37.53,48.14c-.39.06-.81.14-1.24.24-.15-.06-.29-.11-.41-.14-.15-.04-.37.06-.49-.02-.13-.08-.09-.28-.21-.37-.14-.11-.39.02-.49-.09-.1-.11.02-.35.04-.47.06-.3.09-.56.04-.86-.02-.13-.04-.27-.07-.42-.35,0-1.25.33-1.73.55.15.55.33,1.11.5,1.63-.34-.48-.68-.97-.92-1.5,0,0,0,0,0,0,0,0,0-.02,0-.03-.02-.05-.05-.09-.07-.14.06-.01.12-.02.18-.04.42-.25,1.65-.73,2.14-.7,0,0,0,0,.01,0,0-.04-.01-.08-.02-.11-.11-.55-.24-1.13-.32-1.69-.03-.23-.04-.5,0-.78.05-.47.17-.96.44-1.27h0s.11-.05.16-.01c.05.04.05.11.01.16-.21.25-.34.71-.38,1.15-.03.27-.02.53,0,.73.07.54.2,1.12.32,1.68.02.1.03.18.05.27.21.32.43.65.66.9.33.36.94.62,1.35.93.17.12.32.27.48.4ZM24.06,58.33c-.02-.06,0-.12.07-.14.02,0,7.99-2.81,16.18-5.82,8.18-3.01,16.63-6.27,17.42-7.08.04-.04.12-.04.16,0,.04.04.04.11,0,.16-.92.9-9.29,4.1-17.5,7.13-8.2,3.02-16.19,5.82-16.19,5.82h0s-.03,0-.05,0c-.04,0-.08-.03-.1-.07Z"/>
    </g>
  </g>
</svg>