<?xml version="1.0" encoding="UTF-8"?>
<svg xmlns="http://www.w3.org/2000/svg" viewBox="0 0 72 72">
  <defs>
    <style>
      .cls-1 {
        fill: #fff;
      }
    </style>
  </defs>
  <g id="_レイヤー_9" data-name="レイヤー 9">
    <path class="cls-1" d="M36.28,72c13.82,0,26.62-7.36,26.62-26.16-1.23,3.03-1.72,4.26-3.74,5.39,1.45-2.25,2-5.06,2.42-7.7.43-2.7.88-6.04.22-8.69-.09-.38-.34-1.29-.66-1.54.32.94.08,6.59-1.49,6.22-.8-.19-1.74-3.78-1.81-4.56-.47-4.66,2.42-10.83-3.52-13.09,1.81,1.53,2.15,5.05,1.32,7.15-1.18,2.99-3.67-.1-4.07-1.98-1.04-4.89,1.76-11.4-3.63-14.85,1.56,3,1.16,7.81-.77,10.56-2.45,3.49-6.14,1.67-5.28-2.42.35-1.64,2.13-3.13,2.64-4.62.77-2.25.13-4.64-1.38-6.43,1.44,6.35-4.66,7.23-6.98,1.6-.81-1.96-.98-3.61-.81-5.17.26-2.44,1.03-2.22,1.8-4.96.03-.09.15-.77.04-.73-.18.71-2.79,2.96-4,5.8-.44,1.04-.85,2.79-.44,4.95.34,1.79,3.28,6.75.39,7.65-1.73.53-3.36-.49-4.24-1.93-1.9-3.11-.8-6.7.77-9.68-4.12,2.32-6.83,7.09-6.38,11.88.2,2.1,2.55,6.68,1.43,8.47-.66,1.05-2.45.56-3.24-.05-2.06-1.58-1.62-5.63-.88-7.81-1.4,1.67-2.25,3.19-2.14,5.44.05,1.17.96,2.97-.5,3.91-3.37,2.17-2.35-5.84-.44-6.82-5.84,2.56-3.06,8.06-3.36,12.71-.06,1.01-1.27,6.87-2.97,4.51-.93-1.29-.52-4.23-.71-5.78-1.49,3.67-.88,8.25-.06,12.05.43,1.98,1.11,3.95,2.09,5.72-1.87-1.15-1.62-1.99-3.41-5.39,0,19.92,14.86,26.38,27.18,26.38Z"/>
  </g>
  <g id="_レイヤー_7" data-name="レイヤー 7">
    <path d="M37.84,67.19h-3.47c-1.15-.28-2.32-.43-3.47-.76-3.45-.96-6.8-2.78-9.12-5.51h21.06l-2.5-1.46c-.37.08-.44.76-.69.82-.93.22-4.82.05-6.04,0-2.67-.1-5.8-.36-8.46-.66-.96-.11-4.49-.46-5.1-.75-.28-.14-1.68-2.55-1.52-2.7,2.64.34,5.28.82,7.93,1.08,5.65.54,11.9.64,17.59.43.26,0,.81.16.76-.21l-2.51-1.31c-.47-.07-.24.55-.85.66-1.34.24-5.2.07-6.74,0-1.89-.1-4.16-.41-6.05-.68-3.87-.57-7.73-1.47-11.38-2.82l-.7-2.76v-.65c9.35,4.47,19.97,4.7,30.18,4.54l-2.51-1.52c-.45-.05-.43.6-.68.66-.8.2-4.53.05-5.6,0-1.83-.1-3.98-.41-5.8-.71-5.98-.99-11.38-3.05-15.59-7.49,0-.07,0-.15,0-.22.12-1.08.74-2.41.87-3.54l.43-.13c2.95,4.64,8.27,7.73,13.64,8.79,3.06.61,6.2.56,9.26.94h7.93s-2.51-1.53-2.51-1.53c-.45-.05-.43.6-.68.66-1.31.33-6.76-.25-8.39-.47-8.04-1.07-14.52-5.1-17.06-13.05.03-.58,2.79-3.52,3.02-3.34.96,4.92,3.8,9.33,8.25,11.78,5.84,3.21,12.68,2.37,19.11,2.48-.31-.4-2.14-1.55-2.48-1.52-.19.01-.19.68-.71.84-.38.12-1.06.06-1.49.05-10.03-.37-18.16-4.71-18.56-15.68-.06-1.64,2.71-1.71,3.92-2.26v4.21c0,1.06,1.19,3.73,1.78,4.71,4.11,6.85,11.81,6.68,18.96,6.42.26,0,.81.16.76-.21l-2.54-1.27c-.48-.06-.46.69-.86.82-.12.04-2.22-.16-2.57-.2-4.36-.48-8.53-2.47-10.14-6.76-.13-.35-.61-1.97-.61-2.2v-6.16c13.36.37,22.85,12.92,18.46,25.83-2.34,6.89-9.22,12.17-16.51,12.85Z"/>
  </g>
</svg>