<?xml version="1.0" encoding="UTF-8"?>
<svg id="_レイヤー_2" data-name="レイヤー 2" xmlns="http://www.w3.org/2000/svg" xmlns:xlink="http://www.w3.org/1999/xlink" viewBox="0 0 125.29 583.03">
  <defs>
    <style>
      .cls-1 {
        fill: url(#_名称未設定グラデーション_120-5);
      }

      .cls-2 {
        fill: url(#_名称未設定グラデーション_120-6);
      }

      .cls-3 {
        stroke: #000;
        stroke-linejoin: round;
        stroke-width: 33px;
      }

      .cls-3, .cls-4 {
        fill: none;
      }

      .cls-4 {
        stroke: #fff;
        stroke-miterlimit: 2;
        stroke-width: 6px;
      }

      .cls-5 {
        fill: #fff;
      }

      .cls-6 {
        fill: url(#_名称未設定グラデーション_120-4);
      }

      .cls-7 {
        fill: url(#_名称未設定グラデーション_120-2);
      }

      .cls-8 {
        fill: url(#_名称未設定グラデーション_120-3);
      }

      .cls-9 {
        fill: url(#_名称未設定グラデーション_120);
      }

      .cls-10 {
        fill: url(#_名称未設定グラデーション_120-7);
      }
    </style>
    <linearGradient id="_名称未設定グラデーション_120" data-name="名称未設定グラデーション 120" x1="81.05" y1="574.53" x2="81.05" y2="8.5" gradientUnits="userSpaceOnUse">
      <stop offset="0" stop-color="#945700"/>
      <stop offset=".19" stop-color="#e9a900"/>
      <stop offset=".29" stop-color="#f5f8b4"/>
      <stop offset=".4" stop-color="#e9a900"/>
      <stop offset="1" stop-color="#fff87f"/>
    </linearGradient>
    <linearGradient id="_名称未設定グラデーション_120-2" data-name="名称未設定グラデーション 120" x1="62.65" x2="62.65" xlink:href="#_名称未設定グラデーション_120"/>
    <linearGradient id="_名称未設定グラデーション_120-3" data-name="名称未設定グラデーション 120" x1="62.73" x2="62.73" xlink:href="#_名称未設定グラデーション_120"/>
    <linearGradient id="_名称未設定グラデーション_120-4" data-name="名称未設定グラデーション 120" x1="62.73" x2="62.73" xlink:href="#_名称未設定グラデーション_120"/>
    <linearGradient id="_名称未設定グラデーション_120-5" data-name="名称未設定グラデーション 120" x1="62.67" x2="62.67" xlink:href="#_名称未設定グラデーション_120"/>
    <linearGradient id="_名称未設定グラデーション_120-6" data-name="名称未設定グラデーション 120" x1="62.63" x2="62.63" xlink:href="#_名称未設定グラデーション_120"/>
    <linearGradient id="_名称未設定グラデーション_120-7" data-name="名称未設定グラデーション 120" x1="42.8" x2="42.8" xlink:href="#_名称未設定グラデーション_120"/>
  </defs>
  <g id="_サポート2" data-name="サポート2">
    <g>
      <g>
        <path class="cls-5" d="M106.12,16.5v29.62h-8.72v-14.25h-41.44v-15.38h50.16Z"/>
        <path class="cls-5" d="M39.28,64.22h46.03l6.75-8.44c.56-.5,1.16-.75,1.78-.75.69,0,1.22.25,1.59.75l9.84,10.12c.38.62.41,1.25.09,1.88-.25.62-.75,1-1.5,1.12H39.28v28.12h19.69v-26.62l17.62,4.88c.62.38,1.06.94,1.31,1.69.12.75-.06,1.38-.56,1.88l-2.81,2.62v15.56h8.91l5.91-7.31c.38-.5.91-.75,1.59-.75s1.22.25,1.59.75l9.28,9.19c.44.75.47,1.5.09,2.25-.25.75-.84,1.25-1.78,1.5h-25.59v33.38h13.78l6.66-8.44c.38-.62,1-.94,1.88-.94.75,0,1.31.31,1.69.94l9.75,9.94c.56.75.66,1.5.28,2.25-.19.75-.72,1.19-1.59,1.31H30.84l-2.91-5.06h31.03v-33.38h-17.53l-2.16-2.62c-.62,8.75-2.88,16.97-6.75,24.66-3.88,7.69-9.22,14.41-16.03,20.16,4.69-12.12,7.31-24.81,7.88-38.06v-47.44l14.91,4.88Z"/>
        <path class="cls-5" d="M46.88,158.91h15.75l3-4.88c.38-.5.94-.81,1.69-.94.62-.12,1.19.06,1.69.56l6.56,7.88,14.06,4.31c.75.25,1.19.81,1.31,1.69.12.88-.13,1.56-.75,2.06l-1.5,1.12v46.5c.12,1.5-.5,2.56-1.88,3.19l-7.88,2.25c-.62.25-1.28.22-1.97-.09-.69-.31-1.16-.78-1.41-1.41l-25.31,12.75-.56,1.88c-.38.75-1,1.25-1.88,1.5-.88.12-1.63-.19-2.25-.94l-6.94-9.94v9.94c0,1.5-.75,2.5-2.25,3l-6.75,1.12c-.75.25-1.44.19-2.06-.19-.62-.5-1-1.12-1.12-1.88v-42.56c-2.75,2.88-5.69,5.56-8.81,8.06,8.75-16.25,14.12-33.75,16.12-52.5l13.12,7.5ZM45.94,164.16c-2.25,7-5.38,13.38-9.38,19.12l3.94,2.62,5.44-.56,4.31-21.19h-4.31ZM38.62,223.78l11.25-1.31v-9.94h-7.88l-2.62-4.88h10.5v-12.56l-2.06.94-.19,1.69c0,.75-.38,1.25-1.12,1.5-.75.25-1.31,0-1.69-.75l-6.19-9.75v35.06ZM58.5,173.35l-6.75,11.25,11.62-1.31c-.5-3.75-2.12-7.06-4.88-9.94ZM62.44,164.16l.94.56c.5.38.75.81.75,1.31,0,.62-.31,1.06-.94,1.31l-1.31.56-1.31,2.06c5.62,3.88,10.19,8.75,13.69,14.62,1.12,2.12.94,4.25-.56,6.38-1.5,1.88-3.44,2.5-5.81,1.88-2.38-.5-3.81-1.94-4.31-4.31l-8.62,4.12,8.62,2.62c.88.13,1.37.62,1.5,1.5.25.88,0,1.63-.75,2.25l-1.69,1.5v7.12h1.88l2.44-4.31c.38-.62.88-.94,1.5-.94.75,0,1.25.31,1.5.94l4.88,6.56c.38.5.5,1.06.38,1.69-.25.5-.69.81-1.31.94h-11.25v8.44l12.94-1.31v-55.5h-13.12ZM105.38,158.91v70.12c-.13,2.75-1.06,5.19-2.81,7.31-2.75,2.75-5.94,4.44-9.56,5.06-1.25.12-2.38-.09-3.38-.66-1-.56-1.75-1.41-2.25-2.53-2-4.5-5.44-7.5-10.31-9,4.12-.38,8.12-.19,12,.56,1,.13,1.75-.06,2.25-.56.62-.75.94-1.5.94-2.25v-76.69l14.25,3.94c.75.25,1.19.75,1.31,1.5.12.75-.13,1.31-.75,1.69l-1.69,1.5Z"/>
        <path class="cls-5" d="M17.81,270.47l13.5,3.19c1.12-8.62,1.62-17.19,1.5-25.69l16.12,7.5c.75.38,1.12.94,1.12,1.69,0,.88-.31,1.56-.94,2.06l-4.88,3c-2.38,4.25-5.19,8.19-8.44,11.81h7.12l2.81-4.5c.38-.62.94-1,1.69-1.12.62-.12,1.25.06,1.88.56l8.62,6.56c.5.38.75.94.75,1.69,0,.62-.25,1.19-.75,1.69l-1.88,1.88v10.69c7-14.38,10.69-29.62,11.06-45.75l18.19,8.06c.75.25,1.06.75.94,1.5.12.88-.13,1.44-.75,1.69l-2.44,1.31c-1.5,4.88-3.5,9.75-6,14.62h12.94l2.62-4.31c.5-.5,1.06-.81,1.69-.94.62-.12,1.25-.06,1.88.19l10.5,7.31c.62.38.94,1,.94,1.88.12.75-.13,1.38-.75,1.88l-1.88,1.5c1.12,15-.38,29.5-4.5,43.5-.88,2.75-2.25,5.25-4.12,7.5-3.38,3.88-7.69,6.06-12.94,6.56-1.38.12-2.62-.25-3.75-1.12-1.12-.88-1.88-2-2.25-3.38-.25-2.62-1.28-4.84-3.09-6.66-1.81-1.81-3.97-2.97-6.47-3.47,4.5-.25,8.62-.06,12.38.56,1.25.13,2.38-.12,3.38-.75,1-.62,1.69-1.44,2.06-2.44,4.88-13.75,6.31-27.88,4.31-42.38h-16.69c-2,3-4.25,5.69-6.75,8.06,3.5,1.38,6.47,3.47,8.91,6.28s4.03,6.03,4.78,9.66c.38,1.5.28,2.91-.28,4.22s-1.47,2.34-2.72,3.09c-1.25,1-2.69,1.5-4.31,1.5s-3.13-.44-4.5-1.31c-2.38-1.62-3.38-3.94-3-6.94.88-4.88.31-9.44-1.69-13.69-2.5,2.38-5.06,4.38-7.69,6v34.5c-.13,2.12-1.12,3.44-3,3.94l-8.44,1.69c-.75.25-1.44.06-2.06-.56-.5-.38-.81-1-.94-1.88v-3.75h-9.56v3.56c-.13,1.62-.94,2.75-2.44,3.38l-8.44,1.5c-1,.12-1.78-.06-2.34-.56-.56-.5-.91-1.12-1.03-1.88v-64.69ZM32.06,278.91v19.88h9.56v-19.88h-9.56ZM32.06,304.03v20.44h9.56v-20.44h-9.56Z"/>
        <path class="cls-5" d="M21.28,355.03h13.88v-12.75l15,3.84c.81.19,1.22.69,1.22,1.5s-.34,1.38-1.03,1.69l-2.53,1.22v4.5h2.16l1.97-3.75c.25-.38.66-.56,1.22-.56.31,0,.69.16,1.12.47l7.5,6.94c.44.31.53.72.28,1.22-.19.5-.53.75-1.03.75h-13.22v5.16h2.16l3.56-3.38c.75-.88,1.53-.88,2.34,0l3.66,3.38,8.25-1.31v-22.59l15.19,4.12c.69.31,1.09.88,1.22,1.69,0,.81-.34,1.38-1.03,1.69l-2.72,1.97v10.69l2.53-.47,2.53-3.66c.69-.62,1.44-.69,2.25-.19l9.56,7.69c.62.75.59,1.47-.09,2.16l-2.91,2.44v24.56c0,.88.41,1.5,1.22,1.88.94.38,1.88.38,2.81,0,.56-.31.94-.72,1.12-1.22l2.72-16.22,1.59,9.94c.38,2.06,1.28,3.97,2.72,5.72.62.94,1.09,1.97,1.41,3.09.25,1.44.03,2.84-.66,4.22-.69,1.38-1.72,2.38-3.09,3-5.44,1.75-10.88,1.81-16.31.19-2.94-1.06-4.47-3.12-4.59-6.19v-8.16c-1.38,1.25-3.06,1.78-5.06,1.59-1.88-.38-3.31-1.41-4.31-3.09-5.44,8.56-13,14.44-22.69,17.62,6.62,4.31,10.09,10.38,10.41,18.19.06,2-.67,3.75-2.2,5.25-1.53,1.5-3.3,2.22-5.3,2.16-2-.06-3.72-.88-5.16-2.44-1.44-1.56-2.09-3.38-1.97-5.44,1.75-7,1.56-13.94-.56-20.81l2.53,1.59c3.94-3,7.19-6.28,9.75-9.84l-27.09,12-.84,2.62c-.31.81-.81,1.31-1.5,1.5-.88.19-1.56.03-2.06-.47l-8.81-12.66,16.78-2.44v-5.16h-9.19l-2.53-3.75c-1.75.69-3.56,1.28-5.44,1.78,4.62-4.75,8.06-10.37,10.31-16.88h-7.5l-3.47-6.56h17.81v-4.97h-11.34l-2.53-5.06ZM38.81,405.94c3,8.06,2.44,15.78-1.69,23.16-2.06,2.56-4.66,3.5-7.78,2.81-1.44-.31-2.67-1.02-3.7-2.11-1.03-1.09-1.7-2.36-2.02-3.8-.5-3.31.59-5.84,3.28-7.59,5.12-3,9.09-7.16,11.91-12.47ZM35.16,385.69v-6.94c-2.94,2.81-6.09,5.12-9.47,6.94h9.47ZM40.22,371.62c-.13.19-.34.55-.66,1.08-.31.53-.53.92-.66,1.17l11.06,4.41c.38.19.62.56.75,1.12,0,.5-.19.88-.56,1.12l-2.34,1.97v3.19h2.62l2.72-4.69c-.38-.5-.59-1-.66-1.5-.81-2.81-2.16-5.44-4.03-7.88h-8.25ZM47.81,390.47v3.19l13.03-1.78c2.75-4.5,4.62-9.12,5.62-13.88-2.38-2.38-5.06-4.5-8.06-6.38h-2.62c2,.81,3.88,2,5.62,3.56,1.44,1.44,1.81,3.16,1.12,5.16-.62,2.06-2,3.19-4.12,3.38l3.19,4.22c.31.5.38,1,.19,1.5-.25.62-.69.97-1.31,1.03h-12.66ZM67.78,369.66l-4.78.94c-.13.38-.41.72-.84,1.03,1.94.13,3.72.41,5.34.84l.28-2.81ZM64.41,405.28c4.37,1.75,8.09,4.34,11.16,7.78,3.06,3.44,5.25,7.41,6.56,11.91.62,2.87-.34,5.19-2.91,6.94-2.5,1.75-5,1.78-7.5.09-2.62-1.63-3.69-3.91-3.19-6.84.75-7.12-.62-13.75-4.12-19.88ZM80.53,367.22c-.13,3.56-.69,6.91-1.69,10.03,1.56.94,3.03,2.12,4.41,3.56v-14.06l-2.72.47ZM80.16,404.53c4.88.62,9.28,2.45,13.22,5.48,3.94,3.03,6.84,6.8,8.72,11.3,1.06,3.25.34,5.97-2.16,8.16-2.5,2.19-5.28,2.56-8.34,1.12-2.94-1.5-4.31-3.94-4.12-7.31-.19-7.12-2.62-13.37-7.31-18.75Z"/>
        <path class="cls-5" d="M31.5,478.97l14.81,2.81h32.06l2.62-3c.88-1,1.81-1.16,2.81-.47l10.88,5.81c.62.31.94.75.94,1.31,0,.62-.25,1.12-.75,1.5l-2.25,1.69v13.31c0,1.25-.56,2.03-1.69,2.34l-1.31.28,8.62,7.88c.62.56.81,1.22.56,1.97-.38.81-.94,1.22-1.69,1.22h-28.12v6.75h22.5l4.5-5.16c.62-.56,1.31-.84,2.06-.84s1.37.31,1.88.94l7.31,7.69c.62.56.75,1.2.38,1.92-.38.72-1,1.02-1.88.89H19.88l-2.44-5.44h37.69v-6.75h-24.94l-2.25-5.25h27.19v-5.81h-9.38c-.5.81-1.25,1.44-2.25,1.88l-8.62,1.97c-.75.19-1.5.03-2.25-.47-.62-.38-1-1.03-1.12-1.97v-27ZM30.94,442.03l15.94,2.81h32.44l2.25-3.56c.38-.69.88-1.06,1.5-1.12.75-.19,1.44-.03,2.06.47l10.5,6c.5.31.75.78.75,1.41s-.25,1.12-.75,1.5l-2.62,2.16v14.53c.62-.5,1.25-.75,1.88-.75.75,0,1.37.28,1.88.84l8.25,8.06c.62.69.81,1.38.56,2.06-.38.75-1,1.12-1.88,1.12H22.88l-2.44-4.5h67.5l2.81-4.59-9.56,1.78c-.75.13-1.38,0-1.88-.38-.62-.44-.94-.94-.94-1.5v-.66h-33v1.12c0,1.25-.62,1.94-1.88,2.06l-9.56.75c-.88.13-1.63-.06-2.25-.56-.5-.62-.75-1.31-.75-2.06v-27ZM45.38,450v3.75h33v-3.75h-33ZM45.38,459v4.22h33v-4.22h-33ZM45.75,486.94v3.28h9.38v-3.28h-9.38ZM45.75,495.66v4.03h9.38v-4.03h-9.38ZM69,486.94v3.28h9.38v-3.28h-9.38ZM69,495.66v4.03h9.38v-4.03h-9.38ZM69,504.56v5.81h13.12l3.56-4.88-5.25,1.31c-.5.19-.94.13-1.31-.19-.38-.25-.62-.62-.75-1.12v-.94h-9.38Z"/>
        <path class="cls-5" d="M67.78,551.25v15.28H17.81v-29.53h8.72v14.25h41.25Z"/>
      </g>
      <g>
        <path class="cls-3" d="M106.12,16.5v29.62h-8.72v-14.25h-41.44v-15.38h50.16Z"/>
        <path class="cls-3" d="M39.28,64.22h46.03l6.75-8.44c.56-.5,1.16-.75,1.78-.75.69,0,1.22.25,1.59.75l9.84,10.12c.38.62.41,1.25.09,1.88-.25.62-.75,1-1.5,1.12H39.28v28.12h19.69v-26.62l17.62,4.88c.62.38,1.06.94,1.31,1.69.12.75-.06,1.38-.56,1.88l-2.81,2.62v15.56h8.91l5.91-7.31c.38-.5.91-.75,1.59-.75s1.22.25,1.59.75l9.28,9.19c.44.75.47,1.5.09,2.25-.25.75-.84,1.25-1.78,1.5h-25.59v33.38h13.78l6.66-8.44c.38-.62,1-.94,1.88-.94.75,0,1.31.31,1.69.94l9.75,9.94c.56.75.66,1.5.28,2.25-.19.75-.72,1.19-1.59,1.31H30.84l-2.91-5.06h31.03v-33.38h-17.53l-2.16-2.62c-.62,8.75-2.88,16.97-6.75,24.66-3.88,7.69-9.22,14.41-16.03,20.16,4.69-12.12,7.31-24.81,7.88-38.06v-47.44l14.91,4.88Z"/>
        <path class="cls-3" d="M46.88,158.91h15.75l3-4.88c.38-.5.94-.81,1.69-.94.62-.12,1.19.06,1.69.56l6.56,7.88,14.06,4.31c.75.25,1.19.81,1.31,1.69.12.88-.13,1.56-.75,2.06l-1.5,1.12v46.5c.12,1.5-.5,2.56-1.88,3.19l-7.88,2.25c-.62.25-1.28.22-1.97-.09-.69-.31-1.16-.78-1.41-1.41l-25.31,12.75-.56,1.88c-.38.75-1,1.25-1.88,1.5-.88.12-1.63-.19-2.25-.94l-6.94-9.94v9.94c0,1.5-.75,2.5-2.25,3l-6.75,1.12c-.75.25-1.44.19-2.06-.19-.62-.5-1-1.12-1.12-1.88v-42.56c-2.75,2.88-5.69,5.56-8.81,8.06,8.75-16.25,14.12-33.75,16.12-52.5l13.12,7.5ZM45.94,164.16c-2.25,7-5.38,13.38-9.38,19.12l3.94,2.62,5.44-.56,4.31-21.19h-4.31ZM38.62,223.78l11.25-1.31v-9.94h-7.88l-2.62-4.88h10.5v-12.56l-2.06.94-.19,1.69c0,.75-.38,1.25-1.12,1.5-.75.25-1.31,0-1.69-.75l-6.19-9.75v35.06ZM58.5,173.35l-6.75,11.25,11.62-1.31c-.5-3.75-2.12-7.06-4.88-9.94ZM62.44,164.16l.94.56c.5.38.75.81.75,1.31,0,.62-.31,1.06-.94,1.31l-1.31.56-1.31,2.06c5.62,3.88,10.19,8.75,13.69,14.62,1.12,2.12.94,4.25-.56,6.38-1.5,1.88-3.44,2.5-5.81,1.88-2.38-.5-3.81-1.94-4.31-4.31l-8.62,4.12,8.62,2.62c.88.13,1.37.62,1.5,1.5.25.88,0,1.63-.75,2.25l-1.69,1.5v7.12h1.88l2.44-4.31c.38-.62.88-.94,1.5-.94.75,0,1.25.31,1.5.94l4.88,6.56c.38.5.5,1.06.38,1.69-.25.5-.69.81-1.31.94h-11.25v8.44l12.94-1.31v-55.5h-13.12ZM105.38,158.91v70.12c-.13,2.75-1.06,5.19-2.81,7.31-2.75,2.75-5.94,4.44-9.56,5.06-1.25.12-2.38-.09-3.38-.66-1-.56-1.75-1.41-2.25-2.53-2-4.5-5.44-7.5-10.31-9,4.12-.38,8.12-.19,12,.56,1,.13,1.75-.06,2.25-.56.62-.75.94-1.5.94-2.25v-76.69l14.25,3.94c.75.25,1.19.75,1.31,1.5.12.75-.13,1.31-.75,1.69l-1.69,1.5Z"/>
        <path class="cls-3" d="M17.81,270.47l13.5,3.19c1.12-8.62,1.62-17.19,1.5-25.69l16.12,7.5c.75.38,1.12.94,1.12,1.69,0,.88-.31,1.56-.94,2.06l-4.88,3c-2.38,4.25-5.19,8.19-8.44,11.81h7.12l2.81-4.5c.38-.62.94-1,1.69-1.12.62-.12,1.25.06,1.88.56l8.62,6.56c.5.38.75.94.75,1.69,0,.62-.25,1.19-.75,1.69l-1.88,1.88v10.69c7-14.38,10.69-29.62,11.06-45.75l18.19,8.06c.75.25,1.06.75.94,1.5.12.88-.13,1.44-.75,1.69l-2.44,1.31c-1.5,4.88-3.5,9.75-6,14.62h12.94l2.62-4.31c.5-.5,1.06-.81,1.69-.94.62-.12,1.25-.06,1.88.19l10.5,7.31c.62.38.94,1,.94,1.88.12.75-.13,1.38-.75,1.88l-1.88,1.5c1.12,15-.38,29.5-4.5,43.5-.88,2.75-2.25,5.25-4.12,7.5-3.38,3.88-7.69,6.06-12.94,6.56-1.38.12-2.62-.25-3.75-1.12-1.12-.88-1.88-2-2.25-3.38-.25-2.62-1.28-4.84-3.09-6.66-1.81-1.81-3.97-2.97-6.47-3.47,4.5-.25,8.62-.06,12.38.56,1.25.13,2.38-.12,3.38-.75,1-.62,1.69-1.44,2.06-2.44,4.88-13.75,6.31-27.88,4.31-42.38h-16.69c-2,3-4.25,5.69-6.75,8.06,3.5,1.38,6.47,3.47,8.91,6.28s4.03,6.03,4.78,9.66c.38,1.5.28,2.91-.28,4.22s-1.47,2.34-2.72,3.09c-1.25,1-2.69,1.5-4.31,1.5s-3.13-.44-4.5-1.31c-2.38-1.62-3.38-3.94-3-6.94.88-4.88.31-9.44-1.69-13.69-2.5,2.38-5.06,4.38-7.69,6v34.5c-.13,2.12-1.12,3.44-3,3.94l-8.44,1.69c-.75.25-1.44.06-2.06-.56-.5-.38-.81-1-.94-1.88v-3.75h-9.56v3.56c-.13,1.62-.94,2.75-2.44,3.38l-8.44,1.5c-1,.12-1.78-.06-2.34-.56-.56-.5-.91-1.12-1.03-1.88v-64.69ZM32.06,278.91v19.88h9.56v-19.88h-9.56ZM32.06,304.03v20.44h9.56v-20.44h-9.56Z"/>
        <path class="cls-3" d="M21.28,355.03h13.88v-12.75l15,3.84c.81.19,1.22.69,1.22,1.5s-.34,1.38-1.03,1.69l-2.53,1.22v4.5h2.16l1.97-3.75c.25-.38.66-.56,1.22-.56.31,0,.69.16,1.12.47l7.5,6.94c.44.31.53.72.28,1.22-.19.5-.53.75-1.03.75h-13.22v5.16h2.16l3.56-3.38c.75-.88,1.53-.88,2.34,0l3.66,3.38,8.25-1.31v-22.59l15.19,4.12c.69.31,1.09.88,1.22,1.69,0,.81-.34,1.38-1.03,1.69l-2.72,1.97v10.69l2.53-.47,2.53-3.66c.69-.62,1.44-.69,2.25-.19l9.56,7.69c.62.75.59,1.47-.09,2.16l-2.91,2.44v24.56c0,.88.41,1.5,1.22,1.88.94.38,1.88.38,2.81,0,.56-.31.94-.72,1.12-1.22l2.72-16.22,1.59,9.94c.38,2.06,1.28,3.97,2.72,5.72.62.94,1.09,1.97,1.41,3.09.25,1.44.03,2.84-.66,4.22-.69,1.38-1.72,2.38-3.09,3-5.44,1.75-10.88,1.81-16.31.19-2.94-1.06-4.47-3.12-4.59-6.19v-8.16c-1.38,1.25-3.06,1.78-5.06,1.59-1.88-.38-3.31-1.41-4.31-3.09-5.44,8.56-13,14.44-22.69,17.62,6.62,4.31,10.09,10.38,10.41,18.19.06,2-.67,3.75-2.2,5.25-1.53,1.5-3.3,2.22-5.3,2.16-2-.06-3.72-.88-5.16-2.44-1.44-1.56-2.09-3.38-1.97-5.44,1.75-7,1.56-13.94-.56-20.81l2.53,1.59c3.94-3,7.19-6.28,9.75-9.84l-27.09,12-.84,2.62c-.31.81-.81,1.31-1.5,1.5-.88.19-1.56.03-2.06-.47l-8.81-12.66,16.78-2.44v-5.16h-9.19l-2.53-3.75c-1.75.69-3.56,1.28-5.44,1.78,4.62-4.75,8.06-10.37,10.31-16.88h-7.5l-3.47-6.56h17.81v-4.97h-11.34l-2.53-5.06ZM38.81,405.94c3,8.06,2.44,15.78-1.69,23.16-2.06,2.56-4.66,3.5-7.78,2.81-1.44-.31-2.67-1.02-3.7-2.11-1.03-1.09-1.7-2.36-2.02-3.8-.5-3.31.59-5.84,3.28-7.59,5.12-3,9.09-7.16,11.91-12.47ZM35.16,385.69v-6.94c-2.94,2.81-6.09,5.12-9.47,6.94h9.47ZM40.22,371.62c-.13.19-.34.55-.66,1.08-.31.53-.53.92-.66,1.17l11.06,4.41c.38.19.62.56.75,1.12,0,.5-.19.88-.56,1.12l-2.34,1.97v3.19h2.62l2.72-4.69c-.38-.5-.59-1-.66-1.5-.81-2.81-2.16-5.44-4.03-7.88h-8.25ZM47.81,390.47v3.19l13.03-1.78c2.75-4.5,4.62-9.12,5.62-13.88-2.38-2.38-5.06-4.5-8.06-6.38h-2.62c2,.81,3.88,2,5.62,3.56,1.44,1.44,1.81,3.16,1.12,5.16-.62,2.06-2,3.19-4.12,3.38l3.19,4.22c.31.5.38,1,.19,1.5-.25.62-.69.97-1.31,1.03h-12.66ZM67.78,369.66l-4.78.94c-.13.38-.41.72-.84,1.03,1.94.13,3.72.41,5.34.84l.28-2.81ZM64.41,405.28c4.37,1.75,8.09,4.34,11.16,7.78,3.06,3.44,5.25,7.41,6.56,11.91.62,2.87-.34,5.19-2.91,6.94-2.5,1.75-5,1.78-7.5.09-2.62-1.63-3.69-3.91-3.19-6.84.75-7.12-.62-13.75-4.12-19.88ZM80.53,367.22c-.13,3.56-.69,6.91-1.69,10.03,1.56.94,3.03,2.12,4.41,3.56v-14.06l-2.72.47ZM80.16,404.53c4.88.62,9.28,2.45,13.22,5.48,3.94,3.03,6.84,6.8,8.72,11.3,1.06,3.25.34,5.97-2.16,8.16-2.5,2.19-5.28,2.56-8.34,1.12-2.94-1.5-4.31-3.94-4.12-7.31-.19-7.12-2.62-13.37-7.31-18.75Z"/>
        <path class="cls-3" d="M31.5,478.97l14.81,2.81h32.06l2.62-3c.88-1,1.81-1.16,2.81-.47l10.88,5.81c.62.31.94.75.94,1.31,0,.62-.25,1.12-.75,1.5l-2.25,1.69v13.31c0,1.25-.56,2.03-1.69,2.34l-1.31.28,8.62,7.88c.62.56.81,1.22.56,1.97-.38.81-.94,1.22-1.69,1.22h-28.12v6.75h22.5l4.5-5.16c.62-.56,1.31-.84,2.06-.84s1.37.31,1.88.94l7.31,7.69c.62.56.75,1.2.38,1.92-.38.72-1,1.02-1.88.89H19.88l-2.44-5.44h37.69v-6.75h-24.94l-2.25-5.25h27.19v-5.81h-9.38c-.5.81-1.25,1.44-2.25,1.88l-8.62,1.97c-.75.19-1.5.03-2.25-.47-.62-.38-1-1.03-1.12-1.97v-27ZM30.94,442.03l15.94,2.81h32.44l2.25-3.56c.38-.69.88-1.06,1.5-1.12.75-.19,1.44-.03,2.06.47l10.5,6c.5.31.75.78.75,1.41s-.25,1.12-.75,1.5l-2.62,2.16v14.53c.62-.5,1.25-.75,1.88-.75.75,0,1.37.28,1.88.84l8.25,8.06c.62.69.81,1.38.56,2.06-.38.75-1,1.12-1.88,1.12H22.88l-2.44-4.5h67.5l2.81-4.59-9.56,1.78c-.75.13-1.38,0-1.88-.38-.62-.44-.94-.94-.94-1.5v-.66h-33v1.12c0,1.25-.62,1.94-1.88,2.06l-9.56.75c-.88.13-1.63-.06-2.25-.56-.5-.62-.75-1.31-.75-2.06v-27ZM45.38,450v3.75h33v-3.75h-33ZM45.38,459v4.22h33v-4.22h-33ZM45.75,486.94v3.28h9.38v-3.28h-9.38ZM45.75,495.66v4.03h9.38v-4.03h-9.38ZM69,486.94v3.28h9.38v-3.28h-9.38ZM69,495.66v4.03h9.38v-4.03h-9.38ZM69,504.56v5.81h13.12l3.56-4.88-5.25,1.31c-.5.19-.94.13-1.31-.19-.38-.25-.62-.62-.75-1.12v-.94h-9.38Z"/>
        <path class="cls-3" d="M67.78,551.25v15.28H17.81v-29.53h8.72v14.25h41.25Z"/>
      </g>
      <g>
        <path class="cls-9" d="M97.41,54.12c-4.42,0-8-3.58-8-8v-6.25h-33.44c-4.42,0-8-3.58-8-8v-15.38c0-4.42,3.58-8,8-8h50.16c4.42,0,8,3.58,8,8v29.62c0,4.42-3.58,8-8,8h-8.72Z"/>
        <path class="cls-7" d="M16.5,152.84c-1.62,0-3.25-.49-4.64-1.49-2.98-2.12-4.14-5.99-2.82-9.4,4.33-11.2,6.8-23.09,7.34-35.35v-47.26c0-2.56,1.23-4.97,3.3-6.48,1.38-1,3.03-1.52,4.7-1.52.83,0,1.67.13,2.49.4l13.69,4.48h40.91l4.35-5.43c.28-.35.59-.68.93-.98,2.04-1.81,4.49-2.77,7.1-2.77,2.96,0,5.67,1.23,7.55,3.4l9.62,9.9c.43.44.81.93,1.12,1.46,1.74,2.9,1.92,6.27.52,9.29-1.34,3.03-4.11,5.16-7.47,5.72-.43.07-.88.11-1.32.11h-17.94c.13,2.85-.9,5.56-2.93,7.59-.07.06-.47.44-.47.44v.48l.53-.66c1.88-2.41,4.74-3.79,7.87-3.79,2.92,0,5.6,1.2,7.48,3.32l9.02,8.93c.5.5.93,1.05,1.29,1.66,1.71,2.93,1.9,6.31.57,9.36-1.21,3.04-3.77,5.26-7.12,6.15-.67.18-1.36.27-2.05.27h-17.59v17.38h1.9l4.05-5.13c1.88-2.71,4.89-4.24,8.36-4.24,3.1,0,5.94,1.38,7.81,3.76l9.33,9.51c.25.25.48.52.69.8,2.21,2.95,2.71,6.58,1.38,9.86-1.2,3.45-4.18,5.88-7.96,6.42-.38.05-.76.08-1.14.08H30.84c-1.89,0-3.69-.67-5.1-1.84-1.31,1.27-2.67,2.51-4.08,3.7-1.48,1.25-3.32,1.89-5.16,1.89ZM50.97,128.03v-17.38h-5.11c-1.27,6.04-3.29,11.85-6.05,17.38h11.16ZM50.97,89.03v-12.12h-3.69v12.12h3.69Z"/>
        <path class="cls-8" d="M92.33,249.44c-2.37,0-4.6-.58-6.63-1.72-2.49-1.4-4.44-3.56-5.64-6.25-1.05-2.37-2.7-3.79-5.35-4.6-2.1-.65-3.77-2.1-4.74-3.94l-13.26,6.68c-1.4,2.63-3.77,4.53-6.7,5.37-.35.1-.71.18-1.07.23-.5.07-1,.11-1.5.11-1.49,0-2.92-.31-4.23-.91-1.18,1.1-2.63,1.97-4.31,2.53-.4.13-.81.23-1.22.3l-6.32,1.05c-.86.22-1.74.33-2.61.33-1.86,0-3.7-.51-5.31-1.48-.31-.19-.6-.39-.88-.62-2.17-1.74-3.56-4.09-4.01-6.8-.07-.43-.11-.88-.11-1.32v-26.54c-.27.03-.54.04-.81.04-1.82,0-3.64-.62-5.12-1.86-2.92-2.43-3.72-6.59-1.92-9.94,8.21-15.25,13.33-31.93,15.21-49.56.29-2.69,1.91-5.04,4.31-6.27,1.15-.58,2.39-.88,3.64-.88,1.37,0,2.74.35,3.97,1.05l11.28,6.45h9.16l.66-1.07c.13-.21.27-.41.41-.61,1.58-2.1,3.94-3.53,6.65-4.01.6-.11,1.2-.17,1.8-.17,2.6,0,5.07,1.04,6.97,2.94.17.17.34.35.49.54l5.04,6.05,4.07,1.25v-5.55c0-2.5,1.17-4.85,3.15-6.37,1.41-1.07,3.12-1.63,4.85-1.63.71,0,1.43.09,2.13.29l14.25,3.94c.13.04.27.08.4.12,3.56,1.19,6.05,4.09,6.67,7.76.51,3.05-.37,5.96-2.33,8.09v66.55c0,.12,0,.24,0,.37-.21,4.5-1.76,8.55-4.63,12.03-.16.2-.34.39-.52.57-3.93,3.93-8.59,6.38-13.86,7.29-.19.03-.38.06-.56.08-.49.05-.98.07-1.47.07Z"/>
        <path class="cls-6" d="M82.93,345.99c-2.95,0-5.77-.98-8.15-2.83-2.48-1.93-4.23-4.55-5.06-7.58-.12-.44-.2-.89-.25-1.35-.08-.89-.38-1.35-.79-1.76-.69-.7-1.43-1.09-2.38-1.28-.81-.16-1.57-.44-2.27-.82-.39,5.44-3.79,9.65-8.91,11.02-.16.04-.33.08-.5.12l-8.13,1.62c-.82.22-1.66.32-2.51.32-2.46,0-4.83-.94-6.71-2.65-.1-.08-.2-.17-.3-.27-1.15,1.24-2.59,2.24-4.28,2.95-.54.22-1.1.39-1.68.49l-8.44,1.5c-.14.02-.27.04-.41.06-.53.07-1.05.1-1.57.1-2.71,0-5.16-.91-7.08-2.62-1.94-1.72-3.18-3.98-3.61-6.54-.07-.43-.11-.88-.11-1.32v-64.69c0-2.45,1.12-4.76,3.04-6.27,1.43-1.13,3.18-1.73,4.96-1.73.61,0,1.23.07,1.84.21l4.65,1.1c.42-5.26.59-10.52.51-15.7-.04-2.75,1.34-5.33,3.65-6.83,1.32-.85,2.83-1.29,4.35-1.29,1.15,0,2.3.25,3.37.75l16.12,7.5c.07.03.14.06.2.1,3.47,1.74,5.55,5.04,5.55,8.84,0,2.52-.8,4.82-2.29,6.67l1.13.86c1.33-6.25,2.08-12.64,2.23-19.16.06-2.67,1.46-5.14,3.71-6.57,1.3-.83,2.79-1.24,4.29-1.24,1.1,0,2.21.23,3.24.69l17.96,7.96c3.77,1.47,6.07,4.98,5.94,8.93.05,1.57-.25,3.07-.86,4.4.51-.07,1.02-.11,1.52-.11,1.43,0,2.85.28,4.21.82.57.23,1.11.52,1.61.87l10.36,7.21c2.71,1.76,4.32,4.61,4.49,7.93.26,2.74-.6,5.38-2.39,7.44.65,14.49-1.04,28.71-5.05,42.3-.02.06-.03.11-.05.17-1.19,3.73-3.07,7.16-5.6,10.19-.04.04-.07.09-.11.13-4.75,5.45-10.88,8.57-18.21,9.27-.45.04-.86.06-1.27.06ZM80.51,286.34c.34.36.68.73,1,1.1.46.54.91,1.09,1.33,1.65-.02-.92-.05-1.83-.1-2.75h-2.23Z"/>
        <path class="cls-1" d="M75.4,441.24c-2.8,0-5.5-.85-8.03-2.52-1.17-.74-2.21-1.58-3.09-2.51-2.84,2.48-6.26,3.79-9.95,3.79-.16,0-.32,0-.48,0-4.16-.13-7.9-1.86-10.8-5.02-.07-.08-.15-.16-.22-.24-3.1,3.53-7.08,5.39-11.58,5.39-1.19,0-2.41-.14-3.63-.4-2.98-.65-5.68-2.18-7.8-4.43-2.04-2.16-3.39-4.72-4.01-7.59-.04-.17-.07-.33-.09-.5-.78-5.13.67-9.77,4.01-13.19l-7.92-11.37c-1.58-2.28-1.88-5.21-.77-7.75.21-.48.46-.93.75-1.35-.25-.31-.48-.64-.68-.99-1.82-3.11-1.34-7.04,1.17-9.62,1.46-1.5,2.76-3.08,3.92-4.77-1.01-.71-1.85-1.66-2.45-2.79l-3.47-6.56c-1.31-2.48-1.23-5.46.22-7.87.8-1.33,1.96-2.38,3.32-3.05-.88-2.32-.65-4.93.67-7.06,1.46-2.36,4.03-3.79,6.81-3.79h5.88v-4.75c0-2.47,1.14-4.8,3.1-6.32,1.42-1.1,3.15-1.68,4.91-1.68.66,0,1.33.08,1.99.25l14.94,3.83c3.37.82,5.87,3.21,6.85,6.32,0,0,0,0,0,0,.27.2.54.41.78.64l.07.06v-4.03c0-2.49,1.16-4.84,3.14-6.36,1.41-1.08,3.12-1.64,4.86-1.64.7,0,1.41.09,2.1.28l15.19,4.12c.42.11.83.26,1.22.44,3.15,1.44,5.26,4.26,5.8,7.74.06.41.09.82.09,1.23,0,1.07-.16,2.11-.47,3.08.08.04.15.09.23.14.29.18.56.37.82.58l9.56,7.69c.42.33.8.71,1.14,1.12,2.71,3.26,2.99,7.59.92,11.01,2.93.83,5.2,3.3,5.71,6.43l1.58,9.83c.14.69.46,1.33,1.02,2.01.17.21.33.42.48.65,1.09,1.64,1.91,3.45,2.45,5.38.07.26.13.52.18.78.54,3.11.06,6.28-1.38,9.16-1.51,3.01-3.91,5.33-6.94,6.7-.28.13-.57.24-.86.33-.12.04-.25.08-.37.12,1.27,1.9,2.35,3.92,3.24,6.07.08.19.15.39.22.59,2.06,6.29.42,12.36-4.49,16.66-2.96,2.59-6.46,3.96-10.1,3.96-2.3,0-4.63-.54-6.91-1.61-.08-.04-.16-.08-.24-.12-.67-.34-1.3-.71-1.89-1.12-.7.68-1.48,1.32-2.34,1.91-2.56,1.79-5.39,2.73-8.33,2.73Z"/>
        <path class="cls-2" d="M106.12,535.84c-.25,0-.5,0-.76-.03H19.88c-3.15,0-6.01-1.85-7.3-4.73l-2.44-5.44c-1.11-2.48-.89-5.34.59-7.62,1.47-2.28,4-3.65,6.71-3.65h3.51l-.36-.85c-1.06-2.47-.81-5.31.67-7.56.6-.91,1.36-1.67,2.24-2.25v-18.16h-.62c-2.94,0-5.64-1.61-7.03-4.19l-2.44-4.5c-1.34-2.48-1.28-5.48.16-7.9,1.44-2.42,4.05-3.91,6.87-3.91h2.5v-23.03c0-2.37,1.05-4.61,2.86-6.13,1.45-1.22,3.28-1.87,5.14-1.87.46,0,.93.04,1.39.12l15.25,2.69h27.32c1.56-2.48,3.97-4.11,6.75-4.57.67-.13,1.34-.2,2.01-.2,2.08,0,4.07.62,5.81,1.81l10.13,5.79c.09.05.19.11.28.17,2.82,1.77,4.5,4.83,4.5,8.18,0,2.89-1.22,5.56-3.38,7.44v3.96c.53.38,1.02.81,1.48,1.29l8.11,7.93c.12.11.23.23.34.35,2.61,2.88,3.42,6.68,2.16,10.16-.11.29-.23.58-.37.85-1.74,3.47-5.11,5.55-9.03,5.55h-.06c-.03,2.67-1.11,5.14-3,6.97v9.41c0,.59-.04,1.16-.13,1.72l3.15,2.87c1.92,1.73,3.04,4.04,3.24,6.48l6.03,6.33c3.06,2.99,3.79,7.47,1.81,11.28-1.71,3.27-4.92,5.22-8.6,5.22Z"/>
        <path class="cls-10" d="M17.81,574.53c-4.42,0-8-3.58-8-8v-29.53c0-4.42,3.58-8,8-8h8.72c4.42,0,8,3.58,8,8v6.25h33.25c4.42,0,8,3.58,8,8v15.28c0,4.42-3.58,8-8,8H17.81Z"/>
      </g>
      <g>
        <path class="cls-4" d="M106.12,16.5v29.62h-8.72v-14.25h-41.44v-15.38h50.16Z"/>
        <path class="cls-4" d="M39.28,64.22h46.03l6.75-8.44c.56-.5,1.16-.75,1.78-.75.69,0,1.22.25,1.59.75l9.84,10.12c.38.62.41,1.25.09,1.88-.25.62-.75,1-1.5,1.12H39.28v28.12h19.69v-26.62l17.62,4.88c.62.38,1.06.94,1.31,1.69.12.75-.06,1.38-.56,1.88l-2.81,2.62v15.56h8.91l5.91-7.31c.38-.5.91-.75,1.59-.75s1.22.25,1.59.75l9.28,9.19c.44.75.47,1.5.09,2.25-.25.75-.84,1.25-1.78,1.5h-25.59v33.38h13.78l6.66-8.44c.38-.62,1-.94,1.88-.94.75,0,1.31.31,1.69.94l9.75,9.94c.56.75.66,1.5.28,2.25-.19.75-.72,1.19-1.59,1.31H30.84l-2.91-5.06h31.03v-33.38h-17.53l-2.16-2.62c-.62,8.75-2.88,16.97-6.75,24.66-3.88,7.69-9.22,14.41-16.03,20.16,4.69-12.12,7.31-24.81,7.88-38.06v-47.44l14.91,4.88Z"/>
        <path class="cls-4" d="M46.88,158.91h15.75l3-4.88c.38-.5.94-.81,1.69-.94.62-.12,1.19.06,1.69.56l6.56,7.88,14.06,4.31c.75.25,1.19.81,1.31,1.69.12.88-.13,1.56-.75,2.06l-1.5,1.12v46.5c.12,1.5-.5,2.56-1.88,3.19l-7.88,2.25c-.62.25-1.28.22-1.97-.09-.69-.31-1.16-.78-1.41-1.41l-25.31,12.75-.56,1.88c-.38.75-1,1.25-1.88,1.5-.88.12-1.63-.19-2.25-.94l-6.94-9.94v9.94c0,1.5-.75,2.5-2.25,3l-6.75,1.12c-.75.25-1.44.19-2.06-.19-.62-.5-1-1.12-1.12-1.88v-42.56c-2.75,2.88-5.69,5.56-8.81,8.06,8.75-16.25,14.12-33.75,16.12-52.5l13.12,7.5ZM45.94,164.16c-2.25,7-5.38,13.38-9.38,19.12l3.94,2.62,5.44-.56,4.31-21.19h-4.31ZM38.62,223.78l11.25-1.31v-9.94h-7.88l-2.62-4.88h10.5v-12.56l-2.06.94-.19,1.69c0,.75-.38,1.25-1.12,1.5-.75.25-1.31,0-1.69-.75l-6.19-9.75v35.06ZM58.5,173.35l-6.75,11.25,11.62-1.31c-.5-3.75-2.12-7.06-4.88-9.94ZM62.44,164.16l.94.56c.5.38.75.81.75,1.31,0,.62-.31,1.06-.94,1.31l-1.31.56-1.31,2.06c5.62,3.88,10.19,8.75,13.69,14.62,1.12,2.12.94,4.25-.56,6.38-1.5,1.88-3.44,2.5-5.81,1.88-2.38-.5-3.81-1.94-4.31-4.31l-8.62,4.12,8.62,2.62c.88.13,1.37.62,1.5,1.5.25.88,0,1.63-.75,2.25l-1.69,1.5v7.12h1.88l2.44-4.31c.38-.62.88-.94,1.5-.94.75,0,1.25.31,1.5.94l4.88,6.56c.38.5.5,1.06.38,1.69-.25.5-.69.81-1.31.94h-11.25v8.44l12.94-1.31v-55.5h-13.12ZM105.38,158.91v70.12c-.13,2.75-1.06,5.19-2.81,7.31-2.75,2.75-5.94,4.44-9.56,5.06-1.25.12-2.38-.09-3.38-.66-1-.56-1.75-1.41-2.25-2.53-2-4.5-5.44-7.5-10.31-9,4.12-.38,8.12-.19,12,.56,1,.13,1.75-.06,2.25-.56.62-.75.94-1.5.94-2.25v-76.69l14.25,3.94c.75.25,1.19.75,1.31,1.5.12.75-.13,1.31-.75,1.69l-1.69,1.5Z"/>
        <path class="cls-4" d="M17.81,270.47l13.5,3.19c1.12-8.62,1.62-17.19,1.5-25.69l16.12,7.5c.75.38,1.12.94,1.12,1.69,0,.88-.31,1.56-.94,2.06l-4.88,3c-2.38,4.25-5.19,8.19-8.44,11.81h7.12l2.81-4.5c.38-.62.94-1,1.69-1.12.62-.12,1.25.06,1.88.56l8.62,6.56c.5.38.75.94.75,1.69,0,.62-.25,1.19-.75,1.69l-1.88,1.88v10.69c7-14.38,10.69-29.62,11.06-45.75l18.19,8.06c.75.25,1.06.75.94,1.5.12.88-.13,1.44-.75,1.69l-2.44,1.31c-1.5,4.88-3.5,9.75-6,14.62h12.94l2.62-4.31c.5-.5,1.06-.81,1.69-.94.62-.12,1.25-.06,1.88.19l10.5,7.31c.62.38.94,1,.94,1.88.12.75-.13,1.38-.75,1.88l-1.88,1.5c1.12,15-.38,29.5-4.5,43.5-.88,2.75-2.25,5.25-4.12,7.5-3.38,3.88-7.69,6.06-12.94,6.56-1.38.12-2.62-.25-3.75-1.12-1.12-.88-1.88-2-2.25-3.38-.25-2.62-1.28-4.84-3.09-6.66-1.81-1.81-3.97-2.97-6.47-3.47,4.5-.25,8.62-.06,12.38.56,1.25.13,2.38-.12,3.38-.75,1-.62,1.69-1.44,2.06-2.44,4.88-13.75,6.31-27.88,4.31-42.38h-16.69c-2,3-4.25,5.69-6.75,8.06,3.5,1.38,6.47,3.47,8.91,6.28s4.03,6.03,4.78,9.66c.38,1.5.28,2.91-.28,4.22s-1.47,2.34-2.72,3.09c-1.25,1-2.69,1.5-4.31,1.5s-3.13-.44-4.5-1.31c-2.38-1.62-3.38-3.94-3-6.94.88-4.88.31-9.44-1.69-13.69-2.5,2.38-5.06,4.38-7.69,6v34.5c-.13,2.12-1.12,3.44-3,3.94l-8.44,1.69c-.75.25-1.44.06-2.06-.56-.5-.38-.81-1-.94-1.88v-3.75h-9.56v3.56c-.13,1.62-.94,2.75-2.44,3.38l-8.44,1.5c-1,.12-1.78-.06-2.34-.56-.56-.5-.91-1.12-1.03-1.88v-64.69ZM32.06,278.91v19.88h9.56v-19.88h-9.56ZM32.06,304.03v20.44h9.56v-20.44h-9.56Z"/>
        <path class="cls-4" d="M21.28,355.03h13.88v-12.75l15,3.84c.81.19,1.22.69,1.22,1.5s-.34,1.38-1.03,1.69l-2.53,1.22v4.5h2.16l1.97-3.75c.25-.38.66-.56,1.22-.56.31,0,.69.16,1.12.47l7.5,6.94c.44.31.53.72.28,1.22-.19.5-.53.75-1.03.75h-13.22v5.16h2.16l3.56-3.38c.75-.88,1.53-.88,2.34,0l3.66,3.38,8.25-1.31v-22.59l15.19,4.12c.69.31,1.09.88,1.22,1.69,0,.81-.34,1.38-1.03,1.69l-2.72,1.97v10.69l2.53-.47,2.53-3.66c.69-.62,1.44-.69,2.25-.19l9.56,7.69c.62.75.59,1.47-.09,2.16l-2.91,2.44v24.56c0,.88.41,1.5,1.22,1.88.94.38,1.88.38,2.81,0,.56-.31.94-.72,1.12-1.22l2.72-16.22,1.59,9.94c.38,2.06,1.28,3.97,2.72,5.72.62.94,1.09,1.97,1.41,3.09.25,1.44.03,2.84-.66,4.22-.69,1.38-1.72,2.38-3.09,3-5.44,1.75-10.88,1.81-16.31.19-2.94-1.06-4.47-3.12-4.59-6.19v-8.16c-1.38,1.25-3.06,1.78-5.06,1.59-1.88-.38-3.31-1.41-4.31-3.09-5.44,8.56-13,14.44-22.69,17.62,6.62,4.31,10.09,10.38,10.41,18.19.06,2-.67,3.75-2.2,5.25-1.53,1.5-3.3,2.22-5.3,2.16-2-.06-3.72-.88-5.16-2.44-1.44-1.56-2.09-3.38-1.97-5.44,1.75-7,1.56-13.94-.56-20.81l2.53,1.59c3.94-3,7.19-6.28,9.75-9.84l-27.09,12-.84,2.62c-.31.81-.81,1.31-1.5,1.5-.88.19-1.56.03-2.06-.47l-8.81-12.66,16.78-2.44v-5.16h-9.19l-2.53-3.75c-1.75.69-3.56,1.28-5.44,1.78,4.62-4.75,8.06-10.37,10.31-16.88h-7.5l-3.47-6.56h17.81v-4.97h-11.34l-2.53-5.06ZM38.81,405.94c3,8.06,2.44,15.78-1.69,23.16-2.06,2.56-4.66,3.5-7.78,2.81-1.44-.31-2.67-1.02-3.7-2.11-1.03-1.09-1.7-2.36-2.02-3.8-.5-3.31.59-5.84,3.28-7.59,5.12-3,9.09-7.16,11.91-12.47ZM35.16,385.69v-6.94c-2.94,2.81-6.09,5.12-9.47,6.94h9.47ZM40.22,371.62c-.13.19-.34.55-.66,1.08-.31.53-.53.92-.66,1.17l11.06,4.41c.38.19.62.56.75,1.12,0,.5-.19.88-.56,1.12l-2.34,1.97v3.19h2.62l2.72-4.69c-.38-.5-.59-1-.66-1.5-.81-2.81-2.16-5.44-4.03-7.88h-8.25ZM47.81,390.47v3.19l13.03-1.78c2.75-4.5,4.62-9.12,5.62-13.88-2.38-2.38-5.06-4.5-8.06-6.38h-2.62c2,.81,3.88,2,5.62,3.56,1.44,1.44,1.81,3.16,1.12,5.16-.62,2.06-2,3.19-4.12,3.38l3.19,4.22c.31.5.38,1,.19,1.5-.25.62-.69.97-1.31,1.03h-12.66ZM67.78,369.66l-4.78.94c-.13.38-.41.72-.84,1.03,1.94.13,3.72.41,5.34.84l.28-2.81ZM64.41,405.28c4.37,1.75,8.09,4.34,11.16,7.78,3.06,3.44,5.25,7.41,6.56,11.91.62,2.87-.34,5.19-2.91,6.94-2.5,1.75-5,1.78-7.5.09-2.62-1.63-3.69-3.91-3.19-6.84.75-7.12-.62-13.75-4.12-19.88ZM80.53,367.22c-.13,3.56-.69,6.91-1.69,10.03,1.56.94,3.03,2.12,4.41,3.56v-14.06l-2.72.47ZM80.16,404.53c4.88.62,9.28,2.45,13.22,5.48,3.94,3.03,6.84,6.8,8.72,11.3,1.06,3.25.34,5.97-2.16,8.16-2.5,2.19-5.28,2.56-8.34,1.12-2.94-1.5-4.31-3.94-4.12-7.31-.19-7.12-2.62-13.37-7.31-18.75Z"/>
        <path class="cls-4" d="M31.5,478.97l14.81,2.81h32.06l2.62-3c.88-1,1.81-1.16,2.81-.47l10.88,5.81c.62.31.94.75.94,1.31,0,.62-.25,1.12-.75,1.5l-2.25,1.69v13.31c0,1.25-.56,2.03-1.69,2.34l-1.31.28,8.62,7.88c.62.56.81,1.22.56,1.97-.38.81-.94,1.22-1.69,1.22h-28.12v6.75h22.5l4.5-5.16c.62-.56,1.31-.84,2.06-.84s1.37.31,1.88.94l7.31,7.69c.62.56.75,1.2.38,1.92-.38.72-1,1.02-1.88.89H19.88l-2.44-5.44h37.69v-6.75h-24.94l-2.25-5.25h27.19v-5.81h-9.38c-.5.81-1.25,1.44-2.25,1.88l-8.62,1.97c-.75.19-1.5.03-2.25-.47-.62-.38-1-1.03-1.12-1.97v-27ZM30.94,442.03l15.94,2.81h32.44l2.25-3.56c.38-.69.88-1.06,1.5-1.12.75-.19,1.44-.03,2.06.47l10.5,6c.5.31.75.78.75,1.41s-.25,1.12-.75,1.5l-2.62,2.16v14.53c.62-.5,1.25-.75,1.88-.75.75,0,1.37.28,1.88.84l8.25,8.06c.62.69.81,1.38.56,2.06-.38.75-1,1.12-1.88,1.12H22.88l-2.44-4.5h67.5l2.81-4.59-9.56,1.78c-.75.13-1.38,0-1.88-.38-.62-.44-.94-.94-.94-1.5v-.66h-33v1.12c0,1.25-.62,1.94-1.88,2.06l-9.56.75c-.88.13-1.63-.06-2.25-.56-.5-.62-.75-1.31-.75-2.06v-27ZM45.38,450v3.75h33v-3.75h-33ZM45.38,459v4.22h33v-4.22h-33ZM45.75,486.94v3.28h9.38v-3.28h-9.38ZM45.75,495.66v4.03h9.38v-4.03h-9.38ZM69,486.94v3.28h9.38v-3.28h-9.38ZM69,495.66v4.03h9.38v-4.03h-9.38ZM69,504.56v5.81h13.12l3.56-4.88-5.25,1.31c-.5.19-.94.13-1.31-.19-.38-.25-.62-.62-.75-1.12v-.94h-9.38Z"/>
        <path class="cls-4" d="M67.78,551.25v15.28H17.81v-29.53h8.72v14.25h41.25Z"/>
      </g>
      <g>
        <path d="M106.12,16.5v29.62h-8.72v-14.25h-41.44v-15.38h50.16Z"/>
        <path d="M39.28,64.22h46.03l6.75-8.44c.56-.5,1.16-.75,1.78-.75.69,0,1.22.25,1.59.75l9.84,10.12c.38.62.41,1.25.09,1.88-.25.62-.75,1-1.5,1.12H39.28v28.12h19.69v-26.62l17.62,4.88c.62.38,1.06.94,1.31,1.69.12.75-.06,1.38-.56,1.88l-2.81,2.62v15.56h8.91l5.91-7.31c.38-.5.91-.75,1.59-.75s1.22.25,1.59.75l9.28,9.19c.44.75.47,1.5.09,2.25-.25.75-.84,1.25-1.78,1.5h-25.59v33.38h13.78l6.66-8.44c.38-.62,1-.94,1.88-.94.75,0,1.31.31,1.69.94l9.75,9.94c.56.75.66,1.5.28,2.25-.19.75-.72,1.19-1.59,1.31H30.84l-2.91-5.06h31.03v-33.38h-17.53l-2.16-2.62c-.62,8.75-2.88,16.97-6.75,24.66-3.88,7.69-9.22,14.41-16.03,20.16,4.69-12.12,7.31-24.81,7.88-38.06v-47.44l14.91,4.88Z"/>
        <path d="M46.88,158.91h15.75l3-4.88c.38-.5.94-.81,1.69-.94.62-.12,1.19.06,1.69.56l6.56,7.88,14.06,4.31c.75.25,1.19.81,1.31,1.69.12.88-.13,1.56-.75,2.06l-1.5,1.12v46.5c.12,1.5-.5,2.56-1.88,3.19l-7.88,2.25c-.62.25-1.28.22-1.97-.09-.69-.31-1.16-.78-1.41-1.41l-25.31,12.75-.56,1.88c-.38.75-1,1.25-1.88,1.5-.88.12-1.63-.19-2.25-.94l-6.94-9.94v9.94c0,1.5-.75,2.5-2.25,3l-6.75,1.12c-.75.25-1.44.19-2.06-.19-.62-.5-1-1.12-1.12-1.88v-42.56c-2.75,2.88-5.69,5.56-8.81,8.06,8.75-16.25,14.12-33.75,16.12-52.5l13.12,7.5ZM45.94,164.16c-2.25,7-5.38,13.38-9.38,19.12l3.94,2.62,5.44-.56,4.31-21.19h-4.31ZM38.62,223.78l11.25-1.31v-9.94h-7.88l-2.62-4.88h10.5v-12.56l-2.06.94-.19,1.69c0,.75-.38,1.25-1.12,1.5-.75.25-1.31,0-1.69-.75l-6.19-9.75v35.06ZM58.5,173.35l-6.75,11.25,11.62-1.31c-.5-3.75-2.12-7.06-4.88-9.94ZM62.44,164.16l.94.56c.5.38.75.81.75,1.31,0,.62-.31,1.06-.94,1.31l-1.31.56-1.31,2.06c5.62,3.88,10.19,8.75,13.69,14.62,1.12,2.12.94,4.25-.56,6.38-1.5,1.88-3.44,2.5-5.81,1.88-2.38-.5-3.81-1.94-4.31-4.31l-8.62,4.12,8.62,2.62c.88.13,1.37.62,1.5,1.5.25.88,0,1.63-.75,2.25l-1.69,1.5v7.12h1.88l2.44-4.31c.38-.62.88-.94,1.5-.94.75,0,1.25.31,1.5.94l4.88,6.56c.38.5.5,1.06.38,1.69-.25.5-.69.81-1.31.94h-11.25v8.44l12.94-1.31v-55.5h-13.12ZM105.38,158.91v70.12c-.13,2.75-1.06,5.19-2.81,7.31-2.75,2.75-5.94,4.44-9.56,5.06-1.25.12-2.38-.09-3.38-.66-1-.56-1.75-1.41-2.25-2.53-2-4.5-5.44-7.5-10.31-9,4.12-.38,8.12-.19,12,.56,1,.13,1.75-.06,2.25-.56.62-.75.94-1.5.94-2.25v-76.69l14.25,3.94c.75.25,1.19.75,1.31,1.5.12.75-.13,1.31-.75,1.69l-1.69,1.5Z"/>
        <path d="M17.81,270.47l13.5,3.19c1.12-8.62,1.62-17.19,1.5-25.69l16.12,7.5c.75.38,1.12.94,1.12,1.69,0,.88-.31,1.56-.94,2.06l-4.88,3c-2.38,4.25-5.19,8.19-8.44,11.81h7.12l2.81-4.5c.38-.62.94-1,1.69-1.12.62-.12,1.25.06,1.88.56l8.62,6.56c.5.38.75.94.75,1.69,0,.62-.25,1.19-.75,1.69l-1.88,1.88v10.69c7-14.38,10.69-29.62,11.06-45.75l18.19,8.06c.75.25,1.06.75.94,1.5.12.88-.13,1.44-.75,1.69l-2.44,1.31c-1.5,4.88-3.5,9.75-6,14.62h12.94l2.62-4.31c.5-.5,1.06-.81,1.69-.94.62-.12,1.25-.06,1.88.19l10.5,7.31c.62.38.94,1,.94,1.88.12.75-.13,1.38-.75,1.88l-1.88,1.5c1.12,15-.38,29.5-4.5,43.5-.88,2.75-2.25,5.25-4.12,7.5-3.38,3.88-7.69,6.06-12.94,6.56-1.38.12-2.62-.25-3.75-1.12-1.12-.88-1.88-2-2.25-3.38-.25-2.62-1.28-4.84-3.09-6.66-1.81-1.81-3.97-2.97-6.47-3.47,4.5-.25,8.62-.06,12.38.56,1.25.13,2.38-.12,3.38-.75,1-.62,1.69-1.44,2.06-2.44,4.88-13.75,6.31-27.88,4.31-42.38h-16.69c-2,3-4.25,5.69-6.75,8.06,3.5,1.38,6.47,3.47,8.91,6.28s4.03,6.03,4.78,9.66c.38,1.5.28,2.91-.28,4.22s-1.47,2.34-2.72,3.09c-1.25,1-2.69,1.5-4.31,1.5s-3.13-.44-4.5-1.31c-2.38-1.62-3.38-3.94-3-6.94.88-4.88.31-9.44-1.69-13.69-2.5,2.38-5.06,4.38-7.69,6v34.5c-.13,2.12-1.12,3.44-3,3.94l-8.44,1.69c-.75.25-1.44.06-2.06-.56-.5-.38-.81-1-.94-1.88v-3.75h-9.56v3.56c-.13,1.62-.94,2.75-2.44,3.38l-8.44,1.5c-1,.12-1.78-.06-2.34-.56-.56-.5-.91-1.12-1.03-1.88v-64.69ZM32.06,278.91v19.88h9.56v-19.88h-9.56ZM32.06,304.03v20.44h9.56v-20.44h-9.56Z"/>
        <path d="M21.28,355.03h13.88v-12.75l15,3.84c.81.19,1.22.69,1.22,1.5s-.34,1.38-1.03,1.69l-2.53,1.22v4.5h2.16l1.97-3.75c.25-.38.66-.56,1.22-.56.31,0,.69.16,1.12.47l7.5,6.94c.44.31.53.72.28,1.22-.19.5-.53.75-1.03.75h-13.22v5.16h2.16l3.56-3.38c.75-.88,1.53-.88,2.34,0l3.66,3.38,8.25-1.31v-22.59l15.19,4.12c.69.31,1.09.88,1.22,1.69,0,.81-.34,1.38-1.03,1.69l-2.72,1.97v10.69l2.53-.47,2.53-3.66c.69-.62,1.44-.69,2.25-.19l9.56,7.69c.62.75.59,1.47-.09,2.16l-2.91,2.44v24.56c0,.88.41,1.5,1.22,1.88.94.38,1.88.38,2.81,0,.56-.31.94-.72,1.12-1.22l2.72-16.22,1.59,9.94c.38,2.06,1.28,3.97,2.72,5.72.62.94,1.09,1.97,1.41,3.09.25,1.44.03,2.84-.66,4.22-.69,1.38-1.72,2.38-3.09,3-5.44,1.75-10.88,1.81-16.31.19-2.94-1.06-4.47-3.12-4.59-6.19v-8.16c-1.38,1.25-3.06,1.78-5.06,1.59-1.88-.38-3.31-1.41-4.31-3.09-5.44,8.56-13,14.44-22.69,17.62,6.62,4.31,10.09,10.38,10.41,18.19.06,2-.67,3.75-2.2,5.25-1.53,1.5-3.3,2.22-5.3,2.16-2-.06-3.72-.88-5.16-2.44-1.44-1.56-2.09-3.38-1.97-5.44,1.75-7,1.56-13.94-.56-20.81l2.53,1.59c3.94-3,7.19-6.28,9.75-9.84l-27.09,12-.84,2.62c-.31.81-.81,1.31-1.5,1.5-.88.19-1.56.03-2.06-.47l-8.81-12.66,16.78-2.44v-5.16h-9.19l-2.53-3.75c-1.75.69-3.56,1.28-5.44,1.78,4.62-4.75,8.06-10.37,10.31-16.88h-7.5l-3.47-6.56h17.81v-4.97h-11.34l-2.53-5.06ZM38.81,405.94c3,8.06,2.44,15.78-1.69,23.16-2.06,2.56-4.66,3.5-7.78,2.81-1.44-.31-2.67-1.02-3.7-2.11-1.03-1.09-1.7-2.36-2.02-3.8-.5-3.31.59-5.84,3.28-7.59,5.12-3,9.09-7.16,11.91-12.47ZM35.16,385.69v-6.94c-2.94,2.81-6.09,5.12-9.47,6.94h9.47ZM40.22,371.62c-.13.19-.34.55-.66,1.08-.31.53-.53.92-.66,1.17l11.06,4.41c.38.19.62.56.75,1.12,0,.5-.19.88-.56,1.12l-2.34,1.97v3.19h2.62l2.72-4.69c-.38-.5-.59-1-.66-1.5-.81-2.81-2.16-5.44-4.03-7.88h-8.25ZM47.81,390.47v3.19l13.03-1.78c2.75-4.5,4.62-9.12,5.62-13.88-2.38-2.38-5.06-4.5-8.06-6.38h-2.62c2,.81,3.88,2,5.62,3.56,1.44,1.44,1.81,3.16,1.12,5.16-.62,2.06-2,3.19-4.12,3.38l3.19,4.22c.31.5.38,1,.19,1.5-.25.62-.69.97-1.31,1.03h-12.66ZM67.78,369.66l-4.78.94c-.13.38-.41.72-.84,1.03,1.94.13,3.72.41,5.34.84l.28-2.81ZM64.41,405.28c4.37,1.75,8.09,4.34,11.16,7.78,3.06,3.44,5.25,7.41,6.56,11.91.62,2.87-.34,5.19-2.91,6.94-2.5,1.75-5,1.78-7.5.09-2.62-1.63-3.69-3.91-3.19-6.84.75-7.12-.62-13.75-4.12-19.88ZM80.53,367.22c-.13,3.56-.69,6.91-1.69,10.03,1.56.94,3.03,2.12,4.41,3.56v-14.06l-2.72.47ZM80.16,404.53c4.88.62,9.28,2.45,13.22,5.48,3.94,3.03,6.84,6.8,8.72,11.3,1.06,3.25.34,5.97-2.16,8.16-2.5,2.19-5.28,2.56-8.34,1.12-2.94-1.5-4.31-3.94-4.12-7.31-.19-7.12-2.62-13.37-7.31-18.75Z"/>
        <path d="M31.5,478.97l14.81,2.81h32.06l2.62-3c.88-1,1.81-1.16,2.81-.47l10.88,5.81c.62.31.94.75.94,1.31,0,.62-.25,1.12-.75,1.5l-2.25,1.69v13.31c0,1.25-.56,2.03-1.69,2.34l-1.31.28,8.62,7.88c.62.56.81,1.22.56,1.97-.38.81-.94,1.22-1.69,1.22h-28.12v6.75h22.5l4.5-5.16c.62-.56,1.31-.84,2.06-.84s1.37.31,1.88.94l7.31,7.69c.62.56.75,1.2.38,1.92-.38.72-1,1.02-1.88.89H19.88l-2.44-5.44h37.69v-6.75h-24.94l-2.25-5.25h27.19v-5.81h-9.38c-.5.81-1.25,1.44-2.25,1.88l-8.62,1.97c-.75.19-1.5.03-2.25-.47-.62-.38-1-1.03-1.12-1.97v-27ZM30.94,442.03l15.94,2.81h32.44l2.25-3.56c.38-.69.88-1.06,1.5-1.12.75-.19,1.44-.03,2.06.47l10.5,6c.5.31.75.78.75,1.41s-.25,1.12-.75,1.5l-2.62,2.16v14.53c.62-.5,1.25-.75,1.88-.75.75,0,1.37.28,1.88.84l8.25,8.06c.62.69.81,1.38.56,2.06-.38.75-1,1.12-1.88,1.12H22.88l-2.44-4.5h67.5l2.81-4.59-9.56,1.78c-.75.13-1.38,0-1.88-.38-.62-.44-.94-.94-.94-1.5v-.66h-33v1.12c0,1.25-.62,1.94-1.88,2.06l-9.56.75c-.88.13-1.63-.06-2.25-.56-.5-.62-.75-1.31-.75-2.06v-27ZM45.38,450v3.75h33v-3.75h-33ZM45.38,459v4.22h33v-4.22h-33ZM45.75,486.94v3.28h9.38v-3.28h-9.38ZM45.75,495.66v4.03h9.38v-4.03h-9.38ZM69,486.94v3.28h9.38v-3.28h-9.38ZM69,495.66v4.03h9.38v-4.03h-9.38ZM69,504.56v5.81h13.12l3.56-4.88-5.25,1.31c-.5.19-.94.13-1.31-.19-.38-.25-.62-.62-.75-1.12v-.94h-9.38Z"/>
        <path d="M67.78,551.25v15.28H17.81v-29.53h8.72v14.25h41.25Z"/>
      </g>
    </g>
  </g>
</svg>