<?xml version="1.0" encoding="UTF-8"?>
<svg id="_レイヤー_2" data-name="レイヤー 2" xmlns="http://www.w3.org/2000/svg" xmlns:xlink="http://www.w3.org/1999/xlink" viewBox="0 0 505.45 142.67">
  <defs>
    <style>
      .cls-1 {
        fill: url(#_名称未設定グラデーション_120-5);
      }

      .cls-2 {
        fill: url(#_名称未設定グラデーション_120-6);
      }

      .cls-3 {
        fill: url(#_名称未設定グラデーション_120-12);
      }

      .cls-4 {
        fill: #fff;
      }

      .cls-5 {
        fill: url(#_名称未設定グラデーション_120-4);
      }

      .cls-6 {
        fill: url(#_名称未設定グラデーション_120-2);
      }

      .cls-7 {
        fill: url(#_名称未設定グラデーション_120-3);
      }

      .cls-8 {
        fill: url(#_名称未設定グラデーション_120-10);
      }

      .cls-9 {
        fill: url(#_名称未設定グラデーション_120);
      }

      .cls-10 {
        fill: url(#_名称未設定グラデーション_120-11);
      }

      .cls-11 {
        fill: url(#_名称未設定グラデーション_120-9);
      }

      .cls-12 {
        fill: none;
        stroke: #000;
        stroke-width: 6px;
      }

      .cls-13 {
        fill: url(#_名称未設定グラデーション_120-7);
      }

      .cls-14 {
        fill: url(#_名称未設定グラデーション_120-8);
      }
    </style>
    <linearGradient id="_名称未設定グラデーション_120" data-name="名称未設定グラデーション 120" x1="168.04" y1="64.31" x2="168.04" y2="-.05" gradientUnits="userSpaceOnUse">
      <stop offset="0" stop-color="#945700"/>
      <stop offset=".19" stop-color="#e9a900"/>
      <stop offset=".29" stop-color="#f5f8b4"/>
      <stop offset=".4" stop-color="#e9a900"/>
      <stop offset="1" stop-color="#fff87f"/>
    </linearGradient>
    <linearGradient id="_名称未設定グラデーション_120-2" data-name="名称未設定グラデーション 120" x1="220.04" y1="64.36" x2="220.04" y2="0" xlink:href="#_名称未設定グラデーション_120"/>
    <linearGradient id="_名称未設定グラデーション_120-3" data-name="名称未設定グラデーション 120" x1="272.01" y1="64.36" x2="272.01" y2="0" xlink:href="#_名称未設定グラデーション_120"/>
    <linearGradient id="_名称未設定グラデーション_120-4" data-name="名称未設定グラデーション 120" x1="324.04" y1="64.36" x2="324.04" y2="0" xlink:href="#_名称未設定グラデーション_120"/>
    <linearGradient id="_名称未設定グラデーション_120-5" data-name="名称未設定グラデーション 120" x1="19.64" y1="142.67" x2="19.64" y2="57.35" xlink:href="#_名称未設定グラデーション_120"/>
    <linearGradient id="_名称未設定グラデーション_120-6" data-name="名称未設定グラデーション 120" x1="72.97" y1="142.67" x2="72.97" y2="57.35" xlink:href="#_名称未設定グラデーション_120"/>
    <linearGradient id="_名称未設定グラデーション_120-7" data-name="名称未設定グラデーション 120" x1="145.04" y1="142.67" x2="145.04" y2="57.35" xlink:href="#_名称未設定グラデーション_120"/>
    <linearGradient id="_名称未設定グラデーション_120-8" data-name="名称未設定グラデーション 120" x1="217.04" y1="142.67" x2="217.04" y2="57.35" xlink:href="#_名称未設定グラデーション_120"/>
    <linearGradient id="_名称未設定グラデーション_120-9" data-name="名称未設定グラデーション 120" x1="288.9" y1="142.67" x2="288.9" y2="57.35" xlink:href="#_名称未設定グラデーション_120"/>
    <linearGradient id="_名称未設定グラデーション_120-10" data-name="名称未設定グラデーション 120" x1="360.96" y1="142.67" x2="360.96" y2="57.35" xlink:href="#_名称未設定グラデーション_120"/>
    <linearGradient id="_名称未設定グラデーション_120-11" data-name="名称未設定グラデーション 120" x1="432.91" y1="142.67" x2="432.91" y2="57.35" xlink:href="#_名称未設定グラデーション_120"/>
    <linearGradient id="_名称未設定グラデーション_120-12" data-name="名称未設定グラデーション 120" x1="485.98" y1="142.67" x2="485.98" y2="57.35" xlink:href="#_名称未設定グラデーション_120"/>
  </defs>
  <g id="_レイヤー_1-2" data-name="レイヤー 1">
    <g>
      <g>
        <path class="cls-4" d="M182.39,25.63v3.48h-28.7v-3.48c-2.22,1.39-4.71,2.76-7.49,4.11l-3.02-6.6c7.59-3.92,14.14-8.6,19.66-14.04h10.4c5.51,5.44,12.06,10.12,19.66,14.04l-3.02,6.6c-2.77-1.35-5.27-2.72-7.49-4.11ZM145.89,39.1v-6.6h44.3v6.6h-6.5c2.81,5.69,5.15,10.63,7.02,14.82l-7.18,2.39c-.66-1.42-1.32-2.9-1.98-4.42-11.79,1.35-23.05,2.18-33.8,2.5l-.47-6.6c1.59-.07,4.02-.17,7.28-.31,1.46-2.63,2.88-5.42,4.26-8.37h-12.95ZM177.97,22.67c-3.54-2.5-6.85-5.32-9.93-8.48-3.09,3.15-6.4,5.98-9.93,8.48h19.86ZM178.7,45.65c-.59-1.21-1.32-2.76-2.18-4.63l5.56-1.92h-14.61c-1.11,2.5-2.38,5.11-3.8,7.85,5.65-.42,10.66-.85,15.03-1.3Z"/>
        <path class="cls-4" d="M234.03,46.95c3.57,1.11,6.9,2.36,9.98,3.74l-3.69,5.67c-4.89-2.32-10.42-4.46-16.59-6.4l1.46-3.02h-10.3l1.51,2.55c-4.26,2.67-10.04,4.85-17.32,6.55l-3.02-5.88c3.78-.9,7.44-1.98,10.97-3.22h-7.49v-23.97h40.98v23.97h-6.5ZM209.54,21.57h-7.9v-11.91h36.82v11.91h-28.91ZM207.71,30h24.65v-1.92h-24.65v1.92ZM207.71,34.21v1.92h24.65v-1.92h-24.65ZM207.71,40.34v1.98h24.65v-1.98h-24.65ZM209.54,17.36h21.01v-2.03h-21.01v2.03Z"/>
        <path class="cls-4" d="M248.38,16.84h5.04v-7.9h7.18v7.9h4.37v6.66h-4.06c2.67,5.55,4.18,8.68,4.52,9.41v-3.59h11.44v-2.08h-10.19v-5.46h10.19v-1.87h-11.08v-6.19h5.25c-.73-1.39-1.46-2.74-2.18-4.06l6.86-1.66c1.07,1.87,2.1,3.78,3.07,5.72h4.42c1.07-2.01,1.99-3.92,2.76-5.72l7.02,1.4c-.38.94-1.06,2.38-2.03,4.32h4.32v5.98h-10.5v2.08h9.93v5.46h-9.93v2.08h11.02v6.55h-3.12l3.54,4.26c-1.49,1.39-3.09,2.74-4.78,4.06,1.73,1.7,3.54,3.17,5.41,4.42l-4.52,6.19c-2.84-2.32-5.36-5.22-7.54-8.68v.05c0,1.56-.02,2.78-.05,3.67-.04.88-.17,1.72-.39,2.52-.23.8-.49,1.36-.78,1.69-.29.33-.79.62-1.48.86-.69.24-1.43.39-2.21.44-.78.05-1.86.08-3.25.08-.76,0-2.44-.09-5.04-.26l-.31-5.15c-1.7,1.32-3.78,2.77-6.24,4.37l-3.69-6.08c2.43-1.35,4.8-2.86,7.12-4.52-1.59-2.15-2.84-3.76-3.74-4.84l4.21-3.07h-3.12l-3.17,4.47c-.45-1.18-1.13-2.88-2.03-5.1v20.28h-7.18v-16.22c-.9,2.67-1.99,4.98-3.28,6.92l-2.96-7.96c2.98-4.64,4.97-9.57,5.98-14.77h-4.78v-6.66ZM273.5,39.88c.21-.17.49-.42.86-.75.36-.33.63-.56.81-.7l1.72,2.81v-5.36h-6.5c.87,1.08,1.91,2.41,3.12,4ZM276.88,45.18c-1.04,1.01-2.44,2.24-4.21,3.69,1.25.1,2.13.16,2.65.16.73,0,1.17-.1,1.33-.29.16-.19.23-.79.23-1.79v-1.77ZM287.02,39.25c1.35-.97,2.76-2.1,4.21-3.38h-6.45c.8,1.32,1.54,2.44,2.24,3.38Z"/>
        <path class="cls-4" d="M327.21,45.23c7.28-1.84,10.92-6.17,10.92-13,0-2.84-.79-5.24-2.37-7.2-1.58-1.96-3.72-3.25-6.42-3.87-2.74,19-8.32,28.5-16.74,28.5-2.81,0-5.35-1.41-7.62-4.24-2.27-2.83-3.41-6.32-3.41-10.48,0-6.41,2.18-11.6,6.55-15.57,4.37-3.97,10.23-5.95,17.58-5.95,6.14,0,11.14,1.75,15,5.25,3.87,3.5,5.8,8.03,5.8,13.57s-1.47,9.74-4.42,13.21-7.11,5.77-12.48,6.92l-2.39-7.12ZM320.92,21.21c-3.57.76-6.35,2.31-8.35,4.65-1.99,2.34-2.99,5.21-2.99,8.61,0,2.01.35,3.68,1.04,5.02.69,1.33,1.42,2,2.18,2,.62,0,1.26-.35,1.92-1.04.66-.69,1.34-1.79,2.05-3.28.71-1.49,1.42-3.6,2.13-6.32.71-2.72,1.38-5.94,2-9.65Z"/>
      </g>
      <g>
        <path class="cls-9" d="M183.54,64.31c-2.75,0-5.37-1.43-6.84-3.85-9.92,1.01-19.55,1.65-28.71,1.92-.08,0-.16,0-.24,0-4.18,0-7.68-3.24-7.98-7.43l-.47-6.6c-.09-1.33.15-2.65.68-3.84-1.31-1.42-2.11-3.32-2.11-5.41v-6.6c0-.49.04-.96.13-1.42l-2.11-4.61c-1.77-3.88-.19-8.48,3.61-10.43,6.84-3.53,12.79-7.78,17.7-12.62,1.5-1.48,3.52-2.31,5.62-2.31h10.4c2.1,0,4.12.83,5.62,2.31,4.91,4.85,10.86,9.09,17.7,12.62,3.79,1.96,5.38,6.55,3.61,10.43l-2.11,4.61c.08.46.13.94.13,1.42v6.6c0,2.39-1.05,4.54-2.72,6.01.93,1.98,1.78,3.83,2.54,5.55.92,2.06.93,4.42.02,6.48s-2.65,3.65-4.79,4.37l-7.18,2.39c-.84.28-1.69.41-2.53.41Z"/>
        <path class="cls-6" d="M240.31,64.36c-1.16,0-2.33-.25-3.43-.78-4.53-2.15-9.76-4.17-15.55-5.99-.58-.18-1.13-.43-1.65-.73-4.91,2.89-11.07,5.18-18.78,6.98-.61.14-1.22.21-1.82.21-2.95,0-5.72-1.64-7.12-4.35l-3.02-5.88c-1.12-2.19-1.18-4.77-.15-7,.61-1.33,1.57-2.45,2.75-3.26v-20.59c0-2.07.79-3.96,2.08-5.38v-7.93c0-4.42,3.58-8,8-8h36.82c4.42,0,8,3.58,8,8v7.93c1.29,1.42,2.08,3.31,2.08,5.38v21.11c1.51,1.03,2.64,2.57,3.16,4.35.66,2.24.3,4.66-.97,6.62l-3.69,5.67c-1.52,2.33-4.08,3.63-6.71,3.63Z"/>
        <path class="cls-7" d="M253.42,63.53c-4.42,0-8-3.58-8-8v-2.85c-1.24-.91-2.22-2.17-2.77-3.66l-2.96-7.96c-.88-2.36-.6-5,.76-7.11.95-1.49,1.79-3.01,2.49-4.58-1.58-1.46-2.57-3.55-2.57-5.87v-6.66c0-3.37,2.09-6.26,5.04-7.44v-.47c0-4.42,3.58-8,8-8h7.18c1.77,0,3.41.58,4.73,1.55.52-.26,1.07-.46,1.65-.6l6.86-1.66c.63-.15,1.26-.23,1.89-.23,1.88,0,3.69.66,5.12,1.86,1.42-1.18,3.23-1.86,5.12-1.86.52,0,1.05.05,1.57.16l7.02,1.4c2.34.47,4.35,1.96,5.48,4.06.4.75.68,1.55.83,2.37,1.49,1.45,2.41,3.48,2.41,5.73v5.98c0,1.05-.2,2.06-.57,2.98v2.6c.69,1.19,1.09,2.57,1.09,4.04v6.55c0,.47-.04.93-.12,1.38.83,2.16.69,4.58-.39,6.62.72.98,1.21,2.12,1.43,3.34.38,2.15-.13,4.36-1.42,6.12l-4.52,6.19c-1.3,1.77-3.26,2.93-5.44,3.21-.34.04-.68.06-1.01.06-1.76,0-3.47-.58-4.88-1.66-.81.52-1.72.96-2.72,1.31-1.38.48-2.83.78-4.33.88-.95.06-2.19.1-3.78.1-.65,0-1.88-.03-5.57-.28-1.32-.09-2.54-.49-3.61-1.14-.78.25-1.59.37-2.41.37-.1,0-.19,0-.29,0-1.21.73-2.62,1.15-4.13,1.15h-7.18Z"/>
        <path class="cls-5" d="M329.6,60.36c-3.32,0-6.37-2.07-7.52-5.29-2.81,1.72-5.97,2.59-9.48,2.59-3.67,0-9.06-1.25-13.86-7.23-3.43-4.26-5.17-9.48-5.17-15.49,0-8.61,3.17-16.04,9.17-21.49,5.87-5.33,13.59-8.03,22.96-8.03,8.15,0,15.01,2.46,20.37,7.32,5.51,5,8.43,11.74,8.43,19.5,0,7.26-2.13,13.45-6.32,18.39-4.1,4.83-9.79,8.04-16.91,9.56-.56.12-1.12.18-1.67.18Z"/>
      </g>
      <g>
        <path class="cls-12" d="M182.39,25.63v3.48h-28.7v-3.48c-2.22,1.39-4.71,2.76-7.49,4.11l-3.02-6.6c7.59-3.92,14.14-8.6,19.66-14.04h10.4c5.51,5.44,12.06,10.12,19.66,14.04l-3.02,6.6c-2.77-1.35-5.27-2.72-7.49-4.11ZM145.89,39.1v-6.6h44.3v6.6h-6.5c2.81,5.69,5.15,10.63,7.02,14.82l-7.18,2.39c-.66-1.42-1.32-2.9-1.98-4.42-11.79,1.35-23.05,2.18-33.8,2.5l-.47-6.6c1.59-.07,4.02-.17,7.28-.31,1.46-2.63,2.88-5.42,4.26-8.37h-12.95ZM177.97,22.67c-3.54-2.5-6.85-5.32-9.93-8.48-3.09,3.15-6.4,5.98-9.93,8.48h19.86ZM178.7,45.65c-.59-1.21-1.32-2.76-2.18-4.63l5.56-1.92h-14.61c-1.11,2.5-2.38,5.11-3.8,7.85,5.65-.42,10.66-.85,15.03-1.3Z"/>
        <path class="cls-12" d="M234.03,46.95c3.57,1.11,6.9,2.36,9.98,3.74l-3.69,5.67c-4.89-2.32-10.42-4.46-16.59-6.4l1.46-3.02h-10.3l1.51,2.55c-4.26,2.67-10.04,4.85-17.32,6.55l-3.02-5.88c3.78-.9,7.44-1.98,10.97-3.22h-7.49v-23.97h40.98v23.97h-6.5ZM209.54,21.57h-7.9v-11.91h36.82v11.91h-28.91ZM207.71,30h24.65v-1.92h-24.65v1.92ZM207.71,34.21v1.92h24.65v-1.92h-24.65ZM207.71,40.34v1.98h24.65v-1.98h-24.65ZM209.54,17.36h21.01v-2.03h-21.01v2.03Z"/>
        <path class="cls-12" d="M248.38,16.84h5.04v-7.9h7.18v7.9h4.37v6.66h-4.06c2.67,5.55,4.18,8.68,4.52,9.41v-3.59h11.44v-2.08h-10.19v-5.46h10.19v-1.87h-11.08v-6.19h5.25c-.73-1.39-1.46-2.74-2.18-4.06l6.86-1.66c1.07,1.87,2.1,3.78,3.07,5.72h4.42c1.07-2.01,1.99-3.92,2.76-5.72l7.02,1.4c-.38.94-1.06,2.38-2.03,4.32h4.32v5.98h-10.5v2.08h9.93v5.46h-9.93v2.08h11.02v6.55h-3.12l3.54,4.26c-1.49,1.39-3.09,2.74-4.78,4.06,1.73,1.7,3.54,3.17,5.41,4.42l-4.52,6.19c-2.84-2.32-5.36-5.22-7.54-8.68v.05c0,1.56-.02,2.78-.05,3.67-.04.88-.17,1.72-.39,2.52-.23.8-.49,1.36-.78,1.69-.29.33-.79.62-1.48.86-.69.24-1.43.39-2.21.44-.78.05-1.86.08-3.25.08-.76,0-2.44-.09-5.04-.26l-.31-5.15c-1.7,1.32-3.78,2.77-6.24,4.37l-3.69-6.08c2.43-1.35,4.8-2.86,7.12-4.52-1.59-2.15-2.84-3.76-3.74-4.84l4.21-3.07h-3.12l-3.17,4.47c-.45-1.18-1.13-2.88-2.03-5.1v20.28h-7.18v-16.22c-.9,2.67-1.99,4.98-3.28,6.92l-2.96-7.96c2.98-4.64,4.97-9.57,5.98-14.77h-4.78v-6.66ZM273.5,39.88c.21-.17.49-.42.86-.75.36-.33.63-.56.81-.7l1.72,2.81v-5.36h-6.5c.87,1.08,1.91,2.41,3.12,4ZM276.88,45.18c-1.04,1.01-2.44,2.24-4.21,3.69,1.25.1,2.13.16,2.65.16.73,0,1.17-.1,1.33-.29.16-.19.23-.79.23-1.79v-1.77ZM287.02,39.25c1.35-.97,2.76-2.1,4.21-3.38h-6.45c.8,1.32,1.54,2.44,2.24,3.38Z"/>
        <path class="cls-12" d="M327.21,45.23c7.28-1.84,10.92-6.17,10.92-13,0-2.84-.79-5.24-2.37-7.2-1.58-1.96-3.72-3.25-6.42-3.87-2.74,19-8.32,28.5-16.74,28.5-2.81,0-5.35-1.41-7.62-4.24-2.27-2.83-3.41-6.32-3.41-10.48,0-6.41,2.18-11.6,6.55-15.57,4.37-3.97,10.23-5.95,17.58-5.95,6.14,0,11.14,1.75,15,5.25,3.87,3.5,5.8,8.03,5.8,13.57s-1.47,9.74-4.42,13.21-7.11,5.77-12.48,6.92l-2.39-7.12ZM320.92,21.21c-3.57.76-6.35,2.31-8.35,4.65-1.99,2.34-2.99,5.21-2.99,8.61,0,2.01.35,3.68,1.04,5.02.69,1.33,1.42,2,2.18,2,.62,0,1.26-.35,1.92-1.04.66-.69,1.34-1.79,2.05-3.28.71-1.49,1.42-3.6,2.13-6.32.71-2.72,1.38-5.94,2-9.65Z"/>
      </g>
      <g>
        <path class="cls-4" d="M182.39,25.63v3.48h-28.7v-3.48c-2.22,1.39-4.71,2.76-7.49,4.11l-3.02-6.6c7.59-3.92,14.14-8.6,19.66-14.04h10.4c5.51,5.44,12.06,10.12,19.66,14.04l-3.02,6.6c-2.77-1.35-5.27-2.72-7.49-4.11ZM145.89,39.1v-6.6h44.3v6.6h-6.5c2.81,5.69,5.15,10.63,7.02,14.82l-7.18,2.39c-.66-1.42-1.32-2.9-1.98-4.42-11.79,1.35-23.05,2.18-33.8,2.5l-.47-6.6c1.59-.07,4.02-.17,7.28-.31,1.46-2.63,2.88-5.42,4.26-8.37h-12.95ZM177.97,22.67c-3.54-2.5-6.85-5.32-9.93-8.48-3.09,3.15-6.4,5.98-9.93,8.48h19.86ZM178.7,45.65c-.59-1.21-1.32-2.76-2.18-4.63l5.56-1.92h-14.61c-1.11,2.5-2.38,5.11-3.8,7.85,5.65-.42,10.66-.85,15.03-1.3Z"/>
        <path class="cls-4" d="M234.03,46.95c3.57,1.11,6.9,2.36,9.98,3.74l-3.69,5.67c-4.89-2.32-10.42-4.46-16.59-6.4l1.46-3.02h-10.3l1.51,2.55c-4.26,2.67-10.04,4.85-17.32,6.55l-3.02-5.88c3.78-.9,7.44-1.98,10.97-3.22h-7.49v-23.97h40.98v23.97h-6.5ZM209.54,21.57h-7.9v-11.91h36.82v11.91h-28.91ZM207.71,30h24.65v-1.92h-24.65v1.92ZM207.71,34.21v1.92h24.65v-1.92h-24.65ZM207.71,40.34v1.98h24.65v-1.98h-24.65ZM209.54,17.36h21.01v-2.03h-21.01v2.03Z"/>
        <path class="cls-4" d="M248.38,16.84h5.04v-7.9h7.18v7.9h4.37v6.66h-4.06c2.67,5.55,4.18,8.68,4.52,9.41v-3.59h11.44v-2.08h-10.19v-5.46h10.19v-1.87h-11.08v-6.19h5.25c-.73-1.39-1.46-2.74-2.18-4.06l6.86-1.66c1.07,1.87,2.1,3.78,3.07,5.72h4.42c1.07-2.01,1.99-3.92,2.76-5.72l7.02,1.4c-.38.94-1.06,2.38-2.03,4.32h4.32v5.98h-10.5v2.08h9.93v5.46h-9.93v2.08h11.02v6.55h-3.12l3.54,4.26c-1.49,1.39-3.09,2.74-4.78,4.06,1.73,1.7,3.54,3.17,5.41,4.42l-4.52,6.19c-2.84-2.32-5.36-5.22-7.54-8.68v.05c0,1.56-.02,2.78-.05,3.67-.04.88-.17,1.72-.39,2.52-.23.8-.49,1.36-.78,1.69-.29.33-.79.62-1.48.86-.69.24-1.43.39-2.21.44-.78.05-1.86.08-3.25.08-.76,0-2.44-.09-5.04-.26l-.31-5.15c-1.7,1.32-3.78,2.77-6.24,4.37l-3.69-6.08c2.43-1.35,4.8-2.86,7.12-4.52-1.59-2.15-2.84-3.76-3.74-4.84l4.21-3.07h-3.12l-3.17,4.47c-.45-1.18-1.13-2.88-2.03-5.1v20.28h-7.18v-16.22c-.9,2.67-1.99,4.98-3.28,6.92l-2.96-7.96c2.98-4.64,4.97-9.57,5.98-14.77h-4.78v-6.66ZM273.5,39.88c.21-.17.49-.42.86-.75.36-.33.63-.56.81-.7l1.72,2.81v-5.36h-6.5c.87,1.08,1.91,2.41,3.12,4ZM276.88,45.18c-1.04,1.01-2.44,2.24-4.21,3.69,1.25.1,2.13.16,2.65.16.73,0,1.17-.1,1.33-.29.16-.19.23-.79.23-1.79v-1.77ZM287.02,39.25c1.35-.97,2.76-2.1,4.21-3.38h-6.45c.8,1.32,1.54,2.44,2.24,3.38Z"/>
        <path class="cls-4" d="M327.21,45.23c7.28-1.84,10.92-6.17,10.92-13,0-2.84-.79-5.24-2.37-7.2-1.58-1.96-3.72-3.25-6.42-3.87-2.74,19-8.32,28.5-16.74,28.5-2.81,0-5.35-1.41-7.62-4.24-2.27-2.83-3.41-6.32-3.41-10.48,0-6.41,2.18-11.6,6.55-15.57,4.37-3.97,10.23-5.95,17.58-5.95,6.14,0,11.14,1.75,15,5.25,3.87,3.5,5.8,8.03,5.8,13.57s-1.47,9.74-4.42,13.21-7.11,5.77-12.48,6.92l-2.39-7.12ZM320.92,21.21c-3.57.76-6.35,2.31-8.35,4.65-1.99,2.34-2.99,5.21-2.99,8.61,0,2.01.35,3.68,1.04,5.02.69,1.33,1.42,2,2.18,2,.62,0,1.26-.35,1.92-1.04.66-.69,1.34-1.79,2.05-3.28.71-1.49,1.42-3.6,2.13-6.32.71-2.72,1.38-5.94,2-9.65Z"/>
      </g>
    </g>
    <g>
      <g>
        <path class="cls-4" d="M8,68.66h23.27v6.12h-10.69v31.99h-12.59v-38.11Z"/>
        <path class="cls-4" d="M39.85,81.45c8.72-3.09,16.59-7.57,23.62-13.43l8.79,7.45c.56.42.73.94.49,1.55-.24.75-.7,1.12-1.41,1.12l-1.9-.42c-3.33.94-5.86,1.59-7.59,1.97v10.76h1.62l2.32-4.43c.23-.47.61-.7,1.12-.7s.89.24,1.12.7l5.77,6.33c.28.28.35.64.21,1.09-.14.45-.42.67-.84.67h-11.32v2.53c2.58,0,4.96.63,7.14,1.9s3.9,3,5.17,5.2c.84,1.45.94,2.93.28,4.43-.61,1.41-1.69,2.37-3.23,2.88-1.5.52-2.95.26-4.36-.77-1.41-1.03-2.06-2.37-1.97-4.01-.24-2.67-1.24-5.02-3.02-7.03v31.57c0,1.12-.52,1.87-1.55,2.25l-5.48,1.2c-.47.05-.98-.05-1.55-.28-.47-.38-.73-.8-.77-1.27v-20.95c-3.47,4.88-8.04,8.34-13.71,10.41,6.7-8.16,10.83-17.51,12.38-28.05h-9.21l-1.9-3.66h12.45v-9.35c-4.17.38-8.39.49-12.66.35ZM76.84,71.54l12.3,3.02c.7.09,1.1.49,1.2,1.2.09.7-.19,1.17-.84,1.41l-2.25,1.62v35.65c0,1.03-.54,1.83-1.62,2.39l-6.12,1.97c-.61.24-1.17.17-1.69-.21-.61-.28-.94-.73-.98-1.34v-45.7ZM93.64,65.56l12.3,3.38c.7.24,1.1.7,1.2,1.41.09.75-.19,1.34-.84,1.76l-2.32,1.41v51.26c-.05,2.34-.86,4.42-2.43,6.22-1.57,1.8-3.5,2.89-5.8,3.27-.89.23-1.77.15-2.64-.25-.87-.4-1.47-1-1.79-1.79-2.34-4.36-5.86-7.17-10.55-8.44,3.47.09,6.8.42,9.98.98.75.14,1.43,0,2.04-.42.56-.56.84-1.2.84-1.9v-56.88Z"/>
        <path class="cls-4" d="M113.68,84.2h19.55c-1.22-.94-1.92-2.18-2.11-3.73-.09-1.03-.28-2.01-.56-2.95-.94-3.66-2.77-6.84-5.48-9.56,4.59.24,8.67,1.71,12.23,4.43l2.39,1.76c.75.66,1.41,1.43,1.97,2.32.66,1.36.8,2.77.42,4.22-.38,1.45-1.17,2.63-2.39,3.52h9c2.34-5.58,4.08-11.37,5.2-17.37l11.53,7.59c.56.28.75.73.56,1.34,0,.56-.33.89-.98.98l-2.25.28-9.7,7.17h10.27l4.08-5.27c.37-.33.8-.54,1.27-.63.37-.09.75.02,1.12.35l7.03,6.61c.47.42.56.94.28,1.55-.19.61-.61.96-1.27,1.05h-22.92c3.56,4.17,7.73,7.51,12.52,10.02,4.78,2.51,9.94,4.04,15.47,4.61-3.84,2.3-7.13,5.23-9.84,8.79l-2.11-.98-1.55,1.41v17.02l3.23-3.52c.28-.28.63-.42,1.05-.42s.77.17,1.05.49l6.05,6.19c.28.28.37.68.28,1.2-.19.38-.52.61-.98.7h-63.98l-2.25-3.73h8.72v-20.6c-3.66,1.55-7.45,2.65-11.39,3.3,9.66-6.19,17.16-14.34,22.5-24.47h-16.17l-1.83-3.66ZM138.29,87.85l5.34,3.59c.47.42.66.94.56,1.55-.28.56-.7.91-1.27,1.05l-1.97.07c-3.84,4.36-8.16,8.04-12.94,11.04l2.81,1.05h26.86l1.83-2.18c-4.88-4.5-8.2-9.89-9.98-16.17h-11.25ZM130.98,109.86v19.76h2.67v-19.76h-2.67ZM142.65,109.86v19.76h2.81v-19.76h-2.81ZM154.18,109.86v19.76h2.67v-19.76h-2.67Z"/>
        <path class="cls-4" d="M185.12,70.06c4.12,2.86,7.64,6.23,10.55,10.12,2.44-4.22,4.41-8.62,5.91-13.22l8.02,6.82h5.34v-8.16l10.69,2.81c.56.14.89.49.98,1.05.09.56-.09.98-.56,1.27l-1.69,1.05v1.97h4.5v-8.16l10.41,2.67c.66.24,1.03.67,1.12,1.3.09.63-.19,1.11-.84,1.44l-1.41.56v2.18h2.11l2.11-3.45c.28-.47.7-.7,1.27-.7.47,0,.84.21,1.12.63l4.64,4.71c.37.33.47.73.28,1.2-.19.52-.47.77-.84.77h-10.69v1.12c0,.8-.33,1.36-.98,1.69l-2.39.91,2.39,1.05c.56.24.84.69.84,1.37s-.33,1.09-.98,1.23l-3.23,1.05h5.2l2.39-3.45c.28-.42.68-.63,1.2-.63s.91.17,1.2.49l4.78,4.85c.37.38.52.82.42,1.34-.19.47-.56.77-1.12.91h-5.06l3.38,3.73c.28.33.35.7.21,1.12s-.49.63-1.05.63h-3.09l4.08,4.01c.28.42.37.8.28,1.12-.09.38-.38.61-.84.7h-.56l3.94,3.66c.37.28.47.7.28,1.27-.19.47-.52.7-.98.7h-28.27c.09.89-.28,1.41-1.12,1.55l-7.17.91c-.47.09-.89-.06-1.27-.46-.38-.4-.56-.83-.56-1.3v-11.46l-5.62,3.02c2.34,9.7,1.73,19.22-1.83,28.55-.84,2.3-2.3,4.1-4.36,5.41-1.88,1.12-3.75,1.83-5.62,2.11-.75.09-1.45-.05-2.11-.42-.66-.38-1.08-.89-1.27-1.55-1.31-3.28-3.42-5.88-6.33-7.8,1.97.24,3.94.73,5.91,1.48.94.33,1.87.24,2.81-.28.94-.52,1.59-1.24,1.97-2.18,1.5-5.06,2.39-10.17,2.67-15.33-4.13,4.08-8.77,7.38-13.92,9.91,5.72-7.64,9.89-15.98,12.52-25.03l-.7-2.46c-3.19,2.3-6.56,4.15-10.12,5.55,3.09-3.38,5.95-6.96,8.58-10.76-1.88-5.53-4.36-10.62-7.45-15.26ZM207.2,108.88h26.3l1.41-1.41c.75-.89,1.69-.96,2.81-.21l6.19,5.48c.47.42.66.98.56,1.69-.28.61-.7.98-1.27,1.12l-2.11.28c-2.16,2.77-4.74,5.27-7.73,7.52,5.81,2.44,11.95,3.59,18.42,3.45-4.59,1.78-8.53,4.31-11.81,7.59-4.97-1.36-9.47-3.59-13.5-6.68-8.53,4.55-17.72,6.56-27.56,6.05,8.25-2.16,15.56-5.88,21.94-11.18-2.81-2.95-5.06-6.42-6.75-10.41h-5.91l-.98-3.3ZM210.15,76.95c-.09.52-.47.73-1.12.63l-1.55-.28c-2.25,3.28-4.88,6.23-7.87,8.86,1.78,3.23,3.23,6.7,4.36,10.41,4.22-5.77,7.08-12.14,8.58-19.12l2.39,1.05v-1.55h-4.78ZM217.18,112.18c2.25,2.49,4.87,4.74,7.88,6.75,2.34-2.25,4.31-4.5,5.91-6.75h-13.78ZM220.13,88.91v2.32h6.05v-2.32h-6.05ZM220.13,94.39v2.18h6.05v-2.18h-6.05ZM220.13,100.23v2.11h6.05v-2.11h-6.05ZM224.35,78.71c.09.98-.33,1.69-1.27,2.11l-1.69.49,2.39,1.05c.28.19.42.49.42.91,0,.33-.14.63-.42.91l-1.83,1.2h2.53l3.8-7.31.56.21v-1.34h-4.5v1.76ZM238.7,91.23l1.41-2.32h-4.36v2.32h2.95ZM238.7,96.57l1.41-2.18h-4.36v2.18h2.95ZM240.95,102.34l1.27-2.11h-6.47v2.11h5.2Z"/>
        <path class="cls-4" d="M292.7,70.2h12.52l1.97-2.95c.28-.38.68-.61,1.2-.7.52-.09,1.01,0,1.48.28l6.89,4.08c.38.47.56.98.56,1.55s-.24,1.03-.7,1.41l-1.27,1.12v16.45c-.09.66-.33,1.17-.7,1.55l6.75,4.36c.38.47.47.98.28,1.55-.19.66-.56,1.03-1.12,1.12h-10.83l3.09,1.41c.38.38.56.8.56,1.27s-.24.84-.7,1.12l-1.83,1.12v2.25h1.97l3.23-3.8c.28-.38.66-.56,1.12-.56s.89.14,1.27.42l4.64,5.48c.38.47.38.94,0,1.41-.19.56-.56.84-1.12.84h-11.11v14.91c-.09,1.5-.59,2.91-1.48,4.22-.89,1.31-2.04,2.25-3.45,2.81-2.06.75-4.17.89-6.33.42-1.88-.38-3.28-1.31-4.22-2.81-1.69-2.63-4.03-4.17-7.03-4.64,3.66.09,6.89.09,9.7,0,.56-.19,1.05-.52,1.48-.98.42-.47.63-.98.63-1.55v-12.38h-14.62c2.34,1.59,4.26,3.47,5.77,5.62,1.03,1.31,1.36,2.81.98,4.5-.38,1.69-1.31,2.91-2.81,3.66-1.5.84-3,.98-4.5.42-1.5-.66-2.53-1.73-3.09-3.23-.56-1.5-.52-2.91.14-4.22,1.22-2.44.89-4.69-.98-6.75h-5.77l-1.41-2.25v20.67c0,1.12-.52,1.92-1.55,2.39l-6.47,1.55c-.56.09-1.03,0-1.41-.28-.38-.38-.56-.84-.56-1.41v-27.28c-2.91,1.78-6.05,3.28-9.42,4.5,7.03-8.53,12.94-17.76,17.72-27.7l8.3,6.33c.19.38.28.8.28,1.27-.19.47-.47.84-.84,1.12l-1.97.7c-1.59,2.44-3.33,4.64-5.2,6.61l1.55.84c.84.75.98,1.55.42,2.39l-.84,1.12v5.62h26.3v-7.17h-20.67l-2.11-3.66h32.77l1.55-2.53h-5.77c-.94-.09-1.5-.61-1.69-1.55v-.84h-11.53v.84c-.09.84-.56,1.31-1.41,1.41h-7.88c-.94-.09-1.45-.61-1.55-1.55v-24.75l10.83,2.81ZM272.3,66.13l8.02,7.73c.28.47.38.98.28,1.55-.28.47-.66.8-1.12.98l-2.39.14c-6.28,4.88-13.27,8.48-20.95,10.83,6.56-6.19,11.95-13.26,16.17-21.23ZM292.7,73.72v5.06h11.53v-5.06h-11.53ZM292.7,82.58v4.92h11.53v-4.92h-11.53Z"/>
        <path class="cls-4" d="M339.52,65.35l12.02,5.34c.61.33.87.82.77,1.48-.09.66-.42,1.05-.98,1.2l-1.76.63-1.05,2.18h7.17l2.67-3.87c.33-.42.77-.68,1.34-.77.47-.09.91.09,1.34.56l4.57,4.92c1.31-3.7,2.16-7.45,2.53-11.25l10.69,5.27c.52.24.73.68.63,1.34-.09.56-.42.89-.98.98l-1.48.14-1.83,2.67h8.44l2.6-4.29c.33-.42.73-.66,1.2-.7.47-.05.89.12,1.27.49l5.13,5.48c.38.38.49.91.35,1.62-.24.56-.63.91-1.2,1.05h-14.98c2.3.94,3.59,2.65,3.87,5.13l8.44,4.36c.42.24.68.66.77,1.27,0,.56-.21.96-.63,1.2l-1.05.7v7.66c0,1.22-.54,2.02-1.62,2.39l-6.75,1.41c-.56.14-1.05.07-1.48-.21-.38-.28-.61-.68-.7-1.2v-2.6h-9.84v7.03h14.41l1.76-1.69c.28-.42.67-.67,1.16-.74s.92.04,1.3.32l6.33,5.06c.38.42.49.89.35,1.41-.09.56-.38.94-.84,1.12l-.84.49c.38,6.05-.56,11.86-2.81,17.44-.61,1.41-1.55,2.45-2.81,3.13-1.27.68-2.65.92-4.15.74-1.64-.47-2.63-1.57-2.95-3.3-.14-1.97-1.03-3.38-2.67-4.22l-7.38-4.08c2.81.84,5.65,1.2,8.51,1.05,1.55.09,2.65-.61,3.3-2.11.84-3.47,1.12-7.05.84-10.76h-13.5v19.9c0,1.22-.61,1.99-1.83,2.32l-6.82,1.55c-.66.14-1.2.05-1.62-.28-.47-.38-.7-.84-.7-1.41v-12.52c-9.52,5.2-19.66,8.72-30.45,10.55,10.27-4.26,18.54-10.97,24.82-20.11h-8.65l-.35,1.62c-.47,1.31-1.36,1.97-2.67,1.97l-6.68.14c-.56.09-1.1-.09-1.62-.56-.38-.52-.49-1.05-.35-1.62l4.29-18.07,7.88,2.46h13.78v-4.43h-19.34l-1.62-2.46c-2.58,2.25-5.58,4.2-9,5.84,7.27-8.72,11.08-18.84,11.46-30.38ZM346.2,79.84c-2.16,3.14-4.67,6.02-7.52,8.65h14.7c-1.31-.61-2.04-1.66-2.18-3.16-.24-2.11-1.01-3.94-2.32-5.48h-2.67ZM346.41,100.16l-1.55,6.82h13.15v-6.82h-11.6ZM354.36,79.84c1.78.56,3.12,1.73,4.01,3.52.38,1.12.3,2.16-.21,3.09-.52,1.03-1.34,1.71-2.46,2.04h4.15c1.97-2.86,3.52-5.74,4.64-8.65h-10.12ZM372.64,79.2c-2.95,3.47-6.42,6.56-10.41,9.28h14.77c-1.5-.56-2.25-1.66-2.25-3.3-.14-2.16-.84-4.15-2.11-5.98ZM368.98,92.35v4.43h9.84v-4.43h-9.84Z"/>
        <path class="cls-4" d="M398.38,101.77h53.93l5.27-6.54c.19-.28.52-.42.98-.42.33,0,.66.12.98.35l7.59,8.37c.38.33.42.7.14,1.12-.14.47-.47.7-.98.7h-65.74l-2.18-3.59Z"/>
        <path class="cls-4" d="M485,94.95h12.45v37.76h-22.92v-5.84h10.48v-31.92Z"/>
      </g>
      <g>
        <path class="cls-1" d="M8,114.77c-4.42,0-8-3.58-8-8v-38.11c0-4.42,3.58-8,8-8h23.27c4.42,0,8,3.58,8,8v6.12c0,4.42-3.58,8-8,8h-2.69v23.99c0,4.42-3.58,8-8,8h-12.59Z"/>
        <path class="cls-2" d="M94.77,142.39c-1.71,0-3.39-.37-4.99-1.1-2.55-1.17-4.48-3.06-5.63-5.5-1.29-2.29-2.98-3.61-5.46-4.28-3.16-.85-5.4-3.5-5.84-6.6-1.28-.91-2.3-2.09-2.99-3.45v9.36c0,4.49-2.61,8.23-6.8,9.77-.34.12-.69.22-1.04.3l-5.48,1.2c-.31.07-.61.12-.92.15-.33.03-.67.05-1.02.05-1.47,0-2.94-.31-4.39-.91-.69-.29-1.34-.67-1.93-1.14-2.15-1.72-3.48-4.11-3.73-6.73-.03-.26-.04-.52-.04-.78v-4.25c-.97.44-1.96.85-2.98,1.22-.9.33-1.82.48-2.73.48-2.54,0-5-1.21-6.53-3.38-2.08-2.94-1.94-6.92.35-9.7,3.79-4.62,6.6-9.58,8.46-15.02-2.63-.29-4.97-1.88-6.21-4.26l-1.9-3.66c-1.29-2.48-1.19-5.45.26-7.84.04-.06.08-.13.12-.19-.71-.99-1.2-2.16-1.4-3.43-.59-3.8,1.61-7.48,5.23-8.77,7.79-2.76,14.91-6.81,21.18-12.04,1.48-1.24,3.3-1.85,5.12-1.85s3.68.63,5.17,1.9l3.61,3.06c1.35-.94,2.95-1.44,4.58-1.44.64,0,1.28.08,1.91.23l6.9,1.69c.03-2.46,1.19-4.77,3.15-6.26,1.41-1.07,3.12-1.64,4.85-1.64.71,0,1.42.09,2.12.29l12.3,3.38c.14.04.28.08.42.13,3.62,1.21,6.08,4.17,6.58,7.92.41,3.33-.73,6.39-3.09,8.52,0,0,0,47.08,0,47.13-.08,4.2-1.6,8.11-4.39,11.31-2.71,3.11-6.24,5.13-10.22,5.86-.86.19-1.73.29-2.6.29Z"/>
        <path class="cls-13" d="M114.1,141.34c-2.8,0-5.4-1.47-6.85-3.87l-2.25-3.73c-1.49-2.47-1.54-5.55-.12-8.07,1.42-2.51,4.08-4.07,6.97-4.07h.72v-1.79c-.69.14-1.38.27-2.08.38-.44.07-.88.11-1.32.11-3.26,0-6.26-2-7.46-5.13-1.36-3.54-.05-7.56,3.15-9.61,4.33-2.77,8.19-6.03,11.55-9.73h-.9c-3.03,0-5.8-1.71-7.16-4.42l-1.83-3.66c-1.24-2.48-1.11-5.43.35-7.78s4.03-3.79,6.81-3.79h7.76c-.55-.92-1.22-1.78-2.03-2.59-2.34-2.34-3-5.88-1.65-8.91,1.29-2.9,4.16-4.75,7.31-4.75.14,0,.27,0,.41.01,6.19.32,11.78,2.34,16.62,6.01l2.34,1.72c.19.14.36.28.54.43.14.12.27.24.41.37.24-1.04.46-2.09.66-3.14.49-2.63,2.27-4.84,4.74-5.89,1-.43,2.07-.64,3.13-.64,1.54,0,3.07.45,4.4,1.32l11.29,7.44c1.55.91,2.74,2.2,3.5,3.69.68.35,1.34.8,1.94,1.33.08.07.15.14.23.21l6.99,6.58c2.89,2.67,3.77,6.65,2.3,10.29-.74,2-2.1,3.63-3.84,4.72.32.04.65.08.98.11,3.43.35,6.25,2.86,7,6.22.75,3.37-.75,6.83-3.71,8.6-2.99,1.79-5.47,4-7.59,6.78-.47.62-1.02,1.15-1.62,1.59,1.03.5,1.97,1.2,2.77,2.06l5.95,6.08c2.08,2.08,2.99,5.1,2.43,8.21-.14.75-.38,1.48-.72,2.16-1.29,2.57-3.67,4.38-6.55,4.96-.52.11-1.05.16-1.59.16h-63.98Z"/>
        <path class="cls-14" d="M239.96,142.4c-.7,0-1.41-.09-2.11-.28-4.3-1.18-8.34-2.91-12.08-5.19-7.53,3.26-15.54,4.92-23.88,4.92-1.12,0-2.27-.03-3.4-.09-.62-.03-1.23-.14-1.81-.31-.96.29-1.94.5-2.91.65-.07,0-.13.02-.2.03-.48.06-.96.09-1.44.09-1.97,0-3.91-.52-5.64-1.51-2.28-1.3-3.97-3.32-4.81-5.73-.71-1.67-1.74-2.91-3.23-3.9-3.03-2.01-4.32-5.8-3.17-9.23-1.48-2.71-1.29-6.09.61-8.64,2.25-3.01,4.24-6.16,5.97-9.43-1.77-.49-3.37-1.58-4.47-3.18-2.11-3.07-1.82-7.19.69-9.94,1.91-2.08,3.74-4.28,5.48-6.56-1.42-3.42-3.13-6.64-5.11-9.61-2.13-3.2-1.69-7.46,1.05-10.15,1.54-1.51,3.57-2.29,5.61-2.29,1.58,0,3.18.47,4.56,1.43,1.27.88,2.5,1.81,3.68,2.78.21-.59.42-1.19.61-1.79.83-2.54,2.87-4.49,5.43-5.21.72-.2,1.45-.3,2.17-.3,1.88,0,3.72.66,5.18,1.91l1.13.96c.53-.98,1.26-1.85,2.16-2.54,1.41-1.09,3.14-1.66,4.88-1.66.68,0,1.36.09,2.04.26l6.6,1.74c.13-.11.25-.22.39-.32,1.42-1.1,3.15-1.68,4.9-1.68.66,0,1.33.08,1.99.25l10.41,2.67c.24.06.48.13.71.22.65.23,1.26.52,1.83.87,2.75.05,5.24,1.25,6.98,3.35l4.19,4.25c2.65,2.54,3.5,6.32,2.18,9.77-.45,1.2-1.12,2.26-1.94,3.14,1.51,2.07,2.1,4.64,1.63,7.25-.1.53-.25,1.05-.45,1.55-.47,1.16-1.14,2.19-1.98,3.06-.05.68-.18,1.36-.38,2.03.24.63.4,1.28.5,1.93,2.68,2.39,3.64,6.11,2.46,9.68-.05.16-.11.31-.17.46-.86,2.14-2.44,3.81-4.39,4.79.1.84.09,1.7-.02,2.57-.11.8-.33,1.57-.67,2.3-.16.36-.35.7-.55,1.03.14,0,.54,0,.6,0,3.81,0,7.1,2.69,7.85,6.44.76,3.81-1.33,7.61-4.96,9.02-3.58,1.39-6.54,3.28-9.05,5.79-1.52,1.52-3.56,2.34-5.66,2.34Z"/>
        <path class="cls-11" d="M302.05,141.61c-1.36,0-2.74-.15-4.1-.44-4-.82-7.22-3.01-9.33-6.34-.49-.76-.87-.93-1.52-1.04-.43-.07-.86-.17-1.26-.3-1.25-.09-2.48-.36-3.69-.81-.13-.05-.27-.1-.4-.16-.1-.04-.2-.09-.3-.14-.82,2.95-2.88,5.35-5.83,6.7-.47.21-.95.38-1.45.5l-6.47,1.55c-.18.04-.36.08-.54.11-.57.09-1.15.14-1.72.14-2.12,0-4.13-.66-5.8-1.92-.3-.23-.59-.48-.86-.74-1.87-1.87-2.91-4.38-2.91-7.06v-14.91c-.47.09-.95.13-1.42.13-2.55,0-5.01-1.22-6.54-3.39-2.08-2.95-1.93-6.92.37-9.7,2.27-2.76,4.43-5.61,6.47-8.55-2.26-.4-4.31-1.77-5.53-3.86-1.87-3.21-1.27-7.29,1.43-9.84,5.89-5.56,10.8-12,14.59-19.16,1.18-2.22,3.33-3.76,5.81-4.16.42-.07.84-.1,1.26-.1,2.06,0,4.05.79,5.55,2.24l.06.06c1.21-.68,2.57-1.04,3.94-1.04.67,0,1.35.08,2.01.26l9.84,2.56h7.25c1.48-1.84,3.58-3.09,5.96-3.53.61-.11,1.22-.17,1.83-.17,1.82,0,3.62.5,5.21,1.46l6.85,4.05c.83.49,1.57,1.13,2.17,1.89,1.51,1.89,2.32,4.16,2.32,6.54,0,2.14-.7,4.19-1.97,5.87v10.76l2.39,1.54c.72.47,1.37,1.05,1.91,1.72,2.05,2.56,2.65,5.79,1.68,8.9-.18.59-.4,1.15-.68,1.67,0,0,.64.76.68.81,2.43,3.04,2.7,7,.8,10.24-1.56,3.08-4.63,5.01-8.17,5.01h-3.11v6.91c0,.17,0,.34-.02.5-.19,2.94-1.14,5.7-2.84,8.2-1.8,2.66-4.19,4.59-7.1,5.75-.08.03-.16.06-.24.09-2.14.78-4.36,1.17-6.59,1.17Z"/>
        <path class="cls-8" d="M359.78,142.67c-2.19,0-4.25-.7-5.96-2.02-.03-.03-.07-.05-.1-.08-2.34-1.87-3.68-4.64-3.7-7.6-6.78,2.67-13.84,4.64-21.11,5.87-.45.08-.9.11-1.34.11-3.51,0-6.68-2.31-7.68-5.78-1.13-3.91.86-8.04,4.62-9.61,1.59-.66,3.12-1.38,4.59-2.17-.72-.4-1.41-.89-2.05-1.47-.4-.37-.76-.77-1.08-1.21-1.79-2.45-2.37-5.39-1.65-8.27l1.66-7c-1.63-.44-3.12-1.4-4.22-2.81-2.31-2.97-2.24-7.15.17-10.04,6.15-7.38,9.29-15.72,9.61-25.51.09-2.66,1.49-5.1,3.75-6.52,1.29-.81,2.77-1.22,4.25-1.22,1.1,0,2.21.23,3.25.69l12.02,5.34c.19.08.37.17.55.27.33.18.64.37.94.58.63-.25,1.3-.44,1.98-.56.55-.1,1.11-.15,1.67-.15.18,0,.35,0,.53.01.58-2,1.94-3.72,3.8-4.75,1.21-.67,2.54-1.01,3.88-1.01,1.21,0,2.42.27,3.54.83l10.62,5.24c.28.13.55.28.81.43,1.08-.57,2.26-.92,3.5-1.05.33-.03.64-.05.95-.05,2.53,0,4.93,1.01,6.76,2.84.07.06.13.13.19.2l5.08,5.43c2.18,2.27,3.06,5.44,2.4,8.71-.1.52-.26,1.03-.46,1.52-.76,1.82-2.01,3.33-3.58,4.38.49.95.84,2,1.01,3.12.06.41.1.82.1,1.23,0,2.02-.6,3.9-1.69,5.45v4.11c0,.73-.07,1.44-.19,2.12l1.76,1.41c.35.28.68.59.98.93,2.06,2.32,2.87,5.44,2.19,8.42-.26,1.25-.75,2.41-1.44,3.43-.11,5.82-1.27,11.5-3.46,16.92-.03.06-.05.13-.08.19-1.32,3.05-3.52,5.47-6.37,7-2.17,1.16-4.51,1.75-6.98,1.75-.64,0-1.29-.04-1.94-.12-.41-.05-.81-.13-1.21-.25-2.62-.75-4.78-2.21-6.3-4.21-1.31,1.43-3.04,2.49-5.1,3.04-.1.03-.21.05-.31.08l-6.82,1.55c-.84.18-1.59.26-2.33.26Z"/>
        <path class="cls-10" d="M400.55,113.36c-2.79,0-5.38-1.46-6.84-3.84l-2.18-3.59c-1.5-2.47-1.55-5.56-.14-8.08,1.42-2.52,4.08-4.08,6.97-4.08h50.1l2.75-3.41c1.71-2.26,4.35-3.55,7.33-3.55,2,0,3.95.64,5.63,1.84.46.33.89.71,1.27,1.13l7.43,8.18c2.68,2.71,3.31,6.73,1.62,10.12-1.44,3.2-4.61,5.27-8.22,5.27h-65.74Z"/>
        <path class="cls-3" d="M474.52,140.71c-4.42,0-8-3.58-8-8v-5.84c0-4.42,3.58-8,8-8h2.48v-23.92c0-4.42,3.58-8,8-8h12.45c4.42,0,8,3.58,8,8v37.76c0,4.42-3.58,8-8,8h-22.92Z"/>
      </g>
      <g>
        <path class="cls-12" d="M8,68.66h23.27v6.12h-10.69v31.99h-12.59v-38.11Z"/>
        <path class="cls-12" d="M39.85,81.45c8.72-3.09,16.59-7.57,23.62-13.43l8.79,7.45c.56.42.73.94.49,1.55-.24.75-.7,1.12-1.41,1.12l-1.9-.42c-3.33.94-5.86,1.59-7.59,1.97v10.76h1.62l2.32-4.43c.23-.47.61-.7,1.12-.7s.89.24,1.12.7l5.77,6.33c.28.28.35.64.21,1.09-.14.45-.42.67-.84.67h-11.32v2.53c2.58,0,4.96.63,7.14,1.9s3.9,3,5.17,5.2c.84,1.45.94,2.93.28,4.43-.61,1.41-1.69,2.37-3.23,2.88-1.5.52-2.95.26-4.36-.77-1.41-1.03-2.06-2.37-1.97-4.01-.24-2.67-1.24-5.02-3.02-7.03v31.57c0,1.12-.52,1.87-1.55,2.25l-5.48,1.2c-.47.05-.98-.05-1.55-.28-.47-.38-.73-.8-.77-1.27v-20.95c-3.47,4.88-8.04,8.34-13.71,10.41,6.7-8.16,10.83-17.51,12.38-28.05h-9.21l-1.9-3.66h12.45v-9.35c-4.17.38-8.39.49-12.66.35ZM76.84,71.54l12.3,3.02c.7.09,1.1.49,1.2,1.2.09.7-.19,1.17-.84,1.41l-2.25,1.62v35.65c0,1.03-.54,1.83-1.62,2.39l-6.12,1.97c-.61.24-1.17.17-1.69-.21-.61-.28-.94-.73-.98-1.34v-45.7ZM93.64,65.56l12.3,3.38c.7.24,1.1.7,1.2,1.41.09.75-.19,1.34-.84,1.76l-2.32,1.41v51.26c-.05,2.34-.86,4.42-2.43,6.22-1.57,1.8-3.5,2.89-5.8,3.27-.89.23-1.77.15-2.64-.25-.87-.4-1.47-1-1.79-1.79-2.34-4.36-5.86-7.17-10.55-8.44,3.47.09,6.8.42,9.98.98.75.14,1.43,0,2.04-.42.56-.56.84-1.2.84-1.9v-56.88Z"/>
        <path class="cls-12" d="M113.68,84.2h19.55c-1.22-.94-1.92-2.18-2.11-3.73-.09-1.03-.28-2.01-.56-2.95-.94-3.66-2.77-6.84-5.48-9.56,4.59.24,8.67,1.71,12.23,4.43l2.39,1.76c.75.66,1.41,1.43,1.97,2.32.66,1.36.8,2.77.42,4.22-.38,1.45-1.17,2.63-2.39,3.52h9c2.34-5.58,4.08-11.37,5.2-17.37l11.53,7.59c.56.28.75.73.56,1.34,0,.56-.33.89-.98.98l-2.25.28-9.7,7.17h10.27l4.08-5.27c.37-.33.8-.54,1.27-.63.37-.09.75.02,1.12.35l7.03,6.61c.47.42.56.94.28,1.55-.19.61-.61.96-1.27,1.05h-22.92c3.56,4.17,7.73,7.51,12.52,10.02,4.78,2.51,9.94,4.04,15.47,4.61-3.84,2.3-7.13,5.23-9.84,8.79l-2.11-.98-1.55,1.41v17.02l3.23-3.52c.28-.28.63-.42,1.05-.42s.77.17,1.05.49l6.05,6.19c.28.28.37.68.28,1.2-.19.38-.52.61-.98.7h-63.98l-2.25-3.73h8.72v-20.6c-3.66,1.55-7.45,2.65-11.39,3.3,9.66-6.19,17.16-14.34,22.5-24.47h-16.17l-1.83-3.66ZM138.29,87.85l5.34,3.59c.47.42.66.94.56,1.55-.28.56-.7.91-1.27,1.05l-1.97.07c-3.84,4.36-8.16,8.04-12.94,11.04l2.81,1.05h26.86l1.83-2.18c-4.88-4.5-8.2-9.89-9.98-16.17h-11.25ZM130.98,109.86v19.76h2.67v-19.76h-2.67ZM142.65,109.86v19.76h2.81v-19.76h-2.81ZM154.18,109.86v19.76h2.67v-19.76h-2.67Z"/>
        <path class="cls-12" d="M185.12,70.06c4.12,2.86,7.64,6.23,10.55,10.12,2.44-4.22,4.41-8.62,5.91-13.22l8.02,6.82h5.34v-8.16l10.69,2.81c.56.14.89.49.98,1.05.09.56-.09.98-.56,1.27l-1.69,1.05v1.97h4.5v-8.16l10.41,2.67c.66.24,1.03.67,1.12,1.3.09.63-.19,1.11-.84,1.44l-1.41.56v2.18h2.11l2.11-3.45c.28-.47.7-.7,1.27-.7.47,0,.84.21,1.12.63l4.64,4.71c.37.33.47.73.28,1.2-.19.52-.47.77-.84.77h-10.69v1.12c0,.8-.33,1.36-.98,1.69l-2.39.91,2.39,1.05c.56.24.84.69.84,1.37s-.33,1.09-.98,1.23l-3.23,1.05h5.2l2.39-3.45c.28-.42.68-.63,1.2-.63s.91.17,1.2.49l4.78,4.85c.37.38.52.82.42,1.34-.19.47-.56.77-1.12.91h-5.06l3.38,3.73c.28.33.35.7.21,1.12s-.49.63-1.05.63h-3.09l4.08,4.01c.28.42.37.8.28,1.12-.09.38-.38.61-.84.7h-.56l3.94,3.66c.37.28.47.7.28,1.27-.19.47-.52.7-.98.7h-28.27c.09.89-.28,1.41-1.12,1.55l-7.17.91c-.47.09-.89-.06-1.27-.46-.38-.4-.56-.83-.56-1.3v-11.46l-5.62,3.02c2.34,9.7,1.73,19.22-1.83,28.55-.84,2.3-2.3,4.1-4.36,5.41-1.88,1.12-3.75,1.83-5.62,2.11-.75.09-1.45-.05-2.11-.42-.66-.38-1.08-.89-1.27-1.55-1.31-3.28-3.42-5.88-6.33-7.8,1.97.24,3.94.73,5.91,1.48.94.33,1.87.24,2.81-.28.94-.52,1.59-1.24,1.97-2.18,1.5-5.06,2.39-10.17,2.67-15.33-4.13,4.08-8.77,7.38-13.92,9.91,5.72-7.64,9.89-15.98,12.52-25.03l-.7-2.46c-3.19,2.3-6.56,4.15-10.12,5.55,3.09-3.38,5.95-6.96,8.58-10.76-1.88-5.53-4.36-10.62-7.45-15.26ZM207.2,108.88h26.3l1.41-1.41c.75-.89,1.69-.96,2.81-.21l6.19,5.48c.47.42.66.98.56,1.69-.28.61-.7.98-1.27,1.12l-2.11.28c-2.16,2.77-4.74,5.27-7.73,7.52,5.81,2.44,11.95,3.59,18.42,3.45-4.59,1.78-8.53,4.31-11.81,7.59-4.97-1.36-9.47-3.59-13.5-6.68-8.53,4.55-17.72,6.56-27.56,6.05,8.25-2.16,15.56-5.88,21.94-11.18-2.81-2.95-5.06-6.42-6.75-10.41h-5.91l-.98-3.3ZM210.15,76.95c-.09.52-.47.73-1.12.63l-1.55-.28c-2.25,3.28-4.88,6.23-7.87,8.86,1.78,3.23,3.23,6.7,4.36,10.41,4.22-5.77,7.08-12.14,8.58-19.12l2.39,1.05v-1.55h-4.78ZM217.18,112.18c2.25,2.49,4.87,4.74,7.88,6.75,2.34-2.25,4.31-4.5,5.91-6.75h-13.78ZM220.13,88.91v2.32h6.05v-2.32h-6.05ZM220.13,94.39v2.18h6.05v-2.18h-6.05ZM220.13,100.23v2.11h6.05v-2.11h-6.05ZM224.35,78.71c.09.98-.33,1.69-1.27,2.11l-1.69.49,2.39,1.05c.28.19.42.49.42.91,0,.33-.14.63-.42.91l-1.83,1.2h2.53l3.8-7.31.56.21v-1.34h-4.5v1.76ZM238.7,91.23l1.41-2.32h-4.36v2.32h2.95ZM238.7,96.57l1.41-2.18h-4.36v2.18h2.95ZM240.95,102.34l1.27-2.11h-6.47v2.11h5.2Z"/>
        <path class="cls-12" d="M292.7,70.2h12.52l1.97-2.95c.28-.38.68-.61,1.2-.7.52-.09,1.01,0,1.48.28l6.89,4.08c.38.47.56.98.56,1.55s-.24,1.03-.7,1.41l-1.27,1.12v16.45c-.09.66-.33,1.17-.7,1.55l6.75,4.36c.38.47.47.98.28,1.55-.19.66-.56,1.03-1.12,1.12h-10.83l3.09,1.41c.38.38.56.8.56,1.27s-.24.84-.7,1.12l-1.83,1.12v2.25h1.97l3.23-3.8c.28-.38.66-.56,1.12-.56s.89.14,1.27.42l4.64,5.48c.38.47.38.94,0,1.41-.19.56-.56.84-1.12.84h-11.11v14.91c-.09,1.5-.59,2.91-1.48,4.22-.89,1.31-2.04,2.25-3.45,2.81-2.06.75-4.17.89-6.33.42-1.88-.38-3.28-1.31-4.22-2.81-1.69-2.63-4.03-4.17-7.03-4.64,3.66.09,6.89.09,9.7,0,.56-.19,1.05-.52,1.48-.98.42-.47.63-.98.63-1.55v-12.38h-14.62c2.34,1.59,4.26,3.47,5.77,5.62,1.03,1.31,1.36,2.81.98,4.5-.38,1.69-1.31,2.91-2.81,3.66-1.5.84-3,.98-4.5.42-1.5-.66-2.53-1.73-3.09-3.23-.56-1.5-.52-2.91.14-4.22,1.22-2.44.89-4.69-.98-6.75h-5.77l-1.41-2.25v20.67c0,1.12-.52,1.92-1.55,2.39l-6.47,1.55c-.56.09-1.03,0-1.41-.28-.38-.38-.56-.84-.56-1.41v-27.28c-2.91,1.78-6.05,3.28-9.42,4.5,7.03-8.53,12.94-17.76,17.72-27.7l8.3,6.33c.19.38.28.8.28,1.27-.19.47-.47.84-.84,1.12l-1.97.7c-1.59,2.44-3.33,4.64-5.2,6.61l1.55.84c.84.75.98,1.55.42,2.39l-.84,1.12v5.62h26.3v-7.17h-20.67l-2.11-3.66h32.77l1.55-2.53h-5.77c-.94-.09-1.5-.61-1.69-1.55v-.84h-11.53v.84c-.09.84-.56,1.31-1.41,1.41h-7.88c-.94-.09-1.45-.61-1.55-1.55v-24.75l10.83,2.81ZM272.3,66.13l8.02,7.73c.28.47.38.98.28,1.55-.28.47-.66.8-1.12.98l-2.39.14c-6.28,4.88-13.27,8.48-20.95,10.83,6.56-6.19,11.95-13.26,16.17-21.23ZM292.7,73.72v5.06h11.53v-5.06h-11.53ZM292.7,82.58v4.92h11.53v-4.92h-11.53Z"/>
        <path class="cls-12" d="M339.52,65.35l12.02,5.34c.61.33.87.82.77,1.48-.09.66-.42,1.05-.98,1.2l-1.76.63-1.05,2.18h7.17l2.67-3.87c.33-.42.77-.68,1.34-.77.47-.09.91.09,1.34.56l4.57,4.92c1.31-3.7,2.16-7.45,2.53-11.25l10.69,5.27c.52.24.73.68.63,1.34-.09.56-.42.89-.98.98l-1.48.14-1.83,2.67h8.44l2.6-4.29c.33-.42.73-.66,1.2-.7.47-.05.89.12,1.27.49l5.13,5.48c.38.38.49.91.35,1.62-.24.56-.63.91-1.2,1.05h-14.98c2.3.94,3.59,2.65,3.87,5.13l8.44,4.36c.42.24.68.66.77,1.27,0,.56-.21.96-.63,1.2l-1.05.7v7.66c0,1.22-.54,2.02-1.62,2.39l-6.75,1.41c-.56.14-1.05.07-1.48-.21-.38-.28-.61-.68-.7-1.2v-2.6h-9.84v7.03h14.41l1.76-1.69c.28-.42.67-.67,1.16-.74s.92.04,1.3.32l6.33,5.06c.38.42.49.89.35,1.41-.09.56-.38.94-.84,1.12l-.84.49c.38,6.05-.56,11.86-2.81,17.44-.61,1.41-1.55,2.45-2.81,3.13-1.27.68-2.65.92-4.15.74-1.64-.47-2.63-1.57-2.95-3.3-.14-1.97-1.03-3.38-2.67-4.22l-7.38-4.08c2.81.84,5.65,1.2,8.51,1.05,1.55.09,2.65-.61,3.3-2.11.84-3.47,1.12-7.05.84-10.76h-13.5v19.9c0,1.22-.61,1.99-1.83,2.32l-6.82,1.55c-.66.14-1.2.05-1.62-.28-.47-.38-.7-.84-.7-1.41v-12.52c-9.52,5.2-19.66,8.72-30.45,10.55,10.27-4.26,18.54-10.97,24.82-20.11h-8.65l-.35,1.62c-.47,1.31-1.36,1.97-2.67,1.97l-6.68.14c-.56.09-1.1-.09-1.62-.56-.38-.52-.49-1.05-.35-1.62l4.29-18.07,7.88,2.46h13.78v-4.43h-19.34l-1.62-2.46c-2.58,2.25-5.58,4.2-9,5.84,7.27-8.72,11.08-18.84,11.46-30.38ZM346.2,79.84c-2.16,3.14-4.67,6.02-7.52,8.65h14.7c-1.31-.61-2.04-1.66-2.18-3.16-.24-2.11-1.01-3.94-2.32-5.48h-2.67ZM346.41,100.16l-1.55,6.82h13.15v-6.82h-11.6ZM354.36,79.84c1.78.56,3.12,1.73,4.01,3.52.38,1.12.3,2.16-.21,3.09-.52,1.03-1.34,1.71-2.46,2.04h4.15c1.97-2.86,3.52-5.74,4.64-8.65h-10.12ZM372.64,79.2c-2.95,3.47-6.42,6.56-10.41,9.28h14.77c-1.5-.56-2.25-1.66-2.25-3.3-.14-2.16-.84-4.15-2.11-5.98ZM368.98,92.35v4.43h9.84v-4.43h-9.84Z"/>
        <path class="cls-12" d="M398.38,101.77h53.93l5.27-6.54c.19-.28.52-.42.98-.42.33,0,.66.12.98.35l7.59,8.37c.38.33.42.7.14,1.12-.14.47-.47.7-.98.7h-65.74l-2.18-3.59Z"/>
        <path class="cls-12" d="M485,94.95h12.45v37.76h-22.92v-5.84h10.48v-31.92Z"/>
      </g>
      <g>
        <path class="cls-4" d="M8,68.66h23.27v6.12h-10.69v31.99h-12.59v-38.11Z"/>
        <path class="cls-4" d="M39.85,81.45c8.72-3.09,16.59-7.57,23.62-13.43l8.79,7.45c.56.42.73.94.49,1.55-.24.75-.7,1.12-1.41,1.12l-1.9-.42c-3.33.94-5.86,1.59-7.59,1.97v10.76h1.62l2.32-4.43c.23-.47.61-.7,1.12-.7s.89.24,1.12.7l5.77,6.33c.28.28.35.64.21,1.09-.14.45-.42.67-.84.67h-11.32v2.53c2.58,0,4.96.63,7.14,1.9s3.9,3,5.17,5.2c.84,1.45.94,2.93.28,4.43-.61,1.41-1.69,2.37-3.23,2.88-1.5.52-2.95.26-4.36-.77-1.41-1.03-2.06-2.37-1.97-4.01-.24-2.67-1.24-5.02-3.02-7.03v31.57c0,1.12-.52,1.87-1.55,2.25l-5.48,1.2c-.47.05-.98-.05-1.55-.28-.47-.38-.73-.8-.77-1.27v-20.95c-3.47,4.88-8.04,8.34-13.71,10.41,6.7-8.16,10.83-17.51,12.38-28.05h-9.21l-1.9-3.66h12.45v-9.35c-4.17.38-8.39.49-12.66.35ZM76.84,71.54l12.3,3.02c.7.09,1.1.49,1.2,1.2.09.7-.19,1.17-.84,1.41l-2.25,1.62v35.65c0,1.03-.54,1.83-1.62,2.39l-6.12,1.97c-.61.24-1.17.17-1.69-.21-.61-.28-.94-.73-.98-1.34v-45.7ZM93.64,65.56l12.3,3.38c.7.24,1.1.7,1.2,1.41.09.75-.19,1.34-.84,1.76l-2.32,1.41v51.26c-.05,2.34-.86,4.42-2.43,6.22-1.57,1.8-3.5,2.89-5.8,3.27-.89.23-1.77.15-2.64-.25-.87-.4-1.47-1-1.79-1.79-2.34-4.36-5.86-7.17-10.55-8.44,3.47.09,6.8.42,9.98.98.75.14,1.43,0,2.04-.42.56-.56.84-1.2.84-1.9v-56.88Z"/>
        <path class="cls-4" d="M113.68,84.2h19.55c-1.22-.94-1.92-2.18-2.11-3.73-.09-1.03-.28-2.01-.56-2.95-.94-3.66-2.77-6.84-5.48-9.56,4.59.24,8.67,1.71,12.23,4.43l2.39,1.76c.75.66,1.41,1.43,1.97,2.32.66,1.36.8,2.77.42,4.22-.38,1.45-1.17,2.63-2.39,3.52h9c2.34-5.58,4.08-11.37,5.2-17.37l11.53,7.59c.56.28.75.73.56,1.34,0,.56-.33.89-.98.98l-2.25.28-9.7,7.17h10.27l4.08-5.27c.37-.33.8-.54,1.27-.63.37-.09.75.02,1.12.35l7.03,6.61c.47.42.56.94.28,1.55-.19.61-.61.96-1.27,1.05h-22.92c3.56,4.17,7.73,7.51,12.52,10.02,4.78,2.51,9.94,4.04,15.47,4.61-3.84,2.3-7.13,5.23-9.84,8.79l-2.11-.98-1.55,1.41v17.02l3.23-3.52c.28-.28.63-.42,1.05-.42s.77.17,1.05.49l6.05,6.19c.28.28.37.68.28,1.2-.19.38-.52.61-.98.7h-63.98l-2.25-3.73h8.72v-20.6c-3.66,1.55-7.45,2.65-11.39,3.3,9.66-6.19,17.16-14.34,22.5-24.47h-16.17l-1.83-3.66ZM138.29,87.85l5.34,3.59c.47.42.66.94.56,1.55-.28.56-.7.91-1.27,1.05l-1.97.07c-3.84,4.36-8.16,8.04-12.94,11.04l2.81,1.05h26.86l1.83-2.18c-4.88-4.5-8.2-9.89-9.98-16.17h-11.25ZM130.98,109.86v19.76h2.67v-19.76h-2.67ZM142.65,109.86v19.76h2.81v-19.76h-2.81ZM154.18,109.86v19.76h2.67v-19.76h-2.67Z"/>
        <path class="cls-4" d="M185.12,70.06c4.12,2.86,7.64,6.23,10.55,10.12,2.44-4.22,4.41-8.62,5.91-13.22l8.02,6.82h5.34v-8.16l10.69,2.81c.56.14.89.49.98,1.05.09.56-.09.98-.56,1.27l-1.69,1.05v1.97h4.5v-8.16l10.41,2.67c.66.24,1.03.67,1.12,1.3.09.63-.19,1.11-.84,1.44l-1.41.56v2.18h2.11l2.11-3.45c.28-.47.7-.7,1.27-.7.47,0,.84.21,1.12.63l4.64,4.71c.37.33.47.73.28,1.2-.19.52-.47.77-.84.77h-10.69v1.12c0,.8-.33,1.36-.98,1.69l-2.39.91,2.39,1.05c.56.24.84.69.84,1.37s-.33,1.09-.98,1.23l-3.23,1.05h5.2l2.39-3.45c.28-.42.68-.63,1.2-.63s.91.17,1.2.49l4.78,4.85c.37.38.52.82.42,1.34-.19.47-.56.77-1.12.91h-5.06l3.38,3.73c.28.33.35.7.21,1.12s-.49.63-1.05.63h-3.09l4.08,4.01c.28.42.37.8.28,1.12-.09.38-.38.61-.84.7h-.56l3.94,3.66c.37.28.47.7.28,1.27-.19.47-.52.7-.98.7h-28.27c.09.89-.28,1.41-1.12,1.55l-7.17.91c-.47.09-.89-.06-1.27-.46-.38-.4-.56-.83-.56-1.3v-11.46l-5.62,3.02c2.34,9.7,1.73,19.22-1.83,28.55-.84,2.3-2.3,4.1-4.36,5.41-1.88,1.12-3.75,1.83-5.62,2.11-.75.09-1.45-.05-2.11-.42-.66-.38-1.08-.89-1.27-1.55-1.31-3.28-3.42-5.88-6.33-7.8,1.97.24,3.94.73,5.91,1.48.94.33,1.87.24,2.81-.28.94-.52,1.59-1.24,1.97-2.18,1.5-5.06,2.39-10.17,2.67-15.33-4.13,4.08-8.77,7.38-13.92,9.91,5.72-7.64,9.89-15.98,12.52-25.03l-.7-2.46c-3.19,2.3-6.56,4.15-10.12,5.55,3.09-3.38,5.95-6.96,8.58-10.76-1.88-5.53-4.36-10.62-7.45-15.26ZM207.2,108.88h26.3l1.41-1.41c.75-.89,1.69-.96,2.81-.21l6.19,5.48c.47.42.66.98.56,1.69-.28.61-.7.98-1.27,1.12l-2.11.28c-2.16,2.77-4.74,5.27-7.73,7.52,5.81,2.44,11.95,3.59,18.42,3.45-4.59,1.78-8.53,4.31-11.81,7.59-4.97-1.36-9.47-3.59-13.5-6.68-8.53,4.55-17.72,6.56-27.56,6.05,8.25-2.16,15.56-5.88,21.94-11.18-2.81-2.95-5.06-6.42-6.75-10.41h-5.91l-.98-3.3ZM210.15,76.95c-.09.52-.47.73-1.12.63l-1.55-.28c-2.25,3.28-4.88,6.23-7.87,8.86,1.78,3.23,3.23,6.7,4.36,10.41,4.22-5.77,7.08-12.14,8.58-19.12l2.39,1.05v-1.55h-4.78ZM217.18,112.18c2.25,2.49,4.87,4.74,7.88,6.75,2.34-2.25,4.31-4.5,5.91-6.75h-13.78ZM220.13,88.91v2.32h6.05v-2.32h-6.05ZM220.13,94.39v2.18h6.05v-2.18h-6.05ZM220.13,100.23v2.11h6.05v-2.11h-6.05ZM224.35,78.71c.09.98-.33,1.69-1.27,2.11l-1.69.49,2.39,1.05c.28.19.42.49.42.91,0,.33-.14.63-.42.91l-1.83,1.2h2.53l3.8-7.31.56.21v-1.34h-4.5v1.76ZM238.7,91.23l1.41-2.32h-4.36v2.32h2.95ZM238.7,96.57l1.41-2.18h-4.36v2.18h2.95ZM240.95,102.34l1.27-2.11h-6.47v2.11h5.2Z"/>
        <path class="cls-4" d="M292.7,70.2h12.52l1.97-2.95c.28-.38.68-.61,1.2-.7.52-.09,1.01,0,1.48.28l6.89,4.08c.38.47.56.98.56,1.55s-.24,1.03-.7,1.41l-1.27,1.12v16.45c-.09.66-.33,1.17-.7,1.55l6.75,4.36c.38.47.47.98.28,1.55-.19.66-.56,1.03-1.12,1.12h-10.83l3.09,1.41c.38.38.56.8.56,1.27s-.24.84-.7,1.12l-1.83,1.12v2.25h1.97l3.23-3.8c.28-.38.66-.56,1.12-.56s.89.14,1.27.42l4.64,5.48c.38.47.38.94,0,1.41-.19.56-.56.84-1.12.84h-11.11v14.91c-.09,1.5-.59,2.91-1.48,4.22-.89,1.31-2.04,2.25-3.45,2.81-2.06.75-4.17.89-6.33.42-1.88-.38-3.28-1.31-4.22-2.81-1.69-2.63-4.03-4.17-7.03-4.64,3.66.09,6.89.09,9.7,0,.56-.19,1.05-.52,1.48-.98.42-.47.63-.98.63-1.55v-12.38h-14.62c2.34,1.59,4.26,3.47,5.77,5.62,1.03,1.31,1.36,2.81.98,4.5-.38,1.69-1.31,2.91-2.81,3.66-1.5.84-3,.98-4.5.42-1.5-.66-2.53-1.73-3.09-3.23-.56-1.5-.52-2.91.14-4.22,1.22-2.44.89-4.69-.98-6.75h-5.77l-1.41-2.25v20.67c0,1.12-.52,1.92-1.55,2.39l-6.47,1.55c-.56.09-1.03,0-1.41-.28-.38-.38-.56-.84-.56-1.41v-27.28c-2.91,1.78-6.05,3.28-9.42,4.5,7.03-8.53,12.94-17.76,17.72-27.7l8.3,6.33c.19.38.28.8.28,1.27-.19.47-.47.84-.84,1.12l-1.97.7c-1.59,2.44-3.33,4.64-5.2,6.61l1.55.84c.84.75.98,1.55.42,2.39l-.84,1.12v5.62h26.3v-7.17h-20.67l-2.11-3.66h32.77l1.55-2.53h-5.77c-.94-.09-1.5-.61-1.69-1.55v-.84h-11.53v.84c-.09.84-.56,1.31-1.41,1.41h-7.88c-.94-.09-1.45-.61-1.55-1.55v-24.75l10.83,2.81ZM272.3,66.13l8.02,7.73c.28.47.38.98.28,1.55-.28.47-.66.8-1.12.98l-2.39.14c-6.28,4.88-13.27,8.48-20.95,10.83,6.56-6.19,11.95-13.26,16.17-21.23ZM292.7,73.72v5.06h11.53v-5.06h-11.53ZM292.7,82.58v4.92h11.53v-4.92h-11.53Z"/>
        <path class="cls-4" d="M339.52,65.35l12.02,5.34c.61.33.87.82.77,1.48-.09.66-.42,1.05-.98,1.2l-1.76.63-1.05,2.18h7.17l2.67-3.87c.33-.42.77-.68,1.34-.77.47-.09.91.09,1.34.56l4.57,4.92c1.31-3.7,2.16-7.45,2.53-11.25l10.69,5.27c.52.24.73.68.63,1.34-.09.56-.42.89-.98.98l-1.48.14-1.83,2.67h8.44l2.6-4.29c.33-.42.73-.66,1.2-.7.47-.05.89.12,1.27.49l5.13,5.48c.38.38.49.91.35,1.62-.24.56-.63.91-1.2,1.05h-14.98c2.3.94,3.59,2.65,3.87,5.13l8.44,4.36c.42.24.68.66.77,1.27,0,.56-.21.96-.63,1.2l-1.05.7v7.66c0,1.22-.54,2.02-1.62,2.39l-6.75,1.41c-.56.14-1.05.07-1.48-.21-.38-.28-.61-.68-.7-1.2v-2.6h-9.84v7.03h14.41l1.76-1.69c.28-.42.67-.67,1.16-.74s.92.04,1.3.32l6.33,5.06c.38.42.49.89.35,1.41-.09.56-.38.94-.84,1.12l-.84.49c.38,6.05-.56,11.86-2.81,17.44-.61,1.41-1.55,2.45-2.81,3.13-1.27.68-2.65.92-4.15.74-1.64-.47-2.63-1.57-2.95-3.3-.14-1.97-1.03-3.38-2.67-4.22l-7.38-4.08c2.81.84,5.65,1.2,8.51,1.05,1.55.09,2.65-.61,3.3-2.11.84-3.47,1.12-7.05.84-10.76h-13.5v19.9c0,1.22-.61,1.99-1.83,2.32l-6.82,1.55c-.66.14-1.2.05-1.62-.28-.47-.38-.7-.84-.7-1.41v-12.52c-9.52,5.2-19.66,8.72-30.45,10.55,10.27-4.26,18.54-10.97,24.82-20.11h-8.65l-.35,1.62c-.47,1.31-1.36,1.97-2.67,1.97l-6.68.14c-.56.09-1.1-.09-1.62-.56-.38-.52-.49-1.05-.35-1.62l4.29-18.07,7.88,2.46h13.78v-4.43h-19.34l-1.62-2.46c-2.58,2.25-5.58,4.2-9,5.84,7.27-8.72,11.08-18.84,11.46-30.38ZM346.2,79.84c-2.16,3.14-4.67,6.02-7.52,8.65h14.7c-1.31-.61-2.04-1.66-2.18-3.16-.24-2.11-1.01-3.94-2.32-5.48h-2.67ZM346.41,100.16l-1.55,6.82h13.15v-6.82h-11.6ZM354.36,79.84c1.78.56,3.12,1.73,4.01,3.52.38,1.12.3,2.16-.21,3.09-.52,1.03-1.34,1.71-2.46,2.04h4.15c1.97-2.86,3.52-5.74,4.64-8.65h-10.12ZM372.64,79.2c-2.95,3.47-6.42,6.56-10.41,9.28h14.77c-1.5-.56-2.25-1.66-2.25-3.3-.14-2.16-.84-4.15-2.11-5.98ZM368.98,92.35v4.43h9.84v-4.43h-9.84Z"/>
        <path class="cls-4" d="M398.38,101.77h53.93l5.27-6.54c.19-.28.52-.42.98-.42.33,0,.66.12.98.35l7.59,8.37c.38.33.42.7.14,1.12-.14.47-.47.7-.98.7h-65.74l-2.18-3.59Z"/>
        <path class="cls-4" d="M485,94.95h12.45v37.76h-22.92v-5.84h10.48v-31.92Z"/>
      </g>
    </g>
  </g>
</svg>