<?xml version="1.0" encoding="UTF-8"?>
<svg id="_レイヤー_2" data-name="レイヤー 2" xmlns="http://www.w3.org/2000/svg" xmlns:xlink="http://www.w3.org/1999/xlink" viewBox="0 0 678.05 89.55">
  <defs>
    <style>
      .cls-1 {
        fill: url(#_名称未設定グラデーション_120-5);
      }

      .cls-2 {
        fill: url(#_名称未設定グラデーション_120-6);
      }

      .cls-3 {
        fill: #fff;
      }

      .cls-4 {
        fill: url(#_名称未設定グラデーション_120-4);
      }

      .cls-5 {
        fill: url(#_名称未設定グラデーション_120-2);
      }

      .cls-6 {
        fill: url(#_名称未設定グラデーション_120-3);
      }

      .cls-7 {
        fill: url(#_名称未設定グラデーション_120);
      }

      .cls-8 {
        fill: url(#_名称未設定グラデーション_120-9);
      }

      .cls-9 {
        fill: none;
        stroke: #000;
        stroke-width: 6px;
      }

      .cls-10 {
        fill: url(#_名称未設定グラデーション_120-7);
      }

      .cls-11 {
        fill: url(#_名称未設定グラデーション_120-8);
      }
    </style>
    <linearGradient id="_名称未設定グラデーション_120" data-name="名称未設定グラデーション 120" x1="41.54" y1="89.55" x2="41.54" y2="0" gradientUnits="userSpaceOnUse">
      <stop offset="0" stop-color="#945700"/>
      <stop offset=".19" stop-color="#e9a900"/>
      <stop offset=".29" stop-color="#f5f8b4"/>
      <stop offset=".4" stop-color="#e9a900"/>
      <stop offset="1" stop-color="#fff87f"/>
    </linearGradient>
    <linearGradient id="_名称未設定グラデーション_120-2" data-name="名称未設定グラデーション 120" x1="115.31" x2="115.31" xlink:href="#_名称未設定グラデーション_120"/>
    <linearGradient id="_名称未設定グラデーション_120-3" data-name="名称未設定グラデーション 120" x1="189.77" x2="189.77" xlink:href="#_名称未設定グラデーション_120"/>
    <linearGradient id="_名称未設定グラデーション_120-4" data-name="名称未設定グラデーション 120" x1="264.6" x2="264.6" xlink:href="#_名称未設定グラデーション_120"/>
    <linearGradient id="_名称未設定グラデーション_120-5" data-name="名称未設定グラデーション 120" x1="337.8" x2="337.8" xlink:href="#_名称未設定グラデーション_120"/>
    <linearGradient id="_名称未設定グラデーション_120-6" data-name="名称未設定グラデーション 120" x1="411.33" x2="411.33" xlink:href="#_名称未設定グラデーション_120"/>
    <linearGradient id="_名称未設定グラデーション_120-7" data-name="名称未設定グラデーション 120" x1="485.31" x2="485.31" xlink:href="#_名称未設定グラデーション_120"/>
    <linearGradient id="_名称未設定グラデーション_120-8" data-name="名称未設定グラデーション 120" x1="559.31" x2="559.31" y2="0" xlink:href="#_名称未設定グラデーション_120"/>
    <linearGradient id="_名称未設定グラデーション_120-9" data-name="名称未設定グラデーション 120" x1="633.22" x2="633.22" y2="0" xlink:href="#_名称未設定グラデーション_120"/>
  </defs>
  <g id="_予想1" data-name="予想1">
    <g>
      <g>
        <path class="cls-3" d="M48.76,13.04c-.05-.43.1-.79.43-1.08.38-.24.77-.29,1.16-.14l12.5,5.06c1.25.68,2.24,1.59,2.96,2.75.24.53.22,1.04-.07,1.52-.29.53-.75.79-1.37.79l-4.19.43-12.72,4.19,3.61,3.11c.38.14.58.46.58.94,0,.43-.19.77-.58,1.01l-.79.79c-.67.63-.94,1.42-.79,2.38v2.1l9.18-1.3c1.25-.24,2.36-.7,3.32-1.37,1.01-.43,2.05-.55,3.11-.36,4.09.87,7.37,3.04,9.83,6.5.29.77.22,1.49-.22,2.17-.53.68-1.21.99-2.02.94-8.14,0-16.12.53-23.92,1.59-.29,5.83-1.83,11.39-4.62,16.69-2.75,4.58-6.23,8.38-10.44,11.42-4.22,3.04-8.92,5.11-14.13,6.21,7.23-4.77,12.21-11.3,14.96-19.58,1.16-4.05,2-8.31,2.53-12.79-5.06.82-9.97,2.1-14.74,3.83-.48.68-1.13,1.11-1.95,1.3-.82.19-1.61.07-2.38-.36-4.05-2.41-7.37-5.68-9.97-9.83l5.56.79c1.49.29,3.06.31,4.7.07l19.37-3.83-1.16-8.96c-.24-.72-.7-1.13-1.37-1.23-7.52.72-14.86.89-22.04.51,13.25-2.12,25.34-6.96,36.28-14.53l-.58-1.73Z"/>
        <path class="cls-3" d="M80.34,39.63c7.03,1.06,14.12,1.3,21.25.72l16.04-.87,16.77-.43,3.18-.72c.96-.39,2.02-.29,3.18.29,3.08,1.93,5.97,3.9,8.67,5.93.58.58.87,1.28.87,2.1s-.29,1.52-.87,2.1c-1.16,1.06-2.51,1.45-4.05,1.16-15.61-3.47-31.17-3.32-46.68.43-1.16.39-2.17.92-3.04,1.59-.77.68-1.73.82-2.89.43-5.59-2.7-9.73-6.94-12.43-12.72Z"/>
        <path class="cls-3" d="M175.15,19.69c1.25-1.4,2.79-2.31,4.62-2.75,1.83-.43,3.59-.29,5.28.43,3.71,1.69,7.01,4.14,9.9,7.37.43.72.58,1.52.43,2.38-.14.77-.6,1.42-1.37,1.95l-1.37,1.23-17.92,32.88,30.13-2.67c-2.07-7.08-5.76-13.25-11.06-18.5,8.24,2.75,15.44,7.13,21.61,13.15,3.13,3.42,5.06,7.4,5.78,11.92.43,2.89-.19,5.56-1.88,8.02-.87.96-1.93,1.65-3.18,2.06-1.25.41-2.51.44-3.76.11-1.06-.19-2.01-.7-2.85-1.52-.84-.82-1.39-1.78-1.63-2.89l-1.81-7.95c-12.38,2.99-24.5,6.58-36.35,10.77-.77.29-1.3.79-1.59,1.52-.24.53-.65.87-1.23,1.01-.63.14-1.16,0-1.59-.43-4.43-4.48-6.79-9.88-7.08-16.19,1.78,1.35,3.83,2.02,6.14,2.02l5.56-.36c4.29-12.43,7.32-25.17,9.11-38.23.38-2.17-.41-3.78-2.38-4.84l-1.52-.51Z"/>
        <path class="cls-3" d="M228.19,31.9l3.47.87c2.07.29,4.12-.1,6.14-1.16,12.43-5.78,25.17-10.57,38.23-14.38.72-.14,1.35-.05,1.88.29,3.52,2.31,6.33,5.25,8.46,8.82.38.68.36,1.3-.07,1.88-.43.68-.99.96-1.66.87-6.07-.29-11.78,1.08-17.13,4.12-3.08,2.17-5.49,4.91-7.23,8.24s-2.58,6.89-2.53,10.7c-.24,2.6.19,5.09,1.3,7.48,1.11,2.38,2.75,4.28,4.91,5.67,3.85,1.4,7.71,1.52,11.56.36,1.3-.14,2.55.14,3.76.87,1.54,1.25,2.7,2.67,3.47,4.26.63,1.3.65,2.63.07,3.97-.53,1.3-1.49,2.22-2.89,2.75-5.16,1.64-10.41,1.95-15.75.94-4.48-.87-8.17-3.08-11.06-6.65s-4.31-7.61-4.26-12.14c.05-5.93,1.28-11.49,3.69-16.69,2.41-5.2,5.85-9.71,10.33-13.51-6.55,1.93-12.29,5.32-17.2,10.19-1.78,2.27-4.12,3.44-7.01,3.54-2.79-.48-5.18-1.77-7.15-3.87-1.98-2.1-3.08-4.56-3.32-7.41ZM276.39,13.18c3.52-.39,6.99-.14,10.41.72,1.25.34,2.35.99,3.29,1.95.94.96,1.55,2.07,1.84,3.32.24.82.22,1.63-.07,2.42s-.79,1.41-1.52,1.84c-1.21.63-2.43.75-3.69.36-1.25-.39-2.22-1.16-2.89-2.31l-1.52-3.18c-1.21-2.55-3.16-4.26-5.85-5.13ZM284.49,9.64c2.41-1.35,5.03-1.87,7.88-1.55,2.84.31,5.3,1.41,7.37,3.29.77.87,1.19,1.89,1.26,3.07.07,1.18-.21,2.28-.83,3.29-.87,1.11-2.07,1.61-3.61,1.52-1.49-.14-2.58-.84-3.25-2.1l-2.1-3.9c-1.59-2.41-3.83-3.61-6.72-3.61Z"/>
        <path class="cls-3" d="M336.66,26.77c4.53,7.9,5.59,16.24,3.18,25-.96,4.48-2.87,8.49-5.71,12.03-2.84,3.54-6.36,6.2-10.55,7.99-1.54.77-3.06.84-4.55.22-2.7-1.4-4.19-3.61-4.48-6.65-2.41-.24-4.49-1.13-6.25-2.67-1.76-1.54-2.95-3.47-3.58-5.78-1.01-4.82-.34-9.42,2.02-13.8,2.5-5.06,5.96-9.35,10.37-12.86,4.41-3.52,9.38-5.9,14.92-7.15,8.24-2.26,16.14-1.49,23.7,2.31,3.71,1.73,6.85,4.13,9.43,7.19,2.58,3.06,4.37,6.56,5.38,10.51,1.11,4.34,1.04,8.61-.22,12.83-1.25,4.22-3.54,7.84-6.87,10.88-4.05,3.76-8.67,6.47-13.88,8.13s-10.55,2.2-16.04,1.63c5.73-1.83,10.73-4.83,15-9,4.26-4.17,7.36-9.12,9.29-14.85,1.01-3.42,1.2-6.85.58-10.3-.63-3.44-2.05-6.59-4.26-9.43-2.26-2.46-4.93-4.23-7.99-5.31-3.06-1.08-6.23-1.38-9.5-.9ZM330.3,28.58c-7.85,5.16-12.82,12.36-14.89,21.61-1.01,4.1-.51,7.95,1.52,11.56.58.58,1.28.93,2.1,1.05.82.12,1.54-.16,2.17-.83,4.38-4.43,7.37-9.6,8.96-15.5,1.59-5.9,1.64-11.86.14-17.89Z"/>
        <path class="cls-3" d="M382.62,25.61c2.79,3.85,4.12,8.24,3.97,13.15-.1,1.25-.34,2.41-.72,3.47-.43.96-1.11,1.73-2.02,2.31-1.25.77-2.55.96-3.9.58-1.4-.39-2.41-1.2-3.04-2.46-.63-1.16-.79-2.31-.51-3.47s.82-2.17,1.59-3.04c3.08-2.89,4.62-6.41,4.62-10.55ZM387.39,10.87l10.55,3.47c.48.19.77.58.87,1.16,0,.58-.22,1.06-.65,1.45l-1.73,1.01v6.21c3.76.1,6.77,1.64,9.03,4.62h11.27v-4.34h-12.29l-2.02-4.05h14.31v-10.7l12.07,2.6c.58.1.99.48,1.23,1.16.1.68-.05,1.2-.43,1.59l-2.38,1.88v3.47h5.78l3.04-4.77c.24-.39.53-.58.87-.58.29-.1.65-.05,1.08.14l5.42,5.64c.72.58.87,1.35.43,2.31-.34.87-.99,1.3-1.95,1.3h-14.67v4.34h5.64l2.46-3.32c.19-.29.53-.48,1.01-.58.48,0,.87.14,1.16.43l4.19,4.62c.43.39.55.92.36,1.59-.29.68-.77,1.01-1.45,1.01h-13.37v5.78h8.02l3.04-3.9c.43-.48.94-.77,1.52-.87.67-.1,1.25.05,1.73.43l4.48,5.06c.43.68.51,1.35.22,2.02-.29.68-.82,1.06-1.59,1.16h-42.56l-1.52-3.9h16.19v-5.78h-9.61c.14.87.05,1.64-.29,2.31-.67,1.16-1.65,1.95-2.93,2.38-1.28.43-2.52.36-3.72-.22-.87-.39-1.54-1.01-2.02-1.88-.34-.96-.48-1.88-.43-2.75.24-2.12-.19-4.09-1.3-5.93v51.74c0,.58-.17,1.04-.51,1.37-.34.34-.75.55-1.23.65l-5.35.29c-.58,0-1.04-.14-1.37-.43-.39-.39-.58-.77-.58-1.16V10.87ZM404.81,43.1l10.26,2.75h14.67l1.95-2.17c.87-1.06,1.9-1.2,3.11-.43l6.79,4.91c.34.19.51.48.51.87s-.12.72-.36,1.01l-1.66,1.73v19.95c0,1.54-.43,2.89-1.3,4.05-2.26,2.99-5.23,4.62-8.89,4.91-1.4.1-2.48-.43-3.25-1.59-1.83-2.99-4.24-5.2-7.23-6.65,2.46,0,4.77.19,6.94.58.72.1,1.4-.07,2.02-.51.63-.43.99-1.04,1.08-1.81v-5.64h-14.02v13.15c0,.96-.48,1.59-1.45,1.88l-6.72.87c-.72,0-1.3-.24-1.73-.72-.48-.39-.72-.92-.72-1.59v-35.55ZM415.43,49.75v3.47h14.02v-3.47h-14.02ZM415.43,57.27v3.61h14.02v-3.61h-14.02Z"/>
        <path class="cls-3" d="M461.32,10.29l11.85,2.46c.38.19.67.53.87,1.01.1.48,0,.87-.29,1.16l-2.02,2.31v6.36h2.02l3.04-4.34c.19-.29.58-.48,1.16-.58.48-.1.87.05,1.16.43l5.2,6.36c.29.48.29.96,0,1.45-.29.39-.67.58-1.16.58h-11.42v8.24h2.75l3.47-5.06c.19-.29.53-.48,1.01-.58.38,0,.72.14,1.01.43l5.2,5.64V11.74l10.98,3.61h8.82l2.89-3.61c.29-.39.63-.58,1.01-.58.29-.1.63-.05,1.01.14l7.08,4.77c.48.29.72.68.72,1.16,0,.58-.19,1.01-.58,1.3l-1.88,1.45c-.48,4.62-1.35,9.15-2.6,13.59-.67,1.83-1.86,3.28-3.54,4.34-1.69,1.06-3.54,1.4-5.56,1.01-.77-.1-1.35-.53-1.73-1.3-1.35-2.7-3.32-4.87-5.93-6.5l6.36.72c.48.1.87,0,1.16-.29s.48-.67.58-1.16c.67-3.76,1.06-7.61,1.16-11.56h-9.54v23.7h10.98l2.02-2.6c.58-.67,1.2-.82,1.88-.43l6.65,5.06c.48.29.72.72.72,1.3s-.19,1.01-.58,1.3l-1.45,1.16c-.58,5.97-2.46,11.37-5.64,16.19,3.37,3.18,7.32,5.44,11.85,6.79-3.37,1.93-6.65,4.14-9.83,6.65-2.7-2.22-5.11-4.62-7.23-7.23-2.7,2.7-5.83,4.91-9.39,6.65,0,.29-.19.43-.58.43l-7.37,2.02c-.67,0-1.23-.19-1.66-.58-.43-.39-.7-.92-.79-1.59v-23.7h-13.44v7.37h2.31l3.04-4.19c.19-.29.53-.48,1.01-.58.38,0,.72.14,1.01.43l5.2,5.06c.48.58.58,1.2.29,1.88-.29.58-.77.92-1.45,1.01h-11.42v11.71c0,.87-.43,1.49-1.3,1.88l-6.5,1.73c-.48.1-.96-.05-1.45-.43-.39-.39-.63-.87-.72-1.45v-13.44h-9.11l-1.88-3.61h10.98v-7.37h-10.98l-1.88-3.61h8.53c-1.64-1.54-2.12-3.37-1.45-5.49.58-1.73.58-3.52,0-5.35h-5.93l-1.45-3.76h12.72v-8.24h-8.67l-1.45-3.9h10.12v-13.3ZM460.31,39.49c2.02.87,3.56,2.27,4.62,4.19.67,1.06.92,2.22.72,3.47-.19,1.25-.77,2.31-1.73,3.18h5.35l1.01-10.84h-9.97ZM478.67,39.49l2.17,1.16c.38.39.53.82.43,1.3-.19.48-.53.82-1.01,1.01l-2.17.43-6.21,6.94h3.47l3.04-5.2c.29-.39.58-.58.87-.58.38,0,.72.14,1.01.43l4.91,5.35v-10.84h-6.5ZM495.58,46.28v28.47c2.5-2.79,4.53-5.93,6.07-9.39-3.18-5.78-4.77-12.14-4.77-19.08h-1.3ZM499.77,46.28c.87,4.24,2.41,8.14,4.62,11.71,1.16-3.85,1.69-7.76,1.59-11.71h-6.21Z"/>
        <path class="cls-3" d="M554.54,11.88l9.25,2.17h12.86l2.17-3.04c.38-.39.84-.65,1.37-.79.53-.14,1.04.02,1.52.51l6.21,5.2c.67.77.67,1.54,0,2.31l-1.45,1.01v17.92c-.1.87-.48,1.59-1.16,2.17l5.64,6.36c.58.68.67,1.35.29,2.02-.29.77-.82,1.2-1.59,1.3h-13.59v7.08h4.05l2.6-3.61c.29-.48.67-.72,1.16-.72s.87.19,1.16.58l5.64,5.49c.29.39.34.87.14,1.45-.19.48-.58.77-1.16.87h-13.59v10.26c5.88.1,12-.24,18.36-1.01-3.08,2.7-5.49,5.97-7.23,9.83-5.49.96-10.79.72-15.9-.72-5.88-2.12-10.12-6.02-12.72-11.71-4.05,5.3-9.25,9.2-15.61,11.71,6.84-8,10.31-17.3,10.41-27.89l12.29,5.2v-6.79h-16.19l-1.16-3.9h31.94l2.75-5.2-4.77,1.59c-.58.1-1.01,0-1.3-.29-.48-.39-.77-.82-.87-1.3v-1.73h-11.27v.87c0,.87-.43,1.45-1.3,1.73l-7.23,1.88c-.48.19-.87.14-1.16-.14-.39-.19-.58-.53-.58-1.01v-1.73l-10.7,7.08v23.7c0,1.64-.29,3.08-.87,4.34-1.54,2.99-3.95,4.82-7.23,5.49-1.73.1-2.99-.58-3.76-2.02-1.45-3.57-3.85-5.97-7.23-7.23,2.12.1,4.62.34,7.52.72.67,0,1.2-.17,1.59-.51.38-.34.63-.84.72-1.52v-16.91l-3.18,2.02c0,.58-.24.96-.72,1.16-.58.1-1.01,0-1.3-.29l-5.2-10.55,10.41-2.46v-10.12h-8.82l-1.45-4.34h10.26V10.87l10.12,2.89c.67.1,1.11.43,1.3,1.01.19.68.05,1.2-.43,1.59l-1.73,1.45v10.55h.87l2.46-3.76c.29-.39.67-.63,1.16-.72.58-.1,1.06.05,1.45.43l4.77,4.77V11.88ZM543.85,32.69v7.95l10.7-2.46v-5.49h-10.7ZM565.67,58.85l-2.31.14c-.67,1.54-1.45,3.04-2.31,4.48,1.25,1.35,2.79,2.55,4.62,3.61v-8.24ZM564.81,18.1v5.78h11.27v-5.78h-11.27ZM564.81,27.78v6.5h11.27v-6.5h-11.27Z"/>
        <path class="cls-3" d="M614.96,32.62v44.01c0,1.25-.53,2.26-1.59,3.04-1.93,1.11-4.12,1.73-6.58,1.88-.53,0-1.02-.21-1.48-.61-.46-.41-.74-.88-.83-1.41v-36.78c-2.26,2.46-4.96,4.87-8.09,7.23,7.27-12.72,11.71-26.4,13.3-41.05l12.86,4.12c.53.34.79.79.79,1.37,0,.63-.31,1.06-.94,1.3l-2.02.43c-1.45,4.38-3.23,8.43-5.35,12.14l1.66,1.01c.34.24.51.58.51,1.01,0,.39-.14.72-.43,1.01l-1.81,1.3ZM628.47,59.79l11.49,3.83c.58.24.87.7.87,1.37,0,.77-.34,1.23-1.01,1.37l-3.04.07c-5.73,7.13-13.06,11.68-21.97,13.66,6.26-5.59,10.82-12.36,13.66-20.31ZM616.98,32.62h9.76V9.71l11.06.94c.77.14,1.23.63,1.37,1.45.1.72-.19,1.3-.87,1.73l-1.59.51v18.28h8.67V9.93l11.06.58c.72.1,1.2.53,1.45,1.3.14.68-.1,1.28-.72,1.81l-1.81.87v18.14h.72l3.04-4.41c.48-.63,1.2-1.04,2.17-1.23,1.01-.1,1.83.14,2.46.72l4.77,4.55c.34.48.43.96.29,1.45-.29.53-.67.87-1.16,1.01h-12.29v21.03h1.81l2.75-3.9c.58-.63,1.3-.99,2.17-1.08.87-.1,1.64.1,2.31.58l5.28,4.48c.38.48.48,1.06.29,1.73-.24.58-.7.94-1.37,1.08h-51.6l-1.66-2.89h11.42v-21.03h-7.8l-1.95-2.1ZM636.71,34.72v21.03h8.67v-21.03h-8.67ZM642.06,60.59c4.48-.39,8.72.42,12.72,2.42,4,2,7.18,4.9,9.54,8.71.67,1.11.98,2.32.9,3.65-.07,1.32-.49,2.52-1.26,3.58-1.69,1.88-3.71,2.48-6.07,1.81-2.07-.58-3.45-1.9-4.12-3.97-1.73-6.89-5.64-12.29-11.71-16.19Z"/>
      </g>
      <g>
        <path class="cls-7" d="M19.56,87.38c-3.17,0-6.11-1.89-7.38-4.91-1.49-3.55-.24-7.65,2.97-9.77,5.6-3.7,9.4-8.59,11.61-14.95-.05.02-.1.03-.15.05-1.28,1.02-2.78,1.74-4.44,2.12-.84.2-1.71.3-2.58.3-1.95,0-3.82-.5-5.56-1.48-.06-.03-.11-.06-.17-.1-5.13-3.05-9.39-7.24-12.66-12.45-1.66-2.64-1.63-6,.07-8.61,1.23-1.9,3.18-3.15,5.34-3.52-.91-1.23-1.48-2.72-1.56-4.34-.21-4.08,2.69-7.67,6.73-8.32,10.49-1.68,20.3-5.29,29.22-10.75.45-1.83,1.47-3.49,2.98-4.77.3-.26.62-.49.96-.7,1.51-.94,3.23-1.44,4.97-1.44,1.11,0,2.2.2,3.24.59.06.02,12.7,5.13,12.7,5.13.27.11.54.24.8.38,2.48,1.34,4.49,3.21,5.95,5.55.19.3.36.62.5.94,1.31,2.88,1.15,6.08-.42,8.79-.47.83-1.05,1.58-1.72,2.21,4.19,1.71,7.76,4.57,10.48,8.41.4.56.72,1.17.96,1.82,1.17,3.12.81,6.51-.98,9.3-.14.21-.28.42-.44.61-2,2.54-4.97,4-8.15,4-.11,0-.21,0-.32,0-5.59,0-11.16.28-16.61.81-.9,4.55-2.47,8.98-4.7,13.21-.07.13-.14.26-.22.38-3.29,5.49-7.54,10.13-12.63,13.79-5.1,3.67-10.86,6.21-17.14,7.55-.56.12-1.12.18-1.67.18Z"/>
        <path class="cls-5" d="M93.95,60.56c-1.23,0-2.48-.21-3.72-.62-.32-.11-.64-.24-.94-.38-7.27-3.51-12.72-9.07-16.2-16.54-1.25-2.67-.92-5.81.84-8.17,1.52-2.04,3.91-3.21,6.41-3.21.4,0,.79.03,1.19.09,4.14.62,8.35.94,12.52.94,2.28,0,4.6-.09,6.89-.28.07,0,16.26-.88,16.26-.88.07,0,16.2-.42,16.2-.42l1.97-.45c1.1-.35,2.24-.53,3.41-.53,1.88,0,3.74.46,5.56,1.36.23.11.45.24.66.37,3.26,2.04,6.37,4.16,9.23,6.31.3.23.59.48.86.74,2.07,2.07,3.21,4.82,3.21,7.75s-1.14,5.68-3.21,7.75c-.08.08-.17.16-.25.24-2.39,2.19-5.33,3.35-8.49,3.35-.81,0-1.63-.08-2.44-.23-.09-.02-.17-.03-.26-.05-6.89-1.53-13.86-2.31-20.71-2.31-7.28,0-14.66.88-21.94,2.61-.17.07-.29.13-.36.19-1.9,1.55-4.2,2.37-6.67,2.37Z"/>
        <path class="cls-6" d="M166.46,86.28c-2.56,0-4.97-1.01-6.79-2.83-5.88-5.94-9.04-13.16-9.42-21.48-.14-3.1,1.52-6,4.27-7.45,1.17-.62,2.45-.92,3.72-.92,1.71,0,3.41.55,4.83,1.62.27.2.54.34.98.39,2.99-9.53,5.25-19.33,6.73-29.22-1.64-1.07-2.85-2.71-3.36-4.65-.69-2.6-.02-5.38,1.78-7.39,2.36-2.63,5.3-4.38,8.74-5.19,1.29-.3,2.59-.46,3.87-.46,2.19,0,4.35.45,6.4,1.32.05.02.11.05.16.07,4.71,2.14,8.93,5.27,12.55,9.32.34.38.64.79.9,1.22,1.42,2.36,1.92,5.06,1.46,7.82,0,.05-.02.11-.03.16-.49,2.64-1.97,4.99-4.18,6.69l-.06.06v.03c8.26,3.15,15.65,7.88,21.99,14.07.11.1.21.21.31.32,4.19,4.58,6.81,9.99,7.78,16.06.74,4.95-.36,9.7-3.18,13.81-.2.29-.42.57-.65.83-1.81,2.01-4.04,3.46-6.64,4.31-1.49.49-3.02.73-4.55.73-1.16,0-2.32-.14-3.47-.42-2.48-.52-4.77-1.75-6.66-3.58-1.93-1.88-3.26-4.23-3.84-6.81-8.79,2.33-17.49,4.99-25.97,7.94-1.33,1.64-3.16,2.83-5.27,3.35-.05.01-.09.02-.14.03-.74.17-1.5.26-2.25.26ZM188.89,53.9l4.07-.36c-.68-1.04-1.42-2.05-2.22-3.02l-1.84,3.38Z"/>
        <path class="cls-4" d="M270.26,87.02c-2.5,0-5.05-.24-7.57-.72-6.39-1.24-11.69-4.42-15.78-9.47-4.08-5.04-6.12-10.84-6.05-17.27.02-2.95.3-5.86.83-8.69-.89.16-1.81.26-2.75.29-.09,0-.18,0-.27,0-.45,0-.91-.04-1.36-.12-4.53-.78-8.44-2.89-11.62-6.26-3.24-3.43-5.08-7.54-5.47-12.22-.22-2.57.82-5.09,2.79-6.77,1.46-1.24,3.31-1.91,5.19-1.91.65,0,1.3.08,1.94.24l2.88.72c.14,0,.48-.02,1.07-.34.11-.06.22-.11.34-.17,11.11-5.17,22.6-9.62,34.24-13.26.84-3.14,3.54-5.5,6.85-5.87.8-.09,1.61-.15,2.42-.19.67-.96,1.56-1.78,2.64-2.38,3.15-1.77,6.59-2.66,10.2-2.66.81,0,1.64.05,2.46.14,4.54.5,8.53,2.29,11.87,5.31.21.19.42.4.61.61,1.96,2.2,3.09,4.93,3.27,7.9.17,2.82-.52,5.58-2.01,7.99-.15.25-.32.49-.5.72-2.13,2.73-5.17,4.33-8.63,4.57-.9,1.23-2.04,2.27-3.38,3.07-.13.08-.27.16-.41.23-.29.78-.68,1.52-1.17,2.23-1.87,2.76-4.77,4.34-8,4.34-.28,0-.56-.01-.84-.04-.33-.01-.66-.02-.99-.02-3.99,0-7.67.96-11.25,2.92-1.89,1.39-3.34,3.09-4.43,5.18-1.12,2.15-1.65,4.41-1.62,6.89,0,.28,0,.56-.03.84-.11,1.19.08,2.27.59,3.37.34.74.78,1.34,1.34,1.83.9.25,1.77.37,2.65.37.97,0,1.93-.15,2.94-.45.46-.14.94-.24,1.42-.29.51-.06,1.02-.08,1.53-.08,2.53,0,4.97.69,7.23,2.04.33.2.64.41.93.65,2.45,1.99,4.34,4.34,5.62,6.98,1.62,3.37,1.71,7.11.26,10.55-1.37,3.3-4,5.84-7.43,7.14-.14.05-.28.1-.42.15-3.96,1.26-8.03,1.89-12.09,1.89Z"/>
        <path class="cls-1" d="M337.78,84.78c-1.67,0-3.37-.09-5.06-.27-3.05-.32-5.57-2.33-6.63-5.08-1.64.66-3.33,1-5.03,1s-3.47-.35-5.12-1.04c-.2-.08-.39-.17-.58-.27-3.23-1.67-5.67-4.14-7.15-7.17-1.87-.78-3.6-1.86-5.18-3.24-2.95-2.59-4.98-5.85-6.02-9.7-.04-.15-.08-.3-.11-.45-1.4-6.65-.47-13.08,2.74-19.12,3.01-6.04,7.21-11.24,12.49-15.45,5.29-4.22,11.34-7.14,17.97-8.66,3.69-1,7.4-1.5,11.02-1.5,6.21,0,12.3,1.47,18.12,4.38,4.7,2.22,8.76,5.32,12.05,9.23,3.35,3.98,5.71,8.58,7.02,13.69,1.47,5.74,1.37,11.49-.3,17.09-1.67,5.61-4.74,10.49-9.14,14.51-4.85,4.5-10.53,7.83-16.83,9.84-4.63,1.48-9.43,2.23-14.25,2.23ZM347.62,53.68c-.3,1.37-.68,2.71-1.12,4.01,1.56-2.23,2.79-4.68,3.71-7.38.62-2.18.73-4.29.34-6.46-.28-1.52-.8-2.94-1.57-4.27.38,4.61-.07,9.32-1.36,14.11Z"/>
        <path class="cls-2" d="M407.27,88.97c-2.64,0-5.07-.93-6.96-2.64-1.2.87-2.57,1.46-4.04,1.76-.38.08-.76.13-1.15.15l-5.35.29c-.14,0-.29.01-.43.01-2.5,0-4.78-.82-6.58-2.36-.16-.13-.31-.27-.45-.42-1.88-1.88-2.92-4.3-2.92-6.81v-25.77c-.55-.08-1.1-.2-1.65-.36-3.45-.95-6.28-3.24-7.93-6.45-1.54-2.89-1.94-6.04-1.17-9.11.6-2.42,1.74-4.58,3.37-6.41.16-.18.33-.35.5-.52,1.47-1.38,2.1-2.79,2.1-4.71,0-3.19,1.89-6.05,4.77-7.32v-7.42c0-2.57,1.23-4.98,3.31-6.48,1.38-1,3.03-1.52,4.69-1.52.84,0,1.68.13,2.5.4l10.55,3.47c.16.05.32.11.48.17,2.5,1,4.4,2.99,5.32,5.5h2.5v-2.7c0-2.42,1.09-4.71,2.97-6.22,1.44-1.16,3.21-1.78,5.03-1.78.56,0,1.13.06,1.69.18l11.96,2.58c1.94.38,3.66,1.33,4.99,2.72.07-.01.15-.03.22-.04.53-.1,1.07-.14,1.62-.14,1.35,0,2.69.29,4.01.88.95.42,1.81,1.02,2.53,1.77l5.18,5.39c3.13,2.86,4.02,7.17,2.28,11.21-.36.88-.83,1.68-1.39,2.4.24.95.33,1.94.27,2.95l1.9,2.15c.27.31.52.64.74.98,1.87,2.91,2.18,6.38.84,9.5-.76,1.77-1.97,3.22-3.49,4.27,0,.18.01.35.01.53,0,2.17-.7,4.2-2.02,5.9v16.8c0,3.26-1,6.32-2.9,8.85-3.67,4.83-8.73,7.62-14.66,8.09-.37.03-.66.04-.95.04-3.36,0-6.42-1.39-8.6-3.87-1.2,1.35-2.8,2.38-4.68,2.94-.42.13-.84.22-1.28.27l-6.72.87c-.34.04-.68.07-1.02.07Z"/>
        <path class="cls-10" d="M463.63,88.27c-2.21,0-4.34-.77-6.15-2.22-.23-.19-.45-.38-.66-.59-1.57-1.57-2.59-3.57-2.96-5.79-.07-.43-.11-.87-.11-1.31v-5.44h-1.11c-2.98,0-5.72-1.66-7.1-4.31l-1.88-3.61c-1.21-2.32-1.2-5.07,0-7.38l-1.88-3.61c-1.29-2.48-1.19-5.45.26-7.84.44-.72.98-1.35,1.59-1.89-.44-.58-.8-1.23-1.07-1.93l-1.45-3.76c-.95-2.46-.62-5.23.87-7.4.69-1,1.58-1.81,2.6-2.4l-.9-2.43c-.91-2.46-.56-5.2.94-7.35,1.5-2.15,3.95-3.43,6.57-3.43h2.12v-5.3c0-2.41,1.08-4.69,2.95-6.2,1.44-1.17,3.23-1.8,5.05-1.8.54,0,1.08.05,1.62.17l11.85,2.46c.68.14,1.34.37,1.96.68.72.36,1.4.82,2,1.35.48-.64,1.05-1.21,1.72-1.69,1.38-1,3.03-1.52,4.69-1.52.84,0,1.68.13,2.5.4l9.77,3.21h3.69l.44-.55c1.54-1.98,3.71-3.24,6.09-3.56.5-.09,1.01-.13,1.52-.13,1.46,0,2.9.35,4.27,1.03.31.16.62.33.91.53l6.97,4.7c2.74,1.75,4.36,4.67,4.36,7.86,0,2.7-1.05,5.19-2.92,6.97-.56,3.9-1.38,7.77-2.44,11.53-.06.2-.12.4-.19.59-.04.12-.09.24-.14.36l1.75,1.33c2.57,1.77,4.09,4.66,4.09,7.83,0,2.49-.9,4.8-2.5,6.55-.58,3.38-1.52,6.63-2.83,9.71,1.19.61,2.46,1.11,3.81,1.52,3.07.91,5.3,3.57,5.67,6.75s-1.2,6.27-3.98,7.86c-3.01,1.72-5.99,3.74-8.85,5.99-1.45,1.15-3.2,1.72-4.95,1.72s-3.6-.61-5.08-1.82c-.99-.81-1.95-1.66-2.88-2.52-1.15.77-2.34,1.48-3.57,2.14-1.13.97-2.53,1.64-4.1,1.92l-6.82,1.87c-.69.19-1.4.29-2.12.29-2.65,0-5.06-.9-6.98-2.6-1.04-.92-1.86-2.02-2.45-3.26-1.05,1.66-2.59,3.01-4.52,3.86-.39.17-.79.31-1.19.42l-6.5,1.73c-.16.04-.33.08-.5.12-.61.12-1.23.18-1.85.18Z"/>
        <path class="cls-11" d="M535.44,88.4c-4.55,0-8.37-2.28-10.5-6.27-.13-.25-.25-.5-.35-.76-.74-1.83-1.69-2.39-2.6-2.73-3.69-1.37-5.84-5.23-5.05-9.09.76-3.74,4.05-6.4,7.83-6.4.12,0,.25,0,.37,0,.33.02.67.03,1.02.06-.89-.44-1.7-1.01-2.42-1.73-.62-.62-1.13-1.33-1.52-2.12l-5.2-10.55c-1.08-2.19-1.1-4.74-.06-6.95.69-1.47,1.81-2.68,3.19-3.49-.87-.86-1.54-1.93-1.95-3.15l-1.45-4.34c-.81-2.44-.4-5.12,1.1-7.21,1.5-2.09,3.92-3.32,6.49-3.32h2.26v-9.49c0-2.51,1.18-4.88,3.18-6.39,1.4-1.06,3.1-1.61,4.82-1.61.74,0,1.47.1,2.2.31l9.77,2.79c.69.15,1.34.36,1.96.64.32-.36.67-.69,1.05-.99,1.43-1.13,3.18-1.73,4.97-1.73.61,0,1.22.07,1.83.21l8.35,1.96h7.83c.19-.24.39-.47.61-.69,1.36-1.36,3.07-2.35,4.93-2.86.8-.22,1.63-.33,2.47-.33,2.37,0,4.65.91,6.47,2.57l6.04,5.05c.32.27.62.56.89.87,3.12,3.57,3.29,8.47.53,12.18v14.33c0,.14,0,.28-.01.42,0,0,2.54,2.86,2.57,2.9,2.65,3.09,3.18,7.1,1.47,10.61-.34.78-.78,1.5-1.28,2.15,1.74,2.46,2.17,5.57,1.18,8.56-.05.15-.11.3-.17.45-.01.03-.02.06-.04.09,1.53.82,2.79,2.13,3.53,3.79,1.43,3.21.6,6.97-2.04,9.28-2.23,1.95-3.93,4.27-5.2,7.09-1.09,2.42-3.3,4.14-5.91,4.6-2.64.46-5.29.7-7.88.7-3.92,0-7.82-.54-11.58-1.6-.18-.05-.36-.11-.54-.17-4.3-1.55-7.98-3.83-11-6.82-3.46,2.78-7.37,5.04-11.68,6.73-.96.38-1.95.56-2.93.56-.22,0-.43,0-.65-.03-1.52.79-3.18,1.37-4.96,1.74-.39.08-.78.13-1.17.15-.26.01-.51.02-.76.02Z"/>
        <path class="cls-8" d="M606.79,89.55c-2.48,0-4.9-.94-6.81-2.65-1.79-1.6-2.96-3.66-3.37-5.95-.08-.47-.13-.95-.13-1.42v-21.56s-.06,0-.09,0c-1.89,0-3.78-.67-5.29-2-2.85-2.51-3.54-6.68-1.66-9.97,6.69-11.7,10.83-24.46,12.29-37.94.26-2.39,1.58-4.53,3.59-5.84,1.31-.85,2.83-1.29,4.36-1.29.82,0,1.64.13,2.44.38l8.88,2.84c.11-.11.21-.22.33-.32,1.48-1.36,3.42-2.11,5.41-2.11.22,0,.45,0,.68.03l11.06.94c.27.02.53.06.8.11.59.11,1.16.27,1.7.47,1.3-.86,2.84-1.33,4.42-1.33.14,0,.28,0,.42.01l11.06.58c.22.01.43.03.65.06,3.78.51,6.85,3.13,8.01,6.84.07.24.14.48.19.72.67,3.11-.21,6.23-2.35,8.6v.35c2.19.31,4.18,1.24,5.81,2.75.03.03,4.87,4.65,4.87,4.65.38.37.73.77,1.03,1.2,1.73,2.48,2.24,5.51,1.39,8.33-.16.53-.37,1.04-.64,1.52-1.29,2.38-3.38,4.1-5.88,4.85-.75.22-1.52.34-2.3.34h-4.29v.05c2.05.15,3.99.86,5.68,2.06.18.13.36.27.54.42l5.28,4.48c.39.33.75.7,1.07,1.11,2,2.51,2.63,5.76,1.73,8.92-.09.3-.19.6-.31.89-1.23,2.96-3.75,5.06-6.92,5.79.24.35.47.71.7,1.08,1.54,2.54,2.25,5.39,2.09,8.3-.16,2.88-1.09,5.52-2.78,7.85-.16.22-.33.44-.52.64-2.78,3.09-6.31,4.73-10.22,4.73-1.32,0-2.66-.19-4-.57-4.62-1.29-8.02-4.56-9.53-9.19-.06-.17-.11-.35-.15-.52-.49-1.96-1.23-3.74-2.21-5.34-.71.36-1.48.63-2.3.81-.32.07-.65.12-.98.15-6.49,6.92-14.53,11.48-23.97,13.57-.58.13-1.16.19-1.73.19-.2,0-.39,0-.58-.02-2.17.82-4.5,1.31-6.97,1.45-.16,0-.31.01-.47.01Z"/>
      </g>
      <g>
        <path class="cls-9" d="M48.76,13.04c-.05-.43.1-.79.43-1.08.38-.24.77-.29,1.16-.14l12.5,5.06c1.25.68,2.24,1.59,2.96,2.75.24.53.22,1.04-.07,1.52-.29.53-.75.79-1.37.79l-4.19.43-12.72,4.19,3.61,3.11c.38.14.58.46.58.94,0,.43-.19.77-.58,1.01l-.79.79c-.67.63-.94,1.42-.79,2.38v2.1l9.18-1.3c1.25-.24,2.36-.7,3.32-1.37,1.01-.43,2.05-.55,3.11-.36,4.09.87,7.37,3.04,9.83,6.5.29.77.22,1.49-.22,2.17-.53.68-1.21.99-2.02.94-8.14,0-16.12.53-23.92,1.59-.29,5.83-1.83,11.39-4.62,16.69-2.75,4.58-6.23,8.38-10.44,11.42-4.22,3.04-8.92,5.11-14.13,6.21,7.23-4.77,12.21-11.3,14.96-19.58,1.16-4.05,2-8.31,2.53-12.79-5.06.82-9.97,2.1-14.74,3.83-.48.68-1.13,1.11-1.95,1.3-.82.19-1.61.07-2.38-.36-4.05-2.41-7.37-5.68-9.97-9.83l5.56.79c1.49.29,3.06.31,4.7.07l19.37-3.83-1.16-8.96c-.24-.72-.7-1.13-1.37-1.23-7.52.72-14.86.89-22.04.51,13.25-2.12,25.34-6.96,36.28-14.53l-.58-1.73Z"/>
        <path class="cls-9" d="M80.34,39.63c7.03,1.06,14.12,1.3,21.25.72l16.04-.87,16.77-.43,3.18-.72c.96-.39,2.02-.29,3.18.29,3.08,1.93,5.97,3.9,8.67,5.93.58.58.87,1.28.87,2.1s-.29,1.52-.87,2.1c-1.16,1.06-2.51,1.45-4.05,1.16-15.61-3.47-31.17-3.32-46.68.43-1.16.39-2.17.92-3.04,1.59-.77.68-1.73.82-2.89.43-5.59-2.7-9.73-6.94-12.43-12.72Z"/>
        <path class="cls-9" d="M175.15,19.69c1.25-1.4,2.79-2.31,4.62-2.75,1.83-.43,3.59-.29,5.28.43,3.71,1.69,7.01,4.14,9.9,7.37.43.72.58,1.52.43,2.38-.14.77-.6,1.42-1.37,1.95l-1.37,1.23-17.92,32.88,30.13-2.67c-2.07-7.08-5.76-13.25-11.06-18.5,8.24,2.75,15.44,7.13,21.61,13.15,3.13,3.42,5.06,7.4,5.78,11.92.43,2.89-.19,5.56-1.88,8.02-.87.96-1.93,1.65-3.18,2.06-1.25.41-2.51.44-3.76.11-1.06-.19-2.01-.7-2.85-1.52-.84-.82-1.39-1.78-1.63-2.89l-1.81-7.95c-12.38,2.99-24.5,6.58-36.35,10.77-.77.29-1.3.79-1.59,1.52-.24.53-.65.87-1.23,1.01-.63.14-1.16,0-1.59-.43-4.43-4.48-6.79-9.88-7.08-16.19,1.78,1.35,3.83,2.02,6.14,2.02l5.56-.36c4.29-12.43,7.32-25.17,9.11-38.23.38-2.17-.41-3.78-2.38-4.84l-1.52-.51Z"/>
        <path class="cls-9" d="M228.19,31.9l3.47.87c2.07.29,4.12-.1,6.14-1.16,12.43-5.78,25.17-10.57,38.23-14.38.72-.14,1.35-.05,1.88.29,3.52,2.31,6.33,5.25,8.46,8.82.38.68.36,1.3-.07,1.88-.43.68-.99.96-1.66.87-6.07-.29-11.78,1.08-17.13,4.12-3.08,2.17-5.49,4.91-7.23,8.24s-2.58,6.89-2.53,10.7c-.24,2.6.19,5.09,1.3,7.48,1.11,2.38,2.75,4.28,4.91,5.67,3.85,1.4,7.71,1.52,11.56.36,1.3-.14,2.55.14,3.76.87,1.54,1.25,2.7,2.67,3.47,4.26.63,1.3.65,2.63.07,3.97-.53,1.3-1.49,2.22-2.89,2.75-5.16,1.64-10.41,1.95-15.75.94-4.48-.87-8.17-3.08-11.06-6.65s-4.31-7.61-4.26-12.14c.05-5.93,1.28-11.49,3.69-16.69,2.41-5.2,5.85-9.71,10.33-13.51-6.55,1.93-12.29,5.32-17.2,10.19-1.78,2.27-4.12,3.44-7.01,3.54-2.79-.48-5.18-1.77-7.15-3.87-1.98-2.1-3.08-4.56-3.32-7.41ZM276.39,13.18c3.52-.39,6.99-.14,10.41.72,1.25.34,2.35.99,3.29,1.95.94.96,1.55,2.07,1.84,3.32.24.82.22,1.63-.07,2.42s-.79,1.41-1.52,1.84c-1.21.63-2.43.75-3.69.36-1.25-.39-2.22-1.16-2.89-2.31l-1.52-3.18c-1.21-2.55-3.16-4.26-5.85-5.13ZM284.49,9.64c2.41-1.35,5.03-1.87,7.88-1.55,2.84.31,5.3,1.41,7.37,3.29.77.87,1.19,1.89,1.26,3.07.07,1.18-.21,2.28-.83,3.29-.87,1.11-2.07,1.61-3.61,1.52-1.49-.14-2.58-.84-3.25-2.1l-2.1-3.9c-1.59-2.41-3.83-3.61-6.72-3.61Z"/>
        <path class="cls-9" d="M336.66,26.77c4.53,7.9,5.59,16.24,3.18,25-.96,4.48-2.87,8.49-5.71,12.03-2.84,3.54-6.36,6.2-10.55,7.99-1.54.77-3.06.84-4.55.22-2.7-1.4-4.19-3.61-4.48-6.65-2.41-.24-4.49-1.13-6.25-2.67-1.76-1.54-2.95-3.47-3.58-5.78-1.01-4.82-.34-9.42,2.02-13.8,2.5-5.06,5.96-9.35,10.37-12.86,4.41-3.52,9.38-5.9,14.92-7.15,8.24-2.26,16.14-1.49,23.7,2.31,3.71,1.73,6.85,4.13,9.43,7.19,2.58,3.06,4.37,6.56,5.38,10.51,1.11,4.34,1.04,8.61-.22,12.83-1.25,4.22-3.54,7.84-6.87,10.88-4.05,3.76-8.67,6.47-13.88,8.13s-10.55,2.2-16.04,1.63c5.73-1.83,10.73-4.83,15-9,4.26-4.17,7.36-9.12,9.29-14.85,1.01-3.42,1.2-6.85.58-10.3-.63-3.44-2.05-6.59-4.26-9.43-2.26-2.46-4.93-4.23-7.99-5.31-3.06-1.08-6.23-1.38-9.5-.9ZM330.3,28.58c-7.85,5.16-12.82,12.36-14.89,21.61-1.01,4.1-.51,7.95,1.52,11.56.58.58,1.28.93,2.1,1.05.82.12,1.54-.16,2.17-.83,4.38-4.43,7.37-9.6,8.96-15.5,1.59-5.9,1.64-11.86.14-17.89Z"/>
        <path class="cls-9" d="M382.62,25.61c2.79,3.85,4.12,8.24,3.97,13.15-.1,1.25-.34,2.41-.72,3.47-.43.96-1.11,1.73-2.02,2.31-1.25.77-2.55.96-3.9.58-1.4-.39-2.41-1.2-3.04-2.46-.63-1.16-.79-2.31-.51-3.47s.82-2.17,1.59-3.04c3.08-2.89,4.62-6.41,4.62-10.55ZM387.39,10.87l10.55,3.47c.48.19.77.58.87,1.16,0,.58-.22,1.06-.65,1.45l-1.73,1.01v6.21c3.76.1,6.77,1.64,9.03,4.62h11.27v-4.34h-12.29l-2.02-4.05h14.31v-10.7l12.07,2.6c.58.1.99.48,1.23,1.16.1.68-.05,1.2-.43,1.59l-2.38,1.88v3.47h5.78l3.04-4.77c.24-.39.53-.58.87-.58.29-.1.65-.05,1.08.14l5.42,5.64c.72.58.87,1.35.43,2.31-.34.87-.99,1.3-1.95,1.3h-14.67v4.34h5.64l2.46-3.32c.19-.29.53-.48,1.01-.58.48,0,.87.14,1.16.43l4.19,4.62c.43.39.55.92.36,1.59-.29.68-.77,1.01-1.45,1.01h-13.37v5.78h8.02l3.04-3.9c.43-.48.94-.77,1.52-.87.67-.1,1.25.05,1.73.43l4.48,5.06c.43.68.51,1.35.22,2.02-.29.68-.82,1.06-1.59,1.16h-42.56l-1.52-3.9h16.19v-5.78h-9.61c.14.87.05,1.64-.29,2.31-.67,1.16-1.65,1.95-2.93,2.38-1.28.43-2.52.36-3.72-.22-.87-.39-1.54-1.01-2.02-1.88-.34-.96-.48-1.88-.43-2.75.24-2.12-.19-4.09-1.3-5.93v51.74c0,.58-.17,1.04-.51,1.37-.34.34-.75.55-1.23.65l-5.35.29c-.58,0-1.04-.14-1.37-.43-.39-.39-.58-.77-.58-1.16V10.87ZM404.81,43.1l10.26,2.75h14.67l1.95-2.17c.87-1.06,1.9-1.2,3.11-.43l6.79,4.91c.34.19.51.48.51.87s-.12.72-.36,1.01l-1.66,1.73v19.95c0,1.54-.43,2.89-1.3,4.05-2.26,2.99-5.23,4.62-8.89,4.91-1.4.1-2.48-.43-3.25-1.59-1.83-2.99-4.24-5.2-7.23-6.65,2.46,0,4.77.19,6.94.58.72.1,1.4-.07,2.02-.51.63-.43.99-1.04,1.08-1.81v-5.64h-14.02v13.15c0,.96-.48,1.59-1.45,1.88l-6.72.87c-.72,0-1.3-.24-1.73-.72-.48-.39-.72-.92-.72-1.59v-35.55ZM415.43,49.75v3.47h14.02v-3.47h-14.02ZM415.43,57.27v3.61h14.02v-3.61h-14.02Z"/>
        <path class="cls-9" d="M461.32,10.29l11.85,2.46c.38.19.67.53.87,1.01.1.48,0,.87-.29,1.16l-2.02,2.31v6.36h2.02l3.04-4.34c.19-.29.58-.48,1.16-.58.48-.1.87.05,1.16.43l5.2,6.36c.29.48.29.96,0,1.45-.29.39-.67.58-1.16.58h-11.42v8.24h2.75l3.47-5.06c.19-.29.53-.48,1.01-.58.38,0,.72.14,1.01.43l5.2,5.64V11.74l10.98,3.61h8.82l2.89-3.61c.29-.39.63-.58,1.01-.58.29-.1.63-.05,1.01.14l7.08,4.77c.48.29.72.68.72,1.16,0,.58-.19,1.01-.58,1.3l-1.88,1.45c-.48,4.62-1.35,9.15-2.6,13.59-.67,1.83-1.86,3.28-3.54,4.34-1.69,1.06-3.54,1.4-5.56,1.01-.77-.1-1.35-.53-1.73-1.3-1.35-2.7-3.32-4.87-5.93-6.5l6.36.72c.48.1.87,0,1.16-.29s.48-.67.58-1.16c.67-3.76,1.06-7.61,1.16-11.56h-9.54v23.7h10.98l2.02-2.6c.58-.67,1.2-.82,1.88-.43l6.65,5.06c.48.29.72.72.72,1.3s-.19,1.01-.58,1.3l-1.45,1.16c-.58,5.97-2.46,11.37-5.64,16.19,3.37,3.18,7.32,5.44,11.85,6.79-3.37,1.93-6.65,4.14-9.83,6.65-2.7-2.22-5.11-4.62-7.23-7.23-2.7,2.7-5.83,4.91-9.39,6.65,0,.29-.19.43-.58.43l-7.37,2.02c-.67,0-1.23-.19-1.66-.58-.43-.39-.7-.92-.79-1.59v-23.7h-13.44v7.37h2.31l3.04-4.19c.19-.29.53-.48,1.01-.58.38,0,.72.14,1.01.43l5.2,5.06c.48.58.58,1.2.29,1.88-.29.58-.77.92-1.45,1.01h-11.42v11.71c0,.87-.43,1.49-1.3,1.88l-6.5,1.73c-.48.1-.96-.05-1.45-.43-.39-.39-.63-.87-.72-1.45v-13.44h-9.11l-1.88-3.61h10.98v-7.37h-10.98l-1.88-3.61h8.53c-1.64-1.54-2.12-3.37-1.45-5.49.58-1.73.58-3.52,0-5.35h-5.93l-1.45-3.76h12.72v-8.24h-8.67l-1.45-3.9h10.12v-13.3ZM460.31,39.49c2.02.87,3.56,2.27,4.62,4.19.67,1.06.92,2.22.72,3.47-.19,1.25-.77,2.31-1.73,3.18h5.35l1.01-10.84h-9.97ZM478.67,39.49l2.17,1.16c.38.39.53.82.43,1.3-.19.48-.53.82-1.01,1.01l-2.17.43-6.21,6.94h3.47l3.04-5.2c.29-.39.58-.58.87-.58.38,0,.72.14,1.01.43l4.91,5.35v-10.84h-6.5ZM495.58,46.28v28.47c2.5-2.79,4.53-5.93,6.07-9.39-3.18-5.78-4.77-12.14-4.77-19.08h-1.3ZM499.77,46.28c.87,4.24,2.41,8.14,4.62,11.71,1.16-3.85,1.69-7.76,1.59-11.71h-6.21Z"/>
        <path class="cls-9" d="M554.54,11.88l9.25,2.17h12.86l2.17-3.04c.38-.39.84-.65,1.37-.79.53-.14,1.04.02,1.52.51l6.21,5.2c.67.77.67,1.54,0,2.31l-1.45,1.01v17.92c-.1.87-.48,1.59-1.16,2.17l5.64,6.36c.58.68.67,1.35.29,2.02-.29.77-.82,1.2-1.59,1.3h-13.59v7.08h4.05l2.6-3.61c.29-.48.67-.72,1.16-.72s.87.19,1.16.58l5.64,5.49c.29.39.34.87.14,1.45-.19.48-.58.77-1.16.87h-13.59v10.26c5.88.1,12-.24,18.36-1.01-3.08,2.7-5.49,5.97-7.23,9.83-5.49.96-10.79.72-15.9-.72-5.88-2.12-10.12-6.02-12.72-11.71-4.05,5.3-9.25,9.2-15.61,11.71,6.84-8,10.31-17.3,10.41-27.89l12.29,5.2v-6.79h-16.19l-1.16-3.9h31.94l2.75-5.2-4.77,1.59c-.58.1-1.01,0-1.3-.29-.48-.39-.77-.82-.87-1.3v-1.73h-11.27v.87c0,.87-.43,1.45-1.3,1.73l-7.23,1.88c-.48.19-.87.14-1.16-.14-.39-.19-.58-.53-.58-1.01v-1.73l-10.7,7.08v23.7c0,1.64-.29,3.08-.87,4.34-1.54,2.99-3.95,4.82-7.23,5.49-1.73.1-2.99-.58-3.76-2.02-1.45-3.57-3.85-5.97-7.23-7.23,2.12.1,4.62.34,7.52.72.67,0,1.2-.17,1.59-.51.38-.34.63-.84.72-1.52v-16.91l-3.18,2.02c0,.58-.24.96-.72,1.16-.58.1-1.01,0-1.3-.29l-5.2-10.55,10.41-2.46v-10.12h-8.82l-1.45-4.34h10.26V10.87l10.12,2.89c.67.1,1.11.43,1.3,1.01.19.68.05,1.2-.43,1.59l-1.73,1.45v10.55h.87l2.46-3.76c.29-.39.67-.63,1.16-.72.58-.1,1.06.05,1.45.43l4.77,4.77V11.88ZM543.85,32.69v7.95l10.7-2.46v-5.49h-10.7ZM565.67,58.85l-2.31.14c-.67,1.54-1.45,3.04-2.31,4.48,1.25,1.35,2.79,2.55,4.62,3.61v-8.24ZM564.81,18.1v5.78h11.27v-5.78h-11.27ZM564.81,27.78v6.5h11.27v-6.5h-11.27Z"/>
        <path class="cls-9" d="M614.96,32.62v44.01c0,1.25-.53,2.26-1.59,3.04-1.93,1.11-4.12,1.73-6.58,1.88-.53,0-1.02-.21-1.48-.61-.46-.41-.74-.88-.83-1.41v-36.78c-2.26,2.46-4.96,4.87-8.09,7.23,7.27-12.72,11.71-26.4,13.3-41.05l12.86,4.12c.53.34.79.79.79,1.37,0,.63-.31,1.06-.94,1.3l-2.02.43c-1.45,4.38-3.23,8.43-5.35,12.14l1.66,1.01c.34.24.51.58.51,1.01,0,.39-.14.72-.43,1.01l-1.81,1.3ZM628.47,59.79l11.49,3.83c.58.24.87.7.87,1.37,0,.77-.34,1.23-1.01,1.37l-3.04.07c-5.73,7.13-13.06,11.68-21.97,13.66,6.26-5.59,10.82-12.36,13.66-20.31ZM616.98,32.62h9.76V9.71l11.06.94c.77.14,1.23.63,1.37,1.45.1.72-.19,1.3-.87,1.73l-1.59.51v18.28h8.67V9.93l11.06.58c.72.1,1.2.53,1.45,1.3.14.68-.1,1.28-.72,1.81l-1.81.87v18.14h.72l3.04-4.41c.48-.63,1.2-1.04,2.17-1.23,1.01-.1,1.83.14,2.46.72l4.77,4.55c.34.48.43.96.29,1.45-.29.53-.67.87-1.16,1.01h-12.29v21.03h1.81l2.75-3.9c.58-.63,1.3-.99,2.17-1.08.87-.1,1.64.1,2.31.58l5.28,4.48c.38.48.48,1.06.29,1.73-.24.58-.7.94-1.37,1.08h-51.6l-1.66-2.89h11.42v-21.03h-7.8l-1.95-2.1ZM636.71,34.72v21.03h8.67v-21.03h-8.67ZM642.06,60.59c4.48-.39,8.72.42,12.72,2.42,4,2,7.18,4.9,9.54,8.71.67,1.11.98,2.32.9,3.65-.07,1.32-.49,2.52-1.26,3.58-1.69,1.88-3.71,2.48-6.07,1.81-2.07-.58-3.45-1.9-4.12-3.97-1.73-6.89-5.64-12.29-11.71-16.19Z"/>
      </g>
      <g>
        <path class="cls-3" d="M48.76,13.04c-.05-.43.1-.79.43-1.08.38-.24.77-.29,1.16-.14l12.5,5.06c1.25.68,2.24,1.59,2.96,2.75.24.53.22,1.04-.07,1.52-.29.53-.75.79-1.37.79l-4.19.43-12.72,4.19,3.61,3.11c.38.14.58.46.58.94,0,.43-.19.77-.58,1.01l-.79.79c-.67.63-.94,1.42-.79,2.38v2.1l9.18-1.3c1.25-.24,2.36-.7,3.32-1.37,1.01-.43,2.05-.55,3.11-.36,4.09.87,7.37,3.04,9.83,6.5.29.77.22,1.49-.22,2.17-.53.68-1.21.99-2.02.94-8.14,0-16.12.53-23.92,1.59-.29,5.83-1.83,11.39-4.62,16.69-2.75,4.58-6.23,8.38-10.44,11.42-4.22,3.04-8.92,5.11-14.13,6.21,7.23-4.77,12.21-11.3,14.96-19.58,1.16-4.05,2-8.31,2.53-12.79-5.06.82-9.97,2.1-14.74,3.83-.48.68-1.13,1.11-1.95,1.3-.82.19-1.61.07-2.38-.36-4.05-2.41-7.37-5.68-9.97-9.83l5.56.79c1.49.29,3.06.31,4.7.07l19.37-3.83-1.16-8.96c-.24-.72-.7-1.13-1.37-1.23-7.52.72-14.86.89-22.04.51,13.25-2.12,25.34-6.96,36.28-14.53l-.58-1.73Z"/>
        <path class="cls-3" d="M80.34,39.63c7.03,1.06,14.12,1.3,21.25.72l16.04-.87,16.77-.43,3.18-.72c.96-.39,2.02-.29,3.18.29,3.08,1.93,5.97,3.9,8.67,5.93.58.58.87,1.28.87,2.1s-.29,1.52-.87,2.1c-1.16,1.06-2.51,1.45-4.05,1.16-15.61-3.47-31.17-3.32-46.68.43-1.16.39-2.17.92-3.04,1.59-.77.68-1.73.82-2.89.43-5.59-2.7-9.73-6.94-12.43-12.72Z"/>
        <path class="cls-3" d="M175.15,19.69c1.25-1.4,2.79-2.31,4.62-2.75,1.83-.43,3.59-.29,5.28.43,3.71,1.69,7.01,4.14,9.9,7.37.43.72.58,1.52.43,2.38-.14.77-.6,1.42-1.37,1.95l-1.37,1.23-17.92,32.88,30.13-2.67c-2.07-7.08-5.76-13.25-11.06-18.5,8.24,2.75,15.44,7.13,21.61,13.15,3.13,3.42,5.06,7.4,5.78,11.92.43,2.89-.19,5.56-1.88,8.02-.87.96-1.93,1.65-3.18,2.06-1.25.41-2.51.44-3.76.11-1.06-.19-2.01-.7-2.85-1.52-.84-.82-1.39-1.78-1.63-2.89l-1.81-7.95c-12.38,2.99-24.5,6.58-36.35,10.77-.77.29-1.3.79-1.59,1.52-.24.53-.65.87-1.23,1.01-.63.14-1.16,0-1.59-.43-4.43-4.48-6.79-9.88-7.08-16.19,1.78,1.35,3.83,2.02,6.14,2.02l5.56-.36c4.29-12.43,7.32-25.17,9.11-38.23.38-2.17-.41-3.78-2.38-4.84l-1.52-.51Z"/>
        <path class="cls-3" d="M228.19,31.9l3.47.87c2.07.29,4.12-.1,6.14-1.16,12.43-5.78,25.17-10.57,38.23-14.38.72-.14,1.35-.05,1.88.29,3.52,2.31,6.33,5.25,8.46,8.82.38.68.36,1.3-.07,1.88-.43.68-.99.96-1.66.87-6.07-.29-11.78,1.08-17.13,4.12-3.08,2.17-5.49,4.91-7.23,8.24s-2.58,6.89-2.53,10.7c-.24,2.6.19,5.09,1.3,7.48,1.11,2.38,2.75,4.28,4.91,5.67,3.85,1.4,7.71,1.52,11.56.36,1.3-.14,2.55.14,3.76.87,1.54,1.25,2.7,2.67,3.47,4.26.63,1.3.65,2.63.07,3.97-.53,1.3-1.49,2.22-2.89,2.75-5.16,1.64-10.41,1.95-15.75.94-4.48-.87-8.17-3.08-11.06-6.65s-4.31-7.61-4.26-12.14c.05-5.93,1.28-11.49,3.69-16.69,2.41-5.2,5.85-9.71,10.33-13.51-6.55,1.93-12.29,5.32-17.2,10.19-1.78,2.27-4.12,3.44-7.01,3.54-2.79-.48-5.18-1.77-7.15-3.87-1.98-2.1-3.08-4.56-3.32-7.41ZM276.39,13.18c3.52-.39,6.99-.14,10.41.72,1.25.34,2.35.99,3.29,1.95.94.96,1.55,2.07,1.84,3.32.24.82.22,1.63-.07,2.42s-.79,1.41-1.52,1.84c-1.21.63-2.43.75-3.69.36-1.25-.39-2.22-1.16-2.89-2.31l-1.52-3.18c-1.21-2.55-3.16-4.26-5.85-5.13ZM284.49,9.64c2.41-1.35,5.03-1.87,7.88-1.55,2.84.31,5.3,1.41,7.37,3.29.77.87,1.19,1.89,1.26,3.07.07,1.18-.21,2.28-.83,3.29-.87,1.11-2.07,1.61-3.61,1.52-1.49-.14-2.58-.84-3.25-2.1l-2.1-3.9c-1.59-2.41-3.83-3.61-6.72-3.61Z"/>
        <path class="cls-3" d="M336.66,26.77c4.53,7.9,5.59,16.24,3.18,25-.96,4.48-2.87,8.49-5.71,12.03-2.84,3.54-6.36,6.2-10.55,7.99-1.54.77-3.06.84-4.55.22-2.7-1.4-4.19-3.61-4.48-6.65-2.41-.24-4.49-1.13-6.25-2.67-1.76-1.54-2.95-3.47-3.58-5.78-1.01-4.82-.34-9.42,2.02-13.8,2.5-5.06,5.96-9.35,10.37-12.86,4.41-3.52,9.38-5.9,14.92-7.15,8.24-2.26,16.14-1.49,23.7,2.31,3.71,1.73,6.85,4.13,9.43,7.19,2.58,3.06,4.37,6.56,5.38,10.51,1.11,4.34,1.04,8.61-.22,12.83-1.25,4.22-3.54,7.84-6.87,10.88-4.05,3.76-8.67,6.47-13.88,8.13s-10.55,2.2-16.04,1.63c5.73-1.83,10.73-4.83,15-9,4.26-4.17,7.36-9.12,9.29-14.85,1.01-3.42,1.2-6.85.58-10.3-.63-3.44-2.05-6.59-4.26-9.43-2.26-2.46-4.93-4.23-7.99-5.31-3.06-1.08-6.23-1.38-9.5-.9ZM330.3,28.58c-7.85,5.16-12.82,12.36-14.89,21.61-1.01,4.1-.51,7.95,1.52,11.56.58.58,1.28.93,2.1,1.05.82.12,1.54-.16,2.17-.83,4.38-4.43,7.37-9.6,8.96-15.5,1.59-5.9,1.64-11.86.14-17.89Z"/>
        <path class="cls-3" d="M382.62,25.61c2.79,3.85,4.12,8.24,3.97,13.15-.1,1.25-.34,2.41-.72,3.47-.43.96-1.11,1.73-2.02,2.31-1.25.77-2.55.96-3.9.58-1.4-.39-2.41-1.2-3.04-2.46-.63-1.16-.79-2.31-.51-3.47s.82-2.17,1.59-3.04c3.08-2.89,4.62-6.41,4.62-10.55ZM387.39,10.87l10.55,3.47c.48.19.77.58.87,1.16,0,.58-.22,1.06-.65,1.45l-1.73,1.01v6.21c3.76.1,6.77,1.64,9.03,4.62h11.27v-4.34h-12.29l-2.02-4.05h14.31v-10.7l12.07,2.6c.58.1.99.48,1.23,1.16.1.68-.05,1.2-.43,1.59l-2.38,1.88v3.47h5.78l3.04-4.77c.24-.39.53-.58.87-.58.29-.1.65-.05,1.08.14l5.42,5.64c.72.58.87,1.35.43,2.31-.34.87-.99,1.3-1.95,1.3h-14.67v4.34h5.64l2.46-3.32c.19-.29.53-.48,1.01-.58.48,0,.87.14,1.16.43l4.19,4.62c.43.39.55.92.36,1.59-.29.68-.77,1.01-1.45,1.01h-13.37v5.78h8.02l3.04-3.9c.43-.48.94-.77,1.52-.87.67-.1,1.25.05,1.73.43l4.48,5.06c.43.68.51,1.35.22,2.02-.29.68-.82,1.06-1.59,1.16h-42.56l-1.52-3.9h16.19v-5.78h-9.61c.14.87.05,1.64-.29,2.31-.67,1.16-1.65,1.95-2.93,2.38-1.28.43-2.52.36-3.72-.22-.87-.39-1.54-1.01-2.02-1.88-.34-.96-.48-1.88-.43-2.75.24-2.12-.19-4.09-1.3-5.93v51.74c0,.58-.17,1.04-.51,1.37-.34.34-.75.55-1.23.65l-5.35.29c-.58,0-1.04-.14-1.37-.43-.39-.39-.58-.77-.58-1.16V10.87ZM404.81,43.1l10.26,2.75h14.67l1.95-2.17c.87-1.06,1.9-1.2,3.11-.43l6.79,4.91c.34.19.51.48.51.87s-.12.72-.36,1.01l-1.66,1.73v19.95c0,1.54-.43,2.89-1.3,4.05-2.26,2.99-5.23,4.62-8.89,4.91-1.4.1-2.48-.43-3.25-1.59-1.83-2.99-4.24-5.2-7.23-6.65,2.46,0,4.77.19,6.94.58.72.1,1.4-.07,2.02-.51.63-.43.99-1.04,1.08-1.81v-5.64h-14.02v13.15c0,.96-.48,1.59-1.45,1.88l-6.72.87c-.72,0-1.3-.24-1.73-.72-.48-.39-.72-.92-.72-1.59v-35.55ZM415.43,49.75v3.47h14.02v-3.47h-14.02ZM415.43,57.27v3.61h14.02v-3.61h-14.02Z"/>
        <path class="cls-3" d="M461.32,10.29l11.85,2.46c.38.19.67.53.87,1.01.1.48,0,.87-.29,1.16l-2.02,2.31v6.36h2.02l3.04-4.34c.19-.29.58-.48,1.16-.58.48-.1.87.05,1.16.43l5.2,6.36c.29.48.29.96,0,1.45-.29.39-.67.58-1.16.58h-11.42v8.24h2.75l3.47-5.06c.19-.29.53-.48,1.01-.58.38,0,.72.14,1.01.43l5.2,5.64V11.74l10.98,3.61h8.82l2.89-3.61c.29-.39.63-.58,1.01-.58.29-.1.63-.05,1.01.14l7.08,4.77c.48.29.72.68.72,1.16,0,.58-.19,1.01-.58,1.3l-1.88,1.45c-.48,4.62-1.35,9.15-2.6,13.59-.67,1.83-1.86,3.28-3.54,4.34-1.69,1.06-3.54,1.4-5.56,1.01-.77-.1-1.35-.53-1.73-1.3-1.35-2.7-3.32-4.87-5.93-6.5l6.36.72c.48.1.87,0,1.16-.29s.48-.67.58-1.16c.67-3.76,1.06-7.61,1.16-11.56h-9.54v23.7h10.98l2.02-2.6c.58-.67,1.2-.82,1.88-.43l6.65,5.06c.48.29.72.72.72,1.3s-.19,1.01-.58,1.3l-1.45,1.16c-.58,5.97-2.46,11.37-5.64,16.19,3.37,3.18,7.32,5.44,11.85,6.79-3.37,1.93-6.65,4.14-9.83,6.65-2.7-2.22-5.11-4.62-7.23-7.23-2.7,2.7-5.83,4.91-9.39,6.65,0,.29-.19.43-.58.43l-7.37,2.02c-.67,0-1.23-.19-1.66-.58-.43-.39-.7-.92-.79-1.59v-23.7h-13.44v7.37h2.31l3.04-4.19c.19-.29.53-.48,1.01-.58.38,0,.72.14,1.01.43l5.2,5.06c.48.58.58,1.2.29,1.88-.29.58-.77.92-1.45,1.01h-11.42v11.71c0,.87-.43,1.49-1.3,1.88l-6.5,1.73c-.48.1-.96-.05-1.45-.43-.39-.39-.63-.87-.72-1.45v-13.44h-9.11l-1.88-3.61h10.98v-7.37h-10.98l-1.88-3.61h8.53c-1.64-1.54-2.12-3.37-1.45-5.49.58-1.73.58-3.52,0-5.35h-5.93l-1.45-3.76h12.72v-8.24h-8.67l-1.45-3.9h10.12v-13.3ZM460.31,39.49c2.02.87,3.56,2.27,4.62,4.19.67,1.06.92,2.22.72,3.47-.19,1.25-.77,2.31-1.73,3.18h5.35l1.01-10.84h-9.97ZM478.67,39.49l2.17,1.16c.38.39.53.82.43,1.3-.19.48-.53.82-1.01,1.01l-2.17.43-6.21,6.94h3.47l3.04-5.2c.29-.39.58-.58.87-.58.38,0,.72.14,1.01.43l4.91,5.35v-10.84h-6.5ZM495.58,46.28v28.47c2.5-2.79,4.53-5.93,6.07-9.39-3.18-5.78-4.77-12.14-4.77-19.08h-1.3ZM499.77,46.28c.87,4.24,2.41,8.14,4.62,11.71,1.16-3.85,1.69-7.76,1.59-11.71h-6.21Z"/>
        <path class="cls-3" d="M554.54,11.88l9.25,2.17h12.86l2.17-3.04c.38-.39.84-.65,1.37-.79.53-.14,1.04.02,1.52.51l6.21,5.2c.67.77.67,1.54,0,2.31l-1.45,1.01v17.92c-.1.87-.48,1.59-1.16,2.17l5.64,6.36c.58.68.67,1.35.29,2.02-.29.77-.82,1.2-1.59,1.3h-13.59v7.08h4.05l2.6-3.61c.29-.48.67-.72,1.16-.72s.87.19,1.16.58l5.64,5.49c.29.39.34.87.14,1.45-.19.48-.58.77-1.16.87h-13.59v10.26c5.88.1,12-.24,18.36-1.01-3.08,2.7-5.49,5.97-7.23,9.83-5.49.96-10.79.72-15.9-.72-5.88-2.12-10.12-6.02-12.72-11.71-4.05,5.3-9.25,9.2-15.61,11.71,6.84-8,10.31-17.3,10.41-27.89l12.29,5.2v-6.79h-16.19l-1.16-3.9h31.94l2.75-5.2-4.77,1.59c-.58.1-1.01,0-1.3-.29-.48-.39-.77-.82-.87-1.3v-1.73h-11.27v.87c0,.87-.43,1.45-1.3,1.73l-7.23,1.88c-.48.19-.87.14-1.16-.14-.39-.19-.58-.53-.58-1.01v-1.73l-10.7,7.08v23.7c0,1.64-.29,3.08-.87,4.34-1.54,2.99-3.95,4.82-7.23,5.49-1.73.1-2.99-.58-3.76-2.02-1.45-3.57-3.85-5.97-7.23-7.23,2.12.1,4.62.34,7.52.72.67,0,1.2-.17,1.59-.51.38-.34.63-.84.72-1.52v-16.91l-3.18,2.02c0,.58-.24.96-.72,1.16-.58.1-1.01,0-1.3-.29l-5.2-10.55,10.41-2.46v-10.12h-8.82l-1.45-4.34h10.26V10.87l10.12,2.89c.67.1,1.11.43,1.3,1.01.19.68.05,1.2-.43,1.59l-1.73,1.45v10.55h.87l2.46-3.76c.29-.39.67-.63,1.16-.72.58-.1,1.06.05,1.45.43l4.77,4.77V11.88ZM543.85,32.69v7.95l10.7-2.46v-5.49h-10.7ZM565.67,58.85l-2.31.14c-.67,1.54-1.45,3.04-2.31,4.48,1.25,1.35,2.79,2.55,4.62,3.61v-8.24ZM564.81,18.1v5.78h11.27v-5.78h-11.27ZM564.81,27.78v6.5h11.27v-6.5h-11.27Z"/>
        <path class="cls-3" d="M614.96,32.62v44.01c0,1.25-.53,2.26-1.59,3.04-1.93,1.11-4.12,1.73-6.58,1.88-.53,0-1.02-.21-1.48-.61-.46-.41-.74-.88-.83-1.41v-36.78c-2.26,2.46-4.96,4.87-8.09,7.23,7.27-12.72,11.71-26.4,13.3-41.05l12.86,4.12c.53.34.79.79.79,1.37,0,.63-.31,1.06-.94,1.3l-2.02.43c-1.45,4.38-3.23,8.43-5.35,12.14l1.66,1.01c.34.24.51.58.51,1.01,0,.39-.14.72-.43,1.01l-1.81,1.3ZM628.47,59.79l11.49,3.83c.58.24.87.7.87,1.37,0,.77-.34,1.23-1.01,1.37l-3.04.07c-5.73,7.13-13.06,11.68-21.97,13.66,6.26-5.59,10.82-12.36,13.66-20.31ZM616.98,32.62h9.76V9.71l11.06.94c.77.14,1.23.63,1.37,1.45.1.72-.19,1.3-.87,1.73l-1.59.51v18.28h8.67V9.93l11.06.58c.72.1,1.2.53,1.45,1.3.14.68-.1,1.28-.72,1.81l-1.81.87v18.14h.72l3.04-4.41c.48-.63,1.2-1.04,2.17-1.23,1.01-.1,1.83.14,2.46.72l4.77,4.55c.34.48.43.96.29,1.45-.29.53-.67.87-1.16,1.01h-12.29v21.03h1.81l2.75-3.9c.58-.63,1.3-.99,2.17-1.08.87-.1,1.64.1,2.31.58l5.28,4.48c.38.48.48,1.06.29,1.73-.24.58-.7.94-1.37,1.08h-51.6l-1.66-2.89h11.42v-21.03h-7.8l-1.95-2.1ZM636.71,34.72v21.03h8.67v-21.03h-8.67ZM642.06,60.59c4.48-.39,8.72.42,12.72,2.42,4,2,7.18,4.9,9.54,8.71.67,1.11.98,2.32.9,3.65-.07,1.32-.49,2.52-1.26,3.58-1.69,1.88-3.71,2.48-6.07,1.81-2.07-.58-3.45-1.9-4.12-3.97-1.73-6.89-5.64-12.29-11.71-16.19Z"/>
      </g>
    </g>
  </g>
</svg>