<?xml version="1.0" encoding="UTF-8"?>
<svg id="_レイヤー_2" data-name="レイヤー 2" xmlns="http://www.w3.org/2000/svg" xmlns:xlink="http://www.w3.org/1999/xlink" viewBox="0 0 432.02 70.47">
  <defs>
    <style>
      .cls-1 {
        fill: url(#_名称未設定グラデーション_120-5);
      }

      .cls-2 {
        fill: url(#_名称未設定グラデーション_120-6);
      }

      .cls-3 {
        fill: #fff;
      }

      .cls-4 {
        fill: url(#_名称未設定グラデーション_120-4);
      }

      .cls-5 {
        fill: url(#_名称未設定グラデーション_120-2);
      }

      .cls-6 {
        fill: url(#_名称未設定グラデーション_120-3);
      }

      .cls-7 {
        fill: url(#_名称未設定グラデーション_120);
      }

      .cls-8 {
        fill: none;
        stroke: #000;
        stroke-width: 6px;
      }

      .cls-9 {
        fill: url(#_名称未設定グラデーション_120-7);
      }

      .cls-10 {
        fill: url(#_名称未設定グラデーション_120-8);
      }
    </style>
    <linearGradient id="_名称未設定グラデーション_120" data-name="名称未設定グラデーション 120" x1="21.96" y1="70.47" x2="21.96" y2="0" gradientUnits="userSpaceOnUse">
      <stop offset="0" stop-color="#945700"/>
      <stop offset=".19" stop-color="#e9a900"/>
      <stop offset=".29" stop-color="#f5f8b4"/>
      <stop offset=".4" stop-color="#e9a900"/>
      <stop offset="1" stop-color="#fff87f"/>
    </linearGradient>
    <linearGradient id="_名称未設定グラデーション_120-2" data-name="名称未設定グラデーション 120" x1="75" x2="75" xlink:href="#_名称未設定グラデーション_120"/>
    <linearGradient id="_名称未設定グラデーション_120-3" data-name="名称未設定グラデーション 120" x1="126.16" x2="126.16" xlink:href="#_名称未設定グラデーション_120"/>
    <linearGradient id="_名称未設定グラデーション_120-4" data-name="名称未設定グラデーション 120" x1="183.32" x2="183.32" xlink:href="#_名称未設定グラデーション_120"/>
    <linearGradient id="_名称未設定グラデーション_120-5" data-name="名称未設定グラデーション 120" x1="236.87" x2="236.87" xlink:href="#_名称未設定グラデーション_120"/>
    <linearGradient id="_名称未設定グラデーション_120-6" data-name="名称未設定グラデーション 120" x1="291.87" x2="291.87" xlink:href="#_名称未設定グラデーション_120"/>
    <linearGradient id="_名称未設定グラデーション_120-7" data-name="名称未設定グラデーション 120" x1="345" x2="345" xlink:href="#_名称未設定グラデーション_120"/>
    <linearGradient id="_名称未設定グラデーション_120-8" data-name="名称未設定グラデーション 120" x1="400.85" x2="400.85" xlink:href="#_名称未設定グラデーション_120"/>
  </defs>
  <g id="_レイヤー_1-2" data-name="レイヤー 1">
    <g>
      <g>
        <path class="cls-3" d="M8.16,14.91l-.16-.79c2.39-1.69,5.01-2.29,7.86-1.79,2.14.63,4.03,1.83,5.64,3.59.49.56.51,1.14.05,1.74l-1.79,1.9c-.46,2.88-.65,5.84-.58,8.86,3.23.53,6.42,1.34,9.54,2.43,3.2,1.3,5.5,3.53,6.91,6.7.6,1.69.32,3.27-.84,4.75-1.23,1.37-2.74,1.9-4.54,1.58-1.3-.39-2.41-1.09-3.32-2.11-.91-1.02-1.51-2.21-1.79-3.59-.28-1.72-.98-3.25-2.11-4.59-1.12-1.34-2.51-2.27-4.17-2.79-.14,6.93-.12,14.7.05,23.31.11,1.93.02,3.66-.26,5.17-.53,1.37-1.44,2.41-2.74,3.11-.6.18-1.12.12-1.58-.16-1.9-1.51-3.41-3.25-4.54-5.22-.42-.84-.44-1.69-.05-2.53,1.27-12.27,1.56-24.71.9-37.34-.14-.6-.43-1.1-.87-1.5-.44-.4-.98-.64-1.61-.71Z"/>
        <path class="cls-3" d="M52.3,33.05c3.06.63,6.19.7,9.39.21,7.84-1.97,15.73-3.3,23.68-4.01.98-.03,1.93-.39,2.85-1.05l.95-.79c.84-.67,1.71-.74,2.58-.21,2.11,1.48,4.01,3.27,5.7,5.38.21.25.3.54.26.87-.04.33-.18.62-.42.87l-1.32.84c-1.44,4.15-3.53,7.88-6.28,11.21s-6.03,6.09-9.86,8.31c-6.33,3.87-13.24,6.22-20.72,7.07,6.36-2.32,11.87-5.86,16.53-10.63,4.66-4.76,8.06-10.36,10.2-16.8-8.58.81-16.7,2.9-24.36,6.28-.91.53-1.81.49-2.69-.11-2.74-1.97-4.9-4.45-6.49-7.44ZM56.89,20.39c3.38.32,6.77.23,10.18-.26,5.48-.88,11.16-2.25,17.03-4.11.88-.18,1.63-.12,2.27.16,1.69.77,3.23,1.67,4.64,2.69.7.53.88,1.21.53,2.06-.28.77-.86,1.16-1.74,1.16-7.88.39-15.52,1.74-22.94,4.06-.77.14-1.58.05-2.43-.26-2.95-1.34-5.47-3.16-7.54-5.48Z"/>
        <path class="cls-3" d="M136.78,15.6c-.11-.18-.12-.35-.05-.53.03-.21.18-.33.42-.37,1.65-.42,3.29-.32,4.9.32,3.06,1.34,5.33,3.59,6.8,6.75.18.42.16.83-.05,1.21-.14.35-.46.58-.95.69l-1.95.53-9.7,7.8c.91.21,1.74.63,2.48,1.27.21.18.37.4.47.69,0,.35-.11.62-.32.79l-.95,1.53c0,7.8.23,15.35.69,22.62-.04.81-.39,1.51-1.05,2.11-.7.56-1.48.79-2.32.69-1.27-.11-2.41-.51-3.43-1.21-1.02-.7-1.83-1.62-2.43-2.74-.32-.81-.4-1.6-.26-2.37,1.09-6.29,1.3-12.67.63-19.14-8.23,4.78-17.02,7.82-26.37,9.12,14.06-5.45,25.47-14.36,34.22-26.74.56-.84.51-1.62-.16-2.32l-.63-.69Z"/>
        <path class="cls-3" d="M158.93,21.5l.9.37c2.21.77,4.5.93,6.86.47,9.14-1.93,18.62-3.3,28.42-4.11l2.27-1.79c.67-.46,1.32-.49,1.95-.11,3.8,1.86,6.57,4.71,8.33,8.54.11.32.09.56-.05.74-.14.21-.35.32-.63.32l-1.16-.05-1.69.53-14.45,7.38c-.21,1.02-.83,1.71-1.85,2.06-.21,4.89-1.67,9.44-4.38,13.66-4.99,6.79-11.65,11.04-19.99,12.76,4.85-2.88,8.65-6.71,11.39-11.5,2.74-4.78,4.13-9.98,4.17-15.61,0-1.37-.47-2.58-1.42-3.64l-1.69-1.11c-.14-.11-.25-.28-.32-.53,0-.25.07-.44.21-.58l.95-.74c.53-.32,1.09-.44,1.69-.37,3.48.67,6.7,1.85,9.65,3.53,2.35-2.67,4.29-5.48,5.8-8.44-8.19.6-16.03,2.37-23.52,5.33-.49,1.09-1.35,1.63-2.58,1.63-2.32-.14-4.34-1.05-6.06-2.74-1.72-1.69-2.66-3.69-2.79-6.01Z"/>
        <path class="cls-3" d="M220.05,23.82c1.44-1.55,3.27-2.13,5.48-1.74,2.64.39,4.76,1.65,6.38,3.8.35.53.47,1.12.34,1.77-.12.65-.47,1.15-1.03,1.5.21,6.57-1.04,12.76-3.74,18.56-1.65,2.99-3.8,5.52-6.43,7.59-2.64,2.08-5.61,3.59-8.91,4.54,4.11-4.36,7.07-9.33,8.86-14.9,1.79-5.57,2.34-11.33,1.63-17.27-.11-1.05-.56-1.99-1.37-2.79l-1.21-1.05ZM231.59,17.12c1.69-1.19,3.55-1.69,5.59-1.48,2.99.56,5.47,1.93,7.44,4.11.74.74.79,1.55.16,2.43-.42.56-.69,1.2-.79,1.9l-1.16,19.72c8.12-4.11,14.38-10.16,18.77-18.14-1.09,5.62-3.11,10.83-6.06,15.61-2.95,4.78-6.7,8.91-11.23,12.39-.53.53-.79,1.16-.79,1.9,0,.25-.12.44-.37.58-.28.18-.55.18-.79,0-3.13-1.86-5.85-3.99-8.17-6.38-.32-.42-.33-.84-.05-1.27.84-1.65,1.16-3.34.95-5.06l-.63-22.04c-.07-1.19-.47-2.2-1.21-3.01l-1.63-1.27Z"/>
        <path class="cls-3" d="M265.61,20.76c1.76.49,3.5.69,5.22.58l26.26-3.43c.7-.07,1.25-.37,1.63-.9l1.48-1.32c.35-.28.76-.41,1.24-.4.47.02.87.18,1.19.5l5.64,5.64c.21.28.29.62.24,1-.05.39-.24.69-.55.9l-.74.79c-1.79,7.03-4.85,13.48-9.18,19.35-3.66,5.1-8.21,9.1-13.66,12-5.45,2.9-11.32,4.44-17.61,4.61,8.44-2.85,15.4-7.8,20.88-14.87,5.38-6.4,8.46-13.82,9.23-22.25-7.31,1.02-14.48,2.71-21.52,5.06-.7.21-1.35.6-1.95,1.16-.88.84-1.76.86-2.64.05-2.71-2.25-4.43-5.08-5.17-8.49ZM305.32,14.28c0-1.72.64-3.21,1.92-4.46,1.28-1.25,2.79-1.85,4.51-1.82,1.72-.03,3.21.58,4.46,1.85,1.25,1.27,1.89,2.76,1.92,4.48,0,1.76-.64,3.27-1.92,4.54-1.28,1.27-2.8,1.9-4.56,1.9s-3.26-.64-4.51-1.92c-1.25-1.28-1.85-2.8-1.82-4.56ZM308.22,14.33c0,.95.36,1.78,1.08,2.48.72.7,1.56,1.05,2.5,1.05s1.78-.36,2.5-1.08,1.06-1.56,1.03-2.5c0-.98-.36-1.83-1.08-2.53-.72-.7-1.57-1.05-2.56-1.05-.92,0-1.73.36-2.45,1.08s-1.06,1.57-1.03,2.56Z"/>
        <path class="cls-3" d="M322.3,33.05c3.06.63,6.19.7,9.39.21,7.84-1.97,15.73-3.3,23.68-4.01.98-.03,1.93-.39,2.85-1.05l.95-.79c.84-.67,1.71-.74,2.58-.21,2.11,1.48,4.01,3.27,5.7,5.38.21.25.3.54.26.87-.04.33-.18.62-.42.87l-1.32.84c-1.44,4.15-3.53,7.88-6.28,11.21s-6.03,6.09-9.86,8.31c-6.33,3.87-13.24,6.22-20.72,7.07,6.36-2.32,11.87-5.86,16.53-10.63,4.66-4.76,8.06-10.36,10.2-16.8-8.58.81-16.7,2.9-24.36,6.28-.92.53-1.81.49-2.69-.11-2.74-1.97-4.9-4.45-6.49-7.44ZM326.89,20.39c3.38.32,6.77.23,10.18-.26,5.48-.88,11.16-2.25,17.03-4.11.88-.18,1.63-.12,2.27.16,1.69.77,3.23,1.67,4.64,2.69.7.53.88,1.21.53,2.06-.28.77-.86,1.16-1.74,1.16-7.88.39-15.52,1.74-22.94,4.06-.77.14-1.58.05-2.43-.26-2.95-1.34-5.47-3.16-7.54-5.48Z"/>
        <path class="cls-3" d="M377.67,17.6c4.75-.7,9.28-.02,13.61,2.06,2.43,1.37,4.17,3.34,5.22,5.91.35,1.05.32,2.13-.08,3.22-.4,1.09-1.12,1.9-2.14,2.43-1.13.74-2.37.96-3.74.66-1.37-.3-2.43-.99-3.16-2.08l-2.43-4.64c-1.79-3.13-4.22-5.64-7.28-7.54ZM378.72,48.77l1,.05c1.62.42,3.22.47,4.8.16,15.19-6.5,28.35-15.87,39.5-28.11-7.59,15.36-18.84,27.35-33.75,35.96-.67.49-1.16,1.12-1.48,1.9-.25.46-.62.79-1.11,1-.53.11-1.02.05-1.48-.16-4.08-2.46-6.57-6.06-7.49-10.81Z"/>
      </g>
      <g>
        <path class="cls-7" d="M15.25,70.47c-1.81,0-3.58-.5-5.12-1.45-.27-.17-.54-.35-.79-.55-2.69-2.14-4.87-4.67-6.5-7.51-.07-.13-.14-.26-.21-.39-1.25-2.51-1.51-5.24-.76-7.84,1.03-10.44,1.34-21.14.92-31.87-1.25-1.13-2.14-2.64-2.49-4.37l-.16-.79c-.62-3.1.65-6.28,3.23-8.1,3.22-2.27,6.78-3.42,10.58-3.42,1.07,0,2.17.1,3.26.28.3.05.61.12.9.21,3.54,1.05,6.66,3.01,9.27,5.84.04.05.09.1.13.15,2.95,3.37,3.17,7.99.59,11.6,1.09.32,2.17.66,3.25,1.04.13.04.26.09.38.15,5.09,2.07,8.97,5.83,11.21,10.86.08.19.16.38.23.58,1.5,4.25.74,8.75-2.09,12.36-.11.14-.22.27-.34.4-2.5,2.79-5.88,4.33-9.51,4.33-.78,0-1.58-.07-2.37-.21-.3-.05-.6-.12-.89-.21-.38-.11-.75-.24-1.11-.38.01.87.03,1.76.05,2.65.13,2.5,0,4.83-.39,6.92-.09.48-.22.95-.4,1.41-1.21,3.15-3.42,5.66-6.4,7.27-.49.27-1.01.48-1.55.64-.96.28-1.94.43-2.92.43Z"/>
        <path class="cls-5" d="M59.09,69.74c-3.67,0-6.92-2.52-7.78-6.17-.93-3.94,1.24-7.96,5.05-9.35,5.03-1.83,9.3-4.51,13.02-8.17-1.49.53-2.97,1.11-4.42,1.74-1.5.76-3.14,1.17-4.76,1.17-2.08,0-4.13-.64-5.92-1.86-.05-.04-.11-.07-.16-.11-3.74-2.69-6.73-6.12-8.89-10.19-1.45-2.74-1.19-6.07.67-8.55,1.16-1.55,2.81-2.59,4.63-3-1.85-2.42-2.17-5.71-.78-8.46,1.37-2.71,4.14-4.4,7.14-4.4.25,0,.5.01.75.04,1.07.1,2.16.15,3.23.15,1.65,0,3.33-.12,5-.36,5.05-.81,10.37-2.1,15.82-3.83.28-.09.56-.16.85-.22.85-.17,1.7-.26,2.53-.26,1.61,0,3.14.32,4.56.95,2.24,1.03,4.26,2.2,6.09,3.52.04.03.07.05.1.08,3.31,2.48,4.64,6.6,3.48,10.5,1.56,1.37,3.01,2.89,4.35,4.55,1.57,1.9,2.28,4.3,2.02,6.77-.23,2.18-1.17,4.15-2.73,5.7-.12.12-.25.24-.38.36-1.68,4.04-3.92,7.77-6.69,11.12-3.32,4.02-7.33,7.41-11.94,10.09-7.28,4.43-15.33,7.17-23.92,8.14-.3.03-.6.05-.9.05Z"/>
        <path class="cls-6" d="M135.59,69.71c-.4,0-.8-.02-1.2-.06-2.61-.24-5.02-1.11-7.16-2.59-2.08-1.44-3.75-3.31-4.95-5.58-.14-.27-.27-.55-.38-.84-.85-2.18-1.09-4.5-.69-6.72.29-1.69.51-3.4.66-5.13-5.61,2.14-11.43,3.63-17.42,4.46-.37.05-.74.08-1.11.08-3.59,0-6.81-2.42-7.74-5.99-1.02-3.93,1.07-8,4.85-9.47,11.53-4.47,20.85-11.34,28.39-20.95-.27-1.35-.21-2.74.19-4.08.84-3.01,3.28-5.3,6.38-5.96,1.22-.29,2.47-.44,3.71-.44,1.98,0,3.95.38,5.85,1.12.1.04.19.08.29.12,4.81,2.1,8.56,5.8,10.85,10.7.05.1.09.2.14.31,1.05,2.51.97,5.3-.21,7.71-1.17,2.53-3.41,4.33-6.23,5.02l-.2.05-2.47,1.99c0,.16.01.32.01.48,0,1.68-.44,3.28-1.26,4.66.04,6.79.26,13.43.66,19.78.02.28.02.57,0,.85-.13,2.95-1.44,5.69-3.7,7.72-.12.1-.23.2-.36.3-2.01,1.61-4.41,2.46-6.91,2.46Z"/>
        <path class="cls-4" d="M163.46,70.27c-3.24,0-6.24-1.98-7.45-5.11-1.41-3.64.01-7.77,3.37-9.77,3.68-2.19,6.47-5,8.54-8.6,1.61-2.81,2.58-5.76,2.95-8.95-.97.27-2,.41-3.07.41-.16,0-.32,0-.48-.01-4.23-.25-8.1-1.99-11.18-5.01-3.13-3.07-4.92-6.96-5.18-11.24-.17-2.75,1.09-5.39,3.34-6.99,1.38-.98,3.01-1.49,4.65-1.49,1.03,0,2.06.2,3.04.6l.65.27c.49.15.97.23,1.46.23.33,0,.67-.03,1.02-.1,8.65-1.82,17.69-3.18,26.92-4.03l.39-.31c.15-.11.29-.22.45-.33,1.69-1.16,3.62-1.77,5.59-1.77,1.61,0,3.2.41,4.64,1.2,5.36,2.69,9.34,6.82,11.85,12.27.12.26.23.53.32.81.92,2.75.48,5.7-1.16,7.95-1.63,2.28-4.27,3.63-7.11,3.63l-11.43,5.84s-.05.07-.08.1c-.73,4.93-2.5,9.61-5.29,13.95-.09.14-.19.28-.29.42-6.18,8.39-14.52,13.73-24.81,15.85-.54.11-1.09.17-1.62.17Z"/>
        <path class="cls-1" d="M212.14,67.84c-2.74,0-5.35-1.41-6.83-3.84-1.88-3.08-1.46-7.03,1.01-9.65,3.31-3.51,5.62-7.39,7.06-11.86,1.32-4.11,1.79-8.25,1.43-12.62h-.02c-1.64-1.44-2.63-3.46-2.74-5.63s.66-4.29,2.14-5.87c2.68-2.88,6.16-4.4,10.05-4.4.57-1.34,1.51-2.51,2.73-3.37,2.77-1.96,5.99-2.99,9.31-2.99.57,0,1.15.03,1.73.09.22.02.44.05.66.1,4.68.88,8.64,3.06,11.78,6.49,3.12,3.25,3.65,7.78,1.45,11.62v.16c.97-1.33,1.87-2.74,2.7-4.25,1.44-2.62,4.16-4.14,7.01-4.14.91,0,1.83.15,2.72.48,3.7,1.34,5.88,5.18,5.13,9.04-1.27,6.55-3.66,12.71-7.11,18.29-3.05,4.94-6.86,9.33-11.36,13.09-.68,1.83-1.97,3.4-3.74,4.45-1.38.83-2.93,1.26-4.51,1.26s-3.24-.47-4.63-1.35c-2.79-1.67-5.34-3.55-7.62-5.61-1.36,1.56-2.86,2.99-4.49,4.28-3.44,2.71-7.36,4.7-11.65,5.94-.73.21-1.48.31-2.21.31Z"/>
        <path class="cls-2" d="M266.77,68.1c-3.86,0-7.19-2.77-7.87-6.59-.7-3.9,1.56-7.72,5.32-8.99,6.98-2.36,12.58-6.34,17.12-12.2.06-.08.13-.16.2-.24,1.81-2.15,3.28-4.42,4.43-6.82-2.54.64-5.05,1.38-7.54,2.19-1.8,1.53-4.05,2.39-6.36,2.39-1.68,0-4.15-.45-6.53-2.55-4.03-3.39-6.64-7.71-7.75-12.84-.59-2.74.29-5.59,2.33-7.52,1.5-1.42,3.47-2.18,5.48-2.18.72,0,1.45.1,2.16.3.75.21,1.45.31,2.14.31.07,0,.14,0,.2,0l24.23-3.16.53-.47c.1-.09.21-.18.32-.27,1.13-.91,2.42-1.54,3.79-1.88.69-1.26,1.58-2.44,2.68-3.5,2.75-2.67,6.19-4.08,9.95-4.08h.27c3.82,0,7.29,1.46,10.02,4.23,2.69,2.73,4.15,6.16,4.23,9.94,0,.05,0,.11,0,.16,0,3.91-1.49,7.45-4.31,10.23-2.14,2.11-4.7,3.45-7.52,3.97-2.1,7.09-5.4,13.71-9.82,19.71-4.31,6-9.82,10.85-16.34,14.31-6.52,3.47-13.64,5.34-21.15,5.55-.08,0-.15,0-.23,0Z"/>
        <path class="cls-9" d="M329.09,69.74c-3.67,0-6.92-2.52-7.78-6.17-.93-3.94,1.24-7.96,5.05-9.35,5.03-1.83,9.3-4.51,13.02-8.17-1.49.53-2.97,1.11-4.42,1.74-1.5.76-3.14,1.17-4.76,1.17-2.08,0-4.13-.65-5.92-1.87-.05-.04-.11-.07-.16-.11-3.74-2.69-6.73-6.12-8.89-10.19-1.45-2.74-1.19-6.07.67-8.55,1.16-1.55,2.81-2.59,4.63-3-1.85-2.42-2.17-5.71-.78-8.46,1.37-2.71,4.14-4.4,7.14-4.4.25,0,.5.01.75.04,1.07.1,2.16.15,3.23.15,1.65,0,3.33-.12,5-.36,5.05-.81,10.37-2.1,15.82-3.83.28-.09.56-.16.85-.22.85-.17,1.7-.26,2.53-.26,1.61,0,3.14.32,4.56.95,2.24,1.03,4.26,2.2,6.09,3.52.03.03.07.05.1.08,3.31,2.48,4.64,6.6,3.48,10.5,1.56,1.37,3.01,2.89,4.35,4.55,1.56,1.9,2.28,4.28,2.03,6.75-.23,2.19-1.17,4.16-2.72,5.71-.13.13-.26.25-.39.37-1.68,4.04-3.93,7.77-6.69,11.12-3.32,4.02-7.33,7.41-11.94,10.09-7.28,4.43-15.33,7.17-23.92,8.14-.3.03-.6.05-.9.05Z"/>
        <path class="cls-10" d="M387.17,67.79c-1.5,0-2.96-.32-4.32-.95-.27-.12-.52-.26-.77-.41-6-3.62-9.87-9.2-11.21-16.15-.47-2.42.21-4.91,1.82-6.77,1.52-1.75,3.73-2.75,6.03-2.75.14,0,.28,0,.42.01l1,.05c.54.03,1.08.11,1.6.25.23.06.45.09.65.1,1.5-.66,2.99-1.36,4.45-2.08-2.5-.95-4.59-2.59-6.1-4.83-.17-.25-.33-.51-.47-.78l-2.35-4.49c-1.12-1.92-2.59-3.43-4.49-4.6-2.85-1.77-4.3-5.13-3.62-8.42.68-3.29,3.34-5.8,6.66-6.29,1.58-.23,3.18-.35,4.74-.35,4.66,0,9.2,1.05,13.5,3.11.16.08.32.16.48.25,4.01,2.27,6.93,5.58,8.68,9.83.07.17.13.34.19.52.53,1.58.73,3.22.62,4.85,4.78-3.72,9.25-7.86,13.4-12.41,1.57-1.72,3.73-2.61,5.92-2.61,1.56,0,3.13.46,4.51,1.39,3.29,2.25,4.43,6.58,2.66,10.15-8.05,16.28-20.03,29.26-35.63,38.59-1.11,1.83-2.73,3.23-4.73,4.09-.51.22-1.04.38-1.58.49-.69.14-1.39.21-2.08.21Z"/>
      </g>
      <g>
        <path class="cls-8" d="M8.16,14.91l-.16-.79c2.39-1.69,5.01-2.29,7.86-1.79,2.14.63,4.03,1.83,5.64,3.59.49.56.51,1.14.05,1.74l-1.79,1.9c-.46,2.88-.65,5.84-.58,8.86,3.23.53,6.42,1.34,9.54,2.43,3.2,1.3,5.5,3.53,6.91,6.7.6,1.69.32,3.27-.84,4.75-1.23,1.37-2.74,1.9-4.54,1.58-1.3-.39-2.41-1.09-3.32-2.11-.91-1.02-1.51-2.21-1.79-3.59-.28-1.72-.98-3.25-2.11-4.59-1.12-1.34-2.51-2.27-4.17-2.79-.14,6.93-.12,14.7.05,23.31.11,1.93.02,3.66-.26,5.17-.53,1.37-1.44,2.41-2.74,3.11-.6.18-1.12.12-1.58-.16-1.9-1.51-3.41-3.25-4.54-5.22-.42-.84-.44-1.69-.05-2.53,1.27-12.27,1.56-24.71.9-37.34-.14-.6-.43-1.1-.87-1.5-.44-.4-.98-.64-1.61-.71Z"/>
        <path class="cls-8" d="M52.3,33.05c3.06.63,6.19.7,9.39.21,7.84-1.97,15.73-3.3,23.68-4.01.98-.03,1.93-.39,2.85-1.05l.95-.79c.84-.67,1.71-.74,2.58-.21,2.11,1.48,4.01,3.27,5.7,5.38.21.25.3.54.26.87-.04.33-.18.62-.42.87l-1.32.84c-1.44,4.15-3.53,7.88-6.28,11.21s-6.03,6.09-9.86,8.31c-6.33,3.87-13.24,6.22-20.72,7.07,6.36-2.32,11.87-5.86,16.53-10.63,4.66-4.76,8.06-10.36,10.2-16.8-8.58.81-16.7,2.9-24.36,6.28-.91.53-1.81.49-2.69-.11-2.74-1.97-4.9-4.45-6.49-7.44ZM56.89,20.39c3.38.32,6.77.23,10.18-.26,5.48-.88,11.16-2.25,17.03-4.11.88-.18,1.63-.12,2.27.16,1.69.77,3.23,1.67,4.64,2.69.7.53.88,1.21.53,2.06-.28.77-.86,1.16-1.74,1.16-7.88.39-15.52,1.74-22.94,4.06-.77.14-1.58.05-2.43-.26-2.95-1.34-5.47-3.16-7.54-5.48Z"/>
        <path class="cls-8" d="M136.78,15.6c-.11-.18-.12-.35-.05-.53.03-.21.18-.33.42-.37,1.65-.42,3.29-.32,4.9.32,3.06,1.34,5.33,3.59,6.8,6.75.18.42.16.83-.05,1.21-.14.35-.46.58-.95.69l-1.95.53-9.7,7.8c.91.21,1.74.63,2.48,1.27.21.18.37.4.47.69,0,.35-.11.62-.32.79l-.95,1.53c0,7.8.23,15.35.69,22.62-.04.81-.39,1.51-1.05,2.11-.7.56-1.48.79-2.32.69-1.27-.11-2.41-.51-3.43-1.21-1.02-.7-1.83-1.62-2.43-2.74-.32-.81-.4-1.6-.26-2.37,1.09-6.29,1.3-12.67.63-19.14-8.23,4.78-17.02,7.82-26.37,9.12,14.06-5.45,25.47-14.36,34.22-26.74.56-.84.51-1.62-.16-2.32l-.63-.69Z"/>
        <path class="cls-8" d="M158.93,21.5l.9.37c2.21.77,4.5.93,6.86.47,9.14-1.93,18.62-3.3,28.42-4.11l2.27-1.79c.67-.46,1.32-.49,1.95-.11,3.8,1.86,6.57,4.71,8.33,8.54.11.32.09.56-.05.74-.14.21-.35.32-.63.32l-1.16-.05-1.69.53-14.45,7.38c-.21,1.02-.83,1.71-1.85,2.06-.21,4.89-1.67,9.44-4.38,13.66-4.99,6.79-11.65,11.04-19.99,12.76,4.85-2.88,8.65-6.71,11.39-11.5,2.74-4.78,4.13-9.98,4.17-15.61,0-1.37-.47-2.58-1.42-3.64l-1.69-1.11c-.14-.11-.25-.28-.32-.53,0-.25.07-.44.21-.58l.95-.74c.53-.32,1.09-.44,1.69-.37,3.48.67,6.7,1.85,9.65,3.53,2.35-2.67,4.29-5.48,5.8-8.44-8.19.6-16.03,2.37-23.52,5.33-.49,1.09-1.35,1.63-2.58,1.63-2.32-.14-4.34-1.05-6.06-2.74-1.72-1.69-2.66-3.69-2.79-6.01Z"/>
        <path class="cls-8" d="M220.05,23.82c1.44-1.55,3.27-2.13,5.48-1.74,2.64.39,4.76,1.65,6.38,3.8.35.53.47,1.12.34,1.77-.12.65-.47,1.15-1.03,1.5.21,6.57-1.04,12.76-3.74,18.56-1.65,2.99-3.8,5.52-6.43,7.59-2.64,2.08-5.61,3.59-8.91,4.54,4.11-4.36,7.07-9.33,8.86-14.9,1.79-5.57,2.34-11.33,1.63-17.27-.11-1.05-.56-1.99-1.37-2.79l-1.21-1.05ZM231.59,17.12c1.69-1.19,3.55-1.69,5.59-1.48,2.99.56,5.47,1.93,7.44,4.11.74.74.79,1.55.16,2.43-.42.56-.69,1.2-.79,1.9l-1.16,19.72c8.12-4.11,14.38-10.16,18.77-18.14-1.09,5.62-3.11,10.83-6.06,15.61-2.95,4.78-6.7,8.91-11.23,12.39-.53.53-.79,1.16-.79,1.9,0,.25-.12.44-.37.58-.28.18-.55.18-.79,0-3.13-1.86-5.85-3.99-8.17-6.38-.32-.42-.33-.84-.05-1.27.84-1.65,1.16-3.34.95-5.06l-.63-22.04c-.07-1.19-.47-2.2-1.21-3.01l-1.63-1.27Z"/>
        <path class="cls-8" d="M265.61,20.76c1.76.49,3.5.69,5.22.58l26.26-3.43c.7-.07,1.25-.37,1.63-.9l1.48-1.32c.35-.28.76-.41,1.24-.4.47.02.87.18,1.19.5l5.64,5.64c.21.28.29.62.24,1-.05.39-.24.69-.55.9l-.74.79c-1.79,7.03-4.85,13.48-9.18,19.35-3.66,5.1-8.21,9.1-13.66,12-5.45,2.9-11.32,4.44-17.61,4.61,8.44-2.85,15.4-7.8,20.88-14.87,5.38-6.4,8.46-13.82,9.23-22.25-7.31,1.02-14.48,2.71-21.52,5.06-.7.21-1.35.6-1.95,1.16-.88.84-1.76.86-2.64.05-2.71-2.25-4.43-5.08-5.17-8.49ZM305.32,14.28c0-1.72.64-3.21,1.92-4.46,1.28-1.25,2.79-1.85,4.51-1.82,1.72-.03,3.21.58,4.46,1.85,1.25,1.27,1.89,2.76,1.92,4.48,0,1.76-.64,3.27-1.92,4.54-1.28,1.27-2.8,1.9-4.56,1.9s-3.26-.64-4.51-1.92c-1.25-1.28-1.85-2.8-1.82-4.56ZM308.22,14.33c0,.95.36,1.78,1.08,2.48.72.7,1.56,1.05,2.5,1.05s1.78-.36,2.5-1.08,1.06-1.56,1.03-2.5c0-.98-.36-1.83-1.08-2.53-.72-.7-1.57-1.05-2.56-1.05-.92,0-1.73.36-2.45,1.08s-1.06,1.57-1.03,2.56Z"/>
        <path class="cls-8" d="M322.3,33.05c3.06.63,6.19.7,9.39.21,7.84-1.97,15.73-3.3,23.68-4.01.98-.03,1.93-.39,2.85-1.05l.95-.79c.84-.67,1.71-.74,2.58-.21,2.11,1.48,4.01,3.27,5.7,5.38.21.25.3.54.26.87-.04.33-.18.62-.42.87l-1.32.84c-1.44,4.15-3.53,7.88-6.28,11.21s-6.03,6.09-9.86,8.31c-6.33,3.87-13.24,6.22-20.72,7.07,6.36-2.32,11.87-5.86,16.53-10.63,4.66-4.76,8.06-10.36,10.2-16.8-8.58.81-16.7,2.9-24.36,6.28-.92.53-1.81.49-2.69-.11-2.74-1.97-4.9-4.45-6.49-7.44ZM326.89,20.39c3.38.32,6.77.23,10.18-.26,5.48-.88,11.16-2.25,17.03-4.11.88-.18,1.63-.12,2.27.16,1.69.77,3.23,1.67,4.64,2.69.7.53.88,1.21.53,2.06-.28.77-.86,1.16-1.74,1.16-7.88.39-15.52,1.74-22.94,4.06-.77.14-1.58.05-2.43-.26-2.95-1.34-5.47-3.16-7.54-5.48Z"/>
        <path class="cls-8" d="M377.67,17.6c4.75-.7,9.28-.02,13.61,2.06,2.43,1.37,4.17,3.34,5.22,5.91.35,1.05.32,2.13-.08,3.22-.4,1.09-1.12,1.9-2.14,2.43-1.13.74-2.37.96-3.74.66-1.37-.3-2.43-.99-3.16-2.08l-2.43-4.64c-1.79-3.13-4.22-5.64-7.28-7.54ZM378.72,48.77l1,.05c1.62.42,3.22.47,4.8.16,15.19-6.5,28.35-15.87,39.5-28.11-7.59,15.36-18.84,27.35-33.75,35.96-.67.49-1.16,1.12-1.48,1.9-.25.46-.62.79-1.11,1-.53.11-1.02.05-1.48-.16-4.08-2.46-6.57-6.06-7.49-10.81Z"/>
      </g>
      <g>
        <path class="cls-3" d="M8.16,14.91l-.16-.79c2.39-1.69,5.01-2.29,7.86-1.79,2.14.63,4.03,1.83,5.64,3.59.49.56.51,1.14.05,1.74l-1.79,1.9c-.46,2.88-.65,5.84-.58,8.86,3.23.53,6.42,1.34,9.54,2.43,3.2,1.3,5.5,3.53,6.91,6.7.6,1.69.32,3.27-.84,4.75-1.23,1.37-2.74,1.9-4.54,1.58-1.3-.39-2.41-1.09-3.32-2.11-.91-1.02-1.51-2.21-1.79-3.59-.28-1.72-.98-3.25-2.11-4.59-1.12-1.34-2.51-2.27-4.17-2.79-.14,6.93-.12,14.7.05,23.31.11,1.93.02,3.66-.26,5.17-.53,1.37-1.44,2.41-2.74,3.11-.6.18-1.12.12-1.58-.16-1.9-1.51-3.41-3.25-4.54-5.22-.42-.84-.44-1.69-.05-2.53,1.27-12.27,1.56-24.71.9-37.34-.14-.6-.43-1.1-.87-1.5-.44-.4-.98-.64-1.61-.71Z"/>
        <path class="cls-3" d="M52.3,33.05c3.06.63,6.19.7,9.39.21,7.84-1.97,15.73-3.3,23.68-4.01.98-.03,1.93-.39,2.85-1.05l.95-.79c.84-.67,1.71-.74,2.58-.21,2.11,1.48,4.01,3.27,5.7,5.38.21.25.3.54.26.87-.04.33-.18.62-.42.87l-1.32.84c-1.44,4.15-3.53,7.88-6.28,11.21s-6.03,6.09-9.86,8.31c-6.33,3.87-13.24,6.22-20.72,7.07,6.36-2.32,11.87-5.86,16.53-10.63,4.66-4.76,8.06-10.36,10.2-16.8-8.58.81-16.7,2.9-24.36,6.28-.91.53-1.81.49-2.69-.11-2.74-1.97-4.9-4.45-6.49-7.44ZM56.89,20.39c3.38.32,6.77.23,10.18-.26,5.48-.88,11.16-2.25,17.03-4.11.88-.18,1.63-.12,2.27.16,1.69.77,3.23,1.67,4.64,2.69.7.53.88,1.21.53,2.06-.28.77-.86,1.16-1.74,1.16-7.88.39-15.52,1.74-22.94,4.06-.77.14-1.58.05-2.43-.26-2.95-1.34-5.47-3.16-7.54-5.48Z"/>
        <path class="cls-3" d="M136.78,15.6c-.11-.18-.12-.35-.05-.53.03-.21.18-.33.42-.37,1.65-.42,3.29-.32,4.9.32,3.06,1.34,5.33,3.59,6.8,6.75.18.42.16.83-.05,1.21-.14.35-.46.58-.95.69l-1.95.53-9.7,7.8c.91.21,1.74.63,2.48,1.27.21.18.37.4.47.69,0,.35-.11.62-.32.79l-.95,1.53c0,7.8.23,15.35.69,22.62-.04.81-.39,1.51-1.05,2.11-.7.56-1.48.79-2.32.69-1.27-.11-2.41-.51-3.43-1.21-1.02-.7-1.83-1.62-2.43-2.74-.32-.81-.4-1.6-.26-2.37,1.09-6.29,1.3-12.67.63-19.14-8.23,4.78-17.02,7.82-26.37,9.12,14.06-5.45,25.47-14.36,34.22-26.74.56-.84.51-1.62-.16-2.32l-.63-.69Z"/>
        <path class="cls-3" d="M158.93,21.5l.9.37c2.21.77,4.5.93,6.86.47,9.14-1.93,18.62-3.3,28.42-4.11l2.27-1.79c.67-.46,1.32-.49,1.95-.11,3.8,1.86,6.57,4.71,8.33,8.54.11.32.09.56-.05.74-.14.21-.35.32-.63.32l-1.16-.05-1.69.53-14.45,7.38c-.21,1.02-.83,1.71-1.85,2.06-.21,4.89-1.67,9.44-4.38,13.66-4.99,6.79-11.65,11.04-19.99,12.76,4.85-2.88,8.65-6.71,11.39-11.5,2.74-4.78,4.13-9.98,4.17-15.61,0-1.37-.47-2.58-1.42-3.64l-1.69-1.11c-.14-.11-.25-.28-.32-.53,0-.25.07-.44.21-.58l.95-.74c.53-.32,1.09-.44,1.69-.37,3.48.67,6.7,1.85,9.65,3.53,2.35-2.67,4.29-5.48,5.8-8.44-8.19.6-16.03,2.37-23.52,5.33-.49,1.09-1.35,1.63-2.58,1.63-2.32-.14-4.34-1.05-6.06-2.74-1.72-1.69-2.66-3.69-2.79-6.01Z"/>
        <path class="cls-3" d="M220.05,23.82c1.44-1.55,3.27-2.13,5.48-1.74,2.64.39,4.76,1.65,6.38,3.8.35.53.47,1.12.34,1.77-.12.65-.47,1.15-1.03,1.5.21,6.57-1.04,12.76-3.74,18.56-1.65,2.99-3.8,5.52-6.43,7.59-2.64,2.08-5.61,3.59-8.91,4.54,4.11-4.36,7.07-9.33,8.86-14.9,1.79-5.57,2.34-11.33,1.63-17.27-.11-1.05-.56-1.99-1.37-2.79l-1.21-1.05ZM231.59,17.12c1.69-1.19,3.55-1.69,5.59-1.48,2.99.56,5.47,1.93,7.44,4.11.74.74.79,1.55.16,2.43-.42.56-.69,1.2-.79,1.9l-1.16,19.72c8.12-4.11,14.38-10.16,18.77-18.14-1.09,5.62-3.11,10.83-6.06,15.61-2.95,4.78-6.7,8.91-11.23,12.39-.53.53-.79,1.16-.79,1.9,0,.25-.12.44-.37.58-.28.18-.55.18-.79,0-3.13-1.86-5.85-3.99-8.17-6.38-.32-.42-.33-.84-.05-1.27.84-1.65,1.16-3.34.95-5.06l-.63-22.04c-.07-1.19-.47-2.2-1.21-3.01l-1.63-1.27Z"/>
        <path class="cls-3" d="M265.61,20.76c1.76.49,3.5.69,5.22.58l26.26-3.43c.7-.07,1.25-.37,1.63-.9l1.48-1.32c.35-.28.76-.41,1.24-.4.47.02.87.18,1.19.5l5.64,5.64c.21.28.29.62.24,1-.05.39-.24.69-.55.9l-.74.79c-1.79,7.03-4.85,13.48-9.18,19.35-3.66,5.1-8.21,9.1-13.66,12-5.45,2.9-11.32,4.44-17.61,4.61,8.44-2.85,15.4-7.8,20.88-14.87,5.38-6.4,8.46-13.82,9.23-22.25-7.31,1.02-14.48,2.71-21.52,5.06-.7.21-1.35.6-1.95,1.16-.88.84-1.76.86-2.64.05-2.71-2.25-4.43-5.08-5.17-8.49ZM305.32,14.28c0-1.72.64-3.21,1.92-4.46,1.28-1.25,2.79-1.85,4.51-1.82,1.72-.03,3.21.58,4.46,1.85,1.25,1.27,1.89,2.76,1.92,4.48,0,1.76-.64,3.27-1.92,4.54-1.28,1.27-2.8,1.9-4.56,1.9s-3.26-.64-4.51-1.92c-1.25-1.28-1.85-2.8-1.82-4.56ZM308.22,14.33c0,.95.36,1.78,1.08,2.48.72.7,1.56,1.05,2.5,1.05s1.78-.36,2.5-1.08,1.06-1.56,1.03-2.5c0-.98-.36-1.83-1.08-2.53-.72-.7-1.57-1.05-2.56-1.05-.92,0-1.73.36-2.45,1.08s-1.06,1.57-1.03,2.56Z"/>
        <path class="cls-3" d="M322.3,33.05c3.06.63,6.19.7,9.39.21,7.84-1.97,15.73-3.3,23.68-4.01.98-.03,1.93-.39,2.85-1.05l.95-.79c.84-.67,1.71-.74,2.58-.21,2.11,1.48,4.01,3.27,5.7,5.38.21.25.3.54.26.87-.04.33-.18.62-.42.87l-1.32.84c-1.44,4.15-3.53,7.88-6.28,11.21s-6.03,6.09-9.86,8.31c-6.33,3.87-13.24,6.22-20.72,7.07,6.36-2.32,11.87-5.86,16.53-10.63,4.66-4.76,8.06-10.36,10.2-16.8-8.58.81-16.7,2.9-24.36,6.28-.92.53-1.81.49-2.69-.11-2.74-1.97-4.9-4.45-6.49-7.44ZM326.89,20.39c3.38.32,6.77.23,10.18-.26,5.48-.88,11.16-2.25,17.03-4.11.88-.18,1.63-.12,2.27.16,1.69.77,3.23,1.67,4.64,2.69.7.53.88,1.21.53,2.06-.28.77-.86,1.16-1.74,1.16-7.88.39-15.52,1.74-22.94,4.06-.77.14-1.58.05-2.43-.26-2.95-1.34-5.47-3.16-7.54-5.48Z"/>
        <path class="cls-3" d="M377.67,17.6c4.75-.7,9.28-.02,13.61,2.06,2.43,1.37,4.17,3.34,5.22,5.91.35,1.05.32,2.13-.08,3.22-.4,1.09-1.12,1.9-2.14,2.43-1.13.74-2.37.96-3.74.66-1.37-.3-2.43-.99-3.16-2.08l-2.43-4.64c-1.79-3.13-4.22-5.64-7.28-7.54ZM378.72,48.77l1,.05c1.62.42,3.22.47,4.8.16,15.19-6.5,28.35-15.87,39.5-28.11-7.59,15.36-18.84,27.35-33.75,35.96-.67.49-1.16,1.12-1.48,1.9-.25.46-.62.79-1.11,1-.53.11-1.02.05-1.48-.16-4.08-2.46-6.57-6.06-7.49-10.81Z"/>
      </g>
    </g>
  </g>
</svg>