<?xml version="1.0" encoding="UTF-8"?>
<svg id="_レイヤー_2" data-name="レイヤー 2" xmlns="http://www.w3.org/2000/svg" xmlns:xlink="http://www.w3.org/1999/xlink" viewBox="0 0 552.89 68.71">
  <defs>
    <style>
      .cls-1 {
        fill: url(#_名称未設定グラデーション_120-5);
      }

      .cls-2 {
        fill: url(#_名称未設定グラデーション_120-6);
      }

      .cls-3 {
        fill: #fff;
      }

      .cls-4 {
        fill: url(#_名称未設定グラデーション_120-4);
      }

      .cls-5 {
        fill: url(#_名称未設定グラデーション_120-2);
      }

      .cls-6 {
        fill: url(#_名称未設定グラデーション_120-3);
      }

      .cls-7 {
        fill: url(#_名称未設定グラデーション_120-10);
      }

      .cls-8 {
        fill: url(#_名称未設定グラデーション_120);
      }

      .cls-9 {
        fill: url(#_名称未設定グラデーション_120-9);
      }

      .cls-10 {
        fill: none;
        stroke: #000;
        stroke-width: 6px;
      }

      .cls-11 {
        fill: url(#_名称未設定グラデーション_120-7);
      }

      .cls-12 {
        fill: url(#_名称未設定グラデーション_120-8);
      }
    </style>
    <linearGradient id="_名称未設定グラデーション_120" data-name="名称未設定グラデーション 120" x1="32.69" y1="68.71" x2="32.69" y2="0" gradientUnits="userSpaceOnUse">
      <stop offset="0" stop-color="#945700"/>
      <stop offset=".19" stop-color="#e9a900"/>
      <stop offset=".29" stop-color="#f5f8b4"/>
      <stop offset=".4" stop-color="#e9a900"/>
      <stop offset="1" stop-color="#fff87f"/>
    </linearGradient>
    <linearGradient id="_名称未設定グラデーション_120-2" data-name="名称未設定グラデーション 120" x1="88.71" x2="88.71" xlink:href="#_名称未設定グラデーション_120"/>
    <linearGradient id="_名称未設定グラデーション_120-3" data-name="名称未設定グラデーション 120" x1="141.5" x2="141.5" xlink:href="#_名称未設定グラデーション_120"/>
    <linearGradient id="_名称未設定グラデーション_120-4" data-name="名称未設定グラデーション 120" x1="194.84" x2="194.84" xlink:href="#_名称未設定グラデーション_120"/>
    <linearGradient id="_名称未設定グラデーション_120-5" data-name="名称未設定グラデーション 120" x1="249.83" x2="249.83" xlink:href="#_名称未設定グラデーション_120"/>
    <linearGradient id="_名称未設定グラデーション_120-6" data-name="名称未設定グラデーション 120" x1="303.2" x2="303.2" xlink:href="#_名称未設定グラデーション_120"/>
    <linearGradient id="_名称未設定グラデーション_120-7" data-name="名称未設定グラデーション 120" x1="357.19" x2="357.19" xlink:href="#_名称未設定グラデーション_120"/>
    <linearGradient id="_名称未設定グラデーション_120-8" data-name="名称未設定グラデーション 120" x1="410.68" x2="410.68" xlink:href="#_名称未設定グラデーション_120"/>
    <linearGradient id="_名称未設定グラデーション_120-9" data-name="名称未設定グラデーション 120" x1="464.84" x2="464.84" xlink:href="#_名称未設定グラデーション_120"/>
    <linearGradient id="_名称未設定グラデーション_120-10" data-name="名称未設定グラデーション 120" x1="518.84" x2="518.84" xlink:href="#_名称未設定グラデーション_120"/>
  </defs>
  <g id="_レイヤー_1-2" data-name="レイヤー 1">
    <g>
      <g>
        <path class="cls-3" d="M8,29.62c3.69.92,7.4.92,11.13,0,8.51-2.25,17.16-3.8,25.95-4.64,1.34-.18,2.51-.61,3.53-1.32.77-.35,1.58-.42,2.43-.21,2.67.6,4.71,2.09,6.12,4.48.35.67.3,1.35-.16,2.06-.49.63-1.11.92-1.85.84l-15.98.47,1.69,1.74c.28.21.37.49.26.84,0,.32-.16.56-.47.74l-1.16,1.27-.95,6.12c-.53,2.25-1.51,4.29-2.95,6.12-5.13,5.24-11.3,8.51-18.51,9.81,5.66-2.57,9.6-6.71,11.81-12.45,1.34-3.8,1.92-7.7,1.74-11.71l-.84-.74c-4.29,1.27-8.56,2.94-12.81,5.01-.74.35-1.46.32-2.16-.11-2.78-2.32-5.04-5.1-6.8-8.33ZM15.07,16.38c2.95.28,5.73.19,8.33-.26l13.66-3.11c1.2-.21,2.25-.67,3.16-1.37.81-.42,1.65-.51,2.53-.26,2,.53,3.88,1.37,5.64,2.53.81.74.95,1.58.42,2.53-.63,1.2-1.63,1.79-3.01,1.79-7.14.49-14.29,1.76-21.46,3.8-.74.28-1.48.19-2.21-.26-2.81-1.34-5.17-3.13-7.07-5.38Z"/>
        <path class="cls-3" d="M66.85,17.33c1.34-2.35,3.34-3.53,6.01-3.53,2.88.11,5.29,1.18,7.22,3.22.49.63.75,1.34.76,2.11.02.77-.22,1.46-.71,2.06l-.53.58c-.39.53-.62,1.04-.69,1.53-.98,6.61-1.51,13.5-1.58,20.67,13.54-5.8,24.61-14.66,33.22-26.58-2.95,7.95-7.09,15.1-12.42,21.46-5.33,6.36-11.59,11.71-18.8,16.03l-.74,1.05c-.18.32-.43.52-.76.61-.33.09-.64.06-.92-.08-3.48-1.93-6.43-4.32-8.86-7.17-.14-.18-.21-.39-.21-.63s.07-.46.21-.63c.95-1.05,1.53-2.27,1.74-3.64.56-8.09.46-16.07-.32-23.94,0-.91-.37-1.63-1.11-2.16l-1.53-.95Z"/>
        <path class="cls-3" d="M133.35,12.96c1.65-2.07,3.81-2.95,6.49-2.64,2.53.32,4.66,1.51,6.38,3.59.6.6.6,1.23,0,1.9l-.84,1.16c-.63.88-1.07,1.85-1.32,2.9l-.11,3.32,7.33-.53c1.41-.14,2.81-.46,4.22-.95,1.09-.35,2.11-.35,3.06,0,2.46.95,4.39,2.51,5.8,4.69.32.46.33.92.05,1.37-.18.49-.51.79-1,.9-1.41.7-2.95.88-4.64.53-4.78-1.09-9.72-1.25-14.82-.47-.42,7.24-.37,14.42.16,21.52.14,1.83-.28,3.5-1.27,5.01-1.44,2.25-3.45,3.73-6.01,4.43-.6.18-1.2.15-1.79-.08-.6-.23-1.05-.61-1.37-1.13-1.83-3.51-4.64-5.83-8.44-6.96,2.53.53,5.1.83,7.7.9.91.11,1.63-.18,2.16-.84.67-.53.95-1.21.84-2.06l-.26-19.51c-2.46.21-4.71.83-6.75,1.85,1.02,2.92,1.48,5.89,1.37,8.91,0,2.57-.84,4.85-2.53,6.86-1.65,1.44-3.57,2.11-5.75,2-1.16.11-2.21-.21-3.16-.95s-1.51-1.69-1.69-2.85c-.28-1.97.42-3.53,2.11-4.69,2.74-1.19,5.19-2.88,7.33-5.06.95-1.12,1.34-2.41,1.16-3.85l-2.74.74c-.53.21-1.14.16-1.85-.16-3.59-1.58-6.24-4.17-7.96-7.75,2.99.92,5.99,1.16,9.02.74l11.6-1.74-.16-7.49c-.14-1.51-.92-2.71-2.32-3.59ZM145.95,31.15c4.99.53,9.33,2.57,13.03,6.12,2.53,2.53,3.45,5.56,2.74,9.07-.46,2.14-1.67,3.57-3.64,4.27-1.05.42-2.09.35-3.11-.21-1.02-.49-1.65-1.32-1.9-2.48-.25-2.18-.7-4.55-1.37-7.12-.88-3.8-2.79-7.01-5.75-9.65ZM149.8,10.95c2.04-.63,4.07-.57,6.09.18,2.02.76,3.59,2.07,4.72,3.93.46.92.51,1.86.16,2.85-.35.88-1,1.53-1.95,1.95-.81.32-1.61.3-2.4-.05-.79-.35-1.34-.91-1.66-1.69l-1.42-3.69c-.7-1.69-1.88-2.85-3.53-3.48ZM156.29,9.11c1.86-.67,3.74-.77,5.64-.32,1.9.46,3.53,1.41,4.9,2.85.6.63.91,1.4.95,2.29.03.9-.23,1.7-.79,2.4-.56.6-1.27.9-2.14.9s-1.57-.28-2.14-.84c-.81-.95-1.34-2.02-1.58-3.22-.32-1.09-.92-2-1.79-2.74-.88-.74-1.9-1.18-3.06-1.32Z"/>
        <path class="cls-3" d="M169.31,30.31c5.13.77,10.3.95,15.5.53l11.71-.63,12.23-.32,2.32-.53c.7-.28,1.48-.21,2.32.21,2.25,1.41,4.36,2.85,6.33,4.32.42.42.63.93.63,1.53s-.21,1.11-.63,1.53c-.84.77-1.83,1.05-2.95.84-11.39-2.53-22.75-2.43-34.07.32-.84.28-1.58.67-2.21,1.16-.56.49-1.27.6-2.11.32-4.08-1.97-7.1-5.06-9.07-9.28Z"/>
        <path class="cls-3" d="M236.02,12.22l-.16-.79c2.39-1.69,5.01-2.29,7.86-1.79,2.14.63,4.03,1.83,5.64,3.59.49.56.51,1.14.05,1.74l-1.79,1.9c-.46,2.88-.65,5.84-.58,8.86,3.23.53,6.42,1.34,9.54,2.43,3.2,1.3,5.5,3.53,6.91,6.7.6,1.69.32,3.27-.84,4.75-1.23,1.37-2.74,1.9-4.54,1.58-1.3-.39-2.41-1.09-3.32-2.11-.92-1.02-1.51-2.21-1.79-3.59-.28-1.72-.98-3.25-2.11-4.59-1.13-1.34-2.51-2.27-4.17-2.79-.14,6.93-.12,14.7.05,23.31.11,1.93.02,3.66-.26,5.17-.53,1.37-1.44,2.41-2.74,3.11-.6.18-1.13.12-1.58-.16-1.9-1.51-3.41-3.25-4.54-5.22-.42-.84-.44-1.69-.05-2.53,1.27-12.27,1.56-24.71.9-37.34-.14-.6-.43-1.1-.87-1.5-.44-.4-.98-.64-1.61-.71Z"/>
        <path class="cls-3" d="M279.27,32.26l1.9,1.16c.46.32.95.41,1.48.29.53-.12.95-.38,1.27-.76,2.21-3.06,4.87-6.36,7.96-9.91,1.02-1.23,2.25-2.21,3.69-2.95,1.3-.7,2.68-.83,4.14-.4,1.46.44,2.54,1.29,3.24,2.56,4.71,10.41,11.9,18.69,21.57,24.84,1.34,1.23,2.25,2.78,2.74,4.64.35,1.3,0,2.43-1.05,3.38-.92.81-2,1.29-3.27,1.45s-2.46-.03-3.59-.55c-8.83-8.33-15.28-18.26-19.35-29.79-.42-.67-1.05-1-1.9-1s-1.42.35-1.85,1.05c-2.18,4.43-4.18,9.12-6.01,14.08-.28.77-.76,1.4-1.42,1.87-.67.47-1.39.71-2.16.71-1.69-.11-3.13-.7-4.32-1.79-1.34-1.09-2.28-2.42-2.82-3.98-.55-1.56-.62-3.19-.24-4.88Z"/>
        <path class="cls-3" d="M356.36,20.92c3.3,5.77,4.08,11.85,2.32,18.25-.7,3.27-2.09,6.2-4.17,8.78-2.08,2.58-4.64,4.53-7.7,5.83-1.13.56-2.23.62-3.32.16-1.97-1.02-3.06-2.64-3.27-4.85-1.76-.18-3.28-.83-4.56-1.95-1.28-1.12-2.15-2.53-2.61-4.22-.74-3.51-.25-6.87,1.48-10.07,1.83-3.69,4.35-6.82,7.57-9.39,3.22-2.57,6.85-4.31,10.89-5.22,6.01-1.65,11.78-1.09,17.3,1.69,2.71,1.27,5,3.01,6.88,5.25,1.88,2.23,3.19,4.79,3.93,7.67.81,3.16.76,6.28-.16,9.36-.92,3.08-2.58,5.72-5.01,7.94-2.95,2.74-6.33,4.72-10.12,5.93s-7.7,1.61-11.71,1.19c4.18-1.34,7.83-3.52,10.94-6.57,3.11-3.04,5.37-6.65,6.78-10.84.74-2.5.88-5,.42-7.51-.46-2.51-1.5-4.81-3.11-6.88-1.65-1.79-3.59-3.08-5.83-3.88-2.23-.79-4.54-1.01-6.93-.66ZM351.72,22.24c-5.73,3.76-9.35,9.02-10.86,15.77-.74,2.99-.37,5.8,1.11,8.44.42.42.93.68,1.53.76.6.09,1.12-.11,1.58-.61,3.2-3.23,5.38-7,6.54-11.31,1.16-4.31,1.19-8.66.11-13.05Z"/>
        <path class="cls-3" d="M390.27,36.53c-1.72,2.95-1.79,5.91-.21,8.86.77,1.48,1.86,2.64,3.27,3.48,1.41.84,2.93,1.27,4.59,1.27,5.59-.32,11.07-1.39,16.45-3.22,2.39-.81,4.78-.81,7.17,0,1.37.53,2.53,1.3,3.48,2.32.53.81.68,1.68.45,2.61-.23.93-.78,1.59-1.66,1.98-5.7,2.53-11.65,4.01-17.88,4.43-5.66.67-11.02-.4-16.08-3.22-1.72-1.12-3.05-2.58-3.98-4.38-.93-1.79-1.34-3.71-1.24-5.75.03-1.86.56-3.56,1.58-5.09,1.02-1.53,2.37-2.63,4.06-3.3ZM387,15.7c3.34,1.34,6.73,1.58,10.18.74l15.93-4.64c1.48-.28,2.85-.02,4.11.79,2.04,1.09,3.2,2.81,3.48,5.17.11.67,0,1.27-.34,1.82-.33.55-.8.91-1.4,1.08l-6.01,1.11c-5.59,1.09-10.88,3.11-15.87,6.06.6-2.04,1.72-3.64,3.38-4.8-5.48-.56-9.97-3.01-13.45-7.33ZM419.38,21.76c2.25-.67,4.39-.4,6.43.79,2.07,1.16,3.38,2.88,3.9,5.17.28.77.25,1.53-.11,2.27-.35.74-.9,1.27-1.63,1.58-.84.28-1.69.24-2.53-.13s-1.46-.94-1.85-1.71l-.95-3.64c-.42-1.86-1.51-3.3-3.27-4.32ZM425.34,20.39c3.59-.95,6.87-.33,9.86,1.85.81.77,1.3,1.71,1.48,2.79.18,1.09-.04,2.11-.63,3.06-.77.92-1.76,1.26-2.95,1.03-1.2-.23-1.99-.9-2.37-2.03l-.95-2.9c-.84-2.04-2.32-3.3-4.43-3.8Z"/>
        <path class="cls-3" d="M442.9,13.12h17.19c.56-1.05,1.12-2.29,1.69-3.69l7.28,3.9c.42.28.6.65.53,1.11-.07.46-.3.76-.69.9l-1.53.84,2.64,2.64c1.37-2.18,2.37-4.61,3.01-7.28l6.17,4.11c.42.35.56.74.42,1.16-.25.42-.6.63-1.05.63-2.71.28-5.19,1.09-7.44,2.43,1.19,1.05,2.48,2.14,3.85,3.27l5.38-6.12,4.96,4.85c.32.42.33.84.05,1.27-.32.42-.7.56-1.16.42-2.5-.35-4.98-.07-7.44.84,4.43,3.09,9.09,5.48,13.97,7.17-2.71,1.48-5.15,3.2-7.33,5.17-3.09-2.18-5.78-4.39-8.07-6.64-.18.56-.55.88-1.11.95h-18.88c-.92.84-1.76,1.51-2.53,2l3.16.74h16.4l1.42-1.69c.42-.35.88-.39,1.37-.11l5.8,4.11c.28.14.42.39.42.74,0,.28-.12.53-.37.74l-1.11,1.16v5.91c-.04.35-.19.65-.47.9-.28.25-.62.37-1,.37h-4.32l3.27,2.43c.46.21.61.6.47,1.16-.07.56-.39.88-.95.95l-1.16.11-5.91,6.01h8.12l2.69-3.59c.32-.35.65-.53,1-.53.46,0,.83.14,1.11.42l4.69,4.43c.42.42.53.91.32,1.48-.18.49-.58.74-1.21.74h-44.19l-1.58-2.95h16.4c-.77-.35-1.34-.88-1.71-1.58s-.47-1.44-.29-2.21c.18-2.11-.47-3.9-1.95-5.38l-2.74.21c-.46.07-.84-.03-1.16-.32-.32-.28-.47-.63-.47-1.05v-10.76c-3.09,1.83-6.4,3.27-9.91,4.32,4.67-3.73,8.77-7.84,12.29-12.34-1.05.21-1.99-.07-2.79-.84-.81-.7-1.18-1.58-1.11-2.64-.07-2.74-1.05-5.03-2.95-6.86,3.48.07,6.29,1.48,8.44,4.22.49.84.84,1.69,1.05,2.53,1.69-2.39,3.27-4.99,4.75-7.8h-14.77l-.95-2.95ZM456.77,45.92c-.18.7-.62,1.05-1.32,1.05,2.74.84,4.71,2.53,5.91,5.06.39.92.4,1.79.05,2.64-.39.91-1,1.55-1.85,1.9h7.38c1.37-3.45,2.16-7,2.37-10.65h-12.55ZM456.77,36.63v6.33h15.19v-6.33h-15.19ZM465.95,18.18c-1.9,3.59-4.38,6.89-7.44,9.91h8.44l1.69-2.32c.46-.63,1.04-.77,1.74-.42l1.11.63c-2-2.32-3.85-4.92-5.54-7.8Z"/>
        <path class="cls-3" d="M492.79,33.95c4.71-8.02,7.84-16.66,9.39-25.95l8.75,3.59c.49.11.67.42.53.95-.07.53-.35.79-.84.79l-1.16.21c3.45.6,6.05,2.41,7.8,5.43.63,1.48.42,2.81-.63,4.01-.49.56-1.09.94-1.79,1.13-.7.19-1.41.18-2.11-.03l2.53,3.48h13.39v-4.85h-9.6l-1.16-3.32h10.76v-5.01h-11.18l-1.69-3.06h14.45l1.37-1.95c.28-.39.67-.62,1.16-.71.49-.09.91.04,1.27.4l4.75,3.85c.42.35.6.79.53,1.32-.14.53-.42.88-.84,1.05l-2.32.95v11.34l2.32-3.01c.14-.42.46-.6.95-.53.42-.07.74.11.95.53l3.69,4.06c.28.28.35.63.21,1.05-.07.39-.32.62-.74.69h-5.7l4.96,4.75c.28.32.35.7.21,1.16-.14.39-.46.62-.95.69h-1.9l-6.01,2.64c2.39,4.46,5.98,7.54,10.76,9.23-2.6,1.3-4.92,3.08-6.96,5.33-3.02-3.59-5.1-7.65-6.22-12.18v10.86c-.07,1.58-.46,3.08-1.16,4.48-1.27,2-3.09,3.13-5.48,3.38-1.83.18-3.2-.55-4.11-2.16-1.48-2.53-3.62-4.24-6.43-5.12,2.25-.11,4.61-.07,7.07.11.63.04,1.19-.14,1.69-.53.49-.39.77-.9.84-1.53v-7.65c-2.74,1.55-4.57,3.8-5.48,6.75-.21.49-.56.77-1.05.84-.56.11-.98-.09-1.27-.58l-17.3,8.07-.21.9c-.07.39-.32.61-.74.69-.42.11-.74-.04-.95-.42l-4.32-8.02,8.54-.84v-14.24h-5.91l-1.16-2.64h7.07v-5.01h-2.43c-2.04,1.83-4.08,3.38-6.12,4.64ZM493.74,37.74c2.04.53,3.74,1.61,5.12,3.24s2.09,3.51,2.16,5.62c.07,1.34-.49,2.34-1.69,3.01-1.27.56-2.39.46-3.38-.32-1.13-.84-1.55-1.93-1.27-3.27.7-2.92.39-5.68-.95-8.28ZM507.76,26.25l3.16-3.32c-.56-.74-.84-1.49-.84-2.27-.07-1.69-.67-3.15-1.79-4.38-1.76,3.73-3.94,7.05-6.54,9.97h6.01ZM508.92,34.31l1.9-2.85c.28-.39.63-.58,1.05-.58s.74.19.95.58l2.95,3.38c.35.39.46.83.32,1.32-.21.46-.6.72-1.16.79h-2.74l4.85,3.16c.35.32.49.7.42,1.16-.07.46-.35.74-.84.84l-1.05.05-.63,1.05c2.88-1.09,5.94-1.81,9.18-2.16v-10.71h-8.54l-.74-1.05h-6.75v5.01h.84ZM508.08,47.92c1.48-3.48,2.32-7.14,2.53-10.97h-2.53v10.97ZM509.45,50.56l6.43-.53-2.43-4.22c-1.05,1.41-2.39,2.99-4.01,4.75ZM514.51,30.52c1.76.07,3.41.55,4.96,1.45,1.55.9,2.78,2.1,3.69,3.61.77,1.44.63,2.76-.42,3.96-1.13,1.23-2.43,1.53-3.9.9-1.48-.7-2.14-1.86-2-3.48.14-2.46-.63-4.61-2.32-6.43ZM531.7,30.36c0,2.32.42,4.52,1.27,6.59l2.85-6.59h-4.11Z"/>
      </g>
      <g>
        <path class="cls-8" d="M17.06,65.94c-3.44,0-6.58-2.23-7.63-5.62-1.2-3.85.66-8,4.33-9.67,2.72-1.23,4.75-2.91,6.21-5.18-1.32.56-2.65.83-4.01.83-1.84,0-3.66-.51-5.28-1.49-.36-.21-.69-.45-1.01-.72-3.54-2.96-6.47-6.54-8.7-10.65-1.51-2.79-1.24-6.2.7-8.71,1.54-1.99,3.89-3.11,6.33-3.11.36,0,.72.02,1.08.07-.04-.05-.09-.1-.13-.15-2.1-2.49-2.48-5.99-.97-8.87,1.39-2.65,4.13-4.29,7.08-4.29.25,0,.51.01.76.04.87.08,1.72.12,2.54.12,1.21,0,2.37-.09,3.47-.27l13.45-3.06c.08-.02.17-.04.25-.05.31-.23.64-.43.99-.61,1.66-.87,3.44-1.31,5.27-1.31,1.02,0,2.04.14,3.04.41,2.82.75,5.5,1.95,7.97,3.58.35.23.68.49.99.77,2.65,2.42,3.76,5.82,3.17,9.13,2.92,1.48,5.33,3.76,7.09,6.75.06.11.12.22.18.33,1.7,3.23,1.5,7.02-.53,10.14-.12.19-.25.37-.39.55-1.95,2.51-4.84,3.94-7.94,3.94-.1,0-.2,0-.31,0l-7.61.23c-.14.19-.29.38-.45.56l-.56,3.61c-.03.2-.07.4-.12.6-.79,3.39-2.3,6.5-4.46,9.25-.18.22-.37.44-.57.64-6.29,6.42-13.96,10.49-22.8,12.08-.48.09-.96.13-1.43.13Z"/>
        <path class="cls-5" d="M77.47,64.59c-1.44,0-2.82-.32-4.11-.96-.11-.05-.22-.11-.33-.17-4.3-2.39-8.03-5.41-11.07-8.98-.05-.06-.11-.13-.16-.19-1.29-1.61-1.96-3.55-1.96-5.63s.67-4.01,1.95-5.61c.03-.03.05-.06.08-.1.41-6.54.36-13.07-.15-19.47-2.93-2.44-3.77-6.69-1.83-10.09,2.78-4.89,7.38-7.59,12.97-7.59.1,0,.19,0,.29,0,4.96.18,9.37,2.15,12.74,5.71.18.19.35.39.51.59,1.54,1.99,2.39,4.35,2.45,6.84.06,2.53-.7,4.9-2.21,6.91-.19,1.41-.37,2.84-.52,4.28,6.93-4.66,12.94-10.49,17.96-17.44,1.55-2.15,3.99-3.31,6.49-3.31,1.28,0,2.57.31,3.77.94,3.53,1.89,5.12,6.09,3.73,9.84-3.26,8.77-7.9,16.78-13.78,23.81-5.5,6.57-11.99,12.23-19.32,16.83-1.25,1.7-3.02,2.92-5.08,3.46-.81.21-1.61.31-2.41.31Z"/>
        <path class="cls-6" d="M136.05,67.79c-1.32,0-2.62-.24-3.87-.72-2.28-.87-4.14-2.43-5.37-4.49-.08-.14-.16-.28-.24-.42-.82-1.58-1.9-2.48-3.61-2.98-1.15-.34-2.16-.91-3-1.66-2.17-.29-4.22-1.15-6.01-2.55-2.58-2.01-4.2-4.76-4.69-7.96-.63-4.41.81-8.42,3.98-11.29-2.13-2-3.88-4.41-5.23-7.22-1.38-2.86-.93-6.27,1.15-8.68,1.54-1.8,3.77-2.78,6.07-2.78.78,0,1.57.11,2.34.35,1.29.4,2.54.59,3.81.59.58,0,1.17-.04,1.76-.12l3.52-.53c-.59-.9-.99-1.93-1.18-3.01-.38-2.25.21-4.55,1.63-6.34,2.94-3.69,7.09-5.71,11.71-5.71.65,0,1.31.04,1.98.12,1.87.23,3.64.74,5.29,1.5.43-.23.89-.42,1.37-.57,1.41-.44,2.85-.7,4.28-.77.57-.4,1.2-.72,1.88-.97,1.97-.7,4-1.06,6.03-1.06,1.39,0,2.79.17,4.17.5,3.42.82,6.39,2.54,8.83,5.11,1.95,2.07,3.04,4.65,3.15,7.49.11,2.83-.77,5.49-2.53,7.71-.13.17-.27.33-.42.49-.39.41-.8.79-1.24,1.13,1.35,2.62,1.37,5.66.04,8.31-.85,1.84-2.24,3.33-3.97,4.29,2.12,3.69,2.79,7.94,1.91,12.37l-.02.1c-1.03,4.84-4.1,8.42-8.64,10.09-1.35.52-2.75.78-4.17.78-1.89,0-3.72-.46-5.44-1.38-.16-.08-.32-.17-.48-.25-.35.81-.78,1.6-1.27,2.36-2.46,3.84-6.11,6.54-10.54,7.77-.97.28-1.96.42-2.95.42Z"/>
        <path class="cls-4" d="M179.25,47.74c-1.13,0-2.28-.19-3.4-.57-.32-.11-.63-.23-.94-.38-5.76-2.78-10.08-7.19-12.84-13.1-1.25-2.67-.92-5.81.84-8.17,1.52-2.04,3.91-3.21,6.41-3.21.4,0,.79.03,1.19.09,2.91.44,5.88.66,8.82.66,1.6,0,3.24-.07,4.85-.2.07,0,12.07-.65,12.15-.66l11.44-.3,1.15-.26c.99-.3,2.01-.46,3.05-.46,1.71,0,3.4.41,5.02,1.22.23.11.45.24.66.37,2.43,1.52,4.75,3.1,6.89,4.71.3.23.59.48.86.74,1.92,1.92,2.98,4.47,2.98,7.19s-1.06,5.27-2.98,7.19c-.08.08-.17.16-.25.24-2.15,1.97-4.8,3.01-7.65,3.01-.72,0-1.45-.07-2.18-.21-.09-.02-.17-.03-.26-.05-4.87-1.08-9.8-1.63-14.64-1.63s-10.14.59-15.18,1.77c-1.71,1.3-3.8,2-5.96,2Z"/>
        <path class="cls-1" d="M243.12,67.78c-1.81,0-3.58-.5-5.12-1.45-.27-.17-.53-.35-.78-.55-2.69-2.14-4.87-4.67-6.5-7.51-.07-.13-.14-.26-.21-.39-1.25-2.51-1.51-5.24-.76-7.85,1.03-10.44,1.34-21.14.92-31.87-1.25-1.12-2.14-2.64-2.49-4.37l-.16-.79c-.62-3.1.65-6.28,3.23-8.1,3.22-2.27,6.78-3.42,10.58-3.42,1.07,0,2.17.1,3.26.28.3.05.61.12.9.21,3.54,1.05,6.66,3.01,9.27,5.84.04.05.09.1.13.15,2.95,3.37,3.17,7.99.58,11.6,1.09.32,2.17.66,3.25,1.04.13.04.26.09.39.15,5.09,2.07,8.97,5.83,11.2,10.86.08.19.16.38.23.58,1.5,4.25.74,8.75-2.09,12.36-.11.14-.22.27-.34.4-2.5,2.79-5.88,4.33-9.51,4.33-.78,0-1.58-.07-2.37-.21-.3-.05-.6-.12-.89-.21-.38-.11-.75-.24-1.11-.38.01.87.03,1.76.05,2.65.13,2.5,0,4.83-.39,6.92-.09.48-.22.95-.4,1.41-1.21,3.15-3.42,5.66-6.4,7.27-.5.27-1.02.48-1.56.64-.96.28-1.94.43-2.91.43Z"/>
        <path class="cls-2" d="M322.06,64.6c-2.13,0-4.18-.46-6.12-1.36-.77-.36-1.48-.84-2.1-1.43-6.27-5.92-11.49-12.63-15.61-20.05-.17.45-.34.89-.5,1.34-.83,2.26-2.31,4.22-4.29,5.62-2.02,1.44-4.37,2.19-6.8,2.19-.17,0-.33,0-.5-.02-3.42-.21-6.54-1.5-9.04-3.71-2.41-2.01-4.14-4.5-5.16-7.42-1.05-3-1.21-6.13-.48-9.3.58-2.51,2.32-4.58,4.69-5.58,1-.42,2.05-.63,3.1-.63.38,0,.75.03,1.12.08,1.64-2.08,3.44-4.25,5.39-6.5,1.68-2.01,3.72-3.64,6.06-4.85,1.95-1.04,4.04-1.57,6.21-1.57,1.32,0,2.65.2,3.96.59,3.47,1.05,6.21,3.23,7.93,6.33.11.19.21.39.3.59,4.09,9.04,10.17,16.04,18.57,21.39.4.26.78.55,1.13.87,2.47,2.27,4.17,5.13,5.05,8.48,1.12,4.16-.16,8.42-3.44,11.37-2.16,1.91-4.78,3.09-7.63,3.44-.62.08-1.24.12-1.86.12Z"/>
        <path class="cls-11" d="M357.18,65.42c-1.29,0-2.61-.07-3.92-.21-2.33-.25-4.35-1.48-5.65-3.27-.87.2-1.75.3-2.64.3-1.56,0-3.1-.31-4.57-.93-.2-.08-.39-.17-.58-.27-2.54-1.32-4.51-3.2-5.81-5.5-1.3-.62-2.52-1.42-3.62-2.39-2.48-2.17-4.18-4.92-5.06-8.14-.04-.15-.07-.29-.11-.44-1.12-5.35-.39-10.53,2.19-15.38,2.34-4.68,5.6-8.71,9.69-11.97,4.11-3.28,8.79-5.54,13.94-6.73,2.86-.77,5.75-1.16,8.57-1.16,4.86,0,9.63,1.15,14.17,3.41,3.71,1.75,6.91,4.2,9.51,7.29,2.66,3.15,4.53,6.8,5.56,10.84,1.17,4.57,1.09,9.16-.24,13.62-1.33,4.48-3.78,8.37-7.28,11.57-3.76,3.49-8.18,6.08-13.08,7.65-3.59,1.15-7.31,1.73-11.06,1.73Z"/>
        <path class="cls-12" d="M402.71,66.45c-5.84,0-11.47-1.49-16.74-4.42-.17-.09-.33-.19-.49-.29-2.88-1.88-5.14-4.37-6.71-7.39-1.57-3.02-2.29-6.29-2.13-9.72.09-3.36,1.07-6.47,2.92-9.25,1.93-2.9,4.55-5.02,7.77-6.29.58-.23,1.18-.39,1.79-.48-.03-.28-.04-.56-.04-.83-3.12-1.71-5.9-4.07-8.3-7.06-2.28-2.83-2.36-6.85-.2-9.77,1.54-2.09,3.95-3.24,6.43-3.24,1,0,2,.19,2.97.57,1.1.44,2.16.66,3.23.66.63,0,1.27-.07,1.93-.23l15.74-4.58c.24-.07.49-.13.74-.18.87-.17,1.75-.25,2.62-.25,2.46,0,4.88.69,7.03,1.99,2.7,1.51,4.74,3.68,6.01,6.33.42-.03.84-.04,1.25-.04,4.09,0,7.92,1.28,11.39,3.81.29.21.56.44.82.68,2.06,1.97,3.39,4.49,3.84,7.29.49,3.03-.12,6-1.76,8.6-.2.32-.42.62-.66.9-2.11,2.49-5.01,3.88-8.2,3.93-.84.71-1.78,1.29-2.83,1.74-.2.09-.41.16-.61.23-1.18.4-2.4.6-3.63.6-.77,0-1.53-.08-2.29-.23,2.43.96,4.54,2.4,6.28,4.26.31.34.6.7.85,1.08,1.73,2.66,2.27,5.81,1.51,8.88-.83,3.37-3.03,5.99-6.21,7.39-6.45,2.86-13.3,4.58-20.37,5.08-1.32.15-2.65.22-3.96.22ZM396.92,41.15s.02.15.19.46c.14.26.21.32.33.4.11.07.2.11.34.12,4.73-.3,9.45-1.23,14.02-2.79,2.03-.69,4.1-1.03,6.16-1.03,1.5,0,3,.18,4.48.54-.07-.03-.13-.06-.2-.09-2.56-1.12-4.57-3.01-5.79-5.47-.25-.5-.45-1.02-.59-1.56l-.59-2.27-.87.16c-4.58.89-9.07,2.61-13.25,5.08-.91.54-1.9.88-2.92,1.03.16,1.64-.18,3.33-1.05,4.82-.23.4-.26.58-.26.59h0Z"/>
        <path class="cls-9" d="M442.37,67.52c-2.95,0-5.66-1.62-7.05-4.22l-1.58-2.95c-1.33-2.48-1.26-5.47.19-7.89,1.44-2.41,4.05-3.89,6.86-3.89h.35c-.08-.34-.15-.68-.2-1.02-.67.17-1.34.26-2,.26-2.91,0-5.68-1.6-7.09-4.29-1.78-3.4-.9-7.58,2.1-9.97,2.15-1.71,4.17-3.52,6.05-5.42-.48-1.29-.71-2.68-.68-4.12-.05-.63-.23-.85-.5-1.11-.82-.79-1.44-1.71-1.85-2.72-.31-.51-.56-1.06-.74-1.65l-.95-2.95c-.78-2.43-.35-5.09,1.15-7.16s3.91-3.29,6.46-3.29h12.14c.94-1.47,2.34-2.6,4-3.21.89-.32,1.81-.48,2.74-.48,1.31,0,2.61.32,3.78.95l3.8,2.04c.23-.12.47-.23.72-.32.95-.37,1.94-.56,2.93-.56,1.56,0,3.11.46,4.44,1.34l6.17,4.11c.24.16.47.33.68.51.68.57,1.26,1.21,1.74,1.9l4.85,4.75c.29.28.56.59.8.92,1.55,2.07,2.13,4.57,1.72,6.97,2.95,1.05,5.02,3.74,5.28,6.87.26,3.16-1.36,6.17-4.14,7.69-2.14,1.17-4.09,2.54-5.8,4.08-.27.24-.55.46-.84.66v1.31c0,.27-.01.53-.04.8-.04.38-.1.75-.18,1.12.21.17.41.35.6.53l4.65,4.39c.06.05.11.11.17.16,2.63,2.62,3.45,6.41,2.17,9.9-1.33,3.63-4.75,5.98-8.72,5.98h-44.19Z"/>
        <path class="cls-7" d="M524.54,68.71c-4.44,0-8.26-2.25-10.52-6.18-.34-.58-.72-.96-1.25-1.23l-7.66,3.58c-1.28,1.74-3.18,2.98-5.42,3.43-.62.13-1.26.2-1.89.2-3.2,0-6.16-1.77-7.72-4.62l-4.34-8.05c-1.27-2.36-1.28-5.19-.02-7.56.25-.47.55-.91.88-1.32-.01-.85.07-1.72.26-2.59.02-.07.03-.15.05-.22.25-1.06.17-1.86-.29-2.75-.59-1.16-.89-2.42-.88-3.67-1.29-2.41-1.29-5.38.15-7.83,4.19-7.13,7.01-14.94,8.39-23.21.4-2.4,1.87-4.49,4-5.67,1.21-.67,2.55-1.01,3.89-1.01,1.03,0,2.06.2,3.03.6l7.83,3.21c.87-.32,1.79-.48,2.74-.48h10.53c1.38-1.31,3.12-2.2,5.05-2.54.57-.1,1.13-.15,1.69-.15,2.3,0,4.49.83,6.21,2.36,0,0,4.61,3.74,4.64,3.76,2.52,2.1,3.77,5.29,3.34,8.52-.04.34-.11.67-.2,1-.24.9-.59,1.74-1.05,2.5.25.26.48.54.69.83l3.23,3.55c2.14,2.28,2.92,5.47,2.1,8.51-.23.92-.6,1.78-1.08,2.56.25,1.42.17,2.91-.28,4.37-.04.13-.08.26-.13.39-.39,1.08-.96,2.04-1.68,2.86,2.33,1.32,3.87,3.73,4.04,6.46.2,3.2-1.54,6.22-4.41,7.65-1.72.86-3.23,2.02-4.61,3.54-1.52,1.67-3.67,2.63-5.93,2.63-.05,0-.09,0-.14,0-.27,0-.54-.02-.81-.06-2.57,3.76-6.49,6.08-11.1,6.55-.49.05-.92.07-1.34.07Z"/>
      </g>
      <g>
        <path class="cls-10" d="M8,29.62c3.69.92,7.4.92,11.13,0,8.51-2.25,17.16-3.8,25.95-4.64,1.34-.18,2.51-.61,3.53-1.32.77-.35,1.58-.42,2.43-.21,2.67.6,4.71,2.09,6.12,4.48.35.67.3,1.35-.16,2.06-.49.63-1.11.92-1.85.84l-15.98.47,1.69,1.74c.28.21.37.49.26.84,0,.32-.16.56-.47.74l-1.16,1.27-.95,6.12c-.53,2.25-1.51,4.29-2.95,6.12-5.13,5.24-11.3,8.51-18.51,9.81,5.66-2.57,9.6-6.71,11.81-12.45,1.34-3.8,1.92-7.7,1.74-11.71l-.84-.74c-4.29,1.27-8.56,2.94-12.81,5.01-.74.35-1.46.32-2.16-.11-2.78-2.32-5.04-5.1-6.8-8.33ZM15.07,16.38c2.95.28,5.73.19,8.33-.26l13.66-3.11c1.2-.21,2.25-.67,3.16-1.37.81-.42,1.65-.51,2.53-.26,2,.53,3.88,1.37,5.64,2.53.81.74.95,1.58.42,2.53-.63,1.2-1.63,1.79-3.01,1.79-7.14.49-14.29,1.76-21.46,3.8-.74.28-1.48.19-2.21-.26-2.81-1.34-5.17-3.13-7.07-5.38Z"/>
        <path class="cls-10" d="M66.85,17.33c1.34-2.35,3.34-3.53,6.01-3.53,2.88.11,5.29,1.18,7.22,3.22.49.63.75,1.34.76,2.11.02.77-.22,1.46-.71,2.06l-.53.58c-.39.53-.62,1.04-.69,1.53-.98,6.61-1.51,13.5-1.58,20.67,13.54-5.8,24.61-14.66,33.22-26.58-2.95,7.95-7.09,15.1-12.42,21.46-5.33,6.36-11.59,11.71-18.8,16.03l-.74,1.05c-.18.32-.43.52-.76.61-.33.09-.64.06-.92-.08-3.48-1.93-6.43-4.32-8.86-7.17-.14-.18-.21-.39-.21-.63s.07-.46.21-.63c.95-1.05,1.53-2.27,1.74-3.64.56-8.09.46-16.07-.32-23.94,0-.91-.37-1.63-1.11-2.16l-1.53-.95Z"/>
        <path class="cls-10" d="M133.35,12.96c1.65-2.07,3.81-2.95,6.49-2.64,2.53.32,4.66,1.51,6.38,3.59.6.6.6,1.23,0,1.9l-.84,1.16c-.63.88-1.07,1.85-1.32,2.9l-.11,3.32,7.33-.53c1.41-.14,2.81-.46,4.22-.95,1.09-.35,2.11-.35,3.06,0,2.46.95,4.39,2.51,5.8,4.69.32.46.33.92.05,1.37-.18.49-.51.79-1,.9-1.41.7-2.95.88-4.64.53-4.78-1.09-9.72-1.25-14.82-.47-.42,7.24-.37,14.42.16,21.52.14,1.83-.28,3.5-1.27,5.01-1.44,2.25-3.45,3.73-6.01,4.43-.6.18-1.2.15-1.79-.08-.6-.23-1.05-.61-1.37-1.13-1.83-3.51-4.64-5.83-8.44-6.96,2.53.53,5.1.83,7.7.9.91.11,1.63-.18,2.16-.84.67-.53.95-1.21.84-2.06l-.26-19.51c-2.46.21-4.71.83-6.75,1.85,1.02,2.92,1.48,5.89,1.37,8.91,0,2.57-.84,4.85-2.53,6.86-1.65,1.44-3.57,2.11-5.75,2-1.16.11-2.21-.21-3.16-.95s-1.51-1.69-1.69-2.85c-.28-1.97.42-3.53,2.11-4.69,2.74-1.19,5.19-2.88,7.33-5.06.95-1.12,1.34-2.41,1.16-3.85l-2.74.74c-.53.21-1.14.16-1.85-.16-3.59-1.58-6.24-4.17-7.96-7.75,2.99.92,5.99,1.16,9.02.74l11.6-1.74-.16-7.49c-.14-1.51-.92-2.71-2.32-3.59ZM145.95,31.15c4.99.53,9.33,2.57,13.03,6.12,2.53,2.53,3.45,5.56,2.74,9.07-.46,2.14-1.67,3.57-3.64,4.27-1.05.42-2.09.35-3.11-.21-1.02-.49-1.65-1.32-1.9-2.48-.25-2.18-.7-4.55-1.37-7.12-.88-3.8-2.79-7.01-5.75-9.65ZM149.8,10.95c2.04-.63,4.07-.57,6.09.18,2.02.76,3.59,2.07,4.72,3.93.46.92.51,1.86.16,2.85-.35.88-1,1.53-1.95,1.95-.81.32-1.61.3-2.4-.05-.79-.35-1.34-.91-1.66-1.69l-1.42-3.69c-.7-1.69-1.88-2.85-3.53-3.48ZM156.29,9.11c1.86-.67,3.74-.77,5.64-.32,1.9.46,3.53,1.41,4.9,2.85.6.63.91,1.4.95,2.29.03.9-.23,1.7-.79,2.4-.56.6-1.27.9-2.14.9s-1.57-.28-2.14-.84c-.81-.95-1.34-2.02-1.58-3.22-.32-1.09-.92-2-1.79-2.74-.88-.74-1.9-1.18-3.06-1.32Z"/>
        <path class="cls-10" d="M169.31,30.31c5.13.77,10.3.95,15.5.53l11.71-.63,12.23-.32,2.32-.53c.7-.28,1.48-.21,2.32.21,2.25,1.41,4.36,2.85,6.33,4.32.42.42.63.93.63,1.53s-.21,1.11-.63,1.53c-.84.77-1.83,1.05-2.95.84-11.39-2.53-22.75-2.43-34.07.32-.84.28-1.58.67-2.21,1.16-.56.49-1.27.6-2.11.32-4.08-1.97-7.1-5.06-9.07-9.28Z"/>
        <path class="cls-10" d="M236.02,12.22l-.16-.79c2.39-1.69,5.01-2.29,7.86-1.79,2.14.63,4.03,1.83,5.64,3.59.49.56.51,1.14.05,1.74l-1.79,1.9c-.46,2.88-.65,5.84-.58,8.86,3.23.53,6.42,1.34,9.54,2.43,3.2,1.3,5.5,3.53,6.91,6.7.6,1.69.32,3.27-.84,4.75-1.23,1.37-2.74,1.9-4.54,1.58-1.3-.39-2.41-1.09-3.32-2.11-.92-1.02-1.51-2.21-1.79-3.59-.28-1.72-.98-3.25-2.11-4.59-1.13-1.34-2.51-2.27-4.17-2.79-.14,6.93-.12,14.7.05,23.31.11,1.93.02,3.66-.26,5.17-.53,1.37-1.44,2.41-2.74,3.11-.6.18-1.13.12-1.58-.16-1.9-1.51-3.41-3.25-4.54-5.22-.42-.84-.44-1.69-.05-2.53,1.27-12.27,1.56-24.71.9-37.34-.14-.6-.43-1.1-.87-1.5-.44-.4-.98-.64-1.61-.71Z"/>
        <path class="cls-10" d="M279.27,32.26l1.9,1.16c.46.32.95.41,1.48.29.53-.12.95-.38,1.27-.76,2.21-3.06,4.87-6.36,7.96-9.91,1.02-1.23,2.25-2.21,3.69-2.95,1.3-.7,2.68-.83,4.14-.4,1.46.44,2.54,1.29,3.24,2.56,4.71,10.41,11.9,18.69,21.57,24.84,1.34,1.23,2.25,2.78,2.74,4.64.35,1.3,0,2.43-1.05,3.38-.92.81-2,1.29-3.27,1.45s-2.46-.03-3.59-.55c-8.83-8.33-15.28-18.26-19.35-29.79-.42-.67-1.05-1-1.9-1s-1.42.35-1.85,1.05c-2.18,4.43-4.18,9.12-6.01,14.08-.28.77-.76,1.4-1.42,1.87-.67.47-1.39.71-2.16.71-1.69-.11-3.13-.7-4.32-1.79-1.34-1.09-2.28-2.42-2.82-3.98-.55-1.56-.62-3.19-.24-4.88Z"/>
        <path class="cls-10" d="M356.36,20.92c3.3,5.77,4.08,11.85,2.32,18.25-.7,3.27-2.09,6.2-4.17,8.78-2.08,2.58-4.64,4.53-7.7,5.83-1.13.56-2.23.62-3.32.16-1.97-1.02-3.06-2.64-3.27-4.85-1.76-.18-3.28-.83-4.56-1.95-1.28-1.12-2.15-2.53-2.61-4.22-.74-3.51-.25-6.87,1.48-10.07,1.83-3.69,4.35-6.82,7.57-9.39,3.22-2.57,6.85-4.31,10.89-5.22,6.01-1.65,11.78-1.09,17.3,1.69,2.71,1.27,5,3.01,6.88,5.25,1.88,2.23,3.19,4.79,3.93,7.67.81,3.16.76,6.28-.16,9.36-.92,3.08-2.58,5.72-5.01,7.94-2.95,2.74-6.33,4.72-10.12,5.93s-7.7,1.61-11.71,1.19c4.18-1.34,7.83-3.52,10.94-6.57,3.11-3.04,5.37-6.65,6.78-10.84.74-2.5.88-5,.42-7.51-.46-2.51-1.5-4.81-3.11-6.88-1.65-1.79-3.59-3.08-5.83-3.88-2.23-.79-4.54-1.01-6.93-.66ZM351.72,22.24c-5.73,3.76-9.35,9.02-10.86,15.77-.74,2.99-.37,5.8,1.11,8.44.42.42.93.68,1.53.76.6.09,1.12-.11,1.58-.61,3.2-3.23,5.38-7,6.54-11.31,1.16-4.31,1.19-8.66.11-13.05Z"/>
        <path class="cls-10" d="M390.27,36.53c-1.72,2.95-1.79,5.91-.21,8.86.77,1.48,1.86,2.64,3.27,3.48,1.41.84,2.93,1.27,4.59,1.27,5.59-.32,11.07-1.39,16.45-3.22,2.39-.81,4.78-.81,7.17,0,1.37.53,2.53,1.3,3.48,2.32.53.81.68,1.68.45,2.61-.23.93-.78,1.59-1.66,1.98-5.7,2.53-11.65,4.01-17.88,4.43-5.66.67-11.02-.4-16.08-3.22-1.72-1.12-3.05-2.58-3.98-4.38-.93-1.79-1.34-3.71-1.24-5.75.03-1.86.56-3.56,1.58-5.09,1.02-1.53,2.37-2.63,4.06-3.3ZM387,15.7c3.34,1.34,6.73,1.58,10.18.74l15.93-4.64c1.48-.28,2.85-.02,4.11.79,2.04,1.09,3.2,2.81,3.48,5.17.11.67,0,1.27-.34,1.82-.33.55-.8.91-1.4,1.08l-6.01,1.11c-5.59,1.09-10.88,3.11-15.87,6.06.6-2.04,1.72-3.64,3.38-4.8-5.48-.56-9.97-3.01-13.45-7.33ZM419.38,21.76c2.25-.67,4.39-.4,6.43.79,2.07,1.16,3.38,2.88,3.9,5.17.28.77.25,1.53-.11,2.27-.35.74-.9,1.27-1.63,1.58-.84.28-1.69.24-2.53-.13s-1.46-.94-1.85-1.71l-.95-3.64c-.42-1.86-1.51-3.3-3.27-4.32ZM425.34,20.39c3.59-.95,6.87-.33,9.86,1.85.81.77,1.3,1.71,1.48,2.79.18,1.09-.04,2.11-.63,3.06-.77.92-1.76,1.26-2.95,1.03-1.2-.23-1.99-.9-2.37-2.03l-.95-2.9c-.84-2.04-2.32-3.3-4.43-3.8Z"/>
        <path class="cls-10" d="M442.9,13.12h17.19c.56-1.05,1.12-2.29,1.69-3.69l7.28,3.9c.42.28.6.65.53,1.11-.07.46-.3.76-.69.9l-1.53.84,2.64,2.64c1.37-2.18,2.37-4.61,3.01-7.28l6.17,4.11c.42.35.56.74.42,1.16-.25.42-.6.63-1.05.63-2.71.28-5.19,1.09-7.44,2.43,1.19,1.05,2.48,2.14,3.85,3.27l5.38-6.12,4.96,4.85c.32.42.33.84.05,1.27-.32.42-.7.56-1.16.42-2.5-.35-4.98-.07-7.44.84,4.43,3.09,9.09,5.48,13.97,7.17-2.71,1.48-5.15,3.2-7.33,5.17-3.09-2.18-5.78-4.39-8.07-6.64-.18.56-.55.88-1.11.95h-18.88c-.92.84-1.76,1.51-2.53,2l3.16.74h16.4l1.42-1.69c.42-.35.88-.39,1.37-.11l5.8,4.11c.28.14.42.39.42.74,0,.28-.12.53-.37.74l-1.11,1.16v5.91c-.04.35-.19.65-.47.9-.28.25-.62.37-1,.37h-4.32l3.27,2.43c.46.21.61.6.47,1.16-.07.56-.39.88-.95.95l-1.16.11-5.91,6.01h8.12l2.69-3.59c.32-.35.65-.53,1-.53.46,0,.83.14,1.11.42l4.69,4.43c.42.42.53.91.32,1.48-.18.49-.58.74-1.21.74h-44.19l-1.58-2.95h16.4c-.77-.35-1.34-.88-1.71-1.58s-.47-1.44-.29-2.21c.18-2.11-.47-3.9-1.95-5.38l-2.74.21c-.46.07-.84-.03-1.16-.32-.32-.28-.47-.63-.47-1.05v-10.76c-3.09,1.83-6.4,3.27-9.91,4.32,4.67-3.73,8.77-7.84,12.29-12.34-1.05.21-1.99-.07-2.79-.84-.81-.7-1.18-1.58-1.11-2.64-.07-2.74-1.05-5.03-2.95-6.86,3.48.07,6.29,1.48,8.44,4.22.49.84.84,1.69,1.05,2.53,1.69-2.39,3.27-4.99,4.75-7.8h-14.77l-.95-2.95ZM456.77,45.92c-.18.7-.62,1.05-1.32,1.05,2.74.84,4.71,2.53,5.91,5.06.39.92.4,1.79.05,2.64-.39.91-1,1.55-1.85,1.9h7.38c1.37-3.45,2.16-7,2.37-10.65h-12.55ZM456.77,36.63v6.33h15.19v-6.33h-15.19ZM465.95,18.18c-1.9,3.59-4.38,6.89-7.44,9.91h8.44l1.69-2.32c.46-.63,1.04-.77,1.74-.42l1.11.63c-2-2.32-3.85-4.92-5.54-7.8Z"/>
        <path class="cls-10" d="M492.79,33.95c4.71-8.02,7.84-16.66,9.39-25.95l8.75,3.59c.49.11.67.42.53.95-.07.53-.35.79-.84.79l-1.16.21c3.45.6,6.05,2.41,7.8,5.43.63,1.48.42,2.81-.63,4.01-.49.56-1.09.94-1.79,1.13-.7.19-1.41.18-2.11-.03l2.53,3.48h13.39v-4.85h-9.6l-1.16-3.32h10.76v-5.01h-11.18l-1.69-3.06h14.45l1.37-1.95c.28-.39.67-.62,1.16-.71.49-.09.91.04,1.27.4l4.75,3.85c.42.35.6.79.53,1.32-.14.53-.42.88-.84,1.05l-2.32.95v11.34l2.32-3.01c.14-.42.46-.6.95-.53.42-.07.74.11.95.53l3.69,4.06c.28.28.35.63.21,1.05-.07.39-.32.62-.74.69h-5.7l4.96,4.75c.28.32.35.7.21,1.16-.14.39-.46.62-.95.69h-1.9l-6.01,2.64c2.39,4.46,5.98,7.54,10.76,9.23-2.6,1.3-4.92,3.08-6.96,5.33-3.02-3.59-5.1-7.65-6.22-12.18v10.86c-.07,1.58-.46,3.08-1.16,4.48-1.27,2-3.09,3.13-5.48,3.38-1.83.18-3.2-.55-4.11-2.16-1.48-2.53-3.62-4.24-6.43-5.12,2.25-.11,4.61-.07,7.07.11.63.04,1.19-.14,1.69-.53.49-.39.77-.9.84-1.53v-7.65c-2.74,1.55-4.57,3.8-5.48,6.75-.21.49-.56.77-1.05.84-.56.11-.98-.09-1.27-.58l-17.3,8.07-.21.9c-.07.39-.32.61-.74.69-.42.11-.74-.04-.95-.42l-4.32-8.02,8.54-.84v-14.24h-5.91l-1.16-2.64h7.07v-5.01h-2.43c-2.04,1.83-4.08,3.38-6.12,4.64ZM493.74,37.74c2.04.53,3.74,1.61,5.12,3.24s2.09,3.51,2.16,5.62c.07,1.34-.49,2.34-1.69,3.01-1.27.56-2.39.46-3.38-.32-1.13-.84-1.55-1.93-1.27-3.27.7-2.92.39-5.68-.95-8.28ZM507.76,26.25l3.16-3.32c-.56-.74-.84-1.49-.84-2.27-.07-1.69-.67-3.15-1.79-4.38-1.76,3.73-3.94,7.05-6.54,9.97h6.01ZM508.92,34.31l1.9-2.85c.28-.39.63-.58,1.05-.58s.74.19.95.58l2.95,3.38c.35.39.46.83.32,1.32-.21.46-.6.72-1.16.79h-2.74l4.85,3.16c.35.32.49.7.42,1.16-.07.46-.35.74-.84.84l-1.05.05-.63,1.05c2.88-1.09,5.94-1.81,9.18-2.16v-10.71h-8.54l-.74-1.05h-6.75v5.01h.84ZM508.08,47.92c1.48-3.48,2.32-7.14,2.53-10.97h-2.53v10.97ZM509.45,50.56l6.43-.53-2.43-4.22c-1.05,1.41-2.39,2.99-4.01,4.75ZM514.51,30.52c1.76.07,3.41.55,4.96,1.45,1.55.9,2.78,2.1,3.69,3.61.77,1.44.63,2.76-.42,3.96-1.13,1.23-2.43,1.53-3.9.9-1.48-.7-2.14-1.86-2-3.48.14-2.46-.63-4.61-2.32-6.43ZM531.7,30.36c0,2.32.42,4.52,1.27,6.59l2.85-6.59h-4.11Z"/>
      </g>
      <g>
        <path class="cls-3" d="M8,29.62c3.69.92,7.4.92,11.13,0,8.51-2.25,17.16-3.8,25.95-4.64,1.34-.18,2.51-.61,3.53-1.32.77-.35,1.58-.42,2.43-.21,2.67.6,4.71,2.09,6.12,4.48.35.67.3,1.35-.16,2.06-.49.63-1.11.92-1.85.84l-15.98.47,1.69,1.74c.28.21.37.49.26.84,0,.32-.16.56-.47.74l-1.16,1.27-.95,6.12c-.53,2.25-1.51,4.29-2.95,6.12-5.13,5.24-11.3,8.51-18.51,9.81,5.66-2.57,9.6-6.71,11.81-12.45,1.34-3.8,1.92-7.7,1.74-11.71l-.84-.74c-4.29,1.27-8.56,2.94-12.81,5.01-.74.35-1.46.32-2.16-.11-2.78-2.32-5.04-5.1-6.8-8.33ZM15.07,16.38c2.95.28,5.73.19,8.33-.26l13.66-3.11c1.2-.21,2.25-.67,3.16-1.37.81-.42,1.65-.51,2.53-.26,2,.53,3.88,1.37,5.64,2.53.81.74.95,1.58.42,2.53-.63,1.2-1.63,1.79-3.01,1.79-7.14.49-14.29,1.76-21.46,3.8-.74.28-1.48.19-2.21-.26-2.81-1.34-5.17-3.13-7.07-5.38Z"/>
        <path class="cls-3" d="M66.85,17.33c1.34-2.35,3.34-3.53,6.01-3.53,2.88.11,5.29,1.18,7.22,3.22.49.63.75,1.34.76,2.11.02.77-.22,1.46-.71,2.06l-.53.58c-.39.53-.62,1.04-.69,1.53-.98,6.61-1.51,13.5-1.58,20.67,13.54-5.8,24.61-14.66,33.22-26.58-2.95,7.95-7.09,15.1-12.42,21.46-5.33,6.36-11.59,11.71-18.8,16.03l-.74,1.05c-.18.32-.43.52-.76.61-.33.09-.64.06-.92-.08-3.48-1.93-6.43-4.32-8.86-7.17-.14-.18-.21-.39-.21-.63s.07-.46.21-.63c.95-1.05,1.53-2.27,1.74-3.64.56-8.09.46-16.07-.32-23.94,0-.91-.37-1.63-1.11-2.16l-1.53-.95Z"/>
        <path class="cls-3" d="M133.35,12.96c1.65-2.07,3.81-2.95,6.49-2.64,2.53.32,4.66,1.51,6.38,3.59.6.6.6,1.23,0,1.9l-.84,1.16c-.63.88-1.07,1.85-1.32,2.9l-.11,3.32,7.33-.53c1.41-.14,2.81-.46,4.22-.95,1.09-.35,2.11-.35,3.06,0,2.46.95,4.39,2.51,5.8,4.69.32.46.33.92.05,1.37-.18.49-.51.79-1,.9-1.41.7-2.95.88-4.64.53-4.78-1.09-9.72-1.25-14.82-.47-.42,7.24-.37,14.42.16,21.52.14,1.83-.28,3.5-1.27,5.01-1.44,2.25-3.45,3.73-6.01,4.43-.6.18-1.2.15-1.79-.08-.6-.23-1.05-.61-1.37-1.13-1.83-3.51-4.64-5.83-8.44-6.96,2.53.53,5.1.83,7.7.9.91.11,1.63-.18,2.16-.84.67-.53.95-1.21.84-2.06l-.26-19.51c-2.46.21-4.71.83-6.75,1.85,1.02,2.92,1.48,5.89,1.37,8.91,0,2.57-.84,4.85-2.53,6.86-1.65,1.44-3.57,2.11-5.75,2-1.16.11-2.21-.21-3.16-.95s-1.51-1.69-1.69-2.85c-.28-1.97.42-3.53,2.11-4.69,2.74-1.19,5.19-2.88,7.33-5.06.95-1.12,1.34-2.41,1.16-3.85l-2.74.74c-.53.21-1.14.16-1.85-.16-3.59-1.58-6.24-4.17-7.96-7.75,2.99.92,5.99,1.16,9.02.74l11.6-1.74-.16-7.49c-.14-1.51-.92-2.71-2.32-3.59ZM145.95,31.15c4.99.53,9.33,2.57,13.03,6.12,2.53,2.53,3.45,5.56,2.74,9.07-.46,2.14-1.67,3.57-3.64,4.27-1.05.42-2.09.35-3.11-.21-1.02-.49-1.65-1.32-1.9-2.48-.25-2.18-.7-4.55-1.37-7.12-.88-3.8-2.79-7.01-5.75-9.65ZM149.8,10.95c2.04-.63,4.07-.57,6.09.18,2.02.76,3.59,2.07,4.72,3.93.46.92.51,1.86.16,2.85-.35.88-1,1.53-1.95,1.95-.81.32-1.61.3-2.4-.05-.79-.35-1.34-.91-1.66-1.69l-1.42-3.69c-.7-1.69-1.88-2.85-3.53-3.48ZM156.29,9.11c1.86-.67,3.74-.77,5.64-.32,1.9.46,3.53,1.41,4.9,2.85.6.63.91,1.4.95,2.29.03.9-.23,1.7-.79,2.4-.56.6-1.27.9-2.14.9s-1.57-.28-2.14-.84c-.81-.95-1.34-2.02-1.58-3.22-.32-1.09-.92-2-1.79-2.74-.88-.74-1.9-1.18-3.06-1.32Z"/>
        <path class="cls-3" d="M169.31,30.31c5.13.77,10.3.95,15.5.53l11.71-.63,12.23-.32,2.32-.53c.7-.28,1.48-.21,2.32.21,2.25,1.41,4.36,2.85,6.33,4.32.42.42.63.93.63,1.53s-.21,1.11-.63,1.53c-.84.77-1.83,1.05-2.95.84-11.39-2.53-22.75-2.43-34.07.32-.84.28-1.58.67-2.21,1.16-.56.49-1.27.6-2.11.32-4.08-1.97-7.1-5.06-9.07-9.28Z"/>
        <path class="cls-3" d="M236.02,12.22l-.16-.79c2.39-1.69,5.01-2.29,7.86-1.79,2.14.63,4.03,1.83,5.64,3.59.49.56.51,1.14.05,1.74l-1.79,1.9c-.46,2.88-.65,5.84-.58,8.86,3.23.53,6.42,1.34,9.54,2.43,3.2,1.3,5.5,3.53,6.91,6.7.6,1.69.32,3.27-.84,4.75-1.23,1.37-2.74,1.9-4.54,1.58-1.3-.39-2.41-1.09-3.32-2.11-.92-1.02-1.51-2.21-1.79-3.59-.28-1.72-.98-3.25-2.11-4.59-1.13-1.34-2.51-2.27-4.17-2.79-.14,6.93-.12,14.7.05,23.31.11,1.93.02,3.66-.26,5.17-.53,1.37-1.44,2.41-2.74,3.11-.6.18-1.13.12-1.58-.16-1.9-1.51-3.41-3.25-4.54-5.22-.42-.84-.44-1.69-.05-2.53,1.27-12.27,1.56-24.71.9-37.34-.14-.6-.43-1.1-.87-1.5-.44-.4-.98-.64-1.61-.71Z"/>
        <path class="cls-3" d="M279.27,32.26l1.9,1.16c.46.32.95.41,1.48.29.53-.12.95-.38,1.27-.76,2.21-3.06,4.87-6.36,7.96-9.91,1.02-1.23,2.25-2.21,3.69-2.95,1.3-.7,2.68-.83,4.14-.4,1.46.44,2.54,1.29,3.24,2.56,4.71,10.41,11.9,18.69,21.57,24.84,1.34,1.23,2.25,2.78,2.74,4.64.35,1.3,0,2.43-1.05,3.38-.92.81-2,1.29-3.27,1.45s-2.46-.03-3.59-.55c-8.83-8.33-15.28-18.26-19.35-29.79-.42-.67-1.05-1-1.9-1s-1.42.35-1.85,1.05c-2.18,4.43-4.18,9.12-6.01,14.08-.28.77-.76,1.4-1.42,1.87-.67.47-1.39.71-2.16.71-1.69-.11-3.13-.7-4.32-1.79-1.34-1.09-2.28-2.42-2.82-3.98-.55-1.56-.62-3.19-.24-4.88Z"/>
        <path class="cls-3" d="M356.36,20.92c3.3,5.77,4.08,11.85,2.32,18.25-.7,3.27-2.09,6.2-4.17,8.78-2.08,2.58-4.64,4.53-7.7,5.83-1.13.56-2.23.62-3.32.16-1.97-1.02-3.06-2.64-3.27-4.85-1.76-.18-3.28-.83-4.56-1.95-1.28-1.12-2.15-2.53-2.61-4.22-.74-3.51-.25-6.87,1.48-10.07,1.83-3.69,4.35-6.82,7.57-9.39,3.22-2.57,6.85-4.31,10.89-5.22,6.01-1.65,11.78-1.09,17.3,1.69,2.71,1.27,5,3.01,6.88,5.25,1.88,2.23,3.19,4.79,3.93,7.67.81,3.16.76,6.28-.16,9.36-.92,3.08-2.58,5.72-5.01,7.94-2.95,2.74-6.33,4.72-10.12,5.93s-7.7,1.61-11.71,1.19c4.18-1.34,7.83-3.52,10.94-6.57,3.11-3.04,5.37-6.65,6.78-10.84.74-2.5.88-5,.42-7.51-.46-2.51-1.5-4.81-3.11-6.88-1.65-1.79-3.59-3.08-5.83-3.88-2.23-.79-4.54-1.01-6.93-.66ZM351.72,22.24c-5.73,3.76-9.35,9.02-10.86,15.77-.74,2.99-.37,5.8,1.11,8.44.42.42.93.68,1.53.76.6.09,1.12-.11,1.58-.61,3.2-3.23,5.38-7,6.54-11.31,1.16-4.31,1.19-8.66.11-13.05Z"/>
        <path class="cls-3" d="M390.27,36.53c-1.72,2.95-1.79,5.91-.21,8.86.77,1.48,1.86,2.64,3.27,3.48,1.41.84,2.93,1.27,4.59,1.27,5.59-.32,11.07-1.39,16.45-3.22,2.39-.81,4.78-.81,7.17,0,1.37.53,2.53,1.3,3.48,2.32.53.81.68,1.68.45,2.61-.23.93-.78,1.59-1.66,1.98-5.7,2.53-11.65,4.01-17.88,4.43-5.66.67-11.02-.4-16.08-3.22-1.72-1.12-3.05-2.58-3.98-4.38-.93-1.79-1.34-3.71-1.24-5.75.03-1.86.56-3.56,1.58-5.09,1.02-1.53,2.37-2.63,4.06-3.3ZM387,15.7c3.34,1.34,6.73,1.58,10.18.74l15.93-4.64c1.48-.28,2.85-.02,4.11.79,2.04,1.09,3.2,2.81,3.48,5.17.11.67,0,1.27-.34,1.82-.33.55-.8.91-1.4,1.08l-6.01,1.11c-5.59,1.09-10.88,3.11-15.87,6.06.6-2.04,1.72-3.64,3.38-4.8-5.48-.56-9.97-3.01-13.45-7.33ZM419.38,21.76c2.25-.67,4.39-.4,6.43.79,2.07,1.16,3.38,2.88,3.9,5.17.28.77.25,1.53-.11,2.27-.35.74-.9,1.27-1.63,1.58-.84.28-1.69.24-2.53-.13s-1.46-.94-1.85-1.71l-.95-3.64c-.42-1.86-1.51-3.3-3.27-4.32ZM425.34,20.39c3.59-.95,6.87-.33,9.86,1.85.81.77,1.3,1.71,1.48,2.79.18,1.09-.04,2.11-.63,3.06-.77.92-1.76,1.26-2.95,1.03-1.2-.23-1.99-.9-2.37-2.03l-.95-2.9c-.84-2.04-2.32-3.3-4.43-3.8Z"/>
        <path class="cls-3" d="M442.9,13.12h17.19c.56-1.05,1.12-2.29,1.69-3.69l7.28,3.9c.42.28.6.65.53,1.11-.07.46-.3.76-.69.9l-1.53.84,2.64,2.64c1.37-2.18,2.37-4.61,3.01-7.28l6.17,4.11c.42.35.56.74.42,1.16-.25.42-.6.63-1.05.63-2.71.28-5.19,1.09-7.44,2.43,1.19,1.05,2.48,2.14,3.85,3.27l5.38-6.12,4.96,4.85c.32.42.33.84.05,1.27-.32.42-.7.56-1.16.42-2.5-.35-4.98-.07-7.44.84,4.43,3.09,9.09,5.48,13.97,7.17-2.71,1.48-5.15,3.2-7.33,5.17-3.09-2.18-5.78-4.39-8.07-6.64-.18.56-.55.88-1.11.95h-18.88c-.92.84-1.76,1.51-2.53,2l3.16.74h16.4l1.42-1.69c.42-.35.88-.39,1.37-.11l5.8,4.11c.28.14.42.39.42.74,0,.28-.12.53-.37.74l-1.11,1.16v5.91c-.04.35-.19.65-.47.9-.28.25-.62.37-1,.37h-4.32l3.27,2.43c.46.21.61.6.47,1.16-.07.56-.39.88-.95.95l-1.16.11-5.91,6.01h8.12l2.69-3.59c.32-.35.65-.53,1-.53.46,0,.83.14,1.11.42l4.69,4.43c.42.42.53.91.32,1.48-.18.49-.58.74-1.21.74h-44.19l-1.58-2.95h16.4c-.77-.35-1.34-.88-1.71-1.58s-.47-1.44-.29-2.21c.18-2.11-.47-3.9-1.95-5.38l-2.74.21c-.46.07-.84-.03-1.16-.32-.32-.28-.47-.63-.47-1.05v-10.76c-3.09,1.83-6.4,3.27-9.91,4.32,4.67-3.73,8.77-7.84,12.29-12.34-1.05.21-1.99-.07-2.79-.84-.81-.7-1.18-1.58-1.11-2.64-.07-2.74-1.05-5.03-2.95-6.86,3.48.07,6.29,1.48,8.44,4.22.49.84.84,1.69,1.05,2.53,1.69-2.39,3.27-4.99,4.75-7.8h-14.77l-.95-2.95ZM456.77,45.92c-.18.7-.62,1.05-1.32,1.05,2.74.84,4.71,2.53,5.91,5.06.39.92.4,1.79.05,2.64-.39.91-1,1.55-1.85,1.9h7.38c1.37-3.45,2.16-7,2.37-10.65h-12.55ZM456.77,36.63v6.33h15.19v-6.33h-15.19ZM465.95,18.18c-1.9,3.59-4.38,6.89-7.44,9.91h8.44l1.69-2.32c.46-.63,1.04-.77,1.74-.42l1.11.63c-2-2.32-3.85-4.92-5.54-7.8Z"/>
        <path class="cls-3" d="M492.79,33.95c4.71-8.02,7.84-16.66,9.39-25.95l8.75,3.59c.49.11.67.42.53.95-.07.53-.35.79-.84.79l-1.16.21c3.45.6,6.05,2.41,7.8,5.43.63,1.48.42,2.81-.63,4.01-.49.56-1.09.94-1.79,1.13-.7.19-1.41.18-2.11-.03l2.53,3.48h13.39v-4.85h-9.6l-1.16-3.32h10.76v-5.01h-11.18l-1.69-3.06h14.45l1.37-1.95c.28-.39.67-.62,1.16-.71.49-.09.91.04,1.27.4l4.75,3.85c.42.35.6.79.53,1.32-.14.53-.42.88-.84,1.05l-2.32.95v11.34l2.32-3.01c.14-.42.46-.6.95-.53.42-.07.74.11.95.53l3.69,4.06c.28.28.35.63.21,1.05-.07.39-.32.62-.74.69h-5.7l4.96,4.75c.28.32.35.7.21,1.16-.14.39-.46.62-.95.69h-1.9l-6.01,2.64c2.39,4.46,5.98,7.54,10.76,9.23-2.6,1.3-4.92,3.08-6.96,5.33-3.02-3.59-5.1-7.65-6.22-12.18v10.86c-.07,1.58-.46,3.08-1.16,4.48-1.27,2-3.09,3.13-5.48,3.38-1.83.18-3.2-.55-4.11-2.16-1.48-2.53-3.62-4.24-6.43-5.12,2.25-.11,4.61-.07,7.07.11.63.04,1.19-.14,1.69-.53.49-.39.77-.9.84-1.53v-7.65c-2.74,1.55-4.57,3.8-5.48,6.75-.21.49-.56.77-1.05.84-.56.11-.98-.09-1.27-.58l-17.3,8.07-.21.9c-.07.39-.32.61-.74.69-.42.11-.74-.04-.95-.42l-4.32-8.02,8.54-.84v-14.24h-5.91l-1.16-2.64h7.07v-5.01h-2.43c-2.04,1.83-4.08,3.38-6.12,4.64ZM493.74,37.74c2.04.53,3.74,1.61,5.12,3.24s2.09,3.51,2.16,5.62c.07,1.34-.49,2.34-1.69,3.01-1.27.56-2.39.46-3.38-.32-1.13-.84-1.55-1.93-1.27-3.27.7-2.92.39-5.68-.95-8.28ZM507.76,26.25l3.16-3.32c-.56-.74-.84-1.49-.84-2.27-.07-1.69-.67-3.15-1.79-4.38-1.76,3.73-3.94,7.05-6.54,9.97h6.01ZM508.92,34.31l1.9-2.85c.28-.39.63-.58,1.05-.58s.74.19.95.58l2.95,3.38c.35.39.46.83.32,1.32-.21.46-.6.72-1.16.79h-2.74l4.85,3.16c.35.32.49.7.42,1.16-.07.46-.35.74-.84.84l-1.05.05-.63,1.05c2.88-1.09,5.94-1.81,9.18-2.16v-10.71h-8.54l-.74-1.05h-6.75v5.01h.84ZM508.08,47.92c1.48-3.48,2.32-7.14,2.53-10.97h-2.53v10.97ZM509.45,50.56l6.43-.53-2.43-4.22c-1.05,1.41-2.39,2.99-4.01,4.75ZM514.51,30.52c1.76.07,3.41.55,4.96,1.45,1.55.9,2.78,2.1,3.69,3.61.77,1.44.63,2.76-.42,3.96-1.13,1.23-2.43,1.53-3.9.9-1.48-.7-2.14-1.86-2-3.48.14-2.46-.63-4.61-2.32-6.43ZM531.7,30.36c0,2.32.42,4.52,1.27,6.59l2.85-6.59h-4.11Z"/>
      </g>
    </g>
  </g>
</svg>