<?xml version="1.0" encoding="UTF-8"?>
<svg id="_レイヤー_2" data-name="レイヤー 2" xmlns="http://www.w3.org/2000/svg" xmlns:xlink="http://www.w3.org/1999/xlink" viewBox="0 0 229.07 68.73">
  <defs>
    <style>
      .cls-1 {
        fill: #fff;
      }

      .cls-2 {
        fill: url(#_名称未設定グラデーション_120-4);
      }

      .cls-3 {
        fill: url(#_名称未設定グラデーション_120-2);
      }

      .cls-4 {
        fill: url(#_名称未設定グラデーション_120-3);
      }

      .cls-5 {
        fill: url(#_名称未設定グラデーション_120);
      }

      .cls-6 {
        fill: none;
        stroke: #000;
        stroke-width: 6px;
      }
    </style>
    <linearGradient id="_名称未設定グラデーション_120" data-name="名称未設定グラデーション 120" x1="33.27" y1="68.73" x2="33.27" y2="0" gradientUnits="userSpaceOnUse">
      <stop offset="0" stop-color="#945700"/>
      <stop offset=".19" stop-color="#e9a900"/>
      <stop offset=".29" stop-color="#f5f8b4"/>
      <stop offset=".4" stop-color="#e9a900"/>
      <stop offset="1" stop-color="#fff87f"/>
    </linearGradient>
    <linearGradient id="_名称未設定グラデーション_120-2" data-name="名称未設定グラデーション 120" x1="87.09" x2="87.09" xlink:href="#_名称未設定グラデーション_120"/>
    <linearGradient id="_名称未設定グラデーション_120-3" data-name="名称未設定グラデーション 120" x1="141.25" x2="141.25" xlink:href="#_名称未設定グラデーション_120"/>
    <linearGradient id="_名称未設定グラデーション_120-4" data-name="名称未設定グラデーション 120" x1="195.22" x2="195.22" xlink:href="#_名称未設定グラデーション_120"/>
  </defs>
  <g id="_レイヤー_1-2" data-name="レイヤー 1">
    <g>
      <g>
        <path class="cls-1" d="M8,22.45l7.59,1.79c.63-4.85.91-9.67.84-14.45l9.07,4.22c.42.21.63.53.63.95,0,.49-.18.88-.53,1.16l-2.74,1.69c-1.34,2.39-2.92,4.61-4.75,6.64h4.01l1.58-2.53c.21-.35.53-.56.95-.63.35-.07.7.04,1.05.32l4.85,3.69c.28.21.42.53.42.95,0,.35-.14.67-.42.95l-1.05,1.05v6.01c3.94-8.09,6.01-16.66,6.22-25.73l10.23,4.54c.42.14.6.42.53.84.07.49-.07.81-.42.95l-1.37.74c-.84,2.74-1.97,5.48-3.38,8.23h7.28l1.48-2.43c.28-.28.6-.46.95-.53.35-.07.7-.03,1.05.11l5.91,4.11c.35.21.53.56.53,1.05.07.42-.07.77-.42,1.05l-1.05.84c.63,8.44-.21,16.59-2.53,24.47-.49,1.55-1.27,2.95-2.32,4.22-1.9,2.18-4.32,3.41-7.28,3.69-.77.07-1.48-.14-2.11-.63-.63-.49-1.05-1.13-1.27-1.9-.14-1.48-.72-2.72-1.74-3.74s-2.23-1.67-3.64-1.95c2.53-.14,4.85-.03,6.96.32.7.07,1.34-.07,1.9-.42.56-.35.95-.81,1.16-1.37,2.74-7.73,3.55-15.68,2.43-23.84h-9.39c-1.12,1.69-2.39,3.2-3.8,4.54,1.97.77,3.64,1.95,5.01,3.53s2.27,3.39,2.69,5.43c.21.84.16,1.63-.16,2.37s-.83,1.32-1.53,1.74c-.7.56-1.51.84-2.43.84s-1.76-.25-2.53-.74c-1.34-.91-1.9-2.21-1.69-3.9.49-2.74.18-5.31-.95-7.7-1.41,1.34-2.85,2.46-4.32,3.38v19.41c-.07,1.19-.63,1.93-1.69,2.21l-4.75.95c-.42.14-.81.03-1.16-.32-.28-.21-.46-.56-.53-1.05v-2.11h-5.38v2c-.07.91-.53,1.55-1.37,1.9l-4.75.84c-.56.07-1-.04-1.32-.32-.32-.28-.51-.63-.58-1.05V22.45ZM16.02,27.2v11.18h5.38v-11.18h-5.38ZM16.02,41.33v11.5h5.38v-11.5h-5.38Z"/>
        <path class="cls-1" d="M71.81,22.03h9.49v-13.61l10.65,3.06c.35.21.56.56.63,1.05.07.49-.11.92-.53,1.27l-1.9,1.27v6.96h10.02l2-2.74c.49-.49,1.05-.6,1.69-.32l6.54,4.22c.56.7.56,1.37,0,2l-1.69,1.37v16.98c0,.63-.28,1.16-.84,1.58l-6.64,1.9c-.84.21-1.37-.11-1.58-.95v-2h-9.49v13.18c0,.84-.32,1.44-.95,1.79l-6.01,1.58c-.98,0-1.62-.46-1.9-1.37v-15.19h-9.07v1.05c0,.49-.21.88-.63,1.16l-6.43,1.58c-.49,0-.88-.14-1.16-.42-.28-.28-.49-.67-.63-1.16v-26.58l8.44,2.32ZM72.23,24.98v16.35h9.07v-16.35h-9.07ZM90.16,24.98v16.35h9.49v-16.35h-9.49Z"/>
        <path class="cls-1" d="M136.72,9.27l10.23,2.53c.49.14.7.46.63.95.07.56-.14.92-.63,1.05l-.95.74v2.95h10.97l.9-2.21c.11-.28.3-.46.58-.53.28-.07.49.04.63.32l6.01,6.75c.28.35.3.74.05,1.16-.21.42-.55.63-1,.63-2.85,0-5.41.84-7.7,2.53l1.79,1.79c.28.28.37.63.26,1.05-.18.49-.47.77-.9.84h-12.13c0,1.27-.14,2.57-.42,3.9h7.54l1.58-2.43c.14-.21.4-.35.79-.42.28-.07.56,0,.84.21l3.9,3.69c.32.42.37.84.16,1.27-.25.42-.6.6-1.05.53h-14.29c-.56,1.76-1.13,3.27-1.69,4.54h12.5l2-3.16c.25-.28.53-.46.84-.53.35-.07.67.04.95.32l3.9,4.11c.39.42.49.9.32,1.42-.18.53-.55.83-1.11.9h-18.51c6.43,5.13,13.62,8.44,21.57,9.91-3.24,1.19-6.14,3.09-8.7,5.7-7-3.3-12.22-8.4-15.66-15.29-2.53,4.08-5.77,7.42-9.73,10.02s-8.31,4.25-13.05,4.96c6.75-3.38,11.85-8.47,15.29-15.29h-14.19l-1.42-3.06h16.93c.49-1.62.93-3.13,1.32-4.54h-13.61l-1.48-2.85h15.45c.18-1.34.26-2.64.26-3.9h-12.45l-1.16-2.11c-.63.63-1.42.97-2.37,1-.95.04-1.77-.26-2.45-.9s-1.05-1.41-1.11-2.32c-.05-.91.22-1.72.82-2.43,2.53-2.32,4.24-5.1,5.12-8.33.46.77.81,1.69,1.05,2.74h12.55v-8.23ZM124.75,20.45c.03,2.18-.37,4.32-1.21,6.43h13.18v-6.43h-11.97ZM139.89,20.45l6.33,1.69c.39.28.58.69.58,1.21s-.19.9-.58,1.11l-.63.32v2.11h4.9l1.9-2.74c.18-.35.46-.53.84-.53.46,0,.77.14.95.42l.79.53,1.37-4.11h-16.45Z"/>
        <path class="cls-1" d="M171.69,17.7c1.55.42,3.06,1.23,4.54,2.43,1.55-3.51,2.29-7.21,2.21-11.07l7.17,4.75c.28.28.39.6.32.95-.14.35-.42.56-.84.63-.84-.35-1.51-.18-2,.53l-5.27,5.59c1.19,1.13,2.04,2.46,2.53,4.01l4.11-9.39,6.33,5.17c.42.21.56.56.42,1.05-.07.49-.35.77-.84.84-.63-.07-1.16.11-1.58.53l-4.22,4.54c3.59.49,6.19,2.32,7.8,5.48.49,1.2.42,2.32-.21,3.38-.98,1.2-2.21,1.76-3.69,1.69-.84.07-1.55-.16-2.11-.69-.56-.53-.88-1.21-.95-2.06l-.74.21v3.06c1.76-.07,3.36.35,4.8,1.27,1.44.92,2.51,2.14,3.22,3.69.49,1.2.46,2.36-.11,3.48-.84,1.48-2.11,2.08-3.8,1.79-.77-.21-1.44-.63-2-1.27-.56-.63-.88-1.37-.95-2.21-.07-1.48-.46-2.88-1.16-4.22v16.56c0,.7-.32,1.19-.95,1.48l-3.9.74c-.49.14-.92.03-1.27-.32-.42-.21-.67-.56-.74-1.05v-13.71c-1.62,5.27-4.43,9.74-8.44,13.39,1.9-6.05,2.71-12.13,2.43-18.25l6.01,1.58v-3.69l-2.11.63c-.35.07-.6.28-.74.63-.07.35-.3.56-.69.63-.39.07-.65-.07-.79-.42l-3.59-6.75h7.07l1.58-3.59c-1.34.7-2.57.63-3.69-.21-.56-.42-.97-.97-1.21-1.63-.25-.67-.3-1.35-.16-2.06.84-3.02.25-5.73-1.79-8.12ZM179.91,33.31h4.85c-.14-1.27-.67-2.43-1.58-3.48l-3.27,3.48ZM190.78,16.12h9.81v-8.12l8.54,2.53c.35.14.56.42.63.84.07.35-.07.63-.42.84-.42.28-.7.7-.84,1.27v2.64h2.43l1.9-2.64c.14-.28.42-.46.84-.53.28-.07.56.04.84.32l4.54,4.22c.28.35.39.7.32,1.05-.07.42-.32.7-.74.84h-3.9l2.85,3.59c.42.56.42,1.09,0,1.58l3.38,4.22c.21.28.18.56-.11.84-.14.28-.39.39-.74.32h-7.07l5.06,3.9c.35.28.49.6.42.95-.07.35-.28.56-.63.63-.56.28-.92.7-1.05,1.27v13.61c0,.56-.25,1.05-.74,1.48l-1.16.42c1.76.28,3.23,1.13,4.43,2.53.84,1.12.98,2.29.42,3.48-.63,1.12-1.55,1.9-2.74,2.32-.98.35-2,.25-3.06-.32-.92-.56-1.48-1.37-1.69-2.43-.42-1.69-1.32-3.13-2.69-4.32-1.37-1.19-2.94-1.86-4.69-2,1.55-.42,3.09-.56,4.64-.42v-.32h-8.44l3.8,2.95c.42.28.53.63.32,1.05-.21.35-.53.49-.95.42-.84-.14-1.65.03-2.43.53-4.99,2.67-10.23,4.08-15.71,4.22,3.87-2.04,7.35-4.54,10.44-7.49l-1.58.74c-.42.07-.81-.02-1.16-.26-.35-.25-.56-.58-.63-1v-21.09l6.33,1.37h10.12l1.27-2.32h-19.93l-1.58-2.74h11.18v-2.53h-7.07l-.74-2.74h7.8v-2.43h-8.23l-1.58-3.27ZM200.38,34.58v2.85h9.18v-2.85h-9.18ZM200.38,40.27v2.43h9.18v-2.43h-9.18ZM200.38,45.44v2.43h9.18v-2.43h-9.18ZM208.5,19.39v2.43h2.11l1.27-2.43h-3.38ZM208.5,24.56v2.53h4.64l1.58-2.53h-6.22Z"/>
      </g>
      <g>
        <path class="cls-5" d="M44.63,68.43c-2.44,0-4.77-.81-6.73-2.33-1.22-.95-2.22-2.11-2.97-3.42-1.29,1.44-3,2.5-5.03,3.04-.17.04-.33.08-.5.12l-4.48.9c-.72.18-1.45.27-2.18.27-1.33,0-2.62-.29-3.8-.85-.38.22-.79.42-1.21.59-.54.22-1.1.39-1.68.49l-4.75.84c-.14.02-.27.04-.41.06-.44.06-.88.08-1.31.08-2.36,0-4.6-.84-6.31-2.36-1.7-1.51-2.78-3.49-3.16-5.72-.07-.44-.11-.87-.11-1.32V22.45c0-2.45,1.12-4.76,3.04-6.27,1.43-1.13,3.18-1.73,4.96-1.73.13,0,.26,0,.39,0,.05-1.52.07-3.04.05-4.55-.04-2.75,1.34-5.33,3.65-6.83,1.32-.85,2.83-1.29,4.35-1.29,1.15,0,2.3.25,3.37.75l8.22,3.83c.53-1.88,1.73-3.52,3.42-4.59,1.3-.82,2.79-1.24,4.28-1.24,1.1,0,2.21.23,3.24.69l10.05,4.46c3.21,1.3,5.31,4.31,5.47,7.67.18.06.36.13.54.2.57.23,1.11.52,1.62.87l5.79,4.03c2.39,1.58,3.87,4.16,4.05,7.07.18,1.98-.28,3.91-1.29,5.55.24,8.11-.77,16.07-3.02,23.71-.02.05-.03.11-.05.16-.8,2.53-2.08,4.86-3.8,6.92-.04.04-.08.09-.11.13-3.23,3.71-7.57,5.93-12.55,6.4-.38.03-.71.05-1.05.05Z"/>
        <path class="cls-3" d="M83.2,68.63c-4.49,0-8.23-2.75-9.54-7.02-.23-.76-.35-1.56-.35-2.35v-5.15l-6.23,1.53c-.62.15-1.27.23-1.91.23-2.62,0-5.04-.99-6.83-2.77-1.24-1.24-2.14-2.8-2.66-4.61-.2-.71-.31-1.45-.31-2.19v-26.58c0-2.5,1.17-4.85,3.15-6.36,1.41-1.07,3.12-1.64,4.85-1.64.71,0,1.42.09,2.12.29l7.4,2.03h.41v-5.61c0-2.51,1.18-4.88,3.19-6.39,1.4-1.06,3.1-1.61,4.81-1.61.74,0,1.48.1,2.21.31l10.65,3.06c.67.19,1.31.47,1.91.83,2.36,1.42,3.96,3.82,4.41,6.61.88-.27,1.8-.41,2.73-.41,1.34,0,2.65.28,3.91.84.38.17.74.36,1.09.59l6.54,4.22c.73.47,1.37,1.05,1.91,1.73,2.87,3.59,2.87,8.42.06,11.92v13.43c0,3.15-1.47,6.05-4.04,7.98-.78.59-1.66,1.02-2.6,1.29l-6.64,1.9c-.09.02-.17.05-.26.07-.8.2-1.61.3-2.41.3-.91,0-1.78-.13-2.61-.37v2.54c0,3.74-1.89,7.02-5.06,8.79-.58.32-1.2.57-1.85.74l-6.01,1.58c-.66.17-1.35.26-2.04.26Z"/>
        <path class="cls-4" d="M156.6,67.79c-1.16,0-2.32-.25-3.41-.77-5.02-2.37-9.33-5.52-12.89-9.42-1.46,1.31-3.03,2.51-4.68,3.6-4.91,3.23-10.39,5.31-16.27,6.19-.4.06-.79.09-1.18.09-3.44,0-6.56-2.23-7.62-5.59-1.18-3.75.54-7.8,4.05-9.56.51-.26,1.01-.52,1.49-.8-1.76-.77-3.22-2.15-4.06-3.96l-1.42-3.06c-1.15-2.48-.96-5.37.51-7.68.53-.83,1.2-1.54,1.97-2.12-.04-.29-.05-.58-.06-.86-.05-.04-.1-.09-.14-.13-2.19-2.03-3.5-4.77-3.67-7.74-.17-2.95.79-5.81,2.71-8.07.21-.25.44-.49.69-.72,1.43-1.31,2.32-2.75,2.8-4.53.84-3.1,3.46-5.4,6.65-5.83.36-.05.71-.07,1.07-.07,2.11,0,4.12.83,5.61,2.29.07-2.38,1.19-4.61,3.07-6.08,1.42-1.11,3.16-1.7,4.93-1.7.64,0,1.29.08,1.92.23l10.23,2.53c.09.02.18.05.28.07,2.2.63,3.98,2.01,5.1,3.8.69-.4,1.44-.71,2.24-.91.71-.18,1.42-.26,2.12-.26,2.7,0,5.18,1.27,6.78,3.39l5.68,6.37c.09.11.18.21.27.32,2.28,2.85,2.61,6.74.84,9.96-1.15,2.15-3.06,3.71-5.3,4.41.72,1.33,1.09,2.79,1.11,4.26,0,0,.91.96.94.99,2.35,2.57,3.11,6.07,2.01,9.36-.22.66-.51,1.29-.86,1.87,1.79,1.34,2.99,3.4,3.19,5.74.31,3.59-1.82,6.94-5.2,8.18-2.14.79-4.03,2.03-5.77,3.81-1.54,1.56-3.6,2.38-5.7,2.38Z"/>
        <path class="cls-2" d="M215.89,68.73c-1.94,0-3.85-.49-5.67-1.46-.15-.08-.29-.16-.43-.25-1.64-1.01-2.98-2.37-3.93-3.97-.35.05-.7.09-1.06.1-5.84,2.98-12.05,4.57-18.46,4.73-.07,0-.14,0-.21,0-.41,0-.81-.03-1.2-.09l-3.43.65c-.69.16-1.4.24-2.1.24-2.01,0-3.94-.65-5.53-1.86-.33-.22-.64-.47-.94-.73-1.12.56-2.34.84-3.57.84-1.49,0-2.98-.41-4.3-1.25-3.05-1.94-4.41-5.69-3.33-9.14,1.61-5.12,2.3-10.33,2.07-15.48-.03-.65.02-1.28.14-1.9l-1.11-2.09c-1.32-2.48-1.24-5.47.21-7.88.61-1.01,1.42-1.86,2.37-2.5,0-.81.07-1.63.23-2.43.04-.2.09-.39.14-.58.07-.26.08-.4.08-.44,0,0-.08-.14-.25-.34-2.28-2.67-2.55-6.51-.67-9.48,1.26-1.98,3.29-3.26,5.51-3.62,0-.2,0-.4,0-.6-.05-2.97,1.54-5.73,4.15-7.16,1.2-.66,2.53-.99,3.85-.99,1.54,0,3.08.45,4.42,1.33l7.17,4.75c.44.29.85.62,1.22.99h1.34v-.12c0-2.52,1.19-4.9,3.21-6.41,1.4-1.04,3.08-1.59,4.79-1.59.76,0,1.53.11,2.27.33l8.54,2.53c.24.07.47.15.71.25,1.12.45,2.11,1.1,2.94,1.92,1.84.26,3.56,1.11,4.97,2.45l4.48,4.16c.29.27.55.55.8.86,1.72,2.15,2.42,4.88,1.94,7.5-.17.95-.49,1.85-.93,2.67l.89,1.12c.05.07.11.14.16.21,2.34,3.14,2.27,7.33-.06,10.38-.24.34-.5.65-.78.94-.03.35-.08.7-.15,1.05-.26,1.29-.79,2.46-1.53,3.48v9.01c.21.22.42.46.62.69.11.12.21.25.31.38,2.6,3.47,3.07,7.83,1.26,11.68-.08.18-.17.35-.27.52-1.58,2.82-4.02,4.87-7.05,5.94-1.22.43-2.51.66-3.81.66Z"/>
      </g>
      <g>
        <path class="cls-6" d="M8,22.45l7.59,1.79c.63-4.85.91-9.67.84-14.45l9.07,4.22c.42.21.63.53.63.95,0,.49-.18.88-.53,1.16l-2.74,1.69c-1.34,2.39-2.92,4.61-4.75,6.64h4.01l1.58-2.53c.21-.35.53-.56.95-.63.35-.07.7.04,1.05.32l4.85,3.69c.28.21.42.53.42.95,0,.35-.14.67-.42.95l-1.05,1.05v6.01c3.94-8.09,6.01-16.66,6.22-25.73l10.23,4.54c.42.14.6.42.53.84.07.49-.07.81-.42.95l-1.37.74c-.84,2.74-1.97,5.48-3.38,8.23h7.28l1.48-2.43c.28-.28.6-.46.95-.53.35-.07.7-.03,1.05.11l5.91,4.11c.35.21.53.56.53,1.05.07.42-.07.77-.42,1.05l-1.05.84c.63,8.44-.21,16.59-2.53,24.47-.49,1.55-1.27,2.95-2.32,4.22-1.9,2.18-4.32,3.41-7.28,3.69-.77.07-1.48-.14-2.11-.63-.63-.49-1.05-1.13-1.27-1.9-.14-1.48-.72-2.72-1.74-3.74s-2.23-1.67-3.64-1.95c2.53-.14,4.85-.03,6.96.32.7.07,1.34-.07,1.9-.42.56-.35.95-.81,1.16-1.37,2.74-7.73,3.55-15.68,2.43-23.84h-9.39c-1.12,1.69-2.39,3.2-3.8,4.54,1.97.77,3.64,1.95,5.01,3.53s2.27,3.39,2.69,5.43c.21.84.16,1.63-.16,2.37s-.83,1.32-1.53,1.74c-.7.56-1.51.84-2.43.84s-1.76-.25-2.53-.74c-1.34-.91-1.9-2.21-1.69-3.9.49-2.74.18-5.31-.95-7.7-1.41,1.34-2.85,2.46-4.32,3.38v19.41c-.07,1.19-.63,1.93-1.69,2.21l-4.75.95c-.42.14-.81.03-1.16-.32-.28-.21-.46-.56-.53-1.05v-2.11h-5.38v2c-.07.91-.53,1.55-1.37,1.9l-4.75.84c-.56.07-1-.04-1.32-.32-.32-.28-.51-.63-.58-1.05V22.45ZM16.02,27.2v11.18h5.38v-11.18h-5.38ZM16.02,41.33v11.5h5.38v-11.5h-5.38Z"/>
        <path class="cls-6" d="M71.81,22.03h9.49v-13.61l10.65,3.06c.35.21.56.56.63,1.05.07.49-.11.92-.53,1.27l-1.9,1.27v6.96h10.02l2-2.74c.49-.49,1.05-.6,1.69-.32l6.54,4.22c.56.7.56,1.37,0,2l-1.69,1.37v16.98c0,.63-.28,1.16-.84,1.58l-6.64,1.9c-.84.21-1.37-.11-1.58-.95v-2h-9.49v13.18c0,.84-.32,1.44-.95,1.79l-6.01,1.58c-.98,0-1.62-.46-1.9-1.37v-15.19h-9.07v1.05c0,.49-.21.88-.63,1.16l-6.43,1.58c-.49,0-.88-.14-1.16-.42-.28-.28-.49-.67-.63-1.16v-26.58l8.44,2.32ZM72.23,24.98v16.35h9.07v-16.35h-9.07ZM90.16,24.98v16.35h9.49v-16.35h-9.49Z"/>
        <path class="cls-6" d="M136.72,9.27l10.23,2.53c.49.14.7.46.63.95.07.56-.14.92-.63,1.05l-.95.74v2.95h10.97l.9-2.21c.11-.28.3-.46.58-.53.28-.07.49.04.63.32l6.01,6.75c.28.35.3.74.05,1.16-.21.42-.55.63-1,.63-2.85,0-5.41.84-7.7,2.53l1.79,1.79c.28.28.37.63.26,1.05-.18.49-.47.77-.9.84h-12.13c0,1.27-.14,2.57-.42,3.9h7.54l1.58-2.43c.14-.21.4-.35.79-.42.28-.07.56,0,.84.21l3.9,3.69c.32.42.37.84.16,1.27-.25.42-.6.6-1.05.53h-14.29c-.56,1.76-1.13,3.27-1.69,4.54h12.5l2-3.16c.25-.28.53-.46.84-.53.35-.07.67.04.95.32l3.9,4.11c.39.42.49.9.32,1.42-.18.53-.55.83-1.11.9h-18.51c6.43,5.13,13.62,8.44,21.57,9.91-3.24,1.19-6.14,3.09-8.7,5.7-7-3.3-12.22-8.4-15.66-15.29-2.53,4.08-5.77,7.42-9.73,10.02s-8.31,4.25-13.05,4.96c6.75-3.38,11.85-8.47,15.29-15.29h-14.19l-1.42-3.06h16.93c.49-1.62.93-3.13,1.32-4.54h-13.61l-1.48-2.85h15.45c.18-1.34.26-2.64.26-3.9h-12.45l-1.16-2.11c-.63.63-1.42.97-2.37,1-.95.04-1.77-.26-2.45-.9s-1.05-1.41-1.11-2.32c-.05-.91.22-1.72.82-2.43,2.53-2.32,4.24-5.1,5.12-8.33.46.77.81,1.69,1.05,2.74h12.55v-8.23ZM124.75,20.45c.03,2.18-.37,4.32-1.21,6.43h13.18v-6.43h-11.97ZM139.89,20.45l6.33,1.69c.39.28.58.69.58,1.21s-.19.9-.58,1.11l-.63.32v2.11h4.9l1.9-2.74c.18-.35.46-.53.84-.53.46,0,.77.14.95.42l.79.53,1.37-4.11h-16.45Z"/>
        <path class="cls-6" d="M171.69,17.7c1.55.42,3.06,1.23,4.54,2.43,1.55-3.51,2.29-7.21,2.21-11.07l7.17,4.75c.28.28.39.6.32.95-.14.35-.42.56-.84.63-.84-.35-1.51-.18-2,.53l-5.27,5.59c1.19,1.13,2.04,2.46,2.53,4.01l4.11-9.39,6.33,5.17c.42.21.56.56.42,1.05-.07.49-.35.77-.84.84-.63-.07-1.16.11-1.58.53l-4.22,4.54c3.59.49,6.19,2.32,7.8,5.48.49,1.2.42,2.32-.21,3.38-.98,1.2-2.21,1.76-3.69,1.69-.84.07-1.55-.16-2.11-.69-.56-.53-.88-1.21-.95-2.06l-.74.21v3.06c1.76-.07,3.36.35,4.8,1.27,1.44.92,2.51,2.14,3.22,3.69.49,1.2.46,2.36-.11,3.48-.84,1.48-2.11,2.08-3.8,1.79-.77-.21-1.44-.63-2-1.27-.56-.63-.88-1.37-.95-2.21-.07-1.48-.46-2.88-1.16-4.22v16.56c0,.7-.32,1.19-.95,1.48l-3.9.74c-.49.14-.92.03-1.27-.32-.42-.21-.67-.56-.74-1.05v-13.71c-1.62,5.27-4.43,9.74-8.44,13.39,1.9-6.05,2.71-12.13,2.43-18.25l6.01,1.58v-3.69l-2.11.63c-.35.07-.6.28-.74.63-.07.35-.3.56-.69.63-.39.07-.65-.07-.79-.42l-3.59-6.75h7.07l1.58-3.59c-1.34.7-2.57.63-3.69-.21-.56-.42-.97-.97-1.21-1.63-.25-.67-.3-1.35-.16-2.06.84-3.02.25-5.73-1.79-8.12ZM179.91,33.31h4.85c-.14-1.27-.67-2.43-1.58-3.48l-3.27,3.48ZM190.78,16.12h9.81v-8.12l8.54,2.53c.35.14.56.42.63.84.07.35-.07.63-.42.84-.42.28-.7.7-.84,1.27v2.64h2.43l1.9-2.64c.14-.28.42-.46.84-.53.28-.07.56.04.84.32l4.54,4.22c.28.35.39.7.32,1.05-.07.42-.32.7-.74.84h-3.9l2.85,3.59c.42.56.42,1.09,0,1.58l3.38,4.22c.21.28.18.56-.11.84-.14.28-.39.39-.74.32h-7.07l5.06,3.9c.35.28.49.6.42.95-.07.35-.28.56-.63.63-.56.28-.92.7-1.05,1.27v13.61c0,.56-.25,1.05-.74,1.48l-1.16.42c1.76.28,3.23,1.13,4.43,2.53.84,1.12.98,2.29.42,3.48-.63,1.12-1.55,1.9-2.74,2.32-.98.35-2,.25-3.06-.32-.92-.56-1.48-1.37-1.69-2.43-.42-1.69-1.32-3.13-2.69-4.32-1.37-1.19-2.94-1.86-4.69-2,1.55-.42,3.09-.56,4.64-.42v-.32h-8.44l3.8,2.95c.42.28.53.63.32,1.05-.21.35-.53.49-.95.42-.84-.14-1.65.03-2.43.53-4.99,2.67-10.23,4.08-15.71,4.22,3.87-2.04,7.35-4.54,10.44-7.49l-1.58.74c-.42.07-.81-.02-1.16-.26-.35-.25-.56-.58-.63-1v-21.09l6.33,1.37h10.12l1.27-2.32h-19.93l-1.58-2.74h11.18v-2.53h-7.07l-.74-2.74h7.8v-2.43h-8.23l-1.58-3.27ZM200.38,34.58v2.85h9.18v-2.85h-9.18ZM200.38,40.27v2.43h9.18v-2.43h-9.18ZM200.38,45.44v2.43h9.18v-2.43h-9.18ZM208.5,19.39v2.43h2.11l1.27-2.43h-3.38ZM208.5,24.56v2.53h4.64l1.58-2.53h-6.22Z"/>
      </g>
      <g>
        <path class="cls-1" d="M8,22.45l7.59,1.79c.63-4.85.91-9.67.84-14.45l9.07,4.22c.42.21.63.53.63.95,0,.49-.18.88-.53,1.16l-2.74,1.69c-1.34,2.39-2.92,4.61-4.75,6.64h4.01l1.58-2.53c.21-.35.53-.56.95-.63.35-.07.7.04,1.05.32l4.85,3.69c.28.21.42.53.42.95,0,.35-.14.67-.42.95l-1.05,1.05v6.01c3.94-8.09,6.01-16.66,6.22-25.73l10.23,4.54c.42.14.6.42.53.84.07.49-.07.81-.42.95l-1.37.74c-.84,2.74-1.97,5.48-3.38,8.23h7.28l1.48-2.43c.28-.28.6-.46.95-.53.35-.07.7-.03,1.05.11l5.91,4.11c.35.21.53.56.53,1.05.07.42-.07.77-.42,1.05l-1.05.84c.63,8.44-.21,16.59-2.53,24.47-.49,1.55-1.27,2.95-2.32,4.22-1.9,2.18-4.32,3.41-7.28,3.69-.77.07-1.48-.14-2.11-.63-.63-.49-1.05-1.13-1.27-1.9-.14-1.48-.72-2.72-1.74-3.74s-2.23-1.67-3.64-1.95c2.53-.14,4.85-.03,6.96.32.7.07,1.34-.07,1.9-.42.56-.35.95-.81,1.16-1.37,2.74-7.73,3.55-15.68,2.43-23.84h-9.39c-1.12,1.69-2.39,3.2-3.8,4.54,1.97.77,3.64,1.95,5.01,3.53s2.27,3.39,2.69,5.43c.21.84.16,1.63-.16,2.37s-.83,1.32-1.53,1.74c-.7.56-1.51.84-2.43.84s-1.76-.25-2.53-.74c-1.34-.91-1.9-2.21-1.69-3.9.49-2.74.18-5.31-.95-7.7-1.41,1.34-2.85,2.46-4.32,3.38v19.41c-.07,1.19-.63,1.93-1.69,2.21l-4.75.95c-.42.14-.81.03-1.16-.32-.28-.21-.46-.56-.53-1.05v-2.11h-5.38v2c-.07.91-.53,1.55-1.37,1.9l-4.75.84c-.56.07-1-.04-1.32-.32-.32-.28-.51-.63-.58-1.05V22.45ZM16.02,27.2v11.18h5.38v-11.18h-5.38ZM16.02,41.33v11.5h5.38v-11.5h-5.38Z"/>
        <path class="cls-1" d="M71.81,22.03h9.49v-13.61l10.65,3.06c.35.21.56.56.63,1.05.07.49-.11.92-.53,1.27l-1.9,1.27v6.96h10.02l2-2.74c.49-.49,1.05-.6,1.69-.32l6.54,4.22c.56.7.56,1.37,0,2l-1.69,1.37v16.98c0,.63-.28,1.16-.84,1.58l-6.64,1.9c-.84.21-1.37-.11-1.58-.95v-2h-9.49v13.18c0,.84-.32,1.44-.95,1.79l-6.01,1.58c-.98,0-1.62-.46-1.9-1.37v-15.19h-9.07v1.05c0,.49-.21.88-.63,1.16l-6.43,1.58c-.49,0-.88-.14-1.16-.42-.28-.28-.49-.67-.63-1.16v-26.58l8.44,2.32ZM72.23,24.98v16.35h9.07v-16.35h-9.07ZM90.16,24.98v16.35h9.49v-16.35h-9.49Z"/>
        <path class="cls-1" d="M136.72,9.27l10.23,2.53c.49.14.7.46.63.95.07.56-.14.92-.63,1.05l-.95.74v2.95h10.97l.9-2.21c.11-.28.3-.46.58-.53.28-.07.49.04.63.32l6.01,6.75c.28.35.3.74.05,1.16-.21.42-.55.63-1,.63-2.85,0-5.41.84-7.7,2.53l1.79,1.79c.28.28.37.63.26,1.05-.18.49-.47.77-.9.84h-12.13c0,1.27-.14,2.57-.42,3.9h7.54l1.58-2.43c.14-.21.4-.35.79-.42.28-.07.56,0,.84.21l3.9,3.69c.32.42.37.84.16,1.27-.25.42-.6.6-1.05.53h-14.29c-.56,1.76-1.13,3.27-1.69,4.54h12.5l2-3.16c.25-.28.53-.46.84-.53.35-.07.67.04.95.32l3.9,4.11c.39.42.49.9.32,1.42-.18.53-.55.83-1.11.9h-18.51c6.43,5.13,13.62,8.44,21.57,9.91-3.24,1.19-6.14,3.09-8.7,5.7-7-3.3-12.22-8.4-15.66-15.29-2.53,4.08-5.77,7.42-9.73,10.02s-8.31,4.25-13.05,4.96c6.75-3.38,11.85-8.47,15.29-15.29h-14.19l-1.42-3.06h16.93c.49-1.62.93-3.13,1.32-4.54h-13.61l-1.48-2.85h15.45c.18-1.34.26-2.64.26-3.9h-12.45l-1.16-2.11c-.63.63-1.42.97-2.37,1-.95.04-1.77-.26-2.45-.9s-1.05-1.41-1.11-2.32c-.05-.91.22-1.72.82-2.43,2.53-2.32,4.24-5.1,5.12-8.33.46.77.81,1.69,1.05,2.74h12.55v-8.23ZM124.75,20.45c.03,2.18-.37,4.32-1.21,6.43h13.18v-6.43h-11.97ZM139.89,20.45l6.33,1.69c.39.28.58.69.58,1.21s-.19.9-.58,1.11l-.63.32v2.11h4.9l1.9-2.74c.18-.35.46-.53.84-.53.46,0,.77.14.95.42l.79.53,1.37-4.11h-16.45Z"/>
        <path class="cls-1" d="M171.69,17.7c1.55.42,3.06,1.23,4.54,2.43,1.55-3.51,2.29-7.21,2.21-11.07l7.17,4.75c.28.28.39.6.32.95-.14.35-.42.56-.84.63-.84-.35-1.51-.18-2,.53l-5.27,5.59c1.19,1.13,2.04,2.46,2.53,4.01l4.11-9.39,6.33,5.17c.42.21.56.56.42,1.05-.07.49-.35.77-.84.84-.63-.07-1.16.11-1.58.53l-4.22,4.54c3.59.49,6.19,2.32,7.8,5.48.49,1.2.42,2.32-.21,3.38-.98,1.2-2.21,1.76-3.69,1.69-.84.07-1.55-.16-2.11-.69-.56-.53-.88-1.21-.95-2.06l-.74.21v3.06c1.76-.07,3.36.35,4.8,1.27,1.44.92,2.51,2.14,3.22,3.69.49,1.2.46,2.36-.11,3.48-.84,1.48-2.11,2.08-3.8,1.79-.77-.21-1.44-.63-2-1.27-.56-.63-.88-1.37-.95-2.21-.07-1.48-.46-2.88-1.16-4.22v16.56c0,.7-.32,1.19-.95,1.48l-3.9.74c-.49.14-.92.03-1.27-.32-.42-.21-.67-.56-.74-1.05v-13.71c-1.62,5.27-4.43,9.74-8.44,13.39,1.9-6.05,2.71-12.13,2.43-18.25l6.01,1.58v-3.69l-2.11.63c-.35.07-.6.28-.74.63-.07.35-.3.56-.69.63-.39.07-.65-.07-.79-.42l-3.59-6.75h7.07l1.58-3.59c-1.34.7-2.57.63-3.69-.21-.56-.42-.97-.97-1.21-1.63-.25-.67-.3-1.35-.16-2.06.84-3.02.25-5.73-1.79-8.12ZM179.91,33.31h4.85c-.14-1.27-.67-2.43-1.58-3.48l-3.27,3.48ZM190.78,16.12h9.81v-8.12l8.54,2.53c.35.14.56.42.63.84.07.35-.07.63-.42.84-.42.28-.7.7-.84,1.27v2.64h2.43l1.9-2.64c.14-.28.42-.46.84-.53.28-.07.56.04.84.32l4.54,4.22c.28.35.39.7.32,1.05-.07.42-.32.7-.74.84h-3.9l2.85,3.59c.42.56.42,1.09,0,1.58l3.38,4.22c.21.28.18.56-.11.84-.14.28-.39.39-.74.32h-7.07l5.06,3.9c.35.28.49.6.42.95-.07.35-.28.56-.63.63-.56.28-.92.7-1.05,1.27v13.61c0,.56-.25,1.05-.74,1.48l-1.16.42c1.76.28,3.23,1.13,4.43,2.53.84,1.12.98,2.29.42,3.48-.63,1.12-1.55,1.9-2.74,2.32-.98.35-2,.25-3.06-.32-.92-.56-1.48-1.37-1.69-2.43-.42-1.69-1.32-3.13-2.69-4.32-1.37-1.19-2.94-1.86-4.69-2,1.55-.42,3.09-.56,4.64-.42v-.32h-8.44l3.8,2.95c.42.28.53.63.32,1.05-.21.35-.53.49-.95.42-.84-.14-1.65.03-2.43.53-4.99,2.67-10.23,4.08-15.71,4.22,3.87-2.04,7.35-4.54,10.44-7.49l-1.58.74c-.42.07-.81-.02-1.16-.26-.35-.25-.56-.58-.63-1v-21.09l6.33,1.37h10.12l1.27-2.32h-19.93l-1.58-2.74h11.18v-2.53h-7.07l-.74-2.74h7.8v-2.43h-8.23l-1.58-3.27ZM200.38,34.58v2.85h9.18v-2.85h-9.18ZM200.38,40.27v2.43h9.18v-2.43h-9.18ZM200.38,45.44v2.43h9.18v-2.43h-9.18ZM208.5,19.39v2.43h2.11l1.27-2.43h-3.38ZM208.5,24.56v2.53h4.64l1.58-2.53h-6.22Z"/>
      </g>
    </g>
  </g>
</svg>