<?xml version="1.0" encoding="UTF-8"?>
<svg id="_レイヤー_2" data-name="レイヤー 2" xmlns="http://www.w3.org/2000/svg" xmlns:xlink="http://www.w3.org/1999/xlink" viewBox="0 0 270.06 69.74">
  <defs>
    <style>
      .cls-1 {
        fill: url(#_名称未設定グラデーション_120-5);
      }

      .cls-2 {
        fill: url(#_名称未設定グラデーション_120-6);
      }

      .cls-3 {
        fill: #fff;
      }

      .cls-4 {
        fill: url(#_名称未設定グラデーション_120-4);
      }

      .cls-5 {
        fill: url(#_名称未設定グラデーション_120-2);
      }

      .cls-6 {
        fill: url(#_名称未設定グラデーション_120-3);
      }

      .cls-7 {
        fill: url(#_名称未設定グラデーション_120);
      }

      .cls-8 {
        fill: none;
        stroke: #000;
        stroke-width: 6px;
      }
    </style>
    <linearGradient id="_名称未設定グラデーション_120" data-name="名称未設定グラデーション 120" x1="20.93" y1="69.74" x2="20.93" y2="0" gradientUnits="userSpaceOnUse">
      <stop offset="0" stop-color="#945700"/>
      <stop offset=".19" stop-color="#e9a900"/>
      <stop offset=".29" stop-color="#f5f8b4"/>
      <stop offset=".4" stop-color="#e9a900"/>
      <stop offset="1" stop-color="#fff87f"/>
    </linearGradient>
    <linearGradient id="_名称未設定グラデーション_120-2" data-name="名称未設定グラデーション 120" x1="47.96" x2="47.96" xlink:href="#_名称未設定グラデーション_120"/>
    <linearGradient id="_名称未設定グラデーション_120-3" data-name="名称未設定グラデーション 120" x1="75.45" x2="75.45" xlink:href="#_名称未設定グラデーション_120"/>
    <linearGradient id="_名称未設定グラデーション_120-4" data-name="名称未設定グラデーション 120" x1="129.9" x2="129.9" xlink:href="#_名称未設定グラデーション_120"/>
    <linearGradient id="_名称未設定グラデーション_120-5" data-name="名称未設定グラデーション 120" x1="183.04" x2="183.04" xlink:href="#_名称未設定グラデーション_120"/>
    <linearGradient id="_名称未設定グラデーション_120-6" data-name="名称未設定グラデーション 120" x1="238.88" x2="238.88" xlink:href="#_名称未設定グラデーション_120"/>
  </defs>
  <g id="_レイヤー_1-2" data-name="レイヤー 1">
    <g>
      <g>
        <path class="cls-3" d="M22.27,39.23l4.17-19.51-.16-.26c-1.2-.28-1.65-.93-1.37-1.95.46-1.02,1.27-1.39,2.43-1.11h4.22c.42-.07,1,.07,1.74.42.7.77.76,1.42.16,1.95-.46.46-.88.69-1.27.69l-.95.74-10.23,35.7L10.46,20.03l-.84-.69c-.56,0-1.09-.32-1.58-.95-.11-.63.02-1.14.37-1.53.56-.63,1.27-.79,2.11-.47h6.96c.39-.07,1.04.07,1.95.42.25.7.32,1.21.21,1.53-.28.67-.74,1-1.37,1l-.11.32,4.11,19.56Z"/>
        <path class="cls-3" d="M44.31,19.55l-3.53-1.69c-.39-.21-.51-.49-.37-.84.11-.39.35-.58.74-.58h13.71c.28-.14.52-.11.71.08.19.19.29.41.29.66,0,.63-.25.95-.74.95l-3.48,1.48v34.44l3.74,1.48c.42.14.69.4.79.79.18.49.07.86-.32,1.11-.39.25-.72.28-1,.11h-14.24c-.49,0-.8-.24-.92-.71s.04-.83.5-1.08l4.11-1.69V19.55Z"/>
        <path class="cls-3" d="M65.57,52.93V19.87l-1.63-1.27c-.42-.28-.63-.69-.63-1.21.21-.49.7-.74,1.48-.74h11.02c2.88-.14,5.57.74,8.07,2.64,1.86,1.41,3.03,3.51,3.51,6.3s.24,5.42-.71,7.88c-1.58,2.6-3.48,4.59-5.7,5.96-3.27,1.51-6.26,2.27-8.96,2.27v11.23l1.42,1.16c.28.14.51.31.69.5.18.19.26.45.26.76,0,.88-.51,1.32-1.53,1.32h-8.12c-.67-.21-1.11-.6-1.32-1.16-.18-.81.16-1.32,1-1.53l1.16-1.05ZM72,19.97v17.88c.91.07,2.16-.23,3.74-.9,1.58-.88,2.87-2.53,3.85-4.96.56-1.09.86-2.35.9-3.8.04-1.44-.18-2.81-.63-4.11-.81-2.07-1.88-3.25-3.22-3.53-1.97-.46-3.52-.65-4.64-.58Z"/>
        <path class="cls-3" d="M103.64,20.76c1.76.49,3.5.69,5.22.58l26.26-3.43c.7-.07,1.25-.37,1.63-.9l1.48-1.32c.35-.28.76-.41,1.24-.4.47.02.87.18,1.19.5l5.64,5.64c.21.28.29.62.24,1-.05.39-.24.69-.55.9l-.74.79c-1.79,7.03-4.85,13.48-9.18,19.35-3.66,5.1-8.21,9.1-13.66,12-5.45,2.9-11.32,4.44-17.61,4.61,8.44-2.85,15.4-7.8,20.88-14.87,5.38-6.4,8.46-13.82,9.23-22.25-7.31,1.02-14.48,2.71-21.52,5.06-.7.21-1.35.6-1.95,1.16-.88.84-1.76.86-2.64.05-2.71-2.25-4.43-5.08-5.17-8.49ZM143.35,14.28c0-1.72.64-3.21,1.92-4.46,1.28-1.25,2.79-1.85,4.51-1.82,1.72-.03,3.21.58,4.46,1.85,1.25,1.27,1.89,2.76,1.92,4.48,0,1.76-.64,3.27-1.92,4.54-1.28,1.27-2.8,1.9-4.56,1.9s-3.26-.64-4.51-1.92c-1.25-1.28-1.85-2.8-1.82-4.56ZM146.25,14.33c0,.95.36,1.78,1.08,2.48.72.7,1.56,1.05,2.5,1.05s1.78-.36,2.5-1.08,1.06-1.56,1.03-2.5c0-.98-.36-1.83-1.08-2.53-.72-.7-1.57-1.05-2.56-1.05-.92,0-1.73.36-2.45,1.08s-1.06,1.57-1.03,2.56Z"/>
        <path class="cls-3" d="M160.33,33.05c3.06.63,6.19.7,9.39.21,7.84-1.97,15.73-3.3,23.68-4.01.98-.03,1.93-.39,2.85-1.05l.95-.79c.84-.67,1.71-.74,2.58-.21,2.11,1.48,4.01,3.27,5.7,5.38.21.25.3.54.26.87-.04.33-.18.62-.42.87l-1.32.84c-1.44,4.15-3.53,7.88-6.28,11.21s-6.03,6.09-9.86,8.31c-6.33,3.87-13.24,6.22-20.72,7.07,6.36-2.32,11.87-5.86,16.53-10.63,4.66-4.76,8.06-10.36,10.2-16.8-8.58.81-16.7,2.9-24.36,6.28-.92.53-1.81.49-2.69-.11-2.74-1.97-4.9-4.45-6.49-7.44ZM164.92,20.39c3.38.32,6.77.23,10.18-.26,5.48-.88,11.16-2.25,17.03-4.11.88-.18,1.63-.12,2.27.16,1.69.77,3.23,1.67,4.64,2.69.7.53.88,1.21.53,2.06-.28.77-.86,1.16-1.74,1.16-7.88.39-15.52,1.74-22.94,4.06-.77.14-1.58.05-2.43-.26-2.95-1.34-5.47-3.16-7.54-5.48Z"/>
        <path class="cls-3" d="M215.7,17.6c4.75-.7,9.28-.02,13.61,2.06,2.43,1.37,4.17,3.34,5.22,5.91.35,1.05.32,2.13-.08,3.22-.4,1.09-1.12,1.9-2.14,2.43-1.13.74-2.37.96-3.74.66-1.37-.3-2.43-.99-3.16-2.08l-2.43-4.64c-1.79-3.13-4.22-5.64-7.28-7.54ZM216.76,48.77l1,.05c1.62.42,3.22.47,4.8.16,15.19-6.5,28.35-15.87,39.5-28.11-7.59,15.36-18.84,27.35-33.75,35.96-.67.49-1.16,1.12-1.48,1.9-.25.46-.62.79-1.11,1-.53.11-1.02.05-1.48-.16-4.08-2.46-6.57-6.06-7.49-10.81Z"/>
      </g>
      <g>
        <path class="cls-7" d="M21.01,63.89c-3.55,0-6.67-2.34-7.67-5.74L3.66,25.27c-.7-.55-1.36-1.21-1.94-1.96-.82-1.05-1.36-2.29-1.58-3.6-.5-3.03.35-6.03,2.33-8.22,1.85-2.08,4.44-3.26,7.24-3.26.59,0,1.18.05,1.76.16h5.64c.19-.01.38-.02.57-.02,1.4,0,2.85.3,4.56.95,1.33-.67,2.82-1.03,4.39-1.03.46,0,.92.03,1.38.09h3.19c.19-.01.38-.02.58-.02,1.61,0,3.23.4,4.95,1.21.94.45,1.79,1.07,2.49,1.85,2.36,2.59,2.73,5.25,2.64,7.02-.13,2.33-1.15,4.49-2.89,6.12-.29.28-.58.54-.88.77l-9.39,32.76c-.98,3.42-4.1,5.78-7.66,5.8h-.03Z"/>
        <path class="cls-5" d="M55.24,65.63c-.46,0-.93-.04-1.38-.11h-13.24c-4.14,0-7.63-2.69-8.67-6.7-1.04-4.03.71-8.06,4.36-10.08v-24.23c-3.36-2.19-4.78-6.24-3.49-10.01,1.18-3.64,4.48-6.05,8.33-6.05h12.81c.41-.06.82-.09,1.23-.09,2.27,0,4.41.89,6.02,2.5,1.71,1.71,2.65,3.96,2.65,6.33,0,3.31-1.67,6.15-4.22,7.7v23.83c1.98,1.14,3.47,2.98,4.16,5.17,1.29,3.97-.16,8.08-3.66,10.29-1.49.95-3.2,1.46-4.91,1.46Z"/>
        <path class="cls-6" d="M64.72,64.68c-.82,0-1.63-.12-2.41-.37-3-.95-5.33-3.13-6.4-5.98-.14-.36-.24-.73-.33-1.11-.65-3.01.15-5.91,1.98-8.02v-25.62c-1.46-1.68-2.27-3.84-2.27-6.18,0-1.08.22-2.16.65-3.15,1.48-3.45,4.86-5.59,8.83-5.59h10.85c.25,0,.51-.01.76-.01,4.44,0,8.58,1.44,12.32,4.28,2.41,1.82,5.52,5.28,6.55,11.33.72,4.22.33,8.29-1.14,12.1-.17.44-.38.87-.63,1.28-2.23,3.68-5.03,6.57-8.32,8.61-.27.17-.56.32-.85.46-1.46.68-2.9,1.24-4.32,1.69v.8s.01.01.02.02c1.52,1.68,2.36,3.86,2.36,6.16,0,5.31-4.1,9.32-9.53,9.32h-8.12Z"/>
        <path class="cls-4" d="M104.8,68.1c-3.86,0-7.19-2.77-7.87-6.59-.7-3.9,1.56-7.72,5.32-8.99,6.98-2.36,12.58-6.34,17.12-12.2.06-.08.13-.16.2-.24,1.81-2.15,3.28-4.42,4.43-6.82-2.54.64-5.05,1.38-7.54,2.19-1.8,1.53-4.05,2.39-6.36,2.39-1.68,0-4.15-.45-6.53-2.55-4.03-3.39-6.64-7.71-7.75-12.84-.59-2.74.29-5.59,2.33-7.52,1.5-1.42,3.47-2.18,5.48-2.18.72,0,1.45.1,2.16.3.75.21,1.45.31,2.14.31.07,0,.14,0,.2,0l24.23-3.16.53-.47c.1-.09.21-.18.32-.27,1.13-.91,2.42-1.54,3.79-1.88.69-1.26,1.58-2.44,2.68-3.5,2.75-2.67,6.19-4.08,9.95-4.08h.27c3.82,0,7.29,1.46,10.02,4.23,2.69,2.73,4.15,6.16,4.23,9.94,0,.05,0,.11,0,.16,0,3.91-1.49,7.45-4.31,10.23-2.14,2.11-4.7,3.45-7.52,3.97-2.1,7.09-5.4,13.71-9.82,19.71-4.31,6-9.82,10.85-16.34,14.31-6.52,3.47-13.64,5.34-21.15,5.55-.08,0-.15,0-.23,0Z"/>
        <path class="cls-1" d="M167.13,69.74c-3.67,0-6.92-2.52-7.78-6.17-.93-3.94,1.24-7.96,5.05-9.35,5.03-1.83,9.3-4.51,13.02-8.17-1.49.53-2.97,1.11-4.42,1.74-1.5.76-3.14,1.17-4.76,1.17-2.08,0-4.13-.65-5.92-1.87-.05-.04-.11-.07-.16-.11-3.74-2.69-6.73-6.12-8.89-10.19-1.45-2.74-1.19-6.07.67-8.55,1.16-1.55,2.81-2.59,4.63-3-1.85-2.42-2.17-5.71-.78-8.46,1.37-2.71,4.14-4.4,7.14-4.4.25,0,.5.01.75.04,1.07.1,2.16.15,3.23.15,1.65,0,3.33-.12,5-.36,5.05-.81,10.37-2.1,15.82-3.83.28-.09.56-.16.85-.22.85-.17,1.7-.26,2.53-.26,1.61,0,3.14.32,4.56.95,2.24,1.03,4.26,2.2,6.09,3.52.03.03.07.05.1.08,3.31,2.48,4.64,6.6,3.48,10.5,1.56,1.37,3.01,2.89,4.35,4.55,1.56,1.9,2.28,4.28,2.03,6.75-.23,2.19-1.17,4.16-2.72,5.71-.13.13-.26.25-.39.37-1.68,4.04-3.93,7.77-6.69,11.12-3.32,4.02-7.33,7.41-11.94,10.09-7.28,4.43-15.33,7.17-23.92,8.14-.3.03-.6.05-.9.05Z"/>
        <path class="cls-2" d="M225.21,67.79c-1.5,0-2.96-.32-4.32-.95-.27-.12-.52-.26-.77-.41-6-3.62-9.87-9.2-11.21-16.15-.47-2.42.21-4.91,1.82-6.77,1.52-1.75,3.73-2.75,6.03-2.75.14,0,.28,0,.42.01l1,.05c.54.03,1.08.11,1.6.25.23.06.45.09.65.1,1.5-.66,2.99-1.36,4.45-2.08-2.5-.95-4.59-2.59-6.1-4.83-.17-.25-.33-.51-.47-.78l-2.35-4.49c-1.12-1.92-2.59-3.43-4.49-4.6-2.85-1.77-4.3-5.13-3.62-8.42.68-3.29,3.34-5.8,6.66-6.29,1.58-.23,3.18-.35,4.74-.35,4.66,0,9.2,1.05,13.5,3.11.16.08.32.16.48.25,4.01,2.27,6.93,5.58,8.68,9.83.07.17.13.34.19.52.53,1.58.73,3.22.62,4.85,4.78-3.72,9.25-7.86,13.4-12.41,1.57-1.72,3.73-2.61,5.92-2.61,1.56,0,3.13.46,4.51,1.39,3.29,2.25,4.43,6.58,2.66,10.15-8.05,16.28-20.03,29.26-35.63,38.59-1.11,1.83-2.73,3.23-4.73,4.09-.51.22-1.04.38-1.58.49-.69.14-1.39.21-2.08.21Z"/>
      </g>
      <g>
        <path class="cls-8" d="M22.27,39.23l4.17-19.51-.16-.26c-1.2-.28-1.65-.93-1.37-1.95.46-1.02,1.27-1.39,2.43-1.11h4.22c.42-.07,1,.07,1.74.42.7.77.76,1.42.16,1.95-.46.46-.88.69-1.27.69l-.95.74-10.23,35.7L10.46,20.03l-.84-.69c-.56,0-1.09-.32-1.58-.95-.11-.63.02-1.14.37-1.53.56-.63,1.27-.79,2.11-.47h6.96c.39-.07,1.04.07,1.95.42.25.7.32,1.21.21,1.53-.28.67-.74,1-1.37,1l-.11.32,4.11,19.56Z"/>
        <path class="cls-8" d="M44.31,19.55l-3.53-1.69c-.39-.21-.51-.49-.37-.84.11-.39.35-.58.74-.58h13.71c.28-.14.52-.11.71.08.19.19.29.41.29.66,0,.63-.25.95-.74.95l-3.48,1.48v34.44l3.74,1.48c.42.14.69.4.79.79.18.49.07.86-.32,1.11-.39.25-.72.28-1,.11h-14.24c-.49,0-.8-.24-.92-.71s.04-.83.5-1.08l4.11-1.69V19.55Z"/>
        <path class="cls-8" d="M65.57,52.93V19.87l-1.63-1.27c-.42-.28-.63-.69-.63-1.21.21-.49.7-.74,1.48-.74h11.02c2.88-.14,5.57.74,8.07,2.64,1.86,1.41,3.03,3.51,3.51,6.3s.24,5.42-.71,7.88c-1.58,2.6-3.48,4.59-5.7,5.96-3.27,1.51-6.26,2.27-8.96,2.27v11.23l1.42,1.16c.28.14.51.31.69.5.18.19.26.45.26.76,0,.88-.51,1.32-1.53,1.32h-8.12c-.67-.21-1.11-.6-1.32-1.16-.18-.81.16-1.32,1-1.53l1.16-1.05ZM72,19.97v17.88c.91.07,2.16-.23,3.74-.9,1.58-.88,2.87-2.53,3.85-4.96.56-1.09.86-2.35.9-3.8.04-1.44-.18-2.81-.63-4.11-.81-2.07-1.88-3.25-3.22-3.53-1.97-.46-3.52-.65-4.64-.58Z"/>
        <path class="cls-8" d="M103.64,20.76c1.76.49,3.5.69,5.22.58l26.26-3.43c.7-.07,1.25-.37,1.63-.9l1.48-1.32c.35-.28.76-.41,1.24-.4.47.02.87.18,1.19.5l5.64,5.64c.21.28.29.62.24,1-.05.39-.24.69-.55.9l-.74.79c-1.79,7.03-4.85,13.48-9.18,19.35-3.66,5.1-8.21,9.1-13.66,12-5.45,2.9-11.32,4.44-17.61,4.61,8.44-2.85,15.4-7.8,20.88-14.87,5.38-6.4,8.46-13.82,9.23-22.25-7.31,1.02-14.48,2.71-21.52,5.06-.7.21-1.35.6-1.95,1.16-.88.84-1.76.86-2.64.05-2.71-2.25-4.43-5.08-5.17-8.49ZM143.35,14.28c0-1.72.64-3.21,1.92-4.46,1.28-1.25,2.79-1.85,4.51-1.82,1.72-.03,3.21.58,4.46,1.85,1.25,1.27,1.89,2.76,1.92,4.48,0,1.76-.64,3.27-1.92,4.54-1.28,1.27-2.8,1.9-4.56,1.9s-3.26-.64-4.51-1.92c-1.25-1.28-1.85-2.8-1.82-4.56ZM146.25,14.33c0,.95.36,1.78,1.08,2.48.72.7,1.56,1.05,2.5,1.05s1.78-.36,2.5-1.08,1.06-1.56,1.03-2.5c0-.98-.36-1.83-1.08-2.53-.72-.7-1.57-1.05-2.56-1.05-.92,0-1.73.36-2.45,1.08s-1.06,1.57-1.03,2.56Z"/>
        <path class="cls-8" d="M160.33,33.05c3.06.63,6.19.7,9.39.21,7.84-1.97,15.73-3.3,23.68-4.01.98-.03,1.93-.39,2.85-1.05l.95-.79c.84-.67,1.71-.74,2.58-.21,2.11,1.48,4.01,3.27,5.7,5.38.21.25.3.54.26.87-.04.33-.18.62-.42.87l-1.32.84c-1.44,4.15-3.53,7.88-6.28,11.21s-6.03,6.09-9.86,8.31c-6.33,3.87-13.24,6.22-20.72,7.07,6.36-2.32,11.87-5.86,16.53-10.63,4.66-4.76,8.06-10.36,10.2-16.8-8.58.81-16.7,2.9-24.36,6.28-.92.53-1.81.49-2.69-.11-2.74-1.97-4.9-4.45-6.49-7.44ZM164.92,20.39c3.38.32,6.77.23,10.18-.26,5.48-.88,11.16-2.25,17.03-4.11.88-.18,1.63-.12,2.27.16,1.69.77,3.23,1.67,4.64,2.69.7.53.88,1.21.53,2.06-.28.77-.86,1.16-1.74,1.16-7.88.39-15.52,1.74-22.94,4.06-.77.14-1.58.05-2.43-.26-2.95-1.34-5.47-3.16-7.54-5.48Z"/>
        <path class="cls-8" d="M215.7,17.6c4.75-.7,9.28-.02,13.61,2.06,2.43,1.37,4.17,3.34,5.22,5.91.35,1.05.32,2.13-.08,3.22-.4,1.09-1.12,1.9-2.14,2.43-1.13.74-2.37.96-3.74.66-1.37-.3-2.43-.99-3.16-2.08l-2.43-4.64c-1.79-3.13-4.22-5.64-7.28-7.54ZM216.76,48.77l1,.05c1.62.42,3.22.47,4.8.16,15.19-6.5,28.35-15.87,39.5-28.11-7.59,15.36-18.84,27.35-33.75,35.96-.67.49-1.16,1.12-1.48,1.9-.25.46-.62.79-1.11,1-.53.11-1.02.05-1.48-.16-4.08-2.46-6.57-6.06-7.49-10.81Z"/>
      </g>
      <g>
        <path class="cls-3" d="M22.27,39.23l4.17-19.51-.16-.26c-1.2-.28-1.65-.93-1.37-1.95.46-1.02,1.27-1.39,2.43-1.11h4.22c.42-.07,1,.07,1.74.42.7.77.76,1.42.16,1.95-.46.46-.88.69-1.27.69l-.95.74-10.23,35.7L10.46,20.03l-.84-.69c-.56,0-1.09-.32-1.58-.95-.11-.63.02-1.14.37-1.53.56-.63,1.27-.79,2.11-.47h6.96c.39-.07,1.04.07,1.95.42.25.7.32,1.21.21,1.53-.28.67-.74,1-1.37,1l-.11.32,4.11,19.56Z"/>
        <path class="cls-3" d="M44.31,19.55l-3.53-1.69c-.39-.21-.51-.49-.37-.84.11-.39.35-.58.74-.58h13.71c.28-.14.52-.11.71.08.19.19.29.41.29.66,0,.63-.25.95-.74.95l-3.48,1.48v34.44l3.74,1.48c.42.14.69.4.79.79.18.49.07.86-.32,1.11-.39.25-.72.28-1,.11h-14.24c-.49,0-.8-.24-.92-.71s.04-.83.5-1.08l4.11-1.69V19.55Z"/>
        <path class="cls-3" d="M65.57,52.93V19.87l-1.63-1.27c-.42-.28-.63-.69-.63-1.21.21-.49.7-.74,1.48-.74h11.02c2.88-.14,5.57.74,8.07,2.64,1.86,1.41,3.03,3.51,3.51,6.3s.24,5.42-.71,7.88c-1.58,2.6-3.48,4.59-5.7,5.96-3.27,1.51-6.26,2.27-8.96,2.27v11.23l1.42,1.16c.28.14.51.31.69.5.18.19.26.45.26.76,0,.88-.51,1.32-1.53,1.32h-8.12c-.67-.21-1.11-.6-1.32-1.16-.18-.81.16-1.32,1-1.53l1.16-1.05ZM72,19.97v17.88c.91.07,2.16-.23,3.74-.9,1.58-.88,2.87-2.53,3.85-4.96.56-1.09.86-2.35.9-3.8.04-1.44-.18-2.81-.63-4.11-.81-2.07-1.88-3.25-3.22-3.53-1.97-.46-3.52-.65-4.64-.58Z"/>
        <path class="cls-3" d="M103.64,20.76c1.76.49,3.5.69,5.22.58l26.26-3.43c.7-.07,1.25-.37,1.63-.9l1.48-1.32c.35-.28.76-.41,1.24-.4.47.02.87.18,1.19.5l5.64,5.64c.21.28.29.62.24,1-.05.39-.24.69-.55.9l-.74.79c-1.79,7.03-4.85,13.48-9.18,19.35-3.66,5.1-8.21,9.1-13.66,12-5.45,2.9-11.32,4.44-17.61,4.61,8.44-2.85,15.4-7.8,20.88-14.87,5.38-6.4,8.46-13.82,9.23-22.25-7.31,1.02-14.48,2.71-21.52,5.06-.7.21-1.35.6-1.95,1.16-.88.84-1.76.86-2.64.05-2.71-2.25-4.43-5.08-5.17-8.49ZM143.35,14.28c0-1.72.64-3.21,1.92-4.46,1.28-1.25,2.79-1.85,4.51-1.82,1.72-.03,3.21.58,4.46,1.85,1.25,1.27,1.89,2.76,1.92,4.48,0,1.76-.64,3.27-1.92,4.54-1.28,1.27-2.8,1.9-4.56,1.9s-3.26-.64-4.51-1.92c-1.25-1.28-1.85-2.8-1.82-4.56ZM146.25,14.33c0,.95.36,1.78,1.08,2.48.72.7,1.56,1.05,2.5,1.05s1.78-.36,2.5-1.08,1.06-1.56,1.03-2.5c0-.98-.36-1.83-1.08-2.53-.72-.7-1.57-1.05-2.56-1.05-.92,0-1.73.36-2.45,1.08s-1.06,1.57-1.03,2.56Z"/>
        <path class="cls-3" d="M160.33,33.05c3.06.63,6.19.7,9.39.21,7.84-1.97,15.73-3.3,23.68-4.01.98-.03,1.93-.39,2.85-1.05l.95-.79c.84-.67,1.71-.74,2.58-.21,2.11,1.48,4.01,3.27,5.7,5.38.21.25.3.54.26.87-.04.33-.18.62-.42.87l-1.32.84c-1.44,4.15-3.53,7.88-6.28,11.21s-6.03,6.09-9.86,8.31c-6.33,3.87-13.24,6.22-20.72,7.07,6.36-2.32,11.87-5.86,16.53-10.63,4.66-4.76,8.06-10.36,10.2-16.8-8.58.81-16.7,2.9-24.36,6.28-.92.53-1.81.49-2.69-.11-2.74-1.97-4.9-4.45-6.49-7.44ZM164.92,20.39c3.38.32,6.77.23,10.18-.26,5.48-.88,11.16-2.25,17.03-4.11.88-.18,1.63-.12,2.27.16,1.69.77,3.23,1.67,4.64,2.69.7.53.88,1.21.53,2.06-.28.77-.86,1.16-1.74,1.16-7.88.39-15.52,1.74-22.94,4.06-.77.14-1.58.05-2.43-.26-2.95-1.34-5.47-3.16-7.54-5.48Z"/>
        <path class="cls-3" d="M215.7,17.6c4.75-.7,9.28-.02,13.61,2.06,2.43,1.37,4.17,3.34,5.22,5.91.35,1.05.32,2.13-.08,3.22-.4,1.09-1.12,1.9-2.14,2.43-1.13.74-2.37.96-3.74.66-1.37-.3-2.43-.99-3.16-2.08l-2.43-4.64c-1.79-3.13-4.22-5.64-7.28-7.54ZM216.76,48.77l1,.05c1.62.42,3.22.47,4.8.16,15.19-6.5,28.35-15.87,39.5-28.11-7.59,15.36-18.84,27.35-33.75,35.96-.67.49-1.16,1.12-1.48,1.9-.25.46-.62.79-1.11,1-.53.11-1.02.05-1.48-.16-4.08-2.46-6.57-6.06-7.49-10.81Z"/>
      </g>
    </g>
  </g>
</svg>