<?xml version="1.0" encoding="UTF-8"?>
<svg id="_レイヤー_2" data-name="レイヤー 2" xmlns="http://www.w3.org/2000/svg" xmlns:xlink="http://www.w3.org/1999/xlink" viewBox="0 0 233.33 67.8">
  <defs>
    <style>
      .cls-1 {
        fill: #fff;
      }

      .cls-2 {
        fill: url(#_名称未設定グラデーション_120-4);
      }

      .cls-3 {
        fill: url(#_名称未設定グラデーション_120-2);
      }

      .cls-4 {
        fill: url(#_名称未設定グラデーション_120-3);
      }

      .cls-5 {
        fill: url(#_名称未設定グラデーション_120);
      }

      .cls-6 {
        fill: none;
        stroke: #000;
        stroke-width: 6px;
      }
    </style>
    <linearGradient id="_名称未設定グラデーション_120" data-name="名称未設定グラデーション 120" x1="33.63" y1="67.8" x2="33.63" y2="0" gradientUnits="userSpaceOnUse">
      <stop offset="0" stop-color="#945700"/>
      <stop offset=".19" stop-color="#e9a900"/>
      <stop offset=".29" stop-color="#f5f8b4"/>
      <stop offset=".4" stop-color="#e9a900"/>
      <stop offset="1" stop-color="#fff87f"/>
    </linearGradient>
    <linearGradient id="_名称未設定グラデーション_120-2" data-name="名称未設定グラデーション 120" x1="87.59" x2="87.59" xlink:href="#_名称未設定グラデーション_120"/>
    <linearGradient id="_名称未設定グラデーション_120-3" data-name="名称未設定グラデーション 120" x1="141.63" x2="141.63" xlink:href="#_名称未設定グラデーション_120"/>
    <linearGradient id="_名称未設定グラデーション_120-4" data-name="名称未設定グラデーション 120" x1="195.63" x2="195.63" xlink:href="#_名称未設定グラデーション_120"/>
  </defs>
  <g id="_レイヤー_1-2" data-name="レイヤー 1">
    <g>
      <g>
        <path class="cls-1" d="M16.96,8.47l8.65,2.9c.35.11.53.33.53.69,0,.39-.18.62-.53.69l-1.37.47c2.74.63,5.17,1.95,7.28,3.96.84.98,1.16,2.09.95,3.32-.28,1.13-.98,1.86-2.11,2.21-.98.35-1.9.28-2.74-.21l3.59,4.06c.28.32.32.69.11,1.11-.14.39-.42.63-.84.74h-6.75v5.06h1.58l1.37-2.58c.21-.28.46-.42.74-.42s.56.12.84.37l3.38,3.64c.28.28.35.63.21,1.05-.14.39-.42.62-.84.69h-4.22l5.48,4.11c.28.25.35.51.21.79,0,.32-.14.56-.42.74l-1.37.74c-1.55,2.08-3.3,3.97-5.27,5.7l6.75-.69-16.98,9.23-.74,1.48c0,.28-.14.44-.42.47-.21.11-.42.03-.63-.21l-4.85-8.23,8.54-1.05v-13.08h-6.22l-1.16-2.74h7.38v-5.06h-1.69c-2.25,2.08-4.71,3.85-7.38,5.33,4.92-7.66,7.91-16.08,8.96-25.26ZM8.84,36.85c3.59,1.09,6.05,3.34,7.38,6.75.28,1.13.32,2.23.11,3.32-.42.81-1.05,1.32-1.9,1.53-.91.25-1.72.12-2.43-.37-1.12-.77-1.51-1.86-1.16-3.27.49-2.92-.18-5.57-2-7.96ZM23.71,15.07c-1.34,3.83-3.27,7.31-5.8,10.44h6.75l1.58-3.16c.14-.21.35-.35.63-.42-.42-.63-.7-1.35-.84-2.16-.28-1.83-1.05-3.39-2.32-4.69ZM23.71,36.21v10.86c1.34-3.69,2.07-7.31,2.21-10.86h-2.21ZM33.21,9.9l7.8,2.95h6.22l1.48-2c.42-.49.84-.49,1.27,0l5.48,3.69c.21.21.32.5.32.87s-.14.66-.42.87l-1.37,1.21v16.88c-.14.63-.42,1.13-.84,1.48l2.85,4.85c.07.28,0,.53-.21.74-.28.18-.56.21-.84.11-.42-.21-.84-.23-1.27-.05-1.83.92-3.69,1.53-5.59,1.85,2.95,4.08,6.68,7.17,11.18,9.28-2.81,1.55-5.03,3.66-6.64,6.33-2.39-2.32-4.46-4.97-6.22-7.96l-12.13,6.75-.53.95c-.07.32-.28.51-.63.58-.28.11-.56.03-.84-.21l-5.8-7.49,6.75-.84V9.9ZM40.48,24.72v6.38h6.33v-6.38h-6.33ZM40.48,33.84v16.14l4.85-.69c-2.46-4.89-3.83-10.04-4.11-15.45h-.74ZM40.59,15.59v6.22h6.22v-6.22h-6.22ZM43.54,33.84c.56,2.25,1.44,4.41,2.64,6.49,1.27-1.37,2.29-2.65,3.06-3.85l-.95.11c-.42,0-.76-.12-1-.37-.25-.25-.4-.54-.47-.9v-1.48h-3.27Z"/>
        <path class="cls-1" d="M75.08,19.39l7.07,5.33c.21.14.32.39.32.74-.07.35-.21.6-.42.74l-1.27,1h22.15l2.85-4.59c.21-.32.46-.49.74-.53.28-.03.56.05.84.26l5.7,6.01c.21.28.28.63.21,1.05-.14.39-.39.62-.74.69h-11.6v22.2c-.28,2.08-1.27,3.81-2.95,5.22-1.69,1.41-3.59,2.07-5.7,2-.84,0-1.51-.37-2-1.11-1.83-3.3-4.64-5.43-8.44-6.38l9.81.42c.7-.25,1.09-.74,1.16-1.48v-20.88h-12.55l-1.05-.9-2.74,2.9,1.05.11c.35.04.6.21.74.53.21.39.21.72,0,1l-1.27,1.69v21.36c-.49,1.23-1.34,2-2.53,2.32-1.41.42-2.81.25-4.22-.53-.63-.6-.95-1.32-.95-2.16v-18.51c-2.39,1.58-4.85,2.9-7.38,3.96,5.84-6.61,10.23-14.1,13.18-22.46ZM74.97,8.16l6.75,5.33c.42.32.53.74.32,1.27-.28.53-.67.76-1.16.69l-1.58-.26c-4.92,3.83-10.37,7-16.35,9.49,4.71-5.24,8.72-10.74,12.02-16.51ZM82.67,13.48h16.77l3.48-4.38c.14-.25.42-.4.84-.47.42,0,.74.11.95.32l4.64,4.9c.35.49.42.99.21,1.5-.21.51-.6.82-1.16.92h-24.57l-1.16-2.79Z"/>
        <path class="cls-1" d="M116.42,20.97h7.17v-12.97l7.49,2c.42.11.74.39.95.84.07.42-.07.79-.42,1.11l-1.05,1v8.02l2.11-3.11c.21-.28.46-.42.74-.42.35,0,.63.12.84.37l2.32,2.43v-9.97l7.49,2.37h12.02l2.74-3.85c.14-.28.39-.42.74-.42s.63.14.84.42l4.64,5.38c.28.25.39.53.32.84-.14.35-.39.55-.74.58h-21.09v5.91h12.87l1.69-2.64c.21-.25.46-.37.74-.37s.49.11.63.32l4.43,4.17c.28.21.35.51.21.9-.07.39-.32.62-.74.69h-18.77l-1.05-1.69v8.54h13.82l2-3.01c.21-.28.53-.46.95-.53.35-.07.67.04.95.32l4.64,4.38c.21.25.28.56.21.95-.14.39-.39.58-.74.58h-4.11l4.32,4.48c.21.32.25.65.11,1-.14.35-.42.53-.84.53-.7-.25-1.41-.19-2.11.16l-5.59,2.95c2.53,4.32,6.12,7.56,10.76,9.7-3.02.88-5.56,2.48-7.59,4.8-1.55-1.69-2.85-3.53-3.9-5.54l-10.76,5.38c-.7.32-1.13.83-1.27,1.53-.07.39-.35.61-.84.69-.35.07-.67-.09-.95-.47l-4.96-7.59,6.43-.58v-17.03h-.53c-1.2,9.56-5.59,17.32-13.18,23.26,4.5-8.72,6.57-17.95,6.22-27.69l-6.01,4.43v20.2c-.21,1.48-.84,2.76-1.9,3.85-1.2.98-2.6,1.53-4.22,1.63-1.05,0-1.83-.49-2.32-1.48-.92-2.53-2.64-4.27-5.17-5.22h5.17c.35.04.67-.07.95-.32.28-.25.46-.56.53-.95v-12.6l-1.9,1.32-.42,1.16c-.14.32-.42.51-.84.58-.42,0-.7-.16-.84-.47l-4.22-6.86,8.23-2.74v-8.7h-5.8l-1.37-2.53ZM130.55,23.5v6.49l6.01-2v-4.48h-6.01ZM150.7,34.1v16.51l4.64-.47c-2.46-5.17-3.52-10.51-3.16-16.03h-1.48ZM153.97,34.1c.28,2.39.95,4.69,2,6.91,1.55-1.97,2.53-4.27,2.95-6.91h-4.96Z"/>
        <path class="cls-1" d="M169.79,31.47h8.23l1.27-2c.21-.28.51-.46.9-.53.39-.07.72,0,1,.21l5.8,3.16c.28.21.42.51.42.9s-.14.69-.42.9l-2,1.58v11.29c.07.07.19.21.37.42.18.21.33.35.47.42,5.7-5.62,8.82-12.45,9.39-20.46v-6.86l5.59,1.58c-.07-2.46.03-4.99.32-7.59h-9.39l-1.58-2.64h11.29l2.43-2.85c.28-.28.6-.42.95-.42.42,0,.74.14.95.42l4.75,3.8c.21.21.32.49.32.84-.07.35-.21.6-.42.74l-4.22,1.58c-1.27.42-1.93,1.3-2,2.64.35,5.62,2.04,10.74,5.06,15.35,3.02,4.61,7,8.21,11.92,10.81-3.24,1.05-5.87,2.95-7.91,5.7-5.7-5.77-9.42-12.62-11.18-20.57-.7,4.36-2.41,8.23-5.12,11.6-2.71,3.38-6.14,5.84-10.28,7.38,2.04,1.9,4.5,2.95,7.38,3.16l28.37-.74c-2.81,1.76-4.71,4.22-5.7,7.38l-20.04.53c-5.48-.77-9.81-3.45-12.97-8.02l-7.07,5.8v1.48c-.14.42-.42.67-.84.74-.49.07-.88-.07-1.16-.42l-5.8-7.91c3.09-.14,6.05-.81,8.86-2v-14.87h-6.43l-1.48-2.53ZM172.32,11.22c2.32-.14,4.57.21,6.75,1.05,2.18.84,4.04,2.18,5.59,4.01,1.27,1.69,1.41,3.45.42,5.27-.42.84-1.09,1.42-2,1.74-.92.32-1.85.33-2.79.05-.95-.28-1.74-.81-2.37-1.58-.63-.77-.95-1.69-.95-2.74-.56-3.23-2.11-5.83-4.64-7.8Z"/>
      </g>
      <g>
        <path class="cls-5" d="M32.85,67.31c-2.12,0-4.2-.79-5.85-2.23-.39-.34-.75-.72-1.07-1.13l-2.1-2.71-2.54,1.38c-1.11,1.91-2.95,3.33-5.2,3.9-.74.21-1.51.31-2.27.31-2.47,0-4.85-1.11-6.51-3.04-.31-.36-.59-.75-.83-1.15l-4.85-8.23c-1.37-2.32-1.48-5.18-.29-7.6.37-.75.85-1.43,1.42-2.02.04-.49.11-.98.22-1.48.07-.56,0-.97-.5-1.61-.99-1.29-1.53-2.81-1.63-4.36-1.25-2.48-1.15-5.5.41-7.93,4.23-6.59,6.84-13.94,7.75-21.85.28-2.4,1.62-4.54,3.66-5.84,1.3-.83,2.79-1.25,4.29-1.25.85,0,1.71.14,2.54.42l8.56,2.87c.19-.16.38-.31.59-.45,1.35-.94,2.94-1.42,4.55-1.42.95,0,1.91.17,2.83.52l6.44,2.44h.92c1.65-1.54,3.73-2.37,5.95-2.37h0c2.08,0,4.04.73,5.64,2.09l4.95,3.33c.43.29.83.62,1.19.98,1.71,1.72,2.66,4.03,2.66,6.53,0,2.01-.64,3.9-1.79,5.44v13.51c0,.23,0,.46-.03.69l.93,1.59c.39.66.68,1.37.86,2.12.58,2.31.2,4.68-1,6.65,2.67,1.3,4.41,3.97,4.5,6.94.1,3.01-1.5,5.82-4.14,7.27-1.58.87-2.77,2-3.66,3.46-1.26,2.08-3.41,3.48-5.82,3.79-.34.04-.68.07-1.02.07-2.07,0-4.07-.8-5.57-2.26-1.05-1.02-2.06-2.1-3.01-3.23l-3.91,2.17c-1.16,1.62-2.86,2.81-4.88,3.34-.78.22-1.58.34-2.4.34Z"/>
        <path class="cls-3" d="M92.11,67.52c-3.46-.05-6.56-1.75-8.5-4.67-.12-.18-.24-.37-.34-.56-.03-.06-.07-.12-.1-.18-1.55,2.3-3.8,3.93-6.54,4.69-1.2.35-2.43.52-3.66.52-2.27,0-4.48-.58-6.58-1.74-.6-.33-1.15-.73-1.65-1.2-2.23-2.11-3.45-4.94-3.45-7.97v-6.58c-2.3-.18-4.48-1.35-5.89-3.32-2.17-3.03-1.96-7.16.51-9.95,1.31-1.49,2.55-3.03,3.7-4.63-1.24-.57-2.34-1.46-3.17-2.64-2.17-3.05-1.93-7.2.58-9.98,4.31-4.8,8.02-9.89,11.03-15.13,1.16-2.02,3.14-3.43,5.42-3.88.5-.1,1.01-.15,1.52-.15,1.78,0,3.53.6,4.96,1.72l4.57,3.61h11.08l.89-1.12c1.38-1.92,3.46-3.2,5.96-3.62.44-.07.89-.11,1.33-.11,2.54,0,4.89.94,6.61,2.66.05.05.1.1.15.16l4.64,4.9c.25.27.49.55.7.85,1.94,2.72,2.35,6.17,1.09,9.21-.23.55-.5,1.07-.82,1.56l2.72,2.87c.21.23.41.46.6.71,1.52,2.04,2.12,4.58,1.69,7.16-.08.48-.2.95-.37,1.41-1.09,3.01-3.59,5.18-6.69,5.8-.52.1-1.04.16-1.57.16h-3.6v14.2c0,.36-.02.72-.07,1.07-.55,4.05-2.54,7.61-5.76,10.29-3.04,2.53-6.67,3.86-10.52,3.86-.15,0-.3,0-.46,0Z"/>
        <path class="cls-4" d="M143.37,67.8c-2.86,0-5.51-1.38-7.26-3.79-.08-.11-.16-.22-.23-.33l-.22-.33c-.13.1-.26.21-.39.31-.71.55-1.48.97-2.29,1.25-2.33,1.68-5.08,2.66-8.02,2.85-.17.01-.35.02-.52.02-4.08,0-7.63-2.2-9.47-5.9-.14-.28-.26-.57-.37-.86-.08-.22-.14-.29-.14-.3h0s-.08-.07-.31-.15c-3.62-1.36-5.75-5.11-5.06-8.92.43-2.36,1.86-4.31,3.81-5.46-.09-.14-.18-.29-.26-.44l-4.07-6.62c-1.28-2.08-1.54-4.63-.71-6.93.63-1.74,1.84-3.18,3.39-4.12-.17-.25-.33-.51-.48-.78l-1.37-2.53c-1.34-2.48-1.28-5.48.16-7.9,1.3-2.18,3.55-3.6,6.04-3.86v-5.02c0-2.49,1.16-4.83,3.13-6.35,1.41-1.08,3.13-1.65,4.87-1.65.69,0,1.39.09,2.07.27l7.45,1.99c.37.1.74.22,1.09.36.76-.24,1.56-.36,2.36-.36s1.62.12,2.42.37l6.31,2h6.66l.17-.24c1.6-2.51,4.37-4.03,7.43-4.03,2.75,0,5.27,1.2,7,3.31l4.33,5.02c2.08,2.16,2.93,5.11,2.28,8.05-.09.42-.22.83-.38,1.24-.33.81-.76,1.56-1.28,2.23.73,1.78.87,3.8.31,5.75-.08.32-.18.63-.3.93.15.15.3.31.44.47,1.78,2.07,2.51,4.84,2.01,7.59-.08.44-.2.88-.35,1.3-.06.16-.12.33-.19.48.54,1.89.44,3.91-.32,5.81-.47,1.17-1.16,2.2-2.03,3.04.05.03.11.05.16.08,3.03,1.4,4.87,4.53,4.62,7.86-.25,3.33-2.54,6.15-5.75,7.08-1.57.46-2.78,1.22-3.82,2.4-1.5,1.71-3.65,2.7-5.92,2.72-.03,0-.06,0-.09,0-2.24,0-4.38-.94-5.9-2.59-.21-.23-.42-.46-.62-.69l-2.9,1.45c-1.34,1.98-3.48,3.37-6.03,3.78-.49.08-.99.13-1.48.13Z"/>
        <path class="cls-2" d="M175.56,67.22c-2.8,0-5.41-1.25-7.16-3.43-.07-.09-.14-.18-.21-.27l-5.8-7.91c-1.74-2.38-2.04-5.52-.76-8.19s3.91-4.4,6.85-4.54c.41-.02.82-.05,1.22-.1v-.94c-2.22-.44-4.18-1.82-5.34-3.81l-1.48-2.53c-1.44-2.47-1.45-5.53-.03-8.02,1.42-2.48,4.06-4.01,6.91-4.02-.42-1.1-.68-2.27-.77-3.48-.25-1.06-.73-1.79-1.59-2.46-2.63-2.04-3.71-5.5-2.73-8.68.99-3.18,3.84-5.42,7.16-5.62.49-.03.98-.04,1.47-.04,2.96,0,5.87.55,8.65,1.62.92.36,1.82.77,2.67,1.25,1.47-1.4,3.43-2.21,5.52-2.21h7.59l.03-.04c.14-.16.28-.32.43-.47,1.78-1.78,4.13-2.77,6.61-2.77s4.67.9,6.35,2.5l4.34,3.47c.23.18.45.38.66.59,1.72,1.71,2.66,4.02,2.66,6.5,0,.53-.05,1.07-.16,1.59-.49,2.44-1.86,4.5-3.85,5.82-.5.33-1.04.61-1.61.82l-.49.18c.61,2.68,1.67,5.16,3.21,7.5,2.29,3.49,5.23,6.15,8.97,8.13,2.84,1.5,4.51,4.56,4.23,7.76-.04.41-.1.81-.2,1.2.5.7.89,1.49,1.15,2.35,1.04,3.45-.36,7.18-3.42,9.09-1.19.75-1.88,1.64-2.3,2.97-1.02,3.27-4,5.53-7.43,5.62,0,0-20.18.53-20.25.53-.37,0-.75-.03-1.12-.08-4.46-.63-8.48-2.23-11.94-4.71-1.31,2.49-3.65,4.2-6.5,4.68-.07.01-.14.02-.2.03-.45.06-.91.1-1.37.1Z"/>
      </g>
      <g>
        <path class="cls-6" d="M16.96,8.47l8.65,2.9c.35.11.53.33.53.69,0,.39-.18.62-.53.69l-1.37.47c2.74.63,5.17,1.95,7.28,3.96.84.98,1.16,2.09.95,3.32-.28,1.13-.98,1.86-2.11,2.21-.98.35-1.9.28-2.74-.21l3.59,4.06c.28.32.32.69.11,1.11-.14.39-.42.63-.84.74h-6.75v5.06h1.58l1.37-2.58c.21-.28.46-.42.74-.42s.56.12.84.37l3.38,3.64c.28.28.35.63.21,1.05-.14.39-.42.62-.84.69h-4.22l5.48,4.11c.28.25.35.51.21.79,0,.32-.14.56-.42.74l-1.37.74c-1.55,2.08-3.3,3.97-5.27,5.7l6.75-.69-16.98,9.23-.74,1.48c0,.28-.14.44-.42.47-.21.11-.42.03-.63-.21l-4.85-8.23,8.54-1.05v-13.08h-6.22l-1.16-2.74h7.38v-5.06h-1.69c-2.25,2.08-4.71,3.85-7.38,5.33,4.92-7.66,7.91-16.08,8.96-25.26ZM8.84,36.85c3.59,1.09,6.05,3.34,7.38,6.75.28,1.13.32,2.23.11,3.32-.42.81-1.05,1.32-1.9,1.53-.91.25-1.72.12-2.43-.37-1.12-.77-1.51-1.86-1.16-3.27.49-2.92-.18-5.57-2-7.96ZM23.71,15.07c-1.34,3.83-3.27,7.31-5.8,10.44h6.75l1.58-3.16c.14-.21.35-.35.63-.42-.42-.63-.7-1.35-.84-2.16-.28-1.83-1.05-3.39-2.32-4.69ZM23.71,36.21v10.86c1.34-3.69,2.07-7.31,2.21-10.86h-2.21ZM33.21,9.9l7.8,2.95h6.22l1.48-2c.42-.49.84-.49,1.27,0l5.48,3.69c.21.21.32.5.32.87s-.14.66-.42.87l-1.37,1.21v16.88c-.14.63-.42,1.13-.84,1.48l2.85,4.85c.07.28,0,.53-.21.74-.28.18-.56.21-.84.11-.42-.21-.84-.23-1.27-.05-1.83.92-3.69,1.53-5.59,1.85,2.95,4.08,6.68,7.17,11.18,9.28-2.81,1.55-5.03,3.66-6.64,6.33-2.39-2.32-4.46-4.97-6.22-7.96l-12.13,6.75-.53.95c-.07.32-.28.51-.63.58-.28.11-.56.03-.84-.21l-5.8-7.49,6.75-.84V9.9ZM40.48,24.72v6.38h6.33v-6.38h-6.33ZM40.48,33.84v16.14l4.85-.69c-2.46-4.89-3.83-10.04-4.11-15.45h-.74ZM40.59,15.59v6.22h6.22v-6.22h-6.22ZM43.54,33.84c.56,2.25,1.44,4.41,2.64,6.49,1.27-1.37,2.29-2.65,3.06-3.85l-.95.11c-.42,0-.76-.12-1-.37-.25-.25-.4-.54-.47-.9v-1.48h-3.27Z"/>
        <path class="cls-6" d="M75.08,19.39l7.07,5.33c.21.14.32.39.32.74-.07.35-.21.6-.42.74l-1.27,1h22.15l2.85-4.59c.21-.32.46-.49.74-.53.28-.03.56.05.84.26l5.7,6.01c.21.28.28.63.21,1.05-.14.39-.39.62-.74.69h-11.6v22.2c-.28,2.08-1.27,3.81-2.95,5.22-1.69,1.41-3.59,2.07-5.7,2-.84,0-1.51-.37-2-1.11-1.83-3.3-4.64-5.43-8.44-6.38l9.81.42c.7-.25,1.09-.74,1.16-1.48v-20.88h-12.55l-1.05-.9-2.74,2.9,1.05.11c.35.04.6.21.74.53.21.39.21.72,0,1l-1.27,1.69v21.36c-.49,1.23-1.34,2-2.53,2.32-1.41.42-2.81.25-4.22-.53-.63-.6-.95-1.32-.95-2.16v-18.51c-2.39,1.58-4.85,2.9-7.38,3.96,5.84-6.61,10.23-14.1,13.18-22.46ZM74.97,8.16l6.75,5.33c.42.32.53.74.32,1.27-.28.53-.67.76-1.16.69l-1.58-.26c-4.92,3.83-10.37,7-16.35,9.49,4.71-5.24,8.72-10.74,12.02-16.51ZM82.67,13.48h16.77l3.48-4.38c.14-.25.42-.4.84-.47.42,0,.74.11.95.32l4.64,4.9c.35.49.42.99.21,1.5-.21.51-.6.82-1.16.92h-24.57l-1.16-2.79Z"/>
        <path class="cls-6" d="M116.42,20.97h7.17v-12.97l7.49,2c.42.11.74.39.95.84.07.42-.07.79-.42,1.11l-1.05,1v8.02l2.11-3.11c.21-.28.46-.42.74-.42.35,0,.63.12.84.37l2.32,2.43v-9.97l7.49,2.37h12.02l2.74-3.85c.14-.28.39-.42.74-.42s.63.14.84.42l4.64,5.38c.28.25.39.53.32.84-.14.35-.39.55-.74.58h-21.09v5.91h12.87l1.69-2.64c.21-.25.46-.37.74-.37s.49.11.63.32l4.43,4.17c.28.21.35.51.21.9-.07.39-.32.62-.74.69h-18.77l-1.05-1.69v8.54h13.82l2-3.01c.21-.28.53-.46.95-.53.35-.07.67.04.95.32l4.64,4.38c.21.25.28.56.21.95-.14.39-.39.58-.74.58h-4.11l4.32,4.48c.21.32.25.65.11,1-.14.35-.42.53-.84.53-.7-.25-1.41-.19-2.11.16l-5.59,2.95c2.53,4.32,6.12,7.56,10.76,9.7-3.02.88-5.56,2.48-7.59,4.8-1.55-1.69-2.85-3.53-3.9-5.54l-10.76,5.38c-.7.32-1.13.83-1.27,1.53-.07.39-.35.61-.84.69-.35.07-.67-.09-.95-.47l-4.96-7.59,6.43-.58v-17.03h-.53c-1.2,9.56-5.59,17.32-13.18,23.26,4.5-8.72,6.57-17.95,6.22-27.69l-6.01,4.43v20.2c-.21,1.48-.84,2.76-1.9,3.85-1.2.98-2.6,1.53-4.22,1.63-1.05,0-1.83-.49-2.32-1.48-.92-2.53-2.64-4.27-5.17-5.22h5.17c.35.04.67-.07.95-.32.28-.25.46-.56.53-.95v-12.6l-1.9,1.32-.42,1.16c-.14.32-.42.51-.84.58-.42,0-.7-.16-.84-.47l-4.22-6.86,8.23-2.74v-8.7h-5.8l-1.37-2.53ZM130.55,23.5v6.49l6.01-2v-4.48h-6.01ZM150.7,34.1v16.51l4.64-.47c-2.46-5.17-3.52-10.51-3.16-16.03h-1.48ZM153.97,34.1c.28,2.39.95,4.69,2,6.91,1.55-1.97,2.53-4.27,2.95-6.91h-4.96Z"/>
        <path class="cls-6" d="M169.79,31.47h8.23l1.27-2c.21-.28.51-.46.9-.53.39-.07.72,0,1,.21l5.8,3.16c.28.21.42.51.42.9s-.14.69-.42.9l-2,1.58v11.29c.07.07.19.21.37.42.18.21.33.35.47.42,5.7-5.62,8.82-12.45,9.39-20.46v-6.86l5.59,1.58c-.07-2.46.03-4.99.32-7.59h-9.39l-1.58-2.64h11.29l2.43-2.85c.28-.28.6-.42.95-.42.42,0,.74.14.95.42l4.75,3.8c.21.21.32.49.32.84-.07.35-.21.6-.42.74l-4.22,1.58c-1.27.42-1.93,1.3-2,2.64.35,5.62,2.04,10.74,5.06,15.35,3.02,4.61,7,8.21,11.92,10.81-3.24,1.05-5.87,2.95-7.91,5.7-5.7-5.77-9.42-12.62-11.18-20.57-.7,4.36-2.41,8.23-5.12,11.6-2.71,3.38-6.14,5.84-10.28,7.38,2.04,1.9,4.5,2.95,7.38,3.16l28.37-.74c-2.81,1.76-4.71,4.22-5.7,7.38l-20.04.53c-5.48-.77-9.81-3.45-12.97-8.02l-7.07,5.8v1.48c-.14.42-.42.67-.84.74-.49.07-.88-.07-1.16-.42l-5.8-7.91c3.09-.14,6.05-.81,8.86-2v-14.87h-6.43l-1.48-2.53ZM172.32,11.22c2.32-.14,4.57.21,6.75,1.05,2.18.84,4.04,2.18,5.59,4.01,1.27,1.69,1.41,3.45.42,5.27-.42.84-1.09,1.42-2,1.74-.92.32-1.85.33-2.79.05-.95-.28-1.74-.81-2.37-1.58-.63-.77-.95-1.69-.95-2.74-.56-3.23-2.11-5.83-4.64-7.8Z"/>
      </g>
      <g>
        <path class="cls-1" d="M16.96,8.47l8.65,2.9c.35.11.53.33.53.69,0,.39-.18.62-.53.69l-1.37.47c2.74.63,5.17,1.95,7.28,3.96.84.98,1.16,2.09.95,3.32-.28,1.13-.98,1.86-2.11,2.21-.98.35-1.9.28-2.74-.21l3.59,4.06c.28.32.32.69.11,1.11-.14.39-.42.63-.84.74h-6.75v5.06h1.58l1.37-2.58c.21-.28.46-.42.74-.42s.56.12.84.37l3.38,3.64c.28.28.35.63.21,1.05-.14.39-.42.62-.84.69h-4.22l5.48,4.11c.28.25.35.51.21.79,0,.32-.14.56-.42.74l-1.37.74c-1.55,2.08-3.3,3.97-5.27,5.7l6.75-.69-16.98,9.23-.74,1.48c0,.28-.14.44-.42.47-.21.11-.42.03-.63-.21l-4.85-8.23,8.54-1.05v-13.08h-6.22l-1.16-2.74h7.38v-5.06h-1.69c-2.25,2.08-4.71,3.85-7.38,5.33,4.92-7.66,7.91-16.08,8.96-25.26ZM8.84,36.85c3.59,1.09,6.05,3.34,7.38,6.75.28,1.13.32,2.23.11,3.32-.42.81-1.05,1.32-1.9,1.53-.91.25-1.72.12-2.43-.37-1.12-.77-1.51-1.86-1.16-3.27.49-2.92-.18-5.57-2-7.96ZM23.71,15.07c-1.34,3.83-3.27,7.31-5.8,10.44h6.75l1.58-3.16c.14-.21.35-.35.63-.42-.42-.63-.7-1.35-.84-2.16-.28-1.83-1.05-3.39-2.32-4.69ZM23.71,36.21v10.86c1.34-3.69,2.07-7.31,2.21-10.86h-2.21ZM33.21,9.9l7.8,2.95h6.22l1.48-2c.42-.49.84-.49,1.27,0l5.48,3.69c.21.21.32.5.32.87s-.14.66-.42.87l-1.37,1.21v16.88c-.14.63-.42,1.13-.84,1.48l2.85,4.85c.07.28,0,.53-.21.74-.28.18-.56.21-.84.11-.42-.21-.84-.23-1.27-.05-1.83.92-3.69,1.53-5.59,1.85,2.95,4.08,6.68,7.17,11.18,9.28-2.81,1.55-5.03,3.66-6.64,6.33-2.39-2.32-4.46-4.97-6.22-7.96l-12.13,6.75-.53.95c-.07.32-.28.51-.63.58-.28.11-.56.03-.84-.21l-5.8-7.49,6.75-.84V9.9ZM40.48,24.72v6.38h6.33v-6.38h-6.33ZM40.48,33.84v16.14l4.85-.69c-2.46-4.89-3.83-10.04-4.11-15.45h-.74ZM40.59,15.59v6.22h6.22v-6.22h-6.22ZM43.54,33.84c.56,2.25,1.44,4.41,2.64,6.49,1.27-1.37,2.29-2.65,3.06-3.85l-.95.11c-.42,0-.76-.12-1-.37-.25-.25-.4-.54-.47-.9v-1.48h-3.27Z"/>
        <path class="cls-1" d="M75.08,19.39l7.07,5.33c.21.14.32.39.32.74-.07.35-.21.6-.42.74l-1.27,1h22.15l2.85-4.59c.21-.32.46-.49.74-.53.28-.03.56.05.84.26l5.7,6.01c.21.28.28.63.21,1.05-.14.39-.39.62-.74.69h-11.6v22.2c-.28,2.08-1.27,3.81-2.95,5.22-1.69,1.41-3.59,2.07-5.7,2-.84,0-1.51-.37-2-1.11-1.83-3.3-4.64-5.43-8.44-6.38l9.81.42c.7-.25,1.09-.74,1.16-1.48v-20.88h-12.55l-1.05-.9-2.74,2.9,1.05.11c.35.04.6.21.74.53.21.39.21.72,0,1l-1.27,1.69v21.36c-.49,1.23-1.34,2-2.53,2.32-1.41.42-2.81.25-4.22-.53-.63-.6-.95-1.32-.95-2.16v-18.51c-2.39,1.58-4.85,2.9-7.38,3.96,5.84-6.61,10.23-14.1,13.18-22.46ZM74.97,8.16l6.75,5.33c.42.32.53.74.32,1.27-.28.53-.67.76-1.16.69l-1.58-.26c-4.92,3.83-10.37,7-16.35,9.49,4.71-5.24,8.72-10.74,12.02-16.51ZM82.67,13.48h16.77l3.48-4.38c.14-.25.42-.4.84-.47.42,0,.74.11.95.32l4.64,4.9c.35.49.42.99.21,1.5-.21.51-.6.82-1.16.92h-24.57l-1.16-2.79Z"/>
        <path class="cls-1" d="M116.42,20.97h7.17v-12.97l7.49,2c.42.11.74.39.95.84.07.42-.07.79-.42,1.11l-1.05,1v8.02l2.11-3.11c.21-.28.46-.42.74-.42.35,0,.63.12.84.37l2.32,2.43v-9.97l7.49,2.37h12.02l2.74-3.85c.14-.28.39-.42.74-.42s.63.14.84.42l4.64,5.38c.28.25.39.53.32.84-.14.35-.39.55-.74.58h-21.09v5.91h12.87l1.69-2.64c.21-.25.46-.37.74-.37s.49.11.63.32l4.43,4.17c.28.21.35.51.21.9-.07.39-.32.62-.74.69h-18.77l-1.05-1.69v8.54h13.82l2-3.01c.21-.28.53-.46.95-.53.35-.07.67.04.95.32l4.64,4.38c.21.25.28.56.21.95-.14.39-.39.58-.74.58h-4.11l4.32,4.48c.21.32.25.65.11,1-.14.35-.42.53-.84.53-.7-.25-1.41-.19-2.11.16l-5.59,2.95c2.53,4.32,6.12,7.56,10.76,9.7-3.02.88-5.56,2.48-7.59,4.8-1.55-1.69-2.85-3.53-3.9-5.54l-10.76,5.38c-.7.32-1.13.83-1.27,1.53-.07.39-.35.61-.84.69-.35.07-.67-.09-.95-.47l-4.96-7.59,6.43-.58v-17.03h-.53c-1.2,9.56-5.59,17.32-13.18,23.26,4.5-8.72,6.57-17.95,6.22-27.69l-6.01,4.43v20.2c-.21,1.48-.84,2.76-1.9,3.85-1.2.98-2.6,1.53-4.22,1.63-1.05,0-1.83-.49-2.32-1.48-.92-2.53-2.64-4.27-5.17-5.22h5.17c.35.04.67-.07.95-.32.28-.25.46-.56.53-.95v-12.6l-1.9,1.32-.42,1.16c-.14.32-.42.51-.84.58-.42,0-.7-.16-.84-.47l-4.22-6.86,8.23-2.74v-8.7h-5.8l-1.37-2.53ZM130.55,23.5v6.49l6.01-2v-4.48h-6.01ZM150.7,34.1v16.51l4.64-.47c-2.46-5.17-3.52-10.51-3.16-16.03h-1.48ZM153.97,34.1c.28,2.39.95,4.69,2,6.91,1.55-1.97,2.53-4.27,2.95-6.91h-4.96Z"/>
        <path class="cls-1" d="M169.79,31.47h8.23l1.27-2c.21-.28.51-.46.9-.53.39-.07.72,0,1,.21l5.8,3.16c.28.21.42.51.42.9s-.14.69-.42.9l-2,1.58v11.29c.07.07.19.21.37.42.18.21.33.35.47.42,5.7-5.62,8.82-12.45,9.39-20.46v-6.86l5.59,1.58c-.07-2.46.03-4.99.32-7.59h-9.39l-1.58-2.64h11.29l2.43-2.85c.28-.28.6-.42.95-.42.42,0,.74.14.95.42l4.75,3.8c.21.21.32.49.32.84-.07.35-.21.6-.42.74l-4.22,1.58c-1.27.42-1.93,1.3-2,2.64.35,5.62,2.04,10.74,5.06,15.35,3.02,4.61,7,8.21,11.92,10.81-3.24,1.05-5.87,2.95-7.91,5.7-5.7-5.77-9.42-12.62-11.18-20.57-.7,4.36-2.41,8.23-5.12,11.6-2.71,3.38-6.14,5.84-10.28,7.38,2.04,1.9,4.5,2.95,7.38,3.16l28.37-.74c-2.81,1.76-4.71,4.22-5.7,7.38l-20.04.53c-5.48-.77-9.81-3.45-12.97-8.02l-7.07,5.8v1.48c-.14.42-.42.67-.84.74-.49.07-.88-.07-1.16-.42l-5.8-7.91c3.09-.14,6.05-.81,8.86-2v-14.87h-6.43l-1.48-2.53ZM172.32,11.22c2.32-.14,4.57.21,6.75,1.05,2.18.84,4.04,2.18,5.59,4.01,1.27,1.69,1.41,3.45.42,5.27-.42.84-1.09,1.42-2,1.74-.92.32-1.85.33-2.79.05-.95-.28-1.74-.81-2.37-1.58-.63-.77-.95-1.69-.95-2.74-.56-3.23-2.11-5.83-4.64-7.8Z"/>
      </g>
    </g>
  </g>
</svg>