<?xml version="1.0" encoding="UTF-8"?>
<svg id="_レイヤー_2" data-name="レイヤー 2" xmlns="http://www.w3.org/2000/svg" xmlns:xlink="http://www.w3.org/1999/xlink" viewBox="0 0 442.83 70">
  <defs>
    <style>
      .cls-1 {
        fill: url(#_名称未設定グラデーション_120-5);
      }

      .cls-2 {
        fill: url(#_名称未設定グラデーション_120-6);
      }

      .cls-3 {
        fill: #fff;
      }

      .cls-4 {
        fill: url(#_名称未設定グラデーション_120-4);
      }

      .cls-5 {
        fill: url(#_名称未設定グラデーション_120-2);
      }

      .cls-6 {
        fill: url(#_名称未設定グラデーション_120-3);
      }

      .cls-7 {
        fill: url(#_名称未設定グラデーション_120);
      }

      .cls-8 {
        fill: none;
        stroke: #000;
        stroke-width: 6px;
      }

      .cls-9 {
        fill: url(#_名称未設定グラデーション_120-7);
      }

      .cls-10 {
        fill: url(#_名称未設定グラデーション_120-8);
      }
    </style>
    <linearGradient id="_名称未設定グラデーション_120" data-name="名称未設定グラデーション 120" x1="31.89" y1="70" x2="31.89" y2="0" gradientUnits="userSpaceOnUse">
      <stop offset="0" stop-color="#945700"/>
      <stop offset=".19" stop-color="#e9a900"/>
      <stop offset=".29" stop-color="#f5f8b4"/>
      <stop offset=".4" stop-color="#e9a900"/>
      <stop offset="1" stop-color="#fff87f"/>
    </linearGradient>
    <linearGradient id="_名称未設定グラデーション_120-2" data-name="名称未設定グラデーション 120" x1="85.78" x2="85.78" xlink:href="#_名称未設定グラデーション_120"/>
    <linearGradient id="_名称未設定グラデーション_120-3" data-name="名称未設定グラデーション 120" x1="139.71" x2="139.71" xlink:href="#_名称未設定グラデーション_120"/>
    <linearGradient id="_名称未設定グラデーション_120-4" data-name="名称未設定グラデーション 120" x1="195.66" x2="195.66" xlink:href="#_名称未設定グラデーション_120"/>
    <linearGradient id="_名称未設定グラデーション_120-5" data-name="名称未設定グラデーション 120" x1="248.91" x2="248.91" xlink:href="#_名称未設定グラデーション_120"/>
    <linearGradient id="_名称未設定グラデーション_120-6" data-name="名称未設定グラデーション 120" x1="302.68" x2="302.68" xlink:href="#_名称未設定グラデーション_120"/>
    <linearGradient id="_名称未設定グラデーション_120-7" data-name="名称未設定グラデーション 120" x1="355.81" x2="355.81" xlink:href="#_名称未設定グラデーション_120"/>
    <linearGradient id="_名称未設定グラデーション_120-8" data-name="名称未設定グラデーション 120" x1="411.66" x2="411.66" xlink:href="#_名称未設定グラデーション_120"/>
  </defs>
  <g id="_レイヤー_1-2" data-name="レイヤー 1">
    <g>
      <g>
        <path class="cls-3" d="M12.43,21.71c3.09.14,6.36.02,9.81-.37,6.79-1.19,13.46-3.08,20.04-5.64.77-.28,1.56-.37,2.37-.26,2.6.74,4.48,2.3,5.64,4.69.14.63.02,1.23-.37,1.79-.46.53-1.02.76-1.69.69-4.85.39-9.46,1.14-13.82,2.27l1,.74c.28.25.46.53.53.84.04.32-.05.67-.26,1.05-1.05,1.62-1.42,3.38-1.11,5.27,3.87-.74,8.33-1.42,13.39-2.06,1.23-.11,2.43.09,3.59.58,2.5,1.34,3.9,3.46,4.22,6.38,0,.74-.28,1.28-.84,1.63-.56.39-1.14.47-1.74.26l-5.48-1.48c-4.68-.39-9.21.11-13.61,1.48-.28,3.83-.26,7.54.05,11.13.11.77.47,1.42,1.11,1.95s1.34.76,2.11.69c3.8-.21,7.31-.91,10.55-2.11.56-.11,1.02-.03,1.37.21,1.86,1.27,3.22,2.94,4.06,5.01.14.53.08,1.04-.18,1.53s-.64.84-1.13,1.05c-6.33,2.71-12.6,2.6-18.83-.32-2.36-1.02-4.22-2.6-5.59-4.75-1.37-2.14-2.06-4.5-2.06-7.07l.05-4.54-3.69,1.11c-1.09.53-1.99,1.05-2.69,1.58-.98.74-2.06.86-3.22.37-3.66-1.69-6.33-4.36-8.02-8.02,2.21.67,4.5.84,6.86.53l10.44-2.58-.16-8.81-2.32.42c-1.27.25-2.48.09-3.64-.47-2.46-1.51-4.71-3.11-6.75-4.8Z"/>
        <path class="cls-3" d="M60.26,33c5.13.77,10.3.95,15.5.53l11.71-.63,12.23-.32,2.32-.53c.7-.28,1.48-.21,2.32.21,2.25,1.41,4.36,2.85,6.33,4.32.42.42.63.93.63,1.53s-.21,1.11-.63,1.53c-.84.77-1.83,1.05-2.95.84-11.39-2.53-22.75-2.43-34.07.32-.84.28-1.58.67-2.21,1.16-.56.49-1.27.6-2.11.32-4.08-1.97-7.1-5.06-9.07-9.28Z"/>
        <path class="cls-3" d="M113.84,48.03c5.24.42,10.46.21,15.66-.63l11.71-1.42,12.34-1.21,2.27-.69c.77-.28,1.58-.26,2.43.05,2.32,1.23,4.54,2.55,6.64,3.96.42.39.65.88.69,1.48.03.6-.12,1.13-.47,1.58-.81.84-1.78,1.21-2.9,1.11-11.67-1.72-23.12-.83-34.33,2.69-.95.49-1.63.93-2.06,1.32-.6.6-1.3.77-2.11.53-4.32-1.86-7.61-4.78-9.86-8.75ZM118.85,26.3c2.35.11,4.75.11,7.17,0,5.91-.6,11.53-1.58,16.88-2.95,2.43-.49,4.69-1.21,6.8-2.16.81-.35,1.55-.37,2.21-.05,2.11.88,3.97,2,5.59,3.38.28.25.46.62.53,1.11.03.39-.09.76-.37,1.11-.42.63-1.04,1-1.85,1.11-9.18.11-18.16,1.65-26.95,4.64-.63.25-1.3.21-2-.11-2.74-1.58-5.41-3.6-8.02-6.06Z"/>
        <path class="cls-3" d="M172.48,17.6c4.75-.7,9.28-.02,13.61,2.06,2.43,1.37,4.17,3.34,5.22,5.91.35,1.05.32,2.13-.08,3.22-.4,1.09-1.12,1.9-2.14,2.43-1.13.74-2.37.96-3.74.66-1.37-.3-2.43-.99-3.16-2.08l-2.43-4.64c-1.79-3.13-4.22-5.64-7.28-7.54ZM173.53,48.77l1,.05c1.62.42,3.22.47,4.8.16,15.19-6.5,28.35-15.87,39.5-28.11-7.59,15.36-18.84,27.35-33.75,35.96-.67.49-1.16,1.12-1.48,1.9-.25.46-.62.79-1.11,1-.53.11-1.02.05-1.48-.16-4.08-2.46-6.57-6.06-7.49-10.81Z"/>
        <path class="cls-3" d="M238.13,14.54c2.14-.84,4.34-.98,6.59-.42,2.14.81,3.99,2.11,5.54,3.9.28.35.39.76.32,1.21-.07.39-.26.72-.58,1l-1.32,1.27-1.85,3.22c4.01.11,7.91-.63,11.71-2.21.25-.39.61-.64,1.11-.76.49-.12.95-.08,1.37.13,2.57,1.79,4.78,3.52,6.64,5.17.28.32.37.67.26,1.05-.14.46-.39.7-.74.74-.81.42-1.41.97-1.79,1.63-3.41,6.93-7.95,12.96-13.61,18.09-8.26,7.84-18.05,12.32-29.37,13.45,7.84-3.06,14.66-7.51,20.46-13.37s10.18-12.7,13.13-20.54l-8.02,1.58c-1.55.28-3.04.16-4.48-.37-5.34,6.68-12.02,11.51-20.04,14.5,6.4-6.82,11.62-14.43,15.66-22.83.81-2.35.47-4.5-1-6.43ZM257.06,15.12c2.32-.46,4.67-.42,7.07.11,2.14.74,3.64,2.11,4.48,4.11.28.63.32,1.3.13,2-.19.7-.57,1.25-1.13,1.63-.74.49-1.55.63-2.43.42-.88-.21-1.51-.74-1.9-1.58l-2-3.27c-.95-1.72-2.36-2.87-4.22-3.43ZM262.81,12.69c1.72-1.05,3.58-1.5,5.56-1.34,1.99.16,3.77.84,5.35,2.03.77.56,1.28,1.3,1.53,2.21.25.92.19,1.79-.16,2.64-.63.95-1.55,1.42-2.74,1.42s-2.08-.51-2.74-1.53l-1.69-2.21c-1.34-1.76-3.04-2.83-5.12-3.22Z"/>
        <path class="cls-3" d="M276.42,20.76c1.76.49,3.5.69,5.22.58l26.26-3.43c.7-.07,1.25-.37,1.63-.9l1.48-1.32c.35-.28.76-.41,1.24-.4.47.02.87.18,1.19.5l5.64,5.64c.21.28.29.62.24,1-.05.39-.24.69-.55.9l-.74.79c-1.79,7.03-4.85,13.48-9.18,19.35-3.66,5.1-8.21,9.1-13.66,12-5.45,2.9-11.32,4.44-17.61,4.61,8.44-2.85,15.4-7.8,20.88-14.87,5.38-6.4,8.46-13.82,9.23-22.25-7.31,1.02-14.48,2.71-21.52,5.06-.7.21-1.35.6-1.95,1.16-.88.84-1.76.86-2.64.05-2.71-2.25-4.43-5.08-5.17-8.49ZM316.13,14.28c0-1.72.64-3.21,1.92-4.46,1.28-1.25,2.79-1.85,4.51-1.82,1.72-.03,3.21.58,4.46,1.85,1.25,1.27,1.89,2.76,1.92,4.48,0,1.76-.64,3.27-1.92,4.54-1.28,1.27-2.8,1.9-4.56,1.9s-3.26-.64-4.51-1.92c-1.25-1.28-1.85-2.8-1.82-4.56ZM319.03,14.33c0,.95.36,1.78,1.08,2.48.72.7,1.56,1.05,2.5,1.05s1.78-.36,2.5-1.08,1.06-1.56,1.03-2.5c0-.98-.36-1.83-1.08-2.53-.72-.7-1.57-1.05-2.56-1.05-.92,0-1.73.36-2.45,1.08s-1.06,1.57-1.03,2.56Z"/>
        <path class="cls-3" d="M333.11,33.05c3.06.63,6.19.7,9.39.21,7.84-1.97,15.73-3.3,23.68-4.01.98-.03,1.93-.39,2.85-1.05l.95-.79c.84-.67,1.71-.74,2.58-.21,2.11,1.48,4.01,3.27,5.7,5.38.21.25.3.54.26.87-.04.33-.18.62-.42.87l-1.32.84c-1.44,4.15-3.53,7.88-6.28,11.21s-6.03,6.09-9.86,8.31c-6.33,3.87-13.24,6.22-20.72,7.07,6.36-2.32,11.87-5.86,16.53-10.63,4.66-4.76,8.06-10.36,10.2-16.8-8.58.81-16.7,2.9-24.36,6.28-.92.53-1.81.49-2.69-.11-2.74-1.97-4.9-4.45-6.49-7.44ZM337.7,20.39c3.38.32,6.77.23,10.18-.26,5.48-.88,11.16-2.25,17.03-4.11.88-.18,1.63-.12,2.27.16,1.69.77,3.23,1.67,4.64,2.69.7.53.88,1.21.53,2.06-.28.77-.86,1.16-1.74,1.16-7.88.39-15.52,1.74-22.94,4.06-.77.14-1.58.05-2.43-.26-2.95-1.34-5.47-3.16-7.54-5.48Z"/>
        <path class="cls-3" d="M388.48,17.6c4.75-.7,9.28-.02,13.61,2.06,2.43,1.37,4.17,3.34,5.22,5.91.35,1.05.32,2.13-.08,3.22-.4,1.09-1.12,1.9-2.14,2.43-1.13.74-2.37.96-3.74.66-1.37-.3-2.43-.99-3.16-2.08l-2.43-4.64c-1.79-3.13-4.22-5.64-7.28-7.54ZM389.53,48.77l1,.05c1.62.42,3.22.47,4.8.16,15.19-6.5,28.35-15.87,39.5-28.11-7.59,15.36-18.84,27.35-33.75,35.96-.67.49-1.16,1.12-1.48,1.9-.25.46-.62.79-1.11,1-.53.11-1.02.05-1.48-.16-4.08-2.46-6.57-6.06-7.49-10.81Z"/>
      </g>
      <g>
        <path class="cls-7" d="M42.93,69c-4.39,0-8.77-1-13.02-2.98-3.78-1.66-6.82-4.26-9.04-7.73-.94-1.48-1.69-3.02-2.23-4.63-.42.05-.85.08-1.28.08-1.52,0-3.02-.31-4.48-.93-.07-.03-.15-.06-.22-.1-5.42-2.5-9.43-6.51-11.93-11.93-1.32-2.86-.84-6.23,1.23-8.6,1.54-1.78,3.76-2.75,6.04-2.75.49,0,.98.04,1.46.14-.73-.55-1.44-1.12-2.13-1.69-2.65-2.19-3.6-5.83-2.36-9.04,1.19-3.09,4.17-5.12,7.46-5.12.12,0,.24,0,.37,0,.71.03,1.43.05,2.15.05,1.96,0,4.02-.12,6.15-.35,6.15-1.1,12.29-2.84,18.27-5.17.06-.02.12-.04.18-.07,1.44-.52,2.94-.79,4.45-.79.56,0,1.13.04,1.69.11.39.05.77.13,1.15.24,4.81,1.36,8.49,4.44,10.66,8.9.27.56.48,1.15.61,1.76.53,2.4.2,4.84-.94,6.99,3.74,2.66,6.05,6.65,6.57,11.44.03.29.05.57.05.86,0,3.41-1.66,6.5-4.45,8.32-.82.55-1.7.97-2.62,1.25,1.72,1.75,3.08,3.82,4.05,6.19.13.31.23.63.32.95.66,2.48.35,5.1-.86,7.37-1.12,2.1-2.87,3.7-5.03,4.63-4.04,1.73-8.16,2.6-12.25,2.6Z"/>
        <path class="cls-5" d="M70.2,50.43c-1.13,0-2.28-.19-3.4-.57-.32-.11-.63-.24-.94-.38-5.76-2.78-10.08-7.19-12.84-13.1-1.25-2.67-.92-5.81.84-8.17,1.52-2.04,3.91-3.21,6.41-3.21.4,0,.79.03,1.19.09,2.91.44,5.88.66,8.82.66,1.6,0,3.24-.07,4.85-.2.07,0,12.07-.65,12.15-.66l11.44-.3,1.15-.26c.99-.3,2.01-.46,3.05-.46,1.71,0,3.4.41,5.02,1.22.23.11.45.24.66.37,2.43,1.52,4.75,3.1,6.89,4.71.3.23.59.48.86.74,1.92,1.92,2.98,4.47,2.98,7.19s-1.06,5.27-2.98,7.19c-.08.08-.17.16-.25.24-2.15,1.97-4.8,3.01-7.65,3.01-.72,0-1.45-.07-2.18-.21-.09-.02-.17-.03-.26-.05-4.87-1.08-9.8-1.63-14.64-1.63s-10.14.59-15.18,1.77c-1.71,1.3-3.8,2-5.96,2Z"/>
        <path class="cls-6" d="M124.38,64.89c-1.01,0-2.02-.15-3.01-.45-.28-.09-.56-.19-.84-.31-5.95-2.56-10.54-6.65-13.66-12.16-1.46-2.58-1.37-5.75.22-8.24,1.48-2.31,4.03-3.7,6.74-3.7.21,0,.43,0,.64.03,1.53.12,3.07.19,4.59.19,1.77,0,3.54-.08,5.32-.25-.27-.1-.54-.21-.81-.33-.24-.11-.48-.23-.72-.37-3.27-1.89-6.47-4.3-9.52-7.18-2.43-2.3-3.17-5.86-1.87-8.94,1.26-2.97,4.16-4.88,7.36-4.88.12,0,.24,0,.36,0,1.05.05,2.13.07,3.2.07,1,0,2.02-.02,3.04-.06,5.4-.56,10.6-1.47,15.46-2.72.13-.03.26-.06.4-.09,1.83-.37,3.55-.92,5.11-1.62.03-.02.07-.03.1-.04,1.43-.62,2.92-.94,4.4-.94s2.87.3,4.2.89c2.81,1.19,5.35,2.73,7.56,4.6.03.03.06.05.09.08,1.73,1.51,2.83,3.58,3.18,5.98.02.15.04.3.05.44.2,2.32-.46,4.62-1.87,6.52-1.71,2.41-4.28,3.94-7.28,4.33-.31.04-.63.06-.94.07-6.48.07-12.93.96-19.24,2.63,0,0,3.69-.45,3.75-.45l11.56-1.14,1.37-.41c1.16-.39,2.36-.59,3.58-.59,1.39,0,2.77.26,4.12.76.32.12.64.26.94.42,2.54,1.35,5.01,2.82,7.33,4.36.35.23.67.49.98.77,1.94,1.79,3.1,4.24,3.26,6.9.15,2.55-.59,4.94-2.12,6.93-.18.23-.37.45-.57.66-2.22,2.31-5.17,3.59-8.3,3.59-.37,0-.74-.02-1.12-.05-.14-.01-.28-.03-.42-.05-3.43-.51-6.89-.76-10.27-.76-6.63,0-13.27.99-19.74,2.94-1.85,1.65-4.19,2.55-6.63,2.55Z"/>
        <path class="cls-4" d="M181.98,67.79c-1.5,0-2.96-.32-4.32-.95-.27-.12-.52-.26-.77-.41-6-3.62-9.87-9.2-11.21-16.15-.47-2.42.21-4.91,1.82-6.77,1.52-1.75,3.73-2.75,6.03-2.75.14,0,.28,0,.42.01l1,.05c.54.03,1.08.11,1.6.25.23.06.45.09.65.1,1.5-.66,2.99-1.36,4.45-2.08-2.5-.95-4.59-2.59-6.1-4.83-.17-.25-.33-.51-.47-.78l-2.35-4.49c-1.12-1.92-2.59-3.43-4.49-4.6-2.85-1.77-4.3-5.13-3.62-8.42.68-3.29,3.34-5.8,6.66-6.29,1.58-.23,3.18-.35,4.74-.35,4.66,0,9.2,1.05,13.5,3.11.16.08.32.16.48.25,4.01,2.27,6.93,5.58,8.68,9.83.07.17.13.34.19.52.53,1.58.73,3.22.62,4.85,4.78-3.72,9.25-7.86,13.4-12.41,1.57-1.72,3.73-2.61,5.92-2.61,1.56,0,3.13.46,4.51,1.39,3.29,2.25,4.43,6.58,2.66,10.15-8.05,16.28-20.03,29.26-35.63,38.59-1.11,1.83-2.73,3.23-4.73,4.09-.51.22-1.04.38-1.58.49-.69.14-1.39.21-2.08.21Z"/>
        <path class="cls-1" d="M222.41,70c-3.66,0-6.9-2.51-7.77-6.13-.93-3.89,1.15-7.87,4.87-9.32,2.43-.95,4.76-2.06,6.97-3.32-.07.03-.14.05-.21.08-.91.34-1.86.5-2.79.5-2.62,0-5.15-1.29-6.66-3.57-2.06-3.09-1.72-7.2.83-9.9,5.5-5.86,10.1-12.45,13.68-19.6-1.16-1.89-1.49-4.18-.89-6.34.67-2.42,2.44-4.38,4.77-5.3,2.22-.87,4.52-1.31,6.85-1.31,1.53,0,3.08.19,4.61.58.3.08.6.17.89.28,1.58.6,3.06,1.36,4.44,2.3,1-.82,2.2-1.4,3.53-1.66.55-.11,1.11-.2,1.67-.27.43-.42.91-.8,1.44-1.13,2.77-1.69,5.78-2.55,8.97-2.55.46,0,.93.02,1.41.06,3.5.28,6.69,1.48,9.49,3.58,2.22,1.64,3.77,3.9,4.48,6.56.7,2.63.53,5.32-.5,7.79-.2.48-.44.94-.73,1.37-1.43,2.14-3.46,3.67-5.82,4.43.08,1.03-.02,2.07-.29,3.1-.02.08-.05.17-.07.25-.67,2.16-2,3.9-3.74,5.02-3.74,7.17-8.65,13.54-14.6,18.95-9.53,9.02-20.97,14.24-34.02,15.54-.27.03-.53.04-.8.04Z"/>
        <path class="cls-2" d="M277.58,68.1c-3.86,0-7.19-2.77-7.87-6.59-.7-3.9,1.56-7.72,5.32-8.99,6.98-2.36,12.58-6.34,17.12-12.2.06-.08.13-.16.2-.24,1.81-2.15,3.28-4.42,4.43-6.82-2.54.64-5.05,1.38-7.54,2.19-1.8,1.53-4.05,2.39-6.36,2.39-1.68,0-4.15-.45-6.53-2.55-4.03-3.39-6.64-7.71-7.75-12.84-.59-2.74.29-5.59,2.33-7.52,1.5-1.42,3.47-2.18,5.48-2.18.72,0,1.45.1,2.16.3.75.21,1.45.31,2.14.31.07,0,.14,0,.2,0l24.23-3.16.53-.47c.1-.09.21-.18.32-.27,1.13-.91,2.42-1.54,3.79-1.88.69-1.26,1.58-2.44,2.68-3.5,2.75-2.67,6.19-4.08,9.95-4.08h.27c3.82,0,7.29,1.46,10.02,4.23,2.69,2.73,4.15,6.16,4.23,9.94,0,.05,0,.11,0,.16,0,3.91-1.49,7.45-4.31,10.23-2.14,2.11-4.7,3.45-7.52,3.97-2.1,7.09-5.4,13.71-9.82,19.71-4.31,6-9.82,10.85-16.34,14.31-6.52,3.47-13.64,5.34-21.15,5.55-.08,0-.15,0-.23,0Z"/>
        <path class="cls-9" d="M339.9,69.74c-3.67,0-6.92-2.52-7.78-6.17-.93-3.94,1.24-7.96,5.05-9.35,5.03-1.83,9.3-4.51,13.02-8.17-1.49.53-2.97,1.11-4.42,1.74-1.5.76-3.14,1.17-4.76,1.17-2.08,0-4.13-.65-5.92-1.87-.05-.04-.11-.07-.16-.11-3.74-2.69-6.73-6.12-8.89-10.19-1.45-2.74-1.19-6.07.67-8.55,1.16-1.55,2.81-2.59,4.63-3-1.85-2.42-2.17-5.71-.78-8.46,1.37-2.71,4.14-4.4,7.14-4.4.25,0,.5.01.75.04,1.07.1,2.16.15,3.23.15,1.65,0,3.33-.12,5-.36,5.05-.81,10.37-2.1,15.82-3.83.28-.09.56-.16.85-.22.85-.17,1.7-.26,2.53-.26,1.61,0,3.14.32,4.56.95,2.24,1.03,4.26,2.2,6.09,3.52.03.03.07.05.1.08,3.31,2.48,4.64,6.6,3.48,10.5,1.56,1.37,3.01,2.89,4.35,4.55,1.56,1.9,2.28,4.28,2.03,6.75-.23,2.19-1.17,4.16-2.72,5.71-.13.13-.26.25-.39.37-1.68,4.04-3.93,7.77-6.69,11.12-3.32,4.02-7.33,7.41-11.94,10.09-7.28,4.43-15.33,7.17-23.92,8.14-.3.03-.6.05-.9.05Z"/>
        <path class="cls-10" d="M397.98,67.79c-1.5,0-2.96-.32-4.32-.95-.27-.12-.52-.26-.77-.41-6-3.62-9.87-9.2-11.21-16.15-.47-2.42.21-4.91,1.82-6.77,1.52-1.75,3.73-2.75,6.03-2.75.14,0,.28,0,.42.01l1,.05c.54.03,1.08.11,1.6.25.23.06.45.09.65.1,1.5-.66,2.99-1.36,4.45-2.08-2.5-.95-4.59-2.59-6.1-4.83-.17-.25-.33-.51-.47-.78l-2.35-4.49c-1.12-1.92-2.59-3.43-4.49-4.6-2.85-1.77-4.3-5.13-3.62-8.42.68-3.29,3.34-5.8,6.66-6.29,1.58-.23,3.18-.35,4.74-.35,4.66,0,9.2,1.05,13.5,3.11.16.08.32.16.48.25,4.01,2.27,6.93,5.58,8.68,9.83.07.17.13.34.19.52.53,1.58.73,3.22.62,4.85,4.78-3.72,9.25-7.86,13.4-12.41,1.57-1.72,3.73-2.61,5.92-2.61,1.56,0,3.13.46,4.51,1.39,3.29,2.25,4.43,6.58,2.66,10.15-8.05,16.28-20.03,29.26-35.63,38.59-1.11,1.83-2.73,3.23-4.73,4.09-.51.22-1.04.38-1.58.49-.69.14-1.39.21-2.08.21Z"/>
      </g>
      <g>
        <path class="cls-8" d="M12.43,21.71c3.09.14,6.36.02,9.81-.37,6.79-1.19,13.46-3.08,20.04-5.64.77-.28,1.56-.37,2.37-.26,2.6.74,4.48,2.3,5.64,4.69.14.63.02,1.23-.37,1.79-.46.53-1.02.76-1.69.69-4.85.39-9.46,1.14-13.82,2.27l1,.74c.28.25.46.53.53.84.04.32-.05.67-.26,1.05-1.05,1.62-1.42,3.38-1.11,5.27,3.87-.74,8.33-1.42,13.39-2.06,1.23-.11,2.43.09,3.59.58,2.5,1.34,3.9,3.46,4.22,6.38,0,.74-.28,1.28-.84,1.63-.56.39-1.14.47-1.74.26l-5.48-1.48c-4.68-.39-9.21.11-13.61,1.48-.28,3.83-.26,7.54.05,11.13.11.77.47,1.42,1.11,1.95s1.34.76,2.11.69c3.8-.21,7.31-.91,10.55-2.11.56-.11,1.02-.03,1.37.21,1.86,1.27,3.22,2.94,4.06,5.01.14.53.08,1.04-.18,1.53s-.64.84-1.13,1.05c-6.33,2.71-12.6,2.6-18.83-.32-2.36-1.02-4.22-2.6-5.59-4.75-1.37-2.14-2.06-4.5-2.06-7.07l.05-4.54-3.69,1.11c-1.09.53-1.99,1.05-2.69,1.58-.98.74-2.06.86-3.22.37-3.66-1.69-6.33-4.36-8.02-8.02,2.21.67,4.5.84,6.86.53l10.44-2.58-.16-8.81-2.32.42c-1.27.25-2.48.09-3.64-.47-2.46-1.51-4.71-3.11-6.75-4.8Z"/>
        <path class="cls-8" d="M60.26,33c5.13.77,10.3.95,15.5.53l11.71-.63,12.23-.32,2.32-.53c.7-.28,1.48-.21,2.32.21,2.25,1.41,4.36,2.85,6.33,4.32.42.42.63.93.63,1.53s-.21,1.11-.63,1.53c-.84.77-1.83,1.05-2.95.84-11.39-2.53-22.75-2.43-34.07.32-.84.28-1.58.67-2.21,1.16-.56.49-1.27.6-2.11.32-4.08-1.97-7.1-5.06-9.07-9.28Z"/>
        <path class="cls-8" d="M113.84,48.03c5.24.42,10.46.21,15.66-.63l11.71-1.42,12.34-1.21,2.27-.69c.77-.28,1.58-.26,2.43.05,2.32,1.23,4.54,2.55,6.64,3.96.42.39.65.88.69,1.48.03.6-.12,1.13-.47,1.58-.81.84-1.78,1.21-2.9,1.11-11.67-1.72-23.12-.83-34.33,2.69-.95.49-1.63.93-2.06,1.32-.6.6-1.3.77-2.11.53-4.32-1.86-7.61-4.78-9.86-8.75ZM118.85,26.3c2.35.11,4.75.11,7.17,0,5.91-.6,11.53-1.58,16.88-2.95,2.43-.49,4.69-1.21,6.8-2.16.81-.35,1.55-.37,2.21-.05,2.11.88,3.97,2,5.59,3.38.28.25.46.62.53,1.11.03.39-.09.76-.37,1.11-.42.63-1.04,1-1.85,1.11-9.18.11-18.16,1.65-26.95,4.64-.63.25-1.3.21-2-.11-2.74-1.58-5.41-3.6-8.02-6.06Z"/>
        <path class="cls-8" d="M172.48,17.6c4.75-.7,9.28-.02,13.61,2.06,2.43,1.37,4.17,3.34,5.22,5.91.35,1.05.32,2.13-.08,3.22-.4,1.09-1.12,1.9-2.14,2.43-1.13.74-2.37.96-3.74.66-1.37-.3-2.43-.99-3.16-2.08l-2.43-4.64c-1.79-3.13-4.22-5.64-7.28-7.54ZM173.53,48.77l1,.05c1.62.42,3.22.47,4.8.16,15.19-6.5,28.35-15.87,39.5-28.11-7.59,15.36-18.84,27.35-33.75,35.96-.67.49-1.16,1.12-1.48,1.9-.25.46-.62.79-1.11,1-.53.11-1.02.05-1.48-.16-4.08-2.46-6.57-6.06-7.49-10.81Z"/>
        <path class="cls-8" d="M238.13,14.54c2.14-.84,4.34-.98,6.59-.42,2.14.81,3.99,2.11,5.54,3.9.28.35.39.76.32,1.21-.07.39-.26.72-.58,1l-1.32,1.27-1.85,3.22c4.01.11,7.91-.63,11.71-2.21.25-.39.61-.64,1.11-.76.49-.12.95-.08,1.37.13,2.57,1.79,4.78,3.52,6.64,5.17.28.32.37.67.26,1.05-.14.46-.39.7-.74.74-.81.42-1.41.97-1.79,1.63-3.41,6.93-7.95,12.96-13.61,18.09-8.26,7.84-18.05,12.32-29.37,13.45,7.84-3.06,14.66-7.51,20.46-13.37s10.18-12.7,13.13-20.54l-8.02,1.58c-1.55.28-3.04.16-4.48-.37-5.34,6.68-12.02,11.51-20.04,14.5,6.4-6.82,11.62-14.43,15.66-22.83.81-2.35.47-4.5-1-6.43ZM257.06,15.12c2.32-.46,4.67-.42,7.07.11,2.14.74,3.64,2.11,4.48,4.11.28.63.32,1.3.13,2-.19.7-.57,1.25-1.13,1.63-.74.49-1.55.63-2.43.42-.88-.21-1.51-.74-1.9-1.58l-2-3.27c-.95-1.72-2.36-2.87-4.22-3.43ZM262.81,12.69c1.72-1.05,3.58-1.5,5.56-1.34,1.99.16,3.77.84,5.35,2.03.77.56,1.28,1.3,1.53,2.21.25.92.19,1.79-.16,2.64-.63.95-1.55,1.42-2.74,1.42s-2.08-.51-2.74-1.53l-1.69-2.21c-1.34-1.76-3.04-2.83-5.12-3.22Z"/>
        <path class="cls-8" d="M276.42,20.76c1.76.49,3.5.69,5.22.58l26.26-3.43c.7-.07,1.25-.37,1.63-.9l1.48-1.32c.35-.28.76-.41,1.24-.4.47.02.87.18,1.19.5l5.64,5.64c.21.28.29.62.24,1-.05.39-.24.69-.55.9l-.74.79c-1.79,7.03-4.85,13.48-9.18,19.35-3.66,5.1-8.21,9.1-13.66,12-5.45,2.9-11.32,4.44-17.61,4.61,8.44-2.85,15.4-7.8,20.88-14.87,5.38-6.4,8.46-13.82,9.23-22.25-7.31,1.02-14.48,2.71-21.52,5.06-.7.21-1.35.6-1.95,1.16-.88.84-1.76.86-2.64.05-2.71-2.25-4.43-5.08-5.17-8.49ZM316.13,14.28c0-1.72.64-3.21,1.92-4.46,1.28-1.25,2.79-1.85,4.51-1.82,1.72-.03,3.21.58,4.46,1.85,1.25,1.27,1.89,2.76,1.92,4.48,0,1.76-.64,3.27-1.92,4.54-1.28,1.27-2.8,1.9-4.56,1.9s-3.26-.64-4.51-1.92c-1.25-1.28-1.85-2.8-1.82-4.56ZM319.03,14.33c0,.95.36,1.78,1.08,2.48.72.7,1.56,1.05,2.5,1.05s1.78-.36,2.5-1.08,1.06-1.56,1.03-2.5c0-.98-.36-1.83-1.08-2.53-.72-.7-1.57-1.05-2.56-1.05-.92,0-1.73.36-2.45,1.08s-1.06,1.57-1.03,2.56Z"/>
        <path class="cls-8" d="M333.11,33.05c3.06.63,6.19.7,9.39.21,7.84-1.97,15.73-3.3,23.68-4.01.98-.03,1.93-.39,2.85-1.05l.95-.79c.84-.67,1.71-.74,2.58-.21,2.11,1.48,4.01,3.27,5.7,5.38.21.25.3.54.26.87-.04.33-.18.62-.42.87l-1.32.84c-1.44,4.15-3.53,7.88-6.28,11.21s-6.03,6.09-9.86,8.31c-6.33,3.87-13.24,6.22-20.72,7.07,6.36-2.32,11.87-5.86,16.53-10.63,4.66-4.76,8.06-10.36,10.2-16.8-8.58.81-16.7,2.9-24.36,6.28-.92.53-1.81.49-2.69-.11-2.74-1.97-4.9-4.45-6.49-7.44ZM337.7,20.39c3.38.32,6.77.23,10.18-.26,5.48-.88,11.16-2.25,17.03-4.11.88-.18,1.63-.12,2.27.16,1.69.77,3.23,1.67,4.64,2.69.7.53.88,1.21.53,2.06-.28.77-.86,1.16-1.74,1.16-7.88.39-15.52,1.74-22.94,4.06-.77.14-1.58.05-2.43-.26-2.95-1.34-5.47-3.16-7.54-5.48Z"/>
        <path class="cls-8" d="M388.48,17.6c4.75-.7,9.28-.02,13.61,2.06,2.43,1.37,4.17,3.34,5.22,5.91.35,1.05.32,2.13-.08,3.22-.4,1.09-1.12,1.9-2.14,2.43-1.13.74-2.37.96-3.74.66-1.37-.3-2.43-.99-3.16-2.08l-2.43-4.64c-1.79-3.13-4.22-5.64-7.28-7.54ZM389.53,48.77l1,.05c1.62.42,3.22.47,4.8.16,15.19-6.5,28.35-15.87,39.5-28.11-7.59,15.36-18.84,27.35-33.75,35.96-.67.49-1.16,1.12-1.48,1.9-.25.46-.62.79-1.11,1-.53.11-1.02.05-1.48-.16-4.08-2.46-6.57-6.06-7.49-10.81Z"/>
      </g>
      <g>
        <path class="cls-3" d="M12.43,21.71c3.09.14,6.36.02,9.81-.37,6.79-1.19,13.46-3.08,20.04-5.64.77-.28,1.56-.37,2.37-.26,2.6.74,4.48,2.3,5.64,4.69.14.63.02,1.23-.37,1.79-.46.53-1.02.76-1.69.69-4.85.39-9.46,1.14-13.82,2.27l1,.74c.28.25.46.53.53.84.04.32-.05.67-.26,1.05-1.05,1.62-1.42,3.38-1.11,5.27,3.87-.74,8.33-1.42,13.39-2.06,1.23-.11,2.43.09,3.59.58,2.5,1.34,3.9,3.46,4.22,6.38,0,.74-.28,1.28-.84,1.63-.56.39-1.14.47-1.74.26l-5.48-1.48c-4.68-.39-9.21.11-13.61,1.48-.28,3.83-.26,7.54.05,11.13.11.77.47,1.42,1.11,1.95s1.34.76,2.11.69c3.8-.21,7.31-.91,10.55-2.11.56-.11,1.02-.03,1.37.21,1.86,1.27,3.22,2.94,4.06,5.01.14.53.08,1.04-.18,1.53s-.64.84-1.13,1.05c-6.33,2.71-12.6,2.6-18.83-.32-2.36-1.02-4.22-2.6-5.59-4.75-1.37-2.14-2.06-4.5-2.06-7.07l.05-4.54-3.69,1.11c-1.09.53-1.99,1.05-2.69,1.58-.98.74-2.06.86-3.22.37-3.66-1.69-6.33-4.36-8.02-8.02,2.21.67,4.5.84,6.86.53l10.44-2.58-.16-8.81-2.32.42c-1.27.25-2.48.09-3.64-.47-2.46-1.51-4.71-3.11-6.75-4.8Z"/>
        <path class="cls-3" d="M60.26,33c5.13.77,10.3.95,15.5.53l11.71-.63,12.23-.32,2.32-.53c.7-.28,1.48-.21,2.32.21,2.25,1.41,4.36,2.85,6.33,4.32.42.42.63.93.63,1.53s-.21,1.11-.63,1.53c-.84.77-1.83,1.05-2.95.84-11.39-2.53-22.75-2.43-34.07.32-.84.28-1.58.67-2.21,1.16-.56.49-1.27.6-2.11.32-4.08-1.97-7.1-5.06-9.07-9.28Z"/>
        <path class="cls-3" d="M113.84,48.03c5.24.42,10.46.21,15.66-.63l11.71-1.42,12.34-1.21,2.27-.69c.77-.28,1.58-.26,2.43.05,2.32,1.23,4.54,2.55,6.64,3.96.42.39.65.88.69,1.48.03.6-.12,1.13-.47,1.58-.81.84-1.78,1.21-2.9,1.11-11.67-1.72-23.12-.83-34.33,2.69-.95.49-1.63.93-2.06,1.32-.6.6-1.3.77-2.11.53-4.32-1.86-7.61-4.78-9.86-8.75ZM118.85,26.3c2.35.11,4.75.11,7.17,0,5.91-.6,11.53-1.58,16.88-2.95,2.43-.49,4.69-1.21,6.8-2.16.81-.35,1.55-.37,2.21-.05,2.11.88,3.97,2,5.59,3.38.28.25.46.62.53,1.11.03.39-.09.76-.37,1.11-.42.63-1.04,1-1.85,1.11-9.18.11-18.16,1.65-26.95,4.64-.63.25-1.3.21-2-.11-2.74-1.58-5.41-3.6-8.02-6.06Z"/>
        <path class="cls-3" d="M172.48,17.6c4.75-.7,9.28-.02,13.61,2.06,2.43,1.37,4.17,3.34,5.22,5.91.35,1.05.32,2.13-.08,3.22-.4,1.09-1.12,1.9-2.14,2.43-1.13.74-2.37.96-3.74.66-1.37-.3-2.43-.99-3.16-2.08l-2.43-4.64c-1.79-3.13-4.22-5.64-7.28-7.54ZM173.53,48.77l1,.05c1.62.42,3.22.47,4.8.16,15.19-6.5,28.35-15.87,39.5-28.11-7.59,15.36-18.84,27.35-33.75,35.96-.67.49-1.16,1.12-1.48,1.9-.25.46-.62.79-1.11,1-.53.11-1.02.05-1.48-.16-4.08-2.46-6.57-6.06-7.49-10.81Z"/>
        <path class="cls-3" d="M238.13,14.54c2.14-.84,4.34-.98,6.59-.42,2.14.81,3.99,2.11,5.54,3.9.28.35.39.76.32,1.21-.07.39-.26.72-.58,1l-1.32,1.27-1.85,3.22c4.01.11,7.91-.63,11.71-2.21.25-.39.61-.64,1.11-.76.49-.12.95-.08,1.37.13,2.57,1.79,4.78,3.52,6.64,5.17.28.32.37.67.26,1.05-.14.46-.39.7-.74.74-.81.42-1.41.97-1.79,1.63-3.41,6.93-7.95,12.96-13.61,18.09-8.26,7.84-18.05,12.32-29.37,13.45,7.84-3.06,14.66-7.51,20.46-13.37s10.18-12.7,13.13-20.54l-8.02,1.58c-1.55.28-3.04.16-4.48-.37-5.34,6.68-12.02,11.51-20.04,14.5,6.4-6.82,11.62-14.43,15.66-22.83.81-2.35.47-4.5-1-6.43ZM257.06,15.12c2.32-.46,4.67-.42,7.07.11,2.14.74,3.64,2.11,4.48,4.11.28.63.32,1.3.13,2-.19.7-.57,1.25-1.13,1.63-.74.49-1.55.63-2.43.42-.88-.21-1.51-.74-1.9-1.58l-2-3.27c-.95-1.72-2.36-2.87-4.22-3.43ZM262.81,12.69c1.72-1.05,3.58-1.5,5.56-1.34,1.99.16,3.77.84,5.35,2.03.77.56,1.28,1.3,1.53,2.21.25.92.19,1.79-.16,2.64-.63.95-1.55,1.42-2.74,1.42s-2.08-.51-2.74-1.53l-1.69-2.21c-1.34-1.76-3.04-2.83-5.12-3.22Z"/>
        <path class="cls-3" d="M276.42,20.76c1.76.49,3.5.69,5.22.58l26.26-3.43c.7-.07,1.25-.37,1.63-.9l1.48-1.32c.35-.28.76-.41,1.24-.4.47.02.87.18,1.19.5l5.64,5.64c.21.28.29.62.24,1-.05.39-.24.69-.55.9l-.74.79c-1.79,7.03-4.85,13.48-9.18,19.35-3.66,5.1-8.21,9.1-13.66,12-5.45,2.9-11.32,4.44-17.61,4.61,8.44-2.85,15.4-7.8,20.88-14.87,5.38-6.4,8.46-13.82,9.23-22.25-7.31,1.02-14.48,2.71-21.52,5.06-.7.21-1.35.6-1.95,1.16-.88.84-1.76.86-2.64.05-2.71-2.25-4.43-5.08-5.17-8.49ZM316.13,14.28c0-1.72.64-3.21,1.92-4.46,1.28-1.25,2.79-1.85,4.51-1.82,1.72-.03,3.21.58,4.46,1.85,1.25,1.27,1.89,2.76,1.92,4.48,0,1.76-.64,3.27-1.92,4.54-1.28,1.27-2.8,1.9-4.56,1.9s-3.26-.64-4.51-1.92c-1.25-1.28-1.85-2.8-1.82-4.56ZM319.03,14.33c0,.95.36,1.78,1.08,2.48.72.7,1.56,1.05,2.5,1.05s1.78-.36,2.5-1.08,1.06-1.56,1.03-2.5c0-.98-.36-1.83-1.08-2.53-.72-.7-1.57-1.05-2.56-1.05-.92,0-1.73.36-2.45,1.08s-1.06,1.57-1.03,2.56Z"/>
        <path class="cls-3" d="M333.11,33.05c3.06.63,6.19.7,9.39.21,7.84-1.97,15.73-3.3,23.68-4.01.98-.03,1.93-.39,2.85-1.05l.95-.79c.84-.67,1.71-.74,2.58-.21,2.11,1.48,4.01,3.27,5.7,5.38.21.25.3.54.26.87-.04.33-.18.62-.42.87l-1.32.84c-1.44,4.15-3.53,7.88-6.28,11.21s-6.03,6.09-9.86,8.31c-6.33,3.87-13.24,6.22-20.72,7.07,6.36-2.32,11.87-5.86,16.53-10.63,4.66-4.76,8.06-10.36,10.2-16.8-8.58.81-16.7,2.9-24.36,6.28-.92.53-1.81.49-2.69-.11-2.74-1.97-4.9-4.45-6.49-7.44ZM337.7,20.39c3.38.32,6.77.23,10.18-.26,5.48-.88,11.16-2.25,17.03-4.11.88-.18,1.63-.12,2.27.16,1.69.77,3.23,1.67,4.64,2.69.7.53.88,1.21.53,2.06-.28.77-.86,1.16-1.74,1.16-7.88.39-15.52,1.74-22.94,4.06-.77.14-1.58.05-2.43-.26-2.95-1.34-5.47-3.16-7.54-5.48Z"/>
        <path class="cls-3" d="M388.48,17.6c4.75-.7,9.28-.02,13.61,2.06,2.43,1.37,4.17,3.34,5.22,5.91.35,1.05.32,2.13-.08,3.22-.4,1.09-1.12,1.9-2.14,2.43-1.13.74-2.37.96-3.74.66-1.37-.3-2.43-.99-3.16-2.08l-2.43-4.64c-1.79-3.13-4.22-5.64-7.28-7.54ZM389.53,48.77l1,.05c1.62.42,3.22.47,4.8.16,15.19-6.5,28.35-15.87,39.5-28.11-7.59,15.36-18.84,27.35-33.75,35.96-.67.49-1.16,1.12-1.48,1.9-.25.46-.62.79-1.11,1-.53.11-1.02.05-1.48-.16-4.08-2.46-6.57-6.06-7.49-10.81Z"/>
      </g>
    </g>
  </g>
</svg>