<?xml version="1.0" encoding="UTF-8"?>
<svg id="_レイヤー_2" data-name="レイヤー 2" xmlns="http://www.w3.org/2000/svg" xmlns:xlink="http://www.w3.org/1999/xlink" viewBox="0 0 336.29 68.63">
  <defs>
    <style>
      .cls-1 {
        fill: url(#_名称未設定グラデーション_120-5);
      }

      .cls-2 {
        fill: url(#_名称未設定グラデーション_120-6);
      }

      .cls-3 {
        fill: #fff;
      }

      .cls-4 {
        fill: url(#_名称未設定グラデーション_120-4);
      }

      .cls-5 {
        fill: url(#_名称未設定グラデーション_120-2);
      }

      .cls-6 {
        fill: url(#_名称未設定グラデーション_120-3);
      }

      .cls-7 {
        fill: url(#_名称未設定グラデーション_120);
      }

      .cls-8 {
        fill: none;
        stroke: #000;
        stroke-width: 6px;
      }
    </style>
    <linearGradient id="_名称未設定グラデーション_120" data-name="名称未設定グラデーション 120" x1="32.73" y1="68.63" x2="32.73" y2="0" gradientUnits="userSpaceOnUse">
      <stop offset="0" stop-color="#945700"/>
      <stop offset=".19" stop-color="#e9a900"/>
      <stop offset=".29" stop-color="#f5f8b4"/>
      <stop offset=".4" stop-color="#e9a900"/>
      <stop offset="1" stop-color="#fff87f"/>
    </linearGradient>
    <linearGradient id="_名称未設定グラデーション_120-2" data-name="名称未設定グラデーション 120" x1="84.02" x2="84.02" xlink:href="#_名称未設定グラデーション_120"/>
    <linearGradient id="_名称未設定グラデーション_120-3" data-name="名称未設定グラデーション 120" x1="142.71" x2="142.71" xlink:href="#_名称未設定グラデーション_120"/>
    <linearGradient id="_名称未設定グラデーション_120-4" data-name="名称未設定グラデーション 120" x1="195.83" x2="195.83" xlink:href="#_名称未設定グラデーション_120"/>
    <linearGradient id="_名称未設定グラデーション_120-5" data-name="名称未設定グラデーション 120" x1="248.84" x2="248.84" xlink:href="#_名称未設定グラデーション_120"/>
    <linearGradient id="_名称未設定グラデーション_120-6" data-name="名称未設定グラデーション 120" x1="302.8" x2="302.8" xlink:href="#_名称未設定グラデーション_120"/>
  </defs>
  <g id="_レイヤー_1-2" data-name="レイヤー 1">
    <g>
      <g>
        <path class="cls-3" d="M26.14,13.01c1.65-2.07,3.81-2.95,6.49-2.64,2.57.32,4.71,1.51,6.43,3.59.49.63.49,1.25,0,1.85l-.9,1.21c-.63.88-1.05,1.85-1.27,2.9l-.11,3.32,7.28-.53c1.41-.18,2.81-.49,4.22-.95,1.12-.35,2.14-.35,3.06,0,2.46.95,4.41,2.51,5.85,4.69.25.42.26.88.05,1.37-.18.49-.53.79-1.05.9-1.41.7-2.95.86-4.64.47-4.78-1.05-9.7-1.19-14.77-.42-.46,7.24-.4,14.42.16,21.52.11,1.83-.33,3.5-1.32,5.01-1.44,2.21-3.43,3.69-5.96,4.43-.63.18-1.25.15-1.85-.08-.6-.23-1.05-.62-1.37-1.19-1.83-3.48-4.64-5.78-8.44-6.91,2.53.53,5.12.83,7.75.9.88.11,1.6-.18,2.16-.84.63-.53.9-1.23.79-2.11l-.26-19.46c-2.46.21-4.71.83-6.75,1.85,1.05,2.92,1.53,5.89,1.42,8.91,0,2.57-.84,4.85-2.53,6.86-1.69,1.44-3.62,2.09-5.8,1.95-1.16.14-2.21-.16-3.16-.9s-1.49-1.69-1.63-2.85c-.28-2,.42-3.57,2.11-4.69,2.74-1.19,5.17-2.9,7.28-5.12.98-1.09,1.39-2.35,1.21-3.8l-2.79.74c-.53.21-1.12.16-1.79-.16-3.62-1.58-6.29-4.17-8.02-7.75,2.99.92,5.99,1.16,9.02.74l11.6-1.74-.16-7.49c-.14-1.51-.91-2.71-2.32-3.59ZM38.8,31.2c4.96.53,9.28,2.57,12.97,6.12,2.53,2.53,3.46,5.56,2.79,9.07-.49,2.11-1.72,3.53-3.69,4.27-1.05.42-2.07.35-3.06-.21-1.05-.49-1.69-1.32-1.9-2.48-.25-2.18-.72-4.55-1.42-7.12-.84-3.8-2.74-7.01-5.7-9.65ZM51.45,8c1.62,0,3.01.59,4.19,1.77,1.18,1.18,1.78,2.58,1.82,4.19,0,1.62-.61,3.01-1.82,4.19-1.21,1.18-2.61,1.77-4.19,1.77s-3.02-.6-4.22-1.79c-1.2-1.19-1.78-2.6-1.74-4.22.04-1.62.64-3.01,1.82-4.17s2.56-1.74,4.14-1.74ZM49.08,11.48c-.7.67-1.07,1.47-1.11,2.4-.04.93.31,1.76,1.03,2.48.72.72,1.55,1.08,2.48,1.08s1.75-.35,2.45-1.05c.7-.7,1.05-1.52,1.05-2.45s-.34-1.75-1.03-2.45c-.69-.7-1.49-1.05-2.43-1.05s-1.75.35-2.45,1.05Z"/>
        <path class="cls-3" d="M94.64,13.22c-.11-.18-.12-.35-.05-.53.04-.21.18-.33.42-.37,1.65-.42,3.29-.32,4.9.32,3.06,1.34,5.33,3.59,6.8,6.75.18.42.16.83-.05,1.21-.14.35-.46.58-.95.69l-1.95.53-9.7,7.8c.91.21,1.74.63,2.48,1.27.21.18.37.4.47.69,0,.35-.11.62-.32.79l-.95,1.53c0,7.8.23,15.35.69,22.62-.04.81-.39,1.51-1.05,2.11-.7.56-1.48.79-2.32.69-1.27-.11-2.41-.51-3.43-1.21-1.02-.7-1.83-1.62-2.43-2.74-.32-.81-.4-1.6-.26-2.37,1.09-6.29,1.3-12.67.63-19.14-8.23,4.78-17.02,7.82-26.37,9.12,14.06-5.45,25.47-14.36,34.22-26.74.56-.84.51-1.62-.16-2.32l-.63-.69Z"/>
        <path class="cls-3" d="M119.53,15.22c4.75-.7,9.28-.02,13.61,2.06,2.43,1.37,4.17,3.34,5.22,5.91.35,1.05.32,2.13-.08,3.22-.4,1.09-1.12,1.9-2.14,2.43-1.13.74-2.37.96-3.74.66-1.37-.3-2.43-.99-3.16-2.08l-2.43-4.64c-1.79-3.13-4.22-5.64-7.28-7.54ZM120.59,46.39l1,.05c1.62.42,3.22.47,4.8.16,15.19-6.5,28.35-15.87,39.5-28.11-7.59,15.36-18.84,27.35-33.75,35.96-.67.49-1.16,1.12-1.48,1.9-.25.46-.62.79-1.11,1-.53.11-1.02.05-1.48-.16-4.08-2.46-6.57-6.06-7.49-10.81Z"/>
        <path class="cls-3" d="M182.02,12.54l-.16-.79c2.39-1.69,5.01-2.29,7.86-1.79,2.14.63,4.03,1.83,5.64,3.59.49.56.51,1.14.05,1.74l-1.79,1.9c-.46,2.88-.65,5.84-.58,8.86,3.23.53,6.42,1.34,9.54,2.43,3.2,1.3,5.5,3.53,6.91,6.7.6,1.69.32,3.27-.84,4.75-1.23,1.37-2.74,1.9-4.54,1.58-1.3-.39-2.41-1.09-3.32-2.11-.92-1.02-1.51-2.21-1.79-3.59-.28-1.72-.98-3.25-2.11-4.59-1.13-1.34-2.51-2.27-4.17-2.79-.14,6.93-.12,14.7.05,23.31.11,1.93.02,3.66-.26,5.17-.53,1.37-1.44,2.41-2.74,3.11-.6.18-1.13.12-1.58-.16-1.9-1.51-3.41-3.25-4.54-5.22-.42-.84-.44-1.69-.05-2.53,1.27-12.27,1.56-24.71.9-37.34-.14-.6-.43-1.1-.87-1.5-.44-.4-.98-.64-1.61-.71Z"/>
        <path class="cls-3" d="M223.31,52.98l8.65-2.37v-15.45h-6.22l-1.16-2.64h7.38l1.48-2.53c.49-.56,1.02-.65,1.58-.26l6.01,4.01c.35.32.46.69.32,1.11,0,.42-.25.69-.74.79-.63.28-.98.79-1.05,1.53v11.6c.98,1.05,2.07,1.93,3.27,2.64V16.54l8.44,2.21,3.69-9.81,7.59,5.12c.21.32.28.65.21,1-.21.35-.49.53-.84.53-.77.07-1.51.3-2.21.69l-4.96,3.27h6.86l1.79-2.85c.21-.25.53-.4.95-.47.42,0,.74.11.95.32l5.48,3.8c.21.28.28.58.21.9-.07.32-.28.53-.63.63-.7.18-1.05.65-1.05,1.42v7.22c0,.67-.32,1.16-.95,1.48l-5.27,1.16c-.28.11-.6.04-.95-.21-.28-.18-.42-.44-.42-.79v-1h-10.86v5.33h12.02l1.69-2.27c.56-.49,1.16-.6,1.79-.32l5.59,3.27c.28.25.39.53.32.84-.07.39-.28.62-.63.69-.63.11-.98.46-1.05,1.05v9.65c0,.46-.14.81-.42,1.05-.28.28-.6.42-.95.42l-5.17.9c-.42.11-.74.04-.95-.21-.28-.18-.46-.44-.53-.79v-1.63h-11.71v1.21c-.07.77-.49,1.21-1.27,1.32l-4.75.79c2.18.88,4.46,1.32,6.86,1.32h22.68c-2.04,1.93-3.73,4.22-5.06,6.86h-14.45c-6.82-.21-12.59-2.83-17.3-7.86l-6.54,5.22c-.35.32-.53.74-.53,1.27,0,.42-.18.7-.53.84-.35.18-.7.14-1.05-.11l-5.59-7.01ZM228.69,12.85c2.25-.35,4.39-.06,6.43.87,2.04.93,3.66,2.35,4.85,4.25.84,1.2.98,2.44.42,3.74-.49,1.34-1.41,2.16-2.74,2.48-1.34.35-2.5.14-3.48-.63-1.05-.74-1.62-1.79-1.69-3.16-.07-3.09-1.34-5.61-3.8-7.54ZM250.84,22.29v6.22h10.86v-6.22h-10.86ZM250.84,39.27v7.65h11.71v-7.65h-11.71Z"/>
        <path class="cls-3" d="M278.53,24.03h6.59v-14.92l8.6,1.74c.56.14.95.51,1.16,1.11.21.6.09,1.11-.37,1.53l-1.85,1.32v9.23h2.79l1.42-1.95c.39-.42.79-.51,1.21-.26l6.01,4.48c.21.18.32.4.32.69s-.09.55-.26.79l-1.32.9c.39,7.95-.49,15.79-2.64,23.52-.63,2.04-1.56,3.97-2.79,5.8-.56.67-1.14,1.18-1.74,1.53-1.13.56-2.36.84-3.69.84-1.2.07-2.06-.39-2.58-1.37-.25-.46-.44-.88-.58-1.27-1.02-2.46-2.79-4.04-5.33-4.75-1.9,2.5-3.96,4.69-6.17,6.59,5.31-10.12,7.91-20.9,7.8-32.33h-5.27l-1.32-3.22ZM292.66,27.25c-.32,9.25-3.2,17.6-8.65,25.05,1.55.74,3.23,1.2,5.06,1.37.53.07,1.05-.03,1.58-.32.67-.28,1.19-.72,1.58-1.32.28-.28.46-.61.53-1,1.79-7.8,2.6-15.73,2.43-23.78h-2.53ZM304.95,13.75l7.91,2.37,6.38-.11,1.74-2.37c.32-.53.74-.61,1.27-.26l5.7,3.96c.21.11.32.26.32.47.07.28.03.49-.11.63l-1.37,1.9v35.02c0,.53-.23.9-.69,1.11l-4.75,1.79c-.46.21-.95.16-1.48-.16-.46-.28-.72-.7-.79-1.27v-2.79h-6.22v.69c0,.91-.42,1.62-1.27,2.11l-4.38,1.42c-.49.21-.98.14-1.48-.21-.46-.25-.72-.65-.79-1.21V13.75ZM312.86,19.02v32.38h6.22V19.02h-6.22Z"/>
      </g>
      <g>
        <path class="cls-7" d="M28.86,67.85c-1.33,0-2.64-.24-3.89-.72-2.36-.9-4.25-2.54-5.48-4.73-.04-.07-.08-.14-.11-.21-.82-1.56-1.91-2.45-3.63-2.96-1.16-.34-2.19-.93-3.04-1.69-2.16-.28-4.2-1.13-5.98-2.52-2.59-2.02-4.24-4.9-4.66-8.12-.59-4.35.85-8.31,3.98-11.13-2.15-2-3.91-4.41-5.26-7.23-1.38-2.86-.93-6.27,1.14-8.68,1.54-1.8,3.77-2.79,6.07-2.79.78,0,1.57.11,2.34.35,1.29.4,2.54.59,3.81.59.58,0,1.17-.04,1.76-.12l3.52-.53c-.59-.9-.99-1.93-1.18-3.01-.39-2.25.21-4.55,1.63-6.34,2.94-3.69,7.09-5.72,11.71-5.72.65,0,1.31.04,1.98.12,2.64.33,5.08,1.19,7.26,2.55.28-.32.57-.64.88-.94,2.68-2.64,6.06-4.04,9.75-4.04s7.16,1.42,9.85,4.11c2.64,2.64,4.08,5.99,4.16,9.68,0,.06,0,.12,0,.17,0,2.67-.72,5.15-2.11,7.33.18.25.35.5.52.76.08.12.16.25.24.38,1.48,2.55,1.69,5.57.59,8.33-.81,2.1-2.32,3.79-4.24,4.84,2.1,3.66,2.8,7.89,1.96,12.29-.02.11-.04.22-.07.32-1.1,4.7-4.15,8.22-8.6,9.92-1.37.54-2.79.81-4.22.81-1.89,0-3.71-.46-5.41-1.38-.17-.09-.34-.18-.5-.27-.36.82-.79,1.62-1.29,2.39-2.47,3.8-6.08,6.47-10.42,7.74-.03,0-.07.02-.1.03-.97.27-1.97.41-2.96.41Z"/>
        <path class="cls-5" d="M93.45,67.34c-.4,0-.8-.02-1.2-.06-2.61-.24-5.02-1.11-7.16-2.59-2.08-1.44-3.75-3.31-4.95-5.58-.14-.27-.27-.55-.38-.84-.85-2.18-1.09-4.5-.69-6.72.29-1.69.51-3.4.66-5.13-5.61,2.14-11.43,3.63-17.42,4.46-.37.05-.74.08-1.11.08-3.59,0-6.81-2.42-7.74-5.99-1.02-3.93,1.07-8,4.85-9.47,11.53-4.47,20.85-11.34,28.39-20.95-.27-1.35-.2-2.74.19-4.08.84-3,3.28-5.3,6.38-5.96,1.23-.29,2.47-.44,3.71-.44,1.98,0,3.95.38,5.85,1.12.1.04.19.08.29.12,4.81,2.1,8.56,5.8,10.85,10.7.05.1.09.2.14.31,1.05,2.51.97,5.3-.21,7.71-1.17,2.53-3.41,4.33-6.23,5.02l-.2.05-2.47,1.99c0,.16.01.32.01.48,0,1.68-.44,3.28-1.26,4.66.04,6.79.26,13.43.66,19.78.02.28.02.57,0,.85-.13,2.95-1.45,5.69-3.71,7.72-.11.1-.23.2-.35.29-2.01,1.61-4.41,2.46-6.92,2.46Z"/>
        <path class="cls-6" d="M129.04,65.41c-1.5,0-2.96-.32-4.32-.95-.27-.12-.52-.26-.77-.41-6-3.62-9.87-9.2-11.21-16.15-.47-2.42.21-4.91,1.82-6.77,1.52-1.75,3.73-2.75,6.03-2.75.14,0,.28,0,.42.01l1,.05c.54.03,1.08.11,1.6.25.23.06.45.09.65.1,1.5-.66,2.99-1.36,4.45-2.08-2.5-.95-4.59-2.59-6.1-4.83-.17-.25-.33-.51-.47-.78l-2.35-4.49c-1.12-1.92-2.59-3.43-4.49-4.6-2.85-1.77-4.3-5.13-3.62-8.42.68-3.29,3.34-5.8,6.66-6.29,1.58-.23,3.18-.35,4.74-.35,4.66,0,9.2,1.05,13.5,3.11.16.08.32.16.48.25,4.01,2.27,6.93,5.58,8.68,9.83.07.17.13.34.19.52.53,1.58.73,3.22.62,4.85,4.78-3.72,9.25-7.86,13.4-12.41,1.57-1.72,3.73-2.61,5.92-2.61,1.56,0,3.13.46,4.51,1.39,3.29,2.25,4.43,6.58,2.66,10.15-8.05,16.28-20.03,29.26-35.63,38.59-1.11,1.83-2.73,3.23-4.73,4.09-.51.22-1.04.38-1.58.49-.69.14-1.39.21-2.08.21Z"/>
        <path class="cls-4" d="M189.12,68.1c-1.81,0-3.58-.5-5.12-1.45-.27-.17-.53-.35-.78-.55-2.69-2.14-4.87-4.67-6.5-7.51-.07-.13-.14-.26-.21-.39-1.25-2.51-1.51-5.24-.76-7.85,1.03-10.44,1.34-21.14.92-31.87-1.25-1.12-2.14-2.64-2.49-4.37l-.16-.79c-.62-3.1.65-6.28,3.23-8.1,3.22-2.27,6.78-3.42,10.58-3.42,1.07,0,2.17.1,3.26.28.3.05.61.12.9.21,3.54,1.05,6.66,3.01,9.27,5.84.04.05.09.1.13.15,2.95,3.37,3.17,7.99.58,11.6,1.09.32,2.17.66,3.25,1.04.13.04.26.09.39.15,5.09,2.07,8.97,5.83,11.2,10.86.08.19.16.38.23.58,1.5,4.25.74,8.75-2.09,12.36-.11.14-.22.27-.34.4-2.5,2.79-5.88,4.33-9.51,4.33-.78,0-1.58-.07-2.37-.21-.3-.05-.6-.12-.89-.21-.38-.11-.75-.24-1.11-.38.01.87.03,1.76.05,2.65.13,2.5,0,4.83-.39,6.92-.09.48-.22.95-.4,1.41-1.21,3.15-3.42,5.66-6.4,7.27-.5.27-1.02.48-1.56.64-.96.28-1.94.43-2.91.43Z"/>
        <path class="cls-1" d="M254.85,68.63c-.08,0-.17,0-.25,0-6.35-.2-12.06-2-17.04-5.37-.9,1.81-2.4,3.29-4.32,4.14-1.17.53-2.45.81-3.72.81-1.85,0-3.65-.57-5.2-1.66-.63-.44-1.19-.97-1.67-1.57l-5.59-7.01c-1.68-2.1-2.18-4.91-1.35-7.46.83-2.56,2.9-4.52,5.49-5.24l2.77-.76v-1.55c-2.44-.55-4.51-2.23-5.55-4.58l-1.16-2.64c-1.09-2.47-.85-5.33.62-7.59,1.48-2.26,4-3.63,6.7-3.63h.67c-.43-1.16-.68-2.41-.75-3.72,0-.08,0-.15,0-.23-.01-.65-.12-.95-.74-1.44-2.5-1.97-3.6-5.23-2.8-8.31s3.36-5.39,6.51-5.88c1.02-.16,2.05-.24,3.05-.24,2.74,0,5.41.58,7.93,1.74,1.3.59,2.5,1.31,3.61,2.14.26-.02.51-.04.77-.04.68,0,1.36.09,2.03.26l1.46.38,1.15-3.06c.86-2.29,2.72-4.06,5.05-4.8.8-.25,1.62-.38,2.43-.38,1.57,0,3.13.46,4.47,1.36l7.59,5.12c.81.55,1.52,1.24,2.08,2.04.36.21.7.44,1.03.69l5.2,3.6c.71.49,1.34,1.1,1.85,1.79,1.6,2.14,2.19,4.84,1.61,7.42-.28,1.23-.79,2.35-1.5,3.31v4.23c0,.23,0,.46-.02.69,2.41,2.15,3.46,5.28,2.82,8.4-.26,1.29-.79,2.48-1.53,3.49v3.87c1.43.88,2.58,2.21,3.23,3.84,1.21,3.04.45,6.52-1.93,8.77-1.38,1.31-2.5,2.83-3.43,4.67-1.36,2.69-4.12,4.38-7.14,4.38h-14.45Z"/>
        <path class="cls-2" d="M291.74,68.37c-3.22,0-6.12-1.35-8.11-3.7-.37.33-.73.66-1.11.98-1.5,1.28-3.35,1.93-5.21,1.93-1.76,0-3.52-.58-4.98-1.74-3-2.39-3.88-6.57-2.1-9.97,3.52-6.72,5.7-13.83,6.52-21.23-1.92-.8-3.49-2.34-4.31-4.34l-1.32-3.22c-1.01-2.47-.73-5.28.76-7.49,1.22-1.82,3.12-3.04,5.24-3.42v-7.05c0-2.4,1.08-4.67,2.94-6.19,1.44-1.18,3.23-1.81,5.06-1.81.53,0,1.06.05,1.59.16l8.6,1.74c.12.02.24.05.36.08,2.24.56,4.12,1.85,5.43,3.65,1.19-.65,2.52-.99,3.86-.99.77,0,1.54.11,2.3.34l6.72,2.02,1.22-.02c1.66-1.85,3.98-2.91,6.48-2.91,1.75,0,3.49.54,5.01,1.55.04.03,5.61,3.89,5.61,3.89,2.15,1.36,3.57,3.57,3.9,6.07.35,2.24-.15,4.46-1.4,6.25v32.42c0,3.64-2.04,6.85-5.33,8.37-.17.08-.35.16-.53.22l-4.59,1.73c-1.13.47-2.32.7-3.55.7-1.74,0-3.47-.49-5.03-1.42-.03-.02-.06-.04-.09-.05-.34-.21-.67-.44-.98-.69-.2.08-.41.16-.62.23l-4.17,1.36c-1.04.38-2.13.58-3.23.58-1.73,0-3.42-.48-4.94-1.4-.64.55-1.31,1.03-2,1.44-.16.09-.32.18-.49.26-2.18,1.09-4.55,1.65-7.05,1.68-.15,0-.3,0-.44,0Z"/>
      </g>
      <g>
        <path class="cls-8" d="M26.14,13.01c1.65-2.07,3.81-2.95,6.49-2.64,2.57.32,4.71,1.51,6.43,3.59.49.63.49,1.25,0,1.85l-.9,1.21c-.63.88-1.05,1.85-1.27,2.9l-.11,3.32,7.28-.53c1.41-.18,2.81-.49,4.22-.95,1.12-.35,2.14-.35,3.06,0,2.46.95,4.41,2.51,5.85,4.69.25.42.26.88.05,1.37-.18.49-.53.79-1.05.9-1.41.7-2.95.86-4.64.47-4.78-1.05-9.7-1.19-14.77-.42-.46,7.24-.4,14.42.16,21.52.11,1.83-.33,3.5-1.32,5.01-1.44,2.21-3.43,3.69-5.96,4.43-.63.18-1.25.15-1.85-.08-.6-.23-1.05-.62-1.37-1.19-1.83-3.48-4.64-5.78-8.44-6.91,2.53.53,5.12.83,7.75.9.88.11,1.6-.18,2.16-.84.63-.53.9-1.23.79-2.11l-.26-19.46c-2.46.21-4.71.83-6.75,1.85,1.05,2.92,1.53,5.89,1.42,8.91,0,2.57-.84,4.85-2.53,6.86-1.69,1.44-3.62,2.09-5.8,1.95-1.16.14-2.21-.16-3.16-.9s-1.49-1.69-1.63-2.85c-.28-2,.42-3.57,2.11-4.69,2.74-1.19,5.17-2.9,7.28-5.12.98-1.09,1.39-2.35,1.21-3.8l-2.79.74c-.53.21-1.12.16-1.79-.16-3.62-1.58-6.29-4.17-8.02-7.75,2.99.92,5.99,1.16,9.02.74l11.6-1.74-.16-7.49c-.14-1.51-.91-2.71-2.32-3.59ZM38.8,31.2c4.96.53,9.28,2.57,12.97,6.12,2.53,2.53,3.46,5.56,2.79,9.07-.49,2.11-1.72,3.53-3.69,4.27-1.05.42-2.07.35-3.06-.21-1.05-.49-1.69-1.32-1.9-2.48-.25-2.18-.72-4.55-1.42-7.12-.84-3.8-2.74-7.01-5.7-9.65ZM51.45,8c1.62,0,3.01.59,4.19,1.77,1.18,1.18,1.78,2.58,1.82,4.19,0,1.62-.61,3.01-1.82,4.19-1.21,1.18-2.61,1.77-4.19,1.77s-3.02-.6-4.22-1.79c-1.2-1.19-1.78-2.6-1.74-4.22.04-1.62.64-3.01,1.82-4.17s2.56-1.74,4.14-1.74ZM49.08,11.48c-.7.67-1.07,1.47-1.11,2.4-.04.93.31,1.76,1.03,2.48.72.72,1.55,1.08,2.48,1.08s1.75-.35,2.45-1.05c.7-.7,1.05-1.52,1.05-2.45s-.34-1.75-1.03-2.45c-.69-.7-1.49-1.05-2.43-1.05s-1.75.35-2.45,1.05Z"/>
        <path class="cls-8" d="M94.64,13.22c-.11-.18-.12-.35-.05-.53.04-.21.18-.33.42-.37,1.65-.42,3.29-.32,4.9.32,3.06,1.34,5.33,3.59,6.8,6.75.18.42.16.83-.05,1.21-.14.35-.46.58-.95.69l-1.95.53-9.7,7.8c.91.21,1.74.63,2.48,1.27.21.18.37.4.47.69,0,.35-.11.62-.32.79l-.95,1.53c0,7.8.23,15.35.69,22.62-.04.81-.39,1.51-1.05,2.11-.7.56-1.48.79-2.32.69-1.27-.11-2.41-.51-3.43-1.21-1.02-.7-1.83-1.62-2.43-2.74-.32-.81-.4-1.6-.26-2.37,1.09-6.29,1.3-12.67.63-19.14-8.23,4.78-17.02,7.82-26.37,9.12,14.06-5.45,25.47-14.36,34.22-26.74.56-.84.51-1.62-.16-2.32l-.63-.69Z"/>
        <path class="cls-8" d="M119.53,15.22c4.75-.7,9.28-.02,13.61,2.06,2.43,1.37,4.17,3.34,5.22,5.91.35,1.05.32,2.13-.08,3.22-.4,1.09-1.12,1.9-2.14,2.43-1.13.74-2.37.96-3.74.66-1.37-.3-2.43-.99-3.16-2.08l-2.43-4.64c-1.79-3.13-4.22-5.64-7.28-7.54ZM120.59,46.39l1,.05c1.62.42,3.22.47,4.8.16,15.19-6.5,28.35-15.87,39.5-28.11-7.59,15.36-18.84,27.35-33.75,35.96-.67.49-1.16,1.12-1.48,1.9-.25.46-.62.79-1.11,1-.53.11-1.02.05-1.48-.16-4.08-2.46-6.57-6.06-7.49-10.81Z"/>
        <path class="cls-8" d="M182.02,12.54l-.16-.79c2.39-1.69,5.01-2.29,7.86-1.79,2.14.63,4.03,1.83,5.64,3.59.49.56.51,1.14.05,1.74l-1.79,1.9c-.46,2.88-.65,5.84-.58,8.86,3.23.53,6.42,1.34,9.54,2.43,3.2,1.3,5.5,3.53,6.91,6.7.6,1.69.32,3.27-.84,4.75-1.23,1.37-2.74,1.9-4.54,1.58-1.3-.39-2.41-1.09-3.32-2.11-.92-1.02-1.51-2.21-1.79-3.59-.28-1.72-.98-3.25-2.11-4.59-1.13-1.34-2.51-2.27-4.17-2.79-.14,6.93-.12,14.7.05,23.31.11,1.93.02,3.66-.26,5.17-.53,1.37-1.44,2.41-2.74,3.11-.6.18-1.13.12-1.58-.16-1.9-1.51-3.41-3.25-4.54-5.22-.42-.84-.44-1.69-.05-2.53,1.27-12.27,1.56-24.71.9-37.34-.14-.6-.43-1.1-.87-1.5-.44-.4-.98-.64-1.61-.71Z"/>
        <path class="cls-8" d="M223.31,52.98l8.65-2.37v-15.45h-6.22l-1.16-2.64h7.38l1.48-2.53c.49-.56,1.02-.65,1.58-.26l6.01,4.01c.35.32.46.69.32,1.11,0,.42-.25.69-.74.79-.63.28-.98.79-1.05,1.53v11.6c.98,1.05,2.07,1.93,3.27,2.64V16.54l8.44,2.21,3.69-9.81,7.59,5.12c.21.32.28.65.21,1-.21.35-.49.53-.84.53-.77.07-1.51.3-2.21.69l-4.96,3.27h6.86l1.79-2.85c.21-.25.53-.4.95-.47.42,0,.74.11.95.32l5.48,3.8c.21.28.28.58.21.9-.07.32-.28.53-.63.63-.7.18-1.05.65-1.05,1.42v7.22c0,.67-.32,1.16-.95,1.48l-5.27,1.16c-.28.11-.6.04-.95-.21-.28-.18-.42-.44-.42-.79v-1h-10.86v5.33h12.02l1.69-2.27c.56-.49,1.16-.6,1.79-.32l5.59,3.27c.28.25.39.53.32.84-.07.39-.28.62-.63.69-.63.11-.98.46-1.05,1.05v9.65c0,.46-.14.81-.42,1.05-.28.28-.6.42-.95.42l-5.17.9c-.42.11-.74.04-.95-.21-.28-.18-.46-.44-.53-.79v-1.63h-11.71v1.21c-.07.77-.49,1.21-1.27,1.32l-4.75.79c2.18.88,4.46,1.32,6.86,1.32h22.68c-2.04,1.93-3.73,4.22-5.06,6.86h-14.45c-6.82-.21-12.59-2.83-17.3-7.86l-6.54,5.22c-.35.32-.53.74-.53,1.27,0,.42-.18.7-.53.84-.35.18-.7.14-1.05-.11l-5.59-7.01ZM228.69,12.85c2.25-.35,4.39-.06,6.43.87,2.04.93,3.66,2.35,4.85,4.25.84,1.2.98,2.44.42,3.74-.49,1.34-1.41,2.16-2.74,2.48-1.34.35-2.5.14-3.48-.63-1.05-.74-1.62-1.79-1.69-3.16-.07-3.09-1.34-5.61-3.8-7.54ZM250.84,22.29v6.22h10.86v-6.22h-10.86ZM250.84,39.27v7.65h11.71v-7.65h-11.71Z"/>
        <path class="cls-8" d="M278.53,24.03h6.59v-14.92l8.6,1.74c.56.14.95.51,1.16,1.11.21.6.09,1.11-.37,1.53l-1.85,1.32v9.23h2.79l1.42-1.95c.39-.42.79-.51,1.21-.26l6.01,4.48c.21.18.32.4.32.69s-.09.55-.26.79l-1.32.9c.39,7.95-.49,15.79-2.64,23.52-.63,2.04-1.56,3.97-2.79,5.8-.56.67-1.14,1.18-1.74,1.53-1.13.56-2.36.84-3.69.84-1.2.07-2.06-.39-2.58-1.37-.25-.46-.44-.88-.58-1.27-1.02-2.46-2.79-4.04-5.33-4.75-1.9,2.5-3.96,4.69-6.17,6.59,5.31-10.12,7.91-20.9,7.8-32.33h-5.27l-1.32-3.22ZM292.66,27.25c-.32,9.25-3.2,17.6-8.65,25.05,1.55.74,3.23,1.2,5.06,1.37.53.07,1.05-.03,1.58-.32.67-.28,1.19-.72,1.58-1.32.28-.28.46-.61.53-1,1.79-7.8,2.6-15.73,2.43-23.78h-2.53ZM304.95,13.75l7.91,2.37,6.38-.11,1.74-2.37c.32-.53.74-.61,1.27-.26l5.7,3.96c.21.11.32.26.32.47.07.28.03.49-.11.63l-1.37,1.9v35.02c0,.53-.23.9-.69,1.11l-4.75,1.79c-.46.21-.95.16-1.48-.16-.46-.28-.72-.7-.79-1.27v-2.79h-6.22v.69c0,.91-.42,1.62-1.27,2.11l-4.38,1.42c-.49.21-.98.14-1.48-.21-.46-.25-.72-.65-.79-1.21V13.75ZM312.86,19.02v32.38h6.22V19.02h-6.22Z"/>
      </g>
      <g>
        <path class="cls-3" d="M26.14,13.01c1.65-2.07,3.81-2.95,6.49-2.64,2.57.32,4.71,1.51,6.43,3.59.49.63.49,1.25,0,1.85l-.9,1.21c-.63.88-1.05,1.85-1.27,2.9l-.11,3.32,7.28-.53c1.41-.18,2.81-.49,4.22-.95,1.12-.35,2.14-.35,3.06,0,2.46.95,4.41,2.51,5.85,4.69.25.42.26.88.05,1.37-.18.49-.53.79-1.05.9-1.41.7-2.95.86-4.64.47-4.78-1.05-9.7-1.19-14.77-.42-.46,7.24-.4,14.42.16,21.52.11,1.83-.33,3.5-1.32,5.01-1.44,2.21-3.43,3.69-5.96,4.43-.63.18-1.25.15-1.85-.08-.6-.23-1.05-.62-1.37-1.19-1.83-3.48-4.64-5.78-8.44-6.91,2.53.53,5.12.83,7.75.9.88.11,1.6-.18,2.16-.84.63-.53.9-1.23.79-2.11l-.26-19.46c-2.46.21-4.71.83-6.75,1.85,1.05,2.92,1.53,5.89,1.42,8.91,0,2.57-.84,4.85-2.53,6.86-1.69,1.44-3.62,2.09-5.8,1.95-1.16.14-2.21-.16-3.16-.9s-1.49-1.69-1.63-2.85c-.28-2,.42-3.57,2.11-4.69,2.74-1.19,5.17-2.9,7.28-5.12.98-1.09,1.39-2.35,1.21-3.8l-2.79.74c-.53.21-1.12.16-1.79-.16-3.62-1.58-6.29-4.17-8.02-7.75,2.99.92,5.99,1.16,9.02.74l11.6-1.74-.16-7.49c-.14-1.51-.91-2.71-2.32-3.59ZM38.8,31.2c4.96.53,9.28,2.57,12.97,6.12,2.53,2.53,3.46,5.56,2.79,9.07-.49,2.11-1.72,3.53-3.69,4.27-1.05.42-2.07.35-3.06-.21-1.05-.49-1.69-1.32-1.9-2.48-.25-2.18-.72-4.55-1.42-7.12-.84-3.8-2.74-7.01-5.7-9.65ZM51.45,8c1.62,0,3.01.59,4.19,1.77,1.18,1.18,1.78,2.58,1.82,4.19,0,1.62-.61,3.01-1.82,4.19-1.21,1.18-2.61,1.77-4.19,1.77s-3.02-.6-4.22-1.79c-1.2-1.19-1.78-2.6-1.74-4.22.04-1.62.64-3.01,1.82-4.17s2.56-1.74,4.14-1.74ZM49.08,11.48c-.7.67-1.07,1.47-1.11,2.4-.04.93.31,1.76,1.03,2.48.72.72,1.55,1.08,2.48,1.08s1.75-.35,2.45-1.05c.7-.7,1.05-1.52,1.05-2.45s-.34-1.75-1.03-2.45c-.69-.7-1.49-1.05-2.43-1.05s-1.75.35-2.45,1.05Z"/>
        <path class="cls-3" d="M94.64,13.22c-.11-.18-.12-.35-.05-.53.04-.21.18-.33.42-.37,1.65-.42,3.29-.32,4.9.32,3.06,1.34,5.33,3.59,6.8,6.75.18.42.16.83-.05,1.21-.14.35-.46.58-.95.69l-1.95.53-9.7,7.8c.91.21,1.74.63,2.48,1.27.21.18.37.4.47.69,0,.35-.11.62-.32.79l-.95,1.53c0,7.8.23,15.35.69,22.62-.04.81-.39,1.51-1.05,2.11-.7.56-1.48.79-2.32.69-1.27-.11-2.41-.51-3.43-1.21-1.02-.7-1.83-1.62-2.43-2.74-.32-.81-.4-1.6-.26-2.37,1.09-6.29,1.3-12.67.63-19.14-8.23,4.78-17.02,7.82-26.37,9.12,14.06-5.45,25.47-14.36,34.22-26.74.56-.84.51-1.62-.16-2.32l-.63-.69Z"/>
        <path class="cls-3" d="M119.53,15.22c4.75-.7,9.28-.02,13.61,2.06,2.43,1.37,4.17,3.34,5.22,5.91.35,1.05.32,2.13-.08,3.22-.4,1.09-1.12,1.9-2.14,2.43-1.13.74-2.37.96-3.74.66-1.37-.3-2.43-.99-3.16-2.08l-2.43-4.64c-1.79-3.13-4.22-5.64-7.28-7.54ZM120.59,46.39l1,.05c1.62.42,3.22.47,4.8.16,15.19-6.5,28.35-15.87,39.5-28.11-7.59,15.36-18.84,27.35-33.75,35.96-.67.49-1.16,1.12-1.48,1.9-.25.46-.62.79-1.11,1-.53.11-1.02.05-1.48-.16-4.08-2.46-6.57-6.06-7.49-10.81Z"/>
        <path class="cls-3" d="M182.02,12.54l-.16-.79c2.39-1.69,5.01-2.29,7.86-1.79,2.14.63,4.03,1.83,5.64,3.59.49.56.51,1.14.05,1.74l-1.79,1.9c-.46,2.88-.65,5.84-.58,8.86,3.23.53,6.42,1.34,9.54,2.43,3.2,1.3,5.5,3.53,6.91,6.7.6,1.69.32,3.27-.84,4.75-1.23,1.37-2.74,1.9-4.54,1.58-1.3-.39-2.41-1.09-3.32-2.11-.92-1.02-1.51-2.21-1.79-3.59-.28-1.72-.98-3.25-2.11-4.59-1.13-1.34-2.51-2.27-4.17-2.79-.14,6.93-.12,14.7.05,23.31.11,1.93.02,3.66-.26,5.17-.53,1.37-1.44,2.41-2.74,3.11-.6.18-1.13.12-1.58-.16-1.9-1.51-3.41-3.25-4.54-5.22-.42-.84-.44-1.69-.05-2.53,1.27-12.27,1.56-24.71.9-37.34-.14-.6-.43-1.1-.87-1.5-.44-.4-.98-.64-1.61-.71Z"/>
        <path class="cls-3" d="M223.31,52.98l8.65-2.37v-15.45h-6.22l-1.16-2.64h7.38l1.48-2.53c.49-.56,1.02-.65,1.58-.26l6.01,4.01c.35.32.46.69.32,1.11,0,.42-.25.69-.74.79-.63.28-.98.79-1.05,1.53v11.6c.98,1.05,2.07,1.93,3.27,2.64V16.54l8.44,2.21,3.69-9.81,7.59,5.12c.21.32.28.65.21,1-.21.35-.49.53-.84.53-.77.07-1.51.3-2.21.69l-4.96,3.27h6.86l1.79-2.85c.21-.25.53-.4.95-.47.42,0,.74.11.95.32l5.48,3.8c.21.28.28.58.21.9-.07.32-.28.53-.63.63-.7.18-1.05.65-1.05,1.42v7.22c0,.67-.32,1.16-.95,1.48l-5.27,1.16c-.28.11-.6.04-.95-.21-.28-.18-.42-.44-.42-.79v-1h-10.86v5.33h12.02l1.69-2.27c.56-.49,1.16-.6,1.79-.32l5.59,3.27c.28.25.39.53.32.84-.07.39-.28.62-.63.69-.63.11-.98.46-1.05,1.05v9.65c0,.46-.14.81-.42,1.05-.28.28-.6.42-.95.42l-5.17.9c-.42.11-.74.04-.95-.21-.28-.18-.46-.44-.53-.79v-1.63h-11.71v1.21c-.07.77-.49,1.21-1.27,1.32l-4.75.79c2.18.88,4.46,1.32,6.86,1.32h22.68c-2.04,1.93-3.73,4.22-5.06,6.86h-14.45c-6.82-.21-12.59-2.83-17.3-7.86l-6.54,5.22c-.35.32-.53.74-.53,1.27,0,.42-.18.7-.53.84-.35.18-.7.14-1.05-.11l-5.59-7.01ZM228.69,12.85c2.25-.35,4.39-.06,6.43.87,2.04.93,3.66,2.35,4.85,4.25.84,1.2.98,2.44.42,3.74-.49,1.34-1.41,2.16-2.74,2.48-1.34.35-2.5.14-3.48-.63-1.05-.74-1.62-1.79-1.69-3.16-.07-3.09-1.34-5.61-3.8-7.54ZM250.84,22.29v6.22h10.86v-6.22h-10.86ZM250.84,39.27v7.65h11.71v-7.65h-11.71Z"/>
        <path class="cls-3" d="M278.53,24.03h6.59v-14.92l8.6,1.74c.56.14.95.51,1.16,1.11.21.6.09,1.11-.37,1.53l-1.85,1.32v9.23h2.79l1.42-1.95c.39-.42.79-.51,1.21-.26l6.01,4.48c.21.18.32.4.32.69s-.09.55-.26.79l-1.32.9c.39,7.95-.49,15.79-2.64,23.52-.63,2.04-1.56,3.97-2.79,5.8-.56.67-1.14,1.18-1.74,1.53-1.13.56-2.36.84-3.69.84-1.2.07-2.06-.39-2.58-1.37-.25-.46-.44-.88-.58-1.27-1.02-2.46-2.79-4.04-5.33-4.75-1.9,2.5-3.96,4.69-6.17,6.59,5.31-10.12,7.91-20.9,7.8-32.33h-5.27l-1.32-3.22ZM292.66,27.25c-.32,9.25-3.2,17.6-8.65,25.05,1.55.74,3.23,1.2,5.06,1.37.53.07,1.05-.03,1.58-.32.67-.28,1.19-.72,1.58-1.32.28-.28.46-.61.53-1,1.79-7.8,2.6-15.73,2.43-23.78h-2.53ZM304.95,13.75l7.91,2.37,6.38-.11,1.74-2.37c.32-.53.74-.61,1.27-.26l5.7,3.96c.21.11.32.26.32.47.07.28.03.49-.11.63l-1.37,1.9v35.02c0,.53-.23.9-.69,1.11l-4.75,1.79c-.46.21-.95.16-1.48-.16-.46-.28-.72-.7-.79-1.27v-2.79h-6.22v.69c0,.91-.42,1.62-1.27,2.11l-4.38,1.42c-.49.21-.98.14-1.48-.21-.46-.25-.72-.65-.79-1.21V13.75ZM312.86,19.02v32.38h6.22V19.02h-6.22Z"/>
      </g>
    </g>
  </g>
</svg>