<?xml version="1.0" encoding="UTF-8"?>
<svg id="_レイヤー_2" data-name="レイヤー 2" xmlns="http://www.w3.org/2000/svg" xmlns:xlink="http://www.w3.org/1999/xlink" viewBox="0 0 388.64 67.28">
  <defs>
    <style>
      .cls-1 {
        fill: url(#_名称未設定グラデーション_120-5);
      }

      .cls-2 {
        fill: url(#_名称未設定グラデーション_120-6);
      }

      .cls-3 {
        fill: #fff;
      }

      .cls-4 {
        fill: url(#_名称未設定グラデーション_120-4);
      }

      .cls-5 {
        fill: url(#_名称未設定グラデーション_120-2);
      }

      .cls-6 {
        fill: url(#_名称未設定グラデーション_120-3);
      }

      .cls-7 {
        fill: url(#_名称未設定グラデーション_120);
      }

      .cls-8 {
        fill: none;
        stroke: #000;
        stroke-width: 6px;
      }

      .cls-9 {
        fill: url(#_名称未設定グラデーション_120-7);
      }
    </style>
    <linearGradient id="_名称未設定グラデーション_120" data-name="名称未設定グラデーション 120" x1="28.74" y1="67.28" x2="28.74" y2="0" gradientUnits="userSpaceOnUse">
      <stop offset="0" stop-color="#945700"/>
      <stop offset=".19" stop-color="#e9a900"/>
      <stop offset=".29" stop-color="#f5f8b4"/>
      <stop offset=".4" stop-color="#e9a900"/>
      <stop offset="1" stop-color="#fff87f"/>
    </linearGradient>
    <linearGradient id="_名称未設定グラデーション_120-2" data-name="名称未設定グラデーション 120" x1="86.58" x2="86.58" xlink:href="#_名称未設定グラデーション_120"/>
    <linearGradient id="_名称未設定グラデーション_120-3" data-name="名称未設定グラデーション 120" x1="140.47" x2="140.47" xlink:href="#_名称未設定グラデーション_120"/>
    <linearGradient id="_名称未設定グラデーション_120-4" data-name="名称未設定グラデーション 120" x1="195.24" x2="195.24" xlink:href="#_名称未設定グラデーション_120"/>
    <linearGradient id="_名称未設定グラデーション_120-5" data-name="名称未設定グラデーション 120" x1="249.49" x2="249.49" xlink:href="#_名称未設定グラデーション_120"/>
    <linearGradient id="_名称未設定グラデーション_120-6" data-name="名称未設定グラデーション 120" x1="302.98" x2="302.98" xlink:href="#_名称未設定グラデーション_120"/>
    <linearGradient id="_名称未設定グラデーション_120-7" data-name="名称未設定グラデーション 120" x1="356.45" x2="356.45" xlink:href="#_名称未設定グラデーション_120"/>
  </defs>
  <g id="_レイヤー_1-2" data-name="レイヤー 1">
    <g>
      <g>
        <path class="cls-3" d="M36.21,13.39c2.46-.7,4.91-.58,7.36.37s4.33,2.51,5.67,4.69c.25.35.3.76.16,1.21-.11.39-.35.69-.74.9l-2.11,1.37-5.01,10.12c2.11,1.62,3.66,3.74,4.64,6.38.49,1.37.37,2.71-.37,4.01-.77,1.23-1.88,1.97-3.32,2.21-1.86.21-3.39-.44-4.59-1.95l-1.16-1.63c-7.59,8.96-17.17,14.61-28.74,16.93,10.09-5.98,18.12-14.08,24.1-24.31-3.66-3.66-7.65-6.73-11.97-9.23,4.99.49,9.86,1.65,14.61,3.48,1.9-3.51,3.13-7.29,3.69-11.34.18-.7-.05-1.3-.69-1.79l-1.53-1.42Z"/>
        <path class="cls-3" d="M61.05,29.79c5.13.77,10.3.95,15.5.53l11.71-.63,12.23-.32,2.32-.53c.7-.28,1.48-.21,2.32.21,2.25,1.41,4.36,2.85,6.33,4.32.42.42.63.93.63,1.53s-.21,1.11-.63,1.53c-.84.77-1.83,1.05-2.95.84-11.39-2.53-22.75-2.43-34.07.32-.84.28-1.58.67-2.21,1.16-.56.49-1.27.6-2.11.32-4.08-1.97-7.1-5.06-9.07-9.28Z"/>
        <path class="cls-3" d="M123.65,20.62c1.44-1.55,3.27-2.13,5.48-1.74,2.64.39,4.76,1.65,6.38,3.8.35.53.47,1.12.34,1.77-.12.65-.47,1.15-1.03,1.5.21,6.57-1.04,12.76-3.74,18.56-1.65,2.99-3.8,5.52-6.43,7.59-2.64,2.08-5.61,3.59-8.91,4.54,4.11-4.36,7.07-9.33,8.86-14.9,1.79-5.57,2.34-11.33,1.63-17.27-.11-1.05-.56-1.99-1.37-2.79l-1.21-1.05ZM135.2,13.92c1.69-1.19,3.55-1.69,5.59-1.48,2.99.56,5.47,1.93,7.44,4.11.74.74.79,1.55.16,2.43-.42.56-.69,1.2-.79,1.9l-1.16,19.72c8.12-4.11,14.38-10.16,18.77-18.14-1.09,5.62-3.11,10.83-6.06,15.61-2.95,4.78-6.7,8.91-11.23,12.39-.53.53-.79,1.16-.79,1.9,0,.25-.12.44-.37.58-.28.18-.55.18-.79,0-3.13-1.86-5.85-3.99-8.17-6.38-.32-.42-.33-.84-.05-1.27.84-1.65,1.16-3.34.95-5.06l-.63-22.04c-.07-1.19-.47-2.2-1.21-3.01l-1.63-1.27Z"/>
        <path class="cls-3" d="M187.09,12.44c1.65-2.07,3.81-2.95,6.49-2.64,2.53.32,4.66,1.51,6.38,3.59.6.6.6,1.23,0,1.9l-.84,1.16c-.63.88-1.07,1.85-1.32,2.9l-.11,3.32,7.33-.53c1.41-.14,2.81-.46,4.22-.95,1.09-.35,2.11-.35,3.06,0,2.46.95,4.39,2.51,5.8,4.69.32.46.33.92.05,1.37-.18.49-.51.79-1,.9-1.41.7-2.95.88-4.64.53-4.78-1.09-9.72-1.25-14.82-.47-.42,7.24-.37,14.42.16,21.52.14,1.83-.28,3.5-1.27,5.01-1.44,2.25-3.45,3.73-6.01,4.43-.6.18-1.2.15-1.79-.08-.6-.23-1.05-.61-1.37-1.13-1.83-3.51-4.64-5.83-8.44-6.96,2.53.53,5.1.83,7.7.9.91.11,1.63-.18,2.16-.84.67-.53.95-1.21.84-2.06l-.26-19.51c-2.46.21-4.71.83-6.75,1.85,1.02,2.92,1.48,5.89,1.37,8.91,0,2.57-.84,4.85-2.53,6.86-1.65,1.44-3.57,2.11-5.75,2-1.16.11-2.21-.21-3.16-.95s-1.51-1.69-1.69-2.85c-.28-1.97.42-3.53,2.11-4.69,2.74-1.19,5.19-2.88,7.33-5.06.95-1.12,1.34-2.41,1.16-3.85l-2.74.74c-.53.21-1.14.16-1.85-.16-3.59-1.58-6.24-4.17-7.96-7.75,2.99.92,5.99,1.16,9.02.74l11.6-1.74-.16-7.49c-.14-1.51-.92-2.71-2.32-3.59ZM199.69,30.64c4.99.53,9.33,2.57,13.03,6.12,2.53,2.53,3.45,5.56,2.74,9.07-.46,2.14-1.67,3.57-3.64,4.27-1.05.42-2.09.35-3.11-.21-1.02-.49-1.65-1.32-1.9-2.48-.25-2.18-.7-4.55-1.37-7.12-.88-3.8-2.79-7.01-5.75-9.65ZM203.54,10.44c2.04-.63,4.07-.57,6.09.18,2.02.76,3.59,2.07,4.72,3.93.46.92.51,1.86.16,2.85-.35.88-1,1.53-1.95,1.95-.81.32-1.61.3-2.4-.05-.79-.35-1.34-.91-1.66-1.69l-1.42-3.69c-.7-1.69-1.88-2.85-3.53-3.48ZM210.03,8.59c1.86-.67,3.74-.77,5.64-.32,1.9.46,3.53,1.41,4.9,2.85.6.63.91,1.4.95,2.29.03.9-.23,1.7-.79,2.4-.56.6-1.27.9-2.14.9s-1.57-.28-2.14-.84c-.81-.95-1.34-2.02-1.58-3.22-.32-1.09-.92-2-1.79-2.74-.88-.74-1.9-1.18-3.06-1.32Z"/>
        <path class="cls-3" d="M234.02,31.64c2.81-.28,5.29.53,7.44,2.43.91.74,1.53,1.71,1.85,2.93s.25,2.38-.21,3.51c-.42.6-1.01,1-1.77,1.21-.76.21-1.47.18-2.14-.11-1.72-1.12-2.53-2.72-2.43-4.8-.18-2.07-1.09-3.8-2.74-5.17ZM256.33,28c.95-.6,1.95-.7,3.01-.32,2.25,1.02,4.08,2.48,5.48,4.38.07.11.11.26.11.47-.04.14-.12.28-.26.42l-1.05.84c-1.3,6.33-4.32,11.72-9.07,16.16-4.75,4.45-10.32,7.13-16.72,8.04,4.99-2.46,9.18-5.81,12.55-10.05,3.38-4.24,5.71-9.03,7.01-14.37.39-2.07.03-3.94-1.05-5.59ZM241.88,26.58c2.95-.32,5.62.47,8.02,2.37.91.7,1.55,1.63,1.9,2.77.35,1.14.33,2.28-.05,3.4-.56.84-1.32,1.35-2.27,1.53-.98.11-1.86-.18-2.64-.84-.95-1.16-1.53-2.51-1.74-4.06-.28-2.21-1.35-3.94-3.22-5.17Z"/>
        <path class="cls-3" d="M295.93,10.91c2.29-1.23,4.62-1.37,7.01-.42,2.11.81,3.8,2.08,5.06,3.8.35.39.51.84.47,1.34-.04.51-.26.92-.69,1.24l-1.05,1.16-1.95,3.32c3.51-.35,7.1-.91,10.76-1.69l1.74-1.37c.67-.35,1.28-.3,1.85.16l6.01,4.69c.53.6.51,1.18-.05,1.74l-1.69,1.42c-2.95,5.87-6.61,11.21-10.97,16.03-8.96,8.61-19.64,13.83-32.01,15.66,9.49-4.46,17.75-10.46,24.79-17.98,4.39-4.36,7.26-9.6,8.6-15.71l-7.07,1.69c-1.83.46-3.6.39-5.33-.21-5.52,6.47-12.23,11.25-20.14,14.34,6.86-6.64,12.15-14.41,15.87-23.31.49-1.34.49-2.69,0-4.06l-1.21-1.85Z"/>
        <path class="cls-3" d="M337.75,17.24l.53-.21c1.55.77,3.18,1.11,4.9,1l17.24-3.11,2.58-2.95c.56-.46,1.21-.56,1.95-.32,2.78,1.41,5.24,3.2,7.38,5.38.21.25.32.56.32.95-.07.39-.23.65-.47.79l-2.11,1.37c-2.36,6.29-5.4,12.32-9.12,18.09,6.36,1.65,12.16,4.4,17.4,8.23,1.19,1.05,1.92,2.39,2.19,4.01.26,1.62-.03,3.11-.87,4.48-.46.98-1.19,1.67-2.19,2.06-1,.39-2.01.37-3.03-.05-1.69-.88-2.94-2.25-3.74-4.11-2.43-5.34-6.17-9.4-11.23-12.18-7.38,8.23-16.45,13.9-27.21,17.03,7.49-4.96,14.04-11.02,19.67-18.19,4.5-5.8,7.24-12.34,8.23-19.62-4.01.7-7.75,1.67-11.23,2.9-.95.42-1.83,1.04-2.64,1.85-.81.63-1.72.77-2.74.42-1.69-.56-3.07-1.56-4.14-2.98-1.07-1.42-1.63-3.03-1.66-4.83Z"/>
      </g>
      <g>
        <path class="cls-7" d="M8,66.01c-3.26,0-6.26-2-7.46-5.14-1.4-3.64.04-7.76,3.39-9.75,7-4.14,12.93-9.52,17.7-16.02-1.76-1.37-3.6-2.61-5.5-3.7-3.26-1.88-4.77-5.79-3.62-9.38,1.07-3.33,4.17-5.55,7.61-5.55.26,0,.53.01.79.04,2.94.29,5.87.79,8.76,1.49-1.31-1.86-1.78-4.21-1.24-6.47.67-2.81,2.81-5.03,5.58-5.82,1.76-.5,3.55-.76,5.33-.76,2.4,0,4.79.46,7.12,1.36,4.05,1.57,7.25,4.21,9.51,7.83,1.49,2.29,1.89,5.1,1.1,7.76-.66,2.3-2.15,4.23-4.22,5.47l-.11.07-1.61,3.26c1.02,1.5,1.87,3.15,2.54,4.94.01.03.02.06.04.09,1.28,3.56.94,7.34-.94,10.66-.06.1-.12.2-.18.3-1.98,3.15-5.09,5.22-8.76,5.85-.15.02-.29.05-.44.06-.52.06-1.05.09-1.57.09-1.55,0-3.04-.27-4.43-.78-7.79,7.11-17.11,11.78-27.81,13.93-.53.11-1.06.16-1.58.16Z"/>
        <path class="cls-5" d="M70.99,47.23c-1.13,0-2.28-.19-3.4-.57-.32-.11-.63-.24-.94-.38-5.76-2.78-10.08-7.19-12.84-13.1-1.25-2.67-.92-5.81.84-8.17,1.52-2.04,3.91-3.21,6.41-3.21.4,0,.79.03,1.19.09,2.91.44,5.88.66,8.82.66,1.6,0,3.24-.07,4.85-.2.07,0,12.07-.65,12.15-.66l11.44-.3,1.15-.26c.99-.3,2.01-.46,3.05-.46,1.71,0,3.4.41,5.02,1.22.23.11.45.24.66.37,2.43,1.52,4.75,3.1,6.89,4.71.3.23.59.48.86.74,1.92,1.92,2.98,4.47,2.98,7.19s-1.06,5.27-2.98,7.19c-.08.08-.17.16-.25.24-2.15,1.97-4.8,3.01-7.65,3.01-.72,0-1.45-.07-2.18-.21-.09-.02-.17-.03-.26-.05-4.87-1.08-9.8-1.63-14.64-1.63s-10.14.59-15.18,1.77c-1.71,1.3-3.8,2-5.96,2Z"/>
        <path class="cls-6" d="M115.74,64.64c-2.74,0-5.35-1.41-6.83-3.84-1.88-3.08-1.46-7.03,1.01-9.65,3.31-3.51,5.62-7.39,7.06-11.86,1.32-4.11,1.79-8.25,1.43-12.62h-.02c-1.64-1.44-2.63-3.46-2.74-5.63s.66-4.29,2.14-5.87c2.68-2.88,6.16-4.4,10.05-4.4.57-1.34,1.51-2.51,2.73-3.37,2.77-1.96,5.99-2.99,9.31-2.99.57,0,1.15.03,1.73.09.22.02.44.05.66.1,4.68.88,8.64,3.06,11.78,6.49,3.12,3.25,3.65,7.78,1.45,11.62v.16c.97-1.33,1.87-2.74,2.7-4.25,1.44-2.62,4.16-4.14,7.01-4.14.91,0,1.83.15,2.72.48,3.7,1.34,5.88,5.18,5.13,9.04-1.27,6.55-3.66,12.71-7.11,18.29-3.05,4.94-6.86,9.33-11.36,13.09-.68,1.83-1.97,3.4-3.74,4.45-1.38.83-2.93,1.26-4.51,1.26s-3.24-.47-4.63-1.35c-2.79-1.67-5.34-3.55-7.62-5.61-1.36,1.56-2.86,2.99-4.49,4.28-3.44,2.71-7.36,4.7-11.65,5.94-.73.21-1.48.31-2.21.31Z"/>
        <path class="cls-4" d="M189.79,67.28c-1.32,0-2.62-.24-3.87-.72-2.28-.87-4.14-2.43-5.37-4.49-.08-.14-.16-.28-.24-.42-.82-1.58-1.9-2.48-3.61-2.98-1.15-.34-2.16-.91-3-1.66-2.17-.29-4.22-1.15-6.01-2.55-2.58-2.01-4.2-4.76-4.69-7.96-.63-4.41.81-8.42,3.98-11.29-2.13-2-3.88-4.41-5.23-7.22-1.38-2.86-.93-6.27,1.15-8.68,1.54-1.8,3.77-2.78,6.07-2.78.78,0,1.57.11,2.34.35,1.29.4,2.54.59,3.81.59.58,0,1.17-.04,1.76-.12l3.52-.53c-.59-.9-.99-1.93-1.18-3.01-.38-2.25.21-4.55,1.63-6.34,2.94-3.69,7.09-5.71,11.71-5.71.65,0,1.31.04,1.98.12,1.87.23,3.64.74,5.29,1.5.43-.23.89-.42,1.37-.57,1.41-.44,2.85-.7,4.28-.77.57-.4,1.2-.72,1.88-.97,1.97-.7,4-1.06,6.03-1.06,1.39,0,2.79.17,4.17.5,3.42.82,6.39,2.54,8.83,5.11,1.95,2.07,3.04,4.65,3.15,7.49.11,2.83-.77,5.49-2.53,7.71-.13.17-.27.33-.42.49-.39.41-.8.79-1.24,1.13,1.35,2.62,1.37,5.66.04,8.31-.85,1.84-2.24,3.33-3.97,4.29,2.12,3.69,2.79,7.94,1.91,12.37l-.02.1c-1.03,4.84-4.1,8.42-8.64,10.09-1.35.52-2.75.78-4.17.78-1.89,0-3.72-.46-5.44-1.38-.16-.08-.32-.17-.48-.25-.35.81-.78,1.6-1.27,2.36-2.46,3.84-6.11,6.54-10.54,7.77-.97.28-1.96.42-2.95.42Z"/>
        <path class="cls-1" d="M237.81,66.01c-3.46,0-6.59-2.25-7.64-5.64-1.16-3.76.58-7.8,4.1-9.54.95-.47,1.85-.97,2.72-1.51-.31-.1-.62-.22-.93-.35-.44-.19-.86-.41-1.26-.67-3.73-2.44-5.89-6.26-6.05-10.63-2.33-2.07-3.28-5.34-2.37-8.34.94-3.08,3.62-5.33,6.83-5.65.42-.04.83-.07,1.25-.08,1.09-2.71,3.59-4.66,6.56-4.97.7-.08,1.41-.11,2.1-.11,3.27,0,6.44.86,9.29,2.51,1.76-1.02,3.72-1.56,5.7-1.56,1.34,0,2.68.24,3.97.72.19.07.37.14.55.23,3.49,1.59,6.39,3.91,8.61,6.9.08.11.15.21.23.32.95,1.42,1.45,3.12,1.45,4.91,0,.65-.08,1.31-.24,1.94-.33,1.32-.98,2.57-1.89,3.63-1.9,6.82-5.52,12.76-10.79,17.7-5.94,5.57-13.03,8.98-21.05,10.12-.38.05-.76.08-1.14.08Z"/>
        <path class="cls-2" d="M280.42,66.01c-3.48,0-6.62-2.27-7.65-5.69-1.15-3.8.66-7.86,4.25-9.55,1.78-.84,3.51-1.73,5.2-2.69-.32.04-.63.06-.95.06-2.66,0-5.22-1.33-6.73-3.68-2.06-3.21-1.57-7.42,1.16-10.07,5.67-5.5,10.19-11.96,13.44-19.23-1.15-1.85-1.51-4.09-.97-6.2.55-2.17,1.99-4.02,3.96-5.08,2.46-1.33,5.06-2,7.71-2,2.03,0,4.06.4,6.04,1.18,3.37,1.29,6.21,3.41,8.37,6.25.32.4.61.81.87,1.24.97-.32,1.97-.48,2.99-.48,2.17,0,4.23.73,5.97,2.11l5.97,4.66c.39.3.75.65,1.08,1.02,3.33,3.79,3.17,9.12-.4,12.69-.16.16-.33.31-.5.46l-.47.4c-3.13,5.91-6.96,11.39-11.41,16.31-.12.14-.25.27-.39.4-10.15,9.75-22.39,15.74-36.38,17.81-.39.06-.79.09-1.18.09Z"/>
        <path class="cls-9" d="M332.26,65.69c-3.05,0-5.92-1.75-7.26-4.64-1.66-3.59-.45-7.85,2.84-10.03,6.74-4.46,12.72-10,17.79-16.46.4-.51.77-1.03,1.13-1.55-.71.15-1.44.22-2.17.22-1.23,0-2.46-.21-3.66-.63-3.17-1.05-5.86-2.99-7.92-5.73-2.07-2.75-3.2-6.03-3.27-9.49-.06-3.33,1.94-6.34,5.03-7.58l.53-.21c.96-.38,1.96-.57,2.97-.57,1.23,0,2.45.28,3.58.84.2.1.36.15.55.17l13.85-2.5.74-.85c.3-.34.62-.66.98-.94,1.8-1.46,3.96-2.23,6.25-2.23,1.09,0,2.19.18,3.26.54.38.12.74.28,1.09.46,3.54,1.79,6.73,4.12,9.47,6.9.13.13.25.27.37.4,1.45,1.69,2.24,3.87,2.24,6.16,0,.49-.04.97-.13,1.45-.46,2.52-1.89,4.68-3.94,6.02-1.16,2.87-2.47,5.7-3.9,8.48,3.66,1.66,7.13,3.69,10.39,6.07.2.14.39.3.57.46,2.57,2.27,4.23,5.29,4.79,8.72.55,3.37-.05,6.67-1.73,9.58-1.36,2.66-3.54,4.62-6.34,5.7-1.41.54-2.86.82-4.33.82-1.58,0-3.14-.32-4.65-.94-.22-.09-.43-.19-.64-.3-3.28-1.71-5.82-4.45-7.35-7.95-.85-1.86-1.91-3.48-3.2-4.88-7.34,6.57-15.96,11.32-25.71,14.15-.74.22-1.49.32-2.24.32Z"/>
      </g>
      <g>
        <path class="cls-8" d="M36.21,13.39c2.46-.7,4.91-.58,7.36.37s4.33,2.51,5.67,4.69c.25.35.3.76.16,1.21-.11.39-.35.69-.74.9l-2.11,1.37-5.01,10.12c2.11,1.62,3.66,3.74,4.64,6.38.49,1.37.37,2.71-.37,4.01-.77,1.23-1.88,1.97-3.32,2.21-1.86.21-3.39-.44-4.59-1.95l-1.16-1.63c-7.59,8.96-17.17,14.61-28.74,16.93,10.09-5.98,18.12-14.08,24.1-24.31-3.66-3.66-7.65-6.73-11.97-9.23,4.99.49,9.86,1.65,14.61,3.48,1.9-3.51,3.13-7.29,3.69-11.34.18-.7-.05-1.3-.69-1.79l-1.53-1.42Z"/>
        <path class="cls-8" d="M61.05,29.79c5.13.77,10.3.95,15.5.53l11.71-.63,12.23-.32,2.32-.53c.7-.28,1.48-.21,2.32.21,2.25,1.41,4.36,2.85,6.33,4.32.42.42.63.93.63,1.53s-.21,1.11-.63,1.53c-.84.77-1.83,1.05-2.95.84-11.39-2.53-22.75-2.43-34.07.32-.84.28-1.58.67-2.21,1.16-.56.49-1.27.6-2.11.32-4.08-1.97-7.1-5.06-9.07-9.28Z"/>
        <path class="cls-8" d="M123.65,20.62c1.44-1.55,3.27-2.13,5.48-1.74,2.64.39,4.76,1.65,6.38,3.8.35.53.47,1.12.34,1.77-.12.65-.47,1.15-1.03,1.5.21,6.57-1.04,12.76-3.74,18.56-1.65,2.99-3.8,5.52-6.43,7.59-2.64,2.08-5.61,3.59-8.91,4.54,4.11-4.36,7.07-9.33,8.86-14.9,1.79-5.57,2.34-11.33,1.63-17.27-.11-1.05-.56-1.99-1.37-2.79l-1.21-1.05ZM135.2,13.92c1.69-1.19,3.55-1.69,5.59-1.48,2.99.56,5.47,1.93,7.44,4.11.74.74.79,1.55.16,2.43-.42.56-.69,1.2-.79,1.9l-1.16,19.72c8.12-4.11,14.38-10.16,18.77-18.14-1.09,5.62-3.11,10.83-6.06,15.61-2.95,4.78-6.7,8.91-11.23,12.39-.53.53-.79,1.16-.79,1.9,0,.25-.12.44-.37.58-.28.18-.55.18-.79,0-3.13-1.86-5.85-3.99-8.17-6.38-.32-.42-.33-.84-.05-1.27.84-1.65,1.16-3.34.95-5.06l-.63-22.04c-.07-1.19-.47-2.2-1.21-3.01l-1.63-1.27Z"/>
        <path class="cls-8" d="M187.09,12.44c1.65-2.07,3.81-2.95,6.49-2.64,2.53.32,4.66,1.51,6.38,3.59.6.6.6,1.23,0,1.9l-.84,1.16c-.63.88-1.07,1.85-1.32,2.9l-.11,3.32,7.33-.53c1.41-.14,2.81-.46,4.22-.95,1.09-.35,2.11-.35,3.06,0,2.46.95,4.39,2.51,5.8,4.69.32.46.33.92.05,1.37-.18.49-.51.79-1,.9-1.41.7-2.95.88-4.64.53-4.78-1.09-9.72-1.25-14.82-.47-.42,7.24-.37,14.42.16,21.52.14,1.83-.28,3.5-1.27,5.01-1.44,2.25-3.45,3.73-6.01,4.43-.6.18-1.2.15-1.79-.08-.6-.23-1.05-.61-1.37-1.13-1.83-3.51-4.64-5.83-8.44-6.96,2.53.53,5.1.83,7.7.9.91.11,1.63-.18,2.16-.84.67-.53.95-1.21.84-2.06l-.26-19.51c-2.46.21-4.71.83-6.75,1.85,1.02,2.92,1.48,5.89,1.37,8.91,0,2.57-.84,4.85-2.53,6.86-1.65,1.44-3.57,2.11-5.75,2-1.16.11-2.21-.21-3.16-.95s-1.51-1.69-1.69-2.85c-.28-1.97.42-3.53,2.11-4.69,2.74-1.19,5.19-2.88,7.33-5.06.95-1.12,1.34-2.41,1.16-3.85l-2.74.74c-.53.21-1.14.16-1.85-.16-3.59-1.58-6.24-4.17-7.96-7.75,2.99.92,5.99,1.16,9.02.74l11.6-1.74-.16-7.49c-.14-1.51-.92-2.71-2.32-3.59ZM199.69,30.64c4.99.53,9.33,2.57,13.03,6.12,2.53,2.53,3.45,5.56,2.74,9.07-.46,2.14-1.67,3.57-3.64,4.27-1.05.42-2.09.35-3.11-.21-1.02-.49-1.65-1.32-1.9-2.48-.25-2.18-.7-4.55-1.37-7.12-.88-3.8-2.79-7.01-5.75-9.65ZM203.54,10.44c2.04-.63,4.07-.57,6.09.18,2.02.76,3.59,2.07,4.72,3.93.46.92.51,1.86.16,2.85-.35.88-1,1.53-1.95,1.95-.81.32-1.61.3-2.4-.05-.79-.35-1.34-.91-1.66-1.69l-1.42-3.69c-.7-1.69-1.88-2.85-3.53-3.48ZM210.03,8.59c1.86-.67,3.74-.77,5.64-.32,1.9.46,3.53,1.41,4.9,2.85.6.63.91,1.4.95,2.29.03.9-.23,1.7-.79,2.4-.56.6-1.27.9-2.14.9s-1.57-.28-2.14-.84c-.81-.95-1.34-2.02-1.58-3.22-.32-1.09-.92-2-1.79-2.74-.88-.74-1.9-1.18-3.06-1.32Z"/>
        <path class="cls-8" d="M234.02,31.64c2.81-.28,5.29.53,7.44,2.43.91.74,1.53,1.71,1.85,2.93s.25,2.38-.21,3.51c-.42.6-1.01,1-1.77,1.21-.76.21-1.47.18-2.14-.11-1.72-1.12-2.53-2.72-2.43-4.8-.18-2.07-1.09-3.8-2.74-5.17ZM256.33,28c.95-.6,1.95-.7,3.01-.32,2.25,1.02,4.08,2.48,5.48,4.38.07.11.11.26.11.47-.04.14-.12.28-.26.42l-1.05.84c-1.3,6.33-4.32,11.72-9.07,16.16-4.75,4.45-10.32,7.13-16.72,8.04,4.99-2.46,9.18-5.81,12.55-10.05,3.38-4.24,5.71-9.03,7.01-14.37.39-2.07.03-3.94-1.05-5.59ZM241.88,26.58c2.95-.32,5.62.47,8.02,2.37.91.7,1.55,1.63,1.9,2.77.35,1.14.33,2.28-.05,3.4-.56.84-1.32,1.35-2.27,1.53-.98.11-1.86-.18-2.64-.84-.95-1.16-1.53-2.51-1.74-4.06-.28-2.21-1.35-3.94-3.22-5.17Z"/>
        <path class="cls-8" d="M295.93,10.91c2.29-1.23,4.62-1.37,7.01-.42,2.11.81,3.8,2.08,5.06,3.8.35.39.51.84.47,1.34-.04.51-.26.92-.69,1.24l-1.05,1.16-1.95,3.32c3.51-.35,7.1-.91,10.76-1.69l1.74-1.37c.67-.35,1.28-.3,1.85.16l6.01,4.69c.53.6.51,1.18-.05,1.74l-1.69,1.42c-2.95,5.87-6.61,11.21-10.97,16.03-8.96,8.61-19.64,13.83-32.01,15.66,9.49-4.46,17.75-10.46,24.79-17.98,4.39-4.36,7.26-9.6,8.6-15.71l-7.07,1.69c-1.83.46-3.6.39-5.33-.21-5.52,6.47-12.23,11.25-20.14,14.34,6.86-6.64,12.15-14.41,15.87-23.31.49-1.34.49-2.69,0-4.06l-1.21-1.85Z"/>
        <path class="cls-8" d="M337.75,17.24l.53-.21c1.55.77,3.18,1.11,4.9,1l17.24-3.11,2.58-2.95c.56-.46,1.21-.56,1.95-.32,2.78,1.41,5.24,3.2,7.38,5.38.21.25.32.56.32.95-.07.39-.23.65-.47.79l-2.11,1.37c-2.36,6.29-5.4,12.32-9.12,18.09,6.36,1.65,12.16,4.4,17.4,8.23,1.19,1.05,1.92,2.39,2.19,4.01.26,1.62-.03,3.11-.87,4.48-.46.98-1.19,1.67-2.19,2.06-1,.39-2.01.37-3.03-.05-1.69-.88-2.94-2.25-3.74-4.11-2.43-5.34-6.17-9.4-11.23-12.18-7.38,8.23-16.45,13.9-27.21,17.03,7.49-4.96,14.04-11.02,19.67-18.19,4.5-5.8,7.24-12.34,8.23-19.62-4.01.7-7.75,1.67-11.23,2.9-.95.42-1.83,1.04-2.64,1.85-.81.63-1.72.77-2.74.42-1.69-.56-3.07-1.56-4.14-2.98-1.07-1.42-1.63-3.03-1.66-4.83Z"/>
      </g>
      <g>
        <path class="cls-3" d="M36.21,13.39c2.46-.7,4.91-.58,7.36.37s4.33,2.51,5.67,4.69c.25.35.3.76.16,1.21-.11.39-.35.69-.74.9l-2.11,1.37-5.01,10.12c2.11,1.62,3.66,3.74,4.64,6.38.49,1.37.37,2.71-.37,4.01-.77,1.23-1.88,1.97-3.32,2.21-1.86.21-3.39-.44-4.59-1.95l-1.16-1.63c-7.59,8.96-17.17,14.61-28.74,16.93,10.09-5.98,18.12-14.08,24.1-24.31-3.66-3.66-7.65-6.73-11.97-9.23,4.99.49,9.86,1.65,14.61,3.48,1.9-3.51,3.13-7.29,3.69-11.34.18-.7-.05-1.3-.69-1.79l-1.53-1.42Z"/>
        <path class="cls-3" d="M61.05,29.79c5.13.77,10.3.95,15.5.53l11.71-.63,12.23-.32,2.32-.53c.7-.28,1.48-.21,2.32.21,2.25,1.41,4.36,2.85,6.33,4.32.42.42.63.93.63,1.53s-.21,1.11-.63,1.53c-.84.77-1.83,1.05-2.95.84-11.39-2.53-22.75-2.43-34.07.32-.84.28-1.58.67-2.21,1.16-.56.49-1.27.6-2.11.32-4.08-1.97-7.1-5.06-9.07-9.28Z"/>
        <path class="cls-3" d="M123.65,20.62c1.44-1.55,3.27-2.13,5.48-1.74,2.64.39,4.76,1.65,6.38,3.8.35.53.47,1.12.34,1.77-.12.65-.47,1.15-1.03,1.5.21,6.57-1.04,12.76-3.74,18.56-1.65,2.99-3.8,5.52-6.43,7.59-2.64,2.08-5.61,3.59-8.91,4.54,4.11-4.36,7.07-9.33,8.86-14.9,1.79-5.57,2.34-11.33,1.63-17.27-.11-1.05-.56-1.99-1.37-2.79l-1.21-1.05ZM135.2,13.92c1.69-1.19,3.55-1.69,5.59-1.48,2.99.56,5.47,1.93,7.44,4.11.74.74.79,1.55.16,2.43-.42.56-.69,1.2-.79,1.9l-1.16,19.72c8.12-4.11,14.38-10.16,18.77-18.14-1.09,5.62-3.11,10.83-6.06,15.61-2.95,4.78-6.7,8.91-11.23,12.39-.53.53-.79,1.16-.79,1.9,0,.25-.12.44-.37.58-.28.18-.55.18-.79,0-3.13-1.86-5.85-3.99-8.17-6.38-.32-.42-.33-.84-.05-1.27.84-1.65,1.16-3.34.95-5.06l-.63-22.04c-.07-1.19-.47-2.2-1.21-3.01l-1.63-1.27Z"/>
        <path class="cls-3" d="M187.09,12.44c1.65-2.07,3.81-2.95,6.49-2.64,2.53.32,4.66,1.51,6.38,3.59.6.6.6,1.23,0,1.9l-.84,1.16c-.63.88-1.07,1.85-1.32,2.9l-.11,3.32,7.33-.53c1.41-.14,2.81-.46,4.22-.95,1.09-.35,2.11-.35,3.06,0,2.46.95,4.39,2.51,5.8,4.69.32.46.33.92.05,1.37-.18.49-.51.79-1,.9-1.41.7-2.95.88-4.64.53-4.78-1.09-9.72-1.25-14.82-.47-.42,7.24-.37,14.42.16,21.52.14,1.83-.28,3.5-1.27,5.01-1.44,2.25-3.45,3.73-6.01,4.43-.6.18-1.2.15-1.79-.08-.6-.23-1.05-.61-1.37-1.13-1.83-3.51-4.64-5.83-8.44-6.96,2.53.53,5.1.83,7.7.9.91.11,1.63-.18,2.16-.84.67-.53.95-1.21.84-2.06l-.26-19.51c-2.46.21-4.71.83-6.75,1.85,1.02,2.92,1.48,5.89,1.37,8.91,0,2.57-.84,4.85-2.53,6.86-1.65,1.44-3.57,2.11-5.75,2-1.16.11-2.21-.21-3.16-.95s-1.51-1.69-1.69-2.85c-.28-1.97.42-3.53,2.11-4.69,2.74-1.19,5.19-2.88,7.33-5.06.95-1.12,1.34-2.41,1.16-3.85l-2.74.74c-.53.21-1.14.16-1.85-.16-3.59-1.58-6.24-4.17-7.96-7.75,2.99.92,5.99,1.16,9.02.74l11.6-1.74-.16-7.49c-.14-1.51-.92-2.71-2.32-3.59ZM199.69,30.64c4.99.53,9.33,2.57,13.03,6.12,2.53,2.53,3.45,5.56,2.74,9.07-.46,2.14-1.67,3.57-3.64,4.27-1.05.42-2.09.35-3.11-.21-1.02-.49-1.65-1.32-1.9-2.48-.25-2.18-.7-4.55-1.37-7.12-.88-3.8-2.79-7.01-5.75-9.65ZM203.54,10.44c2.04-.63,4.07-.57,6.09.18,2.02.76,3.59,2.07,4.72,3.93.46.92.51,1.86.16,2.85-.35.88-1,1.53-1.95,1.95-.81.32-1.61.3-2.4-.05-.79-.35-1.34-.91-1.66-1.69l-1.42-3.69c-.7-1.69-1.88-2.85-3.53-3.48ZM210.03,8.59c1.86-.67,3.74-.77,5.64-.32,1.9.46,3.53,1.41,4.9,2.85.6.63.91,1.4.95,2.29.03.9-.23,1.7-.79,2.4-.56.6-1.27.9-2.14.9s-1.57-.28-2.14-.84c-.81-.95-1.34-2.02-1.58-3.22-.32-1.09-.92-2-1.79-2.74-.88-.74-1.9-1.18-3.06-1.32Z"/>
        <path class="cls-3" d="M234.02,31.64c2.81-.28,5.29.53,7.44,2.43.91.74,1.53,1.71,1.85,2.93s.25,2.38-.21,3.51c-.42.6-1.01,1-1.77,1.21-.76.21-1.47.18-2.14-.11-1.72-1.12-2.53-2.72-2.43-4.8-.18-2.07-1.09-3.8-2.74-5.17ZM256.33,28c.95-.6,1.95-.7,3.01-.32,2.25,1.02,4.08,2.48,5.48,4.38.07.11.11.26.11.47-.04.14-.12.28-.26.42l-1.05.84c-1.3,6.33-4.32,11.72-9.07,16.16-4.75,4.45-10.32,7.13-16.72,8.04,4.99-2.46,9.18-5.81,12.55-10.05,3.38-4.24,5.71-9.03,7.01-14.37.39-2.07.03-3.94-1.05-5.59ZM241.88,26.58c2.95-.32,5.62.47,8.02,2.37.91.7,1.55,1.63,1.9,2.77.35,1.14.33,2.28-.05,3.4-.56.84-1.32,1.35-2.27,1.53-.98.11-1.86-.18-2.64-.84-.95-1.16-1.53-2.51-1.74-4.06-.28-2.21-1.35-3.94-3.22-5.17Z"/>
        <path class="cls-3" d="M295.93,10.91c2.29-1.23,4.62-1.37,7.01-.42,2.11.81,3.8,2.08,5.06,3.8.35.39.51.84.47,1.34-.04.51-.26.92-.69,1.24l-1.05,1.16-1.95,3.32c3.51-.35,7.1-.91,10.76-1.69l1.74-1.37c.67-.35,1.28-.3,1.85.16l6.01,4.69c.53.6.51,1.18-.05,1.74l-1.69,1.42c-2.95,5.87-6.61,11.21-10.97,16.03-8.96,8.61-19.64,13.83-32.01,15.66,9.49-4.46,17.75-10.46,24.79-17.98,4.39-4.36,7.26-9.6,8.6-15.71l-7.07,1.69c-1.83.46-3.6.39-5.33-.21-5.52,6.47-12.23,11.25-20.14,14.34,6.86-6.64,12.15-14.41,15.87-23.31.49-1.34.49-2.69,0-4.06l-1.21-1.85Z"/>
        <path class="cls-3" d="M337.75,17.24l.53-.21c1.55.77,3.18,1.11,4.9,1l17.24-3.11,2.58-2.95c.56-.46,1.21-.56,1.95-.32,2.78,1.41,5.24,3.2,7.38,5.38.21.25.32.56.32.95-.07.39-.23.65-.47.79l-2.11,1.37c-2.36,6.29-5.4,12.32-9.12,18.09,6.36,1.65,12.16,4.4,17.4,8.23,1.19,1.05,1.92,2.39,2.19,4.01.26,1.62-.03,3.11-.87,4.48-.46.98-1.19,1.67-2.19,2.06-1,.39-2.01.37-3.03-.05-1.69-.88-2.94-2.25-3.74-4.11-2.43-5.34-6.17-9.4-11.23-12.18-7.38,8.23-16.45,13.9-27.21,17.03,7.49-4.96,14.04-11.02,19.67-18.19,4.5-5.8,7.24-12.34,8.23-19.62-4.01.7-7.75,1.67-11.23,2.9-.95.42-1.83,1.04-2.64,1.85-.81.63-1.72.77-2.74.42-1.69-.56-3.07-1.56-4.14-2.98-1.07-1.42-1.63-3.03-1.66-4.83Z"/>
      </g>
    </g>
  </g>
</svg>