<?xml version="1.0" encoding="UTF-8"?>
<svg xmlns="http://www.w3.org/2000/svg" viewBox="0 0 72 72">
  <defs>
    <style>
      .cls-1 {
        fill: #fff;
      }
    </style>
  </defs>
  <g id="_レイヤー_9" data-name="レイヤー 9">
    <path class="cls-1" d="M36.28,72c13.82,0,26.62-7.36,26.62-26.16-1.23,3.03-1.72,4.26-3.74,5.39,1.45-2.25,2-5.06,2.42-7.7.43-2.7.88-6.04.22-8.69-.09-.38-.34-1.29-.66-1.54.32.94.08,6.59-1.49,6.22-.8-.19-1.74-3.78-1.81-4.56-.47-4.66,2.42-10.83-3.52-13.09,1.81,1.53,2.15,5.05,1.32,7.15-1.18,2.99-3.67-.1-4.07-1.98-1.04-4.89,1.76-11.4-3.63-14.85,1.56,3,1.16,7.81-.77,10.56-2.45,3.49-6.14,1.67-5.28-2.42.35-1.64,2.13-3.13,2.64-4.62.77-2.25.13-4.64-1.38-6.43,1.44,6.35-4.66,7.23-6.98,1.6-.81-1.96-.98-3.61-.81-5.17.26-2.44,1.03-2.22,1.8-4.96.03-.09.15-.77.04-.73-.18.71-2.79,2.96-4,5.8-.44,1.04-.85,2.79-.44,4.95.34,1.79,3.28,6.75.39,7.65-1.73.53-3.36-.49-4.24-1.93-1.9-3.11-.8-6.7.77-9.68-4.12,2.32-6.83,7.09-6.38,11.88.2,2.1,2.55,6.68,1.43,8.47-.66,1.05-2.45.56-3.24-.05-2.06-1.58-1.62-5.63-.88-7.81-1.4,1.67-2.25,3.19-2.14,5.44.05,1.17.96,2.97-.5,3.91-3.37,2.17-2.35-5.84-.44-6.82-5.84,2.56-3.06,8.06-3.36,12.71-.06,1.01-1.27,6.87-2.97,4.51-.93-1.29-.52-4.23-.71-5.78-1.49,3.67-.88,8.25-.06,12.05.43,1.98,1.11,3.95,2.09,5.72-1.87-1.15-1.62-1.99-3.41-5.39,0,19.92,14.86,26.38,27.18,26.38Z"/>
  </g>
  <g id="_ライン" data-name="ライン">
    <path d="M37.07,28.85c-11.27,0-20.4,7.65-20.4,17.08,0,8.8,7.96,16.05,18.18,16.98.28.05,1.28.34,1.22,1.33-.11,1.81-1.4,3.79-.95,4.25.42.42,1.42.69,6.15-2.68,2.53-1.8,6.57-4.38,10.07-7.66,2.42-1.98,4.25-4.46,5.26-7.25.6-1.54.93-3.19.88-4.96,0-9.43-9.14-17.08-20.4-17.08ZM29.14,52.3c-.16.14-.4.21-.71.21h-4.6c-.42,0-.71-.09-.9-.28-.18-.18-.27-.48-.27-.89v-7.24c0-.38.09-.67.26-.87.17-.19.4-.29.68-.29s.52.1.7.29c.18.19.27.48.27.87v6.85h3.86c.31,0,.54.08.71.22.17.15.25.34.25.56s-.08.42-.24.56ZM32.62,51.52c0,.39-.09.68-.27.87-.18.19-.41.29-.7.29s-.5-.1-.68-.29c-.18-.19-.27-.48-.27-.87v-7.41c0-.38.09-.67.26-.87.18-.19.4-.29.68-.29s.52.1.7.28c.18.19.27.48.27.87v7.41ZM42.65,51.44c0,.83-.34,1.24-1.03,1.24-.17,0-.32-.02-.46-.07-.14-.05-.26-.13-.39-.23-.12-.11-.23-.23-.33-.38-.1-.14-.21-.29-.31-.44l-3.57-5.48v5.51c0,.36-.08.63-.25.81-.17.18-.38.28-.64.28s-.49-.09-.65-.28c-.16-.19-.24-.46-.24-.81v-7.26c0-.31.03-.55.1-.72.08-.19.22-.35.4-.47.19-.12.39-.18.61-.18.17,0,.32.03.44.08.12.06.23.13.32.23.09.09.19.21.28.37.1.15.2.31.3.47l3.66,5.54v-5.59c0-.36.08-.64.23-.82.16-.18.37-.27.63-.27s.49.09.65.27c.16.18.24.45.24.82v7.4ZM51.75,52.31c-.15.14-.38.21-.68.21h-5.18c-.41,0-.71-.09-.89-.28-.18-.18-.27-.48-.27-.89v-7.07c0-.27.04-.5.12-.67.08-.17.21-.3.38-.38.17-.08.4-.12.66-.12h5.03c.3,0,.53.07.68.2.15.13.22.31.22.53s-.07.4-.22.54c-.15.13-.37.2-.68.2h-4.29v2.31h3.95c.29,0,.51.07.65.2.14.13.21.3.21.52s-.07.39-.21.52c-.14.13-.36.2-.65.2h-3.95v2.68h4.44c.3,0,.53.07.68.21.15.14.23.32.23.56s-.08.4-.23.54Z"/>
  </g>
</svg>