<?xml version="1.0" encoding="UTF-8"?>
<svg xmlns="http://www.w3.org/2000/svg" viewBox="0 0 72 72">
  <defs>
    <style>
      .cls-1 {
        fill: #fff;
      }
    </style>
  </defs>
  <g id="_レイヤー_9" data-name="レイヤー 9">
    <path class="cls-1" d="M36.28,72c13.82,0,26.62-7.36,26.62-26.16-1.23,3.03-1.72,4.26-3.74,5.39,1.45-2.25,2-5.06,2.42-7.7.43-2.7.88-6.04.22-8.69-.09-.38-.34-1.29-.66-1.54.32.94.08,6.59-1.49,6.22-.8-.19-1.74-3.78-1.81-4.56-.47-4.66,2.42-10.83-3.52-13.09,1.81,1.53,2.15,5.05,1.32,7.15-1.18,2.99-3.67-.1-4.07-1.98-1.04-4.89,1.76-11.4-3.63-14.85,1.56,3,1.16,7.81-.77,10.56-2.45,3.49-6.14,1.67-5.28-2.42.35-1.64,2.13-3.13,2.64-4.62.77-2.25.13-4.64-1.38-6.43,1.44,6.35-4.66,7.23-6.98,1.6-.81-1.96-.98-3.61-.81-5.17.26-2.44,1.03-2.22,1.8-4.96.03-.09.15-.77.04-.73-.18.71-2.79,2.96-4,5.8-.44,1.04-.85,2.79-.44,4.95.34,1.79,3.28,6.75.39,7.65-1.73.53-3.36-.49-4.24-1.93-1.9-3.11-.8-6.7.77-9.68-4.12,2.32-6.83,7.09-6.38,11.88.2,2.1,2.55,6.68,1.43,8.47-.66,1.05-2.45.56-3.24-.05-2.06-1.58-1.62-5.63-.88-7.81-1.4,1.67-2.25,3.19-2.14,5.44.05,1.17.96,2.97-.5,3.91-3.37,2.17-2.35-5.84-.44-6.82-5.84,2.56-3.06,8.06-3.36,12.71-.06,1.01-1.27,6.87-2.97,4.51-.93-1.29-.52-4.23-.71-5.78-1.49,3.67-.88,8.25-.06,12.05.43,1.98,1.11,3.95,2.09,5.72-1.87-1.15-1.62-1.99-3.41-5.39,0,19.92,14.86,26.38,27.18,26.38Z"/>
  </g>
  <g id="_飛行機" data-name="飛行機">
    <polygon points="24.98 53.55 12.14 48.29 53.86 31.1 45.76 64.32 35.27 59.14 28.13 69.11 27.97 55.07 40.02 44.18 40.02 44.18 24.98 53.55"/>
    <polygon points="35.27 59.14 27.97 55.07 28.13 69.11 35.27 59.14"/>
  </g>
</svg>