<?xml version="1.0" encoding="UTF-8"?>
<svg id="_レイヤー_2" data-name="レイヤー 2" xmlns="http://www.w3.org/2000/svg" xmlns:xlink="http://www.w3.org/1999/xlink" viewBox="0 0 300.98 76.64">
  <defs>
    <style>
      .cls-1 {
        fill: url(#_名称未設定グラデーション_120-5);
      }

      .cls-2 {
        fill: none;
        stroke: #000;
        stroke-miterlimit: 2;
        stroke-width: 10px;
      }

      .cls-3 {
        fill: #fff;
      }

      .cls-4 {
        fill: url(#_名称未設定グラデーション_120-4);
      }

      .cls-5 {
        fill: url(#_名称未設定グラデーション_120-2);
      }

      .cls-6 {
        fill: url(#_名称未設定グラデーション_120-3);
      }

      .cls-7 {
        fill: url(#_名称未設定グラデーション_120);
      }
    </style>
    <linearGradient id="_名称未設定グラデーション_120" data-name="名称未設定グラデーション 120" x1="38.32" y1="76.64" x2="38.32" y2="0" gradientUnits="userSpaceOnUse">
      <stop offset="0" stop-color="#945700"/>
      <stop offset=".19" stop-color="#e9a900"/>
      <stop offset=".29" stop-color="#f5f8b4"/>
      <stop offset=".4" stop-color="#e9a900"/>
      <stop offset="1" stop-color="#fff87f"/>
    </linearGradient>
    <linearGradient id="_名称未設定グラデーション_120-2" data-name="名称未設定グラデーション 120" x1="94.32" x2="94.32" xlink:href="#_名称未設定グラデーション_120"/>
    <linearGradient id="_名称未設定グラデーション_120-3" data-name="名称未設定グラデーション 120" x1="150.01" x2="150.01" xlink:href="#_名称未設定グラデーション_120"/>
    <linearGradient id="_名称未設定グラデーション_120-4" data-name="名称未設定グラデーション 120" x1="206.32" x2="206.32" xlink:href="#_名称未設定グラデーション_120"/>
    <linearGradient id="_名称未設定グラデーション_120-5" data-name="名称未設定グラデーション 120" x1="262.24" x2="262.24" xlink:href="#_名称未設定グラデーション_120"/>
  </defs>
  <g id="_急募1" data-name="急募1">
    <g>
      <g>
        <path class="cls-7" d="M38.32,76.64c-3.07,0-6.14-1.17-8.49-3.51L3.51,46.81c-4.69-4.69-4.69-12.28,0-16.97L29.83,3.51c2.25-2.25,5.3-3.51,8.49-3.51s6.23,1.26,8.49,3.51l26.32,26.32c2.25,2.25,3.51,5.3,3.51,8.49s-1.26,6.23-3.51,8.49l-26.32,26.32c-2.34,2.34-5.41,3.51-8.49,3.51ZM38.32,42.91l4.59-4.59-4.59-4.59-4.59,4.59,4.59,4.59Z"/>
        <path class="cls-5" d="M73.99,76.3c-4.41,0-8.54-2.44-10.64-6.45l-3.36-6.44c-.88-1.69-1.33-3.54-1.36-5.39l-1.95-4.7c-1.3-3.14-1.21-6.68.25-9.75.13-.26.26-.52.4-.77v-3.42c0-3.49,1.49-6.63,3.86-8.82-2.38-2.19-3.86-5.33-3.86-8.82v-6.1c0-6.63,5.37-12,12-12h3.12c2.12-1.88,4.91-3.02,7.96-3.02h8.51c1.93,0,3.76.46,5.38,1.27,1.62-.81,3.44-1.27,5.38-1.27h8.51c3.06,0,5.85,1.14,7.96,3.02h3.12c6.63,0,12,5.37,12,12v6.1c0,3.49-1.49,6.63-3.86,8.82,2.38,2.19,3.86,5.33,3.86,8.82v3.42c.15.27.29.54.43.82,1.44,3.06,1.52,6.57.23,9.7l-2.69,6.5c-1.23,2.98-3.54,5.21-6.29,6.41-.65,1.25-1.45,2.44-2.44,3.51-3.47,3.76-8.56,5.66-15.13,5.66-3.36,0-6.72-.1-9.98-.3-2.45-.15-4.7-1.03-6.54-2.43-3.74,1.42-7.98,2.56-12.73,3.43-.73.13-1.46.2-2.18.2Z"/>
        <path class="cls-6" d="M145.84,75.69c-3.39,0-6.45-1.4-8.63-3.66-2.32.71-4.78,1.39-7.39,2.06-.99.25-1.99.37-2.97.37-4.99,0-9.61-3.14-11.33-8.05l-2.52-7.22c-1.05-3-.86-6.29.51-9.13v-5.35c0-2.44.73-4.71,1.98-6.61-1.58-1.49-2.74-3.4-3.34-5.53-.87-3.14-.43-6.49,1.22-9.3,2.63-4.46,4.72-9.15,6.23-13.93,1.59-5.05,6.27-8.39,11.43-8.39.58,0,1.16.04,1.74.13l8.06,1.18c.76.11,1.51.3,2.23.55,1.87-1.18,4.08-1.85,6.39-1.85.37,0,.74.02,1.11.05l8.51.78c2.63.24,5.07,1.34,6.99,3.09h6.58c6.63,0,12,5.37,12,12v6.1c0,2.2-.59,4.26-1.62,6.03v.46c0,.3-.01.6-.03.9.02.3.03.59.03.9v.41c1.03,1.77,1.62,3.83,1.62,6.03v.51c1.2,1.87,1.9,4.1,1.9,6.49v4.31c.04.06.08.13.11.19,1.76,3.03,2.1,6.67.95,9.98l-2.52,7.22c-1.71,4.91-6.33,8.05-11.32,8.05-.98,0-1.98-.12-2.97-.37-2.61-.67-5.07-1.35-7.39-2.06-2.18,2.26-5.24,3.66-8.63,3.66h-8.96Z"/>
        <path class="cls-4" d="M225.24,75.86c-1.64,0-3.29-.33-4.86-1.03-3.27-1.45-6.51-2.79-9.68-4-6.61,2.14-14.89,3.6-25.13,4.43-.33.03-.66.04-.98.04-5.27,0-9.98-3.46-11.5-8.59l-2.07-7c-.66-2.21-.65-4.54-.03-6.7-.76-1.58-1.19-3.35-1.19-5.21v-6.55c0-2.6.83-5.02,2.24-6.98v-5.63c-1.34-1.94-2.13-4.29-2.13-6.82v-7c0-6.63,5.37-12,12-12h48.83c6.63,0,12,5.37,12,12v7c0,2.54-.79,4.89-2.13,6.82v5.62c1.41,1.97,2.24,4.38,2.24,6.98v6.55c0,2.13-.55,4.13-1.52,5.86.02.05.03.1.05.16,1.09,3.56.46,7.41-1.69,10.45l-4.65,6.55c-2.31,3.26-6,5.06-9.79,5.06Z"/>
        <path class="cls-1" d="M285.38,76.31c-1.83,0-3.69-.42-5.43-1.3-3.06-1.56-6.48-3.04-10.19-4.44-3.77,1.93-8.11,3.58-13.11,5-1.09.31-2.2.46-3.29.46-4.28,0-8.35-2.3-10.5-6.2l-.61-1.11c-.94.28-1.88.56-2.84.82-1.05.29-2.12.43-3.19.43-2.4,0-4.77-.72-6.8-2.11-2.92-2-4.8-5.19-5.15-8.71l-.73-7.39c-.45-4.55,1.72-8.83,5.37-11.22v-6.24c-2.86-2.19-4.7-5.65-4.7-9.53v-7.17c0-6.63,5.37-12,12-12h9.22c2.13-1.91,4.94-3.08,8.03-3.08h34.55c6.63,0,12,5.37,12,12v6.94c0,2.28-.63,4.41-1.74,6.22v22.95c1.06,1.3,1.84,2.82,2.28,4.47.83,3.1.38,6.4-1.25,9.17l-3.58,6.1c-2.23,3.79-6.23,5.93-10.36,5.93Z"/>
      </g>
      <g>
        <path class="cls-2" d="M38.32,64.64l-26.32-26.32,26.32-26.32,26.32,26.32-26.32,26.32ZM38.32,16.76l-21.56,21.56,21.56,21.56,21.56-21.56-21.56-21.56Z"/>
        <path class="cls-2" d="M70.46,55.23l-2.69-6.5c3.88-1.16,7.04-2.41,9.46-3.75h-7.9v-5.6h15.12l1.01-1.18h-11.65v-15.06h6.61v-1.4h-11.09v-6.1h11.09v-3.02h8.51v3.02h10.75v-3.02h8.51v3.02h11.09v6.1h-11.09v1.4h6.61v15.06h-20.33l-.84,1.18h25.65v5.6h-7.9c2.31,1.27,5.47,2.52,9.46,3.75l-2.69,6.5c-2.02-.75-3.47-1.31-4.37-1.68-.3,4.18-1,6.87-2.1,8.06-1.1,1.19-3.2,1.79-6.3,1.79s-6.22-.09-9.24-.28l-.39-7.06c2.91.22,5.34.34,7.28.34.67,0,1.09-.11,1.26-.34.17-.22.33-.91.48-2.07h-9.13c-3.7,4.89-10.92,8.32-21.67,10.3l-3.36-6.44c6.79-.93,11.67-2.22,14.62-3.86h-7v-2.02c-2.46,1.2-5.06,2.28-7.78,3.25ZM82.56,28.8h23.52v-1.57h-23.52v1.57ZM82.56,32.38v1.57h23.52v-1.57h-23.52ZM90.4,45.88h8.29c-.04.45-.13,1.12-.28,2.02h5.15c-1.53-1.16-2.73-2.13-3.58-2.91h-11.26c-.9.86-2.09,1.83-3.58,2.91h4.98c.11-.41.21-1.08.28-2.02ZM88.94,23.14h10.75v-1.4h-10.75v1.4Z"/>
        <path class="cls-2" d="M176.3,55.23l-2.52,7.22c-7.77-1.98-14.09-4.14-18.98-6.5v7.73h-8.96v-7.73c-4.89,2.35-11.22,4.52-18.98,6.5l-2.52-7.22c7.65-1.42,13.7-2.91,18.14-4.48h-16.97v-6.05h20.33v-1.79h-16.86v-10.7l-5.26-2.86c3.1-5.26,5.54-10.73,7.34-16.41l8.06,1.18c-.19.78-.45,1.7-.78,2.74h9.97c.22-.63.62-1.94,1.18-3.92l8.51.78c-.19.75-.5,1.79-.95,3.14h15.62v6.1h-16.35v1.79h14.73v4.7h-14.73v1.79h14.73v4.7h-14.73v1.74h16.35v5.21h-17.86v1.79h19.77v6.05h-16.41c4.44,1.57,10.49,3.06,18.14,4.48ZM147.35,24.77v-1.79h-9.86v1.79h9.86ZM147.35,31.26v-1.79h-9.86v1.79h9.86ZM147.35,35.97h-9.86v1.74h9.86v-1.74Z"/>
        <path class="cls-2" d="M181.79,47.78v-6.55h13.38c.93-1.12,1.42-1.72,1.46-1.79h-12.6v-15.79h11.42v-1.85h-13.55v-7h48.83v7h-13.55v1.85h11.42v15.79h-22.18c-.3.6-.67,1.2-1.12,1.79h25.54v6.55h-7.9c-1.2,2.05-2.74,3.9-4.65,5.54,4.37,1.38,8.23,2.71,11.59,3.98l-4.65,6.55c-4.97-2.2-9.82-4.14-14.56-5.82-5.97,2.58-14.67,4.33-26.1,5.26l-2.07-7c6.79-.34,12.3-.93,16.52-1.79-2.32-.6-4.09-1.03-5.32-1.29-.67.52-1.46,1.1-2.35,1.74l-7-3.53c1.46-1.08,2.91-2.3,4.37-3.64h-6.94ZM195.68,33.5v-4.14h-4.31v4.14h4.31ZM209.74,50.86c1.57-.86,2.95-1.88,4.14-3.08h-13.94l-.78.78c4.11.78,7.63,1.55,10.58,2.3ZM208.84,33.5v-4.14h-5.04v4.14h5.04ZM203.97,21.8v1.85h4.7v-1.85h-4.7ZM216.96,33.5h4.31v-4.14h-4.31v4.14Z"/>
        <path class="cls-2" d="M264.9,52.77l3.3,4.82c-3.73,2.54-8.68,4.68-14.84,6.44l-3.53-6.38c4.82-1.46,8.96-3.08,12.43-4.87h-7.79v-28.95h10.14l.67-2.35h-11.37v3.3h-4.7v21.11c1.61-.67,2.99-1.29,4.14-1.85l.05,7.34c-5.23,2.69-10.96,4.89-17.19,6.61l-.73-7.39c1.23-.34,3.04-.88,5.43-1.62v-24.19h-4.7v-7.17h17.25v-3.08h34.55v6.94h-14.28c-.11.52-.32,1.31-.62,2.35h13.16v28.95h-9.58c4.7,1.64,8.79,3.45,12.26,5.43l-3.58,6.1c-4.41-2.24-9.35-4.31-14.84-6.22l3.08-5.32h-8.74ZM277.78,32.27v-1.96h-15.18v1.96h15.18ZM262.6,39.33h15.18v-2.02h-15.18v2.02ZM262.6,46.44h15.18v-2.07h-15.18v2.07Z"/>
      </g>
      <g>
        <path class="cls-3" d="M38.32,64.64l-26.32-26.32,26.32-26.32,26.32,26.32-26.32,26.32ZM38.32,16.76l-21.56,21.56,21.56,21.56,21.56-21.56-21.56-21.56Z"/>
        <path class="cls-3" d="M70.46,55.23l-2.69-6.5c3.88-1.16,7.04-2.41,9.46-3.75h-7.9v-5.6h15.12l1.01-1.18h-11.65v-15.06h6.61v-1.4h-11.09v-6.1h11.09v-3.02h8.51v3.02h10.75v-3.02h8.51v3.02h11.09v6.1h-11.09v1.4h6.61v15.06h-20.33l-.84,1.18h25.65v5.6h-7.9c2.31,1.27,5.47,2.52,9.46,3.75l-2.69,6.5c-2.02-.75-3.47-1.31-4.37-1.68-.3,4.18-1,6.87-2.1,8.06-1.1,1.19-3.2,1.79-6.3,1.79s-6.22-.09-9.24-.28l-.39-7.06c2.91.22,5.34.34,7.28.34.67,0,1.09-.11,1.26-.34.17-.22.33-.91.48-2.07h-9.13c-3.7,4.89-10.92,8.32-21.67,10.3l-3.36-6.44c6.79-.93,11.67-2.22,14.62-3.86h-7v-2.02c-2.46,1.2-5.06,2.28-7.78,3.25ZM82.56,28.8h23.52v-1.57h-23.52v1.57ZM82.56,32.38v1.57h23.52v-1.57h-23.52ZM90.4,45.88h8.29c-.04.45-.13,1.12-.28,2.02h5.15c-1.53-1.16-2.73-2.13-3.58-2.91h-11.26c-.9.86-2.09,1.83-3.58,2.91h4.98c.11-.41.21-1.08.28-2.02ZM88.94,23.14h10.75v-1.4h-10.75v1.4Z"/>
        <path class="cls-3" d="M176.3,55.23l-2.52,7.22c-7.77-1.98-14.09-4.14-18.98-6.5v7.73h-8.96v-7.73c-4.89,2.35-11.22,4.52-18.98,6.5l-2.52-7.22c7.65-1.42,13.7-2.91,18.14-4.48h-16.97v-6.05h20.33v-1.79h-16.86v-10.7l-5.26-2.86c3.1-5.26,5.54-10.73,7.34-16.41l8.06,1.18c-.19.78-.45,1.7-.78,2.74h9.97c.22-.63.62-1.94,1.18-3.92l8.51.78c-.19.75-.5,1.79-.95,3.14h15.62v6.1h-16.35v1.79h14.73v4.7h-14.73v1.79h14.73v4.7h-14.73v1.74h16.35v5.21h-17.86v1.79h19.77v6.05h-16.41c4.44,1.57,10.49,3.06,18.14,4.48ZM147.35,24.77v-1.79h-9.86v1.79h9.86ZM147.35,31.26v-1.79h-9.86v1.79h9.86ZM147.35,35.97h-9.86v1.74h9.86v-1.74Z"/>
        <path class="cls-3" d="M181.79,47.78v-6.55h13.38c.93-1.12,1.42-1.72,1.46-1.79h-12.6v-15.79h11.42v-1.85h-13.55v-7h48.83v7h-13.55v1.85h11.42v15.79h-22.18c-.3.6-.67,1.2-1.12,1.79h25.54v6.55h-7.9c-1.2,2.05-2.74,3.9-4.65,5.54,4.37,1.38,8.23,2.71,11.59,3.98l-4.65,6.55c-4.97-2.2-9.82-4.14-14.56-5.82-5.97,2.58-14.67,4.33-26.1,5.26l-2.07-7c6.79-.34,12.3-.93,16.52-1.79-2.32-.6-4.09-1.03-5.32-1.29-.67.52-1.46,1.1-2.35,1.74l-7-3.53c1.46-1.08,2.91-2.3,4.37-3.64h-6.94ZM195.68,33.5v-4.14h-4.31v4.14h4.31ZM209.74,50.86c1.57-.86,2.95-1.88,4.14-3.08h-13.94l-.78.78c4.11.78,7.63,1.55,10.58,2.3ZM208.84,33.5v-4.14h-5.04v4.14h5.04ZM203.97,21.8v1.85h4.7v-1.85h-4.7ZM216.96,33.5h4.31v-4.14h-4.31v4.14Z"/>
        <path class="cls-3" d="M264.9,52.77l3.3,4.82c-3.73,2.54-8.68,4.68-14.84,6.44l-3.53-6.38c4.82-1.46,8.96-3.08,12.43-4.87h-7.79v-28.95h10.14l.67-2.35h-11.37v3.3h-4.7v21.11c1.61-.67,2.99-1.29,4.14-1.85l.05,7.34c-5.23,2.69-10.96,4.89-17.19,6.61l-.73-7.39c1.23-.34,3.04-.88,5.43-1.62v-24.19h-4.7v-7.17h17.25v-3.08h34.55v6.94h-14.28c-.11.52-.32,1.31-.62,2.35h13.16v28.95h-9.58c4.7,1.64,8.79,3.45,12.26,5.43l-3.58,6.1c-4.41-2.24-9.35-4.31-14.84-6.22l3.08-5.32h-8.74ZM277.78,32.27v-1.96h-15.18v1.96h15.18ZM262.6,39.33h15.18v-2.02h-15.18v2.02ZM262.6,46.44h15.18v-2.07h-15.18v2.07Z"/>
      </g>
    </g>
  </g>
</svg>