<?xml version="1.0" encoding="UTF-8"?>
<svg id="_レイヤー_2" data-name="レイヤー 2" xmlns="http://www.w3.org/2000/svg" xmlns:xlink="http://www.w3.org/1999/xlink" viewBox="0 0 782.68 172.7">
  <defs>
    <style>
      .cls-1 {
        fill: url(#_名称未設定グラデーション_120-5);
      }

      .cls-2 {
        fill: url(#_名称未設定グラデーション_120-6);
      }

      .cls-3 {
        fill: none;
        stroke: #000;
        stroke-miterlimit: 2;
        stroke-width: 10px;
      }

      .cls-4 {
        fill: url(#_名称未設定グラデーション_120-12);
      }

      .cls-5 {
        fill: #fff;
      }

      .cls-6 {
        fill: url(#_名称未設定グラデーション_120-18);
      }

      .cls-7 {
        fill: url(#_名称未設定グラデーション_120-4);
      }

      .cls-8 {
        fill: url(#_名称未設定グラデーション_120-2);
      }

      .cls-9 {
        fill: url(#_名称未設定グラデーション_120-14);
      }

      .cls-10 {
        fill: url(#_名称未設定グラデーション_120-22);
      }

      .cls-11 {
        fill: url(#_名称未設定グラデーション_120-13);
      }

      .cls-12 {
        fill: url(#_名称未設定グラデーション_120-21);
      }

      .cls-13 {
        fill: url(#_名称未設定グラデーション_120-3);
      }

      .cls-14 {
        fill: url(#_名称未設定グラデーション_120-16);
      }

      .cls-15 {
        fill: url(#_名称未設定グラデーション_120-20);
      }

      .cls-16 {
        fill: url(#_名称未設定グラデーション_120-10);
      }

      .cls-17 {
        fill: url(#_名称未設定グラデーション_120);
      }

      .cls-18 {
        fill: url(#_名称未設定グラデーション_120-11);
      }

      .cls-19 {
        fill: url(#_名称未設定グラデーション_120-17);
      }

      .cls-20 {
        fill: url(#_名称未設定グラデーション_120-9);
      }

      .cls-21 {
        fill: url(#_名称未設定グラデーション_120-19);
      }

      .cls-22 {
        fill: url(#_名称未設定グラデーション_120-15);
      }

      .cls-23 {
        fill: url(#_名称未設定グラデーション_120-7);
      }

      .cls-24 {
        fill: url(#_名称未設定グラデーション_120-8);
      }
    </style>
    <linearGradient id="_名称未設定グラデーション_120" data-name="名称未設定グラデーション 120" x1="131.95" y1="83.28" x2="131.95" y2="0" gradientUnits="userSpaceOnUse">
      <stop offset="0" stop-color="#945700"/>
      <stop offset=".19" stop-color="#e9a900"/>
      <stop offset=".29" stop-color="#f5f8b4"/>
      <stop offset=".4" stop-color="#e9a900"/>
      <stop offset="1" stop-color="#fff87f"/>
    </linearGradient>
    <linearGradient id="_名称未設定グラデーション_120-2" data-name="名称未設定グラデーション 120" x1="199.69" y1="83.27" x2="199.69" y2="0" xlink:href="#_名称未設定グラデーション_120"/>
    <linearGradient id="_名称未設定グラデーション_120-3" data-name="名称未設定グラデーション 120" x1="269.44" x2="269.44" xlink:href="#_名称未設定グラデーション_120"/>
    <linearGradient id="_名称未設定グラデーション_120-4" data-name="名称未設定グラデーション 120" x1="336.55" x2="336.55" y2="0" xlink:href="#_名称未設定グラデーション_120"/>
    <linearGradient id="_名称未設定グラデーション_120-5" data-name="名称未設定グラデーション 120" x1="406.15" x2="406.15" xlink:href="#_名称未設定グラデーション_120"/>
    <linearGradient id="_名称未設定グラデーション_120-6" data-name="名称未設定グラデーション 120" x1="472.49" x2="472.49" xlink:href="#_名称未設定グラデーション_120"/>
    <linearGradient id="_名称未設定グラデーション_120-7" data-name="名称未設定グラデーション 120" x1="542.24" x2="542.24" xlink:href="#_名称未設定グラデーション_120"/>
    <linearGradient id="_名称未設定グラデーション_120-8" data-name="名称未設定グラデーション 120" x1="609.2" x2="609.2" y2="0" xlink:href="#_名称未設定グラデーション_120"/>
    <linearGradient id="_名称未設定グラデーション_120-9" data-name="名称未設定グラデーション 120" x1="669.28" x2="669.28" xlink:href="#_名称未設定グラデーション_120"/>
    <linearGradient id="_名称未設定グラデーション_120-10" data-name="名称未設定グラデーション 120" x1="40.08" y1="172.7" x2="40.08" y2="91.85" xlink:href="#_名称未設定グラデーション_120"/>
    <linearGradient id="_名称未設定グラデーション_120-11" data-name="名称未設定グラデーション 120" x1="101.1" y1="172.7" x2="101.1" y2="91.85" xlink:href="#_名称未設定グラデーション_120"/>
    <linearGradient id="_名称未設定グラデーション_120-12" data-name="名称未設定グラデーション 120" x1="160.8" y1="172.7" x2="160.8" y2="91.85" xlink:href="#_名称未設定グラデーション_120"/>
    <linearGradient id="_名称未設定グラデーション_120-13" data-name="名称未設定グラデーション 120" x1="221.25" y1="172.7" x2="221.25" y2="91.85" xlink:href="#_名称未設定グラデーション_120"/>
    <linearGradient id="_名称未設定グラデーション_120-14" data-name="名称未設定グラデーション 120" x1="280.8" y1="172.7" x2="280.8" y2="91.85" xlink:href="#_名称未設定グラデーション_120"/>
    <linearGradient id="_名称未設定グラデーション_120-15" data-name="名称未設定グラデーション 120" x1="339.3" y1="172.7" x2="339.3" y2="91.85" xlink:href="#_名称未設定グラデーション_120"/>
    <linearGradient id="_名称未設定グラデーション_120-16" data-name="名称未設定グラデーション 120" x1="400.8" y1="172.7" x2="400.8" y2="91.85" xlink:href="#_名称未設定グラデーション_120"/>
    <linearGradient id="_名称未設定グラデーション_120-17" data-name="名称未設定グラデーション 120" x1="460.8" y1="172.7" x2="460.8" y2="91.85" xlink:href="#_名称未設定グラデーション_120"/>
    <linearGradient id="_名称未設定グラデーション_120-18" data-name="名称未設定グラデーション 120" x1="523.35" y1="172.7" x2="523.35" y2="91.85" xlink:href="#_名称未設定グラデーション_120"/>
    <linearGradient id="_名称未設定グラデーション_120-19" data-name="名称未設定グラデーション 120" x1="580.5" y1="172.7" x2="580.5" y2="91.85" xlink:href="#_名称未設定グラデーション_120"/>
    <linearGradient id="_名称未設定グラデーション_120-20" data-name="名称未設定グラデーション 120" x1="642" y1="172.7" x2="642" y2="91.85" xlink:href="#_名称未設定グラデーション_120"/>
    <linearGradient id="_名称未設定グラデーション_120-21" data-name="名称未設定グラデーション 120" x1="700.8" y1="172.7" x2="700.8" y2="91.85" xlink:href="#_名称未設定グラデーション_120"/>
    <linearGradient id="_名称未設定グラデーション_120-22" data-name="名称未設定グラデーション 120" x1="761.8" y1="172.7" x2="761.8" y2="91.85" xlink:href="#_名称未設定グラデーション_120"/>
  </defs>
  <g id="_急募1" data-name="急募1">
    <g>
      <g>
        <path class="cls-17" d="M130.88,83.28c-2.93,0-5.8-1.08-8.01-3.06-1.66.45-3.29.86-4.88,1.22-.87.19-1.74.29-2.62.29-.5,0-1-.03-1.5-.09-1.89,1.11-3.98,1.64-6.05,1.65-3.72,0-7.37-1.72-9.72-4.95l-5.77-7.94c-3.33-4.58-2.95-10.73.59-14.86-.1-.63-.15-1.27-.15-1.93v-11.71c-.99-1.74-1.55-3.76-1.55-5.9v-7.01c0-1.33.22-2.62.62-3.82v-7.71c0-6.28,4.83-11.44,10.98-11.96,2.2-2.46,5.4-4.01,8.95-4.01h10.91c3.4,0,6.47,1.41,8.65,3.68,2.18-2.27,5.25-3.68,8.65-3.68h10.97c3.54,0,6.72,1.53,8.92,3.97,6.58.06,11.89,5.41,11.89,12v7.71c.4,1.2.62,2.48.62,3.82v7.01c0,2.15-.56,4.16-1.55,5.9v7.07c1.99,2.23,3.14,5.2,3.03,8.38-.09,2.62-.16,4.56-.23,5.83-.09,1.86-.35,3.75-.76,5.62-.57,2.56-1.18,4.3-2.07,5.83-1.47,2.53-3.67,4.51-6.58,5.92-2.27,1.1-4.61,1.69-6.99,1.76-.77.02-1.95.04-3.56.04h-2.42c-4.48,0-8.2-.4-11.39-2.21-1.29.75-2.67,1.45-4.13,2.1-1.58.7-3.23,1.04-4.87,1.04Z"/>
        <path class="cls-8" d="M175.08,83.27c-4.32,0-8.32-2.33-10.45-6.1l-4.84-8.56c-1.81-3.21-2.05-7.07-.65-10.47.45-1.08.82-2.18,1.13-3.29-.76-1.59-1.17-3.35-1.17-5.16v-8.8c0-2.73.92-5.27,2.48-7.3v-15.2c0-4.1,2.05-7.71,5.19-9.88,1.85-4.31,6.13-7.27,11.02-7.27.24,0,.48,0,.72.02l9.42.56c2.41.14,4.71,1.01,6.6,2.46h11.85c2.12,0,4.12.55,5.85,1.52,3.42-.67,7.21-1.63,11.33-2.87,1.13-.34,2.3-.51,3.46-.51,2.22,0,4.43.62,6.35,1.82,2.93,1.83,4.93,4.83,5.49,8.23l1.55,9.42c.37,2.27.08,4.5-.74,6.5.58,1.41.9,2.95.9,4.56v9.42c0,1.56-.3,3.05-.84,4.41.14.74.22,1.5.22,2.28v6.66c.81,1.7,1.23,3.59,1.17,5.51l-.25,9.11c-.18,6.5-5.5,11.67-12,11.67h-10.04c-5.41,0-10.21-.54-14.46-1.64-2.1,1.65-4.71,2.57-7.42,2.57-.07,0-.14,0-.21,0-1.56-.03-3.08-.36-4.48-.95-1.94.64-4.12.96-6.53.96-1.65,0-3.36-.17-5.22-.51-.24-.04-.48-.1-.71-.15-1.43.61-2.99.95-4.59.97-.05,0-.09,0-.14,0Z"/>
        <path class="cls-13" d="M283.88,79.79c-11.45-.42-20.83-3.3-27.9-8.57-8.17-6.08-12.49-14.56-12.49-24.5,0-.66.02-1.32.06-1.97-.89.01-1.77.02-2.63.02-6.63,0-12-5.37-12-12v-10.85c0-6.63,5.37-12,12-12,15.98,0,32.5-1.01,49.09-3.01.48-.06.96-.09,1.44-.09,2.74,0,5.41.94,7.56,2.68,2.52,2.05,4.11,5.03,4.39,8.27l.93,10.54c.04.46.05.92.04,1.37,1.27,2.35,2.7,5.09,4.27,8.18,1.47,2.89,1.71,6.24.67,9.31s-3.28,5.58-6.2,6.98l-5.56,2.65c0,.51-.02,1.01-.08,1.52l-1.24,10.85c-.69,6.08-5.84,10.64-11.92,10.64-.15,0-.3,0-.45,0Z"/>
        <path class="cls-7" d="M313.33,82.34c-6.04,0-11.04-4.46-11.88-10.27-1.05-1.14-1.89-2.5-2.44-4.01l-3.66-10.04c-1.26-3.46-.86-7.3,1.08-10.43.46-.74.9-1.48,1.31-2.22-1.03-1.77-1.62-3.83-1.62-6.03v-9.11c0-1.81.4-3.52,1.12-5.06l-.73-6.71c-.36-3.26.64-6.53,2.76-9.04,2.12-2.51,5.17-4.04,8.45-4.24,5.79-.35,11-1.28,15.49-2.76,1.25-.41,2.52-.61,3.77-.61,1.99,0,3.92.5,5.64,1.41,2.05-1.62,4.63-2.59,7.44-2.59h11.22c3.8,0,7.19,1.77,9.39,4.53h4.31c6.63,0,12,5.37,12,12v14.57c0,1.79-.39,3.49-1.09,5.01,2.51,3.83,2.66,8.84.19,12.86-.27.44-.55.89-.83,1.34,3.42,3.66,4.21,9.07,1.96,13.56l-5.15,10.29c-1.71,3.42-4.94,5.82-8.71,6.46-.68.12-1.35.17-2.03.17-2.44,0-4.83-.75-6.84-2.14-3.09,1.86-6.65,2.76-10.21,2.76-2.14,0-4.87-.11-8.34-.34-1.6-.1-3.12-.52-4.49-1.19-.84.19-1.69.28-2.54.29-1.74.99-3.76,1.55-5.9,1.55h-9.67Z"/>
        <path class="cls-1" d="M405.84,81.66c-31.54,0-34.94-17.5-34.94-25.02,0-.98.06-1.93.16-2.87-3.1-2.17-5.12-5.77-5.12-9.84v-8.99c0-3.72,1.69-7.04,4.34-9.24v-2.54c0-6.63,5.37-12,12-12,1.68,0,3.41-.03,5.19-.08.5-1.1,1.16-2.13,1.99-3.05,2.2-2.46,5.31-3.91,8.61-4l11.16-.31c.11,0,.23,0,.34,0,.62,0,1.24.05,1.84.14l3.33-1.66c1.72-.86,3.55-1.27,5.36-1.27,1.24,0,2.46.19,3.62.56l.44-.22c1.72-.86,3.55-1.27,5.36-1.27,4.25,0,8.36,2.27,10.54,6.24,2,3.65,3.72,6.96,5.11,9.83,1.39,2.87,1.58,6.18.53,9.19-1.05,3.01-3.26,5.48-6.14,6.86l-.09.04.64,6.19c.46,4.44-1.57,8.61-5.01,11.04.2,1.45.14,2.93-.2,4.38-.51,2.21-1.64,4.2-3.21,5.78l.95,7.33c.83,6.4-3.55,12.3-9.91,13.37-5.55.93-11.23,1.41-16.87,1.41Z"/>
        <path class="cls-2" d="M457.61,80.43c-1.09,0-2.2-.15-3.3-.46l-10.85-3.1c-3.18-.91-5.85-3.09-7.37-6.03s-1.75-6.38-.65-9.5c2.11-5.97,4.06-12.09,5.83-18.31-.59-.4-1.15-.86-1.67-1.36-2.31-2.26-3.61-5.35-3.61-8.58v-9.92c0-6.51,5.2-11.84,11.71-12,.33,0,.67-.02,1-.03,1.26-5.44,6.12-9.28,11.68-9.28.33,0,.67.01,1.01.04l11.16.93c3.37.28,6.46,1.97,8.51,4.64.37.48.7.99,1,1.52.69-.08,1.38-.15,2.06-.23.46-.05.92-.08,1.38-.08,2.74,0,5.41.94,7.56,2.68,2.51,2.03,4.09,4.99,4.39,8.2l.15,1.58c6.04.62,10.75,5.73,10.75,11.94v9.92c0,2.06-.52,4-1.43,5.69,1.04,1.55,1.72,3.33,1.96,5.22l1.24,9.92c.72,5.79-2.82,11.26-8.4,12.96-5.17,1.58-10.53,2.39-15.91,2.39-7.96,0-13.89-1.17-18.52-3.68-2.25,3.08-5.87,4.92-9.69,4.92Z"/>
        <path class="cls-23" d="M532.94,77.94c-6.12,0-14.86-2.05-21.77-11.84-4.62-6.54-6.97-15.36-6.97-26.2,0-7.19.7-14.43,2.08-21.51,1.11-5.67,6.08-9.71,11.77-9.71.32,0,.63.01.95.04l11.78.93c3.42.27,6.56,1.99,8.63,4.73.27.36.52.72.74,1.1,1.21-1,2.62-1.77,4.16-2.24l11.16-3.41c1.16-.36,2.34-.53,3.51-.53,4.5,0,8.76,2.55,10.81,6.79,3.19,6.61,5.62,13.18,7.21,19.52,1.57,6.24,2.66,13.66,3.25,22.06.22,3.21-.85,6.37-2.98,8.78-2.13,2.41-5.13,3.86-8.35,4.04l-11.47.62c-.22.01-.44.02-.66.02-2.23,0-4.33-.61-6.13-1.69-5.57,6.66-12.15,8.51-17.73,8.51Z"/>
        <path class="cls-24" d="M632.01,82.35c-1.84,0-3.7-.42-5.43-1.31-5.98-3.04-11.49-7.42-16.37-13-.24-.27-.47-.54-.7-.81-.28.32-.56.63-.84.95-5.08,5.59-10.82,9.96-17.06,12.97-1.67.81-3.45,1.2-5.21,1.2-3.76,0-7.43-1.77-9.75-5l-6.32-8.8c-1.98-2.76-2.7-6.23-1.98-9.55.72-3.32,2.82-6.18,5.77-7.87,6.15-3.52,10.63-7.62,13.32-12.19,2.67-4.53,4.02-10.52,4.02-17.82v-6.7c0-6.63,5.37-12,12-12h11.53c6.63,0,12,5.37,12,12v6.7c0,7.29,1.35,13.29,4.01,17.81,2.69,4.58,7.17,8.68,13.32,12.2,2.95,1.69,5.04,4.55,5.77,7.87.72,3.32,0,6.79-1.98,9.55l-6.32,8.8c-2.32,3.23-5.99,5-9.75,5Z"/>
        <path class="cls-20" d="M661.48,82.46c-6.63,0-12-5.37-12-12v-12.48c0-1.61.32-3.15.9-4.56-.04-.31-.08-.63-.09-.95l-2.34-38.22c-.2-3.3.97-6.54,3.24-8.96,2.27-2.41,5.43-3.78,8.74-3.78h18.72c3.31,0,6.47,1.37,8.74,3.78,2.27,2.41,3.44,5.65,3.24,8.96l-2.34,38.22c-.02.32-.05.63-.09.94.58,1.41.9,2.95.9,4.56v12.48c0,6.63-5.37,12-12,12h-15.6Z"/>
      </g>
      <g>
        <path class="cls-3" d="M114.75,63.65c-1.41,2.85-3.72,5.39-6.94,7.63l-5.77-7.94c2.19-1.61,3.74-3.07,4.65-4.37.91-1.3,1.49-3.09,1.74-5.36h-3.66v-16.06h25.79v16.06h-3.6v3.97c1.78-.58,3.29-1.09,4.53-1.55l.12,3.91c1.57-1.45,2.54-3.55,2.91-6.32h-1.8v-16.06h26.1v16.06h-5.46v7.63c0,.33.02.52.06.56.04.04.19.06.43.06h.25c.5,0,.78-.25.87-.74.08-.5.14-2.27.19-5.33l6.7,1.18c-.08,2.52-.16,4.39-.22,5.61-.06,1.22-.23,2.44-.5,3.66-.27,1.22-.52,2.02-.74,2.42-.23.39-.7.76-1.43,1.12-.72.35-1.43.54-2.11.56-.68.02-1.75.03-3.19.03h-2.42c-3.1,0-4.99-.26-5.67-.77-.68-.52-1.02-1.97-1.02-4.37v-11.59h-1.43c-.41,4.75-1.54,8.43-3.38,11.04-1.84,2.6-4.8,4.81-8.9,6.63l-3.16-5.15c-4.34,1.53-8.45,2.73-12.34,3.6l-.62-6.08ZM103.22,36v-7.01h4.71c-.41-.83-1.08-2.02-1.98-3.6h-2.11v-7.94h7.94v-3.97h10.91v3.97h8.18v7.94h-2.17c-.74,1.57-1.32,2.77-1.74,3.6h3.91v7.01h-27.65ZM118.1,28.99c.17-.29.38-.67.65-1.15.27-.47.52-.91.74-1.3.23-.39.42-.77.59-1.15h-5.33c.83,1.57,1.43,2.77,1.8,3.6h1.55ZM114.81,47.53h5.46v-3.66h-5.46v3.66ZM115.93,60.61c.25-.04.64-.13,1.18-.28.54-.14.97-.26,1.3-.34v-6.39h-1.36c-.17,2.69-.54,5.02-1.12,7.01ZM132.42,36v-7.01h3.78c-.41-.83-1.08-2.02-1.98-3.6h-1.8v-7.94h7.56v-3.97h10.97v3.97h8.8v7.94h-2.23c-.74,1.57-1.32,2.77-1.74,3.6h4.59v7.01h-27.96ZM148.23,47.53v-3.66h-5.52v3.66h5.52ZM146.68,28.99c.91-1.65,1.55-2.85,1.92-3.6h-5.27c.54,1.03,1.12,2.23,1.74,3.6h1.61Z"/>
        <path class="cls-3" d="M175.08,71.27l-4.84-8.56c1.74-4.22,2.75-8.66,3.04-13.33l-2.17.31v-8.8l2.48-.37v-22.13h3.84c.12-1.45.25-3.16.37-5.15l9.42.56c-.04.5-.09,1.26-.15,2.29-.06,1.03-.11,1.8-.16,2.29h3.97v19.65l.93-.12v-3.41c1.98-3.43,3.53-6.47,4.65-9.11h-4.65v-9.11h14.57v9.11c-1.28,3.31-2.67,6.35-4.15,9.11h3.53v-1.55h6.39v-5.39c-1.65.25-3.27.43-4.84.56l-.31-9.42c5.66-.54,12.34-1.96,20.03-4.28l1.55,9.42c-2.27.7-4.11,1.22-5.52,1.55v7.56h5.52v9.42h-5.52v6.7h4.9v8.8h-21.58v-8.8h5.77v-6.7h-5.77v.93c-.29,5.37-1.14,10.38-2.54,15,2.89,1.74,7.89,2.6,15,2.6h10.29l-.25,9.11h-10.04c-7.85,0-13.93-1.36-18.23-4.09-1.08,1.86-2.29,3.53-3.66,5.02l-6.14-7.19c-.12,3.26-.49,5.28-1.08,6.05-.6.76-1.93,1.15-4,1.15-.91,0-1.92-.1-3.04-.31l-.25-6.7h-2.17v-15.56l-.43.06c-.33,9.88-1.92,17.48-4.77,22.82ZM179.97,29.42l3.6-1.92c.66,2.03,1.18,3.78,1.55,5.27v-5.89h-5.15v2.54ZM179.97,39.59l5.15-.74v-1.74l-3.66,1.92c-.5-2.23-.99-4.22-1.49-5.95v6.51ZM184.19,47.78v13.7h.19l.12.06c.29,0,.46-.09.53-.28.06-.19.09-.82.09-1.89v-11.72l-.93.12ZM190.89,46.85v1.8l4.28-3.84c.87,2.27,1.4,3.66,1.61,4.15.29-1.86.45-3.74.5-5.64h-4.84v3.35l-1.55.19ZM190.89,54.29v6.82c.58-.66,1.32-1.61,2.23-2.85-.54-.83-1.28-2.15-2.23-3.97Z"/>
        <path class="cls-3" d="M267.58,44.86c0,3.39,1.54,6.17,4.62,8.34,3.08,2.17,7.53,3.42,13.36,3.75l-1.24,10.85c-9.01-.33-16.07-2.4-21.17-6.2-5.11-3.8-7.66-8.76-7.66-14.88,0-2.85.67-5.59,2.01-8.21,1.34-2.62,3.25-4.93,5.74-6.91v-.12c-8.1.87-15.54,1.3-22.32,1.3v-10.85c16.53,0,33.38-1.03,50.53-3.1l.93,10.54c-8.39,1.03-14.62,2.92-18.69,5.67-4.07,2.75-6.11,6.02-6.11,9.83ZM287.92,45.3l-6.39,3.04c-1.61-3.26-3.37-6.55-5.27-9.86l6.39-3.22c1.9,3.51,3.66,6.86,5.27,10.04ZM297.96,43.31l-6.51,3.1c-1.86-3.6-3.66-6.94-5.39-10.04l6.51-3.29c1.49,2.69,3.29,6.1,5.39,10.23Z"/>
        <path class="cls-3" d="M360.77,51c1.61,3.1,3.51,5.81,5.7,8.12l-5.15,10.29c-3.55-3.43-6.68-8.28-9.36-14.54-2.69-6.26-4.42-12.76-5.21-19.5h-1.3c-.21.17-.52.42-.93.78-.41.35-.72.61-.93.77,5.33,9.14,8,17.13,8,23.99,0,6.08-2.44,9.11-7.32,9.11-1.86,0-4.38-.1-7.56-.31l-.62-5.7c-2.11,1.65-4.53,3.24-7.25,4.77l-4.59-7.56c6.04-2.93,11.26-6.51,15.69-10.73-.04-.08-.11-.23-.22-.43-.1-.21-.18-.37-.22-.5-3.1,2.77-6.57,5.23-10.42,7.38l-1.8-2.98-2.11,1.49c-.21-.5-.56-1.26-1.05-2.29-.5-1.03-.87-1.82-1.12-2.36v19.53h-9.67v-13.21c-.83,2.73-1.84,5-3.04,6.82l-3.66-10.04c3.1-5,5.29-9.86,6.57-14.57h-5.08v-9.11h5.21v-4.9c-1.74.17-3.06.27-3.97.31l-.93-8.49c6.86-.41,13.04-1.53,18.54-3.35l1.18,3.35h11.9v-4.53h11.22v4.53h13.7v14.57h-2.48v3.66h-6.57c.21,1.41.54,3.12.99,5.15,1.2-1.98,1.96-3.29,2.29-3.91l6.63,6.7c-1.45,2.36-3.14,4.92-5.08,7.69ZM326.66,30.23v-7.38c-2.11.58-3.33.91-3.66.99v6.39h3.66ZM336.34,43.25c-.04-.08-.12-.22-.25-.4s-.21-.32-.25-.4c-1.74,1.12-3.78,2.31-6.14,3.6l-4.22-6.7h-1.36c1.03,1.65,2.73,4.49,5.08,8.49,2.73-1.45,5.1-2.98,7.13-4.59ZM333.86,35.38h-4.15v-3.66h-1.18v6.39c1.49-.66,3.26-1.57,5.33-2.73ZM354.94,25.39h-18.54v1.8h18.54v-1.8ZM342.41,58.32c-.62.66-1.59,1.61-2.91,2.85.58.04,1.26.06,2.05.06.45,0,.72-.09.81-.28.08-.19.12-.8.12-1.83,0-.37-.02-.64-.06-.81Z"/>
        <path class="cls-3" d="M407.02,45.54l.12-.12c-.17-.33-.41-.82-.74-1.46-.33-.64-.58-1.13-.74-1.46-10,.95-19.24,1.43-27.71,1.43v-8.99c7.11,0,15.17-.39,24.18-1.18-.25-.74-.52-1.59-.8-2.54-7.52.62-13.87.93-19.03.93v-8.99c5.29,0,10.93-.25,16.93-.74-.33-1.82-.6-3.95-.81-6.39l11.16-.31c.08,1.16.33,3,.74,5.52,1.45-.16,3.57-.45,6.38-.87-.54-1.03-1.34-2.54-2.42-4.53l5.83-2.91c1.7,3.18,3.27,6.22,4.71,9.11l-3.35,1.61.5,4.96c-3.51.58-6.68,1.05-9.49,1.43.12.29.27.72.43,1.3.16.58.31,1.01.43,1.3,4.09-.45,8.72-1.14,13.89-2.05l.93,8.99c-2.48.46-6.14.99-10.97,1.61,1.78,3.47,3.78,6.76,6.01,9.86l-9.3,4.96c-3.72-1.65-8.27-2.48-13.64-2.48-2.11,0-3.56.22-4.37.65-.8.43-1.21,1.15-1.21,2.14,0,1.28.79,2.22,2.39,2.82,1.59.6,4.52.9,8.77.9,3.97,0,8.51-.41,13.64-1.24l1.24,9.61c-4.92.83-9.88,1.24-14.88,1.24-15.29,0-22.94-4.34-22.94-13.02,0-3.72,1.45-6.61,4.34-8.68,2.89-2.07,7.23-3.1,13.02-3.1,2.4,0,4.65.23,6.76.68ZM434.36,21.3l-5.95,2.85c-2.23-4.3-3.84-7.36-4.84-9.18l5.95-2.98c1.9,3.47,3.51,6.57,4.84,9.3Z"/>
        <path class="cls-3" d="M448,33.08v-9.92c3.39-.08,6.92-.21,10.6-.37.79-3.64,1.38-6.61,1.8-8.93l11.16.93c-.54,3.02-.99,5.46-1.36,7.32,5.21-.37,10.31-.85,15.31-1.43l.93,9.92c-4.63.58-10.77,1.12-18.41,1.61-2.85,12.44-6.32,24.51-10.42,36.21l-10.85-3.1c3.72-10.54,6.92-21.37,9.61-32.49-1.86.08-4.65.17-8.37.25ZM473.42,46.41l8.68,4.34c-1.45,1.7-2.17,3.04-2.17,4.03,0,.91.4,1.55,1.21,1.92.81.37,2.37.56,4.68.56,2.64,0,6.37-.62,11.16-1.86l1.24,9.92c-4.05,1.24-8.18,1.86-12.4,1.86-6.08,0-10.49-.83-13.24-2.48-2.75-1.65-4.12-4.13-4.12-7.44,0-1.78.45-3.68,1.36-5.7.91-2.02,2.11-3.74,3.6-5.15ZM472.8,34.94c7.44-1.24,15.29-1.86,23.56-1.86v9.92c-7.77,0-15.31.62-22.63,1.86l-.93-9.92Z"/>
        <path class="cls-3" d="M537.9,41.45l10.85,2.17c-2.97,14.88-8.25,22.32-15.81,22.32-4.8,0-8.79-2.25-11.97-6.76-3.18-4.5-4.77-10.93-4.77-19.28,0-6.45.62-12.85,1.86-19.22l11.78.93c-1.24,6.2-1.86,12.3-1.86,18.29,0,3.1.24,5.78.71,8.03.47,2.25,1.03,3.85,1.67,4.81.64.95,1.29,1.43,1.95,1.43,1.86,0,3.72-4.24,5.58-12.71ZM547.82,24.71l11.16-3.41c2.85,5.91,4.98,11.66,6.39,17.24,1.4,5.58,2.38,12.24,2.91,19.96l-11.47.62c-.54-7.11-1.48-13.22-2.82-18.32-1.34-5.1-3.4-10.47-6.17-16.09Z"/>
        <path class="cls-3" d="M580.06,61.54c8.02-4.59,13.92-10.1,17.7-16.52,3.78-6.43,5.67-14.39,5.67-23.9v-6.7h11.53v6.7c0,9.51,1.89,17.47,5.67,23.9,3.78,6.43,9.68,11.94,17.7,16.52l-6.32,8.8c-4.63-2.36-8.89-5.76-12.77-10.2-3.88-4.44-7.07-9.52-9.55-15.22-2.56,5.66-5.87,10.73-9.92,15.19-4.05,4.46-8.52,7.87-13.39,10.23l-6.32-8.8Z"/>
        <path class="cls-3" d="M659.92,13.52h18.72l-2.34,38.22h-14.04l-2.34-38.22ZM661.48,70.46v-12.48h15.6v12.48h-15.6Z"/>
      </g>
      <g>
        <path class="cls-5" d="M114.75,63.65c-1.41,2.85-3.72,5.39-6.94,7.63l-5.77-7.94c2.19-1.61,3.74-3.07,4.65-4.37.91-1.3,1.49-3.09,1.74-5.36h-3.66v-16.06h25.79v16.06h-3.6v3.97c1.78-.58,3.29-1.09,4.53-1.55l.12,3.91c1.57-1.45,2.54-3.55,2.91-6.32h-1.8v-16.06h26.1v16.06h-5.46v7.63c0,.33.02.52.06.56.04.04.19.06.43.06h.25c.5,0,.78-.25.87-.74.08-.5.14-2.27.19-5.33l6.7,1.18c-.08,2.52-.16,4.39-.22,5.61-.06,1.22-.23,2.44-.5,3.66-.27,1.22-.52,2.02-.74,2.42-.23.39-.7.76-1.43,1.12-.72.35-1.43.54-2.11.56-.68.02-1.75.03-3.19.03h-2.42c-3.1,0-4.99-.26-5.67-.77-.68-.52-1.02-1.97-1.02-4.37v-11.59h-1.43c-.41,4.75-1.54,8.43-3.38,11.04-1.84,2.6-4.8,4.81-8.9,6.63l-3.16-5.15c-4.34,1.53-8.45,2.73-12.34,3.6l-.62-6.08ZM103.22,36v-7.01h4.71c-.41-.83-1.08-2.02-1.98-3.6h-2.11v-7.94h7.94v-3.97h10.91v3.97h8.18v7.94h-2.17c-.74,1.57-1.32,2.77-1.74,3.6h3.91v7.01h-27.65ZM118.1,28.99c.17-.29.38-.67.65-1.15.27-.47.52-.91.74-1.3.23-.39.42-.77.59-1.15h-5.33c.83,1.57,1.43,2.77,1.8,3.6h1.55ZM114.81,47.53h5.46v-3.66h-5.46v3.66ZM115.93,60.61c.25-.04.64-.13,1.18-.28.54-.14.97-.26,1.3-.34v-6.39h-1.36c-.17,2.69-.54,5.02-1.12,7.01ZM132.42,36v-7.01h3.78c-.41-.83-1.08-2.02-1.98-3.6h-1.8v-7.94h7.56v-3.97h10.97v3.97h8.8v7.94h-2.23c-.74,1.57-1.32,2.77-1.74,3.6h4.59v7.01h-27.96ZM148.23,47.53v-3.66h-5.52v3.66h5.52ZM146.68,28.99c.91-1.65,1.55-2.85,1.92-3.6h-5.27c.54,1.03,1.12,2.23,1.74,3.6h1.61Z"/>
        <path class="cls-5" d="M175.08,71.27l-4.84-8.56c1.74-4.22,2.75-8.66,3.04-13.33l-2.17.31v-8.8l2.48-.37v-22.13h3.84c.12-1.45.25-3.16.37-5.15l9.42.56c-.04.5-.09,1.26-.15,2.29-.06,1.03-.11,1.8-.16,2.29h3.97v19.65l.93-.12v-3.41c1.98-3.43,3.53-6.47,4.65-9.11h-4.65v-9.11h14.57v9.11c-1.28,3.31-2.67,6.35-4.15,9.11h3.53v-1.55h6.39v-5.39c-1.65.25-3.27.43-4.84.56l-.31-9.42c5.66-.54,12.34-1.96,20.03-4.28l1.55,9.42c-2.27.7-4.11,1.22-5.52,1.55v7.56h5.52v9.42h-5.52v6.7h4.9v8.8h-21.58v-8.8h5.77v-6.7h-5.77v.93c-.29,5.37-1.14,10.38-2.54,15,2.89,1.74,7.89,2.6,15,2.6h10.29l-.25,9.11h-10.04c-7.85,0-13.93-1.36-18.23-4.09-1.08,1.86-2.29,3.53-3.66,5.02l-6.14-7.19c-.12,3.26-.49,5.28-1.08,6.05-.6.76-1.93,1.15-4,1.15-.91,0-1.92-.1-3.04-.31l-.25-6.7h-2.17v-15.56l-.43.06c-.33,9.88-1.92,17.48-4.77,22.82ZM179.97,29.42l3.6-1.92c.66,2.03,1.18,3.78,1.55,5.27v-5.89h-5.15v2.54ZM179.97,39.59l5.15-.74v-1.74l-3.66,1.92c-.5-2.23-.99-4.22-1.49-5.95v6.51ZM184.19,47.78v13.7h.19l.12.06c.29,0,.46-.09.53-.28.06-.19.09-.82.09-1.89v-11.72l-.93.12ZM190.89,46.85v1.8l4.28-3.84c.87,2.27,1.4,3.66,1.61,4.15.29-1.86.45-3.74.5-5.64h-4.84v3.35l-1.55.19ZM190.89,54.29v6.82c.58-.66,1.32-1.61,2.23-2.85-.54-.83-1.28-2.15-2.23-3.97Z"/>
        <path class="cls-5" d="M267.58,44.86c0,3.39,1.54,6.17,4.62,8.34,3.08,2.17,7.53,3.42,13.36,3.75l-1.24,10.85c-9.01-.33-16.07-2.4-21.17-6.2-5.11-3.8-7.66-8.76-7.66-14.88,0-2.85.67-5.59,2.01-8.21,1.34-2.62,3.25-4.93,5.74-6.91v-.12c-8.1.87-15.54,1.3-22.32,1.3v-10.85c16.53,0,33.38-1.03,50.53-3.1l.93,10.54c-8.39,1.03-14.62,2.92-18.69,5.67-4.07,2.75-6.11,6.02-6.11,9.83ZM287.92,45.3l-6.39,3.04c-1.61-3.26-3.37-6.55-5.27-9.86l6.39-3.22c1.9,3.51,3.66,6.86,5.27,10.04ZM297.96,43.31l-6.51,3.1c-1.86-3.6-3.66-6.94-5.39-10.04l6.51-3.29c1.49,2.69,3.29,6.1,5.39,10.23Z"/>
        <path class="cls-5" d="M360.77,51c1.61,3.1,3.51,5.81,5.7,8.12l-5.15,10.29c-3.55-3.43-6.68-8.28-9.36-14.54-2.69-6.26-4.42-12.76-5.21-19.5h-1.3c-.21.17-.52.42-.93.78-.41.35-.72.61-.93.77,5.33,9.14,8,17.13,8,23.99,0,6.08-2.44,9.11-7.32,9.11-1.86,0-4.38-.1-7.56-.31l-.62-5.7c-2.11,1.65-4.53,3.24-7.25,4.77l-4.59-7.56c6.04-2.93,11.26-6.51,15.69-10.73-.04-.08-.11-.23-.22-.43-.1-.21-.18-.37-.22-.5-3.1,2.77-6.57,5.23-10.42,7.38l-1.8-2.98-2.11,1.49c-.21-.5-.56-1.26-1.05-2.29-.5-1.03-.87-1.82-1.12-2.36v19.53h-9.67v-13.21c-.83,2.73-1.84,5-3.04,6.82l-3.66-10.04c3.1-5,5.29-9.86,6.57-14.57h-5.08v-9.11h5.21v-4.9c-1.74.17-3.06.27-3.97.31l-.93-8.49c6.86-.41,13.04-1.53,18.54-3.35l1.18,3.35h11.9v-4.53h11.22v4.53h13.7v14.57h-2.48v3.66h-6.57c.21,1.41.54,3.12.99,5.15,1.2-1.98,1.96-3.29,2.29-3.91l6.63,6.7c-1.45,2.36-3.14,4.92-5.08,7.69ZM326.66,30.23v-7.38c-2.11.58-3.33.91-3.66.99v6.39h3.66ZM336.34,43.25c-.04-.08-.12-.22-.25-.4s-.21-.32-.25-.4c-1.74,1.12-3.78,2.31-6.14,3.6l-4.22-6.7h-1.36c1.03,1.65,2.73,4.49,5.08,8.49,2.73-1.45,5.1-2.98,7.13-4.59ZM333.86,35.38h-4.15v-3.66h-1.18v6.39c1.49-.66,3.26-1.57,5.33-2.73ZM354.94,25.39h-18.54v1.8h18.54v-1.8ZM342.41,58.32c-.62.66-1.59,1.61-2.91,2.85.58.04,1.26.06,2.05.06.45,0,.72-.09.81-.28.08-.19.12-.8.12-1.83,0-.37-.02-.64-.06-.81Z"/>
        <path class="cls-5" d="M407.02,45.54l.12-.12c-.17-.33-.41-.82-.74-1.46-.33-.64-.58-1.13-.74-1.46-10,.95-19.24,1.43-27.71,1.43v-8.99c7.11,0,15.17-.39,24.18-1.18-.25-.74-.52-1.59-.8-2.54-7.52.62-13.87.93-19.03.93v-8.99c5.29,0,10.93-.25,16.93-.74-.33-1.82-.6-3.95-.81-6.39l11.16-.31c.08,1.16.33,3,.74,5.52,1.45-.16,3.57-.45,6.38-.87-.54-1.03-1.34-2.54-2.42-4.53l5.83-2.91c1.7,3.18,3.27,6.22,4.71,9.11l-3.35,1.61.5,4.96c-3.51.58-6.68,1.05-9.49,1.43.12.29.27.72.43,1.3.16.58.31,1.01.43,1.3,4.09-.45,8.72-1.14,13.89-2.05l.93,8.99c-2.48.46-6.14.99-10.97,1.61,1.78,3.47,3.78,6.76,6.01,9.86l-9.3,4.96c-3.72-1.65-8.27-2.48-13.64-2.48-2.11,0-3.56.22-4.37.65-.8.43-1.21,1.15-1.21,2.14,0,1.28.79,2.22,2.39,2.82,1.59.6,4.52.9,8.77.9,3.97,0,8.51-.41,13.64-1.24l1.24,9.61c-4.92.83-9.88,1.24-14.88,1.24-15.29,0-22.94-4.34-22.94-13.02,0-3.72,1.45-6.61,4.34-8.68,2.89-2.07,7.23-3.1,13.02-3.1,2.4,0,4.65.23,6.76.68ZM434.36,21.3l-5.95,2.85c-2.23-4.3-3.84-7.36-4.84-9.18l5.95-2.98c1.9,3.47,3.51,6.57,4.84,9.3Z"/>
        <path class="cls-5" d="M448,33.08v-9.92c3.39-.08,6.92-.21,10.6-.37.79-3.64,1.38-6.61,1.8-8.93l11.16.93c-.54,3.02-.99,5.46-1.36,7.32,5.21-.37,10.31-.85,15.31-1.43l.93,9.92c-4.63.58-10.77,1.12-18.41,1.61-2.85,12.44-6.32,24.51-10.42,36.21l-10.85-3.1c3.72-10.54,6.92-21.37,9.61-32.49-1.86.08-4.65.17-8.37.25ZM473.42,46.41l8.68,4.34c-1.45,1.7-2.17,3.04-2.17,4.03,0,.91.4,1.55,1.21,1.92.81.37,2.37.56,4.68.56,2.64,0,6.37-.62,11.16-1.86l1.24,9.92c-4.05,1.24-8.18,1.86-12.4,1.86-6.08,0-10.49-.83-13.24-2.48-2.75-1.65-4.12-4.13-4.12-7.44,0-1.78.45-3.68,1.36-5.7.91-2.02,2.11-3.74,3.6-5.15ZM472.8,34.94c7.44-1.24,15.29-1.86,23.56-1.86v9.92c-7.77,0-15.31.62-22.63,1.86l-.93-9.92Z"/>
        <path class="cls-5" d="M537.9,41.45l10.85,2.17c-2.97,14.88-8.25,22.32-15.81,22.32-4.8,0-8.79-2.25-11.97-6.76-3.18-4.5-4.77-10.93-4.77-19.28,0-6.45.62-12.85,1.86-19.22l11.78.93c-1.24,6.2-1.86,12.3-1.86,18.29,0,3.1.24,5.78.71,8.03.47,2.25,1.03,3.85,1.67,4.81.64.95,1.29,1.43,1.95,1.43,1.86,0,3.72-4.24,5.58-12.71ZM547.82,24.71l11.16-3.41c2.85,5.91,4.98,11.66,6.39,17.24,1.4,5.58,2.38,12.24,2.91,19.96l-11.47.62c-.54-7.11-1.48-13.22-2.82-18.32-1.34-5.1-3.4-10.47-6.17-16.09Z"/>
        <path class="cls-5" d="M580.06,61.54c8.02-4.59,13.92-10.1,17.7-16.52,3.78-6.43,5.67-14.39,5.67-23.9v-6.7h11.53v6.7c0,9.51,1.89,17.47,5.67,23.9,3.78,6.43,9.68,11.94,17.7,16.52l-6.32,8.8c-4.63-2.36-8.89-5.76-12.77-10.2-3.88-4.44-7.07-9.52-9.55-15.22-2.56,5.66-5.87,10.73-9.92,15.19-4.05,4.46-8.52,7.87-13.39,10.23l-6.32-8.8Z"/>
        <path class="cls-5" d="M659.92,13.52h18.72l-2.34,38.22h-14.04l-2.34-38.22ZM661.48,70.46v-12.48h15.6v12.48h-15.6Z"/>
      </g>
    </g>
    <g>
      <g>
        <path class="cls-16" d="M18.18,171.12c-.32,0-.63-.01-.95-.04-3.43-.27-6.57-2-8.64-4.75l-6.18-8.22c-3.48-4.62-3.16-11.07.75-15.33.27-.29.53-.6.78-.91-2.67-2.6-4.05-6.37-3.53-10.23.68-5,1.03-11.1,1.03-18.12,0-3.47,1.5-6.77,4.12-9.05,1.2-1.05,2.59-1.83,4.06-2.33,1.48-4.94,6.07-8.54,11.49-8.54h9.36c1.4,0,2.74.24,3.99.68,2.04-1.54,4.56-2.42,7.22-2.42.45,0,.91.03,1.37.08l9.96,1.14c3.44.39,6.55,2.26,8.52,5.11.09.13.17.26.26.39h6.36c3.2,0,6.27,1.28,8.52,3.55,2.25,2.27,3.5,5.36,3.47,8.56-.28,29.8-1.14,38.42-1.77,42.3-.5,3.01-2,11.99-9.65,16.1-.17.09-.35.18-.52.27-2.53,1.2-5.44,1.76-9.17,1.76s-8.59-.1-14.23-.31c-3.14-.11-5.97-1.43-8.04-3.5-1.42.57-2.94.87-4.48.87-.59,0-1.18-.04-1.77-.13-1.15-.17-2.26-.51-3.3-.99-.23.24-.47.47-.71.7-2.25,2.16-5.23,3.36-8.33,3.36Z"/>
        <path class="cls-18" d="M81.41,172.02c-1.97,0-3.97-.49-5.8-1.5l-8.58-4.74c-3.1-1.71-5.29-4.71-5.97-8.19-.58-2.94-.03-5.98,1.5-8.51-.06-.33-.12-.67-.15-1.01l-.9-8.22c-.22-2,.07-4,.81-5.83l-1.5-4.94c-.97-3.19-.55-6.48.92-9.2v-4.56c0-2.11.54-4.09,1.5-5.81v-2.17c0-6.21,4.71-11.31,10.75-11.94,2.15-2.05,5.06-3.3,8.27-3.3h10.62c1.95,0,3.8.47,5.43,1.3,1.63-.83,3.48-1.3,5.43-1.3h9.12c4.03,0,7.6,1.99,9.78,5.04h.78c6.63,0,12,5.37,12,12,0,4.16.03,7.53.07,10.26l.31.17c3.92,2.21,6.27,6.43,6.09,10.92-.27,6.91-1.4,12.26-3.45,16.36-.12.24-.24.48-.37.7.32.5.62.98.9,1.44,1.75,2.84,2.24,6.28,1.34,9.5-.89,3.22-3.08,5.91-6.05,7.45l-8.58,4.44c-1.76.91-3.65,1.34-5.51,1.34-2.06,0-4.09-.53-5.89-1.54l-7.16,1.33c-.74.14-1.48.2-2.21.2-1.5,0-2.96-.28-4.32-.81l-8.46.76c-.36.03-.73.05-1.09.05-1.57,0-3.09-.31-4.48-.87-1.62.77-3.39,1.17-5.18,1.17Z"/>
        <path class="cls-4" d="M162,169.26c-7.35,0-13.49-2.02-18.26-6-.23-.2-.46-.4-.69-.6-1.01-.03-2.03-.19-3.04-.48l-10.2-3c-3.19-.94-5.85-3.16-7.34-6.13-1.49-2.97-1.68-6.43-.52-9.55,1.61-4.33,3.07-8.61,4.39-12.79-1.71-2.07-2.74-4.74-2.74-7.64v-9.6c0-5.98,4.38-10.94,10.11-11.85,1.52-5.07,6.2-8.55,11.48-8.55.45,0,.91.03,1.38.08l10.5,1.2c3.32.38,6.33,2.12,8.3,4.81.03.04.06.08.09.12,1.37-.53,2.84-.82,4.34-.82,1.01,0,2.04.13,3.06.4,6.28,1.66,12.94,3.8,19.77,6.37,6.2,2.33,9.33,9.24,7.01,15.44l-3.6,9.6c-.72,1.92-1.91,3.6-3.44,4.91.89.77,1.79,1.58,2.72,2.44,4.74,4.35,5.2,11.68,1.05,16.59l-6.6,7.8c-2.13,2.52-5.2,4.05-8.49,4.23-.22.01-.45.02-.67.02-1.26,0-2.51-.2-3.69-.58,0,0,0,0-.01,0-4.05,2.41-8.92,3.58-14.89,3.58Z"/>
        <path class="cls-11" d="M240.48,171.12c-3.8,0-8.59-.1-14.23-.31-3.69-.13-6.96-1.93-9.08-4.67h-4.1c-2.2,2.5-5.42,4.08-9.02,4.08h-10.02c-6.63,0-12-5.37-12-12v-46.44c0-5.63,3.88-10.36,9.11-11.65,1.6-4.91,6.21-8.27,11.4-8.27.44,0,.88.02,1.33.07l10.32,1.14c.9.1,1.78.3,2.62.59,1.86-1.15,4.04-1.8,6.32-1.8.45,0,.91.03,1.37.08l10.02,1.14c3.45.39,6.55,2.26,8.52,5.11.09.13.18.26.26.39h5.16c3.2,0,6.27,1.28,8.53,3.56,2.25,2.28,3.5,5.36,3.47,8.56-.12,12.23-.28,21.59-.49,27.81-.23,6.92-.75,12.26-1.6,16.32-1.03,4.92-2.57,9.89-6.8,13.05-2.95,2.19-6.57,3.25-11.1,3.25Z"/>
        <path class="cls-9" d="M275.22,171.72c-6.63,0-12-5.37-12-12v-1.26h-8.28c-6.63,0-12-5.37-12-12v-32.94c0-6.63,5.37-12,12-12h8.63c1.29-5.24,6.02-9.12,11.65-9.12h11.16c5.63,0,10.36,3.88,11.65,9.12h8.63c6.63,0,12,5.37,12,12v32.94c0,6.63-5.37,12-12,12h-8.28v1.26c0,6.63-5.37,12-12,12h-11.16Z"/>
        <path class="cls-22" d="M345,169.26c-24.87,0-30.33-12.36-31.31-20.11l-5.36-3.14c-2.89-1.7-4.94-4.52-5.66-7.8-.71-3.28-.02-6.7,1.9-9.45.46-.65.9-1.29,1.33-1.93-1.09-1.8-1.71-3.92-1.71-6.18v-9.3c0-6.63,5.37-12,12-12,1.03,0,2.01,0,2.94,0,1.98-4.21,6.23-6.9,10.85-6.9.65,0,1.32.05,1.98.16l10.8,1.8c2.87.48,5.45,1.98,7.28,4.19,2.97-.12,6.08-.27,9.34-.44.21-.01.41-.02.62-.02,3,0,5.9,1.13,8.12,3.17,2.37,2.18,3.77,5.22,3.87,8.45l.25,7.73c1.43,1.73,2.37,3.85,2.66,6.12l1.2,9.3c.54,4.19-1.15,8.15-4.14,10.69.14.56.23,1.14.29,1.72l.9,9.6c.6,6.36-3.89,12.07-10.22,12.99-6.03.88-12.06,1.33-17.93,1.33Z"/>
        <path class="cls-14" d="M402.72,171.12c-2.87,0-5.5-1-7.56-2.68-2.06,1.68-4.69,2.68-7.56,2.68h-10.02c-6.63,0-12-5.37-12-12v-8.87c-2.19-1.9-3.66-4.56-4.04-7.54l-1.74-13.56c-.4-3.1.43-6.23,2.3-8.73,1.52-2.02,2.78-4.3,3.76-6.76,1.12-2.81,2.2-6.66,3.22-11.45,1.19-5.63,6.16-9.52,11.73-9.52.71,0,1.43.06,2.15.19l9.96,1.8c.89.16,1.74.42,2.54.76,2.02-1.54,4.53-2.45,7.26-2.45h10.56c5.42,0,10,3.59,11.49,8.52h3.69c6.63,0,12,5.37,12,12v8.82c0,3.42-1.43,6.5-3.72,8.69.86,1.28,1.77,2.54,2.72,3.79,2.82,3.72,3.23,8.74,1.05,12.86l-5.58,10.56c-1.99,3.77-5.83,6.2-10.08,6.38-.18,0-.35.01-.53.01-.13,0-.25,0-.38,0-2,3.85-6.02,6.49-10.66,6.49h-10.56Z"/>
        <path class="cls-19" d="M486.06,171.12c-1.31,0-2.64-.22-3.95-.67-3.4-1.19-6.53-2.75-9.36-4.69-2.99,1.93-6.27,3.51-9.83,4.72-1.28.44-2.58.64-3.87.64-1.15,0-2.28-.17-3.37-.48-1.45.32-2.98.48-4.61.48-1.83,0-3.8-.12-6.03-.38-1.9-.22-3.66-.87-5.18-1.85-1.04.29-2.11.43-3.19.43-1.41,0-2.83-.25-4.18-.75l-4.68-1.74c-5.46-2.03-8.67-7.69-7.62-13.42.89-4.83,1.41-9.39,1.55-13.54.03-.77.12-1.52.29-2.26v-31.71c0-6.63,5.37-12,12-12h24.12c1.17,0,2.29.17,3.36.48,1.94-1.27,4.22-1.98,6.6-1.98h8.88c3.61,0,7.02,1.62,9.3,4.41,3.01,3.69,6.43,6.89,10.19,9.52,4.38,3.07,6.2,8.66,4.47,13.72l-2.29,6.69v15.09c.65.75,1.21,1.59,1.67,2.49,1.5,2.99,1.68,6.47.5,9.6l-3.54,9.42c-1.81,4.8-6.37,7.78-11.23,7.78Z"/>
        <path class="cls-6" d="M519.6,169.26c-9.94,0-17.66-2.86-22.95-8.51-5.15-5.5-7.65-13.31-7.65-23.89,0-4.13.1-9.16.31-14.94.19-5.57.29-10.64.29-15.06,0-6.63,5.37-12,12-12h11.7c6.63,0,12,5.37,12,12,0,1.02-.03,3.72-.3,15.28-.02.85-.04,1.66-.06,2.42,1.3-2.4,3.38-4.3,5.92-5.37,1.48-.62,3.06-.93,4.64-.93s3.11.3,4.57.9l10.2,4.2c5.98,2.46,8.94,9.23,6.67,15.29-3.77,10.1-8.47,17.43-14.36,22.4-6.45,5.44-14.18,8.2-22.98,8.2Z"/>
        <path class="cls-21" d="M566.1,169.26c-1.09,0-2.2-.15-3.3-.46l-10.5-3c-3.18-.91-5.85-3.09-7.37-6.03-1.52-2.94-1.75-6.38-.65-9.5,2.01-5.68,3.87-11.51,5.56-17.43-.51-.36-.99-.76-1.44-1.2-2.31-2.26-3.61-5.35-3.61-8.58v-9.6c0-6.51,5.2-11.84,11.71-12,.22,0,.45-.01.68-.02,1.37-5.29,6.15-8.99,11.61-8.99.33,0,.67.01,1.01.04l10.8.9c3.37.28,6.46,1.97,8.52,4.64.32.41.61.85.87,1.29.58-.06,1.16-.13,1.74-.2.46-.05.92-.08,1.38-.08,2.74,0,5.41.94,7.55,2.68,2.51,2.03,4.09,4.99,4.39,8.2l.12,1.22c5.89.77,10.44,5.8,10.44,11.9v9.6c0,1.98-.48,3.84-1.32,5.48.97,1.5,1.6,3.22,1.83,5.03l1.2,9.6c.72,5.79-2.82,11.26-8.39,12.96-5.04,1.54-10.26,2.33-15.51,2.33-7.6,0-13.31-1.1-17.81-3.45-2.26,2.92-5.78,4.65-9.49,4.65Z"/>
        <path class="cls-15" d="M633,166.86c-6.01,0-14.6-2.02-21.38-11.62-4.52-6.4-6.82-15.01-6.82-25.58,0-6.98.68-14.01,2.02-20.89,1.11-5.67,6.08-9.71,11.77-9.71.32,0,.63.01.95.04l11.4.9c3.42.27,6.56,1.99,8.63,4.73.18.24.35.48.51.73,1.13-.87,2.42-1.54,3.81-1.97l10.8-3.3c1.16-.36,2.34-.53,3.51-.53,4.5,0,8.76,2.55,10.81,6.79,3.1,6.42,5.46,12.8,7.01,18.96,1.53,6.06,2.59,13.27,3.15,21.42.22,3.21-.85,6.37-2.98,8.78-2.13,2.41-5.14,3.86-8.35,4.04l-11.1.6c-.22.01-.44.02-.66.02-2.11,0-4.1-.55-5.84-1.52-5.44,6.35-11.82,8.12-17.25,8.12Z"/>
        <path class="cls-12" d="M678.73,171.12c-3.76,0-7.43-1.77-9.75-5l-6.12-8.52c-1.98-2.76-2.7-6.23-1.98-9.55.72-3.32,2.82-6.18,5.77-7.87,5.89-3.37,10.18-7.29,12.75-11.66,2.54-4.32,3.83-10.06,3.83-17.04v-6.48c0-6.63,5.37-12,12-12h11.16c6.63,0,12,5.37,12,12v6.48c0,6.99,1.29,12.72,3.83,17.04,2.57,4.37,6.86,8.29,12.75,11.66,2.95,1.69,5.04,4.55,5.77,7.87.72,3.32,0,6.79-1.98,9.55l-6.12,8.52c-2.32,3.23-5.99,5-9.75,5-1.84,0-3.7-.42-5.44-1.31-5.83-2.97-11.2-7.23-15.95-12.67-.13-.15-.26-.3-.39-.45-.17.2-.35.39-.53.59-4.94,5.45-10.54,9.7-16.63,12.64-1.67.81-3.45,1.2-5.21,1.2Z"/>
        <path class="cls-10" d="M754.4,172.7c-6.63,0-12-5.37-12-12v-11.84c0-1.56.3-3.04.84-4.41-.03-.26-.06-.52-.07-.78l-2.22-36.26c-.2-3.3.97-6.54,3.24-8.96,2.27-2.41,5.43-3.78,8.74-3.78h17.76c3.31,0,6.47,1.37,8.74,3.78,2.27,2.41,3.44,5.65,3.24,8.96l-2.22,36.26c-.02.26-.04.52-.07.78.54,1.36.84,2.85.84,4.41v11.84c0,6.63-5.37,12-12,12h-14.8Z"/>
      </g>
      <g>
        <path class="cls-3" d="M59.04,159.12c-3.68,0-8.28-.1-13.8-.3l-.6-9.12c3.6.2,6.72.3,9.36.3.68,0,1.17-.17,1.47-.51.3-.34.61-1.54.93-3.6.32-2.06.55-5.02.69-8.88.14-3.86.29-9.63.45-17.31h-11.04c-1.12,2.44-2.34,4.72-3.66,6.84l6.78-2.7c2.52,5.08,4.68,10.56,6.48,16.44l-8.82,2.94c-1.6-5-3.54-9.86-5.82-14.58-1,1.4-1.7,2.34-2.1,2.82l-4.32-4.26c-.92,3.04-1.64,5.24-2.16,6.6l-3.3-1.68c-.04.2-.09.46-.15.78-.06.32-.09.56-.09.72,3.12,4.92,6.36,10.28,9.72,16.08l-6.78,6.48c-1.8-3.2-3.8-6.62-6-10.26-2.08,5.6-4.78,10-8.1,13.2l-6.18-8.22c3.16-3.44,5.47-7.76,6.93-12.96,1.46-5.2,2.19-12.06,2.19-20.58v-11.76h9.36v15c.64-2.36,1.24-4.82,1.8-7.38l5.58,1.44c1.6-3.4,2.88-7,3.84-10.8l9.96,1.14c-.48,1.88-1.02,3.74-1.62,5.58h18.12c-.2,21.56-.74,35.06-1.62,40.5-.68,4.08-1.84,6.56-3.48,7.44-.84.4-2.18.6-4.02.6ZM12.3,133.26c.76-5.56,1.14-12.14,1.14-19.74l6.48.9c0,7.92-.48,15.08-1.44,21.48l-6.18-2.64Z"/>
        <path class="cls-3" d="M120.18,159.72c-2.36-3.88-4.8-7.52-7.32-10.92l7.74-3.96c-1.96-.8-3.44-2.98-4.44-6.54l-3.6,5.52c-1.08-1.4-2.24-2.86-3.48-4.38-1.24,2.84-2.82,5.28-4.74,7.32l-4.02-4.92.18,2.58c-5.6.68-11.5,1.26-17.7,1.74l5.94,2.64c-2.16,4-4.6,7.74-7.32,11.22l-8.58-4.74c2.32-2.88,4.48-5.84,6.48-8.88-1.08.08-2.74.2-4.98.36l-.9-8.22c2.44-.08,5.38-.24,8.82-.48v-2.16h-5.58v-3.48c-.88.4-1.56.68-2.04.84l-2.34-7.68c2.56-.8,4.6-1.88,6.12-3.24h-4.68v-7.02h8.52v-1.5h-7.02v-6.48h7.02v-3.24h10.62v3.24h6.72v1.8h4.14v-5.04h9.12v5.04h10.56c0,16.44.4,24.66,1.2,24.66.16,0,.36-2.14.6-6.42l4.68,2.64c-.2,5.12-.93,8.94-2.19,11.46-1.26,2.52-2.79,3.78-4.59,3.78-.52,0-.9-.02-1.14-.06,2.92,4.12,5.18,7.48,6.78,10.08l-8.58,4.44ZM81.6,129.42h3v-3.12c-.88,1.16-1.88,2.2-3,3.12ZM85.8,124.44h3.24v-2.1h-2.4c-.32.96-.6,1.66-.84,2.1ZM91.08,159.72c-.44-3.96-1.02-7.98-1.74-12.06l9.72-.9c.92,4.08,1.6,8.1,2.04,12.06l-10.02.9ZM99.36,115.32v-1.5h-6.48v1.5h6.48ZM99.24,129.42l.78-1.2h-2.46c-2.32,0-3.88-.04-4.68-.12v1.32h6.36ZM102.06,132.12c-.96-.8-1.68-1.38-2.16-1.74v5.52h-7.02v1.5c.68-.04,2.96-.24,6.84-.6,1-1.32,1.78-2.88,2.34-4.68ZM99.3,122.34h-2.04v.6c0,.4.05.65.15.75.1.1.35.15.75.15.48,0,.78-.08.9-.24.12-.16.2-.58.24-1.26ZM103.74,117.96h-3.54v3.06l3.42.42c.08-1.44.12-2.6.12-3.48ZM104.94,159.72c-1-3.92-2.18-7.74-3.54-11.46l9.42-2.1c1.12,3.08,2.38,7,3.78,11.76l-9.66,1.8ZM115.14,133.26c-.56-4-.84-9.1-.84-15.3h-1.44c-.04,4.08-.36,7.98-.96,11.7.72.72,1.8,1.92,3.24,3.6Z"/>
        <path class="cls-3" d="M143.4,150.66l-10.2-3c3.16-8.52,5.78-16.74,7.86-24.66-1.2.04-3.02.06-5.46.06v-9.6c3.56,0,6.18-.04,7.86-.12.76-3.36,1.34-6.12,1.74-8.28l10.5,1.2c-.16.84-.4,1.99-.72,3.45-.32,1.46-.52,2.41-.6,2.85,2.4-.24,4.94-.54,7.62-.9l.6,9.6c-3.36.44-6.86.82-10.5,1.14-2.32,9.52-5.22,18.94-8.7,28.26ZM175.08,149.34c-.76,2.76-2.2,4.77-4.32,6.03-2.12,1.26-5.04,1.89-8.76,1.89-4.48,0-8-1.07-10.56-3.21-2.56-2.14-3.84-5.07-3.84-8.79s1.26-6.55,3.78-8.73c2.52-2.18,6.06-3.27,10.62-3.27.88,0,1.78.06,2.7.18-.08-3.48.02-6.34.3-8.58h10.8c-.36,2.76-.42,6.76-.18,12,0,.08,0,.18.03.3.02.12.03.22.03.3,3.28,1.96,7.12,4.96,11.52,9l-6.6,7.8c-2.16-2.04-4-3.68-5.52-4.92ZM165,142.92c-1.2-.44-2.4-.66-3.6-.66-.88,0-1.6.29-2.16.87-.56.58-.84,1.29-.84,2.13,0,.92.29,1.65.87,2.19.58.54,1.29.81,2.13.81,1.52,0,2.5-.32,2.94-.96.44-.64.66-2.1.66-4.38ZM166.5,120.06l3.3-9.6c5.92,1.56,12.12,3.56,18.6,6l-3.6,9.6c-6.08-2.36-12.18-4.36-18.3-6Z"/>
        <path class="cls-3" d="M240.48,159.12c-3.68,0-8.28-.1-13.8-.3l-.6-9.12c3.6.2,6.74.3,9.42.3.36,0,.63-.24.81-.72.18-.48.37-1.72.57-3.72.2-2,.37-5.03.51-9.09.14-4.06.29-9.65.45-16.77h-9.96c-.92,2-2.02,4.08-3.3,6.24l5.34-2.1c2.52,5.08,4.68,10.56,6.48,16.44l-8.82,2.94c-1.32-4.28-3.12-8.82-5.4-13.62-.32.48-.88,1.2-1.68,2.16l-2.04-2.04v24.42h-14.4v4.08h-10.02v-46.44h6.66c.84-3.08,1.46-5.72,1.86-7.92l10.32,1.14c-.44,2.16-.96,4.42-1.56,6.78h7.14v4.5c1.96-3.84,3.52-7.98,4.68-12.42l10.02,1.14c-.48,1.88-1.02,3.74-1.62,5.58h16.92c-.12,12.2-.28,21.38-.48,27.54-.2,6.16-.65,10.91-1.35,14.25-.7,3.34-1.44,5.3-2.22,5.88-.78.58-2.09.87-3.93.87ZM204.06,128.82h4.68v-8.22h-4.68v8.22ZM204.06,137.34v8.22h4.68v-8.22h-4.68Z"/>
        <path class="cls-3" d="M265.2,143.52v2.94h-10.26v-32.94h20.28v-9.12h11.16v9.12h20.28v32.94h-10.26v-2.94h-10.02v16.2h-11.16v-16.2h-10.02ZM265.2,134.7h10.02v-12.06h-10.02v12.06ZM296.4,134.7v-12.06h-10.02v12.06h10.02Z"/>
        <path class="cls-3" d="M333.54,123.6l.12.12c2-.84,3.98-1.26,5.94-1.26,5.2,0,8.82,1.7,10.86,5.1,4.16-1.04,8.34-1.84,12.54-2.4l1.2,9.3c-3.64.48-7.36,1.2-11.16,2.16.24,2.16.36,4.64.36,7.44h-10.8c0-.96-.04-2.16-.12-3.6-3.52,1.76-5.28,3.36-5.28,4.8,0,.96.54,1.65,1.62,2.07,1.08.42,3.14.63,6.18.63,3.48,0,8.58-.5,15.3-1.5l.9,9.6c-5.48.8-10.88,1.2-16.2,1.2-13,0-19.5-3.7-19.5-11.1,0-2.64,1.18-5.26,3.54-7.86,2.36-2.6,5.8-4.92,10.32-6.96-.8-.52-1.92-.78-3.36-.78-1.68,0-3.64.85-5.88,2.55-2.24,1.7-4.58,4.25-7.02,7.65l-8.7-5.1c3.96-5.64,7.04-10.66,9.24-15.06-.8,0-2.04.01-3.72.03-1.68.02-2.92.03-3.72.03v-9.3c5.08,0,8.9-.02,11.46-.06.76-2.08,1.54-4.36,2.34-6.84l10.8,1.8c-.72,2.08-1.28,3.66-1.68,4.74,6.12-.16,13.08-.44,20.88-.84l.3,9.3c-8,.44-16.38.76-25.14.96-.6,1.28-1.14,2.34-1.62,3.18Z"/>
        <path class="cls-3" d="M395.34,146.7c-1.28,2.2-2.5,4.18-3.66,5.94l-4.08-4.62v11.1h-10.02v-23.52c-1.48,2.44-2.86,4.3-4.14,5.58l-1.74-13.56c2.16-2.88,3.93-6.05,5.31-9.51,1.38-3.46,2.65-7.93,3.81-13.41l9.96,1.8c-.32,2.24-.78,4.58-1.38,7.02h13.32v-8.52h10.56v8.52h15.18v8.82h-9.96c2.8,6.84,6.6,13.42,11.4,19.74l-5.58,10.56c-1.24-1.92-2.46-3.92-3.66-6v4.26h-7.38v8.22h-10.56v-8.22h-7.38v-4.2ZM397.5,122.34h-8.46v-7.44c-.4,1.6-.88,3.16-1.44,4.68v20.58c3.84-5.36,7.14-11.3,9.9-17.82ZM402.72,130.92c-1.6,4.2-3.32,8.1-5.16,11.7h5.16v-11.7ZM418.44,142.62c-1.92-3.76-3.64-7.66-5.16-11.7v11.7h5.16Z"/>
        <path class="cls-3" d="M433.74,140.28l4.44.9c-.08,5.04-.58,10.42-1.5,16.14l-4.68-1.74c1-5.44,1.58-10.54,1.74-15.3ZM468.12,104.4h8.88c3.72,4.56,7.92,8.48,12.6,11.76l-2.94,8.58v19.68h-8.04c1.4,1.8,5.06,3.56,10.98,5.28l-3.54,9.42c-5.4-1.88-9.72-5.08-12.96-9.6-3.6,4.44-8.28,7.64-14.04,9.6l-2.16-5.7c-.4,2.36-1.03,3.9-1.89,4.62-.86.72-2.17,1.08-3.93,1.08-1.36,0-2.92-.1-4.68-.3l-.42-6.18-1.08.24c-.28-3.12-.7-7.04-1.26-11.76l3.66-.66c.28,2.08.68,5.34,1.2,9.78.44.04.92.06,1.44.06.16,0,.28,0,.36-.03.08-.02.15-.12.21-.3.06-.18.11-.45.15-.81l-1.32.24c-.12-.96-.52-3.8-1.2-8.52l2.64-.48v-1.26h-16.74v-33.24h24.12v8.22h-4.14v2.34h1.5c2.64-1.84,4.9-3.67,6.78-5.49,1.88-1.82,3.82-4.01,5.82-6.57ZM439.62,156.18c-.04-2.12-.24-7.12-.6-15l3.84-.6c.44,5.36.74,10.36.9,15l-4.14.6ZM446.1,116.46v-2.34h-2.64v2.34h2.64ZM446.1,122.04h-2.64v2.4h2.64v-2.4ZM446.1,130.02h-2.64v2.34h2.64v-2.34ZM466.26,144.42h-7.5v-18.84l-1.26-3.54h-3.48v2.4h3.24v5.58h-3.24v2.34h3.54v7.62c0,3.72-.06,6.78-.18,9.18,4.48-1.44,7.44-3.02,8.88-4.74ZM459.96,124.74h7.92v-1.8h-3.84v-1.62c-1.52,1.36-2.88,2.5-4.08,3.42ZM467.88,137.04v-4.68h-1.8v4.68h1.8ZM469.92,115.02h5.28c-1.2-1.52-2.08-2.7-2.64-3.54-.56.84-1.44,2.02-2.64,3.54ZM481.08,121.32v1.62h-3.84v1.8h7.92c-1.2-.92-2.56-2.06-4.08-3.42ZM477.24,137.04h1.8v-4.68h-1.8v4.68Z"/>
        <path class="cls-3" d="M501,136.86c0-4,.1-8.84.3-14.52.2-5.72.3-10.88.3-15.48h11.7c0,1.52-.1,6.52-.3,15-.2,8.48-.3,13.48-.3,15,0,3.64.55,6.2,1.65,7.68,1.1,1.48,2.85,2.22,5.25,2.22,3.16,0,5.97-1.2,8.43-3.6,2.46-2.4,4.95-6.7,7.47-12.9l10.2,4.2c-3,8.04-6.62,13.85-10.86,17.43-4.24,3.58-9.32,5.37-15.24,5.37-6.52,0-11.25-1.57-14.19-4.71-2.94-3.14-4.41-8.37-4.41-15.69Z"/>
        <path class="cls-3" d="M556.8,123.06v-9.6c3.28-.08,6.7-.2,10.26-.36.76-3.52,1.34-6.4,1.74-8.64l10.8.9c-.52,2.92-.96,5.28-1.32,7.08,5.04-.36,9.98-.82,14.82-1.38l.9,9.6c-4.48.56-10.42,1.08-17.82,1.56-2.76,12.04-6.12,23.72-10.08,35.04l-10.5-3c3.6-10.2,6.7-20.68,9.3-31.44-1.8.08-4.5.16-8.1.24ZM581.4,135.96l8.4,4.2c-1.4,1.64-2.1,2.94-2.1,3.9,0,.88.39,1.5,1.17,1.86.78.36,2.29.54,4.53.54,2.56,0,6.16-.6,10.8-1.8l1.2,9.6c-3.92,1.2-7.92,1.8-12,1.8-5.88,0-10.15-.8-12.81-2.4-2.66-1.6-3.99-4-3.99-7.2,0-1.72.44-3.56,1.32-5.52.88-1.96,2.04-3.62,3.48-4.98ZM580.8,124.86c7.2-1.2,14.8-1.8,22.8-1.8v9.6c-7.52,0-14.82.6-21.9,1.8l-.9-9.6Z"/>
        <path class="cls-3" d="M637.8,131.16l10.5,2.1c-2.88,14.4-7.98,21.6-15.3,21.6-4.64,0-8.5-2.18-11.58-6.54-3.08-4.36-4.62-10.58-4.62-18.66,0-6.24.6-12.44,1.8-18.6l11.4.9c-1.2,6-1.8,11.9-1.8,17.7,0,3,.23,5.59.69,7.77.46,2.18,1,3.73,1.62,4.65.62.92,1.25,1.38,1.89,1.38,1.8,0,3.6-4.1,5.4-12.3ZM647.4,114.96l10.8-3.3c2.76,5.72,4.82,11.28,6.18,16.68,1.36,5.4,2.3,11.84,2.82,19.32l-11.1.6c-.52-6.88-1.43-12.79-2.73-17.73-1.3-4.94-3.29-10.13-5.97-15.57Z"/>
        <path class="cls-3" d="M672.6,150.6c7.76-4.44,13.47-9.77,17.13-15.99,3.66-6.22,5.49-13.93,5.49-23.13v-6.48h11.16v6.48c0,9.2,1.83,16.91,5.49,23.13,3.66,6.22,9.37,11.55,17.13,15.99l-6.12,8.52c-4.48-2.28-8.6-5.57-12.36-9.87-3.76-4.3-6.84-9.21-9.24-14.73-2.48,5.48-5.68,10.38-9.6,14.7-3.92,4.32-8.24,7.62-12.96,9.9l-6.12-8.52Z"/>
        <path class="cls-3" d="M752.92,106.68h17.76l-2.22,36.26h-13.32l-2.22-36.26ZM754.4,160.7v-11.84h14.8v11.84h-14.8Z"/>
      </g>
      <g>
        <path class="cls-5" d="M59.04,159.12c-3.68,0-8.28-.1-13.8-.3l-.6-9.12c3.6.2,6.72.3,9.36.3.68,0,1.17-.17,1.47-.51.3-.34.61-1.54.93-3.6.32-2.06.55-5.02.69-8.88.14-3.86.29-9.63.45-17.31h-11.04c-1.12,2.44-2.34,4.72-3.66,6.84l6.78-2.7c2.52,5.08,4.68,10.56,6.48,16.44l-8.82,2.94c-1.6-5-3.54-9.86-5.82-14.58-1,1.4-1.7,2.34-2.1,2.82l-4.32-4.26c-.92,3.04-1.64,5.24-2.16,6.6l-3.3-1.68c-.04.2-.09.46-.15.78-.06.32-.09.56-.09.72,3.12,4.92,6.36,10.28,9.72,16.08l-6.78,6.48c-1.8-3.2-3.8-6.62-6-10.26-2.08,5.6-4.78,10-8.1,13.2l-6.18-8.22c3.16-3.44,5.47-7.76,6.93-12.96,1.46-5.2,2.19-12.06,2.19-20.58v-11.76h9.36v15c.64-2.36,1.24-4.82,1.8-7.38l5.58,1.44c1.6-3.4,2.88-7,3.84-10.8l9.96,1.14c-.48,1.88-1.02,3.74-1.62,5.58h18.12c-.2,21.56-.74,35.06-1.62,40.5-.68,4.08-1.84,6.56-3.48,7.44-.84.4-2.18.6-4.02.6ZM12.3,133.26c.76-5.56,1.14-12.14,1.14-19.74l6.48.9c0,7.92-.48,15.08-1.44,21.48l-6.18-2.64Z"/>
        <path class="cls-5" d="M120.18,159.72c-2.36-3.88-4.8-7.52-7.32-10.92l7.74-3.96c-1.96-.8-3.44-2.98-4.44-6.54l-3.6,5.52c-1.08-1.4-2.24-2.86-3.48-4.38-1.24,2.84-2.82,5.28-4.74,7.32l-4.02-4.92.18,2.58c-5.6.68-11.5,1.26-17.7,1.74l5.94,2.64c-2.16,4-4.6,7.74-7.32,11.22l-8.58-4.74c2.32-2.88,4.48-5.84,6.48-8.88-1.08.08-2.74.2-4.98.36l-.9-8.22c2.44-.08,5.38-.24,8.82-.48v-2.16h-5.58v-3.48c-.88.4-1.56.68-2.04.84l-2.34-7.68c2.56-.8,4.6-1.88,6.12-3.24h-4.68v-7.02h8.52v-1.5h-7.02v-6.48h7.02v-3.24h10.62v3.24h6.72v1.8h4.14v-5.04h9.12v5.04h10.56c0,16.44.4,24.66,1.2,24.66.16,0,.36-2.14.6-6.42l4.68,2.64c-.2,5.12-.93,8.94-2.19,11.46-1.26,2.52-2.79,3.78-4.59,3.78-.52,0-.9-.02-1.14-.06,2.92,4.12,5.18,7.48,6.78,10.08l-8.58,4.44ZM81.6,129.42h3v-3.12c-.88,1.16-1.88,2.2-3,3.12ZM85.8,124.44h3.24v-2.1h-2.4c-.32.96-.6,1.66-.84,2.1ZM91.08,159.72c-.44-3.96-1.02-7.98-1.74-12.06l9.72-.9c.92,4.08,1.6,8.1,2.04,12.06l-10.02.9ZM99.36,115.32v-1.5h-6.48v1.5h6.48ZM99.24,129.42l.78-1.2h-2.46c-2.32,0-3.88-.04-4.68-.12v1.32h6.36ZM102.06,132.12c-.96-.8-1.68-1.38-2.16-1.74v5.52h-7.02v1.5c.68-.04,2.96-.24,6.84-.6,1-1.32,1.78-2.88,2.34-4.68ZM99.3,122.34h-2.04v.6c0,.4.05.65.15.75.1.1.35.15.75.15.48,0,.78-.08.9-.24.12-.16.2-.58.24-1.26ZM103.74,117.96h-3.54v3.06l3.42.42c.08-1.44.12-2.6.12-3.48ZM104.94,159.72c-1-3.92-2.18-7.74-3.54-11.46l9.42-2.1c1.12,3.08,2.38,7,3.78,11.76l-9.66,1.8ZM115.14,133.26c-.56-4-.84-9.1-.84-15.3h-1.44c-.04,4.08-.36,7.98-.96,11.7.72.72,1.8,1.92,3.24,3.6Z"/>
        <path class="cls-5" d="M143.4,150.66l-10.2-3c3.16-8.52,5.78-16.74,7.86-24.66-1.2.04-3.02.06-5.46.06v-9.6c3.56,0,6.18-.04,7.86-.12.76-3.36,1.34-6.12,1.74-8.28l10.5,1.2c-.16.84-.4,1.99-.72,3.45-.32,1.46-.52,2.41-.6,2.85,2.4-.24,4.94-.54,7.62-.9l.6,9.6c-3.36.44-6.86.82-10.5,1.14-2.32,9.52-5.22,18.94-8.7,28.26ZM175.08,149.34c-.76,2.76-2.2,4.77-4.32,6.03-2.12,1.26-5.04,1.89-8.76,1.89-4.48,0-8-1.07-10.56-3.21-2.56-2.14-3.84-5.07-3.84-8.79s1.26-6.55,3.78-8.73c2.52-2.18,6.06-3.27,10.62-3.27.88,0,1.78.06,2.7.18-.08-3.48.02-6.34.3-8.58h10.8c-.36,2.76-.42,6.76-.18,12,0,.08,0,.18.03.3.02.12.03.22.03.3,3.28,1.96,7.12,4.96,11.52,9l-6.6,7.8c-2.16-2.04-4-3.68-5.52-4.92ZM165,142.92c-1.2-.44-2.4-.66-3.6-.66-.88,0-1.6.29-2.16.87-.56.58-.84,1.29-.84,2.13,0,.92.29,1.65.87,2.19.58.54,1.29.81,2.13.81,1.52,0,2.5-.32,2.94-.96.44-.64.66-2.1.66-4.38ZM166.5,120.06l3.3-9.6c5.92,1.56,12.12,3.56,18.6,6l-3.6,9.6c-6.08-2.36-12.18-4.36-18.3-6Z"/>
        <path class="cls-5" d="M240.48,159.12c-3.68,0-8.28-.1-13.8-.3l-.6-9.12c3.6.2,6.74.3,9.42.3.36,0,.63-.24.81-.72.18-.48.37-1.72.57-3.72.2-2,.37-5.03.51-9.09.14-4.06.29-9.65.45-16.77h-9.96c-.92,2-2.02,4.08-3.3,6.24l5.34-2.1c2.52,5.08,4.68,10.56,6.48,16.44l-8.82,2.94c-1.32-4.28-3.12-8.82-5.4-13.62-.32.48-.88,1.2-1.68,2.16l-2.04-2.04v24.42h-14.4v4.08h-10.02v-46.44h6.66c.84-3.08,1.46-5.72,1.86-7.92l10.32,1.14c-.44,2.16-.96,4.42-1.56,6.78h7.14v4.5c1.96-3.84,3.52-7.98,4.68-12.42l10.02,1.14c-.48,1.88-1.02,3.74-1.62,5.58h16.92c-.12,12.2-.28,21.38-.48,27.54-.2,6.16-.65,10.91-1.35,14.25-.7,3.34-1.44,5.3-2.22,5.88-.78.58-2.09.87-3.93.87ZM204.06,128.82h4.68v-8.22h-4.68v8.22ZM204.06,137.34v8.22h4.68v-8.22h-4.68Z"/>
        <path class="cls-5" d="M265.2,143.52v2.94h-10.26v-32.94h20.28v-9.12h11.16v9.12h20.28v32.94h-10.26v-2.94h-10.02v16.2h-11.16v-16.2h-10.02ZM265.2,134.7h10.02v-12.06h-10.02v12.06ZM296.4,134.7v-12.06h-10.02v12.06h10.02Z"/>
        <path class="cls-5" d="M333.54,123.6l.12.12c2-.84,3.98-1.26,5.94-1.26,5.2,0,8.82,1.7,10.86,5.1,4.16-1.04,8.34-1.84,12.54-2.4l1.2,9.3c-3.64.48-7.36,1.2-11.16,2.16.24,2.16.36,4.64.36,7.44h-10.8c0-.96-.04-2.16-.12-3.6-3.52,1.76-5.28,3.36-5.28,4.8,0,.96.54,1.65,1.62,2.07,1.08.42,3.14.63,6.18.63,3.48,0,8.58-.5,15.3-1.5l.9,9.6c-5.48.8-10.88,1.2-16.2,1.2-13,0-19.5-3.7-19.5-11.1,0-2.64,1.18-5.26,3.54-7.86,2.36-2.6,5.8-4.92,10.32-6.96-.8-.52-1.92-.78-3.36-.78-1.68,0-3.64.85-5.88,2.55-2.24,1.7-4.58,4.25-7.02,7.65l-8.7-5.1c3.96-5.64,7.04-10.66,9.24-15.06-.8,0-2.04.01-3.72.03-1.68.02-2.92.03-3.72.03v-9.3c5.08,0,8.9-.02,11.46-.06.76-2.08,1.54-4.36,2.34-6.84l10.8,1.8c-.72,2.08-1.28,3.66-1.68,4.74,6.12-.16,13.08-.44,20.88-.84l.3,9.3c-8,.44-16.38.76-25.14.96-.6,1.28-1.14,2.34-1.62,3.18Z"/>
        <path class="cls-5" d="M395.34,146.7c-1.28,2.2-2.5,4.18-3.66,5.94l-4.08-4.62v11.1h-10.02v-23.52c-1.48,2.44-2.86,4.3-4.14,5.58l-1.74-13.56c2.16-2.88,3.93-6.05,5.31-9.51,1.38-3.46,2.65-7.93,3.81-13.41l9.96,1.8c-.32,2.24-.78,4.58-1.38,7.02h13.32v-8.52h10.56v8.52h15.18v8.82h-9.96c2.8,6.84,6.6,13.42,11.4,19.74l-5.58,10.56c-1.24-1.92-2.46-3.92-3.66-6v4.26h-7.38v8.22h-10.56v-8.22h-7.38v-4.2ZM397.5,122.34h-8.46v-7.44c-.4,1.6-.88,3.16-1.44,4.68v20.58c3.84-5.36,7.14-11.3,9.9-17.82ZM402.72,130.92c-1.6,4.2-3.32,8.1-5.16,11.7h5.16v-11.7ZM418.44,142.62c-1.92-3.76-3.64-7.66-5.16-11.7v11.7h5.16Z"/>
        <path class="cls-5" d="M433.74,140.28l4.44.9c-.08,5.04-.58,10.42-1.5,16.14l-4.68-1.74c1-5.44,1.58-10.54,1.74-15.3ZM468.12,104.4h8.88c3.72,4.56,7.92,8.48,12.6,11.76l-2.94,8.58v19.68h-8.04c1.4,1.8,5.06,3.56,10.98,5.28l-3.54,9.42c-5.4-1.88-9.72-5.08-12.96-9.6-3.6,4.44-8.28,7.64-14.04,9.6l-2.16-5.7c-.4,2.36-1.03,3.9-1.89,4.62-.86.72-2.17,1.08-3.93,1.08-1.36,0-2.92-.1-4.68-.3l-.42-6.18-1.08.24c-.28-3.12-.7-7.04-1.26-11.76l3.66-.66c.28,2.08.68,5.34,1.2,9.78.44.04.92.06,1.44.06.16,0,.28,0,.36-.03.08-.02.15-.12.21-.3.06-.18.11-.45.15-.81l-1.32.24c-.12-.96-.52-3.8-1.2-8.52l2.64-.48v-1.26h-16.74v-33.24h24.12v8.22h-4.14v2.34h1.5c2.64-1.84,4.9-3.67,6.78-5.49,1.88-1.82,3.82-4.01,5.82-6.57ZM439.62,156.18c-.04-2.12-.24-7.12-.6-15l3.84-.6c.44,5.36.74,10.36.9,15l-4.14.6ZM446.1,116.46v-2.34h-2.64v2.34h2.64ZM446.1,122.04h-2.64v2.4h2.64v-2.4ZM446.1,130.02h-2.64v2.34h2.64v-2.34ZM466.26,144.42h-7.5v-18.84l-1.26-3.54h-3.48v2.4h3.24v5.58h-3.24v2.34h3.54v7.62c0,3.72-.06,6.78-.18,9.18,4.48-1.44,7.44-3.02,8.88-4.74ZM459.96,124.74h7.92v-1.8h-3.84v-1.62c-1.52,1.36-2.88,2.5-4.08,3.42ZM467.88,137.04v-4.68h-1.8v4.68h1.8ZM469.92,115.02h5.28c-1.2-1.52-2.08-2.7-2.64-3.54-.56.84-1.44,2.02-2.64,3.54ZM481.08,121.32v1.62h-3.84v1.8h7.92c-1.2-.92-2.56-2.06-4.08-3.42ZM477.24,137.04h1.8v-4.68h-1.8v4.68Z"/>
        <path class="cls-5" d="M501,136.86c0-4,.1-8.84.3-14.52.2-5.72.3-10.88.3-15.48h11.7c0,1.52-.1,6.52-.3,15-.2,8.48-.3,13.48-.3,15,0,3.64.55,6.2,1.65,7.68,1.1,1.48,2.85,2.22,5.25,2.22,3.16,0,5.97-1.2,8.43-3.6,2.46-2.4,4.95-6.7,7.47-12.9l10.2,4.2c-3,8.04-6.62,13.85-10.86,17.43-4.24,3.58-9.32,5.37-15.24,5.37-6.52,0-11.25-1.57-14.19-4.71-2.94-3.14-4.41-8.37-4.41-15.69Z"/>
        <path class="cls-5" d="M556.8,123.06v-9.6c3.28-.08,6.7-.2,10.26-.36.76-3.52,1.34-6.4,1.74-8.64l10.8.9c-.52,2.92-.96,5.28-1.32,7.08,5.04-.36,9.98-.82,14.82-1.38l.9,9.6c-4.48.56-10.42,1.08-17.82,1.56-2.76,12.04-6.12,23.72-10.08,35.04l-10.5-3c3.6-10.2,6.7-20.68,9.3-31.44-1.8.08-4.5.16-8.1.24ZM581.4,135.96l8.4,4.2c-1.4,1.64-2.1,2.94-2.1,3.9,0,.88.39,1.5,1.17,1.86.78.36,2.29.54,4.53.54,2.56,0,6.16-.6,10.8-1.8l1.2,9.6c-3.92,1.2-7.92,1.8-12,1.8-5.88,0-10.15-.8-12.81-2.4-2.66-1.6-3.99-4-3.99-7.2,0-1.72.44-3.56,1.32-5.52.88-1.96,2.04-3.62,3.48-4.98ZM580.8,124.86c7.2-1.2,14.8-1.8,22.8-1.8v9.6c-7.52,0-14.82.6-21.9,1.8l-.9-9.6Z"/>
        <path class="cls-5" d="M637.8,131.16l10.5,2.1c-2.88,14.4-7.98,21.6-15.3,21.6-4.64,0-8.5-2.18-11.58-6.54-3.08-4.36-4.62-10.58-4.62-18.66,0-6.24.6-12.44,1.8-18.6l11.4.9c-1.2,6-1.8,11.9-1.8,17.7,0,3,.23,5.59.69,7.77.46,2.18,1,3.73,1.62,4.65.62.92,1.25,1.38,1.89,1.38,1.8,0,3.6-4.1,5.4-12.3ZM647.4,114.96l10.8-3.3c2.76,5.72,4.82,11.28,6.18,16.68,1.36,5.4,2.3,11.84,2.82,19.32l-11.1.6c-.52-6.88-1.43-12.79-2.73-17.73-1.3-4.94-3.29-10.13-5.97-15.57Z"/>
        <path class="cls-5" d="M672.6,150.6c7.76-4.44,13.47-9.77,17.13-15.99,3.66-6.22,5.49-13.93,5.49-23.13v-6.48h11.16v6.48c0,9.2,1.83,16.91,5.49,23.13,3.66,6.22,9.37,11.55,17.13,15.99l-6.12,8.52c-4.48-2.28-8.6-5.57-12.36-9.87-3.76-4.3-6.84-9.21-9.24-14.73-2.48,5.48-5.68,10.38-9.6,14.7-3.92,4.32-8.24,7.62-12.96,9.9l-6.12-8.52Z"/>
        <path class="cls-5" d="M752.92,106.68h17.76l-2.22,36.26h-13.32l-2.22-36.26ZM754.4,160.7v-11.84h14.8v11.84h-14.8Z"/>
      </g>
    </g>
  </g>
</svg>