<?xml version="1.0" encoding="UTF-8"?>
<svg id="_レイヤー_2" data-name="レイヤー 2" xmlns="http://www.w3.org/2000/svg" viewBox="0 0 460.93 122.72">
  <defs>
    <style>
      .cls-1 {
        fill: #fff;
      }

      .cls-2 {
        stroke: #000;
        stroke-miterlimit: 2;
        stroke-width: 6px;
      }

      .cls-2, .cls-3 {
        fill: none;
      }

      .cls-3 {
        stroke: #231815;
        stroke-linejoin: round;
        stroke-width: 23px;
      }
    </style>
  </defs>
  <g id="_サポート" data-name="サポート">
    <g>
      <g>
        <path class="cls-3" d="M12.03,29.6l9.76-.09.09,10.4c1.23-2.2,2.1-4.95,2.59-8.26.49-3.31.71-8.17.65-14.57,3.68-.03,7.34-.27,10.97-.72,3.64-.45,6.53-1,8.69-1.66l1.57,5.07c-4.1,1.18-9.25,1.96-15.46,2.34-.02.96-.05,1.97-.09,3.04l16.16-.14.05,5.08-4.8.04.12,13.8-6.24.06-.12-13.8-5.44.05c-.29,3.2-.76,5.85-1.41,7.93-.65,2.09-1.55,4-2.71,5.75l-4.51-3v1.16c.61.98,1.34,1.68,2.21,2.1.87.42,2.35.72,4.45.9,2.09.18,5.33.25,9.7.21l9.84-.09-.27,5.12-9.56.09c-5.36.05-9.45-.16-12.27-.63-2.82-.47-4.93-1.32-6.32-2.56-1.59,1.38-3.35,2.71-5.28,4.01l-2.88-4.77c1.59-1.03,3.09-2.09,4.49-3.2l-.08-8.6-3.84.03-.05-5.08ZM23.29,23.1l-3.89,3.71c-2.5-2.72-4.83-5.14-6.99-7.26l4.05-3.72c2.29,2.27,4.56,4.69,6.82,7.26Z"/>
        <path class="cls-3" d="M59.21,14.02l6.05,1.15c-.31,1.02-.6,1.93-.86,2.73l22.04-.2.05,5.12-11.16.1.04,4.72,9.96-.09.05,5.12-9.96.09.05,5.64,12.8-.11.05,5.24-12.8.11.06,6.8-6.44.06-.06-6.8-17.24.15-.05-5.24,5.76-.05-.05-5.92-5.31-2.91c2.97-5.01,5.31-10.25,7.02-15.7ZM62.45,23.03c-.71,1.69-1.42,3.27-2.16,4.74l8.64-.08-.04-4.72-6.44.06ZM68.98,32.81l-5.4.05.05,5.64,5.4-.05-.05-5.64Z"/>
        <path class="cls-3" d="M91.67,20.53l3.88-.04-.05-6.08,5.52-.05.05,6.08,3.36-.03.05,5.12-3.12.03c2.09,4.25,3.27,6.65,3.54,7.21l-.02-2.76,8.8-.08v-1.6s-7.85.07-7.85.07l-.04-4.2,7.84-.07v-1.44s-8.53.08-8.53.08l-.04-4.76,4.04-.04c-.57-1.06-1.14-2.1-1.71-3.11l5.27-1.33c.84,1.43,1.64,2.89,2.4,4.38l3.4-.03c.81-1.55,1.51-3.03,2.08-4.42l5.41,1.03c-.29.72-.8,1.83-1.53,3.33l3.32-.03.04,4.6-8.08.07v1.6s7.65-.07,7.65-.07l.04,4.2-7.64.07v1.6s8.49-.08,8.49-.08l.05,5.04-2.4.02,2.75,3.25c-1.14,1.08-2.36,2.13-3.65,3.15,1.34,1.29,2.74,2.42,4.19,3.36l-3.44,4.79c-2.2-1.77-4.16-3.98-5.86-6.63v.04c.01,1.2,0,2.14-.01,2.82-.02.68-.11,1.33-.28,1.94-.17.61-.36,1.05-.59,1.3-.22.25-.6.48-1.13.67-.53.19-1.1.31-1.7.36-.6.04-1.43.07-2.5.08-.59,0-1.88-.05-3.88-.17l-.28-3.96c-1.3,1.03-2.89,2.16-4.77,3.4l-2.88-4.65c1.86-1.06,3.67-2.23,5.45-3.53-1.24-1.64-2.21-2.87-2.91-3.69l3.22-2.39-2.4.02-2.41,3.46c-.35-.9-.89-2.21-1.59-3.91l.14,15.6-5.52.05-.11-12.48c-.68,2.06-1.5,3.84-2.47,5.34l-2.33-6.1c2.26-3.59,3.76-7.39,4.5-11.4l-3.68.03-.05-5.12ZM111.15,38.08c.16-.13.38-.33.65-.59.28-.25.48-.44.62-.54l1.34,2.15-.04-4.12-5,.04c.67.82,1.48,1.84,2.43,3.06ZM113.79,42.13c-.79.78-1.87,1.74-3.21,2.87.96.07,1.64.11,2.04.1.56,0,.9-.08,1.02-.23.12-.15.17-.61.17-1.38v-1.36ZM121.54,37.5c1.03-.76,2.11-1.63,3.22-2.63l-4.96.04c.62,1.01,1.2,1.87,1.74,2.58Z"/>
        <path class="cls-3" d="M142.62,36.52l4.24-4.4c1.91,1.42,3.53,2.69,4.87,3.8,2.79-3.54,4.75-7.14,5.86-10.77l-11.2.1c-2.51,5.2-5.62,9.86-9.31,14l-5.15-3.35c5.52-6.24,9.59-13.51,12.21-21.83l6.17,1.03c-.57,1.9-1.1,3.49-1.6,4.77l15.4-.14.05,5.36c-1.16,4.89-3.75,9.86-7.79,14.91,1.86,1.74,3.6,3.5,5.25,5.27l-4.6,4.2c-4.36-4.84-9.16-9.16-14.4-12.95Z"/>
        <path class="cls-3" d="M180.01,13.7l5.97.63c-.56,2.94-.87,4.49-.92,4.65,1.92-.18,3.76-.41,5.51-.69l.41,5.48c-2.13.31-4.54.6-7.23.87-1.54,6.28-3.53,12.62-5.95,19.01l-5.82-1.67c2.16-5.67,3.99-11.33,5.49-16.97-1.81.07-3.23.11-4.24.12l-.05-5.48c1.95-.02,3.83-.07,5.64-.17.33-1.44.73-3.37,1.19-5.77ZM199.37,35.41c2.31,1.37,4.92,3.34,7.85,5.93l-3.68,4.47c-1.08-.98-2.51-2.18-4.31-3.6-.41,2.06-1.28,3.55-2.62,4.46-1.34.92-3.27,1.39-5.81,1.41-2.88.03-5.15-.64-6.82-2s-2.51-3.22-2.53-5.6c-.02-2.29.78-4.14,2.39-5.54,1.61-1.4,3.89-2.12,6.82-2.14.75,0,1.56.05,2.44.18-.13-2.75-.1-4.91.1-6.48l6.2-.02c-.22,1.84-.24,4.62-.05,8.32v.6ZM193.32,38.58c-1.07-.39-2.06-.58-2.96-.57-.83,0-1.48.24-1.97.7-.49.46-.73,1.03-.72,1.73,0,.75.26,1.34.76,1.79.5.45,1.16.67,1.99.66,1.23-.01,2.02-.26,2.39-.74.37-.48.55-1.55.53-3.2v-.36ZM193.98,23.06l1.83-5.5c4.2,1.06,8.25,2.34,12.16,3.85l-1.99,5.46c-4.07-1.56-8.07-2.83-11.99-3.81Z"/>
        <path class="cls-3" d="M220.03,23.86l3.32-4.31c3.14,1.84,5.32,3.14,6.56,3.9,2.44-1.62,4.41-3.04,5.92-4.25l-19.08.17-.05-5.12,26.96-.24.05,5.12c-2.86,2.59-5.93,5.01-9.21,7.28.21.13.52.34.93.61s.71.48.93.61l11.84-.11.05,5.32c-2.24,3.03-4.99,6-8.24,8.91l-4.08-4.2c1.77-1.46,3.45-3,5.04-4.65l-7.28.07.08,8.56c.01,1.2,0,2.15-.04,2.84-.03.69-.14,1.34-.32,1.94-.18.6-.39,1.03-.63,1.29-.24.26-.65.48-1.23.67-.58.19-1.2.31-1.84.36-.64.04-1.53.07-2.68.08-.88,0-3.09-.04-6.64-.14l-.37-5.24c3.28.1,5.21.15,5.8.15.77,0,1.23-.08,1.36-.23.13-.15.19-.61.19-1.38l-.08-8.84-15.52.14-.05-5.32,14.96-.13c-2.12-1.29-4.33-2.57-6.63-3.86Z"/>
        <path class="cls-3" d="M267.73,17.32l.04,4.92-4.08.04c1.64,1.77,3.37,3.7,5.17,5.79l-.13-14.48,18.32-.16.2,21.88-12.4.11-2.08.02c1.34,1,2.47,1.94,3.39,2.81l-3.49,3.67c-1.78-1.72-3.75-3.26-5.92-4.63l2.18-2.1-.05-5.52-2.45,3.26c-1.41-2.07-2.47-3.62-3.2-4.65l.07,7.96-5.92.05-.05-5.92c-1.32,1.93-2.64,3.48-3.96,4.63l-2.65-5.34c2.89-2.32,5.06-4.77,6.54-7.34l-5.2.05-.04-4.92,5.2-.05-.04-4.44,5.92-.05.04,4.44,4.6-.04ZM278.88,38.74l4.86-2.56c2.21,2.99,4.04,6,5.48,9.03l-5.06,2.41c-1.01-2.07-2.01-3.89-3.01-5.45-.17,2.48-.58,4.09-1.26,4.81-.67.73-2.1,1.19-4.29,1.4-1.15.12-2.84.18-5.08.21-1.68.01-3.37,0-5.08-.04-2.37-.08-3.87-.45-4.49-1.08-.62-.63-.94-2.18-.96-4.63l-.02-2.04c-1.09,2.86-2.62,5.4-4.57,7.6l-4.43-3.48c1.95-2.26,3.42-4.75,4.41-7.48l4.58,2.08-.02-1.96,6.24-.06.04,4.72c0,.72.06,1.16.17,1.32s.4.26.88.31c.4.05,1.37.07,2.92.05,1.47-.01,2.45-.05,2.96-.11.96-.09,1.57-.35,1.83-.78.26-.43.43-1.43.49-3l4.68.6c-.38-.61-.81-1.23-1.3-1.87ZM274.72,20.09l6.32-.06-.02-1.76-6.32.06.02,1.76ZM274.75,23.73l.02,1.8,6.32-.06-.02-1.8-6.32.06ZM274.8,29.21l.02,1.8,6.32-.06-.02-1.8-6.32.06Z"/>
        <path class="cls-3" d="M292.4,20.86l6.52-.06-.06-6.6,6.12-.05.06,6.6,9.32-.08-.06-6.6,6.32-.06.06,6.6,6.68-.06.05,5.64-6.68.06v.96c.06,6.24-1.35,10.86-4.25,13.86-2.89,3-7.68,4.85-14.37,5.55l-1.25-5.43c5.3-.63,8.9-1.94,10.79-3.92,1.89-1.98,2.81-5.31,2.77-10v-.96s-9.33.08-9.33.08l.07,7.48-6.12.05-.07-7.48-6.52.06-.05-5.64Z"/>
        <path class="cls-3" d="M333.56,29.13c5.35-1.19,10.45-3.11,15.29-5.74,4.84-2.63,9.06-5.77,12.66-9.43l4.52,4.32c-3.12,3.23-6.85,6.16-11.2,8.78l.17,18.64-6.6.06-.14-15.2c-4.36,1.99-8.77,3.43-13.24,4.32l-1.45-5.75Z"/>
        <path class="cls-3" d="M380.54,13.51l6.64-.06.1,10.8c6.25,1.6,12.11,3.54,17.57,5.84l-2.19,5.5c-4.79-2.01-9.9-3.75-15.33-5.22l.14,15.64-6.64.06-.29-32.56Z"/>
        <path class="cls-3" d="M421.6,11.5l5.72.43c-.32,2.83-.67,5.29-1.05,7.37.4-.03.91-.05,1.52-.05,1.49-.01,2.67,0,3.52.05.85.05,1.66.2,2.42.46.76.26,1.31.58,1.65.95.34.37.63.97.9,1.79.26.82.42,1.72.48,2.68.06.96.1,2.27.12,3.92.05,5.33-.72,9.41-2.29,12.22-1.57,2.81-3.54,4.23-5.88,4.25-1.81.02-4.22-.83-7.22-2.54l2.15-5.02c1.96,1.13,3.27,1.69,3.94,1.68.4,0,.77-.22,1.11-.65.34-.43.66-1.09.96-1.99.3-.9.53-2.14.71-3.73.17-1.59.25-3.42.23-5.5-.01-1.39-.19-2.26-.52-2.62-.34-.36-1.13-.53-2.38-.52-.53,0-1.39.05-2.56.14-1.57,6.68-4.01,13.69-7.33,21.03l-5.22-2.19c2.88-6.27,5.06-12.38,6.56-18.34-1.57.15-3.28.32-5.12.53l-.41-5.44c4.32-.44,6.57-.67,6.75-.7.51-2.62.92-5.36,1.25-8.21ZM442.6,19.51l-4.1,2c-1.06-2.1-2.21-4.21-3.46-6.33l4.1-2.12c1.25,2.26,2.4,4.41,3.46,6.45ZM438.88,24.07l5.78-1.89c2,5.5,3.59,10.41,4.77,14.72l-5.91,1.49c-1.24-4.39-2.79-9.16-4.65-14.32ZM449.07,18.17l-4.18,2.04c-1.22-2.31-2.4-4.46-3.54-6.45l4.18-2.16c.98,1.73,2.16,3.91,3.54,6.57Z"/>
      </g>
      <g>
        <path class="cls-1" d="M14.38,58.22c-.51,0-1.01-.05-1.52-.17-1.87-.42-3.49-1.58-4.48-3.21l-2.88-4.77c-1.96-3.24-.98-7.45,2.19-9.5.1-.06.2-.13.3-.19-1.75-1.26-2.9-3.31-2.92-5.63l-.05-5.08c-.02-1.86.7-3.64,2.01-4.97.1-.11.21-.21.32-.31-1.27-1.33-1.97-3.11-1.94-4.95.03-1.92.85-3.74,2.26-5.04l4.05-3.72c1.34-1.23,3.04-1.84,4.73-1.84,1.79,0,3.57.68,4.94,2.04.06.06.11.11.17.17,1.05-.62,2.25-.95,3.48-.96,3.4-.03,6.83-.25,10.18-.67,3.22-.39,5.74-.87,7.49-1.4.68-.21,1.37-.31,2.05-.31,2.99,0,5.76,1.93,6.69,4.94l1.57,5.07c.4,1.29.41,2.66.06,3.94.55,1,.85,2.14.86,3.3l.05,5.08c.03,3.1-1.96,5.74-4.74,6.69v1.58c1.48.25,2.85.97,3.89,2.06,1.34,1.4,2.03,3.28,1.93,5.21l-.27,5.12c-.2,3.69-3.23,6.59-6.93,6.63l-9.56.09c-.52,0-1.02,0-1.52,0-5.08,0-8.99-.24-11.96-.73-1.62-.27-3.1-.64-4.45-1.13-.69.5-1.39.99-2.12,1.48-1.16.78-2.52,1.19-3.9,1.19Z"/>
        <path class="cls-1" d="M69.14,57.49c-3.77,0-6.85-2.99-6.99-6.74,0,0-10.28.09-10.3.09-1.83,0-3.6-.72-4.91-2.01-1.32-1.3-2.08-3.08-2.09-4.93l-.05-5.24c-.02-1.82.67-3.49,1.8-4.75-.52-.7-.92-1.49-1.15-2.35-.5-1.83-.24-3.78.73-5.41,2.68-4.53,4.82-9.32,6.36-14.23.93-2.96,3.67-4.91,6.67-4.91.43,0,.87.04,1.31.12l6.05,1.15c1.67.32,3.16,1.23,4.2,2.55,0,0,15.66-.14,15.68-.14,1.83,0,3.6.72,4.91,2.01,1.32,1.3,2.08,3.07,2.09,4.93l.05,5.12c.01,1.48-.43,2.85-1.2,3.99.03.24.04.49.05.74,0,0,.05,5.13.05,5.13,1.73,1.26,2.87,3.3,2.89,5.61l.05,5.24c.02,1.86-.7,3.64-2.01,4.97-1.3,1.32-3.07,2.08-4.93,2.09l-5.8.05c-.04,1.78-.75,3.49-2.01,4.77-1.3,1.33-3.08,2.08-4.93,2.09,0,0-6.48.06-6.5.06Z"/>
        <path class="cls-1" d="M95.82,57.25c-3.84,0-6.96-3.09-7-6.94l-.02-1.78c-.93-.76-1.66-1.76-2.11-2.92l-2.33-6.1c-.79-2.06-.56-4.37.61-6.23.6-.95,1.13-1.92,1.59-2.9-1.13-1.23-1.83-2.87-1.85-4.67l-.05-5.12c-.02-2.75,1.54-5.14,3.83-6.3.07-3.78,3.13-6.84,6.94-6.87,0,0,5.56-.05,5.58-.05,1.31,0,2.58.37,3.67,1.04.32-.13.64-.24.98-.33l5.27-1.33c.57-.14,1.14-.21,1.71-.21,1.39,0,2.75.42,3.89,1.18,1.16-.8,2.54-1.25,3.99-1.25.44,0,.88.04,1.32.12l5.41,1.03c2.05.39,3.82,1.68,4.83,3.51.31.57.54,1.18.69,1.81,1.2,1.24,1.95,2.93,1.96,4.8l.04,4.6c0,.86-.14,1.69-.42,2.45v1.62c.56.98.87,2.11.88,3.32l.05,5.04c0,.33-.02.66-.06.98.6,1.66.54,3.5-.15,5.11.48.75.81,1.59.98,2.48.35,1.88-.08,3.82-1.19,5.37l-3.44,4.79c-1.12,1.56-2.83,2.59-4.74,2.85-.32.04-.64.06-.95.06-1.32,0-2.62-.37-3.73-1.08-.54.31-1.13.58-1.77.81-1.14.41-2.32.66-3.54.75-.77.06-1.74.09-2.97.1h-.14c-.49,0-1.45-.02-4.21-.18-1.02-.06-1.98-.33-2.83-.78-.57.15-1.16.23-1.75.24-1.03.58-2.19.9-3.39.91,0,0-5.56.05-5.58.05Z"/>
        <path class="cls-1" d="M156.67,56.46c-1.86-.09-3.61-.92-4.86-2.3-3.13-3.47-6.54-6.69-10.18-9.59-1.29,1.11-2.92,1.68-4.56,1.68-1.32,0-2.64-.37-3.82-1.13l-5.15-3.35c-1.71-1.11-2.84-2.91-3.12-4.93-.27-2.02.35-4.05,1.69-5.58,4.84-5.47,8.46-11.96,10.77-19.29.93-2.95,3.66-4.9,6.67-4.9.38,0,.77.03,1.15.1l6.17,1.03c1.98.33,3.73,1.5,4.79,3.2.28.45.5.92.67,1.4,0,0,7.17-.06,7.19-.06,1.83,0,3.6.72,4.91,2.01,1.32,1.3,2.08,3.08,2.09,4.93l.05,5.36c0,.56-.06,1.12-.19,1.67-.98,4.16-2.81,8.35-5.44,12.51.42.43.82.87,1.23,1.3,1.27,1.37,1.94,3.19,1.86,5.05-.08,1.86-.9,3.62-2.28,4.88l-4.6,4.2c-1.29,1.18-2.98,1.83-4.72,1.83-.11,0-.23,0-.34,0Z"/>
        <path class="cls-1" d="M190.64,55.09c-4.45,0-8.18-1.2-11.08-3.58-.36-.29-.69-.59-1.01-.91-.25.03-.49.04-.74.04-.64,0-1.29-.09-1.93-.27l-5.82-1.67c-1.88-.54-3.45-1.85-4.33-3.6-.88-1.75-.98-3.79-.28-5.62,1.15-3.02,2.21-6.06,3.17-9.09-1.45-1.27-2.37-3.12-2.38-5.2l-.05-5.48c-.03-3.85,3.05-7.01,6.9-7.06.02-.08.03-.17.05-.25.63-3.33,3.55-5.69,6.87-5.69.24,0,.49.01.74.04l5.97.63c1.95.2,3.72,1.22,4.89,2.79.31.41.56.85.77,1.31,1.03-.58,2.22-.91,3.44-.91.57,0,1.14.07,1.71.21,4.45,1.12,8.81,2.5,12.97,4.11,3.56,1.38,5.36,5.35,4.05,8.93l-1.99,5.46c-.64,1.76-1.97,3.19-3.68,3.97-.09.04-.18.08-.27.11,1.04.83,2.13,1.74,3.25,2.74,2.83,2.5,3.17,6.78.77,9.7l-3.68,4.47c-1.22,1.48-2.99,2.4-4.9,2.53-.17.01-.34.02-.51.02-.94,0-1.86-.19-2.71-.55-.09.06-.17.12-.26.18-2.53,1.74-5.71,2.6-9.7,2.64h-.22Z"/>
        <path class="cls-1" d="M226.8,55.72c-1.07,0-3.17-.05-6.64-.15-3.6-.1-6.53-2.92-6.78-6.51l-.37-5.24c-.09-1.28.18-2.55.75-3.67,0,0-2,.02-2.02.02-3.84,0-6.96-3.09-7-6.94l-.05-5.32c-.02-1.86.7-3.64,2.01-4.97.9-.92,2.03-1.56,3.25-1.87-.13-.53-.2-1.08-.21-1.64l-.05-5.12c-.02-1.86.7-3.64,2.01-4.97,1.3-1.32,3.07-2.08,4.93-2.09,0,0,27-.24,27.02-.24,3.84,0,6.96,3.09,7,6.94l.05,5.12c0,.63-.07,1.25-.23,1.85.97.34,1.87.89,2.61,1.62,1.33,1.3,2.08,3.08,2.09,4.93l.05,5.32c.01,1.52-.47,3-1.37,4.22-2.52,3.41-5.61,6.76-9.21,9.97-1.33,1.19-3,1.78-4.66,1.78h-.03c-.49,1.45-1.17,2.64-2.06,3.6-1.08,1.16-2.45,1.99-4.19,2.56-1.12.37-2.3.6-3.51.69-.8.06-1.82.09-3.11.1h-.27Z"/>
        <path class="cls-1" d="M269.13,55.58c-1.27,0-2.55-.01-3.83-.04-1.98-.07-4.24-.29-6.28-1.14-1.1.66-2.35,1-3.6,1-1.52,0-3.04-.49-4.32-1.5l-4.43-3.48c-1.5-1.18-2.46-2.93-2.64-4.83-.18-1.9.42-3.8,1.67-5.25.57-.65,1.07-1.33,1.51-2.02-.03-.06-.07-.13-.1-.19l-2.65-5.34c-1.3-2.62-.82-5.72,1.1-7.83-.31-.79-.48-1.64-.49-2.51l-.04-4.92c-.03-3.4,2.37-6.25,5.57-6.92.96-2.68,3.51-4.61,6.53-4.63,0,0,5.96-.05,5.98-.05,1.27,0,2.5.34,3.58.98.63-.2,1.31-.3,2.01-.31,0,0,18.36-.16,18.38-.16,1.83,0,3.6.72,4.91,2.01,1.32,1.3,2.08,3.08,2.09,4.93l.2,21.88c0,1.13-.25,2.19-.71,3.14.73,1.27,1.4,2.54,2,3.82.8,1.68.9,3.6.28,5.35-.62,1.75-1.91,3.18-3.59,3.98l-5.06,2.41c-.97.46-1.99.68-3,.68-.89,0-1.77-.17-2.59-.5-1.85.79-3.78,1.08-5.3,1.22-1.33.13-3.2.21-5.67.24-.49,0-.98,0-1.47,0Z"/>
        <path class="cls-1" d="M302.11,53.61c-3.23,0-6.08-2.23-6.82-5.43l-1.25-5.43c-.29-1.26-.22-2.56.17-3.76-.03-.03-.05-.05-.08-.08-1.32-1.3-2.08-3.07-2.09-4.93v-.5c-3.65-.21-6.55-3.22-6.59-6.92l-.05-5.64c-.02-1.86.71-3.64,2.01-4.97,1.19-1.21,2.78-1.95,4.46-2.07.17-3.69,3.19-6.65,6.93-6.68,0,0,6.16-.05,6.18-.05,1.7,0,3.34.62,4.61,1.74,1.23-1.12,2.85-1.8,4.64-1.82,0,0,6.36-.06,6.38-.06,1.83,0,3.6.72,4.91,2.01,1.23,1.21,1.97,2.83,2.08,4.54,3.72.13,6.72,3.17,6.75,6.93l.05,5.64c.02,1.86-.71,3.64-2.01,4.97s-3.08,2.08-4.93,2.09h-.13c-.79,5.27-2.73,9.54-5.83,12.74-4.11,4.26-10.22,6.77-18.68,7.65-.25.03-.49.04-.74.04Z"/>
        <path class="cls-1" d="M348.39,52.76c-3.84,0-6.96-3.09-7-6.94l-.05-5.28c-1.65.47-3.31.87-4.96,1.2-.46.09-.92.14-1.38.14-3.14,0-5.98-2.13-6.78-5.29l-1.45-5.75c-.46-1.83-.17-3.77.83-5.38.99-1.61,2.59-2.75,4.44-3.16,4.69-1.05,9.23-2.75,13.48-5.06,4.21-2.28,7.91-5.04,11-8.19,1.37-1.39,3.18-2.09,4.99-2.09s3.48.64,4.83,1.94l4.52,4.32c1.35,1.29,2.13,3.06,2.16,4.92.04,1.86-.67,3.66-1.96,5-2.67,2.77-5.75,5.35-9.2,7.71l.13,14.78c.02,1.86-.71,3.64-2.01,4.97-1.3,1.32-3.08,2.08-4.93,2.09,0,0-6.64.06-6.66.06Z"/>
        <path class="cls-1" d="M380.83,53.07c-3.84,0-6.96-3.09-7-6.94l-.29-32.56c-.02-1.86.71-3.64,2.01-4.97,1.3-1.33,3.08-2.08,4.93-2.09,0,0,6.68-.06,6.7-.06,3.84,0,6.96,3.09,7,6.94l.05,5.52c4.66,1.38,9.13,2.97,13.33,4.74,3.51,1.48,5.2,5.5,3.79,9.04l-2.19,5.5c-.69,1.75-2.06,3.14-3.79,3.87-.87.36-1.79.54-2.71.54s-1.84-.18-2.71-.54c-1.79-.75-3.64-1.46-5.53-2.14l.05,6.04c.02,1.86-.71,3.64-2.01,4.97-1.3,1.33-3.08,2.08-4.93,2.09,0,0-6.68.06-6.7.06Z"/>
        <path class="cls-1" d="M417.79,52.86c-.91,0-1.82-.18-2.71-.55l-5.22-2.19c-1.75-.73-3.12-2.15-3.81-3.91-.69-1.77-.63-3.74.16-5.46,1.42-3.1,2.67-6.17,3.73-9.2-.14-.1-.27-.2-.4-.31-1.46-1.21-2.37-2.97-2.51-4.86l-.41-5.44c-.28-3.78,2.5-7.11,6.27-7.49.5-.05.98-.1,1.43-.15.12-.85.23-1.71.32-2.58.4-3.56,3.42-6.22,6.95-6.22.18,0,.35,0,.53.02l5.72.43c1.9.14,3.66,1.05,4.87,2.52.2.24.38.49.54.75l2.66-1.38c1.03-.53,2.12-.78,3.21-.78.52,0,1.04.06,1.54.17l1.64-.85c1.02-.53,2.12-.78,3.2-.78,2.45,0,4.81,1.29,6.1,3.56,1.02,1.8,2.25,4.08,3.65,6.78.87,1.68,1.03,3.63.44,5.43-.51,1.56-1.56,2.89-2.94,3.75,1.36,3.96,2.5,7.62,3.41,10.92.5,1.82.25,3.75-.7,5.38-.95,1.63-2.51,2.8-4.33,3.26l-5.91,1.49c-.58.14-1.15.21-1.72.21-1,0-1.97-.21-2.85-.61-3.78,6.71-9.07,7.76-11.9,7.78h-.11c-1.97,0-4.04-.44-6.35-1.36-1.26,1.06-2.87,1.65-4.52,1.65Z"/>
      </g>
      <g>
        <path class="cls-2" d="M12.03,29.6l9.76-.09.09,10.4c1.23-2.2,2.1-4.95,2.59-8.26.49-3.31.71-8.17.65-14.57,3.68-.03,7.34-.27,10.97-.72,3.64-.45,6.53-1,8.69-1.66l1.57,5.07c-4.1,1.18-9.25,1.96-15.46,2.34-.02.96-.05,1.97-.09,3.04l16.16-.14.05,5.08-4.8.04.12,13.8-6.24.06-.12-13.8-5.44.05c-.29,3.2-.76,5.85-1.41,7.93-.65,2.09-1.55,4-2.71,5.75l-4.51-3v1.16c.61.98,1.34,1.68,2.21,2.1.87.42,2.35.72,4.45.9,2.09.18,5.33.25,9.7.21l9.84-.09-.27,5.12-9.56.09c-5.36.05-9.45-.16-12.27-.63-2.82-.47-4.93-1.32-6.32-2.56-1.59,1.38-3.35,2.71-5.28,4.01l-2.88-4.77c1.59-1.03,3.09-2.09,4.49-3.2l-.08-8.6-3.84.03-.05-5.08ZM23.29,23.1l-3.89,3.71c-2.5-2.72-4.83-5.14-6.99-7.26l4.05-3.72c2.29,2.27,4.56,4.69,6.82,7.26Z"/>
        <path class="cls-2" d="M59.21,14.02l6.05,1.15c-.31,1.02-.6,1.93-.86,2.73l22.04-.2.05,5.12-11.16.1.04,4.72,9.96-.09.05,5.12-9.96.09.05,5.64,12.8-.11.05,5.24-12.8.11.06,6.8-6.44.06-.06-6.8-17.24.15-.05-5.24,5.76-.05-.05-5.92-5.31-2.91c2.97-5.01,5.31-10.25,7.02-15.7ZM62.45,23.03c-.71,1.69-1.42,3.27-2.16,4.74l8.64-.08-.04-4.72-6.44.06ZM68.98,32.81l-5.4.05.05,5.64,5.4-.05-.05-5.64Z"/>
        <path class="cls-2" d="M91.67,20.53l3.88-.04-.05-6.08,5.52-.05.05,6.08,3.36-.03.05,5.12-3.12.03c2.09,4.25,3.27,6.65,3.54,7.21l-.02-2.76,8.8-.08v-1.6s-7.85.07-7.85.07l-.04-4.2,7.84-.07v-1.44s-8.53.08-8.53.08l-.04-4.76,4.04-.04c-.57-1.06-1.14-2.1-1.71-3.11l5.27-1.33c.84,1.43,1.64,2.89,2.4,4.38l3.4-.03c.81-1.55,1.51-3.03,2.08-4.42l5.41,1.03c-.29.72-.8,1.83-1.53,3.33l3.32-.03.04,4.6-8.08.07v1.6s7.65-.07,7.65-.07l.04,4.2-7.64.07v1.6s8.49-.08,8.49-.08l.05,5.04-2.4.02,2.75,3.25c-1.14,1.08-2.36,2.13-3.65,3.15,1.34,1.29,2.74,2.42,4.19,3.36l-3.44,4.79c-2.2-1.77-4.16-3.98-5.86-6.63v.04c.01,1.2,0,2.14-.01,2.82-.02.68-.11,1.33-.28,1.94-.17.61-.36,1.05-.59,1.3-.22.25-.6.48-1.13.67-.53.19-1.1.31-1.7.36-.6.04-1.43.07-2.5.08-.59,0-1.88-.05-3.88-.17l-.28-3.96c-1.3,1.03-2.89,2.16-4.77,3.4l-2.88-4.65c1.86-1.06,3.67-2.23,5.45-3.53-1.24-1.64-2.21-2.87-2.91-3.69l3.22-2.39-2.4.02-2.41,3.46c-.35-.9-.89-2.21-1.59-3.91l.14,15.6-5.52.05-.11-12.48c-.68,2.06-1.5,3.84-2.47,5.34l-2.33-6.1c2.26-3.59,3.76-7.39,4.5-11.4l-3.68.03-.05-5.12ZM111.15,38.08c.16-.13.38-.33.65-.59.28-.25.48-.44.62-.54l1.34,2.15-.04-4.12-5,.04c.67.82,1.48,1.84,2.43,3.06ZM113.79,42.13c-.79.78-1.87,1.74-3.21,2.87.96.07,1.64.11,2.04.1.56,0,.9-.08,1.02-.23.12-.15.17-.61.17-1.38v-1.36ZM121.54,37.5c1.03-.76,2.11-1.63,3.22-2.63l-4.96.04c.62,1.01,1.2,1.87,1.74,2.58Z"/>
        <path class="cls-2" d="M142.62,36.52l4.24-4.4c1.91,1.42,3.53,2.69,4.87,3.8,2.79-3.54,4.75-7.14,5.86-10.77l-11.2.1c-2.51,5.2-5.62,9.86-9.31,14l-5.15-3.35c5.52-6.24,9.59-13.51,12.21-21.83l6.17,1.03c-.57,1.9-1.1,3.49-1.6,4.77l15.4-.14.05,5.36c-1.16,4.89-3.75,9.86-7.79,14.91,1.86,1.74,3.6,3.5,5.25,5.27l-4.6,4.2c-4.36-4.84-9.16-9.16-14.4-12.95Z"/>
        <path class="cls-2" d="M180.01,13.7l5.97.63c-.56,2.94-.87,4.49-.92,4.65,1.92-.18,3.76-.41,5.51-.69l.41,5.48c-2.13.31-4.54.6-7.23.87-1.54,6.28-3.53,12.62-5.95,19.01l-5.82-1.67c2.16-5.67,3.99-11.33,5.49-16.97-1.81.07-3.23.11-4.24.12l-.05-5.48c1.95-.02,3.83-.07,5.64-.17.33-1.44.73-3.37,1.19-5.77ZM199.37,35.41c2.31,1.37,4.92,3.34,7.85,5.93l-3.68,4.47c-1.08-.98-2.51-2.18-4.31-3.6-.41,2.06-1.28,3.55-2.62,4.46-1.34.92-3.27,1.39-5.81,1.41-2.88.03-5.15-.64-6.82-2s-2.51-3.22-2.53-5.6c-.02-2.29.78-4.14,2.39-5.54,1.61-1.4,3.89-2.12,6.82-2.14.75,0,1.56.05,2.44.18-.13-2.75-.1-4.91.1-6.48l6.2-.02c-.22,1.84-.24,4.62-.05,8.32v.6ZM193.32,38.58c-1.07-.39-2.06-.58-2.96-.57-.83,0-1.48.24-1.97.7-.49.46-.73,1.03-.72,1.73,0,.75.26,1.34.76,1.79.5.45,1.16.67,1.99.66,1.23-.01,2.02-.26,2.39-.74.37-.48.55-1.55.53-3.2v-.36ZM193.98,23.06l1.83-5.5c4.2,1.06,8.25,2.34,12.16,3.85l-1.99,5.46c-4.07-1.56-8.07-2.83-11.99-3.81Z"/>
        <path class="cls-2" d="M220.03,23.86l3.32-4.31c3.14,1.84,5.32,3.14,6.56,3.9,2.44-1.62,4.41-3.04,5.92-4.25l-19.08.17-.05-5.12,26.96-.24.05,5.12c-2.86,2.59-5.93,5.01-9.21,7.28.21.13.52.34.93.61s.71.48.93.61l11.84-.11.05,5.32c-2.24,3.03-4.99,6-8.24,8.91l-4.08-4.2c1.77-1.46,3.45-3,5.04-4.65l-7.28.07.08,8.56c.01,1.2,0,2.15-.04,2.84-.03.69-.14,1.34-.32,1.94-.18.6-.39,1.03-.63,1.29-.24.26-.65.48-1.23.67-.58.19-1.2.31-1.84.36-.64.04-1.53.07-2.68.08-.88,0-3.09-.04-6.64-.14l-.37-5.24c3.28.1,5.21.15,5.8.15.77,0,1.23-.08,1.36-.23.13-.15.19-.61.19-1.38l-.08-8.84-15.52.14-.05-5.32,14.96-.13c-2.12-1.29-4.33-2.57-6.63-3.86Z"/>
        <path class="cls-2" d="M267.73,17.32l.04,4.92-4.08.04c1.64,1.77,3.37,3.7,5.17,5.79l-.13-14.48,18.32-.16.2,21.88-12.4.11-2.08.02c1.34,1,2.47,1.94,3.39,2.81l-3.49,3.67c-1.78-1.72-3.75-3.26-5.92-4.63l2.18-2.1-.05-5.52-2.45,3.26c-1.41-2.07-2.47-3.62-3.2-4.65l.07,7.96-5.92.05-.05-5.92c-1.32,1.93-2.64,3.48-3.96,4.63l-2.65-5.34c2.89-2.32,5.06-4.77,6.54-7.34l-5.2.05-.04-4.92,5.2-.05-.04-4.44,5.92-.05.04,4.44,4.6-.04ZM278.88,38.74l4.86-2.56c2.21,2.99,4.04,6,5.48,9.03l-5.06,2.41c-1.01-2.07-2.01-3.89-3.01-5.45-.17,2.48-.58,4.09-1.26,4.81-.67.73-2.1,1.19-4.29,1.4-1.15.12-2.84.18-5.08.21-1.68.01-3.37,0-5.08-.04-2.37-.08-3.87-.45-4.49-1.08-.62-.63-.94-2.18-.96-4.63l-.02-2.04c-1.09,2.86-2.62,5.4-4.57,7.6l-4.43-3.48c1.95-2.26,3.42-4.75,4.41-7.48l4.58,2.08-.02-1.96,6.24-.06.04,4.72c0,.72.06,1.16.17,1.32s.4.26.88.31c.4.05,1.37.07,2.92.05,1.47-.01,2.45-.05,2.96-.11.96-.09,1.57-.35,1.83-.78.26-.43.43-1.43.49-3l4.68.6c-.38-.61-.81-1.23-1.3-1.87ZM274.72,20.09l6.32-.06-.02-1.76-6.32.06.02,1.76ZM274.75,23.73l.02,1.8,6.32-.06-.02-1.8-6.32.06ZM274.8,29.21l.02,1.8,6.32-.06-.02-1.8-6.32.06Z"/>
        <path class="cls-2" d="M292.4,20.86l6.52-.06-.06-6.6,6.12-.05.06,6.6,9.32-.08-.06-6.6,6.32-.06.06,6.6,6.68-.06.05,5.64-6.68.06v.96c.06,6.24-1.35,10.86-4.25,13.86-2.89,3-7.68,4.85-14.37,5.55l-1.25-5.43c5.3-.63,8.9-1.94,10.79-3.92,1.89-1.98,2.81-5.31,2.77-10v-.96s-9.33.08-9.33.08l.07,7.48-6.12.05-.07-7.48-6.52.06-.05-5.64Z"/>
        <path class="cls-2" d="M333.56,29.13c5.35-1.19,10.45-3.11,15.29-5.74,4.84-2.63,9.06-5.77,12.66-9.43l4.52,4.32c-3.12,3.23-6.85,6.16-11.2,8.78l.17,18.64-6.6.06-.14-15.2c-4.36,1.99-8.77,3.43-13.24,4.32l-1.45-5.75Z"/>
        <path class="cls-2" d="M380.54,13.51l6.64-.06.1,10.8c6.25,1.6,12.11,3.54,17.57,5.84l-2.19,5.5c-4.79-2.01-9.9-3.75-15.33-5.22l.14,15.64-6.64.06-.29-32.56Z"/>
        <path class="cls-2" d="M421.6,11.5l5.72.43c-.32,2.83-.67,5.29-1.05,7.37.4-.03.91-.05,1.52-.05,1.49-.01,2.67,0,3.52.05.85.05,1.66.2,2.42.46.76.26,1.31.58,1.65.95.34.37.63.97.9,1.79.26.82.42,1.72.48,2.68.06.96.1,2.27.12,3.92.05,5.33-.72,9.41-2.29,12.22-1.57,2.81-3.54,4.23-5.88,4.25-1.81.02-4.22-.83-7.22-2.54l2.15-5.02c1.96,1.13,3.27,1.69,3.94,1.68.4,0,.77-.22,1.11-.65.34-.43.66-1.09.96-1.99.3-.9.53-2.14.71-3.73.17-1.59.25-3.42.23-5.5-.01-1.39-.19-2.26-.52-2.62-.34-.36-1.13-.53-2.38-.52-.53,0-1.39.05-2.56.14-1.57,6.68-4.01,13.69-7.33,21.03l-5.22-2.19c2.88-6.27,5.06-12.38,6.56-18.34-1.57.15-3.28.32-5.12.53l-.41-5.44c4.32-.44,6.57-.67,6.75-.7.51-2.62.92-5.36,1.25-8.21ZM442.6,19.51l-4.1,2c-1.06-2.1-2.21-4.21-3.46-6.33l4.1-2.12c1.25,2.26,2.4,4.41,3.46,6.45ZM438.88,24.07l5.78-1.89c2,5.5,3.59,10.41,4.77,14.72l-5.91,1.49c-1.24-4.39-2.79-9.16-4.65-14.32ZM449.07,18.17l-4.18,2.04c-1.22-2.31-2.4-4.46-3.54-6.45l4.18-2.16c.98,1.73,2.16,3.91,3.54,6.57Z"/>
      </g>
      <g>
        <path class="cls-1" d="M12.03,29.6l9.76-.09.09,10.4c1.23-2.2,2.1-4.95,2.59-8.26.49-3.31.71-8.17.65-14.57,3.68-.03,7.34-.27,10.97-.72,3.64-.45,6.53-1,8.69-1.66l1.57,5.07c-4.1,1.18-9.25,1.96-15.46,2.34-.02.96-.05,1.97-.09,3.04l16.16-.14.05,5.08-4.8.04.12,13.8-6.24.06-.12-13.8-5.44.05c-.29,3.2-.76,5.85-1.41,7.93-.65,2.09-1.55,4-2.71,5.75l-4.51-3v1.16c.61.98,1.34,1.68,2.21,2.1.87.42,2.35.72,4.45.9,2.09.18,5.33.25,9.7.21l9.84-.09-.27,5.12-9.56.09c-5.36.05-9.45-.16-12.27-.63-2.82-.47-4.93-1.32-6.32-2.56-1.59,1.38-3.35,2.71-5.28,4.01l-2.88-4.77c1.59-1.03,3.09-2.09,4.49-3.2l-.08-8.6-3.84.03-.05-5.08ZM23.29,23.1l-3.89,3.71c-2.5-2.72-4.83-5.14-6.99-7.26l4.05-3.72c2.29,2.27,4.56,4.69,6.82,7.26Z"/>
        <path class="cls-1" d="M59.21,14.02l6.05,1.15c-.31,1.02-.6,1.93-.86,2.73l22.04-.2.05,5.12-11.16.1.04,4.72,9.96-.09.05,5.12-9.96.09.05,5.64,12.8-.11.05,5.24-12.8.11.06,6.8-6.44.06-.06-6.8-17.24.15-.05-5.24,5.76-.05-.05-5.92-5.31-2.91c2.97-5.01,5.31-10.25,7.02-15.7ZM62.45,23.03c-.71,1.69-1.42,3.27-2.16,4.74l8.64-.08-.04-4.72-6.44.06ZM68.98,32.81l-5.4.05.05,5.64,5.4-.05-.05-5.64Z"/>
        <path class="cls-1" d="M91.67,20.53l3.88-.04-.05-6.08,5.52-.05.05,6.08,3.36-.03.05,5.12-3.12.03c2.09,4.25,3.27,6.65,3.54,7.21l-.02-2.76,8.8-.08v-1.6s-7.85.07-7.85.07l-.04-4.2,7.84-.07v-1.44s-8.53.08-8.53.08l-.04-4.76,4.04-.04c-.57-1.06-1.14-2.1-1.71-3.11l5.27-1.33c.84,1.43,1.64,2.89,2.4,4.38l3.4-.03c.81-1.55,1.51-3.03,2.08-4.42l5.41,1.03c-.29.72-.8,1.83-1.53,3.33l3.32-.03.04,4.6-8.08.07v1.6s7.65-.07,7.65-.07l.04,4.2-7.64.07v1.6s8.49-.08,8.49-.08l.05,5.04-2.4.02,2.75,3.25c-1.14,1.08-2.36,2.13-3.65,3.15,1.34,1.29,2.74,2.42,4.19,3.36l-3.44,4.79c-2.2-1.77-4.16-3.98-5.86-6.63v.04c.01,1.2,0,2.14-.01,2.82-.02.68-.11,1.33-.28,1.94-.17.61-.36,1.05-.59,1.3-.22.25-.6.48-1.13.67-.53.19-1.1.31-1.7.36-.6.04-1.43.07-2.5.08-.59,0-1.88-.05-3.88-.17l-.28-3.96c-1.3,1.03-2.89,2.16-4.77,3.4l-2.88-4.65c1.86-1.06,3.67-2.23,5.45-3.53-1.24-1.64-2.21-2.87-2.91-3.69l3.22-2.39-2.4.02-2.41,3.46c-.35-.9-.89-2.21-1.59-3.91l.14,15.6-5.52.05-.11-12.48c-.68,2.06-1.5,3.84-2.47,5.34l-2.33-6.1c2.26-3.59,3.76-7.39,4.5-11.4l-3.68.03-.05-5.12ZM111.15,38.08c.16-.13.38-.33.65-.59.28-.25.48-.44.62-.54l1.34,2.15-.04-4.12-5,.04c.67.82,1.48,1.84,2.43,3.06ZM113.79,42.13c-.79.78-1.87,1.74-3.21,2.87.96.07,1.64.11,2.04.1.56,0,.9-.08,1.02-.23.12-.15.17-.61.17-1.38v-1.36ZM121.54,37.5c1.03-.76,2.11-1.63,3.22-2.63l-4.96.04c.62,1.01,1.2,1.87,1.74,2.58Z"/>
        <path class="cls-1" d="M142.62,36.52l4.24-4.4c1.91,1.42,3.53,2.69,4.87,3.8,2.79-3.54,4.75-7.14,5.86-10.77l-11.2.1c-2.51,5.2-5.62,9.86-9.31,14l-5.15-3.35c5.52-6.24,9.59-13.51,12.21-21.83l6.17,1.03c-.57,1.9-1.1,3.49-1.6,4.77l15.4-.14.05,5.36c-1.16,4.89-3.75,9.86-7.79,14.91,1.86,1.74,3.6,3.5,5.25,5.27l-4.6,4.2c-4.36-4.84-9.16-9.16-14.4-12.95Z"/>
        <path class="cls-1" d="M180.01,13.7l5.97.63c-.56,2.94-.87,4.49-.92,4.65,1.92-.18,3.76-.41,5.51-.69l.41,5.48c-2.13.31-4.54.6-7.23.87-1.54,6.28-3.53,12.62-5.95,19.01l-5.82-1.67c2.16-5.67,3.99-11.33,5.49-16.97-1.81.07-3.23.11-4.24.12l-.05-5.48c1.95-.02,3.83-.07,5.64-.17.33-1.44.73-3.37,1.19-5.77ZM199.37,35.41c2.31,1.37,4.92,3.34,7.85,5.93l-3.68,4.47c-1.08-.98-2.51-2.18-4.31-3.6-.41,2.06-1.28,3.55-2.62,4.46-1.34.92-3.27,1.39-5.81,1.41-2.88.03-5.15-.64-6.82-2s-2.51-3.22-2.53-5.6c-.02-2.29.78-4.14,2.39-5.54,1.61-1.4,3.89-2.12,6.82-2.14.75,0,1.56.05,2.44.18-.13-2.75-.1-4.91.1-6.48l6.2-.02c-.22,1.84-.24,4.62-.05,8.32v.6ZM193.32,38.58c-1.07-.39-2.06-.58-2.96-.57-.83,0-1.48.24-1.97.7-.49.46-.73,1.03-.72,1.73,0,.75.26,1.34.76,1.79.5.45,1.16.67,1.99.66,1.23-.01,2.02-.26,2.39-.74.37-.48.55-1.55.53-3.2v-.36ZM193.98,23.06l1.83-5.5c4.2,1.06,8.25,2.34,12.16,3.85l-1.99,5.46c-4.07-1.56-8.07-2.83-11.99-3.81Z"/>
        <path class="cls-1" d="M220.03,23.86l3.32-4.31c3.14,1.84,5.32,3.14,6.56,3.9,2.44-1.62,4.41-3.04,5.92-4.25l-19.08.17-.05-5.12,26.96-.24.05,5.12c-2.86,2.59-5.93,5.01-9.21,7.28.21.13.52.34.93.61s.71.48.93.61l11.84-.11.05,5.32c-2.24,3.03-4.99,6-8.24,8.91l-4.08-4.2c1.77-1.46,3.45-3,5.04-4.65l-7.28.07.08,8.56c.01,1.2,0,2.15-.04,2.84-.03.69-.14,1.34-.32,1.94-.18.6-.39,1.03-.63,1.29-.24.26-.65.48-1.23.67-.58.19-1.2.31-1.84.36-.64.04-1.53.07-2.68.08-.88,0-3.09-.04-6.64-.14l-.37-5.24c3.28.1,5.21.15,5.8.15.77,0,1.23-.08,1.36-.23.13-.15.19-.61.19-1.38l-.08-8.84-15.52.14-.05-5.32,14.96-.13c-2.12-1.29-4.33-2.57-6.63-3.86Z"/>
        <path class="cls-1" d="M267.73,17.32l.04,4.92-4.08.04c1.64,1.77,3.37,3.7,5.17,5.79l-.13-14.48,18.32-.16.2,21.88-12.4.11-2.08.02c1.34,1,2.47,1.94,3.39,2.81l-3.49,3.67c-1.78-1.72-3.75-3.26-5.92-4.63l2.18-2.1-.05-5.52-2.45,3.26c-1.41-2.07-2.47-3.62-3.2-4.65l.07,7.96-5.92.05-.05-5.92c-1.32,1.93-2.64,3.48-3.96,4.63l-2.65-5.34c2.89-2.32,5.06-4.77,6.54-7.34l-5.2.05-.04-4.92,5.2-.05-.04-4.44,5.92-.05.04,4.44,4.6-.04ZM278.88,38.74l4.86-2.56c2.21,2.99,4.04,6,5.48,9.03l-5.06,2.41c-1.01-2.07-2.01-3.89-3.01-5.45-.17,2.48-.58,4.09-1.26,4.81-.67.73-2.1,1.19-4.29,1.4-1.15.12-2.84.18-5.08.21-1.68.01-3.37,0-5.08-.04-2.37-.08-3.87-.45-4.49-1.08-.62-.63-.94-2.18-.96-4.63l-.02-2.04c-1.09,2.86-2.62,5.4-4.57,7.6l-4.43-3.48c1.95-2.26,3.42-4.75,4.41-7.48l4.58,2.08-.02-1.96,6.24-.06.04,4.72c0,.72.06,1.16.17,1.32s.4.26.88.31c.4.05,1.37.07,2.92.05,1.47-.01,2.45-.05,2.96-.11.96-.09,1.57-.35,1.83-.78.26-.43.43-1.43.49-3l4.68.6c-.38-.61-.81-1.23-1.3-1.87ZM274.72,20.09l6.32-.06-.02-1.76-6.32.06.02,1.76ZM274.75,23.73l.02,1.8,6.32-.06-.02-1.8-6.32.06ZM274.8,29.21l.02,1.8,6.32-.06-.02-1.8-6.32.06Z"/>
        <path class="cls-1" d="M292.4,20.86l6.52-.06-.06-6.6,6.12-.05.06,6.6,9.32-.08-.06-6.6,6.32-.06.06,6.6,6.68-.06.05,5.64-6.68.06v.96c.06,6.24-1.35,10.86-4.25,13.86-2.89,3-7.68,4.85-14.37,5.55l-1.25-5.43c5.3-.63,8.9-1.94,10.79-3.92,1.89-1.98,2.81-5.31,2.77-10v-.96s-9.33.08-9.33.08l.07,7.48-6.12.05-.07-7.48-6.52.06-.05-5.64Z"/>
        <path class="cls-1" d="M333.56,29.13c5.35-1.19,10.45-3.11,15.29-5.74,4.84-2.63,9.06-5.77,12.66-9.43l4.52,4.32c-3.12,3.23-6.85,6.16-11.2,8.78l.17,18.64-6.6.06-.14-15.2c-4.36,1.99-8.77,3.43-13.24,4.32l-1.45-5.75Z"/>
        <path class="cls-1" d="M380.54,13.51l6.64-.06.1,10.8c6.25,1.6,12.11,3.54,17.57,5.84l-2.19,5.5c-4.79-2.01-9.9-3.75-15.33-5.22l.14,15.64-6.64.06-.29-32.56Z"/>
        <path class="cls-1" d="M421.6,11.5l5.72.43c-.32,2.83-.67,5.29-1.05,7.37.4-.03.91-.05,1.52-.05,1.49-.01,2.67,0,3.52.05.85.05,1.66.2,2.42.46.76.26,1.31.58,1.65.95.34.37.63.97.9,1.79.26.82.42,1.72.48,2.68.06.96.1,2.27.12,3.92.05,5.33-.72,9.41-2.29,12.22-1.57,2.81-3.54,4.23-5.88,4.25-1.81.02-4.22-.83-7.22-2.54l2.15-5.02c1.96,1.13,3.27,1.69,3.94,1.68.4,0,.77-.22,1.11-.65.34-.43.66-1.09.96-1.99.3-.9.53-2.14.71-3.73.17-1.59.25-3.42.23-5.5-.01-1.39-.19-2.26-.52-2.62-.34-.36-1.13-.53-2.38-.52-.53,0-1.39.05-2.56.14-1.57,6.68-4.01,13.69-7.33,21.03l-5.22-2.19c2.88-6.27,5.06-12.38,6.56-18.34-1.57.15-3.28.32-5.12.53l-.41-5.44c4.32-.44,6.57-.67,6.75-.7.51-2.62.92-5.36,1.25-8.21ZM442.6,19.51l-4.1,2c-1.06-2.1-2.21-4.21-3.46-6.33l4.1-2.12c1.25,2.26,2.4,4.41,3.46,6.45ZM438.88,24.07l5.78-1.89c2,5.5,3.59,10.41,4.77,14.72l-5.91,1.49c-1.24-4.39-2.79-9.16-4.65-14.32ZM449.07,18.17l-4.18,2.04c-1.22-2.31-2.4-4.46-3.54-6.45l4.18-2.16c.98,1.73,2.16,3.91,3.54,6.57Z"/>
      </g>
    </g>
    <g>
      <g>
        <path class="cls-3" d="M81.99,94.54h5.72v-3.6h-6.96v-5.08h6.96v-2.8c-1.25.13-3.16.28-5.72.44l-.68-5.08c7.17-.45,13-1.39,17.48-2.8l2,5.08c-1.6.54-3.88,1.04-6.84,1.52v3.64h6.88v5.08h-6.88v3.6h5.76v16.2h-5.6v-1.6h-6.36v2.08h-5.76v-16.68ZM87.75,104.66h6.36v-5.64h-6.36v5.64ZM109.95,105.74c1.17,0,1.87-.41,2.08-1.24.21-.83.36-3.72.44-8.68l5.48.68c-.08,2.96-.13,5.05-.16,6.26-.03,1.21-.17,2.54-.44,3.98-.27,1.44-.49,2.33-.66,2.66-.17.33-.65.71-1.44,1.14-.79.43-1.49.64-2.12.64h-3.3c-1.39,0-2.45-.01-3.2-.04-.75-.03-1.46-.11-2.14-.24-.68-.13-1.15-.29-1.42-.48-.27-.19-.51-.51-.72-.96-.21-.45-.33-.92-.36-1.4-.03-.48-.04-1.19-.04-2.12v-29.72h6.08v28.36c0,.59.08.93.24,1.02.16.09.72.14,1.68.14Z"/>
        <path class="cls-3" d="M121.19,110.34v-5.44h18.4c2.83-5.47,4.99-11.69,6.48-18.68l6.36,1.2c-1.36,6.32-3.35,12.15-5.96,17.48h10.4v5.44h-35.68ZM142.23,79.66h13.84v5.24h-34.08v-5.24h13.84v-4.44h6.4v4.44ZM126.47,87.66l6.08-1.4c1.52,5.31,2.81,10.68,3.88,16.12l-6.04,1.04c-.99-4.96-2.29-10.21-3.92-15.76Z"/>
        <path class="cls-3" d="M166.83,76.94h6.64c0,2.21-.08,5.56-.24,10.04-.16,4.53-.24,7.85-.24,9.96,0,2.61.41,4.49,1.24,5.62.83,1.13,2.13,1.7,3.92,1.7,2.21,0,4.23-.86,6.06-2.58,1.83-1.72,3.62-4.65,5.38-8.78l5.72,2.48c-2,5.15-4.41,8.91-7.22,11.28-2.81,2.37-6.13,3.56-9.94,3.56-4.03,0-7-1.01-8.92-3.04-1.92-2.03-2.88-5.44-2.88-10.24,0-1.92.08-5.15.24-9.68s.24-7.97.24-10.32Z"/>
        <path class="cls-3" d="M202.83,81.06c10.69,0,21.44-.68,32.24-2.04l.52,5.8c-5.49.67-9.63,1.94-12.4,3.82-2.77,1.88-4.16,4.09-4.16,6.62,0,2.29,1.03,4.16,3.1,5.6,2.07,1.44,5.03,2.28,8.9,2.52l-.68,5.96c-5.63-.24-10.03-1.54-13.22-3.9-3.19-2.36-4.78-5.42-4.78-9.18,0-1.92.53-3.76,1.6-5.52,1.07-1.76,2.57-3.28,4.52-4.56l-.04-.08c-5.47.64-10.67.96-15.6.96v-6Z"/>
        <path class="cls-3" d="M252.11,75.66h6.2c0,2.43.01,4.23.04,5.4,3.57-.27,6.28-.51,8.12-.72l.36,5.2c-1.95.21-4.75.45-8.4.72.03.29.04.74.04,1.34s.01,1.05.04,1.34c0,.24,0,.59.02,1.04s.02.79.02,1c1.41-.16,2.88-.24,4.4-.24,3.33,0,6.03.88,8.08,2.64,2.05,1.76,3.08,4.01,3.08,6.76,0,3.01-.91,5.43-2.74,7.26s-4.25,2.74-7.26,2.74c-1.57,0-2.96-.21-4.16-.64l.88-5.28c.93.29,1.96.44,3.08.44,1.23,0,2.18-.37,2.86-1.1.68-.73,1.02-1.77,1.02-3.1,0-2.72-2-4.08-6-4.08-.96,0-2,.07-3.12.2.03,1.07.04,2.65.04,4.76,0,3.15-.53,5.33-1.6,6.56-1.07,1.23-2.85,1.84-5.36,1.84-2.69,0-4.97-.73-6.82-2.18-1.85-1.45-2.78-3.13-2.78-5.02,0-2.03.91-3.96,2.74-5.8,1.83-1.84,4.33-3.29,7.5-4.36,0-.37-.01-.93-.04-1.68-.03-.75-.04-1.31-.04-1.68,0-.27-.01-.67-.04-1.22-.03-.55-.04-.95-.04-1.22-3.52.11-6.23.16-8.12.16v-5.2c1.89,0,4.57-.05,8.04-.16-.03-1.25-.04-3.16-.04-5.72ZM252.47,98.26c-1.28.59-2.29,1.23-3.02,1.94-.73.71-1.1,1.38-1.1,2.02,0,.53.25,1.01.76,1.42.51.41,1.05.62,1.64.62.75,0,1.23-.17,1.44-.5.21-.33.32-1.14.32-2.42,0-.35,0-.86-.02-1.54-.01-.68-.02-1.19-.02-1.54ZM267.59,83.46l4.2-3.2c2.29,2.75,4.28,5.29,5.96,7.64l-4.32,3c-1.47-2.08-3.41-4.56-5.84-7.44Z"/>
        <path class="cls-3" d="M286.83,76.42h6.28c-.24,3.52-.39,6.19-.44,8l.08.04c2.53-3.95,5.72-5.92,9.56-5.92,3.41,0,6.07,1.15,7.96,3.46s2.84,5.71,2.84,10.22c0,11.71-7.21,17.68-21.64,17.92l-.52-5.8c5.44-.11,9.39-1.13,11.86-3.06,2.47-1.93,3.7-4.95,3.7-9.06,0-5.04-1.61-7.56-4.84-7.56-2.21,0-4.21,1.19-5.98,3.56-1.77,2.37-2.89,5.59-3.34,9.64l-6.12.16c0-7.33.2-14.53.6-21.6Z"/>
        <path class="cls-3" d="M338.27,96.22c-.03-.32-.04-.79-.04-1.42s-.01-1.1-.04-1.42c-3.81.21-8.13.32-12.96.32v-5.12c4.27,0,8.52-.12,12.76-.36-.03-.59-.04-1.47-.04-2.64-4.96.24-9.73.36-14.32.36v-5.12c4.05,0,8.85-.13,14.4-.4.11-1.92.21-3.39.32-4.4h6.32c-.16,1.81-.27,3.16-.32,4.04,3.76-.27,7.12-.55,10.08-.84l.36,5.12c-4,.4-7.51.69-10.52.88,0,.29,0,.73.02,1.3.01.57.02,1.01.02,1.3,2.67-.21,5.51-.49,8.52-.84l.36,5.12c-3.04.32-5.95.6-8.72.84v.16c.05,1.23.11,3.07.16,5.52,2.37,1.25,5.49,3.29,9.36,6.12l-3.56,4.44c-2.08-1.52-4.13-2.95-6.16-4.28-.51,1.87-1.51,3.21-3.02,4.02-1.51.81-3.71,1.22-6.62,1.22s-5.18-.65-6.82-1.96-2.46-3.09-2.46-5.36c0-2.08.82-3.76,2.46-5.04,1.64-1.28,3.91-1.92,6.82-1.92,1.17,0,2.39.12,3.64.36ZM338.35,101.7c-1.17-.43-2.31-.64-3.4-.64-2.08,0-3.12.59-3.12,1.76s1.04,1.84,3.12,1.84c1.31,0,2.19-.19,2.66-.56.47-.37.71-1.17.74-2.4Z"/>
        <path class="cls-3" d="M370.27,105.14c5.52-.29,8.92-1.37,10.2-3.24.27-.45.43-.77.48-.96l-.04-.04c-1.23.83-2.69,1.24-4.4,1.24-2.45,0-4.43-.71-5.94-2.12-1.51-1.41-2.26-3.29-2.26-5.64s.77-4.09,2.32-5.54c1.55-1.45,3.51-2.18,5.88-2.18.88,0,1.96.19,3.24.56l.04-.04c0-.27,0-.63-.02-1.1-.01-.47-.02-.81-.02-1.02-7.31.32-13.25.48-17.84.48v-5.28c4.45,0,10.32-.16,17.6-.48-.05-1.97-.08-3.48-.08-4.52h6.12c0,.88.03,2.28.08,4.2,3.41-.19,6.92-.44,10.52-.76l.36,5.32c-2.48.21-6.04.47-10.68.76.08,2.24.12,4.46.12,6.64,1.04,1.87,1.56,4,1.56,6.4,0,4.11-1.29,7.19-3.88,9.26-2.59,2.07-6.79,3.25-12.6,3.54l-.76-5.48ZM375.39,92.42c-.59.59-.88,1.29-.88,2.12s.29,1.53.88,2.12c.59.59,1.29.88,2.12.88s1.53-.29,2.12-.88c.59-.59.88-1.29.88-2.12s-.29-1.53-.88-2.12c-.59-.59-1.29-.88-2.12-.88s-1.53.29-2.12.88Z"/>
      </g>
      <g>
        <path class="cls-1" d="M81.99,118.22c-3.87,0-7-3.13-7-7v-16.3c-.78-1.13-1.24-2.5-1.24-3.98v-5.08c0-1.33.37-2.56,1.01-3.62l-.39-2.89c-.26-1.92.3-3.87,1.53-5.37s3.03-2.42,4.97-2.54c6.57-.42,11.9-1.25,15.82-2.49.7-.22,1.41-.33,2.11-.33.99,0,1.96.21,2.85.61.1,0,.21,0,.31,0h6.08c3.87,0,7,3.13,7,7v12.86l3.78.47c3.58.44,6.23,3.53,6.14,7.14-.08,2.94-.13,5.02-.16,6.22-.04,1.58-.22,3.3-.56,5.1-.44,2.35-.78,3.55-1.33,4.6-1.14,2.17-3.01,3.36-4.32,4.07-1.82.99-3.66,1.49-5.46,1.49h-3.3c-1.49,0-2.64-.02-3.44-.04-1.12-.04-2.21-.16-3.24-.37-.49-.1-.95-.21-1.38-.34-.65.2-1.34.31-2.06.31h-5.6c-.96,0-1.88-.19-2.71-.54-1.06.65-2.31,1.02-3.65,1.02h-5.76Z"/>
        <path class="cls-1" d="M121.19,117.34c-3.87,0-7-3.13-7-7v-5.44c0-3.87,3.13-7,7-7h.8c-.5-2.02-1.04-4.09-1.64-6.19-3.08-.74-5.36-3.5-5.36-6.81v-5.24c0-3.87,3.13-7,7-7h7.32c1.02-2.6,3.55-4.44,6.52-4.44h6.4c2.96,0,5.5,1.84,6.52,4.44h7.32c3.87,0,7,3.13,7,7v5.24c0,2.94-1.81,5.45-4.37,6.49-.54,2.22-1.16,4.39-1.86,6.51h.03c3.87,0,7,3.13,7,7v5.44c0,3.87-3.13,7-7,7h-35.68Z"/>
        <path class="cls-1" d="M178.15,117.22c-6.01,0-10.72-1.76-14-5.23-3.23-3.41-4.8-8.33-4.8-15.05,0-2.02.08-5.27.24-9.93.16-4.42.24-7.81.24-10.07,0-3.87,3.13-7,7-7h6.64c3.87,0,7,3.13,7,7,0,2.31-.08,5.68-.24,10.29-.13,3.75-.21,6.67-.23,8.7.69-.87,1.79-2.57,3.15-5.78.73-1.71,2.11-3.07,3.85-3.76.83-.33,1.71-.5,2.59-.5.95,0,1.9.19,2.78.58l5.72,2.48c3.45,1.5,5.1,5.45,3.74,8.96-2.45,6.31-5.47,10.93-9.23,14.1-4.1,3.46-8.96,5.21-14.45,5.21Z"/>
        <path class="cls-1" d="M230.06,116.33c-7.02-.3-12.77-2.07-17.09-5.27-4.98-3.69-7.61-8.81-7.61-14.8,0-.75.05-1.49.14-2.23-.9.02-1.79.03-2.66.03-3.87,0-7-3.13-7-7v-6c0-3.87,3.13-7,7-7,10.35,0,20.9-.67,31.36-1.99.29-.04.58-.05.88-.05,1.59,0,3.14.54,4.39,1.55,1.48,1.19,2.41,2.93,2.58,4.83l.52,5.8c.34,3.77-2.38,7.12-6.13,7.58-5.71.69-8.28,1.97-9.31,2.66-.44.3-.73.55-.91.74.53.34,1.97,1.02,5.25,1.22,1.92.12,3.7,1.02,4.93,2.49s1.81,3.38,1.59,5.29l-.68,5.96c-.41,3.55-3.41,6.21-6.95,6.21-.1,0-.2,0-.3,0Z"/>
        <path class="cls-1" d="M264.11,117.14c-2.36,0-4.55-.35-6.5-1.04-.15-.05-.3-.11-.45-.18-1.49.5-3.27.82-5.41.82-4.29,0-8.03-1.24-11.14-3.67-4.51-3.54-5.46-7.68-5.46-10.53,0-2.63.79-6.55,4.47-10.43-1.54-1.28-2.51-3.21-2.51-5.37v-5.2c0-1.86.74-3.64,2.05-4.95,1.31-1.31,3.09-2.05,4.95-2.05.33,0,.7,0,1.09,0,.54-3.33,3.43-5.87,6.91-5.87h6.2c3.1,0,5.73,2.01,6.65,4.8.25-.03.48-.05.7-.08.27-.03.54-.05.81-.05.88,0,1.75.17,2.56.49.88-.38,1.82-.57,2.75-.57,2.01,0,4,.86,5.38,2.51,2.39,2.86,4.5,5.57,6.28,8.05,1.09,1.52,1.53,3.42,1.21,5.27s-1.37,3.49-2.91,4.56l-1.53,1.07c.6,1.69.9,3.51.9,5.42,0,4.85-1.66,9.08-4.79,12.21-3.13,3.13-7.36,4.79-12.21,4.79Z"/>
        <path class="cls-1" d="M291.47,117.14c-3.62,0-6.65-2.76-6.97-6.37l-.52-5.8c0-.11-.02-.22-.02-.33-.97-.33-1.86-.88-2.61-1.61-1.35-1.32-2.12-3.12-2.12-5.01,0-7.42.21-14.82.61-22,.21-3.71,3.28-6.6,6.99-6.6h6.28c1.94,0,3.79.8,5.12,2.22.1.1.19.21.28.31,1.36-.3,2.65-.42,3.81-.42,5.51,0,10.14,2.08,13.37,6.02,2.94,3.58,4.43,8.51,4.43,14.66,0,7.35-2.78,24.49-28.52,24.92-.04,0-.08,0-.12,0Z"/>
        <path class="cls-1" d="M334.63,117.14c-4.52,0-8.28-1.17-11.18-3.49-3.29-2.62-5.1-6.47-5.1-10.83,0-1.86.36-3.63,1.04-5.26-.74-1.11-1.16-2.44-1.16-3.87v-3.31c-1-1.21-1.6-2.76-1.6-4.45v-5.12c0-3.87,3.13-7,7-7,2.42,0,5.14-.05,8.12-.15.97-2.73,3.58-4.65,6.6-4.65h6.32c1.96,0,3.84.82,5.16,2.27.35.38.65.8.91,1.24,1.05-.09,2.05-.19,3-.28.23-.02.46-.03.69-.03,1.65,0,3.25.58,4.51,1.65,1.45,1.22,2.34,2.97,2.47,4.86l.36,5.12c.14,1.97-.55,3.81-1.78,5.17l.18,2.58c.19,2.72-1.2,5.19-3.4,6.51.44.31.89.64,1.35.97,1.54,1.13,2.56,2.84,2.81,4.73.25,1.89-.28,3.81-1.48,5.3l-3.56,4.44c-1.38,1.72-3.41,2.62-5.47,2.62-1.43,0-2.88-.44-4.12-1.35-.2-.15-.4-.29-.6-.44-.36.24-.73.47-1.12.68-2.58,1.39-5.83,2.06-9.95,2.06Z"/>
        <path class="cls-1" d="M371.03,117.62c-3.47,0-6.45-2.56-6.93-6.04l-.76-5.48c-.16-1.16-.03-2.33.38-3.41-1.58-2.36-2.4-5.18-2.4-8.31,0-.63.04-1.25.11-1.86-3.64-.25-6.51-3.28-6.51-6.98v-5.28c0-3.87,3.13-7,7-7,2.95,0,6.6-.07,10.88-.22.93-2.78,3.55-4.78,6.64-4.78h6.12c2.71,0,5.05,1.53,6.22,3.78,1.24-.1,2.5-.2,3.76-.31.21-.02.41-.03.62-.03,1.66,0,3.28.59,4.55,1.68,1.43,1.22,2.31,2.97,2.44,4.85l.36,5.32c.26,3.81-2.58,7.12-6.38,7.45-1.03.09-2.23.18-3.62.29.67,2.04,1.01,4.23,1.01,6.54,0,7.87-3.54,12.36-6.51,14.73-3.8,3.03-9.23,4.69-16.62,5.06-.12,0-.24,0-.36,0Z"/>
      </g>
      <g>
        <path class="cls-2" d="M81.99,94.54h5.72v-3.6h-6.96v-5.08h6.96v-2.8c-1.25.13-3.16.28-5.72.44l-.68-5.08c7.17-.45,13-1.39,17.48-2.8l2,5.08c-1.6.54-3.88,1.04-6.84,1.52v3.64h6.88v5.08h-6.88v3.6h5.76v16.2h-5.6v-1.6h-6.36v2.08h-5.76v-16.68ZM87.75,104.66h6.36v-5.64h-6.36v5.64ZM109.95,105.74c1.17,0,1.87-.41,2.08-1.24.21-.83.36-3.72.44-8.68l5.48.68c-.08,2.96-.13,5.05-.16,6.26-.03,1.21-.17,2.54-.44,3.98-.27,1.44-.49,2.33-.66,2.66-.17.33-.65.71-1.44,1.14-.79.43-1.49.64-2.12.64h-3.3c-1.39,0-2.45-.01-3.2-.04-.75-.03-1.46-.11-2.14-.24-.68-.13-1.15-.29-1.42-.48-.27-.19-.51-.51-.72-.96-.21-.45-.33-.92-.36-1.4-.03-.48-.04-1.19-.04-2.12v-29.72h6.08v28.36c0,.59.08.93.24,1.02.16.09.72.14,1.68.14Z"/>
        <path class="cls-2" d="M121.19,110.34v-5.44h18.4c2.83-5.47,4.99-11.69,6.48-18.68l6.36,1.2c-1.36,6.32-3.35,12.15-5.96,17.48h10.4v5.44h-35.68ZM142.23,79.66h13.84v5.24h-34.08v-5.24h13.84v-4.44h6.4v4.44ZM126.47,87.66l6.08-1.4c1.52,5.31,2.81,10.68,3.88,16.12l-6.04,1.04c-.99-4.96-2.29-10.21-3.92-15.76Z"/>
        <path class="cls-2" d="M166.83,76.94h6.64c0,2.21-.08,5.56-.24,10.04-.16,4.53-.24,7.85-.24,9.96,0,2.61.41,4.49,1.24,5.62.83,1.13,2.13,1.7,3.92,1.7,2.21,0,4.23-.86,6.06-2.58,1.83-1.72,3.62-4.65,5.38-8.78l5.72,2.48c-2,5.15-4.41,8.91-7.22,11.28-2.81,2.37-6.13,3.56-9.94,3.56-4.03,0-7-1.01-8.92-3.04-1.92-2.03-2.88-5.44-2.88-10.24,0-1.92.08-5.15.24-9.68s.24-7.97.24-10.32Z"/>
        <path class="cls-2" d="M202.83,81.06c10.69,0,21.44-.68,32.24-2.04l.52,5.8c-5.49.67-9.63,1.94-12.4,3.82-2.77,1.88-4.16,4.09-4.16,6.62,0,2.29,1.03,4.16,3.1,5.6,2.07,1.44,5.03,2.28,8.9,2.52l-.68,5.96c-5.63-.24-10.03-1.54-13.22-3.9-3.19-2.36-4.78-5.42-4.78-9.18,0-1.92.53-3.76,1.6-5.52,1.07-1.76,2.57-3.28,4.52-4.56l-.04-.08c-5.47.64-10.67.96-15.6.96v-6Z"/>
        <path class="cls-2" d="M252.11,75.66h6.2c0,2.43.01,4.23.04,5.4,3.57-.27,6.28-.51,8.12-.72l.36,5.2c-1.95.21-4.75.45-8.4.72.03.29.04.74.04,1.34s.01,1.05.04,1.34c0,.24,0,.59.02,1.04s.02.79.02,1c1.41-.16,2.88-.24,4.4-.24,3.33,0,6.03.88,8.08,2.64,2.05,1.76,3.08,4.01,3.08,6.76,0,3.01-.91,5.43-2.74,7.26s-4.25,2.74-7.26,2.74c-1.57,0-2.96-.21-4.16-.64l.88-5.28c.93.29,1.96.44,3.08.44,1.23,0,2.18-.37,2.86-1.1.68-.73,1.02-1.77,1.02-3.1,0-2.72-2-4.08-6-4.08-.96,0-2,.07-3.12.2.03,1.07.04,2.65.04,4.76,0,3.15-.53,5.33-1.6,6.56-1.07,1.23-2.85,1.84-5.36,1.84-2.69,0-4.97-.73-6.82-2.18-1.85-1.45-2.78-3.13-2.78-5.02,0-2.03.91-3.96,2.74-5.8,1.83-1.84,4.33-3.29,7.5-4.36,0-.37-.01-.93-.04-1.68-.03-.75-.04-1.31-.04-1.68,0-.27-.01-.67-.04-1.22-.03-.55-.04-.95-.04-1.22-3.52.11-6.23.16-8.12.16v-5.2c1.89,0,4.57-.05,8.04-.16-.03-1.25-.04-3.16-.04-5.72ZM252.47,98.26c-1.28.59-2.29,1.23-3.02,1.94-.73.71-1.1,1.38-1.1,2.02,0,.53.25,1.01.76,1.42.51.41,1.05.62,1.64.62.75,0,1.23-.17,1.44-.5.21-.33.32-1.14.32-2.42,0-.35,0-.86-.02-1.54-.01-.68-.02-1.19-.02-1.54ZM267.59,83.46l4.2-3.2c2.29,2.75,4.28,5.29,5.96,7.64l-4.32,3c-1.47-2.08-3.41-4.56-5.84-7.44Z"/>
        <path class="cls-2" d="M286.83,76.42h6.28c-.24,3.52-.39,6.19-.44,8l.08.04c2.53-3.95,5.72-5.92,9.56-5.92,3.41,0,6.07,1.15,7.96,3.46s2.84,5.71,2.84,10.22c0,11.71-7.21,17.68-21.64,17.92l-.52-5.8c5.44-.11,9.39-1.13,11.86-3.06,2.47-1.93,3.7-4.95,3.7-9.06,0-5.04-1.61-7.56-4.84-7.56-2.21,0-4.21,1.19-5.98,3.56-1.77,2.37-2.89,5.59-3.34,9.64l-6.12.16c0-7.33.2-14.53.6-21.6Z"/>
        <path class="cls-2" d="M338.27,96.22c-.03-.32-.04-.79-.04-1.42s-.01-1.1-.04-1.42c-3.81.21-8.13.32-12.96.32v-5.12c4.27,0,8.52-.12,12.76-.36-.03-.59-.04-1.47-.04-2.64-4.96.24-9.73.36-14.32.36v-5.12c4.05,0,8.85-.13,14.4-.4.11-1.92.21-3.39.32-4.4h6.32c-.16,1.81-.27,3.16-.32,4.04,3.76-.27,7.12-.55,10.08-.84l.36,5.12c-4,.4-7.51.69-10.52.88,0,.29,0,.73.02,1.3.01.57.02,1.01.02,1.3,2.67-.21,5.51-.49,8.52-.84l.36,5.12c-3.04.32-5.95.6-8.72.84v.16c.05,1.23.11,3.07.16,5.52,2.37,1.25,5.49,3.29,9.36,6.12l-3.56,4.44c-2.08-1.52-4.13-2.95-6.16-4.28-.51,1.87-1.51,3.21-3.02,4.02-1.51.81-3.71,1.22-6.62,1.22s-5.18-.65-6.82-1.96-2.46-3.09-2.46-5.36c0-2.08.82-3.76,2.46-5.04,1.64-1.28,3.91-1.92,6.82-1.92,1.17,0,2.39.12,3.64.36ZM338.35,101.7c-1.17-.43-2.31-.64-3.4-.64-2.08,0-3.12.59-3.12,1.76s1.04,1.84,3.12,1.84c1.31,0,2.19-.19,2.66-.56.47-.37.71-1.17.74-2.4Z"/>
        <path class="cls-2" d="M370.27,105.14c5.52-.29,8.92-1.37,10.2-3.24.27-.45.43-.77.48-.96l-.04-.04c-1.23.83-2.69,1.24-4.4,1.24-2.45,0-4.43-.71-5.94-2.12-1.51-1.41-2.26-3.29-2.26-5.64s.77-4.09,2.32-5.54c1.55-1.45,3.51-2.18,5.88-2.18.88,0,1.96.19,3.24.56l.04-.04c0-.27,0-.63-.02-1.1-.01-.47-.02-.81-.02-1.02-7.31.32-13.25.48-17.84.48v-5.28c4.45,0,10.32-.16,17.6-.48-.05-1.97-.08-3.48-.08-4.52h6.12c0,.88.03,2.28.08,4.2,3.41-.19,6.92-.44,10.52-.76l.36,5.32c-2.48.21-6.04.47-10.68.76.08,2.24.12,4.46.12,6.64,1.04,1.87,1.56,4,1.56,6.4,0,4.11-1.29,7.19-3.88,9.26-2.59,2.07-6.79,3.25-12.6,3.54l-.76-5.48ZM375.39,92.42c-.59.59-.88,1.29-.88,2.12s.29,1.53.88,2.12c.59.59,1.29.88,2.12.88s1.53-.29,2.12-.88c.59-.59.88-1.29.88-2.12s-.29-1.53-.88-2.12c-.59-.59-1.29-.88-2.12-.88s-1.53.29-2.12.88Z"/>
      </g>
      <g>
        <path class="cls-1" d="M81.99,94.54h5.72v-3.6h-6.96v-5.08h6.96v-2.8c-1.25.13-3.16.28-5.72.44l-.68-5.08c7.17-.45,13-1.39,17.48-2.8l2,5.08c-1.6.54-3.88,1.04-6.84,1.52v3.64h6.88v5.08h-6.88v3.6h5.76v16.2h-5.6v-1.6h-6.36v2.08h-5.76v-16.68ZM87.75,104.66h6.36v-5.64h-6.36v5.64ZM109.95,105.74c1.17,0,1.87-.41,2.08-1.24.21-.83.36-3.72.44-8.68l5.48.68c-.08,2.96-.13,5.05-.16,6.26-.03,1.21-.17,2.54-.44,3.98-.27,1.44-.49,2.33-.66,2.66-.17.33-.65.71-1.44,1.14-.79.43-1.49.64-2.12.64h-3.3c-1.39,0-2.45-.01-3.2-.04-.75-.03-1.46-.11-2.14-.24-.68-.13-1.15-.29-1.42-.48-.27-.19-.51-.51-.72-.96-.21-.45-.33-.92-.36-1.4-.03-.48-.04-1.19-.04-2.12v-29.72h6.08v28.36c0,.59.08.93.24,1.02.16.09.72.14,1.68.14Z"/>
        <path class="cls-1" d="M121.19,110.34v-5.44h18.4c2.83-5.47,4.99-11.69,6.48-18.68l6.36,1.2c-1.36,6.32-3.35,12.15-5.96,17.48h10.4v5.44h-35.68ZM142.23,79.66h13.84v5.24h-34.08v-5.24h13.84v-4.44h6.4v4.44ZM126.47,87.66l6.08-1.4c1.52,5.31,2.81,10.68,3.88,16.12l-6.04,1.04c-.99-4.96-2.29-10.21-3.92-15.76Z"/>
        <path class="cls-1" d="M166.83,76.94h6.64c0,2.21-.08,5.56-.24,10.04-.16,4.53-.24,7.85-.24,9.96,0,2.61.41,4.49,1.24,5.62.83,1.13,2.13,1.7,3.92,1.7,2.21,0,4.23-.86,6.06-2.58,1.83-1.72,3.62-4.65,5.38-8.78l5.72,2.48c-2,5.15-4.41,8.91-7.22,11.28-2.81,2.37-6.13,3.56-9.94,3.56-4.03,0-7-1.01-8.92-3.04-1.92-2.03-2.88-5.44-2.88-10.24,0-1.92.08-5.15.24-9.68s.24-7.97.24-10.32Z"/>
        <path class="cls-1" d="M202.83,81.06c10.69,0,21.44-.68,32.24-2.04l.52,5.8c-5.49.67-9.63,1.94-12.4,3.82-2.77,1.88-4.16,4.09-4.16,6.62,0,2.29,1.03,4.16,3.1,5.6,2.07,1.44,5.03,2.28,8.9,2.52l-.68,5.96c-5.63-.24-10.03-1.54-13.22-3.9-3.19-2.36-4.78-5.42-4.78-9.18,0-1.92.53-3.76,1.6-5.52,1.07-1.76,2.57-3.28,4.52-4.56l-.04-.08c-5.47.64-10.67.96-15.6.96v-6Z"/>
        <path class="cls-1" d="M252.11,75.66h6.2c0,2.43.01,4.23.04,5.4,3.57-.27,6.28-.51,8.12-.72l.36,5.2c-1.95.21-4.75.45-8.4.72.03.29.04.74.04,1.34s.01,1.05.04,1.34c0,.24,0,.59.02,1.04s.02.79.02,1c1.41-.16,2.88-.24,4.4-.24,3.33,0,6.03.88,8.08,2.64,2.05,1.76,3.08,4.01,3.08,6.76,0,3.01-.91,5.43-2.74,7.26s-4.25,2.74-7.26,2.74c-1.57,0-2.96-.21-4.16-.64l.88-5.28c.93.29,1.96.44,3.08.44,1.23,0,2.18-.37,2.86-1.1.68-.73,1.02-1.77,1.02-3.1,0-2.72-2-4.08-6-4.08-.96,0-2,.07-3.12.2.03,1.07.04,2.65.04,4.76,0,3.15-.53,5.33-1.6,6.56-1.07,1.23-2.85,1.84-5.36,1.84-2.69,0-4.97-.73-6.82-2.18-1.85-1.45-2.78-3.13-2.78-5.02,0-2.03.91-3.96,2.74-5.8,1.83-1.84,4.33-3.29,7.5-4.36,0-.37-.01-.93-.04-1.68-.03-.75-.04-1.31-.04-1.68,0-.27-.01-.67-.04-1.22-.03-.55-.04-.95-.04-1.22-3.52.11-6.23.16-8.12.16v-5.2c1.89,0,4.57-.05,8.04-.16-.03-1.25-.04-3.16-.04-5.72ZM252.47,98.26c-1.28.59-2.29,1.23-3.02,1.94-.73.71-1.1,1.38-1.1,2.02,0,.53.25,1.01.76,1.42.51.41,1.05.62,1.64.62.75,0,1.23-.17,1.44-.5.21-.33.32-1.14.32-2.42,0-.35,0-.86-.02-1.54-.01-.68-.02-1.19-.02-1.54ZM267.59,83.46l4.2-3.2c2.29,2.75,4.28,5.29,5.96,7.64l-4.32,3c-1.47-2.08-3.41-4.56-5.84-7.44Z"/>
        <path class="cls-1" d="M286.83,76.42h6.28c-.24,3.52-.39,6.19-.44,8l.08.04c2.53-3.95,5.72-5.92,9.56-5.92,3.41,0,6.07,1.15,7.96,3.46s2.84,5.71,2.84,10.22c0,11.71-7.21,17.68-21.64,17.92l-.52-5.8c5.44-.11,9.39-1.13,11.86-3.06,2.47-1.93,3.7-4.95,3.7-9.06,0-5.04-1.61-7.56-4.84-7.56-2.21,0-4.21,1.19-5.98,3.56-1.77,2.37-2.89,5.59-3.34,9.64l-6.12.16c0-7.33.2-14.53.6-21.6Z"/>
        <path class="cls-1" d="M338.27,96.22c-.03-.32-.04-.79-.04-1.42s-.01-1.1-.04-1.42c-3.81.21-8.13.32-12.96.32v-5.12c4.27,0,8.52-.12,12.76-.36-.03-.59-.04-1.47-.04-2.64-4.96.24-9.73.36-14.32.36v-5.12c4.05,0,8.85-.13,14.4-.4.11-1.92.21-3.39.32-4.4h6.32c-.16,1.81-.27,3.16-.32,4.04,3.76-.27,7.12-.55,10.08-.84l.36,5.12c-4,.4-7.51.69-10.52.88,0,.29,0,.73.02,1.3.01.57.02,1.01.02,1.3,2.67-.21,5.51-.49,8.52-.84l.36,5.12c-3.04.32-5.95.6-8.72.84v.16c.05,1.23.11,3.07.16,5.52,2.37,1.25,5.49,3.29,9.36,6.12l-3.56,4.44c-2.08-1.52-4.13-2.95-6.16-4.28-.51,1.87-1.51,3.21-3.02,4.02-1.51.81-3.71,1.22-6.62,1.22s-5.18-.65-6.82-1.96-2.46-3.09-2.46-5.36c0-2.08.82-3.76,2.46-5.04,1.64-1.28,3.91-1.92,6.82-1.92,1.17,0,2.39.12,3.64.36ZM338.35,101.7c-1.17-.43-2.31-.64-3.4-.64-2.08,0-3.12.59-3.12,1.76s1.04,1.84,3.12,1.84c1.31,0,2.19-.19,2.66-.56.47-.37.71-1.17.74-2.4Z"/>
        <path class="cls-1" d="M370.27,105.14c5.52-.29,8.92-1.37,10.2-3.24.27-.45.43-.77.48-.96l-.04-.04c-1.23.83-2.69,1.24-4.4,1.24-2.45,0-4.43-.71-5.94-2.12-1.51-1.41-2.26-3.29-2.26-5.64s.77-4.09,2.32-5.54c1.55-1.45,3.51-2.18,5.88-2.18.88,0,1.96.19,3.24.56l.04-.04c0-.27,0-.63-.02-1.1-.01-.47-.02-.81-.02-1.02-7.31.32-13.25.48-17.84.48v-5.28c4.45,0,10.32-.16,17.6-.48-.05-1.97-.08-3.48-.08-4.52h6.12c0,.88.03,2.28.08,4.2,3.41-.19,6.92-.44,10.52-.76l.36,5.32c-2.48.21-6.04.47-10.68.76.08,2.24.12,4.46.12,6.64,1.04,1.87,1.56,4,1.56,6.4,0,4.11-1.29,7.19-3.88,9.26-2.59,2.07-6.79,3.25-12.6,3.54l-.76-5.48ZM375.39,92.42c-.59.59-.88,1.29-.88,2.12s.29,1.53.88,2.12c.59.59,1.29.88,2.12.88s1.53-.29,2.12-.88c.59-.59.88-1.29.88-2.12s-.29-1.53-.88-2.12c-.59-.59-1.29-.88-2.12-.88s-1.53.29-2.12.88Z"/>
      </g>
    </g>
  </g>
</svg>