<?xml version="1.0" encoding="UTF-8"?>
<svg id="_レイヤー_2" data-name="レイヤー 2" xmlns="http://www.w3.org/2000/svg" xmlns:xlink="http://www.w3.org/1999/xlink" viewBox="0 0 643.37 99.87">
  <defs>
    <style>
      .cls-1 {
        fill: url(#_名称未設定グラデーション_120-5);
      }

      .cls-2 {
        fill: url(#_名称未設定グラデーション_120-6);
      }

      .cls-3 {
        fill: none;
        stroke: #000;
        stroke-miterlimit: 2;
        stroke-width: 10px;
      }

      .cls-4 {
        fill: #fff;
      }

      .cls-5 {
        fill: url(#_名称未設定グラデーション_120-4);
      }

      .cls-6 {
        fill: url(#_名称未設定グラデーション_120-2);
      }

      .cls-7 {
        fill: url(#_名称未設定グラデーション_120-3);
      }

      .cls-8 {
        fill: url(#_名称未設定グラデーション_120);
      }

      .cls-9 {
        fill: url(#_名称未設定グラデーション_120-7);
      }

      .cls-10 {
        fill: url(#_名称未設定グラデーション_120-8);
      }
    </style>
    <linearGradient id="_名称未設定グラデーション_120" data-name="名称未設定グラデーション 120" x1="49.4" y1="99.87" x2="49.4" y2="0" gradientUnits="userSpaceOnUse">
      <stop offset="0" stop-color="#945700"/>
      <stop offset=".19" stop-color="#e9a900"/>
      <stop offset=".29" stop-color="#f5f8b4"/>
      <stop offset=".4" stop-color="#e9a900"/>
      <stop offset="1" stop-color="#fff87f"/>
    </linearGradient>
    <linearGradient id="_名称未設定グラデーション_120-2" data-name="名称未設定グラデーション 120" x1="128.99" x2="128.99" y2="0" xlink:href="#_名称未設定グラデーション_120"/>
    <linearGradient id="_名称未設定グラデーション_120-3" data-name="名称未設定グラデーション 120" x1="211.23" x2="211.23" y2="0" xlink:href="#_名称未設定グラデーション_120"/>
    <linearGradient id="_名称未設定グラデーション_120-4" data-name="名称未設定グラデーション 120" x1="296.82" x2="296.82" y2="0" xlink:href="#_名称未設定グラデーション_120"/>
    <linearGradient id="_名称未設定グラデーション_120-5" data-name="名称未設定グラデーション 120" x1="375.86" x2="375.86" y2="0" xlink:href="#_名称未設定グラデーション_120"/>
    <linearGradient id="_名称未設定グラデーション_120-6" data-name="名称未設定グラデーション 120" x1="457.87" x2="457.87" xlink:href="#_名称未設定グラデーション_120"/>
    <linearGradient id="_名称未設定グラデーション_120-7" data-name="名称未設定グラデーション 120" x1="539.53" x2="539.53" y2="0" xlink:href="#_名称未設定グラデーション_120"/>
    <linearGradient id="_名称未設定グラデーション_120-8" data-name="名称未設定グラデーション 120" x1="621.53" x2="621.53" y2="0" xlink:href="#_名称未設定グラデーション_120"/>
  </defs>
  <g id="_サポート2" data-name="サポート2">
    <g>
      <g>
        <path class="cls-4" d="M32.82,12.9l14.76.09c-.03,4.7-.02,8.17.02,10.41,4.59-.25,9.76-.68,15.51-1.3l.75,12.3c-3.61.36-8.97.79-16.08,1.3,0,.49,0,1.2.03,2.13.02.93.03,1.61.03,2.05s0,1.08.03,1.93c.02.85.03,1.46.03,1.84,2.19-.21,4.76-.3,7.71-.28,6.78.04,12.29,1.93,16.53,5.67,4.24,3.74,6.35,8.46,6.31,14.14-.04,6.34-2.02,11.47-5.95,15.38-3.93,3.91-9.1,5.85-15.49,5.81-3.17-.02-5.9-.45-8.19-1.28l2.12-12.7c1.85.56,3.77.84,5.74.85,2.08.01,3.69-.61,4.85-1.86,1.16-1.25,1.74-3.08,1.75-5.48.03-4.65-3.51-6.99-10.62-7.03-1.09,0-2.62.04-4.59.14,0,.82,0,2.08.02,3.77.02,1.7.02,2.98.02,3.85-.04,7.11-1.25,12.02-3.61,14.74-2.37,2.72-6.39,4.06-12.08,4.03-5.8-.03-10.65-1.62-14.57-4.76-3.92-3.14-5.86-6.79-5.84-10.94.02-4.32,1.92-8.38,5.69-12.19,3.77-3.8,8.94-6.78,15.51-8.93-.05-.77-.09-1.89-.1-3.36-.02-1.48-.03-2.6-.02-3.36,0-.38,0-.96-.03-1.72-.02-.77-.03-1.34-.03-1.72-5.41.13-10.99.18-16.73.15l.07-12.3c5.68.03,11.18-.02,16.48-.15-.04-2.46-.04-6.21-.02-11.23ZM33.36,60.63c-4.39,2.05-6.58,4.17-6.6,6.36,0,.82.36,1.57,1.09,2.26.73.69,1.46,1.03,2.17,1.04,1.48,0,2.39-.29,2.75-.89.36-.6.55-2.21.56-4.83l.02-3.94ZM74.91,22.41c4.12,5.22,8.08,10.63,11.88,16.22l-10.29,6.83c-3.25-4.88-7.13-10.16-11.63-15.81l10.05-7.24Z"/>
        <path class="cls-4" d="M90.64,82.29c.86-7.48,1.56-14.86,2.1-22.13l8.44.46c-.42,7-1.15,14.64-2.18,22.95l-8.36-1.28ZM90.93,32.84l4.5-12.44c.49.61,1.57,1.92,3.26,3.96,1.77-3.87,3.38-7.99,4.83-12.35l9.99,2.93c-2.22,5.45-4.96,11.37-8.22,17.75l1.71,2.22c2.93-4.85,5.63-9.64,8.12-14.39l9.57,3.75c-1.44,2.73-4.12,7.36-8.04,13.89l5.42-1.36c4.96-6.91,8.67-15.12,11.13-24.62l13.27,1.72c-.5,2.13-1.23,4.53-2.17,7.2l23.04.13c-.26,16.67-.55,29.22-.88,37.63-.32,8.42-.98,14.91-1.96,19.46-.98,4.56-2.01,7.23-3.08,8.02-1.07.79-2.86,1.17-5.38,1.16-5.03-.03-11.31-.2-18.86-.52l-.75-12.47c4.92.3,9.21.46,12.87.49.49,0,.86-.32,1.11-.98.25-.66.52-2.35.81-5.08.29-2.73.54-6.87.77-12.42.22-5.55.47-13.18.75-22.91l-13.37-.08c-1.44,3.05-3.04,6.02-4.81,8.91l7.31-2.83c3.4,6.96,6.31,14.47,8.72,22.52l-12.08,3.95c-1.77-5.86-4.19-12.08-7.27-18.66-.44.65-1.21,1.63-2.31,2.94l-3.99-4.21c1.07,4.6,1.87,8.13,2.4,10.59l-7.72,1.59c-.21-.98-.37-1.75-.48-2.3l-3.28.23-.18,31-12.87-.08.18-30.09-11.07.67-.34-11.65,8.61-.44c.05-.11.15-.26.29-.45.14-.19.23-.34.29-.45-4.23-5.27-7.52-9.26-9.85-11.95ZM116.52,44.88c-.11-.38-.24-.89-.4-1.52-.16-.63-.29-1.19-.4-1.68-.11-.49-.21-.96-.32-1.4-.88,1.47-1.9,3.08-3.06,4.82l4.18-.22ZM127.22,80.53l-8.86.28c-.12-7.38-.35-14.22-.7-20.5l8.45-.69c.56,6.89.93,13.86,1.11,20.92Z"/>
        <path class="cls-4" d="M198.5,62.83l-5.25-.03-14.1-.08.17-29.36,24.52.14.02-3.61-29.36-.17.07-11.64,29.36.17.03-5.25,15.25.09-.03,5.25,29.36.17-.07,11.64-29.36-.17-.02,3.61,24.52.14-.17,29.36-19.35-.11c7.3,4.36,16.13,8.16,26.5,11.39l-5.65,12.43c-10.25-4-18.95-8.53-26.08-13.6l-.09,14.68-15.25-.09.09-14.68c-7.19,4.99-15.94,9.42-26.24,13.29l-5.5-12.5c10.4-3.11,19.28-6.8,26.63-11.08ZM193.31,51.97l10.41.06.04-7.63-10.41-.06-.04,7.62ZM229.39,52.18l.04-7.63-10.41-.06-.04,7.62,10.41.06Z"/>
        <path class="cls-4" d="M266.26,57.73c.03-5.46.21-12.08.53-19.84.32-7.82.5-14.87.53-21.15l15.99.09c-.01,2.08-.19,8.91-.53,20.5-.34,11.59-.52,18.42-.53,20.5-.03,4.98.7,8.48,2.19,10.51,1.49,2.03,3.88,3.06,7.16,3.08,4.32.03,8.17-1.59,11.55-4.85,3.38-3.26,6.82-9.12,10.31-17.57l13.91,5.82c-4.16,10.96-9.16,18.88-14.98,23.73-5.82,4.86-12.78,7.26-20.87,7.22-8.91-.05-15.36-2.24-19.35-6.55-3.99-4.31-5.96-11.47-5.9-21.48Z"/>
        <path class="cls-4" d="M373.11,15.72l15.17.09c-.17,1.42-.38,3.91-.62,7.46,7.27-.45,13.89-.98,19.85-1.61l.75,12.3c-6.07.57-13.07,1.1-21,1.6,0,.38,0,.98.03,1.8.02.82.03,1.42.03,1.8,7.44-.61,13.04-1.12,16.82-1.54l.75,12.3c-3.72.42-9.46.93-17.23,1.54.1,2.3.18,5.8.27,10.5,5.29,2.87,11.44,6.93,18.46,12.16l-8.67,10.61c-4.08-3.03-7.81-5.67-11.19-7.94-1.28,3.38-3.53,5.8-6.77,7.26-3.23,1.46-7.78,2.17-13.62,2.13-6.18-.04-10.99-1.46-14.45-4.27-3.46-2.81-5.17-6.62-5.14-11.43.03-4.37,1.78-7.92,5.27-10.63,3.49-2.71,8.32-4.05,14.5-4.02,2.08.01,4.18.19,6.31.53-.05-.44-.08-1.11-.07-2.01,0-.9,0-1.57.01-2.01-9.19.38-17.83.55-25.92.5l.07-12.3c7.93.05,16.4-.12,25.42-.51l.02-3.77c-10.01.43-19.58.62-28.7.57l.07-12.3c9.07.05,18.7-.14,28.87-.57.24-3.71.48-6.47.71-8.28ZM372.71,69.18c-1.91-.67-3.79-1.01-5.65-1.02-3.28-.02-4.92.79-4.93,2.43,0,1.64,1.63,2.47,4.91,2.49,2.19.01,3.65-.21,4.39-.67.74-.46,1.17-1.54,1.29-3.23Z"/>
        <path class="cls-4" d="M458.65,70.25c.66-.76,1.04-1.25,1.16-1.47l-.08-.08c-2.47,1.08-5.2,1.61-8.21,1.59-5.19-.03-9.35-1.49-12.48-4.38-3.13-2.89-4.68-6.79-4.65-11.71.03-4.64,1.66-8.46,4.91-11.45,3.24-2.99,7.38-4.47,12.41-4.44,1.48,0,3.33.21,5.57.61l.08-.08c0-.38,0-.9-.03-1.56-.02-.66-.03-1.15-.03-1.48-13.23.52-24.93.76-35.1.7l.07-12.71c9.84.06,21.38-.18,34.61-.7-.09-3.61-.13-6.45-.11-8.53l14.76.09c0,1.53.03,4.1.12,7.71,9.41-.54,16.46-1.02,21.16-1.43l.75,12.71c-4.7.41-11.89.89-21.58,1.43.14,4.38.2,8.64.17,12.79,1.08,1.76,1.96,3.91,2.63,6.45.67,2.54,1,4.91.98,7.1-.05,8.8-2.82,15.25-8.31,19.35-5.49,4.09-14.66,6.32-27.51,6.69l-1.57-12.72c6.07-.18,10.63-.62,13.7-1.31,3.07-.69,5.26-1.75,6.58-3.16ZM450.6,51.22c-.96.95-1.45,2.11-1.46,3.48,0,1.37.46,2.53,1.42,3.49.95.96,2.11,1.45,3.48,1.46,1.37,0,2.53-.46,3.49-1.41.96-.95,1.45-2.11,1.46-3.48,0-1.37-.46-2.53-1.42-3.49-.95-.96-2.11-1.45-3.48-1.46-1.37,0-2.53.46-3.49,1.42Z"/>
        <path class="cls-4" d="M529.69,22.37l19.68.12-2.7,40.17-14.76-.09-2.22-40.19ZM530.98,82.24l.08-13.12,16.4.1-.08,13.12-16.4-.1Z"/>
        <path class="cls-4" d="M611.69,22.85l19.68.12-2.7,40.17-14.76-.09-2.22-40.19ZM612.98,82.72l.08-13.12,16.4.1-.08,13.12-16.4-.1Z"/>
      </g>
      <g>
        <path class="cls-8" d="M56.93,96.38c-4.53-.03-8.64-.7-12.22-2-.44-.16-.86-.34-1.27-.54-3.19,1.05-6.8,1.58-10.83,1.58h-.28c-8.54-.05-15.94-2.54-22-7.4C1.74,81.13-.03,73.14,0,67.65c.03-5.19,1.64-12.96,9.16-20.56.17-.17.33-.33.5-.5-.69-.45-1.33-.98-1.91-1.57-2.24-2.26-3.48-5.32-3.47-8.51l.07-12.3c.02-3.18,1.3-6.23,3.56-8.46,2.25-2.22,5.28-3.47,8.44-3.47h.07c1.12,0,2.24,0,3.35,0,.35,0,.71,0,1.06,0,.32-6.35,5.57-11.39,11.98-11.39.02,0,14.83.09,14.83.09,5.73.03,10.49,4.07,11.66,9.44.82-.08,1.66-.17,2.51-.26.43-.05.86-.07,1.29-.07,2.18,0,4.32.59,6.18,1.71,1.77-.94,3.7-1.4,5.62-1.4,3.55,0,7.06,1.57,9.42,4.56,4.29,5.42,8.46,11.12,12.39,16.93,1.8,2.65,2.46,5.91,1.84,9.05-.62,3.14-2.47,5.91-5.14,7.68l-4.98,3.3c1.35,3.51,2.02,7.31,2,11.32-.06,9.46-3.34,17.69-9.49,23.81-6.12,6.09-14.34,9.31-23.78,9.31h-.25Z"/>
        <path class="cls-6" d="M155.98,99.51c-5.13-.03-11.62-.21-19.3-.53-4.4-.19-8.19-2.73-10.13-6.42h-.09c-.59,1.2-1.37,2.3-2.34,3.25-2.25,2.22-5.28,3.46-8.44,3.46-.02,0-12.94-.08-12.94-.08-3.68-.02-6.96-1.7-9.15-4.31l-4.79-.73c-6.38-.98-10.85-6.83-10.11-13.24.75-6.46,1.37-12.92,1.87-19.22-.39-1.14-.61-2.33-.65-3.56l-.34-11.65c-.07-2.37.55-4.6,1.69-6.5-2.38-3.21-3.01-7.42-1.64-11.22l4.5-12.44c1.29-3.57,4.18-6.28,7.74-7.38.08-.24.16-.47.24-.71,1.67-5.02,6.34-8.23,11.39-8.23,1.12,0,2.26.16,3.38.49l9.99,2.93c2.15.63,4.07,1.85,5.54,3.48,2-4.08,6.18-6.72,10.77-6.72.51,0,1.03.03,1.55.1l13.27,1.72c3.37.44,6.4,2.28,8.33,5.08.46.67.85,1.37,1.16,2.1l9.9.06c3.2.02,6.27,1.32,8.51,3.61s3.47,5.38,3.42,8.58c-.26,16.66-.56,29.42-.88,37.9-.35,9.2-1.08,16.25-2.22,21.53-1.46,6.77-3.33,11.94-7.7,15.16-3.2,2.35-7.24,3.49-12.36,3.49h-.19Z"/>
        <path class="cls-7" d="M203.45,99.78c-4.74-.03-8.82-2.8-10.74-6.79-3.52,1.63-7.22,3.18-11.11,4.64-1.39.52-2.82.77-4.22.77-4.63,0-9.02-2.69-10.98-7.17l-5.5-12.5c-1.39-3.15-1.35-6.74.09-9.87,1.25-2.71,3.46-4.84,6.18-6,0-.08.14-23.56.14-23.56-.46-.35-.9-.73-1.32-1.15-2.24-2.26-3.48-5.32-3.47-8.51l.07-11.64c.04-6.6,5.4-11.93,12-11.93.02,0,19.51.11,19.51.11,2.17-3.14,5.79-5.19,9.88-5.19.02,0,15.32.09,15.32.09,3.18.02,6.23,1.3,8.46,3.56.53.54,1.01,1.12,1.42,1.74l19.44.11c3.18.02,6.23,1.3,8.46,3.56,2.24,2.26,3.48,5.32,3.47,8.51l-.07,11.64c-.02,3.94-1.95,7.43-4.89,9.6,0,0-.14,23.49-.14,23.56,2.7,1.19,4.89,3.35,6.11,6.07,1.41,3.14,1.4,6.74-.03,9.87l-5.65,12.43c-2,4.4-6.35,7.04-10.93,7.04-1.45,0-2.92-.26-4.35-.82-3.87-1.51-7.56-3.1-11.06-4.77-.58,1.18-1.36,2.26-2.32,3.21-2.25,2.22-5.28,3.46-8.44,3.46-.02,0-15.32-.09-15.32-.09Z"/>
        <path class="cls-5" d="M291.45,97.76c-12.32-.07-21.77-3.57-28.09-10.4-6.2-6.7-9.17-16.41-9.09-29.7.03-5.62.21-12.44.54-20.27.31-7.65.49-14.62.52-20.73.02-3.18,1.3-6.23,3.56-8.46,2.25-2.22,5.28-3.46,8.44-3.46.02,0,16.06.09,16.06.09,6.63.04,11.97,5.44,11.93,12.07,0,1.39-.07,5.05-.54,20.78-.42,14.21-.52,18.83-.52,20.21,0,.18,0,.36,0,.53.18-.15.37-.31.57-.5.98-.95,3.69-4.16,7.55-13.51,1.22-2.95,3.56-5.29,6.51-6.51,1.47-.61,3.02-.91,4.58-.91s3.15.31,4.63.93l13.91,5.82c5.97,2.5,8.88,9.28,6.58,15.33-4.95,13.04-11.01,22.42-18.51,28.69-7.96,6.64-17.49,10-28.33,10h-.3Z"/>
        <path class="cls-1" d="M366.07,98.2c-8.95-.05-16.33-2.39-21.95-6.96-6.31-5.13-9.62-12.33-9.57-20.81.02-3.84.8-7.41,2.3-10.64-1.4-1.97-2.21-4.39-2.2-6.99l.05-7.75c-2.09-2.24-3.25-5.19-3.23-8.26l.07-12.3c.02-3.18,1.3-6.23,3.56-8.46,2.25-2.22,5.28-3.46,8.44-3.46.02,0,2.03,0,3.02,0,4.82,0,9.85-.07,15.03-.21,1.47-5.05,6.12-8.65,11.52-8.65.02,0,15.24.09,15.24.09,3.42.02,6.67,1.5,8.93,4.07.68.78,1.26,1.63,1.71,2.54,2.54-.21,4.97-.44,7.28-.68.42-.04.83-.06,1.24-.06,2.83,0,5.58,1,7.76,2.85,2.5,2.12,4.02,5.16,4.22,8.42l.75,12.3c.23,3.7-1.25,7.12-3.77,9.48l.39,6.49c.33,5.4-2.97,10.22-7.85,12,1.48,1.05,2.99,2.16,4.54,3.31,2.63,1.96,4.34,4.9,4.74,8.16.4,3.25-.55,6.53-2.62,9.06l-8.67,10.61c-2.37,2.89-5.81,4.4-9.3,4.41-2.49,0-5-.77-7.15-2.37-.69-.51-1.37-1.01-2.04-1.51-1.19.81-2.47,1.52-3.83,2.13-4.77,2.15-10.71,3.19-18.15,3.19h-.47Z"/>
        <path class="cls-2" d="M439.93,99.45c-6.04,0-11.16-4.5-11.91-10.53l-1.57-12.72c-.24-1.96,0-3.94.7-5.75-3.17-4.57-4.81-10.12-4.77-16.32.01-1.94.2-3.82.56-5.63-.28,0-.55,0-.83,0-6.63-.04-11.97-5.44-11.93-12.07l.07-12.71c.04-6.6,5.4-11.93,12-11.93.02,0,1.97,0,2.94,0,6.01,0,12.69-.11,19.95-.31,1.36-5.14,6.04-8.92,11.6-8.92.02,0,14.83.09,14.83.09,4.82.03,8.97,2.9,10.85,7.02,3.77-.25,6.88-.49,9.32-.7.35-.03.7-.04,1.04-.04,2.87,0,5.66,1.03,7.84,2.92,2.45,2.12,3.94,5.14,4.13,8.38l.75,12.71c.38,6.48-4.47,12.09-10.94,12.66-2.59.23-5.86.47-9.84.73.63,1.55,1.17,3.2,1.63,4.95.93,3.56,1.4,7,1.38,10.22-.09,15.84-7.2,24.46-13.14,28.89-7.59,5.66-18.83,8.62-34.35,9.06-.11,0-.23,0-.34,0Z"/>
        <path class="cls-9" d="M530.91,94.24c-3.18-.02-6.23-1.3-8.46-3.56s-3.48-5.32-3.46-8.51l.08-13.12c0-1.63.35-3.23.99-4.71-.05-.37-.09-.74-.11-1.12l-2.22-40.19c-.18-3.3,1.01-6.54,3.29-8.94,2.27-2.38,5.41-3.73,8.69-3.73.02,0,19.75.12,19.75.12,3.31.02,6.46,1.41,8.72,3.83,2.25,2.42,3.41,5.67,3.18,8.97l-2.7,40.17c-.02.38-.07.75-.13,1.11.61,1.45.94,3.05.93,4.72l-.08,13.12c-.04,6.6-5.4,11.93-12,11.93-.02,0-16.47-.1-16.47-.1Z"/>
        <path class="cls-10" d="M612.91,94.72c-3.18-.02-6.23-1.3-8.46-3.56s-3.48-5.32-3.46-8.51l.08-13.12c0-1.63.35-3.23.99-4.71-.05-.37-.09-.74-.11-1.12l-2.22-40.19c-.18-3.3,1.01-6.54,3.29-8.94,2.27-2.38,5.41-3.73,8.69-3.73.02,0,19.75.12,19.75.12,3.31.02,6.46,1.41,8.72,3.83,2.25,2.42,3.41,5.67,3.18,8.97l-2.7,40.17c-.02.38-.07.75-.13,1.11.61,1.45.94,3.05.93,4.72l-.08,13.12c-.04,6.6-5.4,11.93-12,11.93-.02,0-16.47-.1-16.47-.1Z"/>
      </g>
      <g>
        <path class="cls-3" d="M32.82,12.9l14.76.09c-.03,4.7-.02,8.17.02,10.41,4.59-.25,9.76-.68,15.51-1.3l.75,12.3c-3.61.36-8.97.79-16.08,1.3,0,.49,0,1.2.03,2.13.02.93.03,1.61.03,2.05s0,1.08.03,1.93c.02.85.03,1.46.03,1.84,2.19-.21,4.76-.3,7.71-.28,6.78.04,12.29,1.93,16.53,5.67,4.24,3.74,6.35,8.46,6.31,14.14-.04,6.34-2.02,11.47-5.95,15.38-3.93,3.91-9.1,5.85-15.49,5.81-3.17-.02-5.9-.45-8.19-1.28l2.12-12.7c1.85.56,3.77.84,5.74.85,2.08.01,3.69-.61,4.85-1.86,1.16-1.25,1.74-3.08,1.75-5.48.03-4.65-3.51-6.99-10.62-7.03-1.09,0-2.62.04-4.59.14,0,.82,0,2.08.02,3.77.02,1.7.02,2.98.02,3.85-.04,7.11-1.25,12.02-3.61,14.74-2.37,2.72-6.39,4.06-12.08,4.03-5.8-.03-10.65-1.62-14.57-4.76-3.92-3.14-5.86-6.79-5.84-10.94.02-4.32,1.92-8.38,5.69-12.19,3.77-3.8,8.94-6.78,15.51-8.93-.05-.77-.09-1.89-.1-3.36-.02-1.48-.03-2.6-.02-3.36,0-.38,0-.96-.03-1.72-.02-.77-.03-1.34-.03-1.72-5.41.13-10.99.18-16.73.15l.07-12.3c5.68.03,11.18-.02,16.48-.15-.04-2.46-.04-6.21-.02-11.23ZM33.36,60.63c-4.39,2.05-6.58,4.17-6.6,6.36,0,.82.36,1.57,1.09,2.26.73.69,1.46,1.03,2.17,1.04,1.48,0,2.39-.29,2.75-.89.36-.6.55-2.21.56-4.83l.02-3.94ZM74.91,22.41c4.12,5.22,8.08,10.63,11.88,16.22l-10.29,6.83c-3.25-4.88-7.13-10.16-11.63-15.81l10.05-7.24Z"/>
        <path class="cls-3" d="M90.64,82.29c.86-7.48,1.56-14.86,2.1-22.13l8.44.46c-.42,7-1.15,14.64-2.18,22.95l-8.36-1.28ZM90.93,32.84l4.5-12.44c.49.61,1.57,1.92,3.26,3.96,1.77-3.87,3.38-7.99,4.83-12.35l9.99,2.93c-2.22,5.45-4.96,11.37-8.22,17.75l1.71,2.22c2.93-4.85,5.63-9.64,8.12-14.39l9.57,3.75c-1.44,2.73-4.12,7.36-8.04,13.89l5.42-1.36c4.96-6.91,8.67-15.12,11.13-24.62l13.27,1.72c-.5,2.13-1.23,4.53-2.17,7.2l23.04.13c-.26,16.67-.55,29.22-.88,37.63-.32,8.42-.98,14.91-1.96,19.46-.98,4.56-2.01,7.23-3.08,8.02-1.07.79-2.86,1.17-5.38,1.16-5.03-.03-11.31-.2-18.86-.52l-.75-12.47c4.92.3,9.21.46,12.87.49.49,0,.86-.32,1.11-.98.25-.66.52-2.35.81-5.08.29-2.73.54-6.87.77-12.42.22-5.55.47-13.18.75-22.91l-13.37-.08c-1.44,3.05-3.04,6.02-4.81,8.91l7.31-2.83c3.4,6.96,6.31,14.47,8.72,22.52l-12.08,3.95c-1.77-5.86-4.19-12.08-7.27-18.66-.44.65-1.21,1.63-2.31,2.94l-3.99-4.21c1.07,4.6,1.87,8.13,2.4,10.59l-7.72,1.59c-.21-.98-.37-1.75-.48-2.3l-3.28.23-.18,31-12.87-.08.18-30.09-11.07.67-.34-11.65,8.61-.44c.05-.11.15-.26.29-.45.14-.19.23-.34.29-.45-4.23-5.27-7.52-9.26-9.85-11.95ZM116.52,44.88c-.11-.38-.24-.89-.4-1.52-.16-.63-.29-1.19-.4-1.68-.11-.49-.21-.96-.32-1.4-.88,1.47-1.9,3.08-3.06,4.82l4.18-.22ZM127.22,80.53l-8.86.28c-.12-7.38-.35-14.22-.7-20.5l8.45-.69c.56,6.89.93,13.86,1.11,20.92Z"/>
        <path class="cls-3" d="M198.5,62.83l-5.25-.03-14.1-.08.17-29.36,24.52.14.02-3.61-29.36-.17.07-11.64,29.36.17.03-5.25,15.25.09-.03,5.25,29.36.17-.07,11.64-29.36-.17-.02,3.61,24.52.14-.17,29.36-19.35-.11c7.3,4.36,16.13,8.16,26.5,11.39l-5.65,12.43c-10.25-4-18.95-8.53-26.08-13.6l-.09,14.68-15.25-.09.09-14.68c-7.19,4.99-15.94,9.42-26.24,13.29l-5.5-12.5c10.4-3.11,19.28-6.8,26.63-11.08ZM193.31,51.97l10.41.06.04-7.63-10.41-.06-.04,7.62ZM229.39,52.18l.04-7.63-10.41-.06-.04,7.62,10.41.06Z"/>
        <path class="cls-3" d="M266.26,57.73c.03-5.46.21-12.08.53-19.84.32-7.82.5-14.87.53-21.15l15.99.09c-.01,2.08-.19,8.91-.53,20.5-.34,11.59-.52,18.42-.53,20.5-.03,4.98.7,8.48,2.19,10.51,1.49,2.03,3.88,3.06,7.16,3.08,4.32.03,8.17-1.59,11.55-4.85,3.38-3.26,6.82-9.12,10.31-17.57l13.91,5.82c-4.16,10.96-9.16,18.88-14.98,23.73-5.82,4.86-12.78,7.26-20.87,7.22-8.91-.05-15.36-2.24-19.35-6.55-3.99-4.31-5.96-11.47-5.9-21.48Z"/>
        <path class="cls-3" d="M373.11,15.72l15.17.09c-.17,1.42-.38,3.91-.62,7.46,7.27-.45,13.89-.98,19.85-1.61l.75,12.3c-6.07.57-13.07,1.1-21,1.6,0,.38,0,.98.03,1.8.02.82.03,1.42.03,1.8,7.44-.61,13.04-1.12,16.82-1.54l.75,12.3c-3.72.42-9.46.93-17.23,1.54.1,2.3.18,5.8.27,10.5,5.29,2.87,11.44,6.93,18.46,12.16l-8.67,10.61c-4.08-3.03-7.81-5.67-11.19-7.94-1.28,3.38-3.53,5.8-6.77,7.26-3.23,1.46-7.78,2.17-13.62,2.13-6.18-.04-10.99-1.46-14.45-4.27-3.46-2.81-5.17-6.62-5.14-11.43.03-4.37,1.78-7.92,5.27-10.63,3.49-2.71,8.32-4.05,14.5-4.02,2.08.01,4.18.19,6.31.53-.05-.44-.08-1.11-.07-2.01,0-.9,0-1.57.01-2.01-9.19.38-17.83.55-25.92.5l.07-12.3c7.93.05,16.4-.12,25.42-.51l.02-3.77c-10.01.43-19.58.62-28.7.57l.07-12.3c9.07.05,18.7-.14,28.87-.57.24-3.71.48-6.47.71-8.28ZM372.71,69.18c-1.91-.67-3.79-1.01-5.65-1.02-3.28-.02-4.92.79-4.93,2.43,0,1.64,1.63,2.47,4.91,2.49,2.19.01,3.65-.21,4.39-.67.74-.46,1.17-1.54,1.29-3.23Z"/>
        <path class="cls-3" d="M458.65,70.25c.66-.76,1.04-1.25,1.16-1.47l-.08-.08c-2.47,1.08-5.2,1.61-8.21,1.59-5.19-.03-9.35-1.49-12.48-4.38-3.13-2.89-4.68-6.79-4.65-11.71.03-4.64,1.66-8.46,4.91-11.45,3.24-2.99,7.38-4.47,12.41-4.44,1.48,0,3.33.21,5.57.61l.08-.08c0-.38,0-.9-.03-1.56-.02-.66-.03-1.15-.03-1.48-13.23.52-24.93.76-35.1.7l.07-12.71c9.84.06,21.38-.18,34.61-.7-.09-3.61-.13-6.45-.11-8.53l14.76.09c0,1.53.03,4.1.12,7.71,9.41-.54,16.46-1.02,21.16-1.43l.75,12.71c-4.7.41-11.89.89-21.58,1.43.14,4.38.2,8.64.17,12.79,1.08,1.76,1.96,3.91,2.63,6.45.67,2.54,1,4.91.98,7.1-.05,8.8-2.82,15.25-8.31,19.35-5.49,4.09-14.66,6.32-27.51,6.69l-1.57-12.72c6.07-.18,10.63-.62,13.7-1.31,3.07-.69,5.26-1.75,6.58-3.16ZM450.6,51.22c-.96.95-1.45,2.11-1.46,3.48,0,1.37.46,2.53,1.42,3.49.95.96,2.11,1.45,3.48,1.46,1.37,0,2.53-.46,3.49-1.41.96-.95,1.45-2.11,1.46-3.48,0-1.37-.46-2.53-1.42-3.49-.95-.96-2.11-1.45-3.48-1.46-1.37,0-2.53.46-3.49,1.42Z"/>
        <path class="cls-3" d="M529.69,22.37l19.68.12-2.7,40.17-14.76-.09-2.22-40.19ZM530.98,82.24l.08-13.12,16.4.1-.08,13.12-16.4-.1Z"/>
        <path class="cls-3" d="M611.69,22.85l19.68.12-2.7,40.17-14.76-.09-2.22-40.19ZM612.98,82.72l.08-13.12,16.4.1-.08,13.12-16.4-.1Z"/>
      </g>
      <g>
        <path class="cls-4" d="M32.82,12.9l14.76.09c-.03,4.7-.02,8.17.02,10.41,4.59-.25,9.76-.68,15.51-1.3l.75,12.3c-3.61.36-8.97.79-16.08,1.3,0,.49,0,1.2.03,2.13.02.93.03,1.61.03,2.05s0,1.08.03,1.93c.02.85.03,1.46.03,1.84,2.19-.21,4.76-.3,7.71-.28,6.78.04,12.29,1.93,16.53,5.67,4.24,3.74,6.35,8.46,6.31,14.14-.04,6.34-2.02,11.47-5.95,15.38-3.93,3.91-9.1,5.85-15.49,5.81-3.17-.02-5.9-.45-8.19-1.28l2.12-12.7c1.85.56,3.77.84,5.74.85,2.08.01,3.69-.61,4.85-1.86,1.16-1.25,1.74-3.08,1.75-5.48.03-4.65-3.51-6.99-10.62-7.03-1.09,0-2.62.04-4.59.14,0,.82,0,2.08.02,3.77.02,1.7.02,2.98.02,3.85-.04,7.11-1.25,12.02-3.61,14.74-2.37,2.72-6.39,4.06-12.08,4.03-5.8-.03-10.65-1.62-14.57-4.76-3.92-3.14-5.86-6.79-5.84-10.94.02-4.32,1.92-8.38,5.69-12.19,3.77-3.8,8.94-6.78,15.51-8.93-.05-.77-.09-1.89-.1-3.36-.02-1.48-.03-2.6-.02-3.36,0-.38,0-.96-.03-1.72-.02-.77-.03-1.34-.03-1.72-5.41.13-10.99.18-16.73.15l.07-12.3c5.68.03,11.18-.02,16.48-.15-.04-2.46-.04-6.21-.02-11.23ZM33.36,60.63c-4.39,2.05-6.58,4.17-6.6,6.36,0,.82.36,1.57,1.09,2.26.73.69,1.46,1.03,2.17,1.04,1.48,0,2.39-.29,2.75-.89.36-.6.55-2.21.56-4.83l.02-3.94ZM74.91,22.41c4.12,5.22,8.08,10.63,11.88,16.22l-10.29,6.83c-3.25-4.88-7.13-10.16-11.63-15.81l10.05-7.24Z"/>
        <path class="cls-4" d="M90.64,82.29c.86-7.48,1.56-14.86,2.1-22.13l8.44.46c-.42,7-1.15,14.64-2.18,22.95l-8.36-1.28ZM90.93,32.84l4.5-12.44c.49.61,1.57,1.92,3.26,3.96,1.77-3.87,3.38-7.99,4.83-12.35l9.99,2.93c-2.22,5.45-4.96,11.37-8.22,17.75l1.71,2.22c2.93-4.85,5.63-9.64,8.12-14.39l9.57,3.75c-1.44,2.73-4.12,7.36-8.04,13.89l5.42-1.36c4.96-6.91,8.67-15.12,11.13-24.62l13.27,1.72c-.5,2.13-1.23,4.53-2.17,7.2l23.04.13c-.26,16.67-.55,29.22-.88,37.63-.32,8.42-.98,14.91-1.96,19.46-.98,4.56-2.01,7.23-3.08,8.02-1.07.79-2.86,1.17-5.38,1.16-5.03-.03-11.31-.2-18.86-.52l-.75-12.47c4.92.3,9.21.46,12.87.49.49,0,.86-.32,1.11-.98.25-.66.52-2.35.81-5.08.29-2.73.54-6.87.77-12.42.22-5.55.47-13.18.75-22.91l-13.37-.08c-1.44,3.05-3.04,6.02-4.81,8.91l7.31-2.83c3.4,6.96,6.31,14.47,8.72,22.52l-12.08,3.95c-1.77-5.86-4.19-12.08-7.27-18.66-.44.65-1.21,1.63-2.31,2.94l-3.99-4.21c1.07,4.6,1.87,8.13,2.4,10.59l-7.72,1.59c-.21-.98-.37-1.75-.48-2.3l-3.28.23-.18,31-12.87-.08.18-30.09-11.07.67-.34-11.65,8.61-.44c.05-.11.15-.26.29-.45.14-.19.23-.34.29-.45-4.23-5.27-7.52-9.26-9.85-11.95ZM116.52,44.88c-.11-.38-.24-.89-.4-1.52-.16-.63-.29-1.19-.4-1.68-.11-.49-.21-.96-.32-1.4-.88,1.47-1.9,3.08-3.06,4.82l4.18-.22ZM127.22,80.53l-8.86.28c-.12-7.38-.35-14.22-.7-20.5l8.45-.69c.56,6.89.93,13.86,1.11,20.92Z"/>
        <path class="cls-4" d="M198.5,62.83l-5.25-.03-14.1-.08.17-29.36,24.52.14.02-3.61-29.36-.17.07-11.64,29.36.17.03-5.25,15.25.09-.03,5.25,29.36.17-.07,11.64-29.36-.17-.02,3.61,24.52.14-.17,29.36-19.35-.11c7.3,4.36,16.13,8.16,26.5,11.39l-5.65,12.43c-10.25-4-18.95-8.53-26.08-13.6l-.09,14.68-15.25-.09.09-14.68c-7.19,4.99-15.94,9.42-26.24,13.29l-5.5-12.5c10.4-3.11,19.28-6.8,26.63-11.08ZM193.31,51.97l10.41.06.04-7.63-10.41-.06-.04,7.62ZM229.39,52.18l.04-7.63-10.41-.06-.04,7.62,10.41.06Z"/>
        <path class="cls-4" d="M266.26,57.73c.03-5.46.21-12.08.53-19.84.32-7.82.5-14.87.53-21.15l15.99.09c-.01,2.08-.19,8.91-.53,20.5-.34,11.59-.52,18.42-.53,20.5-.03,4.98.7,8.48,2.19,10.51,1.49,2.03,3.88,3.06,7.16,3.08,4.32.03,8.17-1.59,11.55-4.85,3.38-3.26,6.82-9.12,10.31-17.57l13.91,5.82c-4.16,10.96-9.16,18.88-14.98,23.73-5.82,4.86-12.78,7.26-20.87,7.22-8.91-.05-15.36-2.24-19.35-6.55-3.99-4.31-5.96-11.47-5.9-21.48Z"/>
        <path class="cls-4" d="M373.11,15.72l15.17.09c-.17,1.42-.38,3.91-.62,7.46,7.27-.45,13.89-.98,19.85-1.61l.75,12.3c-6.07.57-13.07,1.1-21,1.6,0,.38,0,.98.03,1.8.02.82.03,1.42.03,1.8,7.44-.61,13.04-1.12,16.82-1.54l.75,12.3c-3.72.42-9.46.93-17.23,1.54.1,2.3.18,5.8.27,10.5,5.29,2.87,11.44,6.93,18.46,12.16l-8.67,10.61c-4.08-3.03-7.81-5.67-11.19-7.94-1.28,3.38-3.53,5.8-6.77,7.26-3.23,1.46-7.78,2.17-13.62,2.13-6.18-.04-10.99-1.46-14.45-4.27-3.46-2.81-5.17-6.62-5.14-11.43.03-4.37,1.78-7.92,5.27-10.63,3.49-2.71,8.32-4.05,14.5-4.02,2.08.01,4.18.19,6.31.53-.05-.44-.08-1.11-.07-2.01,0-.9,0-1.57.01-2.01-9.19.38-17.83.55-25.92.5l.07-12.3c7.93.05,16.4-.12,25.42-.51l.02-3.77c-10.01.43-19.58.62-28.7.57l.07-12.3c9.07.05,18.7-.14,28.87-.57.24-3.71.48-6.47.71-8.28ZM372.71,69.18c-1.91-.67-3.79-1.01-5.65-1.02-3.28-.02-4.92.79-4.93,2.43,0,1.64,1.63,2.47,4.91,2.49,2.19.01,3.65-.21,4.39-.67.74-.46,1.17-1.54,1.29-3.23Z"/>
        <path class="cls-4" d="M458.65,70.25c.66-.76,1.04-1.25,1.16-1.47l-.08-.08c-2.47,1.08-5.2,1.61-8.21,1.59-5.19-.03-9.35-1.49-12.48-4.38-3.13-2.89-4.68-6.79-4.65-11.71.03-4.64,1.66-8.46,4.91-11.45,3.24-2.99,7.38-4.47,12.41-4.44,1.48,0,3.33.21,5.57.61l.08-.08c0-.38,0-.9-.03-1.56-.02-.66-.03-1.15-.03-1.48-13.23.52-24.93.76-35.1.7l.07-12.71c9.84.06,21.38-.18,34.61-.7-.09-3.61-.13-6.45-.11-8.53l14.76.09c0,1.53.03,4.1.12,7.71,9.41-.54,16.46-1.02,21.16-1.43l.75,12.71c-4.7.41-11.89.89-21.58,1.43.14,4.38.2,8.64.17,12.79,1.08,1.76,1.96,3.91,2.63,6.45.67,2.54,1,4.91.98,7.1-.05,8.8-2.82,15.25-8.31,19.35-5.49,4.09-14.66,6.32-27.51,6.69l-1.57-12.72c6.07-.18,10.63-.62,13.7-1.31,3.07-.69,5.26-1.75,6.58-3.16ZM450.6,51.22c-.96.95-1.45,2.11-1.46,3.48,0,1.37.46,2.53,1.42,3.49.95.96,2.11,1.45,3.48,1.46,1.37,0,2.53-.46,3.49-1.41.96-.95,1.45-2.11,1.46-3.48,0-1.37-.46-2.53-1.42-3.49-.95-.96-2.11-1.45-3.48-1.46-1.37,0-2.53.46-3.49,1.42Z"/>
        <path class="cls-4" d="M529.69,22.37l19.68.12-2.7,40.17-14.76-.09-2.22-40.19ZM530.98,82.24l.08-13.12,16.4.1-.08,13.12-16.4-.1Z"/>
        <path class="cls-4" d="M611.69,22.85l19.68.12-2.7,40.17-14.76-.09-2.22-40.19ZM612.98,82.72l.08-13.12,16.4.1-.08,13.12-16.4-.1Z"/>
      </g>
    </g>
  </g>
</svg>