<?xml version="1.0" encoding="UTF-8"?>
<svg id="_レイヤー_2" data-name="レイヤー 2" xmlns="http://www.w3.org/2000/svg" xmlns:xlink="http://www.w3.org/1999/xlink" viewBox="0 0 643.7 70">
  <defs>
    <style>
      .cls-1 {
        fill: url(#_名称未設定グラデーション_120-5);
      }

      .cls-2 {
        fill: url(#_名称未設定グラデーション_120-6);
      }

      .cls-3 {
        fill: url(#_名称未設定グラデーション_120-12);
      }

      .cls-4 {
        fill: #fff;
      }

      .cls-5 {
        fill: url(#_名称未設定グラデーション_120-4);
      }

      .cls-6 {
        fill: url(#_名称未設定グラデーション_120-2);
      }

      .cls-7 {
        fill: url(#_名称未設定グラデーション_120-3);
      }

      .cls-8 {
        fill: url(#_名称未設定グラデーション_120-10);
      }

      .cls-9 {
        fill: url(#_名称未設定グラデーション_120);
      }

      .cls-10 {
        fill: url(#_名称未設定グラデーション_120-11);
      }

      .cls-11 {
        fill: url(#_名称未設定グラデーション_120-9);
      }

      .cls-12 {
        fill: none;
        stroke: #000;
        stroke-width: 6px;
      }

      .cls-13 {
        fill: url(#_名称未設定グラデーション_120-7);
      }

      .cls-14 {
        fill: url(#_名称未設定グラデーション_120-8);
      }
    </style>
    <linearGradient id="_名称未設定グラデーション_120" data-name="名称未設定グラデーション 120" x1="28.74" y1="70" x2="28.74" y2="0" gradientUnits="userSpaceOnUse">
      <stop offset="0" stop-color="#945700"/>
      <stop offset=".19" stop-color="#e9a900"/>
      <stop offset=".29" stop-color="#f5f8b4"/>
      <stop offset=".4" stop-color="#e9a900"/>
      <stop offset="1" stop-color="#fff87f"/>
    </linearGradient>
    <linearGradient id="_名称未設定グラデーション_120-2" data-name="名称未設定グラデーション 120" x1="83.76" x2="83.76" xlink:href="#_名称未設定グラデーション_120"/>
    <linearGradient id="_名称未設定グラデーション_120-3" data-name="名称未設定グラデーション 120" x1="142.45" x2="142.45" xlink:href="#_名称未設定グラデーション_120"/>
    <linearGradient id="_名称未設定グラデーション_120-4" data-name="名称未設定グラデーション 120" x1="195.47" x2="195.47" xlink:href="#_名称未設定グラデーション_120"/>
    <linearGradient id="_名称未設定グラデーション_120-5" data-name="名称未設定グラデーション 120" x1="248.61" x2="248.61" xlink:href="#_名称未設定グラデーション_120"/>
    <linearGradient id="_名称未設定グラデーション_120-6" data-name="名称未設定グラデーション 120" x1="304.45" x2="304.45" xlink:href="#_名称未設定グラデーション_120"/>
    <linearGradient id="_名称未設定グラデーション_120-7" data-name="名称未設定グラデーション 120" x1="356.58" x2="356.58" xlink:href="#_名称未設定グラデーション_120"/>
    <linearGradient id="_名称未設定グラデーション_120-8" data-name="名称未設定グラデーション 120" x1="410.41" x2="410.41" xlink:href="#_名称未設定グラデーション_120"/>
    <linearGradient id="_名称未設定グラデーション_120-9" data-name="名称未設定グラデーション 120" x1="461.76" x2="461.76" xlink:href="#_名称未設定グラデーション_120"/>
    <linearGradient id="_名称未設定グラデーション_120-10" data-name="名称未設定グラデーション 120" x1="518.65" x2="518.65" xlink:href="#_名称未設定グラデーション_120"/>
    <linearGradient id="_名称未設定グラデーション_120-11" data-name="名称未設定グラデーション 120" x1="572.58" x2="572.58" xlink:href="#_名称未設定グラデーション_120"/>
    <linearGradient id="_名称未設定グラデーション_120-12" data-name="名称未設定グラデーション 120" x1="626.58" x2="626.58" xlink:href="#_名称未設定グラデーション_120"/>
  </defs>
  <g id="_レイヤー_1-2" data-name="レイヤー 1">
    <g>
      <g>
        <path class="cls-4" d="M36.21,16.6c2.46-.7,4.91-.58,7.36.37s4.33,2.51,5.67,4.69c.25.35.3.76.16,1.21-.11.39-.35.69-.74.9l-2.11,1.37-5.01,10.12c2.11,1.62,3.66,3.74,4.64,6.38.49,1.37.37,2.71-.37,4.01-.77,1.23-1.88,1.97-3.32,2.21-1.86.21-3.39-.44-4.59-1.95l-1.16-1.63c-7.59,8.96-17.17,14.61-28.74,16.93,10.09-5.98,18.12-14.08,24.1-24.31-3.66-3.66-7.65-6.73-11.97-9.23,4.99.49,9.86,1.65,14.61,3.48,1.9-3.51,3.13-7.29,3.69-11.34.18-.7-.05-1.3-.69-1.79l-1.53-1.42Z"/>
        <path class="cls-4" d="M94.38,15.6c-.11-.18-.12-.35-.05-.53.04-.21.18-.33.42-.37,1.65-.42,3.29-.32,4.9.32,3.06,1.34,5.33,3.59,6.8,6.75.18.42.16.83-.05,1.21-.14.35-.46.58-.95.69l-1.95.53-9.7,7.8c.91.21,1.74.63,2.48,1.27.21.18.37.4.47.69,0,.35-.11.62-.32.79l-.95,1.53c0,7.8.23,15.35.69,22.62-.04.81-.39,1.51-1.05,2.11-.7.56-1.48.79-2.32.69-1.27-.11-2.41-.51-3.43-1.21-1.02-.7-1.83-1.62-2.43-2.74-.32-.81-.4-1.6-.26-2.37,1.09-6.29,1.3-12.67.63-19.14-8.23,4.78-17.02,7.82-26.37,9.12,14.06-5.45,25.47-14.36,34.22-26.74.56-.84.51-1.62-.16-2.32l-.63-.69Z"/>
        <path class="cls-4" d="M119.27,17.6c4.75-.7,9.28-.02,13.61,2.06,2.43,1.37,4.17,3.34,5.22,5.91.35,1.05.32,2.13-.08,3.22-.4,1.09-1.12,1.9-2.14,2.43-1.13.74-2.37.96-3.74.66-1.37-.3-2.43-.99-3.16-2.08l-2.43-4.64c-1.79-3.13-4.22-5.64-7.28-7.54ZM120.33,48.77l1,.05c1.62.42,3.22.47,4.8.16,15.19-6.5,28.35-15.87,39.5-28.11-7.59,15.36-18.84,27.35-33.75,35.96-.67.49-1.16,1.12-1.48,1.9-.25.46-.62.79-1.11,1-.53.11-1.02.05-1.48-.16-4.08-2.46-6.57-6.06-7.49-10.81Z"/>
        <path class="cls-4" d="M169.21,20.76c1.76.49,3.5.69,5.22.58l26.26-3.43c.7-.07,1.25-.37,1.63-.9l1.48-1.32c.35-.28.76-.41,1.24-.4.47.02.87.18,1.19.5l5.64,5.64c.21.28.29.62.24,1-.05.39-.24.69-.55.9l-.74.79c-1.79,7.03-4.85,13.48-9.18,19.35-3.66,5.1-8.21,9.1-13.66,12-5.45,2.9-11.32,4.44-17.61,4.61,8.44-2.85,15.4-7.8,20.88-14.87,5.38-6.4,8.46-13.82,9.23-22.25-7.31,1.02-14.48,2.71-21.52,5.06-.7.21-1.35.6-1.95,1.16-.88.84-1.76.86-2.64.05-2.71-2.25-4.43-5.08-5.17-8.49ZM208.92,14.28c0-1.72.64-3.21,1.92-4.46,1.28-1.25,2.79-1.85,4.51-1.82,1.72-.03,3.21.58,4.46,1.85,1.25,1.27,1.89,2.76,1.92,4.48,0,1.76-.64,3.27-1.92,4.54-1.28,1.27-2.8,1.9-4.56,1.9s-3.26-.64-4.51-1.92c-1.25-1.28-1.85-2.8-1.82-4.56ZM211.82,14.33c0,.95.36,1.78,1.08,2.48.72.7,1.56,1.05,2.5,1.05s1.78-.36,2.5-1.08,1.06-1.56,1.03-2.5c0-.98-.36-1.83-1.08-2.53-.72-.7-1.57-1.05-2.56-1.05-.92,0-1.73.36-2.45,1.08s-1.06,1.57-1.03,2.56Z"/>
        <path class="cls-4" d="M225.9,33.05c3.06.63,6.19.7,9.39.21,7.84-1.97,15.73-3.3,23.68-4.01.98-.03,1.93-.39,2.85-1.05l.95-.79c.84-.67,1.71-.74,2.58-.21,2.11,1.48,4.01,3.27,5.7,5.38.21.25.3.54.26.87-.04.33-.18.62-.42.87l-1.32.84c-1.44,4.15-3.53,7.88-6.28,11.21s-6.03,6.09-9.86,8.31c-6.33,3.87-13.24,6.22-20.72,7.07,6.36-2.32,11.87-5.86,16.53-10.63,4.66-4.76,8.06-10.36,10.2-16.8-8.58.81-16.7,2.9-24.36,6.28-.92.53-1.81.49-2.69-.11-2.74-1.97-4.9-4.45-6.49-7.44ZM230.49,20.39c3.38.32,6.77.23,10.18-.26,5.48-.88,11.16-2.25,17.03-4.11.88-.18,1.63-.12,2.27.16,1.69.77,3.23,1.67,4.64,2.69.7.53.88,1.21.53,2.06-.28.77-.86,1.16-1.74,1.16-7.88.39-15.52,1.74-22.94,4.06-.77.14-1.58.05-2.43-.26-2.95-1.34-5.47-3.16-7.54-5.48Z"/>
        <path class="cls-4" d="M281.27,17.6c4.75-.7,9.28-.02,13.61,2.06,2.43,1.37,4.17,3.34,5.22,5.91.35,1.05.32,2.13-.08,3.22-.4,1.09-1.12,1.9-2.14,2.43-1.13.74-2.37.96-3.74.66-1.37-.3-2.43-.99-3.16-2.08l-2.43-4.64c-1.79-3.13-4.22-5.64-7.28-7.54ZM282.33,48.77l1,.05c1.62.42,3.22.47,4.8.16,15.19-6.5,28.35-15.87,39.5-28.11-7.59,15.36-18.84,27.35-33.75,35.96-.67.49-1.16,1.12-1.48,1.9-.25.46-.62.79-1.11,1-.53.11-1.02.05-1.48-.16-4.08-2.46-6.57-6.06-7.49-10.81Z"/>
        <path class="cls-4" d="M363.75,13.7l1.58,1.42c-2.74,2.04-4.76,4.59-6.06,7.65-1.55,3.66-2.32,8.51-2.32,14.55,0,5.48.81,9.95,2.43,13.39,1.34,3.27,3.62,5.96,6.86,8.07l-1.16,1.85c-5.41-1.97-9.72-4.96-12.92-8.96-3.48-4.25-5.22-9.04-5.22-14.34s1.63-10.34,4.9-14.66c2.85-3.87,6.82-6.86,11.92-8.96Z"/>
        <path class="cls-4" d="M404.67,15.7c2.14-1.58,4.55-2.32,7.22-2.21,2.39,0,4.46.77,6.22,2.32.49.46.76.99.79,1.61.03.62-.16,1.15-.58,1.61l-1.53,1.74-.74,6.91,10.44-1.63c.98-.32,1.95-.32,2.9,0,2.74.98,4.54,2.83,5.38,5.54.11.63.02,1.16-.26,1.58-.39.49-.84.76-1.37.79l-4.22.16c-4.15-.56-8.49-.61-13.03-.16l-.58,7.28c-.49,4.04-1.97,7.72-4.43,11.02-5.34,5.2-11.67,8.46-18.98,9.76,5.41-3.27,9.72-7.61,12.92-13.03,2.04-4.43,2.92-9.12,2.64-14.08-4.04.35-7.8,1.71-11.29,4.06-.74.42-1.48.44-2.21.05-3.69-1.55-6.35-4.18-7.96-7.91,2.74.63,5.57.72,8.49.26l12.97-2.06c.14-3.23-.04-6.66-.53-10.28-.28-1.19-.98-1.95-2.11-2.27-.21-.03-.35-.18-.42-.42,0-.32.09-.53.26-.63Z"/>
        <path class="cls-4" d="M472.38,15.6c-.11-.18-.12-.35-.05-.53.03-.21.18-.33.42-.37,1.65-.42,3.29-.32,4.9.32,3.06,1.34,5.33,3.59,6.8,6.75.18.42.16.83-.05,1.21-.14.35-.46.58-.95.69l-1.95.53-9.7,7.8c.91.21,1.74.63,2.48,1.27.21.18.37.4.47.69,0,.35-.11.62-.32.79l-.95,1.53c0,7.8.23,15.35.69,22.62-.04.81-.39,1.51-1.05,2.11-.7.56-1.48.79-2.32.69-1.27-.11-2.41-.51-3.43-1.21-1.02-.7-1.83-1.62-2.43-2.74-.32-.81-.4-1.6-.26-2.37,1.09-6.29,1.3-12.67.63-19.14-8.23,4.78-17.02,7.82-26.37,9.12,14.06-5.45,25.47-14.36,34.22-26.74.56-.84.51-1.62-.16-2.32l-.63-.69Z"/>
        <path class="cls-4" d="M510.77,13.59c2.57-1.23,5.19-1.34,7.86-.32,1.86.7,3.41,1.9,4.64,3.59.25.56.14,1.02-.32,1.37l-.47.47-1.79,3.74c4.54.07,8.77-1.04,12.71-3.32.49-.28,1-.28,1.53,0,2.35,1.48,4.43,3.3,6.22,5.48.18.25.26.49.26.74s-.12.46-.37.63l-1,.58c-1.97,5.27-4.59,10.09-7.86,14.45,1.3.98,2.35,2.23,3.16,3.74,1.05,1.76,1.11,3.55.16,5.38-.92,1.65-2.3,2.48-4.17,2.48-1.79-.11-3.08-.95-3.85-2.53l-1-1.79c-9,6.89-19.2,11.2-30.59,12.92,10.02-4.54,18.83-10.92,26.42-19.14-2.18-3.73-5.33-6.29-9.44-7.7-4.43,4.43-9.56,7.73-15.4,9.91,7.45-7.56,12.53-16.51,15.24-26.84.21-.81.02-1.53-.58-2.16l-1.37-1.69ZM518.05,27.09c-1.2,2.14-2.58,4.22-4.17,6.22,4.11.63,8.09,1.76,11.92,3.38,1.9-3.48,3.29-7.26,4.17-11.34-2.99.77-5.78,1.72-8.38,2.85-.46.18-.9.16-1.32-.05l-2.21-1.05Z"/>
        <path class="cls-4" d="M547.05,33c5.13.77,10.3.95,15.5.53l11.71-.63,12.23-.32,2.32-.53c.7-.28,1.48-.21,2.32.21,2.25,1.41,4.36,2.85,6.33,4.32.42.42.63.93.63,1.53s-.21,1.11-.63,1.53c-.84.77-1.83,1.05-2.95.84-11.39-2.53-22.75-2.43-34.07.32-.84.28-1.58.67-2.21,1.16-.56.49-1.27.6-2.11.32-4.08-1.97-7.1-5.06-9.07-9.28Z"/>
        <path class="cls-4" d="M617.45,15.6l1.11-1.9c4.96,1.65,9,4.55,12.13,8.7,3.34,4.32,5.01,9.16,5.01,14.5s-1.39,10.07-4.17,14.4c-3.06,4.22-7.01,7.33-11.87,9.33l-1.27-1.85c2.57-1.93,4.41-4.69,5.54-8.28,1.16-3.34,1.74-7.88,1.74-13.61s-.81-10.6-2.43-14.29c-1.44-3.27-3.38-5.61-5.8-7.01Z"/>
      </g>
      <g>
        <path class="cls-9" d="M8,69.21c-3.26,0-6.26-2-7.46-5.14-1.4-3.64.04-7.76,3.39-9.75,7-4.14,12.93-9.52,17.7-16.02-1.76-1.37-3.6-2.61-5.5-3.7-3.26-1.88-4.77-5.79-3.62-9.38,1.07-3.33,4.17-5.55,7.61-5.55.26,0,.53.01.79.04,2.94.29,5.87.79,8.76,1.49-1.31-1.86-1.78-4.21-1.24-6.47.67-2.81,2.81-5.03,5.58-5.82,1.76-.5,3.55-.76,5.33-.76,2.4,0,4.79.46,7.12,1.36,4.05,1.57,7.25,4.21,9.51,7.83,1.49,2.29,1.89,5.1,1.1,7.76-.66,2.3-2.15,4.23-4.22,5.47l-.11.07-1.61,3.26c1.02,1.5,1.87,3.15,2.54,4.94.01.03.02.06.04.09,1.28,3.56.94,7.34-.94,10.66-.06.1-.12.2-.18.3-1.98,3.15-5.09,5.22-8.76,5.85-.15.02-.29.05-.44.06-.52.06-1.05.09-1.57.09-1.55,0-3.04-.27-4.43-.78-7.79,7.11-17.11,11.78-27.81,13.93-.53.11-1.06.16-1.58.16Z"/>
        <path class="cls-6" d="M93.19,69.71c-.4,0-.8-.02-1.2-.06-2.61-.24-5.02-1.11-7.16-2.59-2.08-1.44-3.75-3.31-4.95-5.58-.14-.27-.27-.55-.38-.84-.85-2.18-1.09-4.5-.69-6.72.29-1.69.51-3.4.66-5.13-5.61,2.14-11.43,3.63-17.42,4.46-.37.05-.74.08-1.11.08-3.59,0-6.81-2.42-7.74-5.99-1.02-3.93,1.07-8,4.85-9.47,11.53-4.47,20.85-11.34,28.39-20.95-.27-1.35-.2-2.74.19-4.08.84-3,3.28-5.3,6.38-5.96,1.23-.29,2.47-.44,3.71-.44,1.98,0,3.95.38,5.85,1.12.1.04.19.08.29.12,4.81,2.1,8.56,5.8,10.85,10.7.05.1.09.2.14.31,1.05,2.51.97,5.3-.21,7.71-1.17,2.53-3.41,4.33-6.23,5.02l-.2.05-2.47,1.99c0,.16.01.32.01.48,0,1.68-.44,3.28-1.26,4.66.04,6.79.26,13.43.66,19.78.02.28.02.57,0,.85-.13,2.95-1.45,5.69-3.71,7.72-.11.1-.23.2-.35.29-2.01,1.61-4.41,2.46-6.92,2.46Z"/>
        <path class="cls-7" d="M128.77,67.79c-1.5,0-2.96-.32-4.32-.95-.27-.12-.52-.26-.77-.41-6-3.62-9.87-9.2-11.21-16.15-.47-2.42.21-4.91,1.82-6.77,1.52-1.75,3.73-2.75,6.03-2.75.14,0,.28,0,.42.01l1,.05c.54.03,1.08.11,1.6.25.23.06.45.09.65.1,1.5-.66,2.99-1.36,4.45-2.08-2.5-.95-4.59-2.59-6.1-4.83-.17-.25-.33-.51-.47-.78l-2.35-4.49c-1.12-1.92-2.59-3.43-4.49-4.6-2.85-1.77-4.3-5.13-3.62-8.42.68-3.29,3.34-5.8,6.66-6.29,1.58-.23,3.18-.35,4.74-.35,4.66,0,9.2,1.05,13.5,3.11.16.08.32.16.48.25,4.01,2.27,6.93,5.58,8.68,9.83.07.17.13.34.19.52.53,1.58.73,3.22.62,4.85,4.78-3.72,9.25-7.86,13.4-12.41,1.57-1.72,3.73-2.61,5.92-2.61,1.56,0,3.13.46,4.51,1.39,3.29,2.25,4.43,6.58,2.66,10.15-8.05,16.28-20.03,29.26-35.63,38.59-1.11,1.83-2.73,3.23-4.73,4.09-.51.22-1.04.38-1.58.49-.69.14-1.39.21-2.08.21Z"/>
        <path class="cls-5" d="M170.37,68.1c-3.86,0-7.19-2.77-7.87-6.59-.7-3.9,1.56-7.72,5.32-8.99,6.98-2.36,12.58-6.34,17.12-12.2.06-.08.13-.16.2-.24,1.81-2.15,3.28-4.42,4.43-6.82-2.54.64-5.05,1.38-7.54,2.19-1.8,1.53-4.05,2.39-6.36,2.39-1.68,0-4.15-.45-6.53-2.55-4.03-3.39-6.64-7.71-7.75-12.84-.59-2.74.29-5.59,2.33-7.52,1.5-1.42,3.47-2.18,5.48-2.18.72,0,1.45.1,2.16.3.75.21,1.45.31,2.14.31.07,0,.14,0,.2,0l24.23-3.16.53-.47c.1-.09.21-.18.32-.27,1.13-.91,2.42-1.54,3.79-1.88.69-1.26,1.58-2.44,2.68-3.5,2.75-2.67,6.19-4.08,9.95-4.08h.27c3.82,0,7.29,1.46,10.02,4.23,2.69,2.73,4.15,6.16,4.23,9.94,0,.05,0,.11,0,.16,0,3.91-1.49,7.45-4.31,10.23-2.14,2.11-4.7,3.45-7.52,3.97-2.1,7.09-5.4,13.71-9.82,19.71-4.31,6-9.82,10.85-16.34,14.31-6.52,3.47-13.64,5.34-21.15,5.55-.08,0-.15,0-.23,0Z"/>
        <path class="cls-1" d="M232.7,69.74c-3.67,0-6.92-2.52-7.78-6.17-.93-3.94,1.24-7.96,5.05-9.35,5.03-1.83,9.3-4.51,13.02-8.17-1.49.53-2.97,1.11-4.42,1.74-1.5.76-3.14,1.17-4.76,1.17-2.08,0-4.13-.65-5.92-1.87-.05-.04-.11-.07-.16-.11-3.74-2.69-6.73-6.12-8.89-10.19-1.45-2.74-1.19-6.07.67-8.55,1.16-1.55,2.81-2.59,4.63-3-1.85-2.42-2.17-5.71-.78-8.46,1.37-2.71,4.14-4.4,7.14-4.4.25,0,.5.01.75.04,1.07.1,2.16.15,3.23.15,1.65,0,3.33-.12,5-.36,5.05-.81,10.37-2.1,15.82-3.83.28-.09.56-.16.85-.22.85-.17,1.7-.26,2.53-.26,1.61,0,3.14.32,4.56.95,2.24,1.03,4.26,2.2,6.09,3.52.03.03.07.05.1.08,3.31,2.48,4.64,6.6,3.48,10.5,1.56,1.37,3.01,2.89,4.35,4.55,1.56,1.9,2.28,4.28,2.03,6.75-.23,2.19-1.17,4.16-2.72,5.71-.13.13-.26.25-.39.37-1.68,4.04-3.93,7.77-6.69,11.12-3.32,4.02-7.33,7.41-11.94,10.09-7.28,4.43-15.33,7.17-23.92,8.14-.3.03-.6.05-.9.05Z"/>
        <path class="cls-2" d="M290.77,67.79c-1.5,0-2.96-.32-4.32-.95-.27-.12-.52-.26-.77-.41-6-3.62-9.87-9.2-11.21-16.15-.47-2.42.21-4.91,1.82-6.77,1.52-1.75,3.73-2.75,6.03-2.75.14,0,.28,0,.42.01l1,.05c.54.03,1.08.11,1.6.25.23.06.45.09.65.1,1.5-.66,2.99-1.36,4.45-2.08-2.5-.95-4.59-2.59-6.1-4.83-.17-.25-.33-.51-.47-.78l-2.35-4.49c-1.12-1.92-2.59-3.43-4.49-4.6-2.85-1.77-4.3-5.13-3.62-8.42.68-3.29,3.34-5.8,6.66-6.29,1.58-.23,3.18-.35,4.74-.35,4.66,0,9.2,1.05,13.5,3.11.16.08.32.16.48.25,4.01,2.27,6.93,5.58,8.68,9.83.07.17.13.34.19.52.53,1.58.73,3.22.62,4.85,4.78-3.72,9.25-7.86,13.4-12.41,1.57-1.72,3.73-2.61,5.92-2.61,1.56,0,3.13.46,4.51,1.39,3.29,2.25,4.43,6.58,2.66,10.15-8.05,16.28-20.03,29.26-35.63,38.59-1.11,1.83-2.73,3.23-4.73,4.09-.51.22-1.04.38-1.58.49-.69.14-1.39.21-2.08.21Z"/>
        <path class="cls-13" d="M365.06,68.63c-.91,0-1.84-.16-2.73-.48-6.79-2.47-12.32-6.34-16.44-11.49-4.6-5.62-6.97-12.15-6.97-19.33s2.18-13.73,6.49-19.44c3.71-5.02,8.85-8.91,15.27-11.57.99-.41,2.03-.61,3.06-.61,1.94,0,3.86.71,5.35,2.05l1.58,1.42c1.78,1.6,2.75,3.92,2.64,6.32-.11,2.4-1.29,4.62-3.22,6.05-1.6,1.19-2.73,2.61-3.48,4.36-.77,1.81-1.68,5.27-1.68,11.43,0,4.21.58,7.67,1.67,10,.06.12.11.25.16.37.71,1.75,1.96,3.18,3.82,4.39,3.66,2.38,4.73,7.26,2.4,10.96l-1.16,1.85c-1.5,2.38-4.09,3.74-6.77,3.74Z"/>
        <path class="cls-14" d="M391.9,70c-3.28,0-6.29-2.02-7.48-5.18-1.36-3.61.05-7.67,3.35-9.66,3.51-2.12,6.37-4.74,8.69-7.97-.48.07-.96.1-1.43.1-1.52,0-3-.34-4.4-1.01-5.44-2.35-9.57-6.5-11.96-12-1.2-2.77-.74-5.98,1.19-8.3,1.54-1.85,3.8-2.88,6.15-2.88.6,0,1.2.07,1.8.21,1,.23,2.03.35,3.07.35.77,0,1.58-.06,2.39-.19l5.9-.94c-1.14-1.05-1.99-2.41-2.44-3.99-.2-.71-.31-1.45-.31-2.2,0-2.94,1.36-5.58,3.67-7.18,3.37-2.44,7.18-3.68,11.32-3.68.22,0,.44,0,.66.01,4.26.04,8.18,1.53,11.35,4.31.05.05.11.1.16.15,2,1.85,3.18,4.35,3.33,7.01.02.3.02.59.01.89.35-.03.71-.04,1.06-.04,1.34,0,2.68.22,3.97.65.06.02.12.04.17.06,5.07,1.82,8.73,5.62,10.31,10.69.11.35.19.7.25,1.07.44,2.62-.09,5.23-1.5,7.33-.12.17-.24.34-.37.51-1.8,2.29-4.33,3.65-7.14,3.83-.07,0-4.44.17-4.44.17-.1,0-.2,0-.3,0-.36,0-.72-.02-1.07-.07-1.47-.2-2.99-.32-4.54-.37,0,0-.04.42-.05.53-.66,5.42-2.66,10.41-5.95,14.83-.25.34-.53.66-.84.95-6.49,6.32-14.28,10.32-23.16,11.9-.47.08-.94.12-1.41.12Z"/>
        <path class="cls-11" d="M471.19,69.71c-.4,0-.8-.02-1.2-.06-2.61-.24-5.02-1.11-7.16-2.59-2.08-1.44-3.75-3.31-4.95-5.58-.14-.27-.27-.55-.38-.84-.85-2.18-1.09-4.5-.69-6.72.29-1.69.51-3.4.66-5.13-5.61,2.14-11.43,3.63-17.42,4.46-.37.05-.74.08-1.11.08-3.59,0-6.81-2.42-7.74-5.99-1.02-3.93,1.07-8,4.85-9.47,11.53-4.47,20.85-11.34,28.39-20.95-.27-1.35-.21-2.74.19-4.08.84-3.01,3.28-5.3,6.38-5.96,1.22-.29,2.47-.44,3.71-.44,1.98,0,3.95.38,5.85,1.12.1.04.19.08.29.12,4.81,2.1,8.56,5.8,10.85,10.7.05.1.09.2.14.31,1.05,2.51.97,5.3-.21,7.71-1.17,2.53-3.41,4.33-6.23,5.02l-.2.05-2.47,1.99c0,.16.01.32.01.48,0,1.68-.44,3.28-1.26,4.66.04,6.79.26,13.43.66,19.78.02.28.02.57,0,.85-.13,2.95-1.44,5.69-3.7,7.72-.12.1-.23.2-.36.3-2.01,1.61-4.41,2.46-6.91,2.46Z"/>
        <path class="cls-8" d="M495.89,69.21c-3.49,0-6.65-2.29-7.67-5.73-1.13-3.83.73-7.91,4.37-9.56,1.21-.55,2.41-1.13,3.59-1.74-2.17-.36-4.16-1.6-5.42-3.54-2.04-3.15-1.62-7.29,1.02-9.97,5.85-5.93,9.92-12.66,12.41-20.52-1.27-1.83-1.72-4.12-1.23-6.31.54-2.39,2.14-4.4,4.35-5.46,2.49-1.19,5.08-1.8,7.72-1.8,2.16,0,4.33.41,6.45,1.22,3.27,1.24,6.04,3.34,8.18,6.25,1.42-.75,2.95-1.13,4.48-1.13s3.11.39,4.54,1.15c.17.09.33.18.49.28,3.08,1.93,5.82,4.34,8.15,7.18.12.14.23.28.33.43,1.15,1.61,1.75,3.47,1.75,5.39,0,2.47-1.02,4.75-2.83,6.42-1.27,3.05-2.75,5.98-4.43,8.76.06.1.11.2.16.3,2.36,4.07,2.47,8.8.29,13-.03.06-.07.12-.1.19-2.32,4.2-6.39,6.6-11.17,6.6-.16,0-.31,0-.47-.01-2.1-.12-4.03-.71-5.71-1.69-8.5,5.25-17.91,8.67-28.06,10.21-.4.06-.81.09-1.2.09Z"/>
        <path class="cls-10" d="M556.99,50.43c-1.13,0-2.28-.19-3.4-.57-.32-.11-.63-.23-.94-.38-5.76-2.78-10.08-7.19-12.84-13.1-1.25-2.67-.92-5.81.84-8.17,1.52-2.04,3.91-3.21,6.41-3.21.4,0,.79.03,1.19.09,2.91.44,5.88.66,8.82.66,1.6,0,3.24-.07,4.85-.2.07,0,12.07-.65,12.15-.66l11.44-.3,1.15-.26c.99-.3,2.01-.46,3.05-.46,1.71,0,3.4.41,5.02,1.22.23.11.45.24.66.37,2.43,1.52,4.75,3.1,6.89,4.71.3.23.59.48.86.74,1.92,1.92,2.98,4.47,2.98,7.19s-1.06,5.27-2.98,7.19c-.08.08-.17.16-.25.24-2.15,1.97-4.8,3.01-7.65,3.01-.72,0-1.45-.07-2.18-.21-.09-.02-.17-.03-.26-.05-4.87-1.08-9.8-1.63-14.64-1.63s-10.14.59-15.18,1.77c-1.71,1.3-3.8,2-5.96,2Z"/>
        <path class="cls-3" d="M619.67,68.63c-2.58,0-5.07-1.25-6.6-3.48l-1.27-1.85c-2.42-3.53-1.63-8.34,1.78-10.91,1.21-.91,2.1-2.31,2.72-4.29.02-.08.05-.15.08-.23.59-1.7,1.3-4.99,1.3-10.98,0-4.7-.59-8.42-1.75-11.08-.73-1.65-1.57-2.77-2.48-3.3-1.84-1.07-3.18-2.82-3.72-4.87-.54-2.05-.25-4.24.82-6.08l1.11-1.9c1.46-2.51,4.13-3.97,6.91-3.97.84,0,1.7.13,2.53.41,6.5,2.17,11.87,6.03,15.98,11.47,4.38,5.67,6.62,12.19,6.62,19.32s-1.83,13.1-5.43,18.72c-.08.13-.17.25-.25.37-3.93,5.42-9.07,9.46-15.29,12.03-.99.41-2.03.61-3.05.61Z"/>
      </g>
      <g>
        <path class="cls-12" d="M36.21,16.6c2.46-.7,4.91-.58,7.36.37s4.33,2.51,5.67,4.69c.25.35.3.76.16,1.21-.11.39-.35.69-.74.9l-2.11,1.37-5.01,10.12c2.11,1.62,3.66,3.74,4.64,6.38.49,1.37.37,2.71-.37,4.01-.77,1.23-1.88,1.97-3.32,2.21-1.86.21-3.39-.44-4.59-1.95l-1.16-1.63c-7.59,8.96-17.17,14.61-28.74,16.93,10.09-5.98,18.12-14.08,24.1-24.31-3.66-3.66-7.65-6.73-11.97-9.23,4.99.49,9.86,1.65,14.61,3.48,1.9-3.51,3.13-7.29,3.69-11.34.18-.7-.05-1.3-.69-1.79l-1.53-1.42Z"/>
        <path class="cls-12" d="M94.38,15.6c-.11-.18-.12-.35-.05-.53.04-.21.18-.33.42-.37,1.65-.42,3.29-.32,4.9.32,3.06,1.34,5.33,3.59,6.8,6.75.18.42.16.83-.05,1.21-.14.35-.46.58-.95.69l-1.95.53-9.7,7.8c.91.21,1.74.63,2.48,1.27.21.18.37.4.47.69,0,.35-.11.62-.32.79l-.95,1.53c0,7.8.23,15.35.69,22.62-.04.81-.39,1.51-1.05,2.11-.7.56-1.48.79-2.32.69-1.27-.11-2.41-.51-3.43-1.21-1.02-.7-1.83-1.62-2.43-2.74-.32-.81-.4-1.6-.26-2.37,1.09-6.29,1.3-12.67.63-19.14-8.23,4.78-17.02,7.82-26.37,9.12,14.06-5.45,25.47-14.36,34.22-26.74.56-.84.51-1.62-.16-2.32l-.63-.69Z"/>
        <path class="cls-12" d="M119.27,17.6c4.75-.7,9.28-.02,13.61,2.06,2.43,1.37,4.17,3.34,5.22,5.91.35,1.05.32,2.13-.08,3.22-.4,1.09-1.12,1.9-2.14,2.43-1.13.74-2.37.96-3.74.66-1.37-.3-2.43-.99-3.16-2.08l-2.43-4.64c-1.79-3.13-4.22-5.64-7.28-7.54ZM120.33,48.77l1,.05c1.62.42,3.22.47,4.8.16,15.19-6.5,28.35-15.87,39.5-28.11-7.59,15.36-18.84,27.35-33.75,35.96-.67.49-1.16,1.12-1.48,1.9-.25.46-.62.79-1.11,1-.53.11-1.02.05-1.48-.16-4.08-2.46-6.57-6.06-7.49-10.81Z"/>
        <path class="cls-12" d="M169.21,20.76c1.76.49,3.5.69,5.22.58l26.26-3.43c.7-.07,1.25-.37,1.63-.9l1.48-1.32c.35-.28.76-.41,1.24-.4.47.02.87.18,1.19.5l5.64,5.64c.21.28.29.62.24,1-.05.39-.24.69-.55.9l-.74.79c-1.79,7.03-4.85,13.48-9.18,19.35-3.66,5.1-8.21,9.1-13.66,12-5.45,2.9-11.32,4.44-17.61,4.61,8.44-2.85,15.4-7.8,20.88-14.87,5.38-6.4,8.46-13.82,9.23-22.25-7.31,1.02-14.48,2.71-21.52,5.06-.7.21-1.35.6-1.95,1.16-.88.84-1.76.86-2.64.05-2.71-2.25-4.43-5.08-5.17-8.49ZM208.92,14.28c0-1.72.64-3.21,1.92-4.46,1.28-1.25,2.79-1.85,4.51-1.82,1.72-.03,3.21.58,4.46,1.85,1.25,1.27,1.89,2.76,1.92,4.48,0,1.76-.64,3.27-1.92,4.54-1.28,1.27-2.8,1.9-4.56,1.9s-3.26-.64-4.51-1.92c-1.25-1.28-1.85-2.8-1.82-4.56ZM211.82,14.33c0,.95.36,1.78,1.08,2.48.72.7,1.56,1.05,2.5,1.05s1.78-.36,2.5-1.08,1.06-1.56,1.03-2.5c0-.98-.36-1.83-1.08-2.53-.72-.7-1.57-1.05-2.56-1.05-.92,0-1.73.36-2.45,1.08s-1.06,1.57-1.03,2.56Z"/>
        <path class="cls-12" d="M225.9,33.05c3.06.63,6.19.7,9.39.21,7.84-1.97,15.73-3.3,23.68-4.01.98-.03,1.93-.39,2.85-1.05l.95-.79c.84-.67,1.71-.74,2.58-.21,2.11,1.48,4.01,3.27,5.7,5.38.21.25.3.54.26.87-.04.33-.18.62-.42.87l-1.32.84c-1.44,4.15-3.53,7.88-6.28,11.21s-6.03,6.09-9.86,8.31c-6.33,3.87-13.24,6.22-20.72,7.07,6.36-2.32,11.87-5.86,16.53-10.63,4.66-4.76,8.06-10.36,10.2-16.8-8.58.81-16.7,2.9-24.36,6.28-.92.53-1.81.49-2.69-.11-2.74-1.97-4.9-4.45-6.49-7.44ZM230.49,20.39c3.38.32,6.77.23,10.18-.26,5.48-.88,11.16-2.25,17.03-4.11.88-.18,1.63-.12,2.27.16,1.69.77,3.23,1.67,4.64,2.69.7.53.88,1.21.53,2.06-.28.77-.86,1.16-1.74,1.16-7.88.39-15.52,1.74-22.94,4.06-.77.14-1.58.05-2.43-.26-2.95-1.34-5.47-3.16-7.54-5.48Z"/>
        <path class="cls-12" d="M281.27,17.6c4.75-.7,9.28-.02,13.61,2.06,2.43,1.37,4.17,3.34,5.22,5.91.35,1.05.32,2.13-.08,3.22-.4,1.09-1.12,1.9-2.14,2.43-1.13.74-2.37.96-3.74.66-1.37-.3-2.43-.99-3.16-2.08l-2.43-4.64c-1.79-3.13-4.22-5.64-7.28-7.54ZM282.33,48.77l1,.05c1.62.42,3.22.47,4.8.16,15.19-6.5,28.35-15.87,39.5-28.11-7.59,15.36-18.84,27.35-33.75,35.96-.67.49-1.16,1.12-1.48,1.9-.25.46-.62.79-1.11,1-.53.11-1.02.05-1.48-.16-4.08-2.46-6.57-6.06-7.49-10.81Z"/>
        <path class="cls-12" d="M363.75,13.7l1.58,1.42c-2.74,2.04-4.76,4.59-6.06,7.65-1.55,3.66-2.32,8.51-2.32,14.55,0,5.48.81,9.95,2.43,13.39,1.34,3.27,3.62,5.96,6.86,8.07l-1.16,1.85c-5.41-1.97-9.72-4.96-12.92-8.96-3.48-4.25-5.22-9.04-5.22-14.34s1.63-10.34,4.9-14.66c2.85-3.87,6.82-6.86,11.92-8.96Z"/>
        <path class="cls-12" d="M404.67,15.7c2.14-1.58,4.55-2.32,7.22-2.21,2.39,0,4.46.77,6.22,2.32.49.46.76.99.79,1.61.03.62-.16,1.15-.58,1.61l-1.53,1.74-.74,6.91,10.44-1.63c.98-.32,1.95-.32,2.9,0,2.74.98,4.54,2.83,5.38,5.54.11.63.02,1.16-.26,1.58-.39.49-.84.76-1.37.79l-4.22.16c-4.15-.56-8.49-.61-13.03-.16l-.58,7.28c-.49,4.04-1.97,7.72-4.43,11.02-5.34,5.2-11.67,8.46-18.98,9.76,5.41-3.27,9.72-7.61,12.92-13.03,2.04-4.43,2.92-9.12,2.64-14.08-4.04.35-7.8,1.71-11.29,4.06-.74.42-1.48.44-2.21.05-3.69-1.55-6.35-4.18-7.96-7.91,2.74.63,5.57.72,8.49.26l12.97-2.06c.14-3.23-.04-6.66-.53-10.28-.28-1.19-.98-1.95-2.11-2.27-.21-.03-.35-.18-.42-.42,0-.32.09-.53.26-.63Z"/>
        <path class="cls-12" d="M472.38,15.6c-.11-.18-.12-.35-.05-.53.03-.21.18-.33.42-.37,1.65-.42,3.29-.32,4.9.32,3.06,1.34,5.33,3.59,6.8,6.75.18.42.16.83-.05,1.21-.14.35-.46.58-.95.69l-1.95.53-9.7,7.8c.91.21,1.74.63,2.48,1.27.21.18.37.4.47.69,0,.35-.11.62-.32.79l-.95,1.53c0,7.8.23,15.35.69,22.62-.04.81-.39,1.51-1.05,2.11-.7.56-1.48.79-2.32.69-1.27-.11-2.41-.51-3.43-1.21-1.02-.7-1.83-1.62-2.43-2.74-.32-.81-.4-1.6-.26-2.37,1.09-6.29,1.3-12.67.63-19.14-8.23,4.78-17.02,7.82-26.37,9.12,14.06-5.45,25.47-14.36,34.22-26.74.56-.84.51-1.62-.16-2.32l-.63-.69Z"/>
        <path class="cls-12" d="M510.77,13.59c2.57-1.23,5.19-1.34,7.86-.32,1.86.7,3.41,1.9,4.64,3.59.25.56.14,1.02-.32,1.37l-.47.47-1.79,3.74c4.54.07,8.77-1.04,12.71-3.32.49-.28,1-.28,1.53,0,2.35,1.48,4.43,3.3,6.22,5.48.18.25.26.49.26.74s-.12.46-.37.63l-1,.58c-1.97,5.27-4.59,10.09-7.86,14.45,1.3.98,2.35,2.23,3.16,3.74,1.05,1.76,1.11,3.55.16,5.38-.92,1.65-2.3,2.48-4.17,2.48-1.79-.11-3.08-.95-3.85-2.53l-1-1.79c-9,6.89-19.2,11.2-30.59,12.92,10.02-4.54,18.83-10.92,26.42-19.14-2.18-3.73-5.33-6.29-9.44-7.7-4.43,4.43-9.56,7.73-15.4,9.91,7.45-7.56,12.53-16.51,15.24-26.84.21-.81.02-1.53-.58-2.16l-1.37-1.69ZM518.05,27.09c-1.2,2.14-2.58,4.22-4.17,6.22,4.11.63,8.09,1.76,11.92,3.38,1.9-3.48,3.29-7.26,4.17-11.34-2.99.77-5.78,1.72-8.38,2.85-.46.18-.9.16-1.32-.05l-2.21-1.05Z"/>
        <path class="cls-12" d="M547.05,33c5.13.77,10.3.95,15.5.53l11.71-.63,12.23-.32,2.32-.53c.7-.28,1.48-.21,2.32.21,2.25,1.41,4.36,2.85,6.33,4.32.42.42.63.93.63,1.53s-.21,1.11-.63,1.53c-.84.77-1.83,1.05-2.95.84-11.39-2.53-22.75-2.43-34.07.32-.84.28-1.58.67-2.21,1.16-.56.49-1.27.6-2.11.32-4.08-1.97-7.1-5.06-9.07-9.28Z"/>
        <path class="cls-12" d="M617.45,15.6l1.11-1.9c4.96,1.65,9,4.55,12.13,8.7,3.34,4.32,5.01,9.16,5.01,14.5s-1.39,10.07-4.17,14.4c-3.06,4.22-7.01,7.33-11.87,9.33l-1.27-1.85c2.57-1.93,4.41-4.69,5.54-8.28,1.16-3.34,1.74-7.88,1.74-13.61s-.81-10.6-2.43-14.29c-1.44-3.27-3.38-5.61-5.8-7.01Z"/>
      </g>
      <g>
        <path class="cls-4" d="M36.21,16.6c2.46-.7,4.91-.58,7.36.37s4.33,2.51,5.67,4.69c.25.35.3.76.16,1.21-.11.39-.35.69-.74.9l-2.11,1.37-5.01,10.12c2.11,1.62,3.66,3.74,4.64,6.38.49,1.37.37,2.71-.37,4.01-.77,1.23-1.88,1.97-3.32,2.21-1.86.21-3.39-.44-4.59-1.95l-1.16-1.63c-7.59,8.96-17.17,14.61-28.74,16.93,10.09-5.98,18.12-14.08,24.1-24.31-3.66-3.66-7.65-6.73-11.97-9.23,4.99.49,9.86,1.65,14.61,3.48,1.9-3.51,3.13-7.29,3.69-11.34.18-.7-.05-1.3-.69-1.79l-1.53-1.42Z"/>
        <path class="cls-4" d="M94.38,15.6c-.11-.18-.12-.35-.05-.53.04-.21.18-.33.42-.37,1.65-.42,3.29-.32,4.9.32,3.06,1.34,5.33,3.59,6.8,6.75.18.42.16.83-.05,1.21-.14.35-.46.58-.95.69l-1.95.53-9.7,7.8c.91.21,1.74.63,2.48,1.27.21.18.37.4.47.69,0,.35-.11.62-.32.79l-.95,1.53c0,7.8.23,15.35.69,22.62-.04.81-.39,1.51-1.05,2.11-.7.56-1.48.79-2.32.69-1.27-.11-2.41-.51-3.43-1.21-1.02-.7-1.83-1.62-2.43-2.74-.32-.81-.4-1.6-.26-2.37,1.09-6.29,1.3-12.67.63-19.14-8.23,4.78-17.02,7.82-26.37,9.12,14.06-5.45,25.47-14.36,34.22-26.74.56-.84.51-1.62-.16-2.32l-.63-.69Z"/>
        <path class="cls-4" d="M119.27,17.6c4.75-.7,9.28-.02,13.61,2.06,2.43,1.37,4.17,3.34,5.22,5.91.35,1.05.32,2.13-.08,3.22-.4,1.09-1.12,1.9-2.14,2.43-1.13.74-2.37.96-3.74.66-1.37-.3-2.43-.99-3.16-2.08l-2.43-4.64c-1.79-3.13-4.22-5.64-7.28-7.54ZM120.33,48.77l1,.05c1.62.42,3.22.47,4.8.16,15.19-6.5,28.35-15.87,39.5-28.11-7.59,15.36-18.84,27.35-33.75,35.96-.67.49-1.16,1.12-1.48,1.9-.25.46-.62.79-1.11,1-.53.11-1.02.05-1.48-.16-4.08-2.46-6.57-6.06-7.49-10.81Z"/>
        <path class="cls-4" d="M169.21,20.76c1.76.49,3.5.69,5.22.58l26.26-3.43c.7-.07,1.25-.37,1.63-.9l1.48-1.32c.35-.28.76-.41,1.24-.4.47.02.87.18,1.19.5l5.64,5.64c.21.28.29.62.24,1-.05.39-.24.69-.55.9l-.74.79c-1.79,7.03-4.85,13.48-9.18,19.35-3.66,5.1-8.21,9.1-13.66,12-5.45,2.9-11.32,4.44-17.61,4.61,8.44-2.85,15.4-7.8,20.88-14.87,5.38-6.4,8.46-13.82,9.23-22.25-7.31,1.02-14.48,2.71-21.52,5.06-.7.21-1.35.6-1.95,1.16-.88.84-1.76.86-2.64.05-2.71-2.25-4.43-5.08-5.17-8.49ZM208.92,14.28c0-1.72.64-3.21,1.92-4.46,1.28-1.25,2.79-1.85,4.51-1.82,1.72-.03,3.21.58,4.46,1.85,1.25,1.27,1.89,2.76,1.92,4.48,0,1.76-.64,3.27-1.92,4.54-1.28,1.27-2.8,1.9-4.56,1.9s-3.26-.64-4.51-1.92c-1.25-1.28-1.85-2.8-1.82-4.56ZM211.82,14.33c0,.95.36,1.78,1.08,2.48.72.7,1.56,1.05,2.5,1.05s1.78-.36,2.5-1.08,1.06-1.56,1.03-2.5c0-.98-.36-1.83-1.08-2.53-.72-.7-1.57-1.05-2.56-1.05-.92,0-1.73.36-2.45,1.08s-1.06,1.57-1.03,2.56Z"/>
        <path class="cls-4" d="M225.9,33.05c3.06.63,6.19.7,9.39.21,7.84-1.97,15.73-3.3,23.68-4.01.98-.03,1.93-.39,2.85-1.05l.95-.79c.84-.67,1.71-.74,2.58-.21,2.11,1.48,4.01,3.27,5.7,5.38.21.25.3.54.26.87-.04.33-.18.62-.42.87l-1.32.84c-1.44,4.15-3.53,7.88-6.28,11.21s-6.03,6.09-9.86,8.31c-6.33,3.87-13.24,6.22-20.72,7.07,6.36-2.32,11.87-5.86,16.53-10.63,4.66-4.76,8.06-10.36,10.2-16.8-8.58.81-16.7,2.9-24.36,6.28-.92.53-1.81.49-2.69-.11-2.74-1.97-4.9-4.45-6.49-7.44ZM230.49,20.39c3.38.32,6.77.23,10.18-.26,5.48-.88,11.16-2.25,17.03-4.11.88-.18,1.63-.12,2.27.16,1.69.77,3.23,1.67,4.64,2.69.7.53.88,1.21.53,2.06-.28.77-.86,1.16-1.74,1.16-7.88.39-15.52,1.74-22.94,4.06-.77.14-1.58.05-2.43-.26-2.95-1.34-5.47-3.16-7.54-5.48Z"/>
        <path class="cls-4" d="M281.27,17.6c4.75-.7,9.28-.02,13.61,2.06,2.43,1.37,4.17,3.34,5.22,5.91.35,1.05.32,2.13-.08,3.22-.4,1.09-1.12,1.9-2.14,2.43-1.13.74-2.37.96-3.74.66-1.37-.3-2.43-.99-3.16-2.08l-2.43-4.64c-1.79-3.13-4.22-5.64-7.28-7.54ZM282.33,48.77l1,.05c1.62.42,3.22.47,4.8.16,15.19-6.5,28.35-15.87,39.5-28.11-7.59,15.36-18.84,27.35-33.75,35.96-.67.49-1.16,1.12-1.48,1.9-.25.46-.62.79-1.11,1-.53.11-1.02.05-1.48-.16-4.08-2.46-6.57-6.06-7.49-10.81Z"/>
        <path class="cls-4" d="M363.75,13.7l1.58,1.42c-2.74,2.04-4.76,4.59-6.06,7.65-1.55,3.66-2.32,8.51-2.32,14.55,0,5.48.81,9.95,2.43,13.39,1.34,3.27,3.62,5.96,6.86,8.07l-1.16,1.85c-5.41-1.97-9.72-4.96-12.92-8.96-3.48-4.25-5.22-9.04-5.22-14.34s1.63-10.34,4.9-14.66c2.85-3.87,6.82-6.86,11.92-8.96Z"/>
        <path class="cls-4" d="M404.67,15.7c2.14-1.58,4.55-2.32,7.22-2.21,2.39,0,4.46.77,6.22,2.32.49.46.76.99.79,1.61.03.62-.16,1.15-.58,1.61l-1.53,1.74-.74,6.91,10.44-1.63c.98-.32,1.95-.32,2.9,0,2.74.98,4.54,2.83,5.38,5.54.11.63.02,1.16-.26,1.58-.39.49-.84.76-1.37.79l-4.22.16c-4.15-.56-8.49-.61-13.03-.16l-.58,7.28c-.49,4.04-1.97,7.72-4.43,11.02-5.34,5.2-11.67,8.46-18.98,9.76,5.41-3.27,9.72-7.61,12.92-13.03,2.04-4.43,2.92-9.12,2.64-14.08-4.04.35-7.8,1.71-11.29,4.06-.74.42-1.48.44-2.21.05-3.69-1.55-6.35-4.18-7.96-7.91,2.74.63,5.57.72,8.49.26l12.97-2.06c.14-3.23-.04-6.66-.53-10.28-.28-1.19-.98-1.95-2.11-2.27-.21-.03-.35-.18-.42-.42,0-.32.09-.53.26-.63Z"/>
        <path class="cls-4" d="M472.38,15.6c-.11-.18-.12-.35-.05-.53.03-.21.18-.33.42-.37,1.65-.42,3.29-.32,4.9.32,3.06,1.34,5.33,3.59,6.8,6.75.18.42.16.83-.05,1.21-.14.35-.46.58-.95.69l-1.95.53-9.7,7.8c.91.21,1.74.63,2.48,1.27.21.18.37.4.47.69,0,.35-.11.62-.32.79l-.95,1.53c0,7.8.23,15.35.69,22.62-.04.81-.39,1.51-1.05,2.11-.7.56-1.48.79-2.32.69-1.27-.11-2.41-.51-3.43-1.21-1.02-.7-1.83-1.62-2.43-2.74-.32-.81-.4-1.6-.26-2.37,1.09-6.29,1.3-12.67.63-19.14-8.23,4.78-17.02,7.82-26.37,9.12,14.06-5.45,25.47-14.36,34.22-26.74.56-.84.51-1.62-.16-2.32l-.63-.69Z"/>
        <path class="cls-4" d="M510.77,13.59c2.57-1.23,5.19-1.34,7.86-.32,1.86.7,3.41,1.9,4.64,3.59.25.56.14,1.02-.32,1.37l-.47.47-1.79,3.74c4.54.07,8.77-1.04,12.71-3.32.49-.28,1-.28,1.53,0,2.35,1.48,4.43,3.3,6.22,5.48.18.25.26.49.26.74s-.12.46-.37.63l-1,.58c-1.97,5.27-4.59,10.09-7.86,14.45,1.3.98,2.35,2.23,3.16,3.74,1.05,1.76,1.11,3.55.16,5.38-.92,1.65-2.3,2.48-4.17,2.48-1.79-.11-3.08-.95-3.85-2.53l-1-1.79c-9,6.89-19.2,11.2-30.59,12.92,10.02-4.54,18.83-10.92,26.42-19.14-2.18-3.73-5.33-6.29-9.44-7.7-4.43,4.43-9.56,7.73-15.4,9.91,7.45-7.56,12.53-16.51,15.24-26.84.21-.81.02-1.53-.58-2.16l-1.37-1.69ZM518.05,27.09c-1.2,2.14-2.58,4.22-4.17,6.22,4.11.63,8.09,1.76,11.92,3.38,1.9-3.48,3.29-7.26,4.17-11.34-2.99.77-5.78,1.72-8.38,2.85-.46.18-.9.16-1.32-.05l-2.21-1.05Z"/>
        <path class="cls-4" d="M547.05,33c5.13.77,10.3.95,15.5.53l11.71-.63,12.23-.32,2.32-.53c.7-.28,1.48-.21,2.32.21,2.25,1.41,4.36,2.85,6.33,4.32.42.42.63.93.63,1.53s-.21,1.11-.63,1.53c-.84.77-1.83,1.05-2.95.84-11.39-2.53-22.75-2.43-34.07.32-.84.28-1.58.67-2.21,1.16-.56.49-1.27.6-2.11.32-4.08-1.97-7.1-5.06-9.07-9.28Z"/>
        <path class="cls-4" d="M617.45,15.6l1.11-1.9c4.96,1.65,9,4.55,12.13,8.7,3.34,4.32,5.01,9.16,5.01,14.5s-1.39,10.07-4.17,14.4c-3.06,4.22-7.01,7.33-11.87,9.33l-1.27-1.85c2.57-1.93,4.41-4.69,5.54-8.28,1.16-3.34,1.74-7.88,1.74-13.61s-.81-10.6-2.43-14.29c-1.44-3.27-3.38-5.61-5.8-7.01Z"/>
      </g>
    </g>
  </g>
</svg>