<?xml version="1.0" encoding="UTF-8"?>
<svg id="_レイヤー_2" data-name="レイヤー 2" xmlns="http://www.w3.org/2000/svg" xmlns:xlink="http://www.w3.org/1999/xlink" viewBox="0 0 310.63 58.37">
  <defs>
    <style>
      .cls-1 {
        fill: url(#_名称未設定グラデーション_120-5);
      }

      .cls-2 {
        fill: url(#_名称未設定グラデーション_120-6);
      }

      .cls-3 {
        fill: #fff;
      }

      .cls-4 {
        fill: url(#_名称未設定グラデーション_120-4);
      }

      .cls-5 {
        fill: url(#_名称未設定グラデーション_120-2);
      }

      .cls-6 {
        fill: url(#_名称未設定グラデーション_120-3);
      }

      .cls-7 {
        fill: url(#_名称未設定グラデーション_120-10);
      }

      .cls-8 {
        fill: url(#_名称未設定グラデーション_120);
      }

      .cls-9 {
        fill: url(#_名称未設定グラデーション_120-9);
      }

      .cls-10 {
        fill: none;
        stroke: #000;
        stroke-width: 6px;
      }

      .cls-11 {
        fill: url(#_名称未設定グラデーション_120-7);
      }

      .cls-12 {
        fill: url(#_名称未設定グラデーション_120-8);
      }
    </style>
    <linearGradient id="_名称未設定グラデーション_120" data-name="名称未設定グラデーション 120" x1="21.18" y1="58.37" x2="21.18" y2="0" gradientUnits="userSpaceOnUse">
      <stop offset="0" stop-color="#945700"/>
      <stop offset=".19" stop-color="#e9a900"/>
      <stop offset=".29" stop-color="#f5f8b4"/>
      <stop offset=".4" stop-color="#e9a900"/>
      <stop offset="1" stop-color="#fff87f"/>
    </linearGradient>
    <linearGradient id="_名称未設定グラデーション_120-2" data-name="名称未設定グラデーション 120" x1="47.89" x2="47.89" y2="0" xlink:href="#_名称未設定グラデーション_120"/>
    <linearGradient id="_名称未設定グラデーション_120-3" data-name="名称未設定グラデーション 120" x1="74.9" x2="74.9" y2="0" xlink:href="#_名称未設定グラデーション_120"/>
    <linearGradient id="_名称未設定グラデーション_120-4" data-name="名称未設定グラデーション 120" x1="102.47" x2="102.47" y2="0" xlink:href="#_名称未設定グラデーション_120"/>
    <linearGradient id="_名称未設定グラデーション_120-5" data-name="名称未設定グラデーション 120" x1="155.69" x2="155.69" xlink:href="#_名称未設定グラデーション_120"/>
    <linearGradient id="_名称未設定グラデーション_120-6" data-name="名称未設定グラデーション 120" x1="183.27" x2="183.27" xlink:href="#_名称未設定グラデーション_120"/>
    <linearGradient id="_名称未設定グラデーション_120-7" data-name="名称未設定グラデーション 120" x1="209.25" x2="209.25" y2="0" xlink:href="#_名称未設定グラデーション_120"/>
    <linearGradient id="_名称未設定グラデーション_120-8" data-name="名称未設定グラデーション 120" x1="236.9" x2="236.9" y2="0" xlink:href="#_名称未設定グラデーション_120"/>
    <linearGradient id="_名称未設定グラデーション_120-9" data-name="名称未設定グラデーション 120" x1="264.32" x2="264.32" y2="0" xlink:href="#_名称未設定グラデーション_120"/>
    <linearGradient id="_名称未設定グラデーション_120-10" data-name="名称未設定グラデーション 120" x1="291.47" x2="291.47" y2="0" xlink:href="#_名称未設定グラデーション_120"/>
  </defs>
  <g id="_レイヤー_1-2" data-name="レイヤー 1">
    <g>
      <g>
        <path class="cls-3" d="M17.45,37.21l-2,9.97.47.74c.63,0,1.14.23,1.53.69.28.46.25.81-.11,1.05-.39.53-1.16.69-2.32.47h-4.85c-1.2,0-1.9-.26-2.11-.79-.21-.7.18-1.16,1.16-1.37l1.05-1.27L19.29,9.74c-.25-.42.04-.76.84-1,.91-.42,1.86-.42,2.85,0,.81.35,1.05.74.74,1.16l9.02,37.28.95.95c.6.42.79.88.58,1.37-.49.81-1.39,1.05-2.69.74h-6.49c-1.23-.21-1.85-.65-1.85-1.32s.46-1.05,1.37-1.16l.37-.69-1.9-9.86h-5.64ZM18.97,33.42l2.48-.11-1.27-11.92-1.21,12.02Z"/>
        <path class="cls-3" d="M41.81,20.76v3.32c.7-1.12,1.93-2.16,3.69-3.11,1.05-.53,2.11-.4,3.16.37,1.05.77,1.63,1.58,1.74,2.43,1.09-1.58,2.64-2.65,4.64-3.22,1.27-.35,2.39.11,3.38,1.37.88,1.2,1.3,2.74,1.27,4.64v20.83l1.16.63c.6.18.79.63.58,1.37-.32.49-.7.65-1.16.47h-6.49c-.46-.21-.69-.53-.69-.95s.19-.72.58-.9l1.37-.63v-20.83c0-.77-.12-1.35-.37-1.74-.25-.39-.47-.51-.69-.37-1.3.56-2.37,1.56-3.22,3.01v19.78l1.53.84c.35.21.53.53.53.95,0,.39-.26.67-.79.84h-6.86c-.56.11-.91-.14-1.05-.74s.05-.97.58-1.11l1.27-.79v-20.2c.04-.81-.07-1.48-.32-2-.28-.42-.6-.53-.95-.32-1.12.63-2.09,1.74-2.9,3.32v19.2l.95.63c.53.25.72.69.58,1.32-.14.46-.49.69-1.05.69h-6.06c-.32-.18-.54-.44-.69-.79-.14-.35,0-.65.42-.9l1.05-1v-21.3l-2.74-1.05,7.54-4.06Z"/>
        <path class="cls-3" d="M69.39,36.69c-.04,1.44.27,2.95.92,4.54s1.59,2.92,2.82,4.01c1.97,1.05,4.08,1.34,6.33.87s4.61-1.82,7.07-4.03c-2.04,2.95-4.16,4.96-6.35,6.01s-4.53,1.46-6.99,1.21c-2.85-.46-5.23-1.9-7.15-4.32s-2.84-5.17-2.77-8.23c.04-2.25.55-4.34,1.56-6.28,1-1.93,2.4-3.51,4.19-4.75,1.86-1.37,3.93-2.03,6.2-1.98s4.35.78,6.25,2.19c1.48,1.23,2.62,2.75,3.43,4.56.81,1.81,1.18,3.88,1.11,6.2h-16.61ZM69.39,34.37h11.23c.28-1.97-.26-3.8-1.63-5.48-.88-1.16-2.04-1.76-3.48-1.79-1.37-.14-2.58.33-3.64,1.42-1.51,1.72-2.34,3.67-2.48,5.85Z"/>
        <path class="cls-3" d="M102.93,29.15l2.64-8.28.21.11c-.28,0-.58-.19-.9-.58-.28-.42-.26-.83.05-1.21.6-.42,1.32-.54,2.16-.37h4.06c1.2-.14,1.91.11,2.14.76.23.65-.22,1.06-1.35,1.24l-1.79.63-4.9,10.28,6.86,14.66,1.58.84c.74.28.98.7.74,1.27-.35.39-.93.58-1.74.58h-7.28c-.49.04-1.05-.09-1.69-.37-.39-.39-.4-.77-.05-1.16.84-.35,1.18-.54,1-.58l-.11-.16-3.38-9.91-3.53,10.28-.11.11c.32,0,.67.12,1.05.37.11.39.09.77-.05,1.16-1.02.32-1.81.4-2.37.26h-3.9c-.95,0-1.56-.25-1.85-.74,0-.7.53-1.05,1.58-1.05l.74-.47,6.06-12.6-5.43-12.6-.79-.63c-1.23,0-1.74-.4-1.53-1.21,0-.63.62-.95,1.85-.95h6.59c1.05,0,1.63.18,1.74.53.42.35.42.76,0,1.21-.32.42-.65.63-1,.63l.26-.11,2.43,8.07Z"/>
        <path class="cls-3" d="M145.01,13.27c0-1.09-.09-1.83-.26-2.21-.25-.28-.83-.42-1.74-.42v-2.64h11.44c4.64,0,8.05,1.86,10.23,5.59,2.46,3.87,3.69,9,3.69,15.4,0,5.8-1.11,10.76-3.32,14.87-2.29,4.04-5.68,6.06-10.18,6.06h-11.87v-2.53c.91,0,1.48-.21,1.69-.63.21-.46.32-1.23.32-2.32V13.27ZM152.97,10.64v36.76h1.9c1.41,0,2.51-1.48,3.32-4.43,1.02-3.59,1.53-8.24,1.53-13.97,0-7.03-.47-11.99-1.42-14.87-.88-2.32-2.16-3.48-3.85-3.48h-1.48Z"/>
        <path class="cls-3" d="M175.33,26.83l11.23-5.17v25.31l3.69.79c.32,0,.58.16.79.47.25.39.25.7,0,.95-.21.21-.47.32-.79.32h-13.82c-.56,0-.84-.27-.84-.82s.25-.82.74-.82l3.11-1.11v-18.62l-4.11-1.32ZM178.87,11.69c.63-1.34,1.71-2.06,3.22-2.16,1.34-.11,2.43.46,3.27,1.69.63.92.96,1.93.98,3.06.02,1.13-.26,2.2-.82,3.22-.84,1.02-1.86,1.56-3.06,1.63-1.27.07-2.36-.39-3.27-1.37-.95-2-1.05-4.03-.32-6.06Z"/>
        <path class="cls-3" d="M196.58,22.87l11.13-2.79v4.59c-.84-1.55-.61-2.79.71-3.74s2.73-1.37,4.25-1.27c1.76-.03,3.26.73,4.51,2.29,1.25,1.56,1.91,3.49,1.98,5.77v18.67l1.21.95c.42-.14.88,0,1.37.42.28.39.25.81-.11,1.27-.6.28-1.14.37-1.63.26h-8.02c-.46,0-.9-.09-1.32-.26-.21-.32-.28-.69-.21-1.11.28-.39.69-.58,1.21-.58l1.37-.95v-18.67c0-1.34-.26-2.48-.79-3.43-.35-.81-.77-1.12-1.27-.95-.84.21-1.57.86-2.19,1.95-.62,1.09-.98,2.41-1.08,3.96v17.14l.79.69c.95.18,1.3.6,1.05,1.27,0,.53-.49.84-1.48.95h-7.38c-.49,0-.89-.11-1.19-.32-.3-.21-.43-.46-.4-.74-.18-.6.21-.98,1.16-1.16l1.11-.69v-22.04l-4.8-1.48Z"/>
        <path class="cls-3" d="M231.39,36.69c-.04,1.44.27,2.95.92,4.54.65,1.58,1.59,2.92,2.82,4.01,1.97,1.05,4.08,1.34,6.33.87,2.25-.47,4.61-1.82,7.07-4.03-2.04,2.95-4.16,4.96-6.35,6.01-2.2,1.05-4.53,1.46-6.99,1.21-2.85-.46-5.23-1.9-7.15-4.32-1.92-2.43-2.84-5.17-2.77-8.23.03-2.25.55-4.34,1.56-6.28,1-1.93,2.4-3.51,4.19-4.75,1.86-1.37,3.93-2.03,6.2-1.98s4.35.78,6.25,2.19c1.48,1.23,2.62,2.75,3.43,4.56.81,1.81,1.18,3.88,1.11,6.2h-16.61ZM231.39,34.37h11.23c.28-1.97-.26-3.8-1.63-5.48-.88-1.16-2.04-1.76-3.48-1.79-1.37-.14-2.58.33-3.64,1.42-1.51,1.72-2.34,3.67-2.48,5.85Z"/>
        <path class="cls-3" d="M263.56,24.98c.39-.95,1.44-2.34,3.16-4.17,1.19-.91,2.55-1.19,4.06-.84,2.32.81,4.18,2.41,5.59,4.8l-4.64,6.96c-.81-2.57-1.81-4.5-3.01-5.8-.18-.25-.37-.37-.58-.37s-.44.12-.69.37c-1.76,1.48-3.06,3.34-3.9,5.59v14.66l2.21.84c.32,0,.6.18.84.53.32.42.32.84,0,1.27-.25.32-.58.47-1,.47h-10.34c-.6,0-1.02-.3-1.27-.9-.07-.67.25-1.12.95-1.37l2.06-.84v-21.62l-4.75-.95,11.29-4.59v5.96Z"/>
        <path class="cls-3" d="M300.52,21.03l.74,8.38c-2.21-2.99-4.11-5.03-5.7-6.12-1.58-1.09-3.3-1.65-5.17-1.69-.6,0-1.15.2-1.66.61-.51.4-.85.94-1.03,1.61-.18.74-.15,1.44.08,2.11.23.67.59,1.2,1.08,1.58l10.07,5.17c1.48,1.2,2.52,2.66,3.14,4.4.61,1.74.71,3.53.29,5.35-.35,1.86-1.18,3.45-2.48,4.75s-2.81,2.08-4.54,2.32c-4.43.53-8.89.35-13.39-.53l-1.63-12.29c2.53,4.18,5.03,7.08,7.49,8.7,2.11,1.2,4.22,1.34,6.33.42,1.16-.63,1.76-1.76,1.79-3.38.07-1.55-.46-2.76-1.58-3.64l-10.81-5.43c-1.09-.67-1.92-1.59-2.48-2.77-.56-1.18-.81-2.42-.74-3.72.03-1.34.38-2.58,1.03-3.72.65-1.14,1.54-2,2.66-2.56,2.53-1.51,5.23-2.25,8.09-2.21,2.87.04,5.67.92,8.41,2.64Z"/>
      </g>
      <g>
        <path class="cls-8" d="M32.58,58.37c-.57,0-1.15-.04-1.74-.13h-5.75c-.45,0-.91-.04-1.35-.12-1.19-.2-2.25-.54-3.17-.99-1.38.71-2.97,1.09-4.65,1.09-.48,0-.97-.03-1.48-.09h-4.28c-6.69,0-8.99-4.45-9.54-5.82-.09-.22-.17-.44-.23-.67-.74-2.45-.44-4.98.83-7.13.36-.61.96-1.44,1.9-2.24L11.21,9.11c.04-.92.23-1.84.57-2.72.55-1.41,1.99-3.88,5.5-5.13,1.36-.56,2.79-.84,4.25-.84,1.56,0,3.11.32,4.6.96,3.79,1.65,5.03,4.47,5.44,6.01.18.7.28,1.4.28,2.11l8.12,33.57c2.39,2.63,3.07,6.26,1.65,9.58-.15.35-.32.69-.52,1.01-1.8,2.95-4.98,4.71-8.52,4.71Z"/>
        <path class="cls-5" d="M60.61,57.94c-.37,0-.74-.02-1.11-.07h-5.73c-.29,0-.58-.02-.87-.05-.29.03-.58.05-.87.05h-6.44c-.22.02-.44.02-.65.02-.47,0-.94-.04-1.39-.11-.42.05-.84.08-1.27.08h-6.06c-1.37,0-2.71-.35-3.9-1.02-1.93-1.08-3.39-2.74-4.21-4.8-1.1-2.75-.7-5.75.9-8.08v-13.12c-1.58-1.38-2.59-3.35-2.73-5.52-.2-3.12,1.44-6.07,4.19-7.55l7.54-4.06c1.19-.64,2.49-.96,3.79-.96.71,0,1.42.09,2.11.28.93-.26,1.89-.39,2.86-.39,1.43,0,2.84.29,4.18.85.62-.25,1.26-.47,1.92-.66,1-.28,1.98-.41,2.97-.41,3.44,0,6.59,1.62,8.89,4.57.04.06.09.11.13.17,1.92,2.62,2.87,5.79,2.82,9.45v16.81c1.69,2.18,2.29,5.14,1.43,8.16-.22.75-.54,1.47-.96,2.13-1.7,2.64-4.52,4.22-7.54,4.22Z"/>
        <path class="cls-6" d="M74.57,57.36c-.72,0-1.45-.04-2.17-.11-.16-.02-.32-.04-.47-.06-4.81-.77-9.01-3.28-12.16-7.27-3.05-3.86-4.6-8.48-4.49-13.37.05-3.43.88-6.74,2.45-9.77,1.59-3.07,3.83-5.62,6.66-7.59,3.16-2.3,6.72-3.46,10.58-3.46.15,0,.29,0,.44,0,3.94.09,7.58,1.36,10.82,3.76.12.09.25.19.36.29,2.42,2.01,4.3,4.52,5.61,7.44,1.3,2.91,1.91,6.18,1.8,9.7-.02.59-.1,1.16-.24,1.71,1.19,2.51,1.02,5.55-.65,7.97-2.87,4.16-5.97,7-9.48,8.68-2.86,1.37-5.91,2.07-9.07,2.07Z"/>
        <path class="cls-4" d="M96.76,57.15c-.4,0-.8-.02-1.19-.06h-3.3c-5.48,0-7.98-3.34-8.79-4.78-.69-1.21-1.05-2.57-1.05-3.96,0-2.96,1.53-6.05,4.43-7.74l3.16-6.57-2.78-6.45c-1.15-.7-1.93-1.52-2.42-2.14-1.5-1.94-2.09-4.38-1.69-6.83.54-4.04,3.87-7.79,9.77-7.79h6.59c1.34,0,2.5.18,3.5.47,1.08-.36,2.21-.55,3.38-.55.43,0,.87.03,1.31.08h3.09c.33-.02.65-.04.96-.04,4.27,0,7.75,2.35,9.09,6.13.88,2.51.62,5.2-.71,7.41-.73,1.23-2.02,2.7-4.21,3.63l-1.82,3.81,4.12,8.82c1.64,1,2.9,2.44,3.62,4.17.93,2.22.9,4.69-.09,6.96-.35.79-.82,1.52-1.4,2.16-1.09,1.2-3.53,3.21-7.67,3.21h-7.09c-.12,0-.23,0-.35,0-1.32,0-2.65-.25-3.98-.74-.11.04-.22.08-.34.11-1.49.46-2.85.69-4.16.69Z"/>
        <path class="cls-1" d="M143.01,57.92c-4.42,0-8-3.58-8-8v-2.53c0-2.03.76-3.89,2-5.3V15.93c-1.25-1.41-2-3.26-2-5.29v-2.64c0-4.42,3.58-8,8-8h11.44c7.39,0,13.44,3.34,17.06,9.42,3.23,5.14,4.86,11.72,4.86,19.57,0,7.11-1.44,13.39-4.28,18.66-.03.05-.05.1-.08.14-3.69,6.53-9.78,10.13-17.14,10.13h-11.87Z"/>
        <path class="cls-2" d="M176.44,57.5c-4.96,0-8.84-3.87-8.84-8.82,0-3.1,1.51-5.78,3.85-7.35v-7.51c-2.36-1.31-3.93-3.75-4.1-6.51-.19-3.07,1.4-5.95,4.05-7.45-1.33-3.55-1.35-7.29-.05-10.9.09-.24.18-.47.29-.7,1.88-3.96,5.48-6.41,9.89-6.72.25-.02.56-.03.87-.03,3.82,0,7.3,1.89,9.56,5.18,1.5,2.18,2.33,4.76,2.38,7.45.02,1.4-.16,2.77-.53,4.1.5,1.05.77,2.22.77,3.42v19.23c1.24.69,2.32,1.68,3.14,2.91.04.05.07.11.11.16,2.23,3.53,1.78,8-1.1,10.88-1.71,1.72-4,2.66-6.45,2.66h-13.82Z"/>
        <path class="cls-11" d="M220.41,57.33c-.31,0-.62-.01-.93-.04h-7.5c-.7,0-1.4-.06-2.08-.19-.31.06-.64.11-.97.14-.28.03-.57.05-.85.05h-7.38c-2.15,0-4.16-.62-5.81-1.79-2.17-1.53-3.52-3.9-3.74-6.45-.24-1.95.18-3.93,1.2-5.6.27-.44.61-.91,1.04-1.37v-11.88c-2.96-1.29-4.88-4.26-4.8-7.54.09-3.59,2.57-6.67,6.05-7.55l11.13-2.79c.64-.16,1.3-.24,1.95-.24.29,0,.57.02.85.05,1.19-.32,2.41-.48,3.65-.48.22,0,.44,0,.66.01,4.1.03,7.84,1.91,10.55,5.3,2.34,2.94,3.6,6.48,3.72,10.52,0,.08,0,.17,0,.25v14.15c.39.36.75.76,1.06,1.19,2.35,3.24,2.25,7.6-.24,10.84-.78,1.01-1.78,1.82-2.93,2.36-1.51.71-3.07,1.07-4.63,1.07Z"/>
        <path class="cls-12" d="M236.57,57.36c-.72,0-1.45-.04-2.17-.11-.16-.02-.32-.04-.47-.06-4.81-.77-9.01-3.28-12.16-7.27-3.05-3.86-4.6-8.48-4.49-13.37.05-3.42.88-6.73,2.45-9.77,1.59-3.07,3.83-5.62,6.66-7.59,3.16-2.3,6.72-3.46,10.58-3.46.15,0,.29,0,.44,0,3.94.09,7.58,1.36,10.82,3.76.12.09.25.19.36.29,2.41,2.01,4.3,4.52,5.61,7.44,1.3,2.92,1.91,6.18,1.8,9.7-.02.59-.1,1.16-.24,1.71,1.19,2.51,1.02,5.55-.65,7.97-2.87,4.16-5.97,6.99-9.47,8.68-2.86,1.37-5.91,2.07-9.07,2.07Z"/>
        <path class="cls-9" d="M255.28,57.29c-3.87,0-7.19-2.25-8.67-5.87-.29-.7-.47-1.43-.55-2.18-.33-3.06.81-5.9,2.96-7.84v-10.49c-2.6-1.16-4.43-3.64-4.71-6.56-.33-3.52,1.68-6.83,4.95-8.17l11.29-4.59c.97-.39,1.99-.59,3.01-.59,1.33,0,2.66.33,3.85.99.71-.12,1.42-.18,2.15-.18,1,0,2.02.12,3.03.35.28.06.56.15.83.24,4.09,1.43,7.5,4.3,9.85,8.3,1.55,2.64,1.46,5.94-.24,8.49l-4.64,6.96c-1.5,2.25-4.01,3.56-6.65,3.56-.06,0-.12,0-.18,0v1.45c.57.49,1.08,1.05,1.54,1.68,2.36,3.24,2.33,7.54-.08,10.76-.03.04-.06.07-.08.11-1.76,2.26-4.43,3.56-7.32,3.56h-10.34Z"/>
        <path class="cls-7" d="M290.36,57.8c-3.28,0-6.63-.33-9.93-.97-3.37-.66-5.95-3.39-6.4-6.8l-1.63-12.29c-.23-1.75.12-3.46.93-4.92-.76-2-1.09-4.1-.99-6.26.09-2.62.78-5.1,2.07-7.36,1.37-2.4,3.35-4.33,5.74-5.6,3.66-2.13,7.62-3.21,11.78-3.21h.29c4.35.05,8.57,1.35,12.57,3.86,2.12,1.33,3.5,3.58,3.72,6.07l.74,8.38c.11,1.25-.08,2.48-.51,3.59.34.68.64,1.38.9,2.11,1.11,3.14,1.3,6.39.58,9.66-.67,3.4-2.24,6.34-4.65,8.76-2.51,2.51-5.65,4.1-9.06,4.58-.06,0-.12.02-.18.02-1.96.23-3.96.35-5.94.35Z"/>
      </g>
      <g>
        <path class="cls-10" d="M17.45,37.21l-2,9.97.47.74c.63,0,1.14.23,1.53.69.28.46.25.81-.11,1.05-.39.53-1.16.69-2.32.47h-4.85c-1.2,0-1.9-.26-2.11-.79-.21-.7.18-1.16,1.16-1.37l1.05-1.27L19.29,9.74c-.25-.42.04-.76.84-1,.91-.42,1.86-.42,2.85,0,.81.35,1.05.74.74,1.16l9.02,37.28.95.95c.6.42.79.88.58,1.37-.49.81-1.39,1.05-2.69.74h-6.49c-1.23-.21-1.85-.65-1.85-1.32s.46-1.05,1.37-1.16l.37-.69-1.9-9.86h-5.64ZM18.97,33.42l2.48-.11-1.27-11.92-1.21,12.02Z"/>
        <path class="cls-10" d="M41.81,20.76v3.32c.7-1.12,1.93-2.16,3.69-3.11,1.05-.53,2.11-.4,3.16.37,1.05.77,1.63,1.58,1.74,2.43,1.09-1.58,2.64-2.65,4.64-3.22,1.27-.35,2.39.11,3.38,1.37.88,1.2,1.3,2.74,1.27,4.64v20.83l1.16.63c.6.18.79.63.58,1.37-.32.49-.7.65-1.16.47h-6.49c-.46-.21-.69-.53-.69-.95s.19-.72.58-.9l1.37-.63v-20.83c0-.77-.12-1.35-.37-1.74-.25-.39-.47-.51-.69-.37-1.3.56-2.37,1.56-3.22,3.01v19.78l1.53.84c.35.21.53.53.53.95,0,.39-.26.67-.79.84h-6.86c-.56.11-.91-.14-1.05-.74s.05-.97.58-1.11l1.27-.79v-20.2c.04-.81-.07-1.48-.32-2-.28-.42-.6-.53-.95-.32-1.12.63-2.09,1.74-2.9,3.32v19.2l.95.63c.53.25.72.69.58,1.32-.14.46-.49.69-1.05.69h-6.06c-.32-.18-.54-.44-.69-.79-.14-.35,0-.65.42-.9l1.05-1v-21.3l-2.74-1.05,7.54-4.06Z"/>
        <path class="cls-10" d="M69.39,36.69c-.04,1.44.27,2.95.92,4.54s1.59,2.92,2.82,4.01c1.97,1.05,4.08,1.34,6.33.87s4.61-1.82,7.07-4.03c-2.04,2.95-4.16,4.96-6.35,6.01s-4.53,1.46-6.99,1.21c-2.85-.46-5.23-1.9-7.15-4.32s-2.84-5.17-2.77-8.23c.04-2.25.55-4.34,1.56-6.28,1-1.93,2.4-3.51,4.19-4.75,1.86-1.37,3.93-2.03,6.2-1.98s4.35.78,6.25,2.19c1.48,1.23,2.62,2.75,3.43,4.56.81,1.81,1.18,3.88,1.11,6.2h-16.61ZM69.39,34.37h11.23c.28-1.97-.26-3.8-1.63-5.48-.88-1.16-2.04-1.76-3.48-1.79-1.37-.14-2.58.33-3.64,1.42-1.51,1.72-2.34,3.67-2.48,5.85Z"/>
        <path class="cls-10" d="M102.93,29.15l2.64-8.28.21.11c-.28,0-.58-.19-.9-.58-.28-.42-.26-.83.05-1.21.6-.42,1.32-.54,2.16-.37h4.06c1.2-.14,1.91.11,2.14.76.23.65-.22,1.06-1.35,1.24l-1.79.63-4.9,10.28,6.86,14.66,1.58.84c.74.28.98.7.74,1.27-.35.39-.93.58-1.74.58h-7.28c-.49.04-1.05-.09-1.69-.37-.39-.39-.4-.77-.05-1.16.84-.35,1.18-.54,1-.58l-.11-.16-3.38-9.91-3.53,10.28-.11.11c.32,0,.67.12,1.05.37.11.39.09.77-.05,1.16-1.02.32-1.81.4-2.37.26h-3.9c-.95,0-1.56-.25-1.85-.74,0-.7.53-1.05,1.58-1.05l.74-.47,6.06-12.6-5.43-12.6-.79-.63c-1.23,0-1.74-.4-1.53-1.21,0-.63.62-.95,1.85-.95h6.59c1.05,0,1.63.18,1.74.53.42.35.42.76,0,1.21-.32.42-.65.63-1,.63l.26-.11,2.43,8.07Z"/>
        <path class="cls-10" d="M145.01,13.27c0-1.09-.09-1.83-.26-2.21-.25-.28-.83-.42-1.74-.42v-2.64h11.44c4.64,0,8.05,1.86,10.23,5.59,2.46,3.87,3.69,9,3.69,15.4,0,5.8-1.11,10.76-3.32,14.87-2.29,4.04-5.68,6.06-10.18,6.06h-11.87v-2.53c.91,0,1.48-.21,1.69-.63.21-.46.32-1.23.32-2.32V13.27ZM152.97,10.64v36.76h1.9c1.41,0,2.51-1.48,3.32-4.43,1.02-3.59,1.53-8.24,1.53-13.97,0-7.03-.47-11.99-1.42-14.87-.88-2.32-2.16-3.48-3.85-3.48h-1.48Z"/>
        <path class="cls-10" d="M175.33,26.83l11.23-5.17v25.31l3.69.79c.32,0,.58.16.79.47.25.39.25.7,0,.95-.21.21-.47.32-.79.32h-13.82c-.56,0-.84-.27-.84-.82s.25-.82.74-.82l3.11-1.11v-18.62l-4.11-1.32ZM178.87,11.69c.63-1.34,1.71-2.06,3.22-2.16,1.34-.11,2.43.46,3.27,1.69.63.92.96,1.93.98,3.06.02,1.13-.26,2.2-.82,3.22-.84,1.02-1.86,1.56-3.06,1.63-1.27.07-2.36-.39-3.27-1.37-.95-2-1.05-4.03-.32-6.06Z"/>
        <path class="cls-10" d="M196.58,22.87l11.13-2.79v4.59c-.84-1.55-.61-2.79.71-3.74s2.73-1.37,4.25-1.27c1.76-.03,3.26.73,4.51,2.29,1.25,1.56,1.91,3.49,1.98,5.77v18.67l1.21.95c.42-.14.88,0,1.37.42.28.39.25.81-.11,1.27-.6.28-1.14.37-1.63.26h-8.02c-.46,0-.9-.09-1.32-.26-.21-.32-.28-.69-.21-1.11.28-.39.69-.58,1.21-.58l1.37-.95v-18.67c0-1.34-.26-2.48-.79-3.43-.35-.81-.77-1.12-1.27-.95-.84.21-1.57.86-2.19,1.95-.62,1.09-.98,2.41-1.08,3.96v17.14l.79.69c.95.18,1.3.6,1.05,1.27,0,.53-.49.84-1.48.95h-7.38c-.49,0-.89-.11-1.19-.32-.3-.21-.43-.46-.4-.74-.18-.6.21-.98,1.16-1.16l1.11-.69v-22.04l-4.8-1.48Z"/>
        <path class="cls-10" d="M231.39,36.69c-.04,1.44.27,2.95.92,4.54.65,1.58,1.59,2.92,2.82,4.01,1.97,1.05,4.08,1.34,6.33.87,2.25-.47,4.61-1.82,7.07-4.03-2.04,2.95-4.16,4.96-6.35,6.01-2.2,1.05-4.53,1.46-6.99,1.21-2.85-.46-5.23-1.9-7.15-4.32-1.92-2.43-2.84-5.17-2.77-8.23.03-2.25.55-4.34,1.56-6.28,1-1.93,2.4-3.51,4.19-4.75,1.86-1.37,3.93-2.03,6.2-1.98s4.35.78,6.25,2.19c1.48,1.23,2.62,2.75,3.43,4.56.81,1.81,1.18,3.88,1.11,6.2h-16.61ZM231.39,34.37h11.23c.28-1.97-.26-3.8-1.63-5.48-.88-1.16-2.04-1.76-3.48-1.79-1.37-.14-2.58.33-3.64,1.42-1.51,1.72-2.34,3.67-2.48,5.85Z"/>
        <path class="cls-10" d="M263.56,24.98c.39-.95,1.44-2.34,3.16-4.17,1.19-.91,2.55-1.19,4.06-.84,2.32.81,4.18,2.41,5.59,4.8l-4.64,6.96c-.81-2.57-1.81-4.5-3.01-5.8-.18-.25-.37-.37-.58-.37s-.44.12-.69.37c-1.76,1.48-3.06,3.34-3.9,5.59v14.66l2.21.84c.32,0,.6.18.84.53.32.42.32.84,0,1.27-.25.32-.58.47-1,.47h-10.34c-.6,0-1.02-.3-1.27-.9-.07-.67.25-1.12.95-1.37l2.06-.84v-21.62l-4.75-.95,11.29-4.59v5.96Z"/>
        <path class="cls-10" d="M300.52,21.03l.74,8.38c-2.21-2.99-4.11-5.03-5.7-6.12-1.58-1.09-3.3-1.65-5.17-1.69-.6,0-1.15.2-1.66.61-.51.4-.85.94-1.03,1.61-.18.74-.15,1.44.08,2.11.23.67.59,1.2,1.08,1.58l10.07,5.17c1.48,1.2,2.52,2.66,3.14,4.4.61,1.74.71,3.53.29,5.35-.35,1.86-1.18,3.45-2.48,4.75s-2.81,2.08-4.54,2.32c-4.43.53-8.89.35-13.39-.53l-1.63-12.29c2.53,4.18,5.03,7.08,7.49,8.7,2.11,1.2,4.22,1.34,6.33.42,1.16-.63,1.76-1.76,1.79-3.38.07-1.55-.46-2.76-1.58-3.64l-10.81-5.43c-1.09-.67-1.92-1.59-2.48-2.77-.56-1.18-.81-2.42-.74-3.72.03-1.34.38-2.58,1.03-3.72.65-1.14,1.54-2,2.66-2.56,2.53-1.51,5.23-2.25,8.09-2.21,2.87.04,5.67.92,8.41,2.64Z"/>
      </g>
      <g>
        <path class="cls-3" d="M17.45,37.21l-2,9.97.47.74c.63,0,1.14.23,1.53.69.28.46.25.81-.11,1.05-.39.53-1.16.69-2.32.47h-4.85c-1.2,0-1.9-.26-2.11-.79-.21-.7.18-1.16,1.16-1.37l1.05-1.27L19.29,9.74c-.25-.42.04-.76.84-1,.91-.42,1.86-.42,2.85,0,.81.35,1.05.74.74,1.16l9.02,37.28.95.95c.6.42.79.88.58,1.37-.49.81-1.39,1.05-2.69.74h-6.49c-1.23-.21-1.85-.65-1.85-1.32s.46-1.05,1.37-1.16l.37-.69-1.9-9.86h-5.64ZM18.97,33.42l2.48-.11-1.27-11.92-1.21,12.02Z"/>
        <path class="cls-3" d="M41.81,20.76v3.32c.7-1.12,1.93-2.16,3.69-3.11,1.05-.53,2.11-.4,3.16.37,1.05.77,1.63,1.58,1.74,2.43,1.09-1.58,2.64-2.65,4.64-3.22,1.27-.35,2.39.11,3.38,1.37.88,1.2,1.3,2.74,1.27,4.64v20.83l1.16.63c.6.18.79.63.58,1.37-.32.49-.7.65-1.16.47h-6.49c-.46-.21-.69-.53-.69-.95s.19-.72.58-.9l1.37-.63v-20.83c0-.77-.12-1.35-.37-1.74-.25-.39-.47-.51-.69-.37-1.3.56-2.37,1.56-3.22,3.01v19.78l1.53.84c.35.21.53.53.53.95,0,.39-.26.67-.79.84h-6.86c-.56.11-.91-.14-1.05-.74s.05-.97.58-1.11l1.27-.79v-20.2c.04-.81-.07-1.48-.32-2-.28-.42-.6-.53-.95-.32-1.12.63-2.09,1.74-2.9,3.32v19.2l.95.63c.53.25.72.69.58,1.32-.14.46-.49.69-1.05.69h-6.06c-.32-.18-.54-.44-.69-.79-.14-.35,0-.65.42-.9l1.05-1v-21.3l-2.74-1.05,7.54-4.06Z"/>
        <path class="cls-3" d="M69.39,36.69c-.04,1.44.27,2.95.92,4.54s1.59,2.92,2.82,4.01c1.97,1.05,4.08,1.34,6.33.87s4.61-1.82,7.07-4.03c-2.04,2.95-4.16,4.96-6.35,6.01s-4.53,1.46-6.99,1.21c-2.85-.46-5.23-1.9-7.15-4.32s-2.84-5.17-2.77-8.23c.04-2.25.55-4.34,1.56-6.28,1-1.93,2.4-3.51,4.19-4.75,1.86-1.37,3.93-2.03,6.2-1.98s4.35.78,6.25,2.19c1.48,1.23,2.62,2.75,3.43,4.56.81,1.81,1.18,3.88,1.11,6.2h-16.61ZM69.39,34.37h11.23c.28-1.97-.26-3.8-1.63-5.48-.88-1.16-2.04-1.76-3.48-1.79-1.37-.14-2.58.33-3.64,1.42-1.51,1.72-2.34,3.67-2.48,5.85Z"/>
        <path class="cls-3" d="M102.93,29.15l2.64-8.28.21.11c-.28,0-.58-.19-.9-.58-.28-.42-.26-.83.05-1.21.6-.42,1.32-.54,2.16-.37h4.06c1.2-.14,1.91.11,2.14.76.23.65-.22,1.06-1.35,1.24l-1.79.63-4.9,10.28,6.86,14.66,1.58.84c.74.28.98.7.74,1.27-.35.39-.93.58-1.74.58h-7.28c-.49.04-1.05-.09-1.69-.37-.39-.39-.4-.77-.05-1.16.84-.35,1.18-.54,1-.58l-.11-.16-3.38-9.91-3.53,10.28-.11.11c.32,0,.67.12,1.05.37.11.39.09.77-.05,1.16-1.02.32-1.81.4-2.37.26h-3.9c-.95,0-1.56-.25-1.85-.74,0-.7.53-1.05,1.58-1.05l.74-.47,6.06-12.6-5.43-12.6-.79-.63c-1.23,0-1.74-.4-1.53-1.21,0-.63.62-.95,1.85-.95h6.59c1.05,0,1.63.18,1.74.53.42.35.42.76,0,1.21-.32.42-.65.63-1,.63l.26-.11,2.43,8.07Z"/>
        <path class="cls-3" d="M145.01,13.27c0-1.09-.09-1.83-.26-2.21-.25-.28-.83-.42-1.74-.42v-2.64h11.44c4.64,0,8.05,1.86,10.23,5.59,2.46,3.87,3.69,9,3.69,15.4,0,5.8-1.11,10.76-3.32,14.87-2.29,4.04-5.68,6.06-10.18,6.06h-11.87v-2.53c.91,0,1.48-.21,1.69-.63.21-.46.32-1.23.32-2.32V13.27ZM152.97,10.64v36.76h1.9c1.41,0,2.51-1.48,3.32-4.43,1.02-3.59,1.53-8.24,1.53-13.97,0-7.03-.47-11.99-1.42-14.87-.88-2.32-2.16-3.48-3.85-3.48h-1.48Z"/>
        <path class="cls-3" d="M175.33,26.83l11.23-5.17v25.31l3.69.79c.32,0,.58.16.79.47.25.39.25.7,0,.95-.21.21-.47.32-.79.32h-13.82c-.56,0-.84-.27-.84-.82s.25-.82.74-.82l3.11-1.11v-18.62l-4.11-1.32ZM178.87,11.69c.63-1.34,1.71-2.06,3.22-2.16,1.34-.11,2.43.46,3.27,1.69.63.92.96,1.93.98,3.06.02,1.13-.26,2.2-.82,3.22-.84,1.02-1.86,1.56-3.06,1.63-1.27.07-2.36-.39-3.27-1.37-.95-2-1.05-4.03-.32-6.06Z"/>
        <path class="cls-3" d="M196.58,22.87l11.13-2.79v4.59c-.84-1.55-.61-2.79.71-3.74s2.73-1.37,4.25-1.27c1.76-.03,3.26.73,4.51,2.29,1.25,1.56,1.91,3.49,1.98,5.77v18.67l1.21.95c.42-.14.88,0,1.37.42.28.39.25.81-.11,1.27-.6.28-1.14.37-1.63.26h-8.02c-.46,0-.9-.09-1.32-.26-.21-.32-.28-.69-.21-1.11.28-.39.69-.58,1.21-.58l1.37-.95v-18.67c0-1.34-.26-2.48-.79-3.43-.35-.81-.77-1.12-1.27-.95-.84.21-1.57.86-2.19,1.95-.62,1.09-.98,2.41-1.08,3.96v17.14l.79.69c.95.18,1.3.6,1.05,1.27,0,.53-.49.84-1.48.95h-7.38c-.49,0-.89-.11-1.19-.32-.3-.21-.43-.46-.4-.74-.18-.6.21-.98,1.16-1.16l1.11-.69v-22.04l-4.8-1.48Z"/>
        <path class="cls-3" d="M231.39,36.69c-.04,1.44.27,2.95.92,4.54.65,1.58,1.59,2.92,2.82,4.01,1.97,1.05,4.08,1.34,6.33.87,2.25-.47,4.61-1.82,7.07-4.03-2.04,2.95-4.16,4.96-6.35,6.01-2.2,1.05-4.53,1.46-6.99,1.21-2.85-.46-5.23-1.9-7.15-4.32-1.92-2.43-2.84-5.17-2.77-8.23.03-2.25.55-4.34,1.56-6.28,1-1.93,2.4-3.51,4.19-4.75,1.86-1.37,3.93-2.03,6.2-1.98s4.35.78,6.25,2.19c1.48,1.23,2.62,2.75,3.43,4.56.81,1.81,1.18,3.88,1.11,6.2h-16.61ZM231.39,34.37h11.23c.28-1.97-.26-3.8-1.63-5.48-.88-1.16-2.04-1.76-3.48-1.79-1.37-.14-2.58.33-3.64,1.42-1.51,1.72-2.34,3.67-2.48,5.85Z"/>
        <path class="cls-3" d="M263.56,24.98c.39-.95,1.44-2.34,3.16-4.17,1.19-.91,2.55-1.19,4.06-.84,2.32.81,4.18,2.41,5.59,4.8l-4.64,6.96c-.81-2.57-1.81-4.5-3.01-5.8-.18-.25-.37-.37-.58-.37s-.44.12-.69.37c-1.76,1.48-3.06,3.34-3.9,5.59v14.66l2.21.84c.32,0,.6.18.84.53.32.42.32.84,0,1.27-.25.32-.58.47-1,.47h-10.34c-.6,0-1.02-.3-1.27-.9-.07-.67.25-1.12.95-1.37l2.06-.84v-21.62l-4.75-.95,11.29-4.59v5.96Z"/>
        <path class="cls-3" d="M300.52,21.03l.74,8.38c-2.21-2.99-4.11-5.03-5.7-6.12-1.58-1.09-3.3-1.65-5.17-1.69-.6,0-1.15.2-1.66.61-.51.4-.85.94-1.03,1.61-.18.74-.15,1.44.08,2.11.23.67.59,1.2,1.08,1.58l10.07,5.17c1.48,1.2,2.52,2.66,3.14,4.4.61,1.74.71,3.53.29,5.35-.35,1.86-1.18,3.45-2.48,4.75s-2.81,2.08-4.54,2.32c-4.43.53-8.89.35-13.39-.53l-1.63-12.29c2.53,4.18,5.03,7.08,7.49,8.7,2.11,1.2,4.22,1.34,6.33.42,1.16-.63,1.76-1.76,1.79-3.38.07-1.55-.46-2.76-1.58-3.64l-10.81-5.43c-1.09-.67-1.92-1.59-2.48-2.77-.56-1.18-.81-2.42-.74-3.72.03-1.34.38-2.58,1.03-3.72.65-1.14,1.54-2,2.66-2.56,2.53-1.51,5.23-2.25,8.09-2.21,2.87.04,5.67.92,8.41,2.64Z"/>
      </g>
    </g>
  </g>
</svg>