<?xml version="1.0" encoding="UTF-8"?>
<svg id="_レイヤー_2" data-name="レイヤー 2" xmlns="http://www.w3.org/2000/svg" xmlns:xlink="http://www.w3.org/1999/xlink" viewBox="0 0 227.4 68.31">
  <defs>
    <style>
      .cls-1 {
        fill: #fff;
      }

      .cls-2 {
        fill: url(#_名称未設定グラデーション_120-4);
      }

      .cls-3 {
        fill: url(#_名称未設定グラデーション_120-2);
      }

      .cls-4 {
        fill: url(#_名称未設定グラデーション_120-3);
      }

      .cls-5 {
        fill: url(#_名称未設定グラデーション_120);
      }

      .cls-6 {
        fill: none;
        stroke: #000;
        stroke-width: 6px;
      }
    </style>
    <linearGradient id="_名称未設定グラデーション_120" data-name="名称未設定グラデーション 120" x1="32.68" y1="68.31" x2="32.68" y2="0" gradientUnits="userSpaceOnUse">
      <stop offset="0" stop-color="#945700"/>
      <stop offset=".19" stop-color="#e9a900"/>
      <stop offset=".29" stop-color="#f5f8b4"/>
      <stop offset=".4" stop-color="#e9a900"/>
      <stop offset="1" stop-color="#fff87f"/>
    </linearGradient>
    <linearGradient id="_名称未設定グラデーション_120-2" data-name="名称未設定グラデーション 120" x1="86.92" x2="86.92" xlink:href="#_名称未設定グラデーション_120"/>
    <linearGradient id="_名称未設定グラデーション_120-3" data-name="名称未設定グラデーション 120" x1="140.87" x2="140.87" xlink:href="#_名称未設定グラデーション_120"/>
    <linearGradient id="_名称未設定グラデーション_120-4" data-name="名称未設定グラデーション 120" x1="194.85" x2="194.85" xlink:href="#_名称未設定グラデーション_120"/>
  </defs>
  <g id="_レイヤー_1-2" data-name="レイヤー 1">
    <g>
      <g>
        <path class="cls-1" d="M18.05,12.8c1.55-.91,3.09-1.56,4.64-1.95,2.92-.42,5.55.16,7.91,1.74.49.46.78,1.01.87,1.66.09.65-.06,1.26-.45,1.82-.81,1.23-1.39,2.55-1.74,3.96l3.38-1.16c.91-.39,1.76-.28,2.53.32l2.11,1.74c.56.6.83,1.33.79,2.19-.04.86-.35,1.57-.95,2.14-2.71,1.79-5.64,2.94-8.81,3.43-.63,2.04-.86,4.18-.69,6.43,3.55-2,7.35-3.25,11.39-3.74,2.43-.35,4.76-.06,7.01.87,2.25.93,4.13,2.37,5.64,4.3,1.05,1.69,1.63,3.5,1.71,5.43.09,1.93-.31,3.78-1.19,5.54-1.34,2.5-3.19,4.47-5.56,5.93s-4.98,2.19-7.83,2.19c-3.13.25-5.71-.86-7.75-3.32-1.23-1.72-1.48-3.62-.74-5.7l1.21-3.48.16,3.32c.11.95.45,1.79,1.03,2.53s1.33,1.23,2.24,1.48c1.69.25,3.32,0,4.9-.71,1.58-.72,2.85-1.8,3.8-3.24,1.79-2.46,2.23-5.17,1.32-8.12-.21-.98-.76-1.76-1.63-2.32-.88-.56-1.81-.76-2.79-.58-5.2,1.16-9.63,3.67-13.29,7.54-.25,2.74.11,5.4,1.05,7.96.53,1.51.35,2.92-.53,4.22-1.02,1.69-2.44,2.99-4.27,3.9-.98.32-1.74.09-2.27-.69-.56-1.02-.76-2.09-.58-3.22-.6-1.19-1.56-1.65-2.9-1.37-.88.84-1.92,1.12-3.11.84-1.3-.35-2.53-.81-3.69-1.37-1.09-.67-1.9-1.58-2.43-2.74s-.69-2.35-.47-3.59c1.62.42,3.22.23,4.8-.58l8.02-6.12c-.39-3.38-.37-6.91.05-10.6l-2.74-.11c-1.86-.07-3.48-.77-4.85-2.11-1.37-1.34-2.13-2.93-2.27-4.8,1.51,1.05,3.2,1.65,5.06,1.79,1.86.14,3.62-.21,5.27-1.05l.32-7.54c-.21-.84-.66-1.55-1.34-2.11-.69-.56-1.47-.88-2.35-.95ZM21.48,48.34l-2.32,2.69,2.58.32-.26-3.01ZM40.1,22.66c2.32-2,5.01-2.88,8.07-2.64,2.99.28,5.48,1.55,7.49,3.8.95,1.05,1.5,2.27,1.66,3.64s-.1,2.67-.76,3.9c-.32.77-.88,1.21-1.69,1.32-.81.18-1.51-.03-2.11-.63-2.21-1.9-4.76-2.74-7.65-2.53l1.85-1.63c.49-.32.63-.77.42-1.37-.39-1.12-1.07-2.04-2.06-2.74-1.69-.95-3.43-1.32-5.22-1.11Z"/>
        <path class="cls-1" d="M63.62,9.53l7.49,1.79h6.22l1.58-2c.46-.49.98-.56,1.58-.21l5.48,3.38c.18.14.3.35.37.63,0,.28-.07.53-.21.74l-1.16,1.27v12.45c0,.63-.3,1.02-.9,1.16l-5.54,1.48c-.39.14-.72.07-1-.21-.39-.21-.54-.53-.47-.95v-1.58h-5.8v29.11c-.07.63-.4,1.05-1,1.27l-5.01,1.37c-.42.14-.81.07-1.16-.21-.39-.35-.54-.74-.47-1.16V9.53ZM71.26,14.06v3.59h5.8v-3.59h-5.8ZM71.26,20.71v3.9h5.8v-3.9h-5.8ZM75.22,31.78l7.28,1.79h6.96l1.27-2c.56-.63,1.2-.74,1.9-.32l5.17,3.06c.39.14.54.46.47.95.07.49-.09.81-.47.95l-1.05,1.05v10.02c-.14.63-.53,1.05-1.16,1.27l-5.12,1.48c-.39.07-.7.04-.95-.11-.28-.21-.42-.46-.42-.74v-1.79h-6.22v1.48c0,.7-.32,1.13-.95,1.27l-5.38,1.16c-.32.14-.62.07-.9-.21-.28-.14-.42-.39-.42-.74v-18.56ZM82.87,36.42v8.23h6.22v-8.23h-6.22ZM87.51,9.74l7.54,2h6.33l1.37-2.21c.18-.35.4-.53.69-.53.35-.14.65-.11.9.11l5.43,3.59c.21.14.37.39.47.74,0,.28-.11.49-.32.63l-1.11,1.27v38.18c-.28,1.97-1.21,3.45-2.79,4.43-1.51,1.19-3.22,1.62-5.12,1.27-1.2-.14-1.99-.77-2.37-1.9-1.16-2.95-3.18-4.92-6.06-5.91,2.5-.14,4.85.04,7.07.53.39.07.74-.03,1.05-.32.32-.28.44-.63.37-1.05v-23.1h-5.64c-.11.63-.49,1.09-1.16,1.37l-5.06.95c-.35.21-.69.18-1-.11-.39-.14-.58-.42-.58-.84V9.74ZM95.31,14.06v3.59h5.64v-3.59h-5.64ZM100.95,24.61v-3.9h-5.64v3.9h5.64Z"/>
        <path class="cls-1" d="M135.39,8l9.6,4.38c.42.21.63.51.63.9,0,.42-.18.72-.53.9l-1.69.84c6.68,7.38,14.8,12.55,24.36,15.5-3.73.95-6.64,2.99-8.75,6.12-2.39-1.48-4.54-3.08-6.43-4.8h-23.84c-4.43,3.16-9.35,5.56-14.77,7.17,10.12-8.37,17.26-18.7,21.41-31.01ZM123.05,36.58l8.54,2.74h17.19l2.32-2.74c.28-.32.6-.51.95-.58.49-.07.88.04,1.16.32l5.7,4.38c.14.25.21.49.21.74,0,.28-.11.51-.32.69l-1.79,1.58v13.34c0,1.02-.46,1.67-1.37,1.95l-5.8,1.32c-.42,0-.74-.12-.95-.37-.35-.28-.53-.6-.53-.95v-1.42h-16.77v.37c0,.74-.32,1.16-.95,1.27l-6.01.84c-.49,0-.88-.16-1.16-.47-.28-.35-.42-.74-.42-1.16v-21.83ZM131.59,42.54v12.23h16.77v-12.23h-16.77ZM142.14,16.91c-2.67,4.61-6.01,8.65-10.02,12.13h12.45l2.43-3.53c-1.9-2.53-3.52-5.4-4.85-8.6Z"/>
        <path class="cls-1" d="M178.79,17.49c2.04-.98,4.18-1.32,6.43-1,2.25.32,4.22,1.21,5.91,2.69.53.53.81,1.16.84,1.9.03.74-.19,1.39-.69,1.95-.53.56-.81,1.2-.84,1.9v4.54c2.95-1.41,6.28-2.76,9.97-4.06.18-3.51-.02-7.28-.58-11.29-.18-.67-.56-1.21-1.16-1.63-.6-.42-1.23-.61-1.9-.58.88-1.37,2.16-2.06,3.85-2.06,3.3,0,6.2,1.11,8.7,3.32.77.81.81,1.65.11,2.53l-1.05,1.79-.05,5.22,4.8-1.21c1.41-.11,2.7.25,3.88,1.05,1.18.81,1.94,1.88,2.29,3.22.18.56.14,1.1-.11,1.61-.25.51-.63.87-1.16,1.08-3.34.77-6.66,1.39-9.97,1.85l-.9,7.7c-.14,1.79-.77,3.48-1.9,5.06-1.3,1.86-3.09,2.76-5.38,2.69-1.13,0-1.79-.53-2-1.58-.98-2.99-2.85-5.25-5.59-6.8l5.22,1.32c.6.14,1.14.05,1.63-.26.46-.35.74-.83.84-1.42l-.11-5.06c-3.55,1.37-6.79,2.88-9.7,4.54l.21,7.28c-.04,1.44.33,2.79,1.11,4.03.77,1.25,1.83,2.17,3.16,2.77,2.11.56,4.18.46,6.22-.32l5.59-2.06c1.12-.49,2.27-.44,3.43.16,1.44.74,2.65,1.48,3.64,2.21.7.46,1.05,1.09,1.05,1.9s-.35,1.44-1.05,1.9c-4.32,2.67-9,4.04-14.03,4.11-4.68.07-8.74-1.58-12.18-4.96-2.81-3.69-4.17-7.82-4.06-12.39l-2.16,1.53c-1.16.77-2.41,1.02-3.74.74-3.27-1.37-5.62-3.62-7.07-6.75,2.71.81,5.31.6,7.8-.63l4.48-2.64c-.53-3.8-.93-8-1.21-12.6-.18-1.62-1.04-2.71-2.58-3.27Z"/>
      </g>
      <g>
        <path class="cls-5" d="M22.74,67.24c-3.26,0-6.21-1.57-8.08-4.31-.04-.06-.09-.13-.13-.19-.56-.05-1.13-.14-1.69-.27-.08-.02-.17-.04-.25-.06-1.77-.48-3.49-1.12-5.1-1.9-.23-.11-.46-.24-.69-.38-2.44-1.49-4.35-3.65-5.53-6.26-1.18-2.6-1.56-5.45-1.08-8.25.38-2.21,1.67-4.16,3.55-5.37,1.3-.84,2.81-1.28,4.34-1.28.4,0,.81.03,1.21.09l3.34-2.55s0-.06,0-.1c-1.78-.74-3.42-1.82-4.86-3.23-2.76-2.69-4.37-6.12-4.66-9.92-.23-3.08,1.33-6.02,4.01-7.55.99-.56,2.06-.9,3.15-1.01,0-.04-.02-.07-.03-.11-.78-3.4.73-6.91,3.73-8.68,2.2-1.3,4.48-2.25,6.77-2.82.26-.07.53-.12.8-.16.99-.14,1.98-.22,2.95-.22,3.82,0,7.37,1.09,10.56,3.23.35.23.68.49.98.78,1.63,1.51,2.72,3.41,3.19,5.53.29.18.57.38.85.59.07.05.43.35.43.35,2.1-.81,4.34-1.22,6.66-1.22.54,0,1.08.02,1.63.07.04,0,.08,0,.11.01,4.98.47,9.37,2.7,12.71,6.44,2.02,2.25,3.29,5.04,3.64,8.04.33,2.87-.19,5.73-1.51,8.31-.66,1.42-1.6,2.63-2.76,3.57.22,1.04.36,2.09.41,3.17.15,3.3-.53,6.49-2.02,9.48-.03.07-.07.13-.1.2-2.01,3.75-4.84,6.77-8.43,8.98-3.56,2.19-7.5,3.32-11.72,3.37-.38.02-.76.04-1.14.04-2.07,0-4.04-.35-5.87-1.03-1.42,1.46-3.1,2.68-5,3.63-.37.18-.74.34-1.13.46-1.08.35-2.17.52-3.25.52Z"/>
        <path class="cls-3" d="M102.16,67.32c-.82,0-1.65-.07-2.48-.21-4.03-.57-7.23-3.15-8.63-6.97-.35-.84-.68-1.01-1.17-1.17-.86-.29-1.65-.72-2.33-1.26-.54-.15-1.06-.36-1.56-.61-.72.37-1.5.66-2.34.84l-4.72,1.02c-.82,2.97-3.02,5.36-6,6.41-.18.06-.37.12-.55.17l-4.89,1.34c-.86.26-1.75.39-2.64.39-2.1,0-4.08-.7-5.75-2.03-.13-.1-.26-.21-.38-.33-2.13-1.94-3.25-4.65-3.09-7.42V9.53c0-2.45,1.12-4.76,3.05-6.28,1.43-1.12,3.17-1.72,4.96-1.72.62,0,1.25.07,1.86.22l6.57,1.57h1.55c1.71-1.58,3.88-2.43,6.18-2.43,1.64,0,3.29.46,4.76,1.32.04.02.07.04.1.06.91-.35,1.88-.53,2.86-.53.69,0,1.38.09,2.05.27l6.53,1.74h1.04c1.22-1.3,2.79-2.19,4.51-2.55.72-.18,1.45-.27,2.18-.27,1.83,0,3.62.58,5.1,1.64l5.24,3.46c1.27.84,2.91,2.4,3.73,5.11.23.75.34,1.52.34,2.3,0,1.74-.51,3.41-1.42,4.81v35.27c0,.38-.03.76-.08,1.13-.59,4.13-2.75,7.61-6.1,9.84-2.5,1.86-5.41,2.84-8.46,2.84Z"/>
        <path class="cls-4" d="M149.84,68.31c-2.5,0-4.76-.91-6.46-2.57-.06-.06-.12-.12-.19-.18h-7.46c-1.09.76-2.36,1.29-3.77,1.53-.07.01-6.22.88-6.22.88-.37.05-.74.08-1.11.08-2.79,0-5.33-1.12-7.14-3.16-.09-.1-.18-.2-.26-.31-1.43-1.78-2.18-3.91-2.18-6.17v-11.48c-.36.05-.72.07-1.07.07-2.89,0-5.64-1.58-7.06-4.23-1.79-3.36-.97-7.51,1.96-9.93,9.04-7.47,15.23-16.43,18.92-27.4.72-2.15,2.32-3.88,4.4-4.78,1.02-.44,2.1-.66,3.18-.66s2.27.24,3.32.72l9.6,4.38c.09.04.17.08.26.12,3.12,1.56,5.06,4.64,5.06,8.05,0,.18,0,.37-.02.55,4.78,4.13,10.24,7.11,16.52,9.05,3.42,1.06,5.73,4.26,5.64,7.84s-2.55,6.67-6.02,7.55c-1.12.29-2.03.73-2.8,1.37.12.59.18,1.19.18,1.79,0,2.13-.75,4.16-2.11,5.76v9.85c0,4.51-2.75,8.28-7.01,9.6-.19.06-.39.11-.59.16l-5.8,1.32c-.58.13-1.18.2-1.77.2Z"/>
        <path class="cls-2" d="M199.23,66.47c-6.61,0-12.66-2.5-17.49-7.24-.28-.27-.53-.56-.76-.87-1.67-2.19-2.97-4.5-3.91-6.93-.45-.05-.9-.12-1.35-.21-.49-.1-.98-.25-1.44-.45-5.09-2.13-8.97-5.86-11.24-10.78-1.31-2.86-.84-6.22,1.23-8.59,1.54-1.78,3.76-2.76,6.04-2.76.76,0,1.54.11,2.29.34.32.1.62.15.88.15.13,0,.31-.01.54-.08-.18-1.77-.34-3.61-.48-5.51-1.61-1.4-2.63-3.42-2.74-5.63-.16-3.21,1.62-6.21,4.51-7.61,2.63-1.27,5.42-1.91,8.29-1.91.9,0,1.82.06,2.74.19,1,.14,1.97.35,2.91.63.2-.56.46-1.1.79-1.61,2.34-3.65,6.2-5.74,10.59-5.74,5.23,0,10.07,1.85,14.01,5.34.17.15.33.3.48.46,1.79,1.88,2.73,4.19,2.81,6.53,1.27.42,2.48,1.01,3.6,1.79,2.72,1.87,4.61,4.5,5.46,7.63.71,2.43.5,5-.59,7.27-1.11,2.3-3.03,4.09-5.4,5.04-.38.15-.77.27-1.17.37-1.51.35-3.02.67-4.52.96l-.19,1.59c-.09,1.01-.26,2-.52,2.97,1.34.73,2.52,1.48,3.57,2.25,2.82,1.95,4.42,5,4.42,8.42s-1.71,6.67-4.7,8.61c-.05.03-.1.06-.15.09-5.55,3.43-11.65,5.21-18.12,5.31h-.4Z"/>
      </g>
      <g>
        <path class="cls-6" d="M18.05,12.8c1.55-.91,3.09-1.56,4.64-1.95,2.92-.42,5.55.16,7.91,1.74.49.46.78,1.01.87,1.66.09.65-.06,1.26-.45,1.82-.81,1.23-1.39,2.55-1.74,3.96l3.38-1.16c.91-.39,1.76-.28,2.53.32l2.11,1.74c.56.6.83,1.33.79,2.19-.04.86-.35,1.57-.95,2.14-2.71,1.79-5.64,2.94-8.81,3.43-.63,2.04-.86,4.18-.69,6.43,3.55-2,7.35-3.25,11.39-3.74,2.43-.35,4.76-.06,7.01.87,2.25.93,4.13,2.37,5.64,4.3,1.05,1.69,1.63,3.5,1.71,5.43.09,1.93-.31,3.78-1.19,5.54-1.34,2.5-3.19,4.47-5.56,5.93s-4.98,2.19-7.83,2.19c-3.13.25-5.71-.86-7.75-3.32-1.23-1.72-1.48-3.62-.74-5.7l1.21-3.48.16,3.32c.11.95.45,1.79,1.03,2.53s1.33,1.23,2.24,1.48c1.69.25,3.32,0,4.9-.71,1.58-.72,2.85-1.8,3.8-3.24,1.79-2.46,2.23-5.17,1.32-8.12-.21-.98-.76-1.76-1.63-2.32-.88-.56-1.81-.76-2.79-.58-5.2,1.16-9.63,3.67-13.29,7.54-.25,2.74.11,5.4,1.05,7.96.53,1.51.35,2.92-.53,4.22-1.02,1.69-2.44,2.99-4.27,3.9-.98.32-1.74.09-2.27-.69-.56-1.02-.76-2.09-.58-3.22-.6-1.19-1.56-1.65-2.9-1.37-.88.84-1.92,1.12-3.11.84-1.3-.35-2.53-.81-3.69-1.37-1.09-.67-1.9-1.58-2.43-2.74s-.69-2.35-.47-3.59c1.62.42,3.22.23,4.8-.58l8.02-6.12c-.39-3.38-.37-6.91.05-10.6l-2.74-.11c-1.86-.07-3.48-.77-4.85-2.11-1.37-1.34-2.13-2.93-2.27-4.8,1.51,1.05,3.2,1.65,5.06,1.79,1.86.14,3.62-.21,5.27-1.05l.32-7.54c-.21-.84-.66-1.55-1.34-2.11-.69-.56-1.47-.88-2.35-.95ZM21.48,48.34l-2.32,2.69,2.58.32-.26-3.01ZM40.1,22.66c2.32-2,5.01-2.88,8.07-2.64,2.99.28,5.48,1.55,7.49,3.8.95,1.05,1.5,2.27,1.66,3.64s-.1,2.67-.76,3.9c-.32.77-.88,1.21-1.69,1.32-.81.18-1.51-.03-2.11-.63-2.21-1.9-4.76-2.74-7.65-2.53l1.85-1.63c.49-.32.63-.77.42-1.37-.39-1.12-1.07-2.04-2.06-2.74-1.69-.95-3.43-1.32-5.22-1.11Z"/>
        <path class="cls-6" d="M63.62,9.53l7.49,1.79h6.22l1.58-2c.46-.49.98-.56,1.58-.21l5.48,3.38c.18.14.3.35.37.63,0,.28-.07.53-.21.74l-1.16,1.27v12.45c0,.63-.3,1.02-.9,1.16l-5.54,1.48c-.39.14-.72.07-1-.21-.39-.21-.54-.53-.47-.95v-1.58h-5.8v29.11c-.07.63-.4,1.05-1,1.27l-5.01,1.37c-.42.14-.81.07-1.16-.21-.39-.35-.54-.74-.47-1.16V9.53ZM71.26,14.06v3.59h5.8v-3.59h-5.8ZM71.26,20.71v3.9h5.8v-3.9h-5.8ZM75.22,31.78l7.28,1.79h6.96l1.27-2c.56-.63,1.2-.74,1.9-.32l5.17,3.06c.39.14.54.46.47.95.07.49-.09.81-.47.95l-1.05,1.05v10.02c-.14.63-.53,1.05-1.16,1.27l-5.12,1.48c-.39.07-.7.04-.95-.11-.28-.21-.42-.46-.42-.74v-1.79h-6.22v1.48c0,.7-.32,1.13-.95,1.27l-5.38,1.16c-.32.14-.62.07-.9-.21-.28-.14-.42-.39-.42-.74v-18.56ZM82.87,36.42v8.23h6.22v-8.23h-6.22ZM87.51,9.74l7.54,2h6.33l1.37-2.21c.18-.35.4-.53.69-.53.35-.14.65-.11.9.11l5.43,3.59c.21.14.37.39.47.74,0,.28-.11.49-.32.63l-1.11,1.27v38.18c-.28,1.97-1.21,3.45-2.79,4.43-1.51,1.19-3.22,1.62-5.12,1.27-1.2-.14-1.99-.77-2.37-1.9-1.16-2.95-3.18-4.92-6.06-5.91,2.5-.14,4.85.04,7.07.53.39.07.74-.03,1.05-.32.32-.28.44-.63.37-1.05v-23.1h-5.64c-.11.63-.49,1.09-1.16,1.37l-5.06.95c-.35.21-.69.18-1-.11-.39-.14-.58-.42-.58-.84V9.74ZM95.31,14.06v3.59h5.64v-3.59h-5.64ZM100.95,24.61v-3.9h-5.64v3.9h5.64Z"/>
        <path class="cls-6" d="M135.39,8l9.6,4.38c.42.21.63.51.63.9,0,.42-.18.72-.53.9l-1.69.84c6.68,7.38,14.8,12.55,24.36,15.5-3.73.95-6.64,2.99-8.75,6.12-2.39-1.48-4.54-3.08-6.43-4.8h-23.84c-4.43,3.16-9.35,5.56-14.77,7.17,10.12-8.37,17.26-18.7,21.41-31.01ZM123.05,36.58l8.54,2.74h17.19l2.32-2.74c.28-.32.6-.51.95-.58.49-.07.88.04,1.16.32l5.7,4.38c.14.25.21.49.21.74,0,.28-.11.51-.32.69l-1.79,1.58v13.34c0,1.02-.46,1.67-1.37,1.95l-5.8,1.32c-.42,0-.74-.12-.95-.37-.35-.28-.53-.6-.53-.95v-1.42h-16.77v.37c0,.74-.32,1.16-.95,1.27l-6.01.84c-.49,0-.88-.16-1.16-.47-.28-.35-.42-.74-.42-1.16v-21.83ZM131.59,42.54v12.23h16.77v-12.23h-16.77ZM142.14,16.91c-2.67,4.61-6.01,8.65-10.02,12.13h12.45l2.43-3.53c-1.9-2.53-3.52-5.4-4.85-8.6Z"/>
        <path class="cls-6" d="M178.79,17.49c2.04-.98,4.18-1.32,6.43-1,2.25.32,4.22,1.21,5.91,2.69.53.53.81,1.16.84,1.9.03.74-.19,1.39-.69,1.95-.53.56-.81,1.2-.84,1.9v4.54c2.95-1.41,6.28-2.76,9.97-4.06.18-3.51-.02-7.28-.58-11.29-.18-.67-.56-1.21-1.16-1.63-.6-.42-1.23-.61-1.9-.58.88-1.37,2.16-2.06,3.85-2.06,3.3,0,6.2,1.11,8.7,3.32.77.81.81,1.65.11,2.53l-1.05,1.79-.05,5.22,4.8-1.21c1.41-.11,2.7.25,3.88,1.05,1.18.81,1.94,1.88,2.29,3.22.18.56.14,1.1-.11,1.61-.25.51-.63.87-1.16,1.08-3.34.77-6.66,1.39-9.97,1.85l-.9,7.7c-.14,1.79-.77,3.48-1.9,5.06-1.3,1.86-3.09,2.76-5.38,2.69-1.13,0-1.79-.53-2-1.58-.98-2.99-2.85-5.25-5.59-6.8l5.22,1.32c.6.14,1.14.05,1.63-.26.46-.35.74-.83.84-1.42l-.11-5.06c-3.55,1.37-6.79,2.88-9.7,4.54l.21,7.28c-.04,1.44.33,2.79,1.11,4.03.77,1.25,1.83,2.17,3.16,2.77,2.11.56,4.18.46,6.22-.32l5.59-2.06c1.12-.49,2.27-.44,3.43.16,1.44.74,2.65,1.48,3.64,2.21.7.46,1.05,1.09,1.05,1.9s-.35,1.44-1.05,1.9c-4.32,2.67-9,4.04-14.03,4.11-4.68.07-8.74-1.58-12.18-4.96-2.81-3.69-4.17-7.82-4.06-12.39l-2.16,1.53c-1.16.77-2.41,1.02-3.74.74-3.27-1.37-5.62-3.62-7.07-6.75,2.71.81,5.31.6,7.8-.63l4.48-2.64c-.53-3.8-.93-8-1.21-12.6-.18-1.62-1.04-2.71-2.58-3.27Z"/>
      </g>
      <g>
        <path class="cls-1" d="M18.05,12.8c1.55-.91,3.09-1.56,4.64-1.95,2.92-.42,5.55.16,7.91,1.74.49.46.78,1.01.87,1.66.09.65-.06,1.26-.45,1.82-.81,1.23-1.39,2.55-1.74,3.96l3.38-1.16c.91-.39,1.76-.28,2.53.32l2.11,1.74c.56.6.83,1.33.79,2.19-.04.86-.35,1.57-.95,2.14-2.71,1.79-5.64,2.94-8.81,3.43-.63,2.04-.86,4.18-.69,6.43,3.55-2,7.35-3.25,11.39-3.74,2.43-.35,4.76-.06,7.01.87,2.25.93,4.13,2.37,5.64,4.3,1.05,1.69,1.63,3.5,1.71,5.43.09,1.93-.31,3.78-1.19,5.54-1.34,2.5-3.19,4.47-5.56,5.93s-4.98,2.19-7.83,2.19c-3.13.25-5.71-.86-7.75-3.32-1.23-1.72-1.48-3.62-.74-5.7l1.21-3.48.16,3.32c.11.95.45,1.79,1.03,2.53s1.33,1.23,2.24,1.48c1.69.25,3.32,0,4.9-.71,1.58-.72,2.85-1.8,3.8-3.24,1.79-2.46,2.23-5.17,1.32-8.12-.21-.98-.76-1.76-1.63-2.32-.88-.56-1.81-.76-2.79-.58-5.2,1.16-9.63,3.67-13.29,7.54-.25,2.74.11,5.4,1.05,7.96.53,1.51.35,2.92-.53,4.22-1.02,1.69-2.44,2.99-4.27,3.9-.98.32-1.74.09-2.27-.69-.56-1.02-.76-2.09-.58-3.22-.6-1.19-1.56-1.65-2.9-1.37-.88.84-1.92,1.12-3.11.84-1.3-.35-2.53-.81-3.69-1.37-1.09-.67-1.9-1.58-2.43-2.74s-.69-2.35-.47-3.59c1.62.42,3.22.23,4.8-.58l8.02-6.12c-.39-3.38-.37-6.91.05-10.6l-2.74-.11c-1.86-.07-3.48-.77-4.85-2.11-1.37-1.34-2.13-2.93-2.27-4.8,1.51,1.05,3.2,1.65,5.06,1.79,1.86.14,3.62-.21,5.27-1.05l.32-7.54c-.21-.84-.66-1.55-1.34-2.11-.69-.56-1.47-.88-2.35-.95ZM21.48,48.34l-2.32,2.69,2.58.32-.26-3.01ZM40.1,22.66c2.32-2,5.01-2.88,8.07-2.64,2.99.28,5.48,1.55,7.49,3.8.95,1.05,1.5,2.27,1.66,3.64s-.1,2.67-.76,3.9c-.32.77-.88,1.21-1.69,1.32-.81.18-1.51-.03-2.11-.63-2.21-1.9-4.76-2.74-7.65-2.53l1.85-1.63c.49-.32.63-.77.42-1.37-.39-1.12-1.07-2.04-2.06-2.74-1.69-.95-3.43-1.32-5.22-1.11Z"/>
        <path class="cls-1" d="M63.62,9.53l7.49,1.79h6.22l1.58-2c.46-.49.98-.56,1.58-.21l5.48,3.38c.18.14.3.35.37.63,0,.28-.07.53-.21.74l-1.16,1.27v12.45c0,.63-.3,1.02-.9,1.16l-5.54,1.48c-.39.14-.72.07-1-.21-.39-.21-.54-.53-.47-.95v-1.58h-5.8v29.11c-.07.63-.4,1.05-1,1.27l-5.01,1.37c-.42.14-.81.07-1.16-.21-.39-.35-.54-.74-.47-1.16V9.53ZM71.26,14.06v3.59h5.8v-3.59h-5.8ZM71.26,20.71v3.9h5.8v-3.9h-5.8ZM75.22,31.78l7.28,1.79h6.96l1.27-2c.56-.63,1.2-.74,1.9-.32l5.17,3.06c.39.14.54.46.47.95.07.49-.09.81-.47.95l-1.05,1.05v10.02c-.14.63-.53,1.05-1.16,1.27l-5.12,1.48c-.39.07-.7.04-.95-.11-.28-.21-.42-.46-.42-.74v-1.79h-6.22v1.48c0,.7-.32,1.13-.95,1.27l-5.38,1.16c-.32.14-.62.07-.9-.21-.28-.14-.42-.39-.42-.74v-18.56ZM82.87,36.42v8.23h6.22v-8.23h-6.22ZM87.51,9.74l7.54,2h6.33l1.37-2.21c.18-.35.4-.53.69-.53.35-.14.65-.11.9.11l5.43,3.59c.21.14.37.39.47.74,0,.28-.11.49-.32.63l-1.11,1.27v38.18c-.28,1.97-1.21,3.45-2.79,4.43-1.51,1.19-3.22,1.62-5.12,1.27-1.2-.14-1.99-.77-2.37-1.9-1.16-2.95-3.18-4.92-6.06-5.91,2.5-.14,4.85.04,7.07.53.39.07.74-.03,1.05-.32.32-.28.44-.63.37-1.05v-23.1h-5.64c-.11.63-.49,1.09-1.16,1.37l-5.06.95c-.35.21-.69.18-1-.11-.39-.14-.58-.42-.58-.84V9.74ZM95.31,14.06v3.59h5.64v-3.59h-5.64ZM100.95,24.61v-3.9h-5.64v3.9h5.64Z"/>
        <path class="cls-1" d="M135.39,8l9.6,4.38c.42.21.63.51.63.9,0,.42-.18.72-.53.9l-1.69.84c6.68,7.38,14.8,12.55,24.36,15.5-3.73.95-6.64,2.99-8.75,6.12-2.39-1.48-4.54-3.08-6.43-4.8h-23.84c-4.43,3.16-9.35,5.56-14.77,7.17,10.12-8.37,17.26-18.7,21.41-31.01ZM123.05,36.58l8.54,2.74h17.19l2.32-2.74c.28-.32.6-.51.95-.58.49-.07.88.04,1.16.32l5.7,4.38c.14.25.21.49.21.74,0,.28-.11.51-.32.69l-1.79,1.58v13.34c0,1.02-.46,1.67-1.37,1.95l-5.8,1.32c-.42,0-.74-.12-.95-.37-.35-.28-.53-.6-.53-.95v-1.42h-16.77v.37c0,.74-.32,1.16-.95,1.27l-6.01.84c-.49,0-.88-.16-1.16-.47-.28-.35-.42-.74-.42-1.16v-21.83ZM131.59,42.54v12.23h16.77v-12.23h-16.77ZM142.14,16.91c-2.67,4.61-6.01,8.65-10.02,12.13h12.45l2.43-3.53c-1.9-2.53-3.52-5.4-4.85-8.6Z"/>
        <path class="cls-1" d="M178.79,17.49c2.04-.98,4.18-1.32,6.43-1,2.25.32,4.22,1.21,5.91,2.69.53.53.81,1.16.84,1.9.03.74-.19,1.39-.69,1.95-.53.56-.81,1.2-.84,1.9v4.54c2.95-1.41,6.28-2.76,9.97-4.06.18-3.51-.02-7.28-.58-11.29-.18-.67-.56-1.21-1.16-1.63-.6-.42-1.23-.61-1.9-.58.88-1.37,2.16-2.06,3.85-2.06,3.3,0,6.2,1.11,8.7,3.32.77.81.81,1.65.11,2.53l-1.05,1.79-.05,5.22,4.8-1.21c1.41-.11,2.7.25,3.88,1.05,1.18.81,1.94,1.88,2.29,3.22.18.56.14,1.1-.11,1.61-.25.51-.63.87-1.16,1.08-3.34.77-6.66,1.39-9.97,1.85l-.9,7.7c-.14,1.79-.77,3.48-1.9,5.06-1.3,1.86-3.09,2.76-5.38,2.69-1.13,0-1.79-.53-2-1.58-.98-2.99-2.85-5.25-5.59-6.8l5.22,1.32c.6.14,1.14.05,1.63-.26.46-.35.74-.83.84-1.42l-.11-5.06c-3.55,1.37-6.79,2.88-9.7,4.54l.21,7.28c-.04,1.44.33,2.79,1.11,4.03.77,1.25,1.83,2.17,3.16,2.77,2.11.56,4.18.46,6.22-.32l5.59-2.06c1.12-.49,2.27-.44,3.43.16,1.44.74,2.65,1.48,3.64,2.21.7.46,1.05,1.09,1.05,1.9s-.35,1.44-1.05,1.9c-4.32,2.67-9,4.04-14.03,4.11-4.68.07-8.74-1.58-12.18-4.96-2.81-3.69-4.17-7.82-4.06-12.39l-2.16,1.53c-1.16.77-2.41,1.02-3.74.74-3.27-1.37-5.62-3.62-7.07-6.75,2.71.81,5.31.6,7.8-.63l4.48-2.64c-.53-3.8-.93-8-1.21-12.6-.18-1.62-1.04-2.71-2.58-3.27Z"/>
      </g>
    </g>
  </g>
</svg>