<?xml version="1.0" encoding="UTF-8"?>
<svg id="_レイヤー_2" data-name="レイヤー 2" xmlns="http://www.w3.org/2000/svg" xmlns:xlink="http://www.w3.org/1999/xlink" viewBox="0 0 419.66 59">
  <defs>
    <style>
      .cls-1 {
        fill: url(#_名称未設定グラデーション_120-5);
      }

      .cls-2 {
        fill: url(#_名称未設定グラデーション_120-6);
      }

      .cls-3 {
        fill: url(#_名称未設定グラデーション_120-12);
      }

      .cls-4 {
        fill: #fff;
      }

      .cls-5 {
        fill: url(#_名称未設定グラデーション_120-4);
      }

      .cls-6 {
        fill: url(#_名称未設定グラデーション_120-2);
      }

      .cls-7 {
        fill: url(#_名称未設定グラデーション_120-13);
      }

      .cls-8 {
        fill: url(#_名称未設定グラデーション_120-3);
      }

      .cls-9 {
        fill: url(#_名称未設定グラデーション_120-10);
      }

      .cls-10 {
        fill: url(#_名称未設定グラデーション_120);
      }

      .cls-11 {
        fill: url(#_名称未設定グラデーション_120-11);
      }

      .cls-12 {
        fill: url(#_名称未設定グラデーション_120-9);
      }

      .cls-13 {
        fill: none;
        stroke: #000;
        stroke-width: 6px;
      }

      .cls-14 {
        fill: url(#_名称未設定グラデーション_120-7);
      }

      .cls-15 {
        fill: url(#_名称未設定グラデーション_120-8);
      }
    </style>
    <linearGradient id="_名称未設定グラデーション_120" data-name="名称未設定グラデーション 120" x1="20.93" y1="58.93" x2="20.93" y2="0" gradientUnits="userSpaceOnUse">
      <stop offset="0" stop-color="#945700"/>
      <stop offset=".19" stop-color="#e9a900"/>
      <stop offset=".29" stop-color="#f5f8b4"/>
      <stop offset=".4" stop-color="#e9a900"/>
      <stop offset="1" stop-color="#fff87f"/>
    </linearGradient>
    <linearGradient id="_名称未設定グラデーション_120-2" data-name="名称未設定グラデーション 120" x1="47.96" x2="47.96" xlink:href="#_名称未設定グラデーション_120"/>
    <linearGradient id="_名称未設定グラデーション_120-3" data-name="名称未設定グラデーション 120" x1="75.38" x2="75.38" y2="0" xlink:href="#_名称未設定グラデーション_120"/>
    <linearGradient id="_名称未設定グラデーション_120-4" data-name="名称未設定グラデーション 120" x1="102.47" y1="58.9" x2="102.47" y2="-.02" xlink:href="#_名称未設定グラデーション_120"/>
    <linearGradient id="_名称未設定グラデーション_120-5" data-name="名称未設定グラデーション 120" x1="156.22" x2="156.22" xlink:href="#_名称未設定グラデーション_120"/>
    <linearGradient id="_名称未設定グラデーション_120-6" data-name="名称未設定グラデーション 120" x1="184.45" x2="184.45" xlink:href="#_名称未設定グラデーション_120"/>
    <linearGradient id="_名称未設定グラデーション_120-7" data-name="名称未設定グラデーション 120" x1="210.76" x2="210.76" xlink:href="#_名称未設定グラデーション_120"/>
    <linearGradient id="_名称未設定グラデーション_120-8" data-name="名称未設定グラデーション 120" x1="237.88" x2="237.88" xlink:href="#_名称未設定グラデーション_120"/>
    <linearGradient id="_名称未設定グラデーション_120-9" data-name="名称未設定グラデーション 120" x1="264.19" x2="264.19" xlink:href="#_名称未設定グラデーション_120"/>
    <linearGradient id="_名称未設定グラデーション_120-10" data-name="名称未設定グラデーション 120" x1="291.61" x2="291.61" xlink:href="#_名称未設定グラデーション_120"/>
    <linearGradient id="_名称未設定グラデーション_120-11" data-name="名称未設定グラデーション 120" x1="344.72" x2="344.72" y2="0" xlink:href="#_名称未設定グラデーション_120"/>
    <linearGradient id="_名称未設定グラデーション_120-12" data-name="名称未設定グラデーション 120" x1="372.01" x2="372.01" xlink:href="#_名称未設定グラデーション_120"/>
    <linearGradient id="_名称未設定グラデーション_120-13" data-name="名称未設定グラデーション 120" x1="398.98" x2="398.98" xlink:href="#_名称未設定グラデーション_120"/>
  </defs>
  <g id="_レイヤー_1-2" data-name="レイヤー 1">
    <g>
      <g>
        <path class="cls-4" d="M22.27,31.58l4.17-19.51-.16-.26c-1.2-.28-1.65-.93-1.37-1.95.46-1.02,1.27-1.39,2.43-1.11h4.22c.42-.07,1,.07,1.74.42.7.77.76,1.42.16,1.95-.46.46-.88.69-1.27.69l-.95.74-10.23,35.7L10.46,12.38l-.84-.69c-.56,0-1.09-.32-1.58-.95-.11-.63.02-1.14.37-1.53.56-.63,1.27-.79,2.11-.47h6.96c.39-.07,1.04.07,1.95.42.25.7.32,1.21.21,1.53-.28.67-.74,1-1.37,1l-.11.32,4.11,19.56Z"/>
        <path class="cls-4" d="M44.31,11.9l-3.53-1.69c-.39-.21-.51-.49-.37-.84.11-.39.35-.58.74-.58h13.71c.28-.14.52-.11.71.08.19.19.29.41.29.66,0,.63-.25.95-.74.95l-3.48,1.48v34.44l3.74,1.48c.42.14.69.4.79.79.18.49.07.86-.32,1.11-.39.25-.72.28-1,.11h-14.24c-.49,0-.8-.24-.92-.71s.04-.83.5-1.08l4.11-1.69V11.9Z"/>
        <path class="cls-4" d="M67.47,49.98c-1.37-3.34-2.44-6.71-3.22-10.12-.25-.63.04-1.12.84-1.48.84-.18,1.44,0,1.79.53,1.2,2.18,2.58,3.87,4.14,5.06,1.56,1.2,3.26,1.83,5.09,1.9.91.11,1.74-.24,2.48-1.03s1.3-1.87,1.69-3.24c.11-1.05.03-2.04-.24-2.95-.26-.91-.66-1.58-1.19-2l-11.76-9.6c-1.83-2.14-2.65-4.8-2.48-7.96.07-1.51.38-2.9.92-4.17s1.34-2.29,2.4-3.06c2.14-2.07,4.61-3.11,7.38-3.11s5.29,1.09,7.54,3.27c-.25-.11-.37-.02-.37.26l.37-.42c.25-.46.77-.61,1.58-.47.6.21.9.58.9,1.11l.53,6.7c.21.63-.05,1.09-.79,1.37-.7.28-1.3.12-1.79-.47-.81-2.25-1.93-4.04-3.38-5.38-1.02-.98-2.09-1.58-3.22-1.79s-2.2.04-3.22.74c-.98,1.02-1.44,2.53-1.37,4.54.04.95.19,1.79.47,2.53s.69,1.32,1.21,1.74l8.75,6.43c1.12.81,2.06,1.95,2.79,3.43s1.14,3.08,1.21,4.8c.21,3.52-.58,6.52-2.37,9.02-1.79,2.57-4.01,3.87-6.64,3.9-2.71.11-5.43-.32-8.17-1.27-.35-.32-.98.09-1.9,1.21Z"/>
        <path class="cls-4" d="M98.74,37.74l-2,9.97.47.74c.63,0,1.14.23,1.53.69.28.46.25.81-.11,1.05-.39.53-1.16.69-2.32.47h-4.85c-1.2,0-1.9-.26-2.11-.79-.21-.7.18-1.16,1.16-1.37l1.05-1.27,9.02-36.97c-.25-.42.04-.76.84-1,.91-.42,1.86-.42,2.85,0,.81.35,1.05.74.74,1.16l9.02,37.28.95.95c.6.42.79.88.58,1.37-.49.81-1.39,1.05-2.69.74h-6.49c-1.23-.21-1.85-.65-1.85-1.32s.46-1.05,1.37-1.16l.37-.69-1.9-9.86h-5.64ZM100.27,33.95l2.48-.11-1.27-11.92-1.21,12.02Z"/>
        <path class="cls-4" d="M156.32,34l5.96-24.31h4.75c.95-.46,1.42-.11,1.42,1.05.07.6-.12,1.02-.58,1.27l-1.11,1.32v33.17l.9.42c.67.39.88,1.04.63,1.95-.18.77-.65,1.11-1.42,1h-6.06c-.92.28-1.5-.05-1.74-1-.18-.81.11-1.41.84-1.79l1.42-.84v-23.2l-5.12,26.1c-.32.49-.69.74-1.13.74s-.85-.25-1.24-.74l-4.9-27.05v24.73l.53.53c.46,0,.69.35.69,1.05.07.11,0,.55-.21,1.32-.6.21-1.04.26-1.32.16h-3.22c-.67,0-1.11-.32-1.32-.95,0-1.05.26-1.58.79-1.58l.58-.58V13.17l-1-1c-.32-.32-.47-.91-.47-1.79.6-.63,1.14-.84,1.63-.63h5.17l5.54,24.26Z"/>
        <path class="cls-4" d="M186.59,32.21v-1.95c-.07-1.27-.62-2.23-1.63-2.9-.84-.42-1.69-.57-2.53-.45-.84.12-1.58.48-2.21,1.08-.92.92-1.23,2.13-.95,3.64l-5.75,1.74c.21-2.18.76-4,1.66-5.46.9-1.46,2.08-2.58,3.56-3.35,1.72-.84,3.51-1.18,5.35-1,1.85.18,3.52.86,5.04,2.06,2,1.44,3.04,3.46,3.11,6.06v12.81c-.07.88.25,1.55.95,2,.35.21.71.28,1.08.21.37-.07.96-.51,1.77-1.32-.42,1.83-1.06,3.08-1.92,3.77-.86.69-1.84.99-2.93.92-1.65-.04-2.95-.63-3.9-1.79-1.58.98-3.35,1.56-5.3,1.71s-3.88-.11-5.77-.82c-1.65-.98-2.72-2.5-3.22-4.54-.35-2.18.02-4.13,1.11-5.85,3.51-4.18,7.68-6.38,12.5-6.59ZM186.59,35.42c-1.62.56-3.27,1.28-4.96,2.16-.84.46-1.6,1.11-2.27,1.95-.56.77-.83,1.69-.79,2.74.03,1.05.39,1.93,1.05,2.64,1.05.81,2.21,1.27,3.48,1.37s2.43-.11,3.48-.63v-10.23Z"/>
        <path class="cls-4" d="M219.81,21.55l.74,8.38c-2.21-2.99-4.11-5.03-5.7-6.12-1.58-1.09-3.3-1.65-5.17-1.69-.6,0-1.15.2-1.66.61-.51.4-.85.94-1.03,1.61-.18.74-.15,1.44.08,2.11.23.67.59,1.2,1.08,1.58l10.07,5.17c1.48,1.2,2.52,2.66,3.14,4.4.61,1.74.71,3.53.29,5.35-.35,1.86-1.18,3.45-2.48,4.75s-2.81,2.08-4.54,2.32c-4.43.53-8.89.35-13.39-.53l-1.63-12.29c2.53,4.18,5.03,7.08,7.49,8.7,2.11,1.2,4.22,1.34,6.33.42,1.16-.63,1.76-1.76,1.79-3.38.07-1.55-.46-2.76-1.58-3.64l-10.81-5.43c-1.09-.67-1.92-1.59-2.48-2.77-.56-1.18-.81-2.42-.74-3.72.03-1.34.38-2.58,1.03-3.72.65-1.14,1.54-2,2.66-2.56,2.53-1.51,5.23-2.25,8.09-2.21,2.87.04,5.67.92,8.41,2.64Z"/>
        <path class="cls-4" d="M239.33,21.55h6.12v3.11h-6.12v18.4c.03.67.3,1.27.79,1.82.49.55,1.04.89,1.63,1.03,2.39.11,4.92-1.12,7.59-3.69-1.09,3.76-2.88,6.22-5.38,7.38-2.71.7-5.4.54-8.07-.47-1.23-.67-2.21-1.56-2.95-2.66s-1.13-2.35-1.16-3.72v-18.09h-5.38v-1.74c5.24-2.14,9.54-6.05,12.92-11.71v10.34Z"/>
        <path class="cls-4" d="M258.68,37.21c-.04,1.44.27,2.95.92,4.54.65,1.58,1.59,2.92,2.82,4.01,1.97,1.05,4.08,1.34,6.33.87,2.25-.47,4.61-1.82,7.07-4.03-2.04,2.95-4.16,4.96-6.35,6.01-2.2,1.05-4.53,1.46-6.99,1.21-2.85-.46-5.23-1.9-7.15-4.32-1.92-2.43-2.84-5.17-2.77-8.23.03-2.25.55-4.34,1.56-6.28,1-1.93,2.4-3.51,4.19-4.75,1.86-1.37,3.93-2.03,6.2-1.98s4.35.78,6.25,2.19c1.48,1.23,2.62,2.75,3.43,4.56.81,1.81,1.18,3.88,1.11,6.2h-16.61ZM258.68,34.89h11.23c.28-1.97-.26-3.8-1.63-5.48-.88-1.16-2.04-1.76-3.48-1.79-1.37-.14-2.58.33-3.64,1.42-1.51,1.72-2.34,3.67-2.48,5.85Z"/>
        <path class="cls-4" d="M290.85,25.51c.39-.95,1.44-2.34,3.16-4.17,1.19-.91,2.55-1.19,4.06-.84,2.32.81,4.18,2.41,5.59,4.8l-4.64,6.96c-.81-2.57-1.81-4.5-3.01-5.8-.18-.25-.37-.37-.58-.37s-.44.12-.69.37c-1.76,1.48-3.06,3.34-3.9,5.59v14.66l2.21.84c.32,0,.6.18.84.53.32.42.32.84,0,1.27-.25.32-.58.47-1,.47h-10.34c-.6,0-1.02-.3-1.27-.9-.07-.67.25-1.12.95-1.37l2.06-.84v-21.62l-4.75-.95,11.29-4.59v5.96Z"/>
        <path class="cls-4" d="M345.53,12.22l-2.64-1.48c-.42,0-.63-.26-.63-.79s.25-.79.74-.79h13.39c.56,0,.84.26.84.79s-.25.79-.74.79l-2.53,1.11v27.95c-.11,4.15-1.85,7.42-5.22,9.81-2,.95-4.08,1.19-6.22.74-4.08-.98-7.52-3.22-10.34-6.7,1.65-3.41,3.3-6.61,4.96-9.6,1.93,4.5,4.31,8.42,7.12,11.76.25.21.53.23.84.05.21-.03.35-.25.42-.63V12.22Z"/>
        <path class="cls-4" d="M383.92,25.46h-2.48c-.92-4.22-2.08-7.72-3.48-10.49-1.3-2.6-2.66-3.9-4.06-3.9-1.41.04-2.69,1.56-3.85,4.59-1.3,3.8-1.95,8.09-1.95,12.87,0,6.57.7,11.44,2.11,14.61,1.37,3.02,3.06,4.54,5.06,4.54,1.12,0,2.29-.77,3.48-2.32,1.16-1.34,2.2-3.87,3.11-7.59l2.9.79c-1.16,4.29-2.43,7.37-3.8,9.23-1.55,2.11-3.87,3.16-6.96,3.16-4.46,0-8.02-1.76-10.65-5.27-2.74-3.8-4.11-8.75-4.11-14.87,0-6.47,1.35-11.95,4.06-16.45,2.6-4.22,6.13-6.33,10.6-6.33,1.79,0,3.45.39,4.96,1.16,1.05.6,1.63.9,1.74.9v-.16c.07-.25.14-.88.21-1.9h2.58l.53,17.46Z"/>
        <path class="cls-4" d="M388.3,13.27c-.07-.81-.14-1.39-.21-1.74-.14-.25-.74-.37-1.79-.37v-2.64h11.55c4.5,0,7.59.83,9.28,2.48,1.83,1.72,2.74,4.11,2.74,7.17-.07,3.13-1.18,5.48-3.32,7.07-1.16,1.02-2.25,1.67-3.27,1.95,1.58.35,3.11,1.13,4.59,2.32,2.53,2.21,3.8,5.38,3.8,9.49-.07,3.55-.86,6.24-2.37,8.07-1.76,2.25-4.96,3.38-9.6,3.38h-13.39v-2.53c.95-.07,1.51-.28,1.69-.63.21-.39.32-.98.32-1.79V13.27ZM396.26,11.16v15.29h2.11c.88,0,1.67-.63,2.37-1.9.7-1.44,1.05-3.57,1.05-6.38,0-2.43-.33-4.17-1-5.22-.67-1.19-1.65-1.79-2.95-1.79h-1.58ZM396.26,29.09v18.83h2.21c1.55-.07,2.62-.88,3.22-2.43.6-1.41.9-3.57.9-6.49,0-3.87-.37-6.49-1.11-7.86-.7-1.37-1.74-2.06-3.11-2.06h-2.11Z"/>
      </g>
      <g>
        <path class="cls-10" d="M21.01,56.24c-3.55,0-6.67-2.34-7.67-5.74L3.66,17.62c-.7-.55-1.36-1.21-1.94-1.96-.82-1.05-1.36-2.29-1.58-3.6C-.36,9.03.49,6.04,2.48,3.84,4.33,1.76,6.91.59,9.72.59c.59,0,1.18.05,1.76.16h5.64c.19-.01.38-.02.57-.02,1.4,0,2.85.3,4.56.95,1.33-.67,2.82-1.03,4.39-1.03.46,0,.92.03,1.38.09h3.19c.19-.01.38-.02.58-.02,1.61,0,3.23.4,4.95,1.21.94.45,1.79,1.07,2.49,1.85,2.36,2.59,2.73,5.25,2.64,7.02-.13,2.33-1.15,4.49-2.89,6.12-.29.28-.58.54-.88.77l-9.39,32.76c-.98,3.42-4.1,5.78-7.66,5.8h-.03Z"/>
        <path class="cls-6" d="M55.24,57.98c-.46,0-.93-.04-1.38-.11h-13.24c-4.14,0-7.63-2.69-8.67-6.7-1.04-4.03.71-8.06,4.36-10.08v-24.23c-3.36-2.19-4.78-6.24-3.49-10.01,1.18-3.64,4.48-6.05,8.33-6.05h12.81c.41-.06.82-.09,1.23-.09,2.27,0,4.41.89,6.02,2.5,1.71,1.71,2.65,3.96,2.65,6.33,0,3.31-1.67,6.15-4.22,7.7v23.83c1.98,1.14,3.47,2.98,4.16,5.17,1.29,3.97-.16,8.08-3.66,10.29-1.49.95-3.2,1.46-4.91,1.46Z"/>
        <path class="cls-8" d="M76.73,58.04c-2.07,0-4.15-.22-6.22-.67-.96.39-1.99.6-3.04.6-.39,0-.78-.03-1.17-.09-2.79-.41-5.16-2.27-6.23-4.88-1.49-3.62-2.68-7.34-3.54-11.05-1.14-3.94.51-8.04,4.07-10.24-2.87-3.62-4.24-8.13-3.96-13.09.11-2.4.64-4.74,1.56-6.89,1.04-2.4,2.57-4.42,4.56-6,3.56-3.28,7.9-5.01,12.57-5.01,3.31,0,6.48.89,9.35,2.61.38.03.76.07,1.14.14.44.08.88.19,1.3.34,3.64,1.28,6.04,4.47,6.22,8.2l.47,5.98c.54,3.09-.56,6.12-2.83,8.18.56.79,1.07,1.64,1.53,2.55,1.23,2.47,1.92,5.15,2.05,7.97.31,5.33-.98,10.06-3.83,14.05-3.23,4.59-7.82,7.17-12.96,7.28-.34.01-.69.02-1.03.02Z"/>
        <path class="cls-5" d="M113.87,58.9c-.57,0-1.15-.04-1.74-.13h-5.75c-.45,0-.91-.04-1.35-.12-1.19-.2-2.25-.54-3.17-.99-1.38.71-2.97,1.09-4.65,1.09-.48,0-.97-.03-1.48-.09h-4.28c-6.69,0-8.99-4.45-9.54-5.82-.09-.22-.17-.44-.23-.67-.74-2.45-.44-4.98.83-7.13.36-.61.96-1.44,1.9-2.24l8.09-33.17c.04-.92.23-1.84.57-2.72.55-1.41,1.99-3.88,5.5-5.13,1.36-.56,2.79-.84,4.25-.84,1.56,0,3.11.32,4.6.96,3.79,1.65,5.03,4.47,5.44,6.01.18.7.28,1.4.28,2.11l8.12,33.57c2.39,2.63,3.07,6.26,1.65,9.58-.15.35-.32.69-.52,1.01-1.8,2.95-4.98,4.71-8.52,4.71Z"/>
        <path class="cls-1" d="M160.23,57.97c-.95,0-1.87-.14-2.73-.42-.77.21-1.58.32-2.41.32-1.01,0-1.99-.16-2.92-.47-1.11.35-2.17.52-3.21.52-.33,0-.66-.02-.99-.05h-2.56c-4.11,0-7.61-2.52-8.91-6.42-.27-.82-.41-1.67-.41-2.53,0-2.15.52-3.95,1.37-5.39v-27.41c-.98-1.6-1.48-3.53-1.48-5.75,0-2.04.78-4.01,2.18-5.49,2.51-2.66,5.23-3.22,7.07-3.22.4,0,.8.03,1.19.08h4.36c2.22,0,4.26.91,5.72,2.41,1.47-1.53,3.53-2.46,5.77-2.46h3.58c.62-.13,1.23-.19,1.85-.19,4.13,0,8.52,3.09,8.73,8.83.15,2.24-.46,4.34-1.68,6.04v26.48c1.53,2.23,2.03,5.07,1.29,7.97-1.04,4.24-4.6,7.08-8.92,7.08-.2,0-.4,0-.61-.02h-4.95c-.45.06-.9.1-1.35.1Z"/>
        <path class="cls-2" d="M191.48,58.09c-.21,0-.42,0-.64-.02-1.5-.05-2.93-.32-4.26-.81-1.27.36-2.59.6-3.96.71-.57.05-1.15.07-1.72.07-2.53,0-5.05-.46-7.48-1.36-.45-.17-.89-.38-1.31-.62-3.52-2.09-5.9-5.39-6.9-9.53-.05-.2-.09-.4-.12-.6-.53-3.27-.14-6.44,1.12-9.3-.56-1.25-.79-2.63-.66-4.03.33-3.39,1.27-6.38,2.81-8.88,1.66-2.7,3.9-4.8,6.66-6.25.06-.03.13-.07.19-.1,2.52-1.24,5.19-1.86,7.92-1.86.57,0,1.14.03,1.71.08,3.34.32,6.4,1.54,9.1,3.64,3.92,2.89,6.15,7.22,6.29,12.23,0,.07,0,7.12,0,7.12,2.91,1.79,4.37,5.25,3.59,8.61-.84,3.63-2.43,6.39-4.74,8.23-2.2,1.75-4.83,2.67-7.61,2.67Z"/>
        <path class="cls-14" d="M209.65,58.33c-3.28,0-6.63-.33-9.93-.97-3.37-.66-5.95-3.39-6.4-6.8l-1.63-12.29c-.23-1.75.12-3.46.93-4.92-.76-2-1.09-4.1-.99-6.26.09-2.62.78-5.1,2.07-7.36,1.37-2.4,3.35-4.33,5.74-5.6,3.66-2.13,7.62-3.21,11.78-3.21h.29c4.35.05,8.57,1.35,12.57,3.86,2.12,1.33,3.5,3.58,3.72,6.07l.74,8.38c.11,1.25-.08,2.48-.51,3.59.34.68.64,1.38.9,2.11,1.11,3.14,1.3,6.39.58,9.66-.67,3.4-2.24,6.34-4.65,8.76-2.51,2.51-5.65,4.1-9.06,4.58-.06,0-.12.02-.18.02-1.96.23-3.96.35-5.94.35Z"/>
        <path class="cls-15" d="M240.66,58.04c-2.56,0-5.13-.48-7.61-1.43-.33-.13-.65-.27-.96-.44-2.38-1.29-4.33-3.06-5.8-5.26-1.59-2.38-2.43-5.06-2.5-7.96,0-.07,0-10.73,0-10.73-3.13-1.08-5.38-4.06-5.38-7.56v-1.74c0-3.25,1.96-6.17,4.97-7.4,3.62-1.48,6.59-4.23,9.08-8.4,1.47-2.46,4.1-3.9,6.87-3.9.71,0,1.42.09,2.12.29,3.47.96,5.88,4.11,5.88,7.71v2.56c3.51.85,6.12,4.01,6.12,7.78v3.11c0,3.77-2.61,6.93-6.12,7.78v2.04c.66-.17,1.34-.26,2.02-.26,1.42,0,2.85.38,4.14,1.15,3.1,1.87,4.55,5.59,3.55,9.07-2.19,7.55-6.48,10.92-9.69,12.41-.44.2-.89.37-1.36.49-1.76.46-3.55.69-5.32.69Z"/>
        <path class="cls-12" d="M263.86,57.89c-.72,0-1.45-.04-2.17-.11-.16-.02-.32-.04-.47-.06-4.81-.77-9.01-3.28-12.16-7.27-3.05-3.86-4.6-8.48-4.49-13.37.05-3.42.88-6.73,2.45-9.77,1.59-3.07,3.83-5.62,6.66-7.59,3.16-2.3,6.72-3.46,10.58-3.46.15,0,.29,0,.44,0,3.94.09,7.58,1.36,10.82,3.76.12.09.25.19.36.29,2.41,2.01,4.3,4.52,5.61,7.44,1.3,2.92,1.91,6.18,1.8,9.7-.02.59-.1,1.16-.24,1.71,1.19,2.51,1.02,5.55-.65,7.97-2.87,4.16-5.97,6.99-9.47,8.68-2.86,1.37-5.91,2.07-9.07,2.07Z"/>
        <path class="cls-9" d="M282.57,57.82c-3.87,0-7.19-2.25-8.67-5.87-.29-.7-.47-1.43-.55-2.18-.33-3.06.81-5.9,2.96-7.84v-10.49c-2.6-1.16-4.43-3.64-4.71-6.56-.33-3.52,1.68-6.83,4.95-8.17l11.29-4.59c.97-.39,1.99-.59,3.01-.59,1.33,0,2.66.33,3.85.99.71-.12,1.42-.18,2.15-.18,1,0,2.02.12,3.03.35.28.06.56.15.83.24,4.09,1.43,7.5,4.3,9.85,8.3,1.55,2.64,1.46,5.94-.24,8.49l-4.64,6.96c-1.5,2.25-4.01,3.56-6.65,3.56-.06,0-.12,0-.18,0v1.45c.57.49,1.08,1.05,1.54,1.68,2.36,3.24,2.33,7.54-.08,10.76-.03.04-.06.07-.08.11-1.76,2.26-4.43,3.56-7.32,3.56h-10.34Z"/>
        <path class="cls-11" d="M344.6,58.57c-1.24,0-2.49-.13-3.73-.4-.07-.01-.14-.03-.21-.05-5.81-1.4-10.75-4.58-14.68-9.45-1.95-2.41-2.33-5.73-.98-8.52,1.72-3.54,3.45-6.9,5.16-9.98,1.41-2.55,4.1-4.13,7-4.13.13,0,.26,0,.39,0v-9.17c-2-1.6-3.27-4.09-3.27-6.94,0-4.93,3.84-8.79,8.74-8.79h13.39c4.96,0,8.84,3.86,8.84,8.79,0,2.83-1.26,5.31-3.27,6.91,0,0,0,23.08,0,23.15-.17,6.69-3.14,12.27-8.59,16.13-.38.27-.78.5-1.2.7-2.42,1.15-4.97,1.73-7.58,1.73Z"/>
        <path class="cls-3" d="M374.01,58.93c-7,0-12.9-2.93-17.05-8.47-.03-.04-.06-.08-.09-.12-3.73-5.17-5.63-11.75-5.63-19.56s1.75-14.84,5.21-20.58c5.21-8.45,12.36-10.2,17.45-10.2,1.45,0,2.86.15,4.23.46.84-.3,1.74-.46,2.68-.46h2.58c4.32,0,7.87,3.44,8,7.76l.53,17.46c.06,2.16-.75,4.26-2.25,5.81-.23.24-.48.46-.74.67,2.97,1.8,4.51,5.41,3.56,8.92-1.45,5.38-3.07,9.15-5.08,11.88-3.04,4.14-7.8,6.42-13.4,6.42ZM376.19,32.11c.11-.11.23-.22.35-.33-.13-.1-.26-.21-.38-.31,0,.22.02.44.03.65Z"/>
        <path class="cls-7" d="M386.3,58.45c-4.42,0-8-3.58-8-8v-2.53c0-2.02.75-3.88,2-5.3v-26.16c-1.25-1.41-2-3.27-2-5.3v-2.64c0-4.42,3.58-8,8-8h11.55c6.7,0,11.55,1.54,14.82,4.71,2.39,2.27,5.2,6.35,5.2,12.94,0,.06,0,.12,0,.18-.08,3.33-.88,5.99-2.02,8.1,2.07,2.82,3.81,6.88,3.81,12.55,0,.05,0,.11,0,.16-.11,5.34-1.5,9.69-4.14,12.92-3.35,4.22-8.67,6.36-15.83,6.36h-13.39Z"/>
      </g>
      <g>
        <path class="cls-13" d="M22.27,31.58l4.17-19.51-.16-.26c-1.2-.28-1.65-.93-1.37-1.95.46-1.02,1.27-1.39,2.43-1.11h4.22c.42-.07,1,.07,1.74.42.7.77.76,1.42.16,1.95-.46.46-.88.69-1.27.69l-.95.74-10.23,35.7L10.46,12.38l-.84-.69c-.56,0-1.09-.32-1.58-.95-.11-.63.02-1.14.37-1.53.56-.63,1.27-.79,2.11-.47h6.96c.39-.07,1.04.07,1.95.42.25.7.32,1.21.21,1.53-.28.67-.74,1-1.37,1l-.11.32,4.11,19.56Z"/>
        <path class="cls-13" d="M44.31,11.9l-3.53-1.69c-.39-.21-.51-.49-.37-.84.11-.39.35-.58.74-.58h13.71c.28-.14.52-.11.71.08.19.19.29.41.29.66,0,.63-.25.95-.74.95l-3.48,1.48v34.44l3.74,1.48c.42.14.69.4.79.79.18.49.07.86-.32,1.11-.39.25-.72.28-1,.11h-14.24c-.49,0-.8-.24-.92-.71s.04-.83.5-1.08l4.11-1.69V11.9Z"/>
        <path class="cls-13" d="M67.47,49.98c-1.37-3.34-2.44-6.71-3.22-10.12-.25-.63.04-1.12.84-1.48.84-.18,1.44,0,1.79.53,1.2,2.18,2.58,3.87,4.14,5.06,1.56,1.2,3.26,1.83,5.09,1.9.91.11,1.74-.24,2.48-1.03s1.3-1.87,1.69-3.24c.11-1.05.03-2.04-.24-2.95-.26-.91-.66-1.58-1.19-2l-11.76-9.6c-1.83-2.14-2.65-4.8-2.48-7.96.07-1.51.38-2.9.92-4.17s1.34-2.29,2.4-3.06c2.14-2.07,4.61-3.11,7.38-3.11s5.29,1.09,7.54,3.27c-.25-.11-.37-.02-.37.26l.37-.42c.25-.46.77-.61,1.58-.47.6.21.9.58.9,1.11l.53,6.7c.21.63-.05,1.09-.79,1.37-.7.28-1.3.12-1.79-.47-.81-2.25-1.93-4.04-3.38-5.38-1.02-.98-2.09-1.58-3.22-1.79s-2.2.04-3.22.74c-.98,1.02-1.44,2.53-1.37,4.54.04.95.19,1.79.47,2.53s.69,1.32,1.21,1.74l8.75,6.43c1.12.81,2.06,1.95,2.79,3.43s1.14,3.08,1.21,4.8c.21,3.52-.58,6.52-2.37,9.02-1.79,2.57-4.01,3.87-6.64,3.9-2.71.11-5.43-.32-8.17-1.27-.35-.32-.98.09-1.9,1.21Z"/>
        <path class="cls-13" d="M98.74,37.74l-2,9.97.47.74c.63,0,1.14.23,1.53.69.28.46.25.81-.11,1.05-.39.53-1.16.69-2.32.47h-4.85c-1.2,0-1.9-.26-2.11-.79-.21-.7.18-1.16,1.16-1.37l1.05-1.27,9.02-36.97c-.25-.42.04-.76.84-1,.91-.42,1.86-.42,2.85,0,.81.35,1.05.74.74,1.16l9.02,37.28.95.95c.6.42.79.88.58,1.37-.49.81-1.39,1.05-2.69.74h-6.49c-1.23-.21-1.85-.65-1.85-1.32s.46-1.05,1.37-1.16l.37-.69-1.9-9.86h-5.64ZM100.27,33.95l2.48-.11-1.27-11.92-1.21,12.02Z"/>
        <path class="cls-13" d="M156.32,34l5.96-24.31h4.75c.95-.46,1.42-.11,1.42,1.05.07.6-.12,1.02-.58,1.27l-1.11,1.32v33.17l.9.42c.67.39.88,1.04.63,1.95-.18.77-.65,1.11-1.42,1h-6.06c-.92.28-1.5-.05-1.74-1-.18-.81.11-1.41.84-1.79l1.42-.84v-23.2l-5.12,26.1c-.32.49-.69.74-1.13.74s-.85-.25-1.24-.74l-4.9-27.05v24.73l.53.53c.46,0,.69.35.69,1.05.07.11,0,.55-.21,1.32-.6.21-1.04.26-1.32.16h-3.22c-.67,0-1.11-.32-1.32-.95,0-1.05.26-1.58.79-1.58l.58-.58V13.17l-1-1c-.32-.32-.47-.91-.47-1.79.6-.63,1.14-.84,1.63-.63h5.17l5.54,24.26Z"/>
        <path class="cls-13" d="M186.59,32.21v-1.95c-.07-1.27-.62-2.23-1.63-2.9-.84-.42-1.69-.57-2.53-.45-.84.12-1.58.48-2.21,1.08-.92.92-1.23,2.13-.95,3.64l-5.75,1.74c.21-2.18.76-4,1.66-5.46.9-1.46,2.08-2.58,3.56-3.35,1.72-.84,3.51-1.18,5.35-1,1.85.18,3.52.86,5.04,2.06,2,1.44,3.04,3.46,3.11,6.06v12.81c-.07.88.25,1.55.95,2,.35.21.71.28,1.08.21.37-.07.96-.51,1.77-1.32-.42,1.83-1.06,3.08-1.92,3.77-.86.69-1.84.99-2.93.92-1.65-.04-2.95-.63-3.9-1.79-1.58.98-3.35,1.56-5.3,1.71s-3.88-.11-5.77-.82c-1.65-.98-2.72-2.5-3.22-4.54-.35-2.18.02-4.13,1.11-5.85,3.51-4.18,7.68-6.38,12.5-6.59ZM186.59,35.42c-1.62.56-3.27,1.28-4.96,2.16-.84.46-1.6,1.11-2.27,1.95-.56.77-.83,1.69-.79,2.74.03,1.05.39,1.93,1.05,2.64,1.05.81,2.21,1.27,3.48,1.37s2.43-.11,3.48-.63v-10.23Z"/>
        <path class="cls-13" d="M219.81,21.55l.74,8.38c-2.21-2.99-4.11-5.03-5.7-6.12-1.58-1.09-3.3-1.65-5.17-1.69-.6,0-1.15.2-1.66.61-.51.4-.85.94-1.03,1.61-.18.74-.15,1.44.08,2.11.23.67.59,1.2,1.08,1.58l10.07,5.17c1.48,1.2,2.52,2.66,3.14,4.4.61,1.74.71,3.53.29,5.35-.35,1.86-1.18,3.45-2.48,4.75s-2.81,2.08-4.54,2.32c-4.43.53-8.89.35-13.39-.53l-1.63-12.29c2.53,4.18,5.03,7.08,7.49,8.7,2.11,1.2,4.22,1.34,6.33.42,1.16-.63,1.76-1.76,1.79-3.38.07-1.55-.46-2.76-1.58-3.64l-10.81-5.43c-1.09-.67-1.92-1.59-2.48-2.77-.56-1.18-.81-2.42-.74-3.72.03-1.34.38-2.58,1.03-3.72.65-1.14,1.54-2,2.66-2.56,2.53-1.51,5.23-2.25,8.09-2.21,2.87.04,5.67.92,8.41,2.64Z"/>
        <path class="cls-13" d="M239.33,21.55h6.12v3.11h-6.12v18.4c.03.67.3,1.27.79,1.82.49.55,1.04.89,1.63,1.03,2.39.11,4.92-1.12,7.59-3.69-1.09,3.76-2.88,6.22-5.38,7.38-2.71.7-5.4.54-8.07-.47-1.23-.67-2.21-1.56-2.95-2.66s-1.13-2.35-1.16-3.72v-18.09h-5.38v-1.74c5.24-2.14,9.54-6.05,12.92-11.71v10.34Z"/>
        <path class="cls-13" d="M258.68,37.21c-.04,1.44.27,2.95.92,4.54.65,1.58,1.59,2.92,2.82,4.01,1.97,1.05,4.08,1.34,6.33.87,2.25-.47,4.61-1.82,7.07-4.03-2.04,2.95-4.16,4.96-6.35,6.01-2.2,1.05-4.53,1.46-6.99,1.21-2.85-.46-5.23-1.9-7.15-4.32-1.92-2.43-2.84-5.17-2.77-8.23.03-2.25.55-4.34,1.56-6.28,1-1.93,2.4-3.51,4.19-4.75,1.86-1.37,3.93-2.03,6.2-1.98s4.35.78,6.25,2.19c1.48,1.23,2.62,2.75,3.43,4.56.81,1.81,1.18,3.88,1.11,6.2h-16.61ZM258.68,34.89h11.23c.28-1.97-.26-3.8-1.63-5.48-.88-1.16-2.04-1.76-3.48-1.79-1.37-.14-2.58.33-3.64,1.42-1.51,1.72-2.34,3.67-2.48,5.85Z"/>
        <path class="cls-13" d="M290.85,25.51c.39-.95,1.44-2.34,3.16-4.17,1.19-.91,2.55-1.19,4.06-.84,2.32.81,4.18,2.41,5.59,4.8l-4.64,6.96c-.81-2.57-1.81-4.5-3.01-5.8-.18-.25-.37-.37-.58-.37s-.44.12-.69.37c-1.76,1.48-3.06,3.34-3.9,5.59v14.66l2.21.84c.32,0,.6.18.84.53.32.42.32.84,0,1.27-.25.32-.58.47-1,.47h-10.34c-.6,0-1.02-.3-1.27-.9-.07-.67.25-1.12.95-1.37l2.06-.84v-21.62l-4.75-.95,11.29-4.59v5.96Z"/>
        <path class="cls-13" d="M345.53,12.22l-2.64-1.48c-.42,0-.63-.26-.63-.79s.25-.79.74-.79h13.39c.56,0,.84.26.84.79s-.25.79-.74.79l-2.53,1.11v27.95c-.11,4.15-1.85,7.42-5.22,9.81-2,.95-4.08,1.19-6.22.74-4.08-.98-7.52-3.22-10.34-6.7,1.65-3.41,3.3-6.61,4.96-9.6,1.93,4.5,4.31,8.42,7.12,11.76.25.21.53.23.84.05.21-.03.35-.25.42-.63V12.22Z"/>
        <path class="cls-13" d="M383.92,25.46h-2.48c-.92-4.22-2.08-7.72-3.48-10.49-1.3-2.6-2.66-3.9-4.06-3.9-1.41.04-2.69,1.56-3.85,4.59-1.3,3.8-1.95,8.09-1.95,12.87,0,6.57.7,11.44,2.11,14.61,1.37,3.02,3.06,4.54,5.06,4.54,1.12,0,2.29-.77,3.48-2.32,1.16-1.34,2.2-3.87,3.11-7.59l2.9.79c-1.16,4.29-2.43,7.37-3.8,9.23-1.55,2.11-3.87,3.16-6.96,3.16-4.46,0-8.02-1.76-10.65-5.27-2.74-3.8-4.11-8.75-4.11-14.87,0-6.47,1.35-11.95,4.06-16.45,2.6-4.22,6.13-6.33,10.6-6.33,1.79,0,3.45.39,4.96,1.16,1.05.6,1.63.9,1.74.9v-.16c.07-.25.14-.88.21-1.9h2.58l.53,17.46Z"/>
        <path class="cls-13" d="M388.3,13.27c-.07-.81-.14-1.39-.21-1.74-.14-.25-.74-.37-1.79-.37v-2.64h11.55c4.5,0,7.59.83,9.28,2.48,1.83,1.72,2.74,4.11,2.74,7.17-.07,3.13-1.18,5.48-3.32,7.07-1.16,1.02-2.25,1.67-3.27,1.95,1.58.35,3.11,1.13,4.59,2.32,2.53,2.21,3.8,5.38,3.8,9.49-.07,3.55-.86,6.24-2.37,8.07-1.76,2.25-4.96,3.38-9.6,3.38h-13.39v-2.53c.95-.07,1.51-.28,1.69-.63.21-.39.32-.98.32-1.79V13.27ZM396.26,11.16v15.29h2.11c.88,0,1.67-.63,2.37-1.9.7-1.44,1.05-3.57,1.05-6.38,0-2.43-.33-4.17-1-5.22-.67-1.19-1.65-1.79-2.95-1.79h-1.58ZM396.26,29.09v18.83h2.21c1.55-.07,2.62-.88,3.22-2.43.6-1.41.9-3.57.9-6.49,0-3.87-.37-6.49-1.11-7.86-.7-1.37-1.74-2.06-3.11-2.06h-2.11Z"/>
      </g>
      <g>
        <path class="cls-4" d="M22.27,31.58l4.17-19.51-.16-.26c-1.2-.28-1.65-.93-1.37-1.95.46-1.02,1.27-1.39,2.43-1.11h4.22c.42-.07,1,.07,1.74.42.7.77.76,1.42.16,1.95-.46.46-.88.69-1.27.69l-.95.74-10.23,35.7L10.46,12.38l-.84-.69c-.56,0-1.09-.32-1.58-.95-.11-.63.02-1.14.37-1.53.56-.63,1.27-.79,2.11-.47h6.96c.39-.07,1.04.07,1.95.42.25.7.32,1.21.21,1.53-.28.67-.74,1-1.37,1l-.11.32,4.11,19.56Z"/>
        <path class="cls-4" d="M44.31,11.9l-3.53-1.69c-.39-.21-.51-.49-.37-.84.11-.39.35-.58.74-.58h13.71c.28-.14.52-.11.71.08.19.19.29.41.29.66,0,.63-.25.95-.74.95l-3.48,1.48v34.44l3.74,1.48c.42.14.69.4.79.79.18.49.07.86-.32,1.11-.39.25-.72.28-1,.11h-14.24c-.49,0-.8-.24-.92-.71s.04-.83.5-1.08l4.11-1.69V11.9Z"/>
        <path class="cls-4" d="M67.47,49.98c-1.37-3.34-2.44-6.71-3.22-10.12-.25-.63.04-1.12.84-1.48.84-.18,1.44,0,1.79.53,1.2,2.18,2.58,3.87,4.14,5.06,1.56,1.2,3.26,1.83,5.09,1.9.91.11,1.74-.24,2.48-1.03s1.3-1.87,1.69-3.24c.11-1.05.03-2.04-.24-2.95-.26-.91-.66-1.58-1.19-2l-11.76-9.6c-1.83-2.14-2.65-4.8-2.48-7.96.07-1.51.38-2.9.92-4.17s1.34-2.29,2.4-3.06c2.14-2.07,4.61-3.11,7.38-3.11s5.29,1.09,7.54,3.27c-.25-.11-.37-.02-.37.26l.37-.42c.25-.46.77-.61,1.58-.47.6.21.9.58.9,1.11l.53,6.7c.21.63-.05,1.09-.79,1.37-.7.28-1.3.12-1.79-.47-.81-2.25-1.93-4.04-3.38-5.38-1.02-.98-2.09-1.58-3.22-1.79s-2.2.04-3.22.74c-.98,1.02-1.44,2.53-1.37,4.54.04.95.19,1.79.47,2.53s.69,1.32,1.21,1.74l8.75,6.43c1.12.81,2.06,1.95,2.79,3.43s1.14,3.08,1.21,4.8c.21,3.52-.58,6.52-2.37,9.02-1.79,2.57-4.01,3.87-6.64,3.9-2.71.11-5.43-.32-8.17-1.27-.35-.32-.98.09-1.9,1.21Z"/>
        <path class="cls-4" d="M98.74,37.74l-2,9.97.47.74c.63,0,1.14.23,1.53.69.28.46.25.81-.11,1.05-.39.53-1.16.69-2.32.47h-4.85c-1.2,0-1.9-.26-2.11-.79-.21-.7.18-1.16,1.16-1.37l1.05-1.27,9.02-36.97c-.25-.42.04-.76.84-1,.91-.42,1.86-.42,2.85,0,.81.35,1.05.74.74,1.16l9.02,37.28.95.95c.6.42.79.88.58,1.37-.49.81-1.39,1.05-2.69.74h-6.49c-1.23-.21-1.85-.65-1.85-1.32s.46-1.05,1.37-1.16l.37-.69-1.9-9.86h-5.64ZM100.27,33.95l2.48-.11-1.27-11.92-1.21,12.02Z"/>
        <path class="cls-4" d="M156.32,34l5.96-24.31h4.75c.95-.46,1.42-.11,1.42,1.05.07.6-.12,1.02-.58,1.27l-1.11,1.32v33.17l.9.42c.67.39.88,1.04.63,1.95-.18.77-.65,1.11-1.42,1h-6.06c-.92.28-1.5-.05-1.74-1-.18-.81.11-1.41.84-1.79l1.42-.84v-23.2l-5.12,26.1c-.32.49-.69.74-1.13.74s-.85-.25-1.24-.74l-4.9-27.05v24.73l.53.53c.46,0,.69.35.69,1.05.07.11,0,.55-.21,1.32-.6.21-1.04.26-1.32.16h-3.22c-.67,0-1.11-.32-1.32-.95,0-1.05.26-1.58.79-1.58l.58-.58V13.17l-1-1c-.32-.32-.47-.91-.47-1.79.6-.63,1.14-.84,1.63-.63h5.17l5.54,24.26Z"/>
        <path class="cls-4" d="M186.59,32.21v-1.95c-.07-1.27-.62-2.23-1.63-2.9-.84-.42-1.69-.57-2.53-.45-.84.12-1.58.48-2.21,1.08-.92.92-1.23,2.13-.95,3.64l-5.75,1.74c.21-2.18.76-4,1.66-5.46.9-1.46,2.08-2.58,3.56-3.35,1.72-.84,3.51-1.18,5.35-1,1.85.18,3.52.86,5.04,2.06,2,1.44,3.04,3.46,3.11,6.06v12.81c-.07.88.25,1.55.95,2,.35.21.71.28,1.08.21.37-.07.96-.51,1.77-1.32-.42,1.83-1.06,3.08-1.92,3.77-.86.69-1.84.99-2.93.92-1.65-.04-2.95-.63-3.9-1.79-1.58.98-3.35,1.56-5.3,1.71s-3.88-.11-5.77-.82c-1.65-.98-2.72-2.5-3.22-4.54-.35-2.18.02-4.13,1.11-5.85,3.51-4.18,7.68-6.38,12.5-6.59ZM186.59,35.42c-1.62.56-3.27,1.28-4.96,2.16-.84.46-1.6,1.11-2.27,1.95-.56.77-.83,1.69-.79,2.74.03,1.05.39,1.93,1.05,2.64,1.05.81,2.21,1.27,3.48,1.37s2.43-.11,3.48-.63v-10.23Z"/>
        <path class="cls-4" d="M219.81,21.55l.74,8.38c-2.21-2.99-4.11-5.03-5.7-6.12-1.58-1.09-3.3-1.65-5.17-1.69-.6,0-1.15.2-1.66.61-.51.4-.85.94-1.03,1.61-.18.74-.15,1.44.08,2.11.23.67.59,1.2,1.08,1.58l10.07,5.17c1.48,1.2,2.52,2.66,3.14,4.4.61,1.74.71,3.53.29,5.35-.35,1.86-1.18,3.45-2.48,4.75s-2.81,2.08-4.54,2.32c-4.43.53-8.89.35-13.39-.53l-1.63-12.29c2.53,4.18,5.03,7.08,7.49,8.7,2.11,1.2,4.22,1.34,6.33.42,1.16-.63,1.76-1.76,1.79-3.38.07-1.55-.46-2.76-1.58-3.64l-10.81-5.43c-1.09-.67-1.92-1.59-2.48-2.77-.56-1.18-.81-2.42-.74-3.72.03-1.34.38-2.58,1.03-3.72.65-1.14,1.54-2,2.66-2.56,2.53-1.51,5.23-2.25,8.09-2.21,2.87.04,5.67.92,8.41,2.64Z"/>
        <path class="cls-4" d="M239.33,21.55h6.12v3.11h-6.12v18.4c.03.67.3,1.27.79,1.82.49.55,1.04.89,1.63,1.03,2.39.11,4.92-1.12,7.59-3.69-1.09,3.76-2.88,6.22-5.38,7.38-2.71.7-5.4.54-8.07-.47-1.23-.67-2.21-1.56-2.95-2.66s-1.13-2.35-1.16-3.72v-18.09h-5.38v-1.74c5.24-2.14,9.54-6.05,12.92-11.71v10.34Z"/>
        <path class="cls-4" d="M258.68,37.21c-.04,1.44.27,2.95.92,4.54.65,1.58,1.59,2.92,2.82,4.01,1.97,1.05,4.08,1.34,6.33.87,2.25-.47,4.61-1.82,7.07-4.03-2.04,2.95-4.16,4.96-6.35,6.01-2.2,1.05-4.53,1.46-6.99,1.21-2.85-.46-5.23-1.9-7.15-4.32-1.92-2.43-2.84-5.17-2.77-8.23.03-2.25.55-4.34,1.56-6.28,1-1.93,2.4-3.51,4.19-4.75,1.86-1.37,3.93-2.03,6.2-1.98s4.35.78,6.25,2.19c1.48,1.23,2.62,2.75,3.43,4.56.81,1.81,1.18,3.88,1.11,6.2h-16.61ZM258.68,34.89h11.23c.28-1.97-.26-3.8-1.63-5.48-.88-1.16-2.04-1.76-3.48-1.79-1.37-.14-2.58.33-3.64,1.42-1.51,1.72-2.34,3.67-2.48,5.85Z"/>
        <path class="cls-4" d="M290.85,25.51c.39-.95,1.44-2.34,3.16-4.17,1.19-.91,2.55-1.19,4.06-.84,2.32.81,4.18,2.41,5.59,4.8l-4.64,6.96c-.81-2.57-1.81-4.5-3.01-5.8-.18-.25-.37-.37-.58-.37s-.44.12-.69.37c-1.76,1.48-3.06,3.34-3.9,5.59v14.66l2.21.84c.32,0,.6.18.84.53.32.42.32.84,0,1.27-.25.32-.58.47-1,.47h-10.34c-.6,0-1.02-.3-1.27-.9-.07-.67.25-1.12.95-1.37l2.06-.84v-21.62l-4.75-.95,11.29-4.59v5.96Z"/>
        <path class="cls-4" d="M345.53,12.22l-2.64-1.48c-.42,0-.63-.26-.63-.79s.25-.79.74-.79h13.39c.56,0,.84.26.84.79s-.25.79-.74.79l-2.53,1.11v27.95c-.11,4.15-1.85,7.42-5.22,9.81-2,.95-4.08,1.19-6.22.74-4.08-.98-7.52-3.22-10.34-6.7,1.65-3.41,3.3-6.61,4.96-9.6,1.93,4.5,4.31,8.42,7.12,11.76.25.21.53.23.84.05.21-.03.35-.25.42-.63V12.22Z"/>
        <path class="cls-4" d="M383.92,25.46h-2.48c-.92-4.22-2.08-7.72-3.48-10.49-1.3-2.6-2.66-3.9-4.06-3.9-1.41.04-2.69,1.56-3.85,4.59-1.3,3.8-1.95,8.09-1.95,12.87,0,6.57.7,11.44,2.11,14.61,1.37,3.02,3.06,4.54,5.06,4.54,1.12,0,2.29-.77,3.48-2.32,1.16-1.34,2.2-3.87,3.11-7.59l2.9.79c-1.16,4.29-2.43,7.37-3.8,9.23-1.55,2.11-3.87,3.16-6.96,3.16-4.46,0-8.02-1.76-10.65-5.27-2.74-3.8-4.11-8.75-4.11-14.87,0-6.47,1.35-11.95,4.06-16.45,2.6-4.22,6.13-6.33,10.6-6.33,1.79,0,3.45.39,4.96,1.16,1.05.6,1.63.9,1.74.9v-.16c.07-.25.14-.88.21-1.9h2.58l.53,17.46Z"/>
        <path class="cls-4" d="M388.3,13.27c-.07-.81-.14-1.39-.21-1.74-.14-.25-.74-.37-1.79-.37v-2.64h11.55c4.5,0,7.59.83,9.28,2.48,1.83,1.72,2.74,4.11,2.74,7.17-.07,3.13-1.18,5.48-3.32,7.07-1.16,1.02-2.25,1.67-3.27,1.95,1.58.35,3.11,1.13,4.59,2.32,2.53,2.21,3.8,5.38,3.8,9.49-.07,3.55-.86,6.24-2.37,8.07-1.76,2.25-4.96,3.38-9.6,3.38h-13.39v-2.53c.95-.07,1.51-.28,1.69-.63.21-.39.32-.98.32-1.79V13.27ZM396.26,11.16v15.29h2.11c.88,0,1.67-.63,2.37-1.9.7-1.44,1.05-3.57,1.05-6.38,0-2.43-.33-4.17-1-5.22-.67-1.19-1.65-1.79-2.95-1.79h-1.58ZM396.26,29.09v18.83h2.21c1.55-.07,2.62-.88,3.22-2.43.6-1.41.9-3.57.9-6.49,0-3.87-.37-6.49-1.11-7.86-.7-1.37-1.74-2.06-3.11-2.06h-2.11Z"/>
      </g>
    </g>
  </g>
</svg>