<?xml version="1.0" encoding="UTF-8"?>
<svg id="_レイヤー_2" data-name="レイヤー 2" xmlns="http://www.w3.org/2000/svg" xmlns:xlink="http://www.w3.org/1999/xlink" viewBox="0 0 383.67 68.82">
  <defs>
    <style>
      .cls-1 {
        fill: url(#_名称未設定グラデーション_120-5);
      }

      .cls-2 {
        fill: url(#_名称未設定グラデーション_120-6);
      }

      .cls-3 {
        fill: #fff;
      }

      .cls-4 {
        fill: url(#_名称未設定グラデーション_120-4);
      }

      .cls-5 {
        fill: url(#_名称未設定グラデーション_120-2);
      }

      .cls-6 {
        fill: url(#_名称未設定グラデーション_120-3);
      }

      .cls-7 {
        fill: url(#_名称未設定グラデーション_120);
      }

      .cls-8 {
        fill: none;
        stroke: #000;
        stroke-width: 6px;
      }

      .cls-9 {
        fill: url(#_名称未設定グラデーション_120-7);
      }
    </style>
    <linearGradient id="_名称未設定グラデーション_120" data-name="名称未設定グラデーション 120" x1="30.04" y1="68.82" x2="30.04" y2="0" gradientUnits="userSpaceOnUse">
      <stop offset="0" stop-color="#945700"/>
      <stop offset=".19" stop-color="#e9a900"/>
      <stop offset=".29" stop-color="#f5f8b4"/>
      <stop offset=".4" stop-color="#e9a900"/>
      <stop offset="1" stop-color="#fff87f"/>
    </linearGradient>
    <linearGradient id="_名称未設定グラデーション_120-2" data-name="名称未設定グラデーション 120" x1="85.36" x2="85.36" xlink:href="#_名称未設定グラデーション_120"/>
    <linearGradient id="_名称未設定グラデーション_120-3" data-name="名称未設定グラデーション 120" x1="139.95" x2="139.95" xlink:href="#_名称未設定グラデーション_120"/>
    <linearGradient id="_名称未設定グラデーション_120-4" data-name="名称未設定グラデーション 120" x1="193.31" x2="193.31" xlink:href="#_名称未設定グラデーション_120"/>
    <linearGradient id="_名称未設定グラデーション_120-5" data-name="名称未設定グラデーション 120" x1="247.21" x2="247.21" xlink:href="#_名称未設定グラデーション_120"/>
    <linearGradient id="_名称未設定グラデーション_120-6" data-name="名称未設定グラデーション 120" x1="301.45" x2="301.45" xlink:href="#_名称未設定グラデーション_120"/>
    <linearGradient id="_名称未設定グラデーション_120-7" data-name="名称未設定グラデーション 120" x1="355.36" x2="355.36" xlink:href="#_名称未設定グラデーション_120"/>
  </defs>
  <g id="_レイヤー_1-2" data-name="レイヤー 1">
    <g>
      <g>
        <path class="cls-3" d="M8.16,21.16c3.02.67,6.06.77,9.12.32l23.04-3.43,1.9-1.9c.67-.67,1.41-.77,2.21-.32l7.01,4.06c.35.21.56.56.63,1.05,0,.49-.18.86-.53,1.11l-1.27,1.27c-.39.63-.69,1.37-.9,2.21-1.3,6.54-2.18,12.97-2.64,19.3,1.79.7,3.11,1.92,3.96,3.64.25.77.11,1.46-.42,2.06-.42.74-1,1.11-1.74,1.11-9.04-.35-17.96.35-26.79,2.11-1.65.39-3.18,1.02-4.59,1.9-.74.56-1.41.53-2-.11-2.57-1.86-4.94-4.09-7.12-6.7,3.09.39,6.22.25,9.39-.42,7.42-1.44,14.55-2.48,21.41-3.11.67-7.03.91-14.13.74-21.3-7.31.7-14.52,1.83-21.62,3.38l-1.69.79c-.84.49-1.72.62-2.64.37-1.62-.77-3.09-1.81-4.43-3.11-1.09-1.23-1.44-2.65-1.05-4.27Z"/>
        <path class="cls-3" d="M63.1,19.42c2.07-1.65,4.36-2.09,6.86-1.32l5.38,1.85,19.51-2.11c.84-.07,1.56-.39,2.16-.95l1-1.05c.49-.6,1.07-.7,1.74-.32,2.81,1.55,5.31,3.5,7.49,5.85.28.28.4.62.37,1-.07.39-.25.69-.53.9l-1.27,1.32c-1.76,6.82-2.79,13.75-3.11,20.78.84.39,1.49.99,1.95,1.82.46.83.65,1.71.58,2.66-.07.49-.3.92-.69,1.29s-.83.54-1.32.5c-9-.81-17.88-.54-26.63.79l-1.32-.69-1.21,2.48c-.28.39-.68.65-1.19.79-.51.14-.99.11-1.45-.11-2.25-1.44-3.96-3.38-5.12-5.8-.25-.6-.23-1.16.05-1.69l.69-1.48c.39-7.8.12-15.7-.79-23.68-.25-.95-.81-1.65-1.69-2.11l-1.48-.74ZM75.6,25.64l-.05,20.83,19.3-1.63.69-21.52-19.93,2.32Z"/>
        <path class="cls-3" d="M113.62,26.86c3.13,1.02,6.33,1.18,9.6.47l5.8-1.48-.32-11.07c-.07-1.23-.62-2.21-1.63-2.95.95-.95,2.09-1.57,3.43-1.87,1.34-.3,2.64-.24,3.9.18,2.25.77,3.88,2.27,4.9,4.48.11.42.03.81-.21,1.16-1.51,2.81-2.08,5.84-1.69,9.07,3.51-.77,6.96-1.16,10.34-1.16l1.79-1.69c.67-.56,1.34-.65,2-.26l6.75,4.48c.35.25.53.58.53,1,0,.35-.16.67-.47.95l-1.48,1.58c.6,10.34-2.08,19.64-8.02,27.9-1.48,1.86-3.36,2.6-5.64,2.21-.77-.11-1.34-.53-1.69-1.27-.74-2-1.84-3.73-3.3-5.17-1.46-1.44-3.17-2.57-5.14-3.38,2.6.21,5.22.63,7.86,1.27,1.23.21,2.2-.19,2.9-1.21,3.48-6.78,4.75-13.97,3.8-21.57l-10.71,1.58-.05,1.95c-.53,6.54-2.88,12.35-7.07,17.43-4.18,5.08-9.42,8.52-15.71,10.31,4.39-3.38,7.84-7.46,10.34-12.26,2.5-4.8,3.87-9.97,4.11-15.53-2.08.32-3.88,1.14-5.43,2.48-.28.28-.65.35-1.11.21-3.8-1.51-6.59-4.13-8.38-7.86ZM147.9,12.41c2.04-1.19,4.17-1.45,6.41-.76,2.23.69,3.89,2.08,4.98,4.19.35.77.41,1.58.18,2.43-.23.84-.69,1.51-1.4,2-.77.56-1.62.7-2.53.42-.92-.28-1.56-.84-1.95-1.69l-1.21-3.06c-.88-2.04-2.37-3.22-4.48-3.53ZM153.7,9.77c1.79-.98,3.69-1.39,5.7-1.21,2,.18,3.8.86,5.38,2.06.81.63,1.29,1.45,1.45,2.45s0,1.92-.5,2.77c-.6.77-1.4,1.16-2.4,1.16s-1.8-.35-2.4-1.05l-1.79-3.22c-1.37-1.79-3.18-2.78-5.43-2.95Z"/>
        <path class="cls-3" d="M169.21,23.22c5.66-.91,10.74.39,15.24,3.9,1.12.81,1.74,1.92,1.85,3.32.07,1.44-.4,2.64-1.42,3.59-1.05.81-2.26,1.18-3.61,1.11-1.35-.07-2.52-.56-3.51-1.48-1.51-1.48-2.62-3.27-3.32-5.38-.92-2.53-2.66-4.22-5.22-5.06ZM171.53,46.42c3.41.74,6.71.56,9.91-.53,13.99-7,25.98-16.51,35.96-28.53-7.52,15.61-18.63,27.97-33.33,37.07-.67.74-1.23,1.51-1.69,2.32-.25.46-.58.7-1,.74-.49.11-.92.02-1.27-.26-3.8-2.85-6.66-6.45-8.6-10.81ZM177.85,13.3c5.59-1.86,10.95-1.37,16.08,1.48,1.41.81,2.2,2.02,2.37,3.64.25,1.58-.25,2.95-1.48,4.11-.84.77-1.84,1.15-2.98,1.13-1.14-.02-2.12-.43-2.93-1.24-1.16-1.27-2.27-2.76-3.32-4.48-1.86-2.71-4.45-4.25-7.75-4.64Z"/>
        <path class="cls-3" d="M234.91,11.25c1.62-1.23,3.43-1.79,5.43-1.69,3.09.18,5.82,1.23,8.17,3.16.84.88.97,1.85.37,2.9l-1.27,1.69c-.32.74-.42,1.48-.32,2.21-.28,3.48,0,6.82.84,10.02l8.02-3.9c.42-.25.53-.6.32-1.05l-1.79-2.69c2.67-.14,5.11.54,7.3,2.03,2.2,1.5,3.72,3.51,4.56,6.04.25.92.13,1.79-.34,2.61-.47.83-1.19,1.38-2.14,1.66l-2.9.16c-3.34-.91-6.75-1.09-10.23-.53-.77.18-1.41.53-1.9,1.05l-1.21,1.79c-.74.95-1.74,1.42-3.01,1.42-1.2,0-2.2-.46-3.01-1.37-1.65.32-3.03,1.08-4.14,2.29s-1.75,2.65-1.92,4.3c-.21,1.23-.04,2.39.5,3.48.54,1.09,1.38,1.92,2.5,2.48,2.5,1.05,5.1,1.32,7.8.79,4.78-.88,9.7-1.92,14.77-3.11.98-.35,1.95-.35,2.9,0,.95.35,1.72.95,2.32,1.79.53.88.75,1.83.66,2.85-.09,1.02-.48,1.92-1.19,2.69-9.53,4.46-19.35,5.29-29.48,2.48-4.04-1.02-6.93-3.43-8.65-7.22-1.16-3.09-.9-6.06.79-8.91,2.88-4.22,6.78-6.91,11.71-8.07-1.44-6.19-2.16-12.52-2.16-18.98-.18-.74-.59-1.34-1.24-1.79-.65-.46-1.34-.65-2.08-.58Z"/>
        <path class="cls-3" d="M282.64,11.93c1.55-.25,3.04-.04,4.48.61,1.44.65,2.57,1.64,3.38,2.98,1.3,2.04,1.37,4.15.21,6.33-2.46,3.66-4.36,7.52-5.7,11.6-1.3,4.68-1.32,9.37-.05,14.08.84-5.91,2.62-11.53,5.33-16.88-2.6,7.73-2.06,15.24,1.63,22.52.7,1.58.42,2.99-.84,4.22-.6.53-1.28.83-2.06.92-.77.09-1.5-.08-2.16-.5-3.34-2.36-5.77-5.41-7.3-9.18-1.53-3.76-1.92-7.66-1.19-11.71,1.19-6.29,2.97-12.48,5.33-18.56.84-2.35.49-4.5-1.05-6.43ZM305.31,11.93c.84-.95,1.88-1.56,3.11-1.82,1.23-.26,2.44-.17,3.64.29l3.74,1.69c.6.32.98.79,1.16,1.42.14.6.05,1.21-.26,1.85l-1.37,2.27-.32,2.32,2.53-1.05c2-.32,3.76.18,5.27,1.48.49.84.64,1.79.45,2.82-.19,1.04-.69,1.85-1.5,2.45-2.57.81-5.04,1.86-7.44,3.16.07,5.1.69,10.09,1.85,14.98,1.93.53,3.78,1.34,5.54,2.43,1.23.84,2.21,1.93,2.95,3.27.35,1.51.3,3.01-.16,4.48-.35.88-1.04,1.48-2.06,1.79-.92.32-1.81.18-2.69-.42-1.55-1.02-3.11-1.92-4.69-2.69-1.09,2.53-2.94,4.18-5.54,4.96-2.92,1.05-5.84,1.05-8.75,0-1.41-.42-2.58-1.21-3.53-2.35s-1.51-2.45-1.69-3.93c-.14-1.44.11-2.79.74-4.03.63-1.25,1.56-2.24,2.79-2.98,2.92-1.83,6.05-2.37,9.39-1.63-.46-4.5-.65-8.72-.58-12.66l-3.59.16c-1.79.04-3.42-.49-4.88-1.58-1.46-1.09-2.4-2.51-2.82-4.27,1.27.56,2.65.76,4.17.58l7.07-2.11-.21-8.23c.07-.91-.3-1.65-1.11-2.21l-1.21-.42ZM308.27,48.74c-2.21-.98-4.59-1.37-7.12-1.16-1.34.25-2.09,1.02-2.27,2.32-.04.63.13,1.21.5,1.74s.87.88,1.5,1.05c1.58.6,3.09.49,4.54-.32,1.48-.84,2.43-2.06,2.85-3.64Z"/>
        <path class="cls-3" d="M356.62,48.16h-4.64v-7.91c.21-2.88,1.23-5.43,3.06-7.65,1.83-2.21,4.15-3.71,6.96-4.48,1.48-.42,2.74-1.21,3.8-2.37s1.72-2.55,2-4.17c.21-1.55-.02-3.02-.69-4.43-.67-1.41-1.63-2.53-2.9-3.38-2.74-1.69-5.7-2.55-8.86-2.58-3.16-.03-6.12.72-8.86,2.27-2.53,1.27-3.97,3.27-4.32,6.01-.07.63.14,1.2.63,1.69.42.49.95.74,1.58.74,1.05.07,1.99.39,2.79.95.81.56,1.39,1.34,1.74,2.32.35.98.39,1.97.11,2.95-.28.98-.77,1.79-1.48,2.43-1.48,1.13-3.13,1.62-4.96,1.48-1.83-.14-3.38-.88-4.64-2.21-1.41-1.76-2.3-3.71-2.69-5.85-.39-2.14-.23-4.24.47-6.28,1.76-3.8,4.57-6.36,8.44-7.7,4.71-1.83,9.53-2.39,14.45-1.69,4.92.7,9.39,2.57,13.39,5.59,2.32,2.11,3.53,4.76,3.64,7.96.11,3.2-.93,5.92-3.11,8.17-2.81,2.46-6.12,4.11-9.91,4.96-1.62.56-2.95,1.48-4.01,2.74s-1.72,2.74-2,4.43v6.01ZM360.63,55.33c0,1.48-.53,2.76-1.58,3.85-1.05,1.09-2.32,1.63-3.8,1.63-1.48.07-2.76-.44-3.85-1.53s-1.65-2.37-1.69-3.85c-.04-1.48.49-2.74,1.58-3.8,1.09-1.05,2.37-1.6,3.85-1.63,1.48-.03,2.76.47,3.85,1.53,1.09,1.05,1.63,2.32,1.63,3.8Z"/>
      </g>
      <g>
        <path class="cls-7" d="M16.18,64.04c-2.25,0-4.39-.82-6.12-2.33-2.93-2.18-5.67-4.78-8.14-7.73-2.11-2.52-2.46-6.08-.89-8.97,1.41-2.59,4.12-4.17,7.02-4.17.33,0,.66.02,1,.06.8.1,1.61.15,2.42.15,1.41,0,2.86-.16,4.32-.46.04,0,.08-.02.13-.03,5.26-1.02,10.43-1.85,15.46-2.49.09-1.68.16-3.36.21-5.05-3.72.54-7.41,1.21-11.04,1.98l-.62.29c-1.67.89-3.52,1.36-5.37,1.36-1,0-2-.13-2.98-.4-.47-.13-.93-.3-1.37-.51-2.4-1.14-4.6-2.69-6.56-4.6-.14-.14-.28-.28-.41-.43C.39,27.54-.62,23.47.37,19.3c.88-3.67,4.15-6.14,7.77-6.14.57,0,1.15.06,1.73.19,1.22.27,2.46.41,3.68.41.84,0,1.69-.06,2.54-.19l20.44-3.04.03-.03c1.9-1.9,4.35-2.94,6.92-2.94,1.7,0,3.34.44,4.88,1.31,0,0,7.16,4.15,7.2,4.17,2.41,1.45,4.03,3.92,4.44,6.78.05.38.08.75.08,1.13,0,2.7-1.08,5.16-2.99,6.9-.86,4.42-1.51,8.82-1.96,13.14,1.11,1.15,2.04,2.47,2.77,3.96.17.35.32.72.44,1.1,1,3.16.44,6.51-1.51,9.12-1.89,2.81-4.93,4.47-8.27,4.47-.1,0-.21,0-.31,0-1.39-.05-2.81-.08-4.19-.08-6.89,0-13.81.68-20.57,2.01-.69.17-1.32.43-1.9.77-1.64,1.12-3.5,1.71-5.4,1.71Z"/>
        <path class="cls-5" d="M72.29,63.1c-1.46,0-2.87-.31-4.2-.93-.33-.15-.65-.33-.96-.53-3.51-2.25-6.21-5.31-8.02-9.09-.06-.13-.12-.27-.18-.41-1.1-2.66-1.01-5.61.21-8.15.22-5.91.05-11.93-.52-17.96-1.94-1.31-3.22-3.43-3.47-5.79-.28-2.72.84-5.39,2.97-7.09,2.82-2.24,6.11-3.43,9.52-3.43,1.55,0,3.13.24,4.69.73.08.02.15.05.23.08l3.69,1.27,16.22-1.75c1.76-1.76,4.09-2.76,6.53-2.76,1.6,0,3.21.43,4.65,1.25,3.51,1.94,6.67,4.4,9.39,7.33,1.85,1.94,2.77,4.56,2.53,7.23-.02.24-.05.47-.1.7-.33,1.83-1.17,3.5-2.42,4.81-1.04,4.45-1.76,8.98-2.14,13.53.26.37.5.76.73,1.16,1.21,2.18,1.74,4.64,1.56,7.13-.01.18-.03.36-.06.54-.32,2.28-1.39,4.33-3.08,5.95-1.84,1.75-4.22,2.72-6.71,2.72-.23,0-.46,0-.7-.02-.05,0-.1,0-.15-.01-3.14-.28-6.31-.43-9.41-.43-4.53,0-9.08.3-13.55.91-1.24,1.25-2.78,2.15-4.54,2.64-.91.25-1.82.37-2.73.37ZM83.57,37.76l3.51-.3.16-5.13-3.66.43v5Z"/>
        <path class="cls-6" d="M144.35,67.97c-.78,0-1.57-.06-2.37-.19-3.4-.51-6.19-2.6-7.69-5.74-.1-.22-.2-.44-.28-.67-.33-.9-.79-1.63-1.41-2.24-.15-.15-.31-.3-.48-.43-4.5,4.15-9.8,7.1-15.83,8.82-.73.21-1.47.31-2.19.31-2.96,0-5.76-1.65-7.15-4.4-1.73-3.43-.77-7.6,2.27-9.94,3.49-2.68,6.14-5.82,8.11-9.61.35-.67.67-1.35.96-2.03-5.26-2.29-9.36-6.26-11.88-11.51-1.39-2.89-.92-6.32,1.19-8.74,1.55-1.77,3.75-2.73,6.02-2.73.83,0,1.66.13,2.48.4,1.06.34,2.08.51,3.15.51.52,0,1.05-.04,1.59-.12l-.08-2.9c-.95-1.22-1.54-2.71-1.66-4.28-.19-2.33.66-4.63,2.32-6.29,2.04-2.04,4.5-3.39,7.34-4.02,1.13-.25,2.27-.38,3.39-.38,1.62,0,3.23.26,4.79.78,2.31.8,4.33,2.01,6,3.59.29-.23.6-.44.93-.63,1.52-.89,3.09-1.51,4.72-1.87.39-.33.82-.62,1.28-.88,2.71-1.49,5.62-2.24,8.64-2.24.53,0,1.07.02,1.6.07,3.52.31,6.71,1.53,9.5,3.64.04.03.07.06.11.08,2.42,1.89,3.94,4.49,4.42,7.5.45,2.83-.07,5.61-1.49,8.05-.18.3-.37.59-.58.87-1.47,1.9-3.41,3.21-5.62,3.84.25.85.38,1.74.38,2.66,0,2.03-.65,3.94-1.87,5.54-.04,10.81-3.26,20.74-9.6,29.56-.07.1-.15.2-.23.3-2.73,3.45-6.56,5.35-10.77,5.35Z"/>
        <path class="cls-4" d="M181,65.54c-2.1,0-4.09-.68-5.75-1.96-4.85-3.66-8.57-8.34-11.04-13.92-1.22-2.75-.79-5.96,1.11-8.29,1.48-1.81,3.64-2.86,5.92-2.94-1.93-2.14-3.39-4.65-4.36-7.48-.01-.03-.02-.06-.03-.08-.03-.02-.08-.03-.14-.05-3.5-1.15-5.77-4.55-5.48-8.23.29-3.68,3.06-6.68,6.7-7.27.71-.11,1.41-.2,2.12-.27-.07-.3-.12-.61-.15-.93-.38-3.73,1.87-7.22,5.43-8.41,3.02-1.01,6.06-1.52,9.06-1.52,4.63,0,9.15,1.21,13.44,3.59.04.02.08.04.11.06,3.58,2.06,5.81,5.44,6.31,9.52.11.81.15,1.61.12,2.4,2.41-2.38,4.7-4.89,6.89-7.52,1.57-1.89,3.85-2.89,6.16-2.89,1.49,0,2.99.41,4.32,1.27,3.4,2.19,4.64,6.56,2.88,10.2-7.96,16.51-19.77,29.84-35.14,39.65-.04.06-.07.11-.1.17-1.43,2.58-3.92,4.32-6.74,4.74-.54.09-1.09.14-1.63.14Z"/>
        <path class="cls-1" d="M248.15,66.44c-4.5,0-9.1-.64-13.66-1.9-6.37-1.64-11.16-5.66-13.88-11.65-.07-.16-.14-.33-.2-.49-2.02-5.38-1.54-10.85,1.4-15.8.09-.15.18-.29.28-.43,2.5-3.66,5.58-6.52,9.21-8.55-.5-3.24-.82-6.51-.97-9.81-1.26-.88-2.28-2.13-2.87-3.64-1.3-3.33-.24-7.11,2.6-9.28,2.87-2.18,6.26-3.33,9.81-3.33.3,0,.59,0,.89.02,4.84.28,9.15,1.95,12.83,4.97.25.2.48.42.7.64,1.85,1.93,2.85,4.32,2.95,6.78,3.32.3,6.42,1.43,9.25,3.35,3.67,2.5,6.25,5.91,7.65,10.12.05.15.1.31.14.46.79,2.95.39,6.02-1.14,8.67-.96,1.68-2.28,3.04-3.87,4.03,1.48.91,2.77,2.12,3.8,3.56.12.17.23.34.34.51,1.39,2.31,2,4.96,1.77,7.64-.24,2.77-1.36,5.33-3.24,7.4-.71.78-1.57,1.41-2.52,1.86-6.89,3.23-14.04,4.86-21.27,4.86Z"/>
        <path class="cls-2" d="M305.16,66.39c-2.31,0-4.63-.4-6.9-1.2-.95-.3-1.85-.68-2.71-1.15-1.65,1.22-3.58,1.98-5.63,2.21-.44.05-.87.07-1.3.07-2.13,0-4.22-.61-6.04-1.76-.11-.07-.22-.15-.33-.22-4.6-3.24-8-7.51-10.1-12.7-2.1-5.18-2.66-10.61-1.65-16.16,1.23-6.51,3.06-12.95,5.43-19.21-1.38-2.14-1.67-4.83-.74-7.23,1.03-2.66,3.39-4.57,6.2-5.02.84-.13,1.68-.2,2.51-.2,2.24,0,4.43.48,6.51,1.41,2.91,1.32,5.23,3.35,6.88,6.05.01.02.03.05.04.07.12-1.74.81-3.41,2-4.75,1.97-2.21,4.53-3.71,7.42-4.33,1-.21,2.01-.32,3.02-.32,1.75,0,3.48.32,5.15.96.15.06.29.12.44.18l3.74,1.69c.15.07.31.14.46.22,2.54,1.34,4.35,3.59,5.12,6.34.03.11.06.22.09.33.04.17.08.34.11.51,1.12.55,2.19,1.25,3.17,2.09.67.58,1.25,1.27,1.69,2.04,1.46,2.51,1.95,5.38,1.4,8.31-.57,3.05-2.16,5.61-4.61,7.43-.71.53-1.5.93-2.35,1.2-.52.17-1.04.34-1.56.54.13,1.37.31,2.73.53,4.08.95.46,1.87.96,2.78,1.52.11.07.21.13.31.2,2.26,1.55,4.09,3.57,5.43,6,.36.65.62,1.34.79,2.06.67,2.9.57,5.81-.31,8.65-.06.21-.14.41-.22.61-1.24,3.1-3.72,5.37-7,6.42-1.12.37-2.27.56-3.43.56-1.61,0-3.2-.37-4.68-1.07-1.42,1.01-3.02,1.8-4.79,2.35-2.26.79-4.58,1.19-6.88,1.19Z"/>
        <path class="cls-9" d="M354.99,68.82c-3.51,0-6.7-1.34-9.24-3.88-2.55-2.55-3.95-5.78-4.03-9.32-.07-2.77.73-5.42,2.27-7.66,0,0,0-7.86,0-7.93-.26.01-.52.02-.79.02-.4,0-.81-.02-1.22-.05-3.8-.29-7.21-1.91-9.84-4.69-.15-.16-.3-.33-.44-.5-2.24-2.8-3.69-5.97-4.32-9.43-.63-3.5-.37-6.96.79-10.31.09-.25.19-.5.3-.75,2.64-5.7,7.11-9.79,12.94-11.85,4.27-1.64,8.69-2.47,13.13-2.47,1.72,0,3.47.13,5.21.37,6.26.89,12,3.29,17.08,7.12.19.15.38.3.56.47,3.91,3.56,6.08,8.27,6.25,13.62.18,5.36-1.68,10.2-5.36,14-.15.16-.31.31-.48.45-3.66,3.2-7.96,5.41-12.79,6.59-.15.08-.21.15-.25.21-.05.06-.1.13-.15.23v2.77c2.62,2.57,4.01,5.85,4.01,9.48s-1.33,6.82-3.83,9.41c-2.54,2.62-5.77,4.02-9.36,4.07-.15,0-.3,0-.45,0ZM354.73,19.2c.58.79,1.06,1.65,1.45,2.58,1.14-.54,2.33-.99,3.58-1.34-1.42-.82-2.89-1.23-4.5-1.25,0,0-.4,0-.54,0Z"/>
      </g>
      <g>
        <path class="cls-8" d="M8.16,21.16c3.02.67,6.06.77,9.12.32l23.04-3.43,1.9-1.9c.67-.67,1.41-.77,2.21-.32l7.01,4.06c.35.21.56.56.63,1.05,0,.49-.18.86-.53,1.11l-1.27,1.27c-.39.63-.69,1.37-.9,2.21-1.3,6.54-2.18,12.97-2.64,19.3,1.79.7,3.11,1.92,3.96,3.64.25.77.11,1.46-.42,2.06-.42.74-1,1.11-1.74,1.11-9.04-.35-17.96.35-26.79,2.11-1.65.39-3.18,1.02-4.59,1.9-.74.56-1.41.53-2-.11-2.57-1.86-4.94-4.09-7.12-6.7,3.09.39,6.22.25,9.39-.42,7.42-1.44,14.55-2.48,21.41-3.11.67-7.03.91-14.13.74-21.3-7.31.7-14.52,1.83-21.62,3.38l-1.69.79c-.84.49-1.72.62-2.64.37-1.62-.77-3.09-1.81-4.43-3.11-1.09-1.23-1.44-2.65-1.05-4.27Z"/>
        <path class="cls-8" d="M63.1,19.42c2.07-1.65,4.36-2.09,6.86-1.32l5.38,1.85,19.51-2.11c.84-.07,1.56-.39,2.16-.95l1-1.05c.49-.6,1.07-.7,1.74-.32,2.81,1.55,5.31,3.5,7.49,5.85.28.28.4.62.37,1-.07.39-.25.69-.53.9l-1.27,1.32c-1.76,6.82-2.79,13.75-3.11,20.78.84.39,1.49.99,1.95,1.82.46.83.65,1.71.58,2.66-.07.49-.3.92-.69,1.29s-.83.54-1.32.5c-9-.81-17.88-.54-26.63.79l-1.32-.69-1.21,2.48c-.28.39-.68.65-1.19.79-.51.14-.99.11-1.45-.11-2.25-1.44-3.96-3.38-5.12-5.8-.25-.6-.23-1.16.05-1.69l.69-1.48c.39-7.8.12-15.7-.79-23.68-.25-.95-.81-1.65-1.69-2.11l-1.48-.74ZM75.6,25.64l-.05,20.83,19.3-1.63.69-21.52-19.93,2.32Z"/>
        <path class="cls-8" d="M113.62,26.86c3.13,1.02,6.33,1.18,9.6.47l5.8-1.48-.32-11.07c-.07-1.23-.62-2.21-1.63-2.95.95-.95,2.09-1.57,3.43-1.87,1.34-.3,2.64-.24,3.9.18,2.25.77,3.88,2.27,4.9,4.48.11.42.03.81-.21,1.16-1.51,2.81-2.08,5.84-1.69,9.07,3.51-.77,6.96-1.16,10.34-1.16l1.79-1.69c.67-.56,1.34-.65,2-.26l6.75,4.48c.35.25.53.58.53,1,0,.35-.16.67-.47.95l-1.48,1.58c.6,10.34-2.08,19.64-8.02,27.9-1.48,1.86-3.36,2.6-5.64,2.21-.77-.11-1.34-.53-1.69-1.27-.74-2-1.84-3.73-3.3-5.17-1.46-1.44-3.17-2.57-5.14-3.38,2.6.21,5.22.63,7.86,1.27,1.23.21,2.2-.19,2.9-1.21,3.48-6.78,4.75-13.97,3.8-21.57l-10.71,1.58-.05,1.95c-.53,6.54-2.88,12.35-7.07,17.43-4.18,5.08-9.42,8.52-15.71,10.31,4.39-3.38,7.84-7.46,10.34-12.26,2.5-4.8,3.87-9.97,4.11-15.53-2.08.32-3.88,1.14-5.43,2.48-.28.28-.65.35-1.11.21-3.8-1.51-6.59-4.13-8.38-7.86ZM147.9,12.41c2.04-1.19,4.17-1.45,6.41-.76,2.23.69,3.89,2.08,4.98,4.19.35.77.41,1.58.18,2.43-.23.84-.69,1.51-1.4,2-.77.56-1.62.7-2.53.42-.92-.28-1.56-.84-1.95-1.69l-1.21-3.06c-.88-2.04-2.37-3.22-4.48-3.53ZM153.7,9.77c1.79-.98,3.69-1.39,5.7-1.21,2,.18,3.8.86,5.38,2.06.81.63,1.29,1.45,1.45,2.45s0,1.92-.5,2.77c-.6.77-1.4,1.16-2.4,1.16s-1.8-.35-2.4-1.05l-1.79-3.22c-1.37-1.79-3.18-2.78-5.43-2.95Z"/>
        <path class="cls-8" d="M169.21,23.22c5.66-.91,10.74.39,15.24,3.9,1.12.81,1.74,1.92,1.85,3.32.07,1.44-.4,2.64-1.42,3.59-1.05.81-2.26,1.18-3.61,1.11-1.35-.07-2.52-.56-3.51-1.48-1.51-1.48-2.62-3.27-3.32-5.38-.92-2.53-2.66-4.22-5.22-5.06ZM171.53,46.42c3.41.74,6.71.56,9.91-.53,13.99-7,25.98-16.51,35.96-28.53-7.52,15.61-18.63,27.97-33.33,37.07-.67.74-1.23,1.51-1.69,2.32-.25.46-.58.7-1,.74-.49.11-.92.02-1.27-.26-3.8-2.85-6.66-6.45-8.6-10.81ZM177.85,13.3c5.59-1.86,10.95-1.37,16.08,1.48,1.41.81,2.2,2.02,2.37,3.64.25,1.58-.25,2.95-1.48,4.11-.84.77-1.84,1.15-2.98,1.13-1.14-.02-2.12-.43-2.93-1.24-1.16-1.27-2.27-2.76-3.32-4.48-1.86-2.71-4.45-4.25-7.75-4.64Z"/>
        <path class="cls-8" d="M234.91,11.25c1.62-1.23,3.43-1.79,5.43-1.69,3.09.18,5.82,1.23,8.17,3.16.84.88.97,1.85.37,2.9l-1.27,1.69c-.32.74-.42,1.48-.32,2.21-.28,3.48,0,6.82.84,10.02l8.02-3.9c.42-.25.53-.6.32-1.05l-1.79-2.69c2.67-.14,5.11.54,7.3,2.03,2.2,1.5,3.72,3.51,4.56,6.04.25.92.13,1.79-.34,2.61-.47.83-1.19,1.38-2.14,1.66l-2.9.16c-3.34-.91-6.75-1.09-10.23-.53-.77.18-1.41.53-1.9,1.05l-1.21,1.79c-.74.95-1.74,1.42-3.01,1.42-1.2,0-2.2-.46-3.01-1.37-1.65.32-3.03,1.08-4.14,2.29s-1.75,2.65-1.92,4.3c-.21,1.23-.04,2.39.5,3.48.54,1.09,1.38,1.92,2.5,2.48,2.5,1.05,5.1,1.32,7.8.79,4.78-.88,9.7-1.92,14.77-3.11.98-.35,1.95-.35,2.9,0,.95.35,1.72.95,2.32,1.79.53.88.75,1.83.66,2.85-.09,1.02-.48,1.92-1.19,2.69-9.53,4.46-19.35,5.29-29.48,2.48-4.04-1.02-6.93-3.43-8.65-7.22-1.16-3.09-.9-6.06.79-8.91,2.88-4.22,6.78-6.91,11.71-8.07-1.44-6.19-2.16-12.52-2.16-18.98-.18-.74-.59-1.34-1.24-1.79-.65-.46-1.34-.65-2.08-.58Z"/>
        <path class="cls-8" d="M282.64,11.93c1.55-.25,3.04-.04,4.48.61,1.44.65,2.57,1.64,3.38,2.98,1.3,2.04,1.37,4.15.21,6.33-2.46,3.66-4.36,7.52-5.7,11.6-1.3,4.68-1.32,9.37-.05,14.08.84-5.91,2.62-11.53,5.33-16.88-2.6,7.73-2.06,15.24,1.63,22.52.7,1.58.42,2.99-.84,4.22-.6.53-1.28.83-2.06.92-.77.09-1.5-.08-2.16-.5-3.34-2.36-5.77-5.41-7.3-9.18-1.53-3.76-1.92-7.66-1.19-11.71,1.19-6.29,2.97-12.48,5.33-18.56.84-2.35.49-4.5-1.05-6.43ZM305.31,11.93c.84-.95,1.88-1.56,3.11-1.82,1.23-.26,2.44-.17,3.64.29l3.74,1.69c.6.32.98.79,1.16,1.42.14.6.05,1.21-.26,1.85l-1.37,2.27-.32,2.32,2.53-1.05c2-.32,3.76.18,5.27,1.48.49.84.64,1.79.45,2.82-.19,1.04-.69,1.85-1.5,2.45-2.57.81-5.04,1.86-7.44,3.16.07,5.1.69,10.09,1.85,14.98,1.93.53,3.78,1.34,5.54,2.43,1.23.84,2.21,1.93,2.95,3.27.35,1.51.3,3.01-.16,4.48-.35.88-1.04,1.48-2.06,1.79-.92.32-1.81.18-2.69-.42-1.55-1.02-3.11-1.92-4.69-2.69-1.09,2.53-2.94,4.18-5.54,4.96-2.92,1.05-5.84,1.05-8.75,0-1.41-.42-2.58-1.21-3.53-2.35s-1.51-2.45-1.69-3.93c-.14-1.44.11-2.79.74-4.03.63-1.25,1.56-2.24,2.79-2.98,2.92-1.83,6.05-2.37,9.39-1.63-.46-4.5-.65-8.72-.58-12.66l-3.59.16c-1.79.04-3.42-.49-4.88-1.58-1.46-1.09-2.4-2.51-2.82-4.27,1.27.56,2.65.76,4.17.58l7.07-2.11-.21-8.23c.07-.91-.3-1.65-1.11-2.21l-1.21-.42ZM308.27,48.74c-2.21-.98-4.59-1.37-7.12-1.16-1.34.25-2.09,1.02-2.27,2.32-.04.63.13,1.21.5,1.74s.87.88,1.5,1.05c1.58.6,3.09.49,4.54-.32,1.48-.84,2.43-2.06,2.85-3.64Z"/>
        <path class="cls-8" d="M356.62,48.16h-4.64v-7.91c.21-2.88,1.23-5.43,3.06-7.65,1.83-2.21,4.15-3.71,6.96-4.48,1.48-.42,2.74-1.21,3.8-2.37s1.72-2.55,2-4.17c.21-1.55-.02-3.02-.69-4.43-.67-1.41-1.63-2.53-2.9-3.38-2.74-1.69-5.7-2.55-8.86-2.58-3.16-.03-6.12.72-8.86,2.27-2.53,1.27-3.97,3.27-4.32,6.01-.07.63.14,1.2.63,1.69.42.49.95.74,1.58.74,1.05.07,1.99.39,2.79.95.81.56,1.39,1.34,1.74,2.32.35.98.39,1.97.11,2.95-.28.98-.77,1.79-1.48,2.43-1.48,1.13-3.13,1.62-4.96,1.48-1.83-.14-3.38-.88-4.64-2.21-1.41-1.76-2.3-3.71-2.69-5.85-.39-2.14-.23-4.24.47-6.28,1.76-3.8,4.57-6.36,8.44-7.7,4.71-1.83,9.53-2.39,14.45-1.69,4.92.7,9.39,2.57,13.39,5.59,2.32,2.11,3.53,4.76,3.64,7.96.11,3.2-.93,5.92-3.11,8.17-2.81,2.46-6.12,4.11-9.91,4.96-1.62.56-2.95,1.48-4.01,2.74s-1.72,2.74-2,4.43v6.01ZM360.63,55.33c0,1.48-.53,2.76-1.58,3.85-1.05,1.09-2.32,1.63-3.8,1.63-1.48.07-2.76-.44-3.85-1.53s-1.65-2.37-1.69-3.85c-.04-1.48.49-2.74,1.58-3.8,1.09-1.05,2.37-1.6,3.85-1.63,1.48-.03,2.76.47,3.85,1.53,1.09,1.05,1.63,2.32,1.63,3.8Z"/>
      </g>
      <g>
        <path class="cls-3" d="M8.16,21.16c3.02.67,6.06.77,9.12.32l23.04-3.43,1.9-1.9c.67-.67,1.41-.77,2.21-.32l7.01,4.06c.35.21.56.56.63,1.05,0,.49-.18.86-.53,1.11l-1.27,1.27c-.39.63-.69,1.37-.9,2.21-1.3,6.54-2.18,12.97-2.64,19.3,1.79.7,3.11,1.92,3.96,3.64.25.77.11,1.46-.42,2.06-.42.74-1,1.11-1.74,1.11-9.04-.35-17.96.35-26.79,2.11-1.65.39-3.18,1.02-4.59,1.9-.74.56-1.41.53-2-.11-2.57-1.86-4.94-4.09-7.12-6.7,3.09.39,6.22.25,9.39-.42,7.42-1.44,14.55-2.48,21.41-3.11.67-7.03.91-14.13.74-21.3-7.31.7-14.52,1.83-21.62,3.38l-1.69.79c-.84.49-1.72.62-2.64.37-1.62-.77-3.09-1.81-4.43-3.11-1.09-1.23-1.44-2.65-1.05-4.27Z"/>
        <path class="cls-3" d="M63.1,19.42c2.07-1.65,4.36-2.09,6.86-1.32l5.38,1.85,19.51-2.11c.84-.07,1.56-.39,2.16-.95l1-1.05c.49-.6,1.07-.7,1.74-.32,2.81,1.55,5.31,3.5,7.49,5.85.28.28.4.62.37,1-.07.39-.25.69-.53.9l-1.27,1.32c-1.76,6.82-2.79,13.75-3.11,20.78.84.39,1.49.99,1.95,1.82.46.83.65,1.71.58,2.66-.07.49-.3.92-.69,1.29s-.83.54-1.32.5c-9-.81-17.88-.54-26.63.79l-1.32-.69-1.21,2.48c-.28.39-.68.65-1.19.79-.51.14-.99.11-1.45-.11-2.25-1.44-3.96-3.38-5.12-5.8-.25-.6-.23-1.16.05-1.69l.69-1.48c.39-7.8.12-15.7-.79-23.68-.25-.95-.81-1.65-1.69-2.11l-1.48-.74ZM75.6,25.64l-.05,20.83,19.3-1.63.69-21.52-19.93,2.32Z"/>
        <path class="cls-3" d="M113.62,26.86c3.13,1.02,6.33,1.18,9.6.47l5.8-1.48-.32-11.07c-.07-1.23-.62-2.21-1.63-2.95.95-.95,2.09-1.57,3.43-1.87,1.34-.3,2.64-.24,3.9.18,2.25.77,3.88,2.27,4.9,4.48.11.42.03.81-.21,1.16-1.51,2.81-2.08,5.84-1.69,9.07,3.51-.77,6.96-1.16,10.34-1.16l1.79-1.69c.67-.56,1.34-.65,2-.26l6.75,4.48c.35.25.53.58.53,1,0,.35-.16.67-.47.95l-1.48,1.58c.6,10.34-2.08,19.64-8.02,27.9-1.48,1.86-3.36,2.6-5.64,2.21-.77-.11-1.34-.53-1.69-1.27-.74-2-1.84-3.73-3.3-5.17-1.46-1.44-3.17-2.57-5.14-3.38,2.6.21,5.22.63,7.86,1.27,1.23.21,2.2-.19,2.9-1.21,3.48-6.78,4.75-13.97,3.8-21.57l-10.71,1.58-.05,1.95c-.53,6.54-2.88,12.35-7.07,17.43-4.18,5.08-9.42,8.52-15.71,10.31,4.39-3.38,7.84-7.46,10.34-12.26,2.5-4.8,3.87-9.97,4.11-15.53-2.08.32-3.88,1.14-5.43,2.48-.28.28-.65.35-1.11.21-3.8-1.51-6.59-4.13-8.38-7.86ZM147.9,12.41c2.04-1.19,4.17-1.45,6.41-.76,2.23.69,3.89,2.08,4.98,4.19.35.77.41,1.58.18,2.43-.23.84-.69,1.51-1.4,2-.77.56-1.62.7-2.53.42-.92-.28-1.56-.84-1.95-1.69l-1.21-3.06c-.88-2.04-2.37-3.22-4.48-3.53ZM153.7,9.77c1.79-.98,3.69-1.39,5.7-1.21,2,.18,3.8.86,5.38,2.06.81.63,1.29,1.45,1.45,2.45s0,1.92-.5,2.77c-.6.77-1.4,1.16-2.4,1.16s-1.8-.35-2.4-1.05l-1.79-3.22c-1.37-1.79-3.18-2.78-5.43-2.95Z"/>
        <path class="cls-3" d="M169.21,23.22c5.66-.91,10.74.39,15.24,3.9,1.12.81,1.74,1.92,1.85,3.32.07,1.44-.4,2.64-1.42,3.59-1.05.81-2.26,1.18-3.61,1.11-1.35-.07-2.52-.56-3.51-1.48-1.51-1.48-2.62-3.27-3.32-5.38-.92-2.53-2.66-4.22-5.22-5.06ZM171.53,46.42c3.41.74,6.71.56,9.91-.53,13.99-7,25.98-16.51,35.96-28.53-7.52,15.61-18.63,27.97-33.33,37.07-.67.74-1.23,1.51-1.69,2.32-.25.46-.58.7-1,.74-.49.11-.92.02-1.27-.26-3.8-2.85-6.66-6.45-8.6-10.81ZM177.85,13.3c5.59-1.86,10.95-1.37,16.08,1.48,1.41.81,2.2,2.02,2.37,3.64.25,1.58-.25,2.95-1.48,4.11-.84.77-1.84,1.15-2.98,1.13-1.14-.02-2.12-.43-2.93-1.24-1.16-1.27-2.27-2.76-3.32-4.48-1.86-2.71-4.45-4.25-7.75-4.64Z"/>
        <path class="cls-3" d="M234.91,11.25c1.62-1.23,3.43-1.79,5.43-1.69,3.09.18,5.82,1.23,8.17,3.16.84.88.97,1.85.37,2.9l-1.27,1.69c-.32.74-.42,1.48-.32,2.21-.28,3.48,0,6.82.84,10.02l8.02-3.9c.42-.25.53-.6.32-1.05l-1.79-2.69c2.67-.14,5.11.54,7.3,2.03,2.2,1.5,3.72,3.51,4.56,6.04.25.92.13,1.79-.34,2.61-.47.83-1.19,1.38-2.14,1.66l-2.9.16c-3.34-.91-6.75-1.09-10.23-.53-.77.18-1.41.53-1.9,1.05l-1.21,1.79c-.74.95-1.74,1.42-3.01,1.42-1.2,0-2.2-.46-3.01-1.37-1.65.32-3.03,1.08-4.14,2.29s-1.75,2.65-1.92,4.3c-.21,1.23-.04,2.39.5,3.48.54,1.09,1.38,1.92,2.5,2.48,2.5,1.05,5.1,1.32,7.8.79,4.78-.88,9.7-1.92,14.77-3.11.98-.35,1.95-.35,2.9,0,.95.35,1.72.95,2.32,1.79.53.88.75,1.83.66,2.85-.09,1.02-.48,1.92-1.19,2.69-9.53,4.46-19.35,5.29-29.48,2.48-4.04-1.02-6.93-3.43-8.65-7.22-1.16-3.09-.9-6.06.79-8.91,2.88-4.22,6.78-6.91,11.71-8.07-1.44-6.19-2.16-12.52-2.16-18.98-.18-.74-.59-1.34-1.24-1.79-.65-.46-1.34-.65-2.08-.58Z"/>
        <path class="cls-3" d="M282.64,11.93c1.55-.25,3.04-.04,4.48.61,1.44.65,2.57,1.64,3.38,2.98,1.3,2.04,1.37,4.15.21,6.33-2.46,3.66-4.36,7.52-5.7,11.6-1.3,4.68-1.32,9.37-.05,14.08.84-5.91,2.62-11.53,5.33-16.88-2.6,7.73-2.06,15.24,1.63,22.52.7,1.58.42,2.99-.84,4.22-.6.53-1.28.83-2.06.92-.77.09-1.5-.08-2.16-.5-3.34-2.36-5.77-5.41-7.3-9.18-1.53-3.76-1.92-7.66-1.19-11.71,1.19-6.29,2.97-12.48,5.33-18.56.84-2.35.49-4.5-1.05-6.43ZM305.31,11.93c.84-.95,1.88-1.56,3.11-1.82,1.23-.26,2.44-.17,3.64.29l3.74,1.69c.6.32.98.79,1.16,1.42.14.6.05,1.21-.26,1.85l-1.37,2.27-.32,2.32,2.53-1.05c2-.32,3.76.18,5.27,1.48.49.84.64,1.79.45,2.82-.19,1.04-.69,1.85-1.5,2.45-2.57.81-5.04,1.86-7.44,3.16.07,5.1.69,10.09,1.85,14.98,1.93.53,3.78,1.34,5.54,2.43,1.23.84,2.21,1.93,2.95,3.27.35,1.51.3,3.01-.16,4.48-.35.88-1.04,1.48-2.06,1.79-.92.32-1.81.18-2.69-.42-1.55-1.02-3.11-1.92-4.69-2.69-1.09,2.53-2.94,4.18-5.54,4.96-2.92,1.05-5.84,1.05-8.75,0-1.41-.42-2.58-1.21-3.53-2.35s-1.51-2.45-1.69-3.93c-.14-1.44.11-2.79.74-4.03.63-1.25,1.56-2.24,2.79-2.98,2.92-1.83,6.05-2.37,9.39-1.63-.46-4.5-.65-8.72-.58-12.66l-3.59.16c-1.79.04-3.42-.49-4.88-1.58-1.46-1.09-2.4-2.51-2.82-4.27,1.27.56,2.65.76,4.17.58l7.07-2.11-.21-8.23c.07-.91-.3-1.65-1.11-2.21l-1.21-.42ZM308.27,48.74c-2.21-.98-4.59-1.37-7.12-1.16-1.34.25-2.09,1.02-2.27,2.32-.04.63.13,1.21.5,1.74s.87.88,1.5,1.05c1.58.6,3.09.49,4.54-.32,1.48-.84,2.43-2.06,2.85-3.64Z"/>
        <path class="cls-3" d="M356.62,48.16h-4.64v-7.91c.21-2.88,1.23-5.43,3.06-7.65,1.83-2.21,4.15-3.71,6.96-4.48,1.48-.42,2.74-1.21,3.8-2.37s1.72-2.55,2-4.17c.21-1.55-.02-3.02-.69-4.43-.67-1.41-1.63-2.53-2.9-3.38-2.74-1.69-5.7-2.55-8.86-2.58-3.16-.03-6.12.72-8.86,2.27-2.53,1.27-3.97,3.27-4.32,6.01-.07.63.14,1.2.63,1.69.42.49.95.74,1.58.74,1.05.07,1.99.39,2.79.95.81.56,1.39,1.34,1.74,2.32.35.98.39,1.97.11,2.95-.28.98-.77,1.79-1.48,2.43-1.48,1.13-3.13,1.62-4.96,1.48-1.83-.14-3.38-.88-4.64-2.21-1.41-1.76-2.3-3.71-2.69-5.85-.39-2.14-.23-4.24.47-6.28,1.76-3.8,4.57-6.36,8.44-7.7,4.71-1.83,9.53-2.39,14.45-1.69,4.92.7,9.39,2.57,13.39,5.59,2.32,2.11,3.53,4.76,3.64,7.96.11,3.2-.93,5.92-3.11,8.17-2.81,2.46-6.12,4.11-9.91,4.96-1.62.56-2.95,1.48-4.01,2.74s-1.72,2.74-2,4.43v6.01ZM360.63,55.33c0,1.48-.53,2.76-1.58,3.85-1.05,1.09-2.32,1.63-3.8,1.63-1.48.07-2.76-.44-3.85-1.53s-1.65-2.37-1.69-3.85c-.04-1.48.49-2.74,1.58-3.8,1.09-1.05,2.37-1.6,3.85-1.63,1.48-.03,2.76.47,3.85,1.53,1.09,1.05,1.63,2.32,1.63,3.8Z"/>
      </g>
    </g>
  </g>
</svg>